<svg width="66" height="66" viewBox="0 0 66 66" fill="none" xmlns="http://www.w3.org/2000/svg">
<path d="M13.3822 54.3168C10.4381 54.3168 8.07725 53.4335 6.43705 51.6742C3.12919 48.1266 3.19095 41.6758 6.60862 33.5164C7.8096 30.6494 9.16844 27.3987 10.8155 24.633C13.1008 20.7886 15.5783 18.4429 18.6048 17.2556C19.0028 17.1035 19.4146 16.966 19.8332 16.8501C23.6146 15.6917 28.1715 15.0691 32.9754 15.0691C37.5049 15.0691 41.849 15.6266 45.5481 16.6836C46.5363 16.8863 47.4834 17.2121 48.3687 17.6465C50.9285 18.8918 53.1452 21.1144 55.1491 24.4303C56.8511 27.2467 58.2442 30.577 59.4795 33.5164C62.8972 41.6758 62.9589 48.1266 59.6511 51.6742C56.3638 55.2 50.201 55.2 42.2951 51.6742C40.9569 51.0805 39.9412 50.6099 38.9941 50.1538L38.9255 50.1176C38.6372 49.9583 38.3421 49.8135 38.0402 49.6832C35.0411 48.3728 31.1225 48.3655 28.1097 49.6542C27.7529 49.8352 27.396 50.009 27.0391 50.1755C26.1127 50.6244 25.1107 51.0805 23.7862 51.6742C19.8401 53.4407 16.3195 54.3168 13.3822 54.3168ZM32.9686 17.9651C28.4254 17.9651 24.1293 18.5443 20.5538 19.6447C20.1832 19.7461 19.8607 19.8547 19.5518 19.9705C17.1224 20.919 15.0842 22.8955 13.1351 26.1679C11.5979 28.7526 10.2802 31.9019 9.11353 34.6821C6.2243 41.5817 5.95665 47.0334 8.39294 49.6398C10.8018 52.2244 16.0244 51.9927 22.7224 49.0026C24.0195 48.4307 24.994 47.9746 25.8999 47.5402C26.2568 47.3664 26.6136 47.1927 26.9636 47.0189L27.0323 46.9899C30.7039 45.4044 35.4186 45.4116 39.0833 47.0117C39.447 47.1709 39.8108 47.3447 40.1608 47.5402C41.0735 47.9746 42.0549 48.4307 43.352 49.0099C50.05 51.9927 55.2726 52.2244 57.6815 49.647C60.1109 47.0406 59.8501 41.589 56.9609 34.6893C55.7667 31.844 54.4148 28.615 52.8295 25.9869C51.0932 23.1127 49.3089 21.3027 47.2089 20.2746C46.5089 19.9343 45.7539 19.6809 44.9647 19.5216L44.8618 19.4999C41.3892 18.4936 37.2784 17.9651 32.9686 17.9651Z" fill="#454545"/>
<path d="M23.0106 37.2523H14.089C13.5194 37.2523 13.0596 36.7672 13.0596 36.1663C13.0596 35.5654 13.5194 35.0803 14.089 35.0803H23.0106C23.5803 35.0803 24.0401 35.5654 24.0401 36.1663C24.0401 36.7672 23.5734 37.2523 23.0106 37.2523Z" fill="#454545"/>
<path d="M18.5496 41.9583C17.9801 41.9583 17.5203 41.4732 17.5203 40.8723V31.4604C17.5203 30.8595 17.9801 30.3744 18.5496 30.3744C19.1192 30.3744 19.579 30.8595 19.579 31.4604V40.8723C19.579 41.4732 19.1123 41.9583 18.5496 41.9583Z" fill="#454545"/>
<path d="M43.592 38.0847C44.4144 38.0847 45.0811 37.3814 45.0811 36.5137C45.0811 35.646 44.4144 34.9426 43.592 34.9426C42.7696 34.9426 42.103 35.646 42.103 36.5137C42.103 37.3814 42.7696 38.0847 43.592 38.0847Z" fill="#454545"/>
<path d="M48.7184 32.6765C49.5408 32.6765 50.2075 31.9731 50.2075 31.1054C50.2075 30.2377 49.5408 29.5343 48.7184 29.5343C47.896 29.5343 47.2294 30.2377 47.2294 31.1054C47.2294 31.9731 47.896 32.6765 48.7184 32.6765Z" fill="#454545"/>
<path d="M48.0664 42.7979C48.8888 42.7979 49.5555 42.0945 49.5555 41.2268C49.5555 40.3592 48.8888 39.6558 48.0664 39.6558C47.244 39.6558 46.5773 40.3592 46.5773 41.2268C46.5773 42.0945 47.244 42.7979 48.0664 42.7979Z" fill="#454545"/>
<path d="M53.1929 37.3897C54.0153 37.3897 54.682 36.6863 54.682 35.8186C54.682 34.9509 54.0153 34.2476 53.1929 34.2476C52.3705 34.2476 51.7039 34.9509 51.7039 35.8186C51.7039 36.6863 52.3705 37.3897 53.1929 37.3897Z" fill="#454545"/>
<path d="M13.8351 16.3939C13.4989 16.3939 13.1694 16.2201 12.9704 15.9016C12.6616 15.402 12.792 14.7287 13.2724 14.3957C13.4783 14.2581 18.2754 10.9712 23.2578 11.0002C23.8274 11.0002 24.2872 11.4925 24.2803 12.0934C24.2735 12.6943 23.8274 13.1939 23.2509 13.1721C23.2372 13.1721 23.2235 13.1721 23.2097 13.1721C18.8793 13.1721 14.4391 16.1839 14.3979 16.2201C14.2263 16.336 14.0342 16.3939 13.8351 16.3939Z" fill="#454545"/>
<path d="M54.3119 17.842C54.0512 17.842 53.7904 17.7406 53.5845 17.5306C50.4962 14.3089 45.3011 13.165 45.2462 13.1578C44.6903 13.0419 44.3266 12.4627 44.4432 11.8763C44.553 11.2899 45.1021 10.9134 45.658 11.0292C45.8982 11.0799 51.5188 12.3107 55.0325 15.9885C55.4374 16.4085 55.4374 17.0962 55.0394 17.5234C54.8404 17.7334 54.5727 17.842 54.3119 17.842Z" fill="#454545"/>
</svg>
