<svg width="26" height="26" viewBox="0 0 26 26" fill="none" xmlns="http://www.w3.org/2000/svg">
<path d="M21.0553 10.6569C20.7546 6.93429 17.4695 4 13.4556 4H12.6344C9.46495 4 6.76978 5.82846 5.61306 8.42334H8.26196C9.21047 7.08758 10.7952 6.18977 12.6344 6.18977H13.4556C16.1855 6.18977 18.4064 8.14962 18.7187 10.6569H13.0508H7.38285H5.0347H5V11.2262V21.77H21.09V11.2262V10.6569H21.0553ZM18.7766 19.5802H7.31344V12.8467H18.7766V19.5802Z" fill="black"/>
<path d="M12.4266 16.8649V17.8722C12.4266 18.124 12.6463 18.332 12.9124 18.332H13.1784C13.4445 18.332 13.6642 18.124 13.6642 17.8722V16.8649C14.3351 16.624 14.8094 16.0218 14.8094 15.3102C14.8094 14.3905 14.0228 13.6459 13.0512 13.6459C12.0795 13.6459 11.293 14.3905 11.293 15.3102C11.293 16.0218 11.7672 16.624 12.4266 16.8649Z" fill="black"/>
</svg>
