<svg width="40" height="41" viewBox="0 0 40 41" fill="none" xmlns="http://www.w3.org/2000/svg">
<path d="M19.9942 0.0229492C16.502 0.0229492 13.2153 0.924519 10.3508 2.49941H29.6262C26.7845 0.913106 23.4978 0.0229492 19.9942 0.0229492Z" fill="#C40505"/>
<path d="M19.9942 40.0115C23.6119 40.0115 27.0014 39.0414 29.9229 37.3752H10.0656C12.9985 39.0528 16.3879 40.0115 19.9942 40.0115Z" fill="#C40505"/>
<path d="M10.0657 37.3749H29.923C31.5093 36.4619 32.9587 35.3435 34.2369 34.054H5.75183C7.03001 35.3435 8.47936 36.4619 10.0657 37.3749Z" fill="white"/>
<path d="M33.9744 5.71771C32.6848 4.46236 31.224 3.36678 29.6377 2.48804H10.3624C8.77611 3.36678 7.31534 4.45095 6.02576 5.71771H33.9744Z" fill="white"/>
<path d="M3.44653 8.78767H36.5535C35.8003 7.68068 34.933 6.65358 33.9743 5.71777H6.02571C5.06708 6.65358 4.19974 7.68068 3.44653 8.78767Z" fill="#C40505"/>
<path d="M5.75181 34.0543H34.2368C35.0927 33.187 35.8802 32.2398 36.5649 31.2126H3.42371C4.11985 32.2283 4.89589 33.1756 5.75181 34.0543Z" fill="#C40505"/>
<path d="M3.42368 31.2123H36.5649C37.2839 30.151 37.9001 29.0326 38.4023 27.8457H1.5863C2.09986 29.0326 2.71612 30.1624 3.42368 31.2123Z" fill="white"/>
<path d="M1.60913 12.1654H38.4023C37.9001 10.9786 37.2725 9.84876 36.5649 8.79883H3.44651C2.72753 9.84876 2.11127 10.9786 1.60913 12.1654Z" fill="white"/>
<path d="M1.58631 27.8456H38.4023C38.8359 26.8071 39.1897 25.7344 39.4522 24.616H0.536377C0.798859 25.7344 1.15264 26.8071 1.58631 27.8456Z" fill="#C40505"/>
<path d="M0.582031 15.2354H39.418C39.1555 14.174 38.8131 13.1469 38.3909 12.1541H1.60914C1.18688 13.1469 0.844513 14.174 0.582031 15.2354Z" fill="#C40505"/>
<path d="M0.0684814 18.4196H39.9315C39.8402 17.3355 39.669 16.2741 39.418 15.2356H0.582033C0.330964 16.2741 0.15978 17.3355 0.0684814 18.4196Z" fill="white"/>
<path d="M0.536444 24.6166H39.4523C39.7034 23.5667 39.8631 22.494 39.943 21.387H0.0571289C0.125603 22.494 0.285374 23.5781 0.536444 24.6166Z" fill="white"/>
<path d="M0 20.0174C0 20.4853 0.0228245 20.9418 0.0570613 21.3983H39.9429C39.9772 20.9418 40 20.4853 40 20.0174C40 19.481 39.9658 18.9446 39.9315 18.4197H0.0684736C0.0228245 18.9446 0 19.481 0 20.0174Z" fill="#C40505"/>
<path d="M24.7532 0.593438C23.224 0.216833 21.6605 0 20.0171 0C8.98146 0 0 8.98146 0 20.0171C0 20.485 0.0228245 20.9415 0.0570613 21.3866H24.776L24.7532 0.593438Z" fill="#121272"/>
<path d="M12.2111 1.5633L12.7703 2.06544L12.5763 2.94419L13.2496 2.36216L13.9343 2.94419L13.6832 2.06544L14.3452 1.47201H13.5121L13.4093 1.12964C13.4093 1.12964 13.2496 1.16388 13.0213 1.26659L12.9414 1.48342H12.4393L12.2111 1.5633Z" fill="white"/>
<path d="M16.9471 1.47182H17.7688L18.077 0.604492L18.328 1.47182H19.1611L18.4992 2.06526L18.7617 2.94401L18.077 2.35057L17.4036 2.94401L17.6091 2.06526L16.9471 1.47182Z" fill="white"/>
<path d="M21.786 1.47182H22.6077L22.9044 0.604492L23.1669 1.47182H24L23.3381 2.06526L23.5891 2.94401L22.9044 2.35057L22.2425 2.94401L22.4365 2.06526L21.786 1.47182Z" fill="white"/>
<path d="M7.28101 5.86556H8.10269L8.41082 4.98682L8.66189 5.86556H9.49499L8.83307 6.459L9.08414 7.32633L8.41082 6.74431L7.7375 7.32633L7.9315 6.459L7.28101 5.86556Z" fill="white"/>
<path d="M12.1199 5.86556H12.9416L13.2383 4.98682L13.5008 5.86556H14.3339L13.6605 6.459L13.923 7.32633L13.2383 6.74431L12.5764 7.32633L12.7704 6.459L12.1199 5.86556Z" fill="white"/>
<path d="M16.9471 5.86556H17.7688L18.077 4.98682L18.328 5.86556H19.1611L18.4992 6.459L18.7617 7.32633L18.077 6.74431L17.4036 7.32633L17.6091 6.459L16.9471 5.86556Z" fill="white"/>
<path d="M21.786 5.86556H22.6077L22.9044 4.98682L23.1669 5.86556H24L23.3381 6.459L23.5891 7.32633L22.9044 6.74431L22.2425 7.32633L22.4365 6.459L21.786 5.86556Z" fill="white"/>
<path d="M4.66761 10.1112H3.83451L3.57203 9.23242L3.2639 10.1112H2.62481C2.60199 10.1454 2.57916 10.1796 2.56775 10.2139L3.10413 10.7046L2.91012 11.5833L3.58344 10.9899L4.26818 11.5833L3.99428 10.7046L4.66761 10.1112Z" fill="white"/>
<path d="M7.28101 10.1112H8.10269L8.41082 9.23242L8.66189 10.1112H9.49499L8.83307 10.7046L9.08414 11.5719L8.41082 10.9899L7.7375 11.5719L7.9315 10.7046L7.28101 10.1112Z" fill="white"/>
<path d="M12.1199 10.1112H12.9416L13.2383 9.23242L13.5008 10.1112H14.3339L13.6605 10.7046L13.923 11.5719L13.2383 10.9899L12.5764 11.5719L12.7704 10.7046L12.1199 10.1112Z" fill="white"/>
<path d="M16.9471 10.1112H17.7688L18.077 9.23242L18.328 10.1112H19.1611L18.4992 10.7046L18.7617 11.5719L18.077 10.9899L17.4036 11.5719L17.6091 10.7046L16.9471 10.1112Z" fill="white"/>
<path d="M21.786 10.1112H22.6077L22.9044 9.23242L23.1669 10.1112H24L23.3381 10.7046L23.5891 11.5719L22.9044 10.9899L22.2425 11.5719L22.4365 10.7046L21.786 10.1112Z" fill="white"/>
<path d="M2.47632 14.5506H3.28659L3.59472 13.6719L3.8572 14.5506H4.6903L4.01697 15.1326L4.27946 16.0114L3.59472 15.4294L2.9214 16.0114L3.12682 15.1326L2.47632 14.5506Z" fill="white"/>
<path d="M7.30383 14.5506H8.12552L8.43365 13.6719L8.68472 14.5506H9.51781L8.8559 15.1326L9.10697 16.0114L8.43365 15.4294L7.76032 16.0114L7.95433 15.1326L7.30383 14.5506Z" fill="white"/>
<path d="M12.1427 14.5506H12.9644L13.2611 13.6719L13.5236 14.5506H14.3567L13.6834 15.1326L13.9458 16.0114L13.2611 15.4294L12.5992 16.0114L12.7932 15.1326L12.1427 14.5506Z" fill="white"/>
<path d="M16.9701 14.5506H17.7918L18.0999 13.6719L18.351 14.5506H19.1955L18.5222 15.1326L18.7846 16.0114L18.0999 15.4294L17.4266 16.0114L17.6206 15.1326L16.9701 14.5506Z" fill="white"/>
<path d="M21.8088 14.5506H22.6305L22.9272 13.6719L23.1897 14.5506H24.0228L23.3495 15.1326L23.612 16.0114L22.9272 15.4294L22.2653 16.0114L22.4593 15.1326L21.8088 14.5506Z" fill="white"/>
<path d="M2.47632 18.8414H3.28659L3.59472 17.9626L3.8572 18.8414H4.6903L4.01697 19.4348L4.27946 20.3022L3.59472 19.7201L2.9214 20.3022L3.12682 19.4348L2.47632 18.8414Z" fill="white"/>
<path d="M7.30383 18.8414H8.12552L8.43365 17.9626L8.68472 18.8414H9.51781L8.8559 19.4348L9.10697 20.3022L8.43365 19.7201L7.76032 20.3022L7.95433 19.4348L7.30383 18.8414Z" fill="white"/>
<path d="M12.1427 18.8414H12.9644L13.2611 17.9626L13.5236 18.8414H14.3567L13.6834 19.4348L13.9458 20.3022L13.2611 19.7201L12.5992 20.3022L12.7932 19.4348L12.1427 18.8414Z" fill="white"/>
<path d="M16.9701 18.8414H17.7918L18.0999 17.9626L18.351 18.8414H19.1955L18.5222 19.4348L18.7846 20.3022L18.0999 19.7201L17.4266 20.3022L17.6206 19.4348L16.9701 18.8414Z" fill="white"/>
<path d="M21.8088 18.8414H22.6305L22.9272 17.9626L23.1897 18.8414H24.0228L23.3495 19.4348L23.612 20.3022L22.9272 19.7201L22.2653 20.3022L22.4593 19.4348L21.8088 18.8414Z" fill="white"/>
<path d="M0.262451 16.8329L0.684705 17.221L0.490697 18.0997L1.16402 17.5063L1.84876 18.0997L1.59769 17.221L2.2596 16.6275H1.41509L1.15261 15.7488L0.844477 16.6275H0.285276C0.285276 16.6275 0.273863 16.7302 0.262451 16.8329Z" fill="white"/>
<path d="M4.86169 16.6275H5.68338L5.99151 15.7488L6.24258 16.6275H7.07567L6.41376 17.221L6.66483 18.0883L5.99151 17.5063L5.31818 18.0883L5.51219 17.221L4.86169 16.6275Z" fill="white"/>
<path d="M9.70044 16.6275H10.5221L10.8188 15.7488L11.0813 16.6275H11.9144L11.2411 17.221L11.5036 18.0883L10.8188 17.5063L10.1569 18.0883L10.3509 17.221L9.70044 16.6275Z" fill="white"/>
<path d="M14.5278 16.6275H15.3495L15.6576 15.7488L15.9087 16.6275H16.7418L16.0799 17.221L16.3424 18.0883L15.6576 17.5063L14.9843 18.0883L15.1897 17.221L14.5278 16.6275Z" fill="white"/>
<path d="M19.3666 16.6275H20.1883L20.485 15.7488L20.7475 16.6275H21.5806L20.9186 17.221L21.1697 18.0883L20.485 17.5063L19.8231 18.0883L20.0171 17.221L19.3666 16.6275Z" fill="white"/>
<path d="M1.52926 12.3362H2.24823L1.58632 12.9296L1.83739 13.8084L1.18689 13.2378C1.18689 13.2378 1.40372 12.6101 1.52926 12.3362Z" fill="white"/>
<path d="M4.86169 12.3363H5.68338L5.99151 11.4575L6.24258 12.3363H7.07567L6.41376 12.9183L6.66483 13.797L5.99151 13.2036L5.31818 13.797L5.51219 12.9183L4.86169 12.3363Z" fill="white"/>
<path d="M9.70044 12.3363H10.5221L10.8188 11.4575L11.0813 12.3363H11.9144L11.2411 12.9183L11.5036 13.797L10.8188 13.2036L10.1569 13.797L10.3509 12.9183L9.70044 12.3363Z" fill="white"/>
<path d="M14.5278 12.3363H15.3495L15.6576 11.4575L15.9087 12.3363H16.7418L16.0799 12.9183L16.3424 13.797L15.6576 13.2036L14.9843 13.797L15.1897 12.9183L14.5278 12.3363Z" fill="white"/>
<path d="M19.3666 12.3363H20.1883L20.485 11.4575L20.7475 12.3363H21.5806L20.9186 12.9183L21.1697 13.797L20.485 13.2036L19.8231 13.797L20.0171 12.9183L19.3666 12.3363Z" fill="white"/>
<path d="M4.91858 7.98818H5.72885L6.03698 7.12085L6.29946 7.98818H7.13256L6.45924 8.58162L6.72172 9.46036L6.03698 8.86693L5.36366 9.46036L5.56908 8.58162L4.91858 7.98818Z" fill="white"/>
<path d="M9.74609 7.98818H10.5678L10.8645 7.12085L11.127 7.98818H11.9601L11.2982 8.58162L11.5492 9.46036L10.8645 8.86693L10.2026 9.46036L10.3966 8.58162L9.74609 7.98818Z" fill="white"/>
<path d="M14.585 7.98818H15.4066L15.7034 7.12085L15.9658 7.98818H16.7989L16.1256 8.58162L16.3881 9.46036L15.7034 8.86693L15.0415 9.46036L15.2355 8.58162L14.585 7.98818Z" fill="white"/>
<path d="M19.4122 7.98818H20.2339L20.542 7.12085L20.7931 7.98818H21.6262L20.9643 8.58162L21.2268 9.46036L20.542 8.86693L19.8687 9.46036L20.0741 8.58162L19.4122 7.98818Z" fill="white"/>
<path d="M9.74609 3.69735H10.5678L10.8645 2.8186L11.127 3.69735H11.9601L11.2982 4.29079L11.5492 5.15812L10.8645 4.57609L10.2026 5.15812L10.3966 4.29079L9.74609 3.69735Z" fill="white"/>
<path d="M14.585 3.69735H15.4066L15.7034 2.8186L15.9658 3.69735H16.7989L16.1256 4.29079L16.3881 5.15812L15.7034 4.57609L15.0415 5.15812L15.2355 4.29079L14.585 3.69735Z" fill="white"/>
<path d="M19.4122 3.69735H20.2339L20.542 2.8186L20.7931 3.69735H21.6262L20.9643 4.29079L21.2268 5.15812L20.542 4.57609L19.8687 5.15812L20.0741 4.29079L19.4122 3.69735Z" fill="white"/>
</svg>
