<svg width="26" height="26" viewBox="0 0 26 26" fill="none" xmlns="http://www.w3.org/2000/svg">
<path d="M9.9259 5H8.68811H7.45874H6.22937H5V6.22937V7.45874V8.68811V9.91748V11.1468V12.3762H6.22937H7.45874H8.68811H9.91748H11.1468H12.3762V11.1553V9.9259V8.68811V7.45874V6.22937V5H11.1553H9.9259ZM11.1553 7.45874V8.68811V9.91748V11.1468H9.9259H8.68811H7.45874H6.22937V9.9259V8.68811V7.45874V6.22937H7.45874H8.68811H9.91748H11.1468V7.45874H11.1553Z" fill="black"/>
<path d="M7.45996 7.45898V8.68835V9.92614H8.68933H9.92712V8.68835V7.45898H8.68933H7.45996Z" fill="black"/>
<path d="M9.9259 13.6147H8.68811H7.45874H6.22937H5V14.8441V16.0734V17.3028V18.5322V19.7615V20.9993H6.22937H7.45874H8.68811H9.91748H11.1468H12.3762V19.77V18.5406V17.3112V16.0818V14.8525V13.6231H11.1553H9.9259V13.6147ZM11.1553 16.0734V17.3028V18.5322V19.7615H9.9259H8.68811H7.45874H6.22937V18.5322V17.3028V16.0734V14.8441H7.45874H8.68811H9.91748H11.1468V16.0734H11.1553Z" fill="black"/>
<path d="M7.45996 16.0737V17.3115V18.5408H8.68933H9.92712V17.3115V16.0737H8.68933H7.45996Z" fill="black"/>
<path d="M16.0742 7.45898V8.68835V9.92614H17.312H18.5414V8.68835V7.45898H17.312H16.0742Z" fill="black"/>
<path d="M17.3036 19.7706H16.0742V20.9999H17.3036V19.7706Z" fill="black"/>
<path d="M18.5415 13.6147V14.8441H17.3121V13.6147H16.0828H14.8534H13.624V14.8441V16.0734V17.3028V18.5322V19.7615V20.9993H14.8534V19.77V18.5406V17.3112H16.0828V18.5406H17.3121V17.3112H18.5415V16.0818H19.7709V17.3112H21.0002V16.0818V14.8525V13.6231H19.7709H18.5415V13.6147ZM14.845 16.0734V14.8441H16.0743V16.0734H14.845V16.0734Z" fill="black"/>
<path d="M18.54 18.5409V19.7703V20.9996H19.7694V19.7703H20.9988V18.5409H19.7694V17.3115H18.54V18.5409Z" fill="black"/>
<path d="M19.7709 5H18.5415H17.3121H16.0828H14.8534H13.624V6.22937V7.45874V8.68811V9.91748V11.1468V12.3762H14.8534H16.0828H17.3121H18.5415H19.7709H21.0002V11.1553V9.9259V8.68811V7.45874V6.22937V5H19.7709ZM19.7709 7.45874V8.68811V9.91748V11.1468H18.5415H17.3121H16.0828H14.8534V9.9259V8.68811V7.45874V6.22937H16.0828H17.3121H18.5415H19.7709V7.45874Z" fill="black"/>
</svg>
