<svg width="26" height="26" viewBox="0 0 26 26" fill="none" xmlns="http://www.w3.org/2000/svg">
<path d="M21.3064 7.6488H5.71865H5.69872C5.31201 7.6488 4.99707 7.96681 4.99707 8.36741V11.6218V11.6383C4.99707 12.0389 5.31201 12.361 5.69872 12.361H5.77048V20.2698V20.2781C5.77048 20.6828 6.08542 21.0049 6.46814 21.0049H20.517H20.529C20.9237 21.0049 21.2306 20.6828 21.2306 20.2781V12.361H21.2825H21.3024C21.6931 12.361 22 12.0389 22 11.6383V8.38393V8.36741C22.004 7.96681 21.6971 7.6488 21.3064 7.6488ZM11.3159 19.5636H7.16978V12.361H11.3159V19.5636V19.5636ZM14.852 19.5636H12.1531V12.361H14.852V19.5636ZM19.8353 19.5636H15.6892V12.361H19.8353V19.5636ZM20.6087 10.9197C15.4979 10.9197 11.5072 10.9197 6.39239 10.9197V9.09427H20.6087V10.9197Z" fill="#231815"/>
<path d="M10.8055 6.52964L13.0859 7.23585C13.2214 7.27715 13.3609 7.28954 13.4965 7.28128C13.632 7.28954 13.7716 7.27715 13.9071 7.23585L16.1874 6.52964C16.8452 6.32727 17.224 5.60041 17.0246 4.91897C16.8293 4.23754 16.1276 3.84519 15.4699 4.05169L13.4925 4.66292L11.5151 4.05169C10.8573 3.84932 10.1557 4.23754 9.96033 4.91897C9.77296 5.60454 10.1477 6.32727 10.8055 6.52964ZM13.4925 5.2824L13.5005 5.27827L13.5084 5.2824C13.8672 5.39391 14.0705 5.78625 13.9629 6.15794C13.8951 6.39335 13.7118 6.5668 13.5005 6.62875C13.2852 6.56267 13.1058 6.39335 13.038 6.15794C12.9304 5.78625 13.1337 5.39391 13.4925 5.2824ZM15.5097 4.65879C15.8685 4.54728 16.2472 4.76203 16.3549 5.1296C16.4625 5.50129 16.2552 5.89363 15.9004 6.00514L14.6327 6.39748C14.6366 6.38509 14.6406 6.37683 14.6446 6.36857C14.7881 5.87711 14.6247 5.365 14.2818 5.03874L15.5097 4.65879ZM10.646 5.1296C10.7537 4.7579 11.1324 4.54728 11.4912 4.65879L12.7231 5.03874C12.3762 5.365 12.2168 5.87298 12.3603 6.36857C12.3643 6.38096 12.3683 6.38922 12.3722 6.39748L11.1045 6.00514C10.7457 5.89363 10.5384 5.50129 10.646 5.1296Z" fill="#231815"/>
</svg>
