<svg width="26" height="26" viewBox="0 0 26 26" fill="none" xmlns="http://www.w3.org/2000/svg">
<path d="M7.74609 17.2477C7.74609 17.4339 7.88386 17.5736 8.06755 17.5736H13.3761H14.4966C14.6803 17.5736 14.8272 17.4339 14.8272 17.2477C14.8272 17.1173 14.7446 16.9963 14.6343 16.9497C14.616 16.9404 14.6068 16.9404 14.5884 16.9311C14.5517 16.9218 14.5241 16.9125 14.4874 16.9125H12.4026H8.07673C7.89304 16.9125 7.74609 17.0615 7.74609 17.2477Z" fill="black"/>
<path d="M16.4712 18.4674V19.5009C16.4712 19.6033 16.4345 19.6964 16.361 19.7709C16.2875 19.8361 16.1957 19.8733 16.0947 19.8733H6.47868C6.37765 19.8733 6.27662 19.8361 6.21233 19.7616C6.14804 19.6964 6.10212 19.594 6.10212 19.4916V7.93666C6.10212 7.82493 6.14804 7.74113 6.21233 7.66664C6.27662 7.60147 6.37765 7.55491 6.47868 7.55491H10.6484H11.9617C12.1454 7.30352 12.3383 7.06143 12.5587 6.83797H12.5679C12.7148 6.68899 12.8618 6.55864 13.0179 6.42828H11.4474H6.47868C6.07457 6.42828 5.69801 6.59588 5.43166 6.87521C5.16532 7.14523 5 7.51767 5 7.93666V19.5009C5 19.9106 5.16532 20.2923 5.43166 20.5624C5.70719 20.8324 6.07457 21 6.47868 21H16.0947C16.4988 21 16.8662 20.8324 17.1233 20.5717L17.1417 20.553C17.408 20.283 17.5825 19.9106 17.5825 19.4916V18.4395C17.3437 18.4674 17.1049 18.4767 16.8662 18.4767C16.7284 18.4953 16.5998 18.4767 16.4712 18.4674Z" fill="black"/>
<path d="M9.74788 12.1732H8.07633C7.89265 12.1732 7.75488 12.3221 7.75488 12.5084C7.75488 12.6946 7.89265 12.8435 8.07633 12.8435H9.86728H11.0061C10.951 12.6294 10.9051 12.4059 10.8684 12.1732H9.74788Z" fill="black"/>
<path d="M10.4826 14.5475H8.07633C7.89265 14.5475 7.75488 14.6965 7.75488 14.8827C7.75488 15.0689 7.89265 15.2179 8.07633 15.2179H10.8684H12.246C12.0715 15.0037 11.9062 14.7803 11.7593 14.5475H10.4826Z" fill="black"/>
<path d="M20.5212 7.54562L20.5029 7.51769C19.5661 6.57728 18.2803 6 16.8659 6C15.4515 6 14.1657 6.57728 13.2381 7.51769C12.3013 8.46741 11.7227 9.77095 11.7227 11.2048C11.7227 12.6387 12.3013 13.9423 13.2289 14.8827C14.1565 15.8324 15.4423 16.4097 16.8567 16.4097C18.2619 16.4097 19.5385 15.8324 20.4661 14.9013L20.4937 14.8827C21.4213 13.9423 21.9999 12.6387 21.9999 11.2048C21.9999 9.78026 21.4305 8.48603 20.5212 7.54562ZM19.9426 14.324L19.9243 14.3426C19.1344 15.1248 18.0598 15.6182 16.8659 15.6182C15.6719 15.6182 14.579 15.1155 13.7983 14.324C13.0085 13.5233 12.5217 12.4246 12.5217 11.2048C12.5217 9.9851 13.0085 8.88641 13.7891 8.08566H13.7983C14.579 7.29423 15.6719 6.79143 16.8659 6.79143C18.069 6.79143 19.1528 7.28492 19.9426 8.08566L19.961 8.10428C20.7325 8.89572 21.2193 9.99441 21.2193 11.2048C21.2101 12.4246 20.7233 13.5233 19.9426 14.324Z" fill="black"/>
<path d="M19.1076 10.8045H17.2615V7.61082C17.2615 7.38736 17.087 7.21045 16.8666 7.21045C16.6462 7.21045 16.4717 7.38736 16.4717 7.61082V11.1956V11.2049C16.4717 11.4283 16.6554 11.6052 16.8666 11.6052H19.1168C19.3372 11.6052 19.5117 11.419 19.5117 11.2049C19.5025 10.9907 19.328 10.8045 19.1076 10.8045Z" fill="black"/>
<path d="M7.93896 9.90131C7.82875 9.90131 7.74609 10.041 7.74609 10.2272C7.74609 10.4134 7.82875 10.5624 7.93896 10.5624H10.5841C10.5473 10.311 10.5473 10.0782 10.5565 9.90131H7.93896Z" fill="black"/>
</svg>
