<svg width="32" height="21" viewBox="0 0 32 21" fill="none" xmlns="http://www.w3.org/2000/svg">
<path d="M17.6969 10.3155C17.6969 9.61777 18.3174 9.06055 19.082 9.06055C19.8465 9.06055 20.467 9.61777 20.467 10.3155C20.467 11.0083 19.8465 11.5655 19.082 11.5655C18.3174 11.5655 17.6969 11.0083 17.6969 10.3155ZM11.8575 10.3155C11.8575 9.61777 12.478 9.06055 13.2426 9.06055C14.0071 9.06055 14.6276 9.61777 14.6276 10.3155C14.6276 11.0083 14.0071 11.5655 13.2426 11.5655C12.478 11.5655 11.8575 11.0083 11.8575 10.3155ZM6.01811 10.3155C6.01811 9.61777 6.63862 9.06055 7.40317 9.06055C8.16772 9.06055 8.78822 9.61777 8.78822 10.3155C8.78822 11.0083 8.16772 11.5655 7.40317 11.5655C6.63862 11.5655 6.01811 11.0083 6.01811 10.3155ZM0.178711 10.3155C0.178711 9.61777 0.799217 9.06055 1.56377 9.06055C2.32832 9.06055 2.94883 9.61777 2.94883 10.3155C2.94883 11.0083 2.32832 11.5655 1.56377 11.5655C0.799217 11.5655 0.178711 11.0083 0.178711 10.3155Z" fill="white"/>
<path d="M24.921 11.5706C24.5609 11.5706 24.2008 11.4351 23.9459 11.1991C23.8795 11.1439 23.8241 11.0786 23.7687 11.0084C23.7243 10.9431 23.68 10.8678 23.6468 10.7925C23.608 10.7172 23.5858 10.6369 23.5637 10.5566C23.547 10.4762 23.5415 10.3959 23.5415 10.3106C23.5415 10.2303 23.547 10.1499 23.5637 10.0696C23.5858 9.9893 23.608 9.90898 23.6468 9.83368C23.68 9.75838 23.7243 9.68308 23.7687 9.61782C23.8241 9.54754 23.8795 9.48228 23.9459 9.42706C24.2673 9.1359 24.7437 9.00036 25.1925 9.08068C25.2811 9.10076 25.3698 9.12084 25.4529 9.15598C25.536 9.1861 25.6191 9.22626 25.6911 9.27144C25.7687 9.31662 25.8407 9.36682 25.9016 9.42706C26.162 9.65798 26.3061 9.98428 26.3061 10.3106C26.3061 10.3959 26.3005 10.4762 26.2839 10.5566C26.2618 10.6369 26.2341 10.7172 26.2008 10.7925C26.1676 10.8678 26.1232 10.9431 26.0734 11.0084C26.0235 11.0786 25.9681 11.1439 25.9016 11.1991C25.8407 11.2594 25.7687 11.3096 25.6911 11.3547C25.6191 11.3999 25.536 11.4401 25.4529 11.4702C25.3698 11.5053 25.2811 11.5254 25.1925 11.5455C25.1038 11.5606 25.0152 11.5706 24.921 11.5706Z" fill="white"/>
<path d="M23.9676 6.72707C23.4302 6.23511 23.4302 5.44195 23.9676 4.94999C24.5105 4.45803 25.3859 4.45803 25.9288 4.94999C26.4718 5.44195 26.4718 6.23511 25.9288 6.72707C25.6573 6.96803 25.3028 7.09353 24.9482 7.09353C24.5936 7.09353 24.239 6.96803 23.9676 6.72707ZM19.0312 2.24922C18.4883 1.75726 18.4883 0.9641 19.0312 0.472139C19.5686 -0.0148016 20.4495 -0.0148016 20.9869 0.472139C21.5299 0.9641 21.5299 1.75726 20.9869 2.24922C20.7155 2.49018 20.3609 2.61568 20.0063 2.61568C19.6517 2.61568 19.2972 2.49018 19.0312 2.24922Z" fill="white"/>
<path d="M29.8899 11.5709C29.8013 11.5709 29.7071 11.5608 29.6185 11.5458C29.5298 11.5257 29.4412 11.5056 29.3581 11.4705C29.275 11.4403 29.1974 11.4002 29.1198 11.355C29.0423 11.3098 28.9758 11.2596 28.9093 11.1994C28.8484 11.1442 28.7874 11.0789 28.7376 11.0086C28.6877 10.9434 28.6434 10.8681 28.6101 10.7928C28.5769 10.7175 28.5492 10.6371 28.5326 10.5568C28.516 10.4765 28.5049 10.3962 28.5049 10.3108C28.5049 10.2305 28.516 10.1502 28.5326 10.0699C28.5492 9.98956 28.5769 9.90924 28.6101 9.83394C28.6434 9.75864 28.6877 9.68334 28.7376 9.61808C28.7874 9.5478 28.8484 9.48254 28.9093 9.42732C28.9758 9.36708 29.0423 9.31688 29.1198 9.2717C29.1974 9.22652 29.275 9.18636 29.3581 9.15624C29.4412 9.1211 29.5298 9.10102 29.6185 9.08094C29.7958 9.05082 29.9841 9.05082 30.1614 9.08094C30.2501 9.10102 30.3387 9.1211 30.4218 9.15624C30.5049 9.18636 30.5825 9.22652 30.66 9.2717C30.7321 9.31688 30.8041 9.36708 30.8706 9.42732C31.1254 9.65824 31.275 9.98454 31.275 10.3108C31.275 10.3962 31.2639 10.4765 31.2473 10.5568C31.2307 10.6371 31.203 10.7175 31.1697 10.7928C31.1365 10.8681 31.0922 10.9434 31.0423 11.0086C30.9924 11.0789 30.9315 11.1442 30.8706 11.1994C30.8041 11.2596 30.7321 11.3098 30.66 11.355C30.5825 11.4002 30.5049 11.4403 30.4218 11.4705C30.3387 11.5056 30.2501 11.5257 30.1614 11.5458C30.0728 11.5608 29.9786 11.5709 29.8899 11.5709Z" fill="white"/>
<path d="M19.0312 20.1557C18.4883 19.6638 18.4883 18.8706 19.0312 18.3787C19.5686 17.8917 20.4495 17.8917 20.9869 18.3787C21.5299 18.8706 21.5299 19.6638 20.9869 20.1557C20.7155 20.4017 20.3609 20.5222 20.0063 20.5222C19.6517 20.5222 19.3027 20.4017 19.0312 20.1557ZM23.9676 15.6779C23.4302 15.191 23.4302 14.3928 23.9676 13.9058C24.5105 13.4139 25.3859 13.4139 25.9288 13.9058C26.4718 14.3928 26.4718 15.191 25.9288 15.6779C25.6573 15.9239 25.3028 16.0444 24.9482 16.0444C24.5936 16.0444 24.239 15.9239 23.9676 15.6779Z" fill="white"/>
</svg>
