<svg width="40" height="41" viewBox="0 0 40 41" fill="none" xmlns="http://www.w3.org/2000/svg">
<g clip-path="url(#clip0_885_4816)">
<path d="M20.0045 8.48737C11.3284 8.48737 0 19.2469 0 19.2469C0 19.2469 0 19.9152 0 20.8258C0 20.617 0.188806 20.4415 0.413576 20.4415C0.638346 20.4415 0.827152 20.617 0.827152 20.8258V29.3716C1.38458 30.9004 2.21173 32.3372 3.26365 33.6487V24.3009C3.26365 24.0921 3.45246 23.9167 3.67723 23.9167C3.902 23.9167 4.09081 24.0921 4.09081 24.3009V34.5844C4.81906 35.3612 5.63722 36.088 6.52731 36.7563V27.7928C6.52731 27.5839 6.71612 27.4085 6.94088 27.4085C7.16565 27.4085 7.35446 27.5839 7.35446 27.7928V37.3411C8.11868 37.8507 8.93684 38.3101 9.79096 38.7278V31.2763C9.79096 31.0674 9.97977 30.892 10.2045 30.892C10.4293 30.892 10.6181 31.0674 10.6181 31.2763V39.1037C11.4003 39.4462 12.2185 39.7386 13.0546 39.9976V30.4409C13.0546 30.2321 13.2434 30.0566 13.4682 30.0566C13.693 30.0566 13.8818 30.2321 13.8818 30.4409V40.2315C14.673 40.4403 15.4911 40.6074 16.3183 40.7327V33.9161C16.3183 33.7072 16.5071 33.5318 16.7318 33.5318C16.9566 33.5318 17.1454 33.7072 17.1454 33.9161V40.8329C17.9456 40.9248 18.7548 40.9749 19.5819 40.9916V30.4409C19.5819 30.2321 19.7707 30.0566 19.9955 30.0566C20.2203 30.0566 20.4091 30.2321 20.4091 30.4409V41C21.2362 40.9833 22.0544 40.9332 22.8456 40.8413V33.9161C22.8456 33.7072 23.0344 33.5318 23.2592 33.5318C23.4839 33.5318 23.6727 33.7072 23.6727 33.9161V40.7243C24.5089 40.599 25.318 40.4319 26.1092 40.2231V28.9623C26.1092 28.7535 26.298 28.578 26.5228 28.578C26.7476 28.578 26.9364 28.7535 26.9364 28.9623V39.9976C27.7815 39.7469 28.5907 39.4462 29.3729 39.1037V32.4458C29.3729 32.237 29.5617 32.0615 29.7865 32.0615C30.0112 32.0615 30.2 32.237 30.2 32.4458V38.7278C31.0542 38.3101 31.8723 37.8507 32.6365 37.3411V26.0469C32.6365 25.838 32.8253 25.6626 33.0501 25.6626C33.2749 25.6626 33.4637 25.838 33.4637 26.0469V36.7563C34.3538 36.0964 35.1719 35.3696 35.9002 34.5844V25.1363C35.9002 24.9275 36.089 24.752 36.3138 24.752C36.5385 24.752 36.7274 24.9275 36.7274 25.1363V33.6404C37.7793 32.3372 38.6064 30.9004 39.1639 29.3633V20.1742C39.1639 19.9654 39.3527 19.7899 39.5774 19.7899C39.8022 19.7899 39.991 19.9654 39.991 20.1742C39.991 19.8484 39.991 19.6479 39.991 19.6479C39.991 19.6479 28.9773 8.48737 20.0045 8.48737Z" fill="#FFB22B"/>
<path d="M3.67725 23.925C3.45248 23.925 3.26367 24.1004 3.26367 24.3093V33.6487C3.5244 33.9745 3.80312 34.2919 4.09082 34.601V24.3009C4.09082 24.0921 3.90202 23.925 3.67725 23.925Z" fill="#DD8800"/>
<path d="M0.413576 20.4415C0.188806 20.4415 0 20.617 0 20.8258C0 22.0287 0 23.6494 0 24.7437C0 26.3476 0.287705 27.9014 0.827152 29.3633V20.8258C0.827152 20.617 0.638346 20.4415 0.413576 20.4415Z" fill="#DD8800"/>
<path d="M10.2046 30.892C9.97982 30.892 9.79102 31.0675 9.79102 31.2763V38.7278C10.0607 38.8615 10.3395 38.9868 10.6182 39.1037V31.2763C10.6182 31.0591 10.4384 30.892 10.2046 30.892Z" fill="#DD8800"/>
<path d="M6.94092 27.4085C6.71615 27.4085 6.52734 27.5839 6.52734 27.7928V36.7563C6.79707 36.9568 7.06679 37.1489 7.3545 37.3327V27.7928C7.3545 27.5839 7.16569 27.4085 6.94092 27.4085Z" fill="#DD8800"/>
<path d="M16.7407 33.5318C16.516 33.5318 16.3271 33.7072 16.3271 33.9161V40.7243C16.5969 40.7661 16.8756 40.8079 17.1543 40.8329V33.9161C17.1453 33.7072 16.9655 33.5318 16.7407 33.5318Z" fill="#DD8800"/>
<path d="M13.4683 30.0566C13.2435 30.0566 13.0547 30.2321 13.0547 30.4409V39.9976C13.3244 40.0811 13.6031 40.1563 13.8818 40.2315V30.4409C13.8818 30.2237 13.702 30.0566 13.4683 30.0566Z" fill="#DD8800"/>
<path d="M23.2681 33.5318C23.0433 33.5318 22.8545 33.7072 22.8545 33.9161V40.8329C23.1332 40.7995 23.4029 40.7661 23.6816 40.7243V33.9161C23.6816 33.7072 23.4928 33.5318 23.2681 33.5318Z" fill="#DD8800"/>
<path d="M20.0044 30.0566C19.7796 30.0566 19.5908 30.2321 19.5908 30.4409V41C19.7257 41 19.8695 41.0084 20.0044 41.0084C20.1393 41.0084 20.2831 41 20.418 41V30.4409C20.418 30.2237 20.2292 30.0566 20.0044 30.0566Z" fill="#DD8800"/>
<path d="M29.7954 32.0615C29.5706 32.0615 29.3818 32.237 29.3818 32.4458V39.1037C29.6606 38.9868 29.9393 38.8531 30.209 38.7278V32.4458C30.209 32.2286 30.0202 32.0615 29.7954 32.0615Z" fill="#DD8800"/>
<path d="M26.5317 28.578C26.307 28.578 26.1182 28.7534 26.1182 28.9623V40.2231C26.3969 40.1479 26.6666 40.0727 26.9453 39.9892V28.9623C26.9453 28.7534 26.7565 28.578 26.5317 28.578Z" fill="#DD8800"/>
<path d="M36.3228 24.752C36.098 24.752 35.9092 24.9274 35.9092 25.1363V34.5927C36.1969 34.2836 36.4756 33.9662 36.7363 33.6404V25.1363C36.7363 24.9274 36.5565 24.752 36.3228 24.752Z" fill="#DD8800"/>
<path d="M39.5864 19.7899C39.3617 19.7899 39.1729 19.9653 39.1729 20.1742V29.3633C39.7033 27.9014 40 26.3476 40 24.7437C40 23.4655 40 21.2017 40 20.1742C40 19.9653 39.8202 19.7899 39.5864 19.7899Z" fill="#DD8800"/>
<path d="M33.0591 25.6626C32.8343 25.6626 32.6455 25.838 32.6455 26.0469V37.3411C32.9242 37.1573 33.2029 36.9652 33.4727 36.7647V26.0469C33.4727 25.8297 33.2838 25.6626 33.0591 25.6626Z" fill="#DD8800"/>
<path d="M20.0045 37.174C31.0527 37.174 40.009 28.8523 40.009 18.587C40.009 8.32168 31.0527 0 20.0045 0C8.95632 0 0 8.32168 0 18.587C0 28.8523 8.95632 37.174 20.0045 37.174Z" fill="#FFCF3E"/>
<path d="M20.0046 31.7274C27.8153 31.7274 34.1471 25.8442 34.1471 18.587C34.1471 11.3297 27.8153 5.44659 20.0046 5.44659C12.1939 5.44659 5.86206 11.3297 5.86206 18.587C5.86206 25.8442 12.1939 31.7274 20.0046 31.7274Z" fill="#FFB22B"/>
<path d="M20.9035 10.0662L23.2321 14.4519C23.3759 14.7276 23.6636 14.9197 23.9873 14.9615L29.193 15.6632C30.0201 15.7718 30.3438 16.7158 29.7504 17.2588L25.9832 20.6671C25.7495 20.8843 25.6416 21.1934 25.6955 21.4941L26.5856 26.3142C26.7295 27.0744 25.8664 27.6591 25.1291 27.2999L20.4719 25.0277C20.1752 24.8857 19.8246 24.8857 19.5369 25.0277L14.8796 27.2999C14.1424 27.6591 13.2793 27.0744 13.4231 26.3142L14.3132 21.4941C14.3672 21.1934 14.2593 20.8843 14.0255 20.6671L10.2584 17.2588C9.66498 16.7158 9.98864 15.7802 10.8158 15.6632L16.0215 14.9615C16.3451 14.9197 16.6328 14.7276 16.7767 14.4519L19.1053 10.0662C19.4649 9.37286 20.5348 9.37286 20.9035 10.0662Z" fill="white"/>
</g>
<defs>
<clipPath id="clip0_885_4816">
<rect width="40" height="41" fill="white"/>
</clipPath>
</defs>
</svg>
