<svg width="26" height="26" viewBox="0 0 26 26" fill="none" xmlns="http://www.w3.org/2000/svg">
<path d="M12.12 16.83H13.89C14.09 16.83 14.27 17 14.27 17.2V17.21V18.97C14.27 19.17 14.1 19.34 13.89 19.34H13.88H12.12C11.92 19.34 11.75 19.17 11.75 18.97V18.96V17.2C11.76 17 11.92 16.83 12.12 16.83ZM6.23 10.77H19.78V8.92C19.78 8.37 19.56 7.88 19.2 7.52C18.83 7.16 18.34 6.93 17.78 6.93H17.61V9.21C17.61 9.55 17.33 9.82 17 9.82C16.66 9.82 16.38 9.54 16.38 9.21V6.93H9.63V9.21C9.63 9.55 9.35 9.82 9.02 9.82C8.68 9.82 8.4 9.54 8.4 9.21V6.93H8.22C7.67 6.93 7.18 7.15 6.82 7.52C6.46 7.88 6.23 8.37 6.23 8.92V10.77V10.77ZM19.78 12H6.23V18.48C6.23 19.03 6.46 19.52 6.82 19.88C7.18 20.25 7.68 20.47 8.22 20.47H17.78C18.33 20.47 18.83 20.25 19.2 19.88C19.56 19.52 19.78 19.03 19.78 18.48V12V12ZM8.22 5.7H8.39V5.62C8.39 5.28 8.67 5 9.01 5C9.34 5 9.62 5.28 9.62 5.62V5.7H16.38V5.62C16.38 5.28 16.66 5 17 5C17.34 5 17.61 5.28 17.61 5.62V5.7H17.78C18.67 5.7 19.48 6.05 20.06 6.64C20.65 7.23 21.01 8.03 21.01 8.92C21.01 12.11 21.01 15.3 21.01 18.49C21.01 19.37 20.65 20.18 20.06 20.77C19.48 21.35 18.67 21.71 17.78 21.71H8.22C7.33 21.71 6.53 21.35 5.94 20.77C5.36 20.17 5 19.36 5 18.48C5 15.29 5 12.1 5 8.91C5 8.02 5.36 7.22 5.95 6.63C6.53 6.05 7.34 5.7 8.22 5.7ZM8.18 12.89H9.94C10.14 12.89 10.31 13.05 10.31 13.25V13.26V15.02C10.31 15.22 10.14 15.39 9.94 15.39H8.18C7.98 15.39 7.81 15.23 7.81 15.02V15.01V13.26C7.81 13.05 7.98 12.89 8.18 12.89ZM9.58 13.63H8.55V14.65H9.58V13.63ZM12.12 12.89H13.89C14.09 12.89 14.27 13.05 14.27 13.25V13.26V15.02C14.27 15.22 14.1 15.39 13.89 15.39H13.88H12.12C11.92 15.39 11.75 15.23 11.75 15.02V15.01V13.26C11.76 13.05 11.92 12.89 12.12 12.89ZM13.52 13.63H12.49V14.65H13.52V13.63ZM16.06 12.89H17.83C18.03 12.89 18.19 13.05 18.19 13.25V13.26V15.02C18.19 15.22 18.03 15.39 17.83 15.39H17.82H16.06C15.86 15.39 15.69 15.23 15.69 15.02V15.01V13.26C15.7 13.05 15.86 12.89 16.06 12.89ZM17.46 13.63H16.43V14.65H17.46V13.63ZM8.18 16.83H9.94C10.14 16.83 10.31 17 10.31 17.2V17.21V18.97C10.31 19.17 10.14 19.34 9.94 19.34H8.18C7.98 19.34 7.81 19.17 7.81 18.97V18.96V17.2C7.81 17 7.98 16.83 8.18 16.83ZM9.58 17.57H8.55V18.6H9.58V17.57ZM13.52 17.57H12.49V18.6H13.52V17.57Z" fill="#231815"/>
</svg>
