<svg width="66" height="66" viewBox="0 0 66 66" fill="none" xmlns="http://www.w3.org/2000/svg">
<path d="M55 32.8754L47.9074 26.7498V30.2755H46.4744V28.1387V27.3018V23.6514V16.4752H23.4191L16 14V45.3402L21.8953 47.299L23.4191 47.8154L35.9716 52V47.8154H46.4744V41.1556V38.6982V36.8997V35.7957H47.8893V39.0366L55 32.8754ZM42.8465 20.0366V20.9091V25.3964V27.3018V30.2755H35.9716V27.3018V20.642L34.1214 20.0366H42.8465ZM21.8953 43.5417L19.6279 42.7938V18.9681L21.8953 19.716L25.5233 20.9269L32.3437 23.2062V27.3018V30.8632V35.1368V38.6982V44.254V47.0319L21.8953 43.5417ZM42.8465 44.254H35.9716V38.6982V35.7957H42.8465V38.6982V39.2324V43.4883V44.254Z" fill="black"/>
</svg>
