<svg width="373" height="358" viewBox="0 0 373 358" fill="none" xmlns="http://www.w3.org/2000/svg">
<g opacity="0.9">
<path d="M337.82 213.158C337.942 212.139 337.958 211.098 337.974 210.057L338.024 206.934C338.057 204.852 337.856 202.827 337.889 200.745C337.616 196.616 337.109 192.544 336.369 188.528C334.889 180.498 332.581 172.716 329.549 165.204C323.854 150.987 315.817 137.857 306.664 125.753C297.406 113.628 287.032 102.528 275.588 92.2542C272.942 89.8339 270.273 87.5134 267.37 85.2497L265.43 83.6003L263.11 79.2623C259.467 72.9833 255.184 67.0958 250.622 61.4646C245.932 55.9116 240.94 50.7149 235.542 45.8528C232.79 43.411 230.015 41.069 227.112 38.8052C225.714 37.6841 224.21 36.5415 222.683 35.4987C221.262 34.4774 219.84 33.4561 218.396 32.5346L216.177 31.1415L215.109 30.5057L214.522 30.177C214.522 30.177 214.44 30.0557 214.334 30.0342L214.078 30.1907C212.715 30.8523 211.269 31.3925 209.906 32.054L207.819 32.9856C207.202 33.2773 206.538 33.7685 205.898 34.1599C205.258 34.5513 204.617 34.9428 203.954 35.434C203.675 35.6903 203.419 35.8469 203.14 36.1033L202.583 36.616C201.769 37.2853 201.188 37.8978 200.48 38.5887C197.797 41.1738 195.618 43.9664 193.672 46.7022C189.781 52.1738 186.709 57.9173 183.871 63.604C181.034 69.2907 178.617 75.0635 176.389 80.9791L175.482 83.5093L170.77 83.3826C156.694 83.2235 143.336 85.7177 130.655 89.6032C128.998 90.1004 127.447 90.6191 125.895 91.1378L122.303 92.3885L122.138 92.1459L120.431 90.4398L118.597 88.8119L115.055 85.4779C113.867 84.3998 112.657 83.4215 111.363 82.3219L109.529 80.694L107.566 79.1444C102.43 75.067 96.887 71.3242 90.681 68.0726C87.642 66.4077 84.4295 65.0206 80.8555 63.7686L79.0044 63.1818C78.2896 62.9314 77.5521 62.7808 76.7093 62.6086C75.2342 62.3074 73.6766 61.8849 72.1334 61.8831C70.6357 61.6817 69.1979 61.7014 67.7601 61.7211L67.444 61.6566C67.4213 61.7564 67.2932 61.8347 67.2932 61.8347L67.0743 62.3122L66.4257 63.2241L65.2339 65.0694L62.7905 68.5391C61.8857 69.6076 61.1608 71.3394 60.9419 71.8169C60.2624 73.3491 59.5003 74.76 58.8208 76.2923L56.9331 80.7109C56.2764 82.1433 55.7022 83.6971 55.1508 85.1511C53.0278 91.0882 51.1155 97.0683 49.5193 103.113C47.9231 109.158 46.4549 115.124 45.1975 121.134C44.5161 124.128 43.9401 127.143 43.364 130.158L42.53 134.792L42.4391 135.191L42.4164 135.291L42.3482 135.591L41.5325 137.722C37.0612 149.132 32.9887 160.728 29.2095 172.489L28.9679 173.066L28.8089 173.765C26.8285 180.045 24.9534 186.346 23.3717 192.811C23.0083 194.408 22.6449 196.005 22.2588 197.701L21.6909 200.196L21.2285 202.713C20.6896 206.049 20.1281 209.485 20.0252 213.328L20.0006 214.89C19.9924 215.41 20.0669 216.052 20.0586 216.573L20.1331 217.215L20.1167 218.256L20.1627 223.382C20.2207 225.065 20.3841 226.77 20.5248 228.574C20.6882 230.278 20.7462 231.961 21.1203 233.708L21.9492 238.786C22.346 240.434 22.8255 242.203 23.2223 243.85C23.5964 245.598 24.2267 247.188 24.7288 248.857C25.3364 250.548 25.8385 252.217 26.5742 253.829C31.7587 266.898 40.5583 278.617 51.2127 287.999C61.8671 297.38 74.2256 304.604 87.2037 310.073C95.5623 313.556 104.057 316.439 112.839 318.546C113.05 318.589 113.411 318.454 113.645 318.397C119.944 319.788 126.265 321.079 132.655 322.07C146.616 324.19 160.864 325.533 175.091 325.514C178.599 325.603 182.175 325.394 185.811 325.405C187.587 325.35 189.387 325.195 191.163 325.14L193.851 324.958L196.539 324.776C203.713 324.257 210.79 323.195 217.808 321.913L224.17 320.601C226.271 320.09 228.372 319.58 230.473 319.069C230.473 319.069 231.173 318.898 232.363 318.515C233.553 318.131 235.233 317.534 237.168 316.78C238.125 316.454 239.209 316.048 240.399 315.665C241.506 315.16 242.719 314.676 243.931 314.193C245.144 313.709 246.379 313.126 247.697 312.664C248.932 312.081 250.168 311.498 251.403 310.915C252.638 310.331 253.874 309.748 255.109 309.165C256.344 308.582 257.497 307.877 258.627 307.272C260.887 306.063 262.913 304.91 264.578 303.892C267.931 301.757 269.874 300.483 269.513 300.618C271.351 299.323 272.979 297.984 274.479 296.724C275.27 296.154 275.978 295.463 276.641 294.972C277.222 294.36 277.908 293.769 278.383 293.134C278.405 293.035 278.405 293.035 278.511 293.056C279.618 292.551 280.748 291.946 282.006 291.263C285.757 289.314 289.81 287.009 293.72 284.361C297.608 281.813 301.33 279.022 304.48 276.323C307.608 273.724 310.268 271.239 312.115 269.423C313.961 267.607 314.994 266.46 314.994 266.46C317.905 262.877 320.732 259.172 323.184 255.182L323.855 254.17C324.919 252.403 325.983 250.636 326.964 248.748C328.903 245.071 330.737 241.372 332.195 237.388C335.171 229.641 337.139 221.479 337.82 213.158ZM20.2612 217.136C20.2612 217.136 20.3438 217.258 20.2612 217.136V217.136ZM42.5445 135.213C42.5445 135.213 42.5672 135.113 42.5445 135.213V135.213ZM317.583 232.315C316.389 235.623 314.774 238.844 313.077 241.943C312.269 243.554 311.273 245.022 310.361 246.611L309.84 247.444C308.844 248.912 307.977 250.301 306.876 251.747L305.405 253.849L303.829 255.929C303.829 255.929 303.482 256.485 302.857 257.297C302.208 258.209 301.281 259.378 300.157 260.924C297.85 263.794 294.661 267.634 291.201 271.209C284.364 278.481 276.467 284.597 277.318 284.249C273.994 287.225 270.867 289.824 268.636 291.875C267.657 292.302 266.678 292.729 265.57 293.234C263.635 293.987 261.699 294.741 259.658 295.473C259.169 295.686 258.679 295.899 258.19 296.113L256.638 296.631L253.536 297.669C252.474 297.974 251.495 298.401 250.433 298.706C249.371 299.012 248.309 299.317 247.353 299.644C245.335 300.276 243.422 300.93 241.577 301.284C239.709 301.738 237.947 302.214 236.419 302.633C234.807 302.931 233.407 303.271 232.24 303.555C231.073 303.839 230.162 303.966 229.567 304.158C228.972 304.35 228.633 304.385 228.633 304.385L221.969 306.053L215.267 307.4C189.276 312.118 162.162 311.594 135.76 307.456C127.452 306.178 119.234 304.499 111.317 302.465C111.212 302.444 111.084 302.522 110.978 302.5C105.192 300.797 99.5787 298.815 94.0338 296.534C82.38 291.543 71.4884 285.142 62.2926 277.102C53.2248 268.984 45.9356 259.35 41.5838 248.435C40.9907 247.165 40.5485 245.717 40.0835 244.369C39.6186 243.021 39.071 241.551 38.8395 240.146L37.8288 235.867L37.0516 231.531C36.7147 230.104 36.7166 228.643 36.5078 227.138C36.4044 225.655 36.1728 224.25 36.1975 222.688L36.1205 218.182L36.077 216.919L36.0171 216.698L36.0398 216.599L36.0026 216.278L35.9281 215.636C35.9509 215.536 35.8909 215.315 35.9136 215.215C35.9363 215.115 35.9363 215.115 35.9363 215.115C35.9363 215.115 35.9136 215.215 35.9363 215.115C35.9818 214.916 35.8991 214.794 35.8619 214.474L35.8329 213.632C35.8739 211.03 36.3219 208.092 36.8752 205.177L37.2695 202.96L37.7692 200.764C38.1099 199.267 38.4506 197.77 38.7913 196.273C40.2595 190.307 41.9837 184.184 43.896 178.204L44.1604 177.526L44.4247 176.849C48.1131 165.488 52.1174 154.191 56.4379 142.959L57.2537 140.827L57.6852 138.931C57.8442 138.233 57.9433 137.313 57.9887 137.113L58.7546 132.779C59.308 129.863 59.8613 126.948 60.52 124.054C61.732 118.244 63.1547 112.477 64.66 106.831C66.0828 101.065 67.9042 95.4836 69.9137 90.0455C70.4424 88.6914 70.9711 87.3372 71.4998 85.983L73.1685 82.0419C73.6972 80.6877 74.4139 79.4764 75.0253 78.2436L75.395 77.588L75.8164 77.6741C78.2769 78.4898 80.8799 79.648 83.3322 80.9842C88.3648 83.5785 93.1104 86.9496 97.8105 90.5202L99.5852 91.927L101.254 93.3123C102.36 94.269 103.465 95.2258 104.57 96.1825L107.841 99.2524L109.488 100.737L111.111 102.322L117.479 108.74L118.058 109.589L118.516 109.996C118.644 109.918 118.878 109.861 119.006 109.783L121.197 108.873C122.666 108.233 124.158 107.493 125.709 106.974L127.878 106.164L128.963 105.759L131.109 105.048C132.555 104.508 133.978 104.068 135.401 103.627C146.893 100.125 158.873 97.8718 170.435 97.9353L172.61 98.0662L173.709 98.0817L174.259 98.0895L174.47 98.1325C174.68 98.1755 174.914 98.1188 174.808 98.0973L174.914 98.1188L175.23 98.1833L184.706 99.1784L185.887 99.3153L185.993 99.3368C186.098 99.3583 186.098 99.3583 186.121 99.2585L186.189 98.9591L186.431 98.3818L187.141 96.2293C187.587 94.7538 188.139 93.2999 188.585 91.8244L189.272 89.7716L189.915 87.9185L190.708 85.8873C192.845 80.3709 195.171 74.9973 197.684 69.7665C200.198 64.5358 203.11 59.4909 206.247 54.9097C207.869 52.6299 209.55 50.5712 211.269 48.8334C211.698 48.3989 212.128 47.9645 212.535 47.6298L212.814 47.3735L212.837 47.2737C214.153 48.2735 215.491 49.1735 216.785 50.273C219.417 52.2726 221.898 54.4503 224.379 56.628C229.236 60.9618 233.875 65.7731 238.046 70.6979C242.195 75.7226 245.959 80.9821 249.129 86.4334L251.615 91.014L252.23 92.1841L252.538 92.7692C252.621 92.8905 252.658 93.2114 252.869 93.2544L254.937 94.8255L257.005 96.3966C259.614 98.496 262.095 100.674 264.554 102.951C275.268 112.554 285.101 123.126 293.675 134.38C302.249 145.635 309.52 157.772 314.69 170.42C317.354 177.126 319.423 184.024 320.686 191.07C321.328 194.543 321.738 198.073 321.937 201.56C321.972 203.343 322.135 205.047 322.065 206.808L322.024 209.411C322.053 210.252 321.954 211.172 321.878 211.992C321.726 218.958 320.181 225.744 317.583 232.315Z" fill="white"/>
<path d="M73.6775 95.3051C73.6775 95.3051 66.5097 119.533 68.1076 129.467C68.1076 129.467 75.1573 120.777 88.4073 119.722L73.6775 95.3051Z" fill="white"/>
<path d="M242.999 93.0144C242.999 93.0144 228.796 68.7046 221.623 67.7622L218.961 94.4766C218.961 94.4766 235.827 92.072 242.999 93.0144Z" fill="white"/>
<path d="M118.317 160.423C121.586 161.09 124.725 159.108 125.413 156.085C126.117 152.989 124.025 150.016 120.834 149.364C117.565 148.697 114.426 150.679 113.738 153.701C113.05 156.724 115.126 159.771 118.317 160.423Z" fill="white"/>
<path d="M205.801 140.446C209.07 141.113 212.209 139.131 212.896 136.108C213.601 133.012 211.509 130.039 208.318 129.387C205.049 128.72 201.91 130.702 201.222 133.725C200.517 136.821 202.532 139.778 205.801 140.446Z" fill="white"/>
<path d="M223.915 210.786C223.915 210.786 223.878 210.465 223.886 209.945C223.894 209.424 223.842 208.683 223.708 207.82C223.439 206.094 222.607 203.94 221.427 202.341C219.113 198.944 216.225 197.101 216.367 197.444C213.855 195.886 211.432 195.391 210.407 196.018C209.36 196.744 209.907 198.213 211.567 201.581C212.422 203.635 213.104 205.968 213.02 207.308C212.966 208.028 212.852 208.527 212.679 208.805C212.505 209.083 212.46 209.283 212.46 209.283C212.46 209.283 212.414 209.482 212.301 209.981C212.21 210.38 211.946 211.057 211.086 211.926C210.333 212.817 209.413 213.465 208.073 214.026C206.732 214.588 204.805 214.821 202.629 214.69C198.361 214.55 193.583 213.261 190.137 211.93C188.414 211.265 186.984 210.764 185.894 210.228C185.6 210.064 185.39 210.021 185.096 209.857C184.916 209.193 184.737 208.53 184.451 207.845C184.092 206.518 183.71 205.292 183.327 204.065C182.968 202.738 182.585 201.511 182.263 200.505C189.2 197.64 193.641 192.176 192.737 186.457C191.497 179.31 182.266 174.815 172.094 176.393C161.923 177.971 154.604 184.936 155.844 192.082C156.853 197.823 163.006 201.795 170.713 202.324C171.095 203.551 171.515 205.099 172.1 206.889C172.602 208.559 173.141 210.549 173.786 212.56C173.613 212.838 173.334 213.094 173.16 213.372C172.256 214.441 171.246 215.488 170.258 216.435C168.261 218.429 166.015 220.059 163.989 221.212C161.962 222.365 160.095 222.819 158.763 222.86C157.43 222.901 156.189 222.543 155.158 222.228C154.127 221.913 153.645 221.606 153.645 221.606C153.645 221.606 152.908 221.456 152.005 221.062C151.08 220.769 150.012 220.133 149.365 219.583C148.718 219.034 148.245 218.206 148.111 217.343C147.976 216.48 148.007 215.86 147.879 215.938C147.747 213.613 148.314 211.118 147.676 210.048C147.345 209.563 146.713 209.434 145.711 209.96C145.222 210.174 144.559 210.665 143.873 211.256C143.165 211.947 142.411 212.837 141.777 214.17C140.864 215.759 140.176 217.811 140.391 220.257C140.523 222.582 141.65 224.901 142.829 226.499C144.114 228.119 145.408 229.219 146.348 229.933C147.288 230.647 147.875 230.976 147.875 230.976C147.875 230.976 148.86 231.491 150.478 232.134C151.298 232.406 152.306 232.821 153.676 233.1C153.886 233.144 153.992 233.165 154.202 233.208C154.413 233.251 154.518 233.273 154.729 233.316C155.045 233.38 155.467 233.466 155.888 233.552C156.648 233.603 157.597 233.797 158.485 233.769C162.121 233.781 166.006 232.694 169.374 230.98C172.763 229.165 175.717 226.844 178.378 224.359C179.644 223.156 180.933 221.852 182.011 220.506C183.125 220.942 184.426 221.521 185.856 222.022C189.934 223.481 195.51 225.142 201.825 225.492C204.994 225.617 208.382 225.264 211.695 224.27C214.926 223.154 217.789 221.232 219.704 219.117C221.468 217.179 222.622 215.013 223.219 213.359C223.506 212.583 223.665 211.884 223.779 211.385C223.87 210.986 223.915 210.786 223.915 210.786Z" fill="white"/>
<path d="M83.1877 208.054C71.3963 210.451 63.076 217.942 64.6405 224.632C66.2051 231.322 76.9952 234.779 88.7866 232.383C100.578 229.986 108.898 222.495 107.334 215.805C105.792 209.015 95.0018 205.558 83.1877 208.054Z" fill="white"/>
<path d="M264.524 170.411C252.733 172.807 244.412 180.299 245.977 186.989C247.541 193.679 258.332 197.136 270.123 194.739C281.914 192.343 290.235 184.852 288.67 178.162C287.106 171.471 276.233 167.894 264.524 170.411Z" fill="white"/>
<path d="M126.189 181.011C126.482 180.374 126.477 179.745 126.116 179.393C125.81 179.121 125.388 179.035 124.835 179.201C121.619 175.546 116.154 174.012 111.188 175.787C104.929 178.064 101.79 184.742 104.194 190.671C106.598 196.599 111.991 195.539 118.249 193.262C124.508 190.985 129.29 188.406 126.901 182.411C126.711 181.954 126.45 181.482 126.189 181.011Z" fill="white"/>
<path d="M239.541 157.811C240.029 157.284 240.236 156.698 239.976 156.227C239.755 155.903 239.363 155.684 238.841 155.716C236.821 151.33 232.027 148.469 226.7 148.915C220.016 149.502 215.075 155.046 215.609 161.429C216.144 167.812 221.67 168.104 228.409 167.598C235.148 167.092 240.445 165.804 239.911 159.42C239.821 158.844 239.717 158.335 239.541 157.811Z" fill="white"/>
</g>
</svg>
