<svg width="26" height="26" viewBox="0 0 26 26" fill="none" xmlns="http://www.w3.org/2000/svg">
<path d="M17.8152 14.4123L17.7297 14.2835L16.7759 12.8085L16.3781 12.1977L13.0035 7L12.9992 7.00831L12.995 7L9.62034 12.1977L9.22257 12.8085L8.26878 14.2835L8.18324 14.4123L6.92578 16.3526L7.91379 19.3649L10.2234 15.3928L10.2662 15.3139L11.1387 13.814L11.3098 13.5231L12.995 10.623L12.9992 10.6355L13.0035 10.623L14.6887 13.5231L14.8598 13.814L15.7323 15.3139L15.7751 15.3928L18.0847 19.3649L19.0727 16.3526L17.8152 14.4123Z" fill="black"/>
<path d="M9.30014 11.9484L3 7L4.22752 12.5135L5.75444 19.3649H7.91437L6.0795 13.7849L7.69624 14.4704L9.30014 11.9484Z" fill="black"/>
<path d="M16.7002 11.9485L18.3041 14.4705L19.9208 13.7849L18.086 19.3649H20.2459L21.7728 12.5136L23.0003 7.00006L16.7002 11.9485Z" fill="black"/>
<path d="M14.3643 13.7806L12.9999 14.7986L11.6355 13.7806L10.5234 15.6711L12.9956 16.7223L12.9999 16.7181L13.0041 16.7223L15.4763 15.6711L14.3643 13.7806Z" fill="black"/>
</svg>
