<svg width="66" height="66" viewBox="0 0 66 66" fill="none" xmlns="http://www.w3.org/2000/svg">
<path d="M40.9393 45.8578C42.3527 44.1987 43.3973 42.4781 44.0425 40.6961C44.7492 38.7912 45.0871 36.579 45.21 34.1825L44.7799 32.7999H38.4506L37.9591 34.2747C37.8976 34.5205 37.8362 34.7048 37.7747 34.9199C37.6825 35.9953 37.4982 36.9785 37.2217 37.8695C37.2217 37.9309 37.1909 37.9924 37.1602 38.0538C37.0988 38.2689 37.0066 38.4225 36.9451 38.6069C36.4843 39.8358 35.9312 40.9112 35.1631 41.8022C33.3196 40.4196 31.384 39.4057 29.3869 38.6069C29.0489 38.484 28.711 38.2996 28.373 38.1767L28.1579 38.6069L26.3452 42.2631C27.8507 42.7854 29.3255 43.5535 30.8002 44.506C29.8785 44.8439 28.8953 45.0283 27.8507 45.0283C25.0548 45.0283 22.7504 43.9836 20.9377 41.9251C19.1249 39.8666 18.2032 36.7327 18.2032 32.5849C18.2032 28.4985 19.1249 25.426 20.9377 23.3675C22.7504 21.3397 25.1469 20.295 28.0658 20.295C29.8478 20.295 31.4147 20.7252 32.7666 21.4626L34.9788 15.287C32.951 14.5496 30.6773 14.1501 28.1272 14.1501C22.7811 14.1501 18.5719 15.7785 15.4687 19.0046C12.3655 22.2307 10.7986 26.7472 10.7986 32.5849C10.7986 38.4225 12.3348 42.939 15.438 46.1651C18.5412 49.3912 22.8426 51.0196 28.3116 51.0196C31.1382 51.0196 33.7191 50.4972 36.0541 49.4833C39.0344 51.4804 40.6321 52.5251 40.8472 52.648C41.8918 53.201 42.9364 53.6619 44.0425 53.9998L46.6848 48.9303C44.6263 48.1315 42.6906 47.1483 40.9393 45.8578Z" fill="black"/>
<path d="M47.4529 37.071C47.2071 35.6269 47.0227 34.8281 46.7155 33.8142L45.9166 31.264H37.3138L36.4842 33.8142C36.1155 35.0431 35.9004 35.9649 35.7468 37.071H28.6802C29.141 36.1799 29.4176 35.4426 30.1242 33.384L36.6378 15.2258C37.1909 13.7818 37.4674 12.8908 37.621 11.9998H45.4865C45.7016 12.8908 45.9166 13.6589 46.5004 15.2566L53.0447 33.4147C53.6285 35.0124 54.0893 36.2414 54.4888 37.1017H47.4529V37.071ZM41.5537 17.1615L38.7578 26.1945H44.4111L41.5537 17.1615Z" fill="black"/>
</svg>
