<svg width="26" height="26" viewBox="0 0 26 26" fill="none" xmlns="http://www.w3.org/2000/svg">
<path d="M14.1196 15.7068C14.9866 15.7068 15.6982 14.9952 15.6982 14.1282C15.6982 13.2613 14.9866 12.5496 14.1196 12.5496C13.2527 12.5496 12.541 13.2613 12.541 14.1282C12.541 14.9952 13.2527 15.7068 14.1196 15.7068ZM14.1196 13.4036C14.5207 13.4036 14.8442 13.7271 14.8442 14.1282C14.8442 14.5294 14.5207 14.8528 14.1196 14.8528C13.7185 14.8528 13.395 14.5294 13.395 14.1282C13.395 13.7271 13.7185 13.4036 14.1196 13.4036Z" fill="black"/>
<path d="M18.4931 6.50687H16.2546L12.7868 4.16484C12.541 3.99662 12.2434 3.94486 11.9717 4.00956C11.687 4.07426 11.4282 4.24247 11.2859 4.48832L10.9106 5.08353L10.2119 4.65653C9.96605 4.5142 9.68138 4.46244 9.39672 4.54008C9.12499 4.60478 8.89208 4.78593 8.74974 5.01884L7.84399 6.50687H7.4558C5.51489 6.50687 3.94922 8.08548 3.94922 10.0135V18.23C3.94922 20.158 5.51489 21.7366 7.4558 21.7366H18.4931C20.4211 21.7366 21.9997 20.1709 21.9997 18.23V10.0135C21.9997 8.08548 20.4211 6.50687 18.4931 6.50687ZM12.8774 10.6992C11.9458 10.6992 11.1953 11.4627 11.1953 12.3814V15.875C11.1953 16.8067 11.9587 17.5571 12.8774 17.5571H20.4987V18.23C20.4987 19.3298 19.6059 20.2356 18.4931 20.2356H7.4558C6.35595 20.2356 5.45019 19.3298 5.45019 18.23V10.0135C5.45019 8.9136 6.34301 8.00784 7.4558 8.00784H7.68871L7.10644 8.9783L6.80883 8.73245C6.62768 8.57718 6.35595 8.60306 6.21362 8.78421C6.05834 8.96536 6.08422 9.23709 6.26538 9.37942L6.93823 9.94876C6.93823 9.94876 6.95116 9.9617 6.9641 9.9617C6.98998 9.98758 7.01586 10.0005 7.05468 10.0135C7.06762 10.0135 7.08056 10.0264 7.0935 10.0264C7.13232 10.0393 7.18407 10.0523 7.22289 10.0523H16.4228H18.959H19.3601C19.593 10.0523 19.7871 9.85818 19.7871 9.62527C19.7871 9.39236 19.593 9.19827 19.3601 9.19827H19.0883L17.3415 8.00784H18.519C19.6189 8.00784 20.5246 8.90066 20.5246 10.0135V10.6863H12.8774V10.6992ZM20.4987 11.5532V16.7161H12.8774C12.4116 16.7161 12.0364 16.3408 12.0364 15.875V12.3814C12.0364 11.9155 12.4116 11.5403 12.8774 11.5403H20.4987V11.5532ZM12.8904 8.00784L14.8701 9.19827H7.96044L8.68505 8.00784L9.20262 7.15384L9.81078 6.15751L11.053 6.90799L11.1565 6.97269L11.467 7.15384L12.8904 8.00784ZM11.8552 6.40336L12.321 5.66581L14.5337 7.16678L15.7888 8.02078L17.5356 9.21121H16.5263L14.5466 8.00784L13.1233 7.15384L11.8552 6.40336Z" fill="black"/>
</svg>
