<svg width="26" height="26" viewBox="0 0 26 26" fill="none" xmlns="http://www.w3.org/2000/svg">
<path d="M20.4333 7.69678C20.5042 7.57115 20.5661 7.43656 20.6016 7.28401C20.8229 6.27902 20.0614 5.44451 19.176 4.48439C18.9369 4.22416 18.6801 3.946 18.4234 3.64988C18.0249 3.1743 17.4759 2.94998 16.9004 3.01279C15.4748 3.15636 13.9519 5.13943 12.9956 6.62C12.0481 5.13943 10.5163 3.15636 9.09961 3.01279C8.52407 2.941 7.9751 3.1743 7.57665 3.64091C7.32872 3.93702 7.07194 4.21519 6.83287 4.47541C5.94743 5.43554 5.17709 6.27005 5.4073 7.27504C5.43387 7.43656 5.49585 7.57115 5.56669 7.69678C5.23907 7.80446 5 8.10057 5 8.46847V8.99789V12.1564V20.654C5 21.3898 5.59325 22 6.32817 22H19.6718C20.3979 22 21 21.3988 21 20.654V12.1475V8.98891V8.46847C21 8.10057 20.7609 7.80446 20.4333 7.69678ZM6.77089 9.43757H19.2291V11.1694H6.77089V9.43757ZM17.0598 4.80742C17.0686 4.80742 17.0686 4.80742 17.0775 4.80742C17.3431 5.13045 17.6176 5.42657 17.8744 5.70474C18.2286 6.09058 18.7067 6.61103 18.8395 6.88022C18.7687 6.93406 18.627 7.02379 18.3614 7.13147C17.228 7.5891 15.6342 7.62499 14.5008 7.57115C15.5014 6.03674 16.6082 4.80742 17.0598 4.80742ZM8.12562 5.70474C8.3824 5.42657 8.65689 5.13045 8.91367 4.78947C8.91367 4.78947 8.91367 4.78947 8.92252 4.78947C9.3741 4.78947 10.4898 6.02777 11.4992 7.57115C10.3747 7.62499 8.78085 7.5891 7.63863 7.13147C7.37299 7.02379 7.23132 6.93406 7.16049 6.88022C7.28445 6.61103 7.76259 6.09058 8.12562 5.70474ZM6.77089 20.1964V12.964H19.2291V20.1964H6.77089Z" fill="black"/>
</svg>
