<svg width="48" height="49" viewBox="0 0 48 49" fill="none" xmlns="http://www.w3.org/2000/svg">
<path d="M6.71642 24.1923L6.37417 24.4918L5.51855 28.9624L5.75385 29.1763C7.37952 29.2191 9.71107 29.4543 11.8715 29.9463L12.2137 29.6469L12.941 24.8554L12.7057 24.556C10.6522 24.2565 8.21374 24.0854 6.71642 24.1923Z" fill="#C30D23"/>
<path d="M24 0C10.7807 0 0 10.7807 0 24.0214C0 37.262 10.7807 48.0428 24 48.0428C37.2193 48.0428 48 37.262 48 24.0214C48 10.7807 37.2406 0 24 0ZM43.7433 24.0214C43.7433 26.3102 43.3369 28.492 42.6096 30.5455L40.6417 26.9733L36.4064 18.8235C36.8342 18.6738 37.3262 18.5668 37.7754 18.4171C38.3315 18.2674 38.5027 18.1176 38.5455 17.6257L38.9305 13.0481C35.5294 14.3529 32.3422 15.2941 29.4332 15.6578C30.1818 13.5829 30.5882 11.4225 30.8449 9.24064L34.6096 7.40107C40.0856 10.9091 43.7433 17.0267 43.7433 24.0214ZM27.123 20.2781C28.5134 20.2353 29.8396 20.107 31.1872 19.9358L32.1497 21.7968L24.6417 25.7112L23.8717 24.2139C25.0481 23.016 26.1604 21.7112 27.123 20.2781ZM20.385 14.6738L25.6684 11.9358C25.4973 13.2406 25.1123 14.5455 24.5561 15.7647C23.1016 15.5936 21.7326 15.2299 20.385 14.6738ZM33.9465 25.262L34.8877 27.0588L27.1444 31.0802C26.8877 30.4385 26.6524 29.7968 26.3743 29.1979L33.9465 25.262ZM24 4.27807C26.0107 4.27807 27.9358 4.57754 29.754 5.13369L28.6631 5.73262L23.5294 8.40642L21.9037 5.26203L21.5401 5.15508L17.3476 7.3369L17.2193 7.70053L18.8449 10.8449L14.4385 13.1337L9.9893 15.3155L9.90374 15.615L9.94652 15.6791C8.72727 15.4652 7.52941 15.3369 6.37433 15.2513C9.58289 8.77005 16.2781 4.27807 24 4.27807ZM19.7647 43.2727C19.3155 39.4438 18.8235 36.7914 17.9679 33.2834C17.861 32.9198 17.7112 32.7059 17.2406 32.6417L12.7487 32.2995C13.5615 35.9144 14.0749 38.6738 14.3743 41.2193C8.36364 37.8182 4.27807 31.4011 4.27807 24.0214C4.27807 22.7594 4.40642 21.5187 4.64171 20.3209C6.0107 20.4706 7.42246 20.6845 8.87701 21.0909L9.24064 20.8128L10.2246 16.2567L11.6791 19.0588L12.0214 19.1444L15.4866 17.262C17.4759 18.3957 19.6791 19.2727 21.9251 19.7647C19.9786 22.139 17.1765 24.5775 13.5829 27.1444L17.4332 29.0909C17.754 29.2193 17.8824 29.2834 18.0321 29.1979C18.139 29.1551 18.2246 29.0695 18.3743 28.9412C18.9305 28.5348 19.4439 28.1283 19.9786 27.7219L20.7059 29.1337C23.9572 35.4225 23.615 38.3957 20.2139 42.3316L24.4064 43.7433C24.2567 43.7433 24.1283 43.7647 23.9786 43.7647C22.5455 43.7433 21.1337 43.5722 19.7647 43.2727ZM25.262 43.6791C25.3476 43.6364 25.4545 43.5722 25.5187 43.4866C27.6578 40.6845 28.5775 38.1176 28.1711 34.9519L36.6631 30.5455L39.4439 36.2353L39.5508 36.1711C36.1711 40.4492 31.0588 43.3155 25.262 43.6791Z" fill="#C30D23"/>
</svg>
