<svg width="80" height="108" viewBox="0 0 80 108" fill="none" xmlns="http://www.w3.org/2000/svg">
<path d="M44.7871 24.3073C44.7871 24.3073 57.2116 30.0955 57.7657 50.6169H49.2616C49.6562 51.897 49.8744 53.2486 49.8744 54.648C49.8744 57.717 48.8587 60.5555 47.1293 62.8851C51.6038 64.7616 54.7183 68.9994 54.7183 73.929H47.5658L49.908 76.1473L50.7727 75.3283L53.7361 78.135L52.0487 79.7331C52.3258 79.4707 52.6868 79.3435 53.0477 79.3435C53.4087 79.3435 53.7697 79.4707 54.0467 79.7331C54.1223 79.8047 54.1894 79.8922 54.2482 79.9717C54.3573 80.0432 54.4581 80.1148 54.5504 80.2102L54.6008 80.2579L55.0625 79.8206L55.222 79.9717C54.9114 79.3038 54.8694 78.5643 55.0877 77.8726L54.3825 75.2011L55.8517 75.551L69.6949 62.4399L76.7131 61.128L75.3279 67.775L61.4847 80.886L61.854 82.2774L59.0333 81.6095C58.7311 81.697 58.4121 81.7447 58.0931 81.7447C57.6566 81.7447 57.2284 81.6573 56.8255 81.4903L56.985 81.6414L56.5232 82.0787L56.5316 82.0866C57.3627 82.8737 57.3627 84.1459 56.5316 84.933L54.5504 86.8174C54.1391 87.207 53.5934 87.4058 53.0477 87.4058C52.5021 87.4058 51.9648 87.207 51.545 86.8174L51.5366 86.8094L50.9994 87.3183L51.2092 87.5171C51.7045 87.9782 51.6374 88.7813 51.0665 89.3219C50.7559 89.6161 50.3613 89.7672 49.9836 89.7672C49.7401 89.7672 49.5051 89.7036 49.312 89.5764C49.1021 89.7354 48.8587 89.8228 48.6152 89.8228C48.3885 89.8228 48.1787 89.7513 48.0192 89.5923L46.6676 88.3122C46.3402 88.0021 46.3569 87.4694 46.6927 87.0877C46.3486 86.6186 46.4493 85.911 46.9614 85.426C47.272 85.1318 47.6666 84.9807 48.0359 84.9807C48.3466 84.9807 48.6488 85.0841 48.867 85.2988L49.0769 85.4975L49.6142 84.9887L49.5638 84.941C48.7327 84.1538 48.7327 82.8817 49.5638 82.0946L51.545 80.2181C51.545 80.2181 51.545 80.2181 51.5534 80.2102L52.0236 79.7649L47.3727 84.1697L44.4093 81.3631L45.274 80.5441L42.0839 77.5228C41.9832 79.8047 41.5634 81.9673 40.8834 83.9471C41.7229 86.1813 41.8656 89.7513 41.8656 89.7513C41.8656 89.7513 41.1437 89.8467 40.0859 89.9421V91.9855V93.0112C47.4819 93.4246 52.5021 94.2356 52.5021 95.1659C52.5021 96.5255 41.8657 97.6227 28.7527 97.6227C15.6398 97.6227 5.00339 96.5255 5.00339 95.1659C5.00339 94.2436 9.93123 93.4405 17.2097 93.0191V91.9855V89.9421C16.4877 89.8706 15.942 89.8069 15.6566 89.7751C15.3376 89.799 15.0186 89.8228 14.6912 89.8228C7.96681 89.8228 2.51009 84.6548 2.51009 78.2861C2.51009 75.8054 3.34119 73.5235 4.74315 71.6391C5.17129 69.5242 6.18708 67.6159 7.61423 66.0496V47.2616C7.61423 36.83 16.5465 28.3702 27.5606 28.3702H30.1043C32.967 28.3702 35.6786 28.9427 38.1383 29.9683L44.7871 24.3073ZM40.8163 68.7609C40.9254 68.737 41.0429 68.737 41.1605 68.7211L41.2948 67.6C41.0346 67.7193 40.7827 67.8465 40.5141 67.9499C40.6148 68.2122 40.7155 68.4826 40.8163 68.7609ZM21.1217 91.9775L20.7859 92.8442C23.2792 92.7488 25.9572 92.7011 28.7527 92.7011C31.4727 92.7011 34.0751 92.7488 36.5097 92.8363L35.4771 90.1727C34.1339 90.1647 32.9166 90.0534 32.245 89.7433C31.9428 89.6082 31.6238 89.3696 31.2964 89.0755C30.4317 89.155 29.5503 89.2027 28.652 89.2027C27.7537 89.2027 26.8723 89.155 26.0076 89.0755C25.6802 89.3696 25.3612 89.6082 25.0589 89.7433C24.3873 90.0534 23.1701 90.1647 21.8269 90.1727L21.1217 91.9775ZM44.7871 21.922C44.1743 21.922 43.5698 22.1287 43.0997 22.5342L37.6262 27.2094C35.2168 26.3984 32.6984 25.9849 30.1127 25.9849H27.569C15.1781 25.9849 5.10413 35.534 5.10413 47.2616V65.1989C3.80291 66.8288 2.87107 68.6973 2.39256 70.677C0.822704 72.943 0 75.5589 0 78.2781C0 84.2254 3.96242 89.3219 9.51988 91.3097C8.94902 91.3892 8.42014 91.4687 7.92484 91.5482C5.89326 91.898 2.48491 92.4864 2.48491 95.1579C2.48491 98.0839 6.47251 98.7279 11.6858 99.2685C16.261 99.7376 22.3222 100 28.7527 100C35.1833 100 41.2444 99.7376 45.8197 99.2685C51.0329 98.7279 55.0205 98.0839 55.0205 95.1579C55.0205 93.194 53.1737 92.3592 51.3771 91.906C51.9228 91.7152 52.4265 91.4051 52.8463 91.0075C53.2408 90.6338 53.543 90.1965 53.7445 89.7433C54.7183 89.6082 55.625 89.1788 56.3302 88.503L58.3114 86.6186C59.0081 85.9587 59.4615 85.1159 59.6126 84.2095L61.2496 84.5991C61.4511 84.6468 61.6526 84.6707 61.8624 84.6707C62.5256 84.6707 63.1637 84.4242 63.6422 83.971C64.2634 83.3826 64.5152 82.516 64.3054 81.705L64.2886 81.6255L77.1245 69.4685C77.4771 69.1346 77.7205 68.7052 77.8129 68.2441L79.1728 61.7004C79.2232 61.5176 79.24 61.3268 79.24 61.1359C79.24 59.824 78.1235 58.7586 76.7467 58.7507C76.7383 58.7507 76.7299 58.7507 76.7215 58.7507C76.6879 58.7507 76.6544 58.7507 76.6208 58.7507C76.4697 58.7586 76.327 58.7745 76.1842 58.8063L69.2164 60.1103C68.7295 60.2057 68.2762 60.4283 67.9236 60.7622L56.9514 71.1541C56.1791 67.441 53.8956 64.1573 50.5964 62.0105C51.7801 59.7286 52.3929 57.232 52.3929 54.6559C52.3929 54.1073 52.3677 53.5587 52.309 53.0101H57.7657C58.4457 53.0101 59.0921 52.7477 59.5706 52.2866C60.0407 51.8254 60.301 51.2052 60.2842 50.5612C59.7049 28.8473 46.4661 22.4309 45.9036 22.1685C45.5426 22.0015 45.1649 21.922 44.7871 21.922ZM43.5195 83.9233C43.5195 83.9153 43.5278 83.8994 43.5278 83.8915L44.4093 84.7263C44.1827 85.1398 44.0399 85.593 43.9896 86.0382C43.8804 85.3465 43.7209 84.615 43.5195 83.9233ZM44.0735 90.8883C44.2834 90.5225 44.4009 90.0932 44.3841 89.6479C44.3841 89.6002 44.3757 89.4969 44.3673 89.3617C44.5101 89.5923 44.6864 89.8069 44.8878 89.9978L46.0211 91.0711C45.4083 91.0075 44.7535 90.9439 44.0735 90.8883Z" fill="black"/>
<path d="M52.5016 95.158C52.5016 96.5177 41.8652 97.615 28.7523 97.615C15.6393 97.615 5.00293 96.5177 5.00293 95.158C5.00293 93.7983 15.6393 92.701 28.7523 92.701C41.8652 92.701 52.5016 93.7983 52.5016 95.158Z" fill="#DDD8BF"/>
<path d="M20.3991 93.8381H17.209V85.6089H23.5892L20.3991 93.8381Z" fill="#62717F"/>
<path d="M36.8956 93.8381H40.0857V85.6089H33.7139L36.8956 93.8381Z" fill="#62717F"/>
<path d="M39.6068 89.9023C39.6068 90.8008 38.8345 91.5243 37.8942 91.5243C36.9456 91.5243 36.1816 90.8008 36.1816 89.9023C36.1816 89.0038 36.9456 88.2803 37.8942 88.2803C38.8345 88.2803 39.6068 89.0038 39.6068 89.9023Z" fill="#425059"/>
<path d="M21.1215 89.9023C21.1215 90.8008 20.3575 91.5243 19.4089 91.5243C18.4602 91.5243 17.6963 90.8008 17.6963 89.9023C17.6963 89.0038 18.4602 88.2803 19.4089 88.2803C20.3575 88.2803 21.1215 89.0038 21.1215 89.9023Z" fill="#425059"/>
<path d="M17.6621 66.0418C16.109 68.9836 15.1855 72.5695 15.1855 76.4415C15.1855 80.3216 16.109 83.9074 17.6621 86.8492C20.7682 88.3201 24.5543 89.1947 28.6511 89.1947C32.7478 89.1947 36.5339 88.3201 39.6401 86.8492C41.1931 83.9074 42.1166 80.3216 42.1166 76.4415C42.1166 72.5615 41.1931 68.9757 39.6317 66.0339C36.5255 64.563 32.7394 63.6884 28.6511 63.6884C24.5543 63.6884 20.7682 64.563 17.6621 66.0418Z" fill="#425059"/>
<path d="M39.8757 82.3648C37.9953 81.0926 19.3081 81.0926 17.4277 82.3648C15.6815 83.5415 15.4297 89.7354 15.4297 89.7354C15.4297 89.7354 22.9348 90.7133 25.0503 89.7354C26.1668 89.2186 27.5352 87.4455 28.6433 85.7678C29.7514 87.4455 31.1198 89.2265 32.2363 89.7354C34.3519 90.7133 41.8569 89.7354 41.8569 89.7354C41.8569 89.7354 41.6219 83.5415 39.8757 82.3648Z" fill="#8192A4"/>
<path d="M15.4297 79.7014C15.6396 81.2042 15.9838 82.6274 16.4539 83.9791C20.1057 84.8934 24.236 85.4262 28.6433 85.4262C33.0591 85.4262 37.1978 84.8934 40.8496 83.9791C41.3281 82.6035 41.6891 81.1405 41.8906 79.598C37.9533 78.6837 33.5712 78.1589 28.9036 78.1589C24.0513 78.151 19.4928 78.7234 15.4297 79.7014Z" fill="#62717F"/>
<path d="M46.1633 72.6035L41.5332 76.9886L45.6943 80.9296L50.3244 76.5445L46.1633 72.6035Z" fill="#425059"/>
<path d="M56.5398 82.0946C57.3709 82.8818 57.3709 84.1539 56.5398 84.941L54.5586 86.8254C53.7275 87.6125 52.3843 87.6125 51.5616 86.8254L49.5804 84.949C48.7493 84.1619 48.7493 82.8897 49.5804 82.1026L51.5616 80.2262C52.3927 79.439 53.7359 79.439 54.567 80.2262L56.5398 82.0946Z" fill="#C9A88B"/>
<path d="M54.0551 79.7411C54.6091 80.2659 54.6091 81.1088 54.0551 81.6336L53.182 82.4605C52.628 82.9853 51.7298 82.9853 51.1841 82.4605C50.63 81.9357 50.63 81.0849 51.1841 80.5601L52.0571 79.7332C52.6028 79.2163 53.501 79.2163 54.0551 79.7411Z" fill="#F4D9BD"/>
<path d="M41.9582 61.8516C49.0099 61.8516 54.7184 67.2662 54.7184 73.937H40.5479L41.9582 61.8516Z" fill="#8192A4"/>
<path d="M45.9288 72.665C45.9288 74.8754 44.0399 76.6564 41.7061 76.6564C39.3723 76.6564 37.4834 74.8674 37.4834 72.665C37.4834 70.4625 39.3723 68.6656 41.7061 68.6656C44.0399 68.6656 45.9288 70.4546 45.9288 72.665Z" fill="#BCC4CD"/>
<path d="M44.5351 72.6648C44.5351 74.1436 43.2675 75.3442 41.706 75.3442C40.1446 75.3442 38.877 74.1516 38.877 72.6648C38.877 71.1859 40.1362 69.9853 41.706 69.9853C43.2675 69.9853 44.5351 71.1859 44.5351 72.6648Z" fill="#8192A4"/>
<path d="M50.7677 75.3344L44.4102 81.3559L47.3782 84.167L53.7357 78.1456L50.7677 75.3344Z" fill="#8192A4"/>
<path d="M49.8739 54.6479C49.8739 62.5988 43.0656 69.055 34.6622 69.055H22.8337C14.4304 69.055 7.62207 62.6068 7.62207 54.6479C7.62207 46.689 14.4304 40.2408 22.8337 40.2408H34.6622C43.0656 40.2408 49.8739 46.697 49.8739 54.6479Z" fill="#F4D9BD"/>
<path d="M24.0429 53.9798C22.6745 53.9798 21.5664 55.0293 21.5664 56.3254H26.511C26.5026 55.0293 25.4029 53.9798 24.0429 53.9798Z" fill="#2A5B6A"/>
<path d="M28.9115 66.0415C30.2798 66.0415 31.388 64.992 31.388 63.6959H26.4434C26.4518 64.984 27.5515 66.0415 28.9115 66.0415Z" fill="#F2F1E7"/>
<path d="M44.9384 53.9798C43.57 53.9798 42.4619 55.0294 42.4619 56.3256H47.398C47.4064 55.0294 46.2983 53.9798 44.9384 53.9798Z" fill="#2A5B6A"/>
<path d="M28.9201 52.2387L19.1484 53.5268V50.9586L28.9201 48.0485V52.2387Z" fill="#C69700"/>
<path d="M40.9922 52.2388L48.8751 53.5268V50.9508L40.9922 48.0567V52.2388Z" fill="#C69700"/>
<path d="M30.1121 28.37H27.5684C16.5543 28.37 7.62207 36.8298 7.62207 47.2614V68.1644H17.5785V48.5892H50.0669V47.2614C50.0669 36.8298 41.1347 28.37 30.1121 28.37Z" fill="#425059"/>
<path d="M57.7652 50.6167H13.9688L44.7866 24.3068C44.7866 24.3068 57.2195 30.0951 57.7652 50.6167Z" fill="#8192A4"/>
<path d="M49.7984 48.5893C49.8152 48.5893 49.832 48.5893 49.8488 48.5893C50.9234 48.5654 51.7713 47.7147 51.7461 46.7049C51.4355 35.0885 44.2409 31.6059 43.9303 31.4628C42.9733 31.0096 41.8064 31.3913 41.3279 32.3056C40.8577 33.212 41.2439 34.3093 42.2009 34.7625C42.4612 34.8897 47.6073 37.5771 47.8592 46.8083C47.8844 47.8021 48.7491 48.5893 49.7984 48.5893Z" fill="#425059"/>
<path d="M40.5723 48.5576C40.5891 48.5576 40.6059 48.5576 40.6226 48.5576C41.6972 48.5338 42.5451 47.691 42.5199 46.6732C42.3017 38.7301 37.273 36.2971 37.0548 36.1937C36.0893 35.7405 34.9308 36.1222 34.4523 37.0286C33.9822 37.9271 34.3683 39.0243 35.3086 39.4775C35.4933 39.5729 38.4819 41.2109 38.6246 46.7607C38.6582 47.7625 39.5229 48.5576 40.5723 48.5576Z" fill="#425059"/>
<path d="M15.8746 72.5533H9.33496V78.127H15.8746V72.5533Z" fill="#425059"/>
<path d="M9.0918 86.2131C9.0918 87.3262 10.0404 88.2246 11.2158 88.2246H14.0197C15.1866 88.2246 16.1353 87.3262 16.1353 86.2131V83.5577C16.1353 82.4446 15.1866 81.5462 14.0197 81.5462H11.2158C10.0404 81.5462 9.0918 82.4446 9.0918 83.5577V86.2131Z" fill="#C9A88B"/>
<path d="M9.0918 82.8899C9.0918 83.6293 9.72143 84.2257 10.5022 84.2257H11.7363C12.517 84.2257 13.155 83.6293 13.155 82.8899C13.155 82.1505 12.5254 81.5462 11.7363 81.5462H10.5022C9.72143 81.5462 9.0918 82.1505 9.0918 82.8899Z" fill="#F4D9BD"/>
<path d="M17.268 61.8516C10.2163 61.8516 4.50781 67.2662 4.50781 73.937H18.6784L17.268 61.8516Z" fill="#8192A4"/>
<path d="M13.3057 72.665C13.3057 74.8754 15.1945 76.6564 17.5283 76.6564C19.8621 76.6564 21.7509 74.8674 21.7509 72.665C21.7509 70.4625 19.8537 68.6656 17.5283 68.6656C15.1945 68.6656 13.3057 70.4546 13.3057 72.665Z" fill="#BCC4CD"/>
<path d="M14.6992 72.6648C14.6992 74.1436 15.9668 75.3442 17.5283 75.3442C19.0897 75.3442 20.349 74.1516 20.349 72.6648C20.349 71.1859 19.0897 69.9853 17.5283 69.9853C15.9584 69.9853 14.6992 71.1859 14.6992 72.6648Z" fill="#8192A4"/>
<path d="M17.1082 77.5706H8.11719V81.5462H17.1082V77.5706Z" fill="#8192A4"/>
<path d="M17.209 91.9776V93.8381H20.3991L21.1211 91.9776H17.209Z" fill="#8192A4"/>
<path d="M40.0853 91.9773V93.8381H36.9036L36.1816 91.9773H40.0853Z" fill="#8192A4"/>
<path d="M55.0618 79.8336L47.7256 86.772L49.6475 88.5949L56.9837 81.6565L55.0618 79.8336Z" fill="#9F582C"/>
<path d="M69.4886 65.9919L58.6152 76.2928L60.6991 78.2659L71.5724 67.965L69.4886 65.9919Z" fill="#425059"/>
<path d="M55.5332 75.8641L58.8578 77.3154L69.047 67.6634L70.0079 67.4894L76.7229 61.1301L69.7042 62.4397L55.5332 75.8641Z" fill="#BCC4CD"/>
<path d="M59.6348 78.0509L61.169 81.2044L75.3378 67.7803L76.7202 61.1303L70.0052 67.4895L69.8239 68.399L59.6348 78.0509Z" fill="#8192A4"/>
<path d="M55.8841 80.8664L61.8626 82.2804L60.3691 76.6169L54.3906 75.2028L55.8841 80.8664Z" fill="#8192A4"/>
<path d="M51.0679 89.3205C51.6345 88.7813 51.7002 87.9787 51.2084 87.514L48.8696 85.2975C48.3801 84.8353 47.5279 84.8874 46.9614 85.4242C46.4537 85.9087 46.3517 86.6144 46.6962 87.0866C46.3608 87.4693 46.3404 87.9961 46.6713 88.3092L48.0243 89.5889C48.3574 89.902 48.9081 89.8871 49.316 89.5715C49.8146 89.8995 50.558 89.8026 51.0679 89.3205Z" fill="#8192A4"/>
<path d="M60.3591 80.878C61.6016 79.7013 61.5932 77.8011 60.3591 76.6323C59.1167 75.4555 57.1103 75.4555 55.8762 76.6323C54.6337 77.809 54.6337 79.7093 55.8762 80.886C57.1103 82.0548 59.1167 82.0468 60.3591 80.878Z" fill="#425059"/>
<path d="M59.2426 79.8127C59.8638 79.2243 59.8638 78.2702 59.2426 77.6898C58.6213 77.1015 57.6223 77.1015 57.0011 77.6898C56.3798 78.2782 56.3798 79.2243 57.0011 79.8127C57.6139 80.401 58.6213 80.401 59.2426 79.8127Z" fill="#EB4900"/>
<path d="M26.8719 78.2782C26.8719 84.6468 21.4152 89.8148 14.6908 89.8148C7.96649 89.8148 2.50977 84.6468 2.50977 78.2782C2.50977 71.9016 7.96649 66.7415 14.6908 66.7415C21.4236 66.7415 26.8719 71.9016 26.8719 78.2782Z" fill="#BCC4CD"/>
<path d="M23.2197 78.2781C23.2197 82.7386 19.4 86.3562 14.6904 86.3562C9.98084 86.3562 6.16113 82.7386 6.16113 78.2781C6.16113 73.8177 9.98084 70.2001 14.6904 70.2001C19.4084 70.2001 23.2197 73.8177 23.2197 78.2781Z" fill="#8192A4"/>
<path d="M16.8233 78.2782C16.8233 79.3915 15.8663 80.2979 14.6909 80.2979C13.5156 80.2979 12.5586 79.3915 12.5586 78.2782C12.5586 77.165 13.5156 76.2586 14.6909 76.2586C15.8746 76.2586 16.8233 77.1571 16.8233 78.2782Z" fill="#425059"/>
<g filter="url(#filter0_d_1460_7614)">
<path d="M47 80.0881C47 89.5299 39.1694 97.1761 29.5 97.1761C19.8306 97.1761 12 89.5299 12 80.0881C12 70.6462 19.8306 63 29.5 63C39.1694 63 47 70.6462 47 80.0881Z" fill="url(#paint0_linear_1460_7614)"/>
<path d="M29.5004 92.6422C36.601 92.6422 42.3572 87.0215 42.3572 80.0881C42.3572 73.1546 36.601 67.5339 29.5004 67.5339C22.3997 67.5339 16.6436 73.1546 16.6436 80.0881C16.6436 87.0215 22.3997 92.6422 29.5004 92.6422Z" fill="url(#paint1_linear_1460_7614)"/>
<path d="M29.5004 69.7185C36.2123 69.7185 41.6677 74.7612 42.2347 81.1804C42.9242 73.4145 36.6721 67.5488 29.5004 67.5488C22.3288 67.5488 16.0613 73.3995 16.7662 81.1804C17.3332 74.7612 22.7885 69.7185 29.5004 69.7185Z" fill="#D48031"/>
<path opacity="0.53" d="M31.538 79.9384L36.6562 73.2499L33.6833 71.0802L29.6378 76.3622L25.3471 71.0503L22.4355 73.2948L27.8143 79.9684V80.6417H24.5043V83.8289H27.8449C27.8449 94.4079 27.8449 79.7888 27.8449 90.6222H31.5533C31.5533 79.8337 31.5533 94.752 31.5533 83.8289H34.8939V80.6417H31.5533V79.9384H31.538Z" fill="#FFF297"/>
</g>
<defs>
<filter id="filter0_d_1460_7614" x="2" y="53" width="55" height="54.1761" filterUnits="userSpaceOnUse" color-interpolation-filters="sRGB">
<feFlood flood-opacity="0" result="BackgroundImageFix"/>
<feColorMatrix in="SourceAlpha" type="matrix" values="0 0 0 0 0 0 0 0 0 0 0 0 0 0 0 0 0 0 127 0" result="hardAlpha"/>
<feOffset/>
<feGaussianBlur stdDeviation="5"/>
<feComposite in2="hardAlpha" operator="out"/>
<feColorMatrix type="matrix" values="0 0 0 0 0 0 0 0 0 0 0 0 0 0 0 0 0 0 0.5 0"/>
<feBlend mode="normal" in2="BackgroundImageFix" result="effect1_dropShadow_1460_7614"/>
<feBlend mode="normal" in="SourceGraphic" in2="effect1_dropShadow_1460_7614" result="shape"/>
</filter>
<linearGradient id="paint0_linear_1460_7614" x1="29.5031" y1="76.9833" x2="29.5031" y2="98.044" gradientUnits="userSpaceOnUse">
<stop stop-color="#FFF297"/>
<stop offset="1" stop-color="#FAC823"/>
</linearGradient>
<linearGradient id="paint1_linear_1460_7614" x1="29.5036" y1="93.3435" x2="29.5036" y2="74.0708" gradientUnits="userSpaceOnUse">
<stop stop-color="#F6AA39"/>
<stop offset="1" stop-color="#FAC823"/>
</linearGradient>
</defs>
</svg>
