<svg width="80" height="108" viewBox="0 0 80 108" fill="none" xmlns="http://www.w3.org/2000/svg">
<path d="M61.8998 34.3858C62.2993 34.3858 62.6564 34.5852 62.8519 34.9203C63.0389 35.2474 63.0219 35.6462 62.8094 35.9574C61.6958 37.5608 61.9253 39.7067 63.3704 41.0629C64.195 41.8367 65.3255 42.2356 66.4646 42.2356C67.2892 42.2356 68.1137 42.0282 68.8108 41.5894C68.9893 41.4777 69.1933 41.4219 69.3973 41.4219C69.5758 41.4219 69.7543 41.4618 69.9159 41.5415C70.2644 41.717 70.4769 42.0601 70.4769 42.435V47.1417C70.4769 47.5087 70.2559 47.8517 69.9159 48.0272C69.7543 48.1069 69.5758 48.1468 69.4058 48.1468C69.2018 48.1468 68.9978 48.091 68.8193 47.9793C68.1222 47.5485 67.2977 47.3411 66.4731 47.3411C65.334 47.3411 64.2035 47.74 63.3789 48.5138C61.9763 49.8301 61.7128 51.9042 62.7244 53.4917C62.9029 53.6672 63.0134 53.9145 63.0134 54.1778C63.0134 54.7362 62.5289 55.1909 61.9338 55.1909C61.9253 55.1909 61.9253 55.1909 61.9168 55.1909H61.9083H60.9137V60.7113C61.3558 61.0623 61.6448 61.5728 61.6448 62.1631V64.1575C61.6448 64.7478 61.3558 65.2584 60.9137 65.6094V71.8717C61.5003 72.2306 61.8913 72.8529 61.8913 73.5549V76.2273C61.8913 76.9293 61.5003 77.5516 60.9137 77.9106V83.0321C61.3558 83.3831 61.6448 83.8936 61.6448 84.4839V86.4783C61.6448 87.0606 61.3558 87.5792 60.9137 87.9302V95.1258H57.8875V87.9302C57.4455 87.5792 57.1565 87.0686 57.1565 86.4783V84.4839C57.1565 83.9016 57.4455 83.3831 57.8875 83.0321V78.2376H56.9015C56.4764 78.2376 56.0939 78.118 55.7539 77.9265L55.6434 78.6046C55.5159 78.6126 55.3544 78.6126 55.1504 78.6126C53.5947 78.6126 49.8205 78.3254 45.5702 76.2353C45.4767 77.5516 44.6861 78.6764 43.5301 79.2986C43.5726 79.8012 43.6151 80.3038 43.6491 80.8143C43.6576 80.918 43.6661 81.0138 43.6746 81.1175C43.7936 82.5853 43.9041 84.0611 44.0146 85.4811H44.6606V88.8157H44.2611C44.3801 90.4431 44.4821 91.887 44.5501 92.9879C51.7926 93.4107 56.672 94.2084 56.672 95.1258C56.672 96.482 45.9017 97.5908 32.6238 97.5908C19.3459 97.5908 8.57567 96.4899 8.57567 95.1258C8.57567 94.2722 12.843 93.5144 19.3289 93.0756C19.4394 92.0545 19.5924 90.7303 19.7709 89.2145C19.4394 89.406 19.0569 89.5177 18.6489 89.5177H15.8097C14.6196 89.5177 13.659 88.6162 13.659 87.4994V84.835C13.659 84.7073 13.676 84.5877 13.7015 84.468C13.676 84.3723 13.659 84.2686 13.659 84.1648C13.659 84.0053 13.693 83.8617 13.744 83.7181L13.3105 83.6543C13.2595 82.8565 13.2935 80.1921 14.5771 76.8575L12.6049 75.3977L12.2564 67.4601C12.0864 67.4362 11.9164 67.3963 11.7549 67.3485L11.3639 75.3897L9.54474 73.4911V52.0079C9.54474 46.1525 13.5315 41.1267 19.2524 38.8531C19.1589 38.8053 19.0569 38.7574 18.9634 38.7175C18.4619 38.4862 18.2493 37.9198 18.4873 37.4491C18.6574 37.1141 19.0229 36.9146 19.3969 36.9146C19.5414 36.9146 19.6944 36.9466 19.8304 37.0104C20.4935 37.3055 21.1905 37.6486 21.9216 38.0315C23.2562 37.7283 24.6418 37.5528 26.0784 37.5528H38.9482C40.8439 37.5528 42.663 37.848 44.3631 38.3586C44.7881 37.9198 45.2132 37.505 45.6382 37.154C45.8337 36.9944 46.0717 36.9146 46.3097 36.9146C46.5903 36.9146 46.8623 37.0263 47.0663 37.2337C47.4403 37.6246 47.3978 38.2229 46.9813 38.5739C46.7858 38.7335 46.5903 38.9329 46.3948 39.1164C48.0524 39.8503 49.5485 40.8076 50.8236 41.9643C51.3166 42.1319 51.8351 42.2196 52.3537 42.2196C53.4842 42.2196 54.6148 41.8287 55.4309 41.0549C56.876 39.6988 57.114 37.5528 55.9919 35.9494C55.7794 35.6383 55.7624 35.2394 55.9494 34.9123C56.1364 34.5852 56.5019 34.3778 56.9015 34.3778H61.8998V34.3858ZM55.4734 58.0229C54.7593 57.9591 54.0708 57.8713 53.3822 57.7836C53.3567 57.9511 53.3312 58.1186 53.2972 58.2861C53.4927 58.3819 53.6373 58.5733 53.6373 58.7967C53.6373 59.1078 53.3737 59.3631 53.0422 59.379C52.6767 60.7113 52.1241 61.9637 51.4016 63.1204C51.2826 63.8225 50.8151 64.4367 50.152 64.8356C48.2394 67.0772 45.6297 68.7764 42.629 69.63C42.6375 69.7257 42.6545 69.8454 42.6715 69.9571C45.2642 70.5873 49.914 71.4409 56.8165 71.4648L56.7995 71.5446C56.8335 71.5446 56.859 71.5366 56.893 71.5366H57.879V65.6094C57.437 65.2584 57.148 64.7478 57.148 64.1575V62.1631C57.148 61.5808 57.437 61.0623 57.879 60.7113V55.1909H56.8845C56.4849 55.1909 56.1279 54.9915 55.9324 54.6564C55.7454 54.3293 55.7624 53.9305 55.9749 53.6193C57.097 52.0159 56.859 49.87 55.4139 48.5138C55.2354 48.3463 55.0399 48.1947 54.8358 48.0671C55.2439 49.3195 55.4734 50.6438 55.4734 52.0159C55.4734 52.0159 55.5839 57.3288 55.4734 58.0229ZM12.1799 65.9923L12.0609 63.3518C12.0184 63.3677 11.9759 63.3917 11.9334 63.4156L11.8144 65.8248C11.9249 65.8966 12.0524 65.9524 12.1799 65.9923ZM20.281 70.0289C20.7315 69.8374 21.165 69.7018 21.5476 69.6061C21.114 69.4784 20.6975 69.3348 20.281 69.1753V70.0289ZM61.8998 31.9926H56.8845C55.5499 31.9926 54.3258 32.6786 53.6883 33.7795C53.0592 34.8724 53.1102 36.2046 53.8413 37.2577C54.3088 37.9198 54.2068 38.8053 53.6118 39.3637C53.2972 39.6589 52.8297 39.8264 52.3367 39.8264C52.2517 39.8264 52.1666 39.8184 52.0816 39.8104C51.3846 39.2201 50.6365 38.6856 49.8375 38.199C49.846 38.1591 49.846 38.1113 49.846 38.0714C49.9055 37.1779 49.591 36.3243 48.9534 35.6542C48.2819 34.9442 47.3128 34.5294 46.2928 34.5294C45.4172 34.5294 44.5756 34.8325 43.9211 35.375C43.8021 35.4707 43.6831 35.5744 43.5641 35.6781C42.034 35.3351 40.4784 35.1676 38.9227 35.1676H26.0529C24.8118 35.1676 23.5537 35.2873 22.2871 35.5106C21.8111 35.2713 21.352 35.0559 20.91 34.8565C20.434 34.6411 19.8984 34.5294 19.3714 34.5294C18.0113 34.5294 16.7447 35.2713 16.1582 36.428C15.9287 36.8748 15.8182 37.3454 15.8097 37.8161C10.3608 40.8794 6.96056 46.2243 6.96056 52.0239V73.507C6.96056 74.0974 7.19858 74.6717 7.61511 75.1105L9.43424 77.0091C9.92727 77.5197 10.6158 77.7989 11.3299 77.7989C11.4064 77.7989 11.4829 77.7989 11.5679 77.7909C10.6413 80.942 10.7093 83.2953 10.7433 83.7979C10.7688 84.1888 10.8878 84.5557 11.0833 84.8748V87.5154C11.0833 89.0789 11.9589 90.459 13.268 91.2408C7.82762 91.9508 6 93.0437 6 95.1418C6 98.0775 10.0378 98.7236 15.3166 99.2661C19.9495 99.7368 26.0869 100 32.5983 100C39.1098 100 45.2472 99.7368 49.88 99.2661C53.2462 98.9231 56.1109 98.5322 57.743 97.535C57.777 97.535 57.8195 97.535 57.8535 97.535H60.8797C62.2908 97.535 63.4299 96.466 63.4299 95.1418V88.8157C63.906 88.1296 64.161 87.3239 64.161 86.4942V84.4999C64.161 83.6702 63.8975 82.8645 63.4299 82.1785V78.9317C64.059 78.1738 64.4075 77.2325 64.4075 76.2433V73.5708C64.4075 72.5816 64.059 71.6403 63.4299 70.8825V66.4949C63.906 65.8088 64.161 65.0031 64.161 64.1735V62.1791C64.161 61.3495 63.8975 60.5437 63.4299 59.8577V57.281C64.6625 56.7385 65.5211 55.5579 65.5211 54.1937C65.5211 53.4598 65.266 52.7498 64.807 52.1595C64.4755 51.5293 64.603 50.7315 65.147 50.221C65.4616 49.9258 65.9376 49.7503 66.4391 49.7503C66.7961 49.7503 67.1277 49.838 67.3912 49.9976C67.9862 50.3566 68.6663 50.556 69.3803 50.556C69.9839 50.556 70.5789 50.4124 71.1144 50.1412C72.279 49.5509 73.0101 48.4021 73.0101 47.1497V42.443C73.0101 41.1905 72.279 40.0418 71.0974 39.4435C70.5704 39.1802 69.9754 39.0366 69.3803 39.0366C68.6748 39.0366 67.9947 39.2281 67.3997 39.5871C67.1277 39.7546 66.7961 39.8424 66.4391 39.8424C65.9376 39.8424 65.4701 39.6748 65.147 39.3717C64.5605 38.8212 64.4585 37.9198 64.909 37.2736C65.6401 36.2206 65.6996 34.8804 65.062 33.7795C64.4585 32.6786 63.2344 31.9926 61.8998 31.9926ZM53.8073 64.0059C54.0963 63.5193 54.3598 63.0247 54.5893 62.5142V64.1575C54.5893 64.9871 54.8443 65.7929 55.3204 66.4789V69.0556C53.3482 69.0157 51.4611 68.8961 49.6675 68.7126C50.475 68.0744 51.2231 67.3724 51.9031 66.5986C52.8382 65.9365 53.5097 65.027 53.8073 64.0059ZM46.1737 80.3995C46.4798 80.1123 46.7518 79.8092 46.9898 79.4741C50.73 80.8383 53.8243 81.0138 55.1504 81.0138C55.2099 81.0138 55.2779 81.0138 55.3289 81.0138V82.1705C54.8528 82.8565 54.5978 83.6543 54.5978 84.4919V86.4863C54.5978 87.3159 54.8528 88.1216 55.3289 88.8077V91.8232C54.7678 91.6955 54.2323 91.5998 53.7818 91.52C52.0221 91.2169 49.6845 90.9536 46.9473 90.7462C46.9303 90.4909 46.9133 90.2277 46.8963 89.9644C47.0918 89.6214 47.2108 89.2305 47.2108 88.8157V85.4811C47.2108 84.811 46.9133 84.2047 46.4458 83.766C46.3778 82.8326 46.3013 81.8833 46.2247 80.942L46.2077 80.7106L46.1992 80.6388L46.1737 80.3995Z" fill="black"/>
<path d="M56.6725 95.1337C56.6725 96.4978 45.9022 97.5987 32.6243 97.5987C19.3464 97.5987 8.57617 96.4978 8.57617 95.1337C8.57617 93.7696 19.3464 92.6687 32.6243 92.6687C45.9022 92.6687 56.6725 93.7696 56.6725 95.1337Z" fill="#DDD8BF"/>
<path d="M13.6514 87.5073C13.6514 88.6242 14.6119 89.5257 15.802 89.5257H18.6412C19.8228 89.5257 20.7919 88.6242 20.7919 87.5073V84.8429C20.7919 83.726 19.8313 82.8246 18.6412 82.8246H15.802C14.6119 82.8246 13.6514 83.726 13.6514 84.8429V87.5073Z" fill="#C9A88B"/>
<path d="M13.6514 84.173C13.6514 84.9151 14.2889 85.5135 15.088 85.5135H16.3376C17.1281 85.5135 17.7742 84.9151 17.7742 84.173C17.7742 83.431 17.1366 82.8246 16.3376 82.8246H15.088C14.2974 82.8246 13.6514 83.431 13.6514 84.173Z" fill="#F4D9BD"/>
<path d="M16.2183 73.5308C13.3026 78.3173 13.2431 82.6172 13.3111 83.6622L20.9107 84.7711C20.9447 75.3337 22.8743 70.3877 23.1718 69.3506C23.1718 69.3506 18.7345 69.3825 16.2183 73.5308Z" fill="#FFB103"/>
<path d="M59.733 71.5445C60.9231 71.5445 61.8837 72.4459 61.8837 73.5548V76.2274C61.8837 77.3363 60.9231 78.2377 59.733 78.2377H56.8938C55.7037 78.2377 54.7432 77.3363 54.7432 76.2274V73.5548C54.7432 72.4459 55.7037 71.5445 56.8938 71.5445H59.733Z" fill="#C9A88B"/>
<path d="M56.1798 71.5445C56.9703 71.5445 57.6164 72.143 57.6164 72.8851V74.0581C57.6164 74.8002 56.9788 75.3987 56.1798 75.3987C55.3892 75.3987 54.7432 74.8002 54.7432 74.0581V72.8851C54.7432 72.143 55.3892 71.5445 56.1798 71.5445Z" fill="#F4D9BD"/>
<path d="M44.84 75.8763C49.9404 78.6047 54.5222 78.6685 55.6357 78.6047L56.8173 71.4727C46.7612 71.4408 41.4908 69.6378 40.3857 69.3506C40.3857 69.3506 40.4197 73.507 44.84 75.8763Z" fill="#FFB103"/>
<path d="M44.6529 95.1337C44.6614 93.5382 42.8932 70.1005 42.4852 68.6965H22.5258C22.1093 70.1165 19.1341 93.6978 19.1426 95.1337H44.6529Z" fill="#FFDE73"/>
<path d="M53.5441 55.8133C53.5441 63.7907 46.6502 70.2683 38.1411 70.2683H26.1638C17.6547 70.2683 10.7607 63.7987 10.7607 55.8133C10.7607 47.8279 17.6547 41.3583 26.1638 41.3583H38.1411C46.6502 41.3583 53.5441 47.8279 53.5441 55.8133Z" fill="#F4D9BD"/>
<path d="M51.4525 62.7534C51.4525 64.1814 50.0414 65.3381 48.3073 65.3381C46.5732 65.3381 45.1621 64.1814 45.1621 62.7534C45.1621 61.3254 46.5732 60.1687 48.3073 60.1687C50.0499 60.1687 51.4525 61.3254 51.4525 62.7534Z" fill="#FFAC83"/>
<path d="M30.848 62.7534C30.848 64.1814 29.4369 65.3381 27.7028 65.3381C25.9687 65.3381 24.5576 64.1814 24.5576 62.7534C24.5576 61.3254 25.9687 60.1687 27.7028 60.1687C29.4369 60.1687 30.848 61.3254 30.848 62.7534Z" fill="#FFAC83"/>
<path d="M27.3875 57.0339C26.002 57.0339 24.8799 58.087 24.8799 59.3874H29.8867C29.8782 58.087 28.7646 57.0339 27.3875 57.0339Z" fill="#2A5B6A"/>
<path d="M37.172 67.2374C38.5576 67.2374 39.6797 66.184 39.6797 64.8833H34.6729C34.6814 66.184 35.7949 67.2374 37.172 67.2374Z" fill="#EB4900"/>
<path d="M48.5458 57.0339C47.1602 57.0339 46.0381 58.087 46.0381 59.3874H51.0449C51.0449 58.087 49.9228 57.0339 48.5458 57.0339Z" fill="#2A5B6A"/>
<path d="M44.6609 85.4889H19.5332V88.8244H44.6609V85.4889Z" fill="#FFB103"/>
<path d="M55.4737 58.0228C55.5842 57.3288 55.4737 52.0159 55.4737 52.0159C55.4737 44.0305 48.0696 37.5609 38.9315 37.5609H26.0617C16.9235 37.5609 9.51953 44.0305 9.51953 52.0159V73.499L11.3387 75.3976L11.9932 62.0115L12.5882 75.3976L20.2728 81.0854V58.2223C27.1242 57.4086 33.1426 55.5259 37.5629 52.9253C42.2808 55.5259 48.3077 57.3687 55.4737 58.0228Z" fill="#F2F1E7"/>
<path d="M14.1862 64.6519C14.1862 65.4338 13.5062 66.072 12.6731 66.072C11.84 66.072 11.16 65.4338 11.16 64.6519C11.16 63.8621 11.84 63.2319 12.6731 63.2319V61.7959C10.9985 61.7959 9.62988 63.0724 9.62988 64.6519C9.62988 66.2236 10.99 67.508 12.6731 67.508C14.3562 67.508 15.7163 66.2315 15.7163 64.6519H14.1862Z" fill="#FFDE73"/>
<path d="M12.248 50.8034V62.2987C12.248 63.7824 13.5231 64.979 15.1042 64.979C16.6853 64.979 17.9604 63.7745 17.9604 62.2987L12.248 50.8034Z" fill="#F4D9BD"/>
<path d="M26.6735 58.8047C26.6735 59.1319 26.3929 59.3952 26.0444 59.3952H23.0607C22.7122 59.3952 22.4316 59.1319 22.4316 58.8047C22.4316 58.4776 22.7122 58.2143 23.0607 58.2143H26.0444C26.3929 58.2143 26.6735 58.4776 26.6735 58.8047Z" fill="#2A5B6A"/>
<path d="M53.6461 58.8047C53.6461 59.1319 53.3655 59.3952 53.017 59.3952H50.0333C49.6848 59.3952 49.4043 59.1319 49.4043 58.8047C49.4043 58.4776 49.6848 58.2143 50.0333 58.2143H53.017C53.357 58.2143 53.6461 58.4776 53.6461 58.8047Z" fill="#2A5B6A"/>
<path d="M60.9052 52.9809H57.8789V95.1337H60.9052V52.9809Z" fill="#00ABD3"/>
<path d="M59.6218 66.056H59.1628C58.0492 66.056 57.1396 65.2103 57.1396 64.1573V62.163C57.1396 61.1179 58.0407 60.2643 59.1628 60.2643H59.6218C60.7354 60.2643 61.645 61.1099 61.645 62.163V64.1573C61.645 65.2103 60.7354 66.056 59.6218 66.056Z" fill="#FFDE73"/>
<path d="M59.6218 88.3848H59.1628C58.0492 88.3848 57.1396 87.5392 57.1396 86.4862V84.4919C57.1396 83.4469 58.0407 82.5934 59.1628 82.5934H59.6218C60.7354 82.5934 61.645 83.439 61.645 84.4919V86.4862C61.645 87.5312 60.7354 88.3848 59.6218 88.3848Z" fill="#FFDE73"/>
<path d="M62.6051 41.7727C60.7605 40.0416 60.5225 37.3692 61.8996 35.3988H56.8842C58.2613 37.3692 58.0233 40.0416 56.1787 41.7727C54.3341 43.5038 51.4864 43.7272 49.3867 42.4348V47.1415C51.4864 45.8492 54.3341 46.0725 56.1787 47.8036C58.0233 49.5347 58.2613 52.2072 56.8842 54.1776H61.8996C60.5225 52.2072 60.7605 49.5347 62.6051 47.8036C64.4498 46.0725 67.2974 45.8492 69.3971 47.1415V42.4348C67.2974 43.7272 64.4498 43.5118 62.6051 41.7727Z" fill="#FFB103"/>
<path d="M61.9252 55.1908C61.9167 55.1908 61.9082 55.1908 61.8997 55.1908H56.8844C56.4849 55.1908 56.1278 54.9914 55.9323 54.6564C55.7453 54.3293 55.7623 53.9304 55.9748 53.6193C57.0969 52.0159 56.8589 49.8699 55.4138 48.5138C53.9942 47.1816 51.6396 46.9582 49.9734 47.9873C49.6419 48.1867 49.2169 48.2107 48.8684 48.0272C48.5198 47.8517 48.2988 47.5087 48.2988 47.1417V42.4351C48.2988 42.0681 48.5198 41.7251 48.8684 41.5416C49.2169 41.3661 49.6419 41.3821 49.9734 41.5815C51.6396 42.6026 53.9942 42.3792 55.4138 41.047C56.8589 39.6909 57.0969 37.545 55.9748 35.9415C55.7623 35.6304 55.7453 35.2315 55.9323 34.9045C56.1193 34.5774 56.4849 34.37 56.8844 34.37H61.8997C62.2993 34.37 62.6563 34.5694 62.8518 34.9045C63.0388 35.2315 63.0218 35.6304 62.8093 35.9415C61.6957 37.545 61.9252 39.6909 63.3703 41.047C64.7899 42.3792 67.1446 42.6026 68.8107 41.5735C69.1422 41.3741 69.5672 41.3581 69.9158 41.5336C70.2643 41.7091 70.4768 42.0522 70.4768 42.4271V47.1337C70.4768 47.5007 70.2558 47.8437 69.9158 48.0192C69.5672 48.1947 69.1422 48.1788 68.8107 47.9793C67.1446 46.9582 64.7899 47.1816 63.3703 48.5058C61.9677 49.8221 61.7042 51.8962 62.7158 53.4837C62.8943 53.6592 63.0048 53.9065 63.0048 54.1697C63.0048 54.7441 62.5203 55.1908 61.9252 55.1908ZM58.559 53.1726H60.2166C59.5451 51.0666 60.1231 48.7053 61.8402 47.0938C63.0643 45.9451 64.6964 45.3069 66.4305 45.3069C67.0766 45.3069 67.7056 45.3947 68.3177 45.5702V44.0146C67.7141 44.1901 67.0766 44.2778 66.4305 44.2778C64.6964 44.2778 63.0643 43.6476 61.8402 42.4909C60.1231 40.8795 59.5451 38.5182 60.2166 36.4122H58.559C59.2306 38.5182 58.6525 40.8795 56.9354 42.4909C55.7113 43.6397 54.0792 44.2778 52.3451 44.2778C51.6991 44.2778 51.07 44.1901 50.458 44.0146V45.5702C51.07 45.3947 51.6991 45.3069 52.3451 45.3069C54.0792 45.3069 55.7113 45.9451 56.9354 47.0938C58.661 48.7053 59.2391 51.0666 58.559 53.1726Z" fill="#FFDE73"/>
<path d="M62.2393 44.7883C62.2393 46.2642 60.9642 47.4609 59.3916 47.4609C57.819 47.4609 56.5439 46.2642 56.5439 44.7883C56.5439 43.3124 57.819 42.1157 59.3916 42.1157C60.9642 42.1157 62.2393 43.3124 62.2393 44.7883Z" fill="#00ABD3"/>
<path d="M60.9052 44.7888C60.9052 45.5707 60.2251 46.2089 59.392 46.2089C58.559 46.2089 57.8789 45.5707 57.8789 44.7888C57.8789 44.0069 58.559 43.3686 59.392 43.3686C60.2336 43.3686 60.9052 44.0069 60.9052 44.7888Z" fill="#5AE8FF"/>
<path d="M36.8403 51.5852C36.5003 51.5852 36.1858 51.4257 35.9988 51.1624C33.2191 47.2774 24.3955 41.1747 18.9466 38.7256C18.4451 38.4942 18.2326 37.9278 18.4706 37.4572C18.7086 36.9865 19.3121 36.7871 19.8222 37.0104C25.118 39.3957 33.1341 44.8522 36.7723 48.9766C37.1804 48.3623 37.6224 47.6683 38.0814 46.9423C40.2066 43.6158 42.8502 39.4675 45.6299 37.162C46.0465 36.811 46.684 36.8509 47.058 37.2418C47.432 37.6327 47.3895 38.231 46.973 38.582C44.4228 40.704 41.8727 44.7007 39.8155 47.9236C39.025 49.168 38.3024 50.3008 37.6734 51.1704C37.4864 51.4256 37.1718 51.5852 36.8403 51.5852Z" fill="#FFDE73"/>
<path d="M40.0532 50.1251C40.0532 51.7525 38.642 53.0768 36.9079 53.0768C35.1738 53.0768 33.7627 51.7525 33.7627 50.1251C33.7627 48.4976 35.1738 47.1734 36.9079 47.1734C38.642 47.1734 40.0532 48.4976 40.0532 50.1251Z" fill="#00ABD3"/>
<path d="M38.4218 50.1257C38.4218 50.9077 37.7417 51.5461 36.9086 51.5461C36.0756 51.5461 35.3955 50.9077 35.3955 50.1257C35.3955 49.3358 36.0756 48.6974 36.9086 48.6974C37.7417 48.6974 38.4218 49.3358 38.4218 50.1257Z" fill="#5AE8FF"/>
<path d="M39.6791 87.1563C39.6791 88.7837 38.268 90.108 36.5339 90.108C34.7998 90.108 33.3887 88.7917 33.3887 87.1563C33.3887 85.5288 34.7998 84.2046 36.5339 84.2046C38.2765 84.2046 39.6791 85.5288 39.6791 87.1563Z" fill="#00ABD3"/>
<path d="M38.0477 87.1566C38.0477 87.9386 37.3677 88.577 36.5346 88.577C35.7015 88.577 35.0215 87.9386 35.0215 87.1566C35.0215 86.3666 35.7015 85.7362 36.5346 85.7362C37.3762 85.7362 38.0477 86.3746 38.0477 87.1566Z" fill="#5AE8FF"/>
<path d="M43.1051 74.3765C42.6121 74.1771 42.0765 74.0734 41.5155 74.0734H29.9292C27.6765 74.0734 25.8574 75.7885 25.8574 77.8945C25.8574 80.0005 27.685 81.7156 29.9292 81.7156H41.5155C42.306 81.7156 43.0456 81.4923 43.6746 81.1253C43.4791 78.7401 43.2836 76.3868 43.1051 74.3765Z" fill="#FFB103"/>
<path d="M45.5873 75.9958C45.5873 78.1098 43.7596 79.8169 41.5155 79.8169H29.9292C27.6765 79.8169 25.8574 78.1018 25.8574 75.9958C25.8574 73.8818 27.685 72.1747 29.9292 72.1747H41.5155C43.7681 72.1747 45.5873 73.8898 45.5873 75.9958Z" fill="#FFDE73"/>
<g filter="url(#filter0_d_1460_7887)">
<path d="M50 80.0881C50 89.5299 42.1694 97.1761 32.5 97.1761C22.8306 97.1761 15 89.5299 15 80.0881C15 70.6462 22.8306 63 32.5 63C42.1694 63 50 70.6462 50 80.0881Z" fill="url(#paint0_linear_1460_7887)"/>
<path d="M32.5004 92.6422C39.601 92.6422 45.3572 87.0215 45.3572 80.0881C45.3572 73.1546 39.601 67.5339 32.5004 67.5339C25.3997 67.5339 19.6436 73.1546 19.6436 80.0881C19.6436 87.0215 25.3997 92.6422 32.5004 92.6422Z" fill="url(#paint1_linear_1460_7887)"/>
<path d="M32.5004 69.7185C39.2123 69.7185 44.6677 74.7612 45.2347 81.1804C45.9242 73.4145 39.6721 67.5488 32.5004 67.5488C25.3288 67.5488 19.0613 73.3995 19.7662 81.1804C20.3332 74.7612 25.7885 69.7185 32.5004 69.7185Z" fill="#D48031"/>
<path opacity="0.53" d="M34.538 79.9384L39.6562 73.2499L36.6833 71.0802L32.6378 76.3622L28.3471 71.0503L25.4355 73.2948L30.8143 79.9684V80.6417H27.5043V83.8289H30.8449C30.8449 94.4079 30.8449 79.7888 30.8449 90.6222H34.5533C34.5533 79.8337 34.5533 94.752 34.5533 83.8289H37.8939V80.6417H34.5533V79.9384H34.538Z" fill="#FFF297"/>
</g>
<defs>
<filter id="filter0_d_1460_7887" x="5" y="53" width="55" height="54.1761" filterUnits="userSpaceOnUse" color-interpolation-filters="sRGB">
<feFlood flood-opacity="0" result="BackgroundImageFix"/>
<feColorMatrix in="SourceAlpha" type="matrix" values="0 0 0 0 0 0 0 0 0 0 0 0 0 0 0 0 0 0 127 0" result="hardAlpha"/>
<feOffset/>
<feGaussianBlur stdDeviation="5"/>
<feComposite in2="hardAlpha" operator="out"/>
<feColorMatrix type="matrix" values="0 0 0 0 0 0 0 0 0 0 0 0 0 0 0 0 0 0 0.5 0"/>
<feBlend mode="normal" in2="BackgroundImageFix" result="effect1_dropShadow_1460_7887"/>
<feBlend mode="normal" in="SourceGraphic" in2="effect1_dropShadow_1460_7887" result="shape"/>
</filter>
<linearGradient id="paint0_linear_1460_7887" x1="32.5031" y1="76.9833" x2="32.5031" y2="98.044" gradientUnits="userSpaceOnUse">
<stop stop-color="#FFF297"/>
<stop offset="1" stop-color="#FAC823"/>
</linearGradient>
<linearGradient id="paint1_linear_1460_7887" x1="32.5036" y1="93.3435" x2="32.5036" y2="74.0708" gradientUnits="userSpaceOnUse">
<stop stop-color="#F6AA39"/>
<stop offset="1" stop-color="#FAC823"/>
</linearGradient>
</defs>
</svg>
