<svg width="80" height="108" viewBox="0 0 80 108" fill="none" xmlns="http://www.w3.org/2000/svg">
<path d="M26.4502 4.39377L41.1136 30.0391L44.2418 29.5204L45.2279 34.7548L54.6295 38.1699C52.8444 36.1512 51.8669 33.6297 51.8669 30.9327C51.8669 24.4296 57.5027 19.1394 64.4307 19.1394C71.3587 19.1394 76.9946 24.4296 76.9946 30.9327C76.9946 31.7147 76.3145 32.353 75.4815 32.353C74.6484 32.353 73.9683 31.7147 73.9683 30.9327C73.9683 26.0016 69.6926 21.98 64.4307 21.98C59.1689 21.98 54.8931 25.9936 54.8931 30.9327C54.8931 33.3026 55.8876 35.4889 57.6813 37.1007C58.8033 38.0981 60.1124 39.271 61.3535 40.6195L65.9523 42.2952L63.1301 42.7659C64.7367 44.9602 65.9353 47.5295 65.9353 50.4739V68.9219C67.0744 68.9698 67.9924 69.8475 67.9924 70.9247V73.5898C67.9924 74.6749 67.0829 75.5526 65.9353 75.6005V93.3783H62.9091V75.5925C62.2546 75.5686 61.6765 75.2654 61.3025 74.8026V77.1884C60.784 77.1884 57.4602 76.0075 53.9155 74.7627C53.5075 77.4357 52.9889 79.4146 52.9889 79.4146C52.9464 79.4146 52.9124 79.4146 52.8699 79.4146C50.5833 79.4146 48.7556 78.2975 47.8971 77.6592C47.9396 78.2018 47.9821 78.7523 48.0331 79.3029H48.2626V80.5796C48.6026 80.9785 48.8917 81.2418 48.8917 81.2418C48.7216 81.2339 48.5091 81.2019 48.2626 81.162V82.1914C48.6196 86.8273 48.9172 91.1201 49.0022 92.7559C54.604 93.2107 58.2083 93.9049 58.2083 94.6948C58.2083 96.0593 47.4381 97.1604 34.1602 97.1604C20.8823 97.1604 10.1121 96.0593 10.1121 94.6948C10.1121 93.8969 13.8013 93.1947 19.5137 92.7399C19.5307 92.5405 19.5562 92.3011 19.5817 92.0218H19.2077V87.9444H16.6745C15.4844 87.9444 14.5239 87.0427 14.5239 85.9257V83.2606C14.5239 83.1329 14.5409 83.0132 14.5664 82.8935C14.5409 82.7978 14.5239 82.6941 14.5239 82.5903C14.5239 82.4866 14.5409 82.3909 14.5579 82.2951L13.1978 81.6647C13.1978 80.9626 15.9434 74.7866 17.8731 70.422C17.5331 70.8529 17.1675 71.2359 16.7595 71.563L16.7085 69.273C16.7085 69.273 14.1923 73.6296 12.1522 73.6296C12.1522 73.6296 13.2148 71.0204 12.7812 69.1134C12.7812 69.1134 12.0757 71.0843 10.4521 71.9221C10.4521 71.9221 12.2882 68.0202 11.9482 60.4639C11.8207 57.6552 11.9227 53.897 12.2627 51.184L3.12458 52.7001L19.8622 38.9598L19.2757 39.0556L18.2896 33.8212L21.8003 33.2387L23.866 14.3918L15.9179 15.7083L2.54654 8.35148L17.9751 10.0351L26.4502 4.39377ZM61.311 69.281C61.566 69.0496 61.9145 68.9059 62.2971 68.9059C62.4076 68.9059 62.5181 68.9219 62.6201 68.9458C62.7136 68.9299 62.8156 68.9219 62.9176 68.9139V50.4659C62.9176 47.7849 61.532 45.3752 59.7979 43.3165L51.8159 44.6411C54.247 47.1944 55.7346 50.5617 55.7346 54.256C55.7346 57.2961 54.7316 60.1128 53.0229 62.4427L53.0314 62.4507C53.924 63.8471 54.298 65.826 54.3915 67.9484C57.7578 67.9883 60.818 68.0442 61.311 68.0442V69.281ZM26.4502 2C25.9231 2 25.4131 2.15161 24.9796 2.43886L17.3035 7.54557L2.84406 5.97366C2.74206 5.9577 2.64005 5.9577 2.54654 5.9577C1.45847 5.9577 0.480905 6.60402 0.132381 7.59345C-0.250144 8.67065 0.217387 9.84359 1.26296 10.4181L14.6344 17.775C15.0254 17.9904 15.4759 18.1021 15.9264 18.1021C16.071 18.1021 16.224 18.0861 16.3685 18.0622L20.9928 17.2962L19.4627 31.1881L17.8476 31.4594C16.462 31.6908 15.5354 32.9275 15.7819 34.2361L16.581 38.4811L1.44997 50.8888C0.591412 51.599 0.336395 52.756 0.829428 53.7214C1.25446 54.5593 2.16402 55.0779 3.12458 55.0779C3.26909 55.0779 3.4221 55.0699 3.56661 55.038L9.45751 54.0645C9.3385 56.195 9.313 58.5409 9.4065 60.5517C9.71253 67.35 8.13142 70.9247 8.11442 70.9646C7.68939 71.9061 7.94441 72.9993 8.75196 73.6855C9.03248 73.9169 9.347 74.0924 9.68702 74.1962C9.76353 74.4754 9.88254 74.7388 10.061 74.9861C10.5371 75.6324 11.3191 76.0234 12.1607 76.0234C12.3392 76.0234 12.5092 76.0154 12.6877 75.9915C10.8516 80.2604 10.6561 81.0264 10.6561 81.6727C10.6561 82.5504 11.1661 83.3484 11.9822 83.7633V85.9257C11.9822 88.3513 14.0818 90.3302 16.666 90.3382V90.5935C14.8554 90.785 13.3423 91.0005 12.1352 91.2478C10.6561 91.551 7.57038 92.1734 7.57038 94.6948C7.57038 97.6312 11.6082 98.2775 16.887 98.8201C21.5198 99.2909 27.6572 99.5542 34.1687 99.5542C40.6801 99.5542 46.8175 99.2909 51.4503 98.8201C56.7292 98.2775 60.767 97.6312 60.767 94.6948C60.767 94.6789 60.767 94.6709 60.767 94.6549C61.2175 95.3252 62.0165 95.7641 62.9176 95.7641H65.9438C67.3549 95.7641 68.494 94.6948 68.494 93.3703V77.2283C69.7351 76.4383 70.5511 75.0978 70.5511 73.5898V70.9247C70.5511 69.4086 69.7436 68.0761 68.494 67.2861V50.4659C68.494 48.4472 68.018 46.4364 67.0744 44.4496C67.8564 44.0905 68.409 43.3724 68.5025 42.5266C68.613 41.4573 67.95 40.452 66.8874 40.061L62.8666 38.6008C61.6425 37.3241 60.3929 36.207 59.4494 35.3692C58.1573 34.2202 57.4517 32.6483 57.4517 30.9407C57.4517 27.3261 60.5884 24.3818 64.4392 24.3818C68.29 24.3818 71.4267 27.3261 71.4267 30.9407C71.4267 33.0472 73.2543 34.7548 75.49 34.7548C77.7341 34.7548 79.5532 33.0392 79.5532 30.9407C79.5532 23.1211 72.7698 16.7536 64.4392 16.7536C56.1086 16.7536 49.3252 23.1211 49.3252 30.9407C49.3252 31.9142 49.4272 32.8717 49.6312 33.7893L47.4976 33.0153L46.7665 29.1055C46.6475 28.4831 46.2735 27.9246 45.7209 27.5575C45.2874 27.2703 44.7774 27.1266 44.2589 27.1266C44.1143 27.1266 43.9613 27.1426 43.8168 27.1665L42.5077 27.382L28.6943 3.26072C28.3458 2.6543 27.7422 2.22342 27.0282 2.06383C26.8412 2.02394 26.6457 2 26.4502 2ZM56.1852 46.3406L58.6843 45.9257C59.8234 47.5375 60.3759 49.0296 60.3759 50.4579V65.6265C60.1804 65.6265 59.9509 65.6185 59.7044 65.6185C58.9053 65.6025 57.8768 65.5946 56.7377 65.5786C56.5677 64.4535 56.3042 63.4641 55.9386 62.5864C57.4857 60.049 58.2933 57.1924 58.2933 54.2481C58.2933 51.4713 57.5537 48.7584 56.1852 46.3406ZM52.8869 81.8084H53.0484C54.2045 81.7924 55.2076 81.0424 55.4796 79.9811C55.4966 79.9333 55.6836 79.1912 55.9301 78.0182C58.4208 78.888 59.6364 79.2789 60.3759 79.4545V93.2745C59.3729 91.7266 56.4402 91.0563 51.4418 90.5696C51.3143 88.6147 51.1103 85.8139 50.8808 82.7659C51.0338 82.5903 51.1528 82.3988 51.2548 82.1914C51.3228 82.0318 51.3823 81.8722 51.4163 81.7046C51.8754 81.7685 52.3684 81.8084 52.8869 81.8084Z" fill="black"/>
<path d="M58.2173 94.6948C58.2173 96.0593 47.4471 97.1604 34.1692 97.1604C20.8913 97.1604 10.1211 96.0593 10.1211 94.6948C10.1211 93.3304 20.8913 92.2292 34.1692 92.2292C47.4471 92.2292 58.2173 93.3304 58.2173 94.6948Z" fill="#DDD8BF"/>
<path d="M14.5332 85.9256C14.5332 87.0427 15.4938 87.9443 16.6839 87.9443H19.5231C20.7046 87.9443 21.6737 87.0427 21.6737 85.9256V83.2606C21.6737 82.1436 20.7131 81.2419 19.5231 81.2419H16.6839C15.4938 81.2419 14.5332 82.1436 14.5332 83.2606V85.9256Z" fill="#C9A88B"/>
<path d="M14.5332 82.5904C14.5332 83.3325 15.1708 83.9309 15.9698 83.9309H17.2194C18.01 83.9309 18.656 83.3325 18.656 82.5904C18.656 81.8484 18.0185 81.2419 17.2194 81.2419H15.9698C15.1708 81.2419 14.5332 81.8484 14.5332 82.5904Z" fill="#F4D9BD"/>
<path d="M19.7185 66.1289C19.4125 67.1662 13.1985 80.6114 13.207 81.6647L21.3846 85.4548C21.3846 84.4016 23.5523 67.1662 23.8583 66.1289H19.7185Z" fill="#D33200"/>
<path d="M65.8512 68.9058C67.0413 68.9058 68.0018 69.8075 68.0018 70.9246V73.5898C68.0018 74.699 67.0413 75.6086 65.8512 75.6086H63.012C61.8219 75.6086 60.8613 74.7069 60.8613 73.5898V70.9246C60.8613 69.8154 61.8219 68.9058 63.012 68.9058H65.8512Z" fill="#C9A88B"/>
<path d="M62.2979 68.9058C63.0885 68.9058 63.7345 69.5042 63.7345 70.2543V71.4193C63.7345 72.1614 63.097 72.7678 62.2979 72.7678C61.5074 72.7678 60.8613 72.1694 60.8613 71.4193V70.2463C60.8613 69.5042 61.5074 68.9058 62.2979 68.9058Z" fill="#F4D9BD"/>
<path d="M44.7607 68.0361C45.8658 67.7489 60.1893 68.0361 61.3114 68.0361V77.1885C60.1893 77.1885 45.8743 71.6428 44.7607 71.9221V68.0361Z" fill="#D33200"/>
<path d="M49.037 93.3701C49.0455 91.7743 47.2773 68.3313 46.8693 66.927H22.8637C22.4472 68.3473 19.472 91.9339 19.4805 93.3701H49.037Z" fill="#F15A24"/>
<path d="M48.271 79.3027H20.3467V82.1914H48.271V79.3027Z" fill="#FFDE73"/>
<path d="M55.7434 54.2482C55.7434 62.2274 48.8494 68.7065 40.3403 68.7065H28.363C19.8539 68.7065 12.96 62.2354 12.96 54.2482C12.96 46.261 19.8539 39.7898 28.363 39.7898H40.3403C48.8494 39.7898 55.7434 46.261 55.7434 54.2482Z" fill="#F4D9BD"/>
<path d="M49.2232 61.2057H42.8818C38.7165 61.4371 34.4832 62.0994 33.6756 63.0888C33.6756 63.0888 18.9527 60.6711 18.5361 53.5696V64.0144C18.5361 64.0144 23.0074 75.0178 37.7899 79.3984L37.9089 77.3637C37.9089 77.3637 46.69 81.1539 48.9002 81.2336C48.9002 81.2336 46.3245 78.9197 47.3956 77.2281C47.3956 77.2281 49.7587 79.4543 53.0059 79.4064C53.0059 79.4064 56.1597 67.3338 53.04 62.4425C52.7169 61.9558 51.5693 61.3174 49.2232 61.2057Z" fill="#F2F1E7"/>
<path d="M29.5868 53.5779C28.2012 53.5779 27.0791 54.6311 27.0791 55.9316H32.0859C32.0774 54.6311 30.9639 53.5779 29.5868 53.5779Z" fill="#2A5B6A"/>
<path d="M50.745 53.5779C49.3594 53.5779 48.2373 54.6311 48.2373 55.9317H53.2357C53.2442 54.6311 52.1221 53.5779 50.745 53.5779Z" fill="#2A5B6A"/>
<path d="M34.5256 51.8302L24.6309 53.1228V50.5376L34.5256 47.6252V51.8302Z" fill="#F2F1E7"/>
<path d="M46.7412 51.8302L54.7318 53.1228V50.5296L46.7412 47.6252V51.8302Z" fill="#F2F1E7"/>
<path d="M32.6647 81.4651H19.2168V92.022H32.6647V81.4651Z" fill="#2B373D"/>
<path d="M27.2499 81.4651H19.2168V92.022H27.2499V81.4651Z" fill="#425059"/>
<path d="M27.2495 81.4651H25.7959V92.022H27.2495V81.4651Z" fill="#8192A4"/>
<path d="M32.6733 81.4651H31.2197V92.022H32.6733V81.4651Z" fill="#8192A4"/>
<path d="M19.2168 80.7792C19.2168 80.4042 19.8883 80.093 23.2121 80.093H29.2304L32.6647 81.4574H19.2168C19.2168 81.4653 19.2168 81.1622 19.2168 80.7792Z" fill="#425059"/>
<path d="M25.7959 80.7789C25.7959 80.4039 27.3345 80.0928 29.2386 80.0928C31.1343 80.0928 32.6729 80.396 32.6729 80.7789V81.4651H25.7959C25.7959 81.4651 25.7959 81.1619 25.7959 80.7789Z" fill="#8192A4"/>
<path d="M31.2197 82.0876H27.25V91.3994H31.2197V82.0876Z" fill="#EAE8D8"/>
<path d="M24.8099 86.3726L23.3818 87.5216L23.1523 90.0911L22.0387 88.2318L20.4746 88.6707L21.2142 86.3726L20.4746 84.0744L22.0387 84.5133L23.1523 82.6541L23.3818 85.2235L24.8099 86.3726Z" fill="#FFDE73"/>
<path d="M12.9601 48.1201C12.093 49.8277 11.77 56.227 11.957 60.4639C12.2971 68.0282 10.4609 71.9221 10.4609 71.9221C12.0845 71.0843 12.7901 69.1134 12.7901 69.1134C13.2321 71.0125 12.161 73.6296 12.161 73.6296C14.2012 73.6296 16.7173 69.273 16.7173 69.273L16.7683 71.563C22.8972 66.6319 21.5882 48.1201 21.5882 48.1201H12.9601Z" fill="#F2F1E7"/>
<path d="M65.9698 42.2951L3.125 52.6921L21.3078 37.7709L43.4433 34.1084L65.9698 42.2951Z" fill="#EB4900"/>
<path d="M26.4505 4.3938L17.9755 10.0271L2.54688 8.35151L15.9183 15.7004L23.8749 14.3838L21.3077 37.771L43.4432 34.1085L26.4505 4.3938Z" fill="#EB4900"/>
<path d="M44.2472 29.5183L18.2959 33.8149L19.2793 39.0483L45.2306 34.7517L44.2472 29.5183Z" fill="#FFDE73"/>
<path d="M64.431 19.1394C57.5031 19.1394 51.8672 24.4296 51.8672 30.9327C51.8672 34.0925 53.1933 37.0129 55.5989 39.1593C58.5146 41.7606 62.9179 45.6863 62.9179 50.4579V93.3623H65.9441V50.4659C65.9441 44.4735 60.9713 40.037 57.6901 37.1007C55.8879 35.4968 54.9019 33.3105 54.9019 30.9327C54.9019 26.0016 59.1777 21.98 64.4395 21.98C69.6928 21.98 73.9771 25.9936 73.9771 30.9327C73.9771 31.7147 74.6571 32.353 75.4902 32.353C76.3233 32.353 77.0033 31.7147 77.0033 30.9327C76.9948 24.4296 71.3589 19.1394 64.431 19.1394Z" fill="#B39471"/>
<g filter="url(#filter0_d_1460_7571)">
<path d="M51 80.0881C51 89.5299 43.1694 97.1761 33.5 97.1761C23.8306 97.1761 16 89.5299 16 80.0881C16 70.6462 23.8306 63 33.5 63C43.1694 63 51 70.6462 51 80.0881Z" fill="url(#paint0_linear_1460_7571)"/>
<path d="M33.5004 92.6422C40.601 92.6422 46.3572 87.0215 46.3572 80.0881C46.3572 73.1546 40.601 67.5339 33.5004 67.5339C26.3997 67.5339 20.6436 73.1546 20.6436 80.0881C20.6436 87.0215 26.3997 92.6422 33.5004 92.6422Z" fill="url(#paint1_linear_1460_7571)"/>
<path d="M33.5004 69.7185C40.2123 69.7185 45.6677 74.7612 46.2347 81.1804C46.9242 73.4145 40.6721 67.5488 33.5004 67.5488C26.3288 67.5488 20.0613 73.3995 20.7662 81.1804C21.3332 74.7612 26.7885 69.7185 33.5004 69.7185Z" fill="#D48031"/>
<path opacity="0.53" d="M35.538 79.9384L40.6562 73.2499L37.6833 71.0802L33.6378 76.3622L29.3471 71.0503L26.4355 73.2948L31.8143 79.9684V80.6417H28.5043V83.8289H31.8449C31.8449 94.4079 31.8449 79.7888 31.8449 90.6222H35.5533C35.5533 79.8337 35.5533 94.752 35.5533 83.8289H38.8939V80.6417H35.5533V79.9384H35.538Z" fill="#FFF297"/>
</g>
<defs>
<filter id="filter0_d_1460_7571" x="6" y="53" width="55" height="54.1761" filterUnits="userSpaceOnUse" color-interpolation-filters="sRGB">
<feFlood flood-opacity="0" result="BackgroundImageFix"/>
<feColorMatrix in="SourceAlpha" type="matrix" values="0 0 0 0 0 0 0 0 0 0 0 0 0 0 0 0 0 0 127 0" result="hardAlpha"/>
<feOffset/>
<feGaussianBlur stdDeviation="5"/>
<feComposite in2="hardAlpha" operator="out"/>
<feColorMatrix type="matrix" values="0 0 0 0 0 0 0 0 0 0 0 0 0 0 0 0 0 0 0.5 0"/>
<feBlend mode="normal" in2="BackgroundImageFix" result="effect1_dropShadow_1460_7571"/>
<feBlend mode="normal" in="SourceGraphic" in2="effect1_dropShadow_1460_7571" result="shape"/>
</filter>
<linearGradient id="paint0_linear_1460_7571" x1="33.5031" y1="76.9833" x2="33.5031" y2="98.044" gradientUnits="userSpaceOnUse">
<stop stop-color="#FFF297"/>
<stop offset="1" stop-color="#FAC823"/>
</linearGradient>
<linearGradient id="paint1_linear_1460_7571" x1="33.5036" y1="93.3435" x2="33.5036" y2="74.0708" gradientUnits="userSpaceOnUse">
<stop stop-color="#F6AA39"/>
<stop offset="1" stop-color="#FAC823"/>
</linearGradient>
</defs>
</svg>
