<svg width="80" height="108" viewBox="0 0 80 108" fill="none" xmlns="http://www.w3.org/2000/svg">
<path d="M43.5063 34.3037C46.6431 34.4788 49.7288 35.6726 52.1344 37.9168C53.3415 39.0469 54.2341 40.3441 54.8801 41.7209C56.4442 42.7953 57.7873 44.2039 59.0539 45.8672L59.0199 45.8434C61.009 48.2707 62.1991 51.2948 62.1991 54.5896C62.1991 59.7148 59.3344 64.2033 55.0246 66.7659C55.0246 66.7739 55.0246 66.7818 55.0246 66.7898C55.0246 67.8403 54.9821 68.8112 54.9141 69.7105C54.9226 69.7105 54.9311 69.7184 54.9396 69.7184H55.1351V69.7742C55.7812 69.9811 56.4017 70.3074 56.9203 70.7928C58.3144 72.098 58.6119 74.0319 57.8468 75.6235C58.1698 75.7509 58.4929 75.91 58.7989 76.101L59.0199 75.8941L59.836 76.6581L61.4001 78.1225L62.2161 78.8865L61.2896 79.7539C61.2896 79.7619 61.2896 79.7619 61.2896 79.7699C61.5616 79.555 61.8931 79.4436 62.2246 79.4436C62.5901 79.4436 62.9557 79.5709 63.2277 79.8335C63.3042 79.9051 63.3722 79.9927 63.4317 80.0723C63.5422 80.1439 63.6442 80.2155 63.7377 80.3031L65.7439 82.1812C66.5854 82.9691 66.5854 84.2424 65.7439 85.0224L63.7377 86.9005C63.3212 87.2905 62.7687 87.4895 62.2161 87.4895C61.6636 87.4895 61.111 87.2905 60.6945 86.9005L58.6884 85.0224C58.0594 84.4414 57.9063 83.5899 58.2039 82.8657C58.1189 82.8657 58.0423 82.8657 57.9573 82.8577L57.0563 83.7013L56.2402 82.9373L55.1777 81.9425L53.9791 80.8204C53.8431 81.5207 53.6645 82.1972 53.452 82.8577H53.622V84.7518V86.4947V86.6697V89.2164L52.2704 88.9458V89.9963H53.0865V92.9966C60.4225 93.4184 65.3868 94.2222 65.3868 95.1374C65.3868 96.4983 54.6251 97.5966 41.3387 97.5966C28.0608 97.5966 17.2906 96.4983 17.2906 95.1374C17.2906 94.262 21.7534 93.498 28.4773 93.0603V89.9884H29.1064V88.9697L27.9163 89.2085V86.4787V84.6085V82.8418H27.9248C27.6188 81.9027 27.3892 80.9159 27.2447 79.8972C27.1342 80.1041 27.0067 80.3031 26.8622 80.51L27.0577 80.693L23.853 83.6933L22.9519 82.8497C22.8669 82.8577 22.7904 82.8577 22.7054 82.8577C23.0029 83.5819 22.8499 84.4335 22.2209 85.0144L20.2148 86.8926C19.7982 87.2825 19.2457 87.4815 18.6931 87.4815C18.1406 87.4815 17.5966 87.2825 17.1715 86.8926L15.1569 85.0144C14.3238 84.2265 14.3153 82.9532 15.1569 82.1653L17.1631 80.2871C17.2566 80.1996 17.3586 80.12 17.4691 80.0564C17.5286 79.9688 17.5881 79.8892 17.6731 79.8176C17.9536 79.555 18.3191 79.4276 18.6762 79.4276C19.0077 79.4276 19.3392 79.5311 19.6112 79.746C19.6112 79.738 19.6112 79.738 19.6112 79.738L18.6846 78.8706L19.5092 78.0986L21.0648 76.6422L21.8809 75.8782L22.1019 76.0851C22.4164 75.8862 22.7309 75.735 23.0539 75.6076C22.2889 74.016 22.5864 72.09 23.9805 70.7769C24.8731 69.9413 26.0377 69.5274 27.2107 69.5274C27.6953 69.5274 28.1883 69.5991 28.6558 69.7423C28.7068 69.6229 28.7663 69.5036 28.8258 69.3842L27.0237 68.1268H29.4974C29.4974 68.1188 29.5059 68.1188 29.5059 68.1109C28.5623 67.7925 27.6698 67.3866 26.8197 66.9091C26.8197 67.5219 26.8197 67.896 26.8197 67.896L18.4296 73.2122C18.4296 73.2122 18.4296 70.6098 18.4296 67.323C17.0185 68.8032 15.7434 70.3153 14.6214 71.8433C14.7999 68.9226 16.0665 66.0576 18.4296 63.8213C18.4296 59.9615 18.4296 56.0619 18.4296 54.6135C18.4296 49.2814 21.3793 44.5939 25.8336 41.896C23.343 41.9756 20.9373 42.2223 18.6676 42.6123C21.0223 40.6545 24.108 39.4608 27.4998 39.4608C29.7014 39.4608 32.7446 39.4608 34.6232 39.4608H36.3233H47.2211C48.4027 39.4608 49.4908 39.5881 50.4938 39.8109C50.4173 39.7393 50.3493 39.6677 50.2728 39.5961C48.1222 37.5667 45.8185 35.7999 43.5063 34.3037ZM54.0301 80.5577L54.0556 80.5339C54.0471 80.5259 54.0471 80.5179 54.0386 80.51C54.0386 80.5259 54.0301 80.5418 54.0301 80.5577ZM34.3512 89.2244L34.1642 89.1846L33.8497 89.9963H34.5892L33.4842 92.8216C35.9493 92.734 38.6015 92.6863 41.3557 92.6863C43.6934 92.6863 45.9545 92.7181 48.0967 92.7818L47.0086 89.9963H47.5611L47.3146 89.3756C46.4391 89.877 45.4105 90.1794 44.3054 90.1794C43.0643 90.1794 41.9252 89.8133 40.9817 89.1926L40.7861 89.2323L37.5729 88.5798L34.3512 89.2244ZM43.4978 31.9162C42.4183 31.9162 41.4407 32.5609 41.0837 33.5238C40.7096 34.5345 41.1092 35.6567 42.0442 36.2695C42.4608 36.54 42.8688 36.8106 43.2768 37.0971H36.3489H34.6488H27.5253C23.649 37.0971 19.9087 38.4341 17.0015 40.8535C16.143 41.5618 15.905 42.7237 16.4065 43.6866C16.84 44.5143 17.7326 45.0237 18.6931 45.0237C18.7867 45.0237 18.8887 45.0157 18.9822 45.0077C17.0015 47.825 15.905 51.1516 15.905 54.6453V62.922C13.6438 65.3811 12.3007 68.469 12.0967 71.7399C12.0287 72.8063 12.7342 73.7852 13.8138 74.1353C14.0858 74.2229 14.3664 74.2627 14.6384 74.2627C15.1229 74.2627 15.5904 74.1353 15.9985 73.8966C16.1855 74.5173 16.636 75.0426 17.2565 75.353C17.6306 75.536 18.0386 75.6315 18.4551 75.6315C18.4976 75.6315 18.5316 75.6315 18.5742 75.6315L17.7156 76.4353L16.891 77.2073C16.7295 77.3585 16.602 77.5176 16.4915 77.6927C16.2705 77.828 16.0665 77.9872 15.8795 78.1623C15.7945 78.2418 15.718 78.3214 15.6499 78.401C15.5564 78.4726 15.4629 78.5522 15.3779 78.6318L13.3718 80.51C11.5441 82.221 11.5442 85.0144 13.3633 86.7255L15.3779 88.6116C16.262 89.4393 17.4436 89.9008 18.7017 89.9008C19.9597 89.9008 21.1413 89.4393 22.0254 88.6116L24.0315 86.7334C24.278 86.5026 24.4991 86.248 24.6776 85.9774C24.9241 85.8978 25.1536 85.7864 25.3661 85.6352V86.3912C25.3661 86.423 25.3661 86.4628 25.3661 86.5026V89.2323C25.3661 89.7815 25.5701 90.3067 25.9271 90.7206V90.8638C17.4181 91.5482 14.7404 92.6306 14.7404 95.1534C14.7404 98.082 18.7781 98.7267 24.057 99.2678C28.6898 99.7374 34.8273 100 41.3387 100C47.8502 100 53.9876 99.7374 58.6204 99.2678C63.8992 98.7267 67.937 98.082 67.937 95.1534C67.937 92.4794 64.5028 91.8984 62.4456 91.5482C60.686 91.2458 58.3568 90.9911 55.6367 90.7842V90.6967C55.9767 90.2828 56.1722 89.7656 56.1722 89.2323V86.6857V86.5106V85.9615C56.1977 85.9694 56.2147 85.9774 56.2402 85.9853C56.4272 86.2559 56.6397 86.5106 56.8863 86.7414L58.8924 88.6195C59.7765 89.4472 60.958 89.9088 62.2161 89.9088C63.4742 89.9088 64.6473 89.4552 65.5399 88.6195L67.5545 86.7334C68.4471 85.8978 68.9316 84.7916 68.9316 83.6137C68.9316 82.4359 68.4386 81.3376 67.5545 80.51L65.5569 78.6318C65.4718 78.5522 65.3783 78.4726 65.2848 78.401C65.2083 78.3135 65.1318 78.2339 65.0468 78.1623C64.8513 77.9792 64.6473 77.8201 64.4263 77.6848C64.3158 77.5097 64.1883 77.3505 64.0352 77.2073L63.2192 76.4433L61.6551 74.9789L60.8305 74.2149C60.822 74.207 60.8135 74.199 60.7965 74.1831C60.89 72.3288 60.1675 70.4665 58.7224 69.1136C58.3654 68.7794 57.9743 68.4849 57.5493 68.2302C57.5493 68.1666 57.5493 68.1029 57.5578 68.0472C62.0886 64.8798 64.7493 59.9456 64.7493 54.6135C64.7493 51.0163 63.5422 47.5862 61.2556 44.6814C61.2216 44.6257 61.179 44.5621 61.1365 44.5064C59.7764 42.7157 58.3994 41.3071 56.9373 40.2088C56.1637 38.7206 55.1606 37.3916 53.9451 36.2456C51.1994 33.675 47.5526 32.147 43.6679 31.9322C43.5999 31.9162 43.5488 31.9162 43.4978 31.9162Z" fill="black"/>
<path d="M65.3951 95.1456C65.3951 96.5065 54.6333 97.6047 41.3469 97.6047C28.069 97.6047 17.2988 96.5065 17.2988 95.1456C17.2988 93.7847 28.069 92.6865 41.3469 92.6865C54.6248 92.6865 65.3951 93.7847 65.3951 95.1456Z" fill="#DDD8BF"/>
<path d="M56.9116 70.7931C58.7137 72.4803 58.7137 75.21 56.9116 76.8972C55.1095 78.5844 52.1938 78.5844 50.3916 76.8972C48.5895 75.21 48.5895 72.4803 50.3916 70.7931C52.1938 69.106 55.1095 69.106 56.9116 70.7931Z" fill="#C9A88B"/>
<path d="M59.6914 76.7856C61.4936 78.4728 61.8506 80.8684 60.4905 82.1338C59.1389 83.3992 56.5802 83.065 54.7781 81.3857C52.976 79.6985 52.6189 77.3029 53.979 76.0375C55.3391 74.7641 57.8978 75.0984 59.6914 76.7856Z" fill="#C9A88B"/>
<path d="M59.0216 75.9089L53.8711 80.7323L57.0753 83.7312L62.2258 78.9079L59.0216 75.9089Z" fill="#4D6466"/>
<path d="M59.8343 76.6679L54.6816 81.4892L56.25 82.9583L61.4026 78.1371L59.8343 76.6679Z" fill="#364849"/>
<path d="M65.7433 82.1972C66.5848 82.9851 66.5848 84.2584 65.7433 85.0384L63.7371 86.9166C62.8956 87.7045 61.5355 87.6965 60.6939 86.9166L58.6878 85.0384C57.8463 84.2505 57.8463 82.9771 58.6878 82.1972L60.7024 80.319C61.5355 79.5311 62.8956 79.5311 63.7371 80.319L65.7433 82.1972Z" fill="#C9A88B"/>
<path d="M63.2274 79.8415C63.7885 80.3668 63.7885 81.2104 63.2274 81.7357L62.3433 82.5634C61.7823 83.0887 60.8727 83.0887 60.3202 82.5634C59.7592 82.0381 59.7592 81.1866 60.3202 80.6613L61.2043 79.8336C61.7653 79.3162 62.6664 79.3162 63.2274 79.8415Z" fill="#F4D9BD"/>
<path d="M24.0147 70.7932C22.2126 72.4803 22.2126 75.21 24.0147 76.8972C25.8168 78.5844 28.7325 78.5844 30.5262 76.8972C32.3283 75.21 32.3283 72.4803 30.5262 70.7932C28.7325 69.106 25.8083 69.106 24.0147 70.7932Z" fill="#C9A88B"/>
<path d="M21.2263 76.7856C19.4242 78.4729 19.0672 80.8684 20.4273 82.1338C21.7789 83.3993 24.3376 83.065 26.1397 81.3857C27.9418 79.6985 28.2988 77.3029 26.9387 76.0375C25.5871 74.7641 23.0285 75.0984 21.2263 76.7856Z" fill="#C9A88B"/>
<path d="M21.9283 75.8768L18.7236 78.8758L23.8741 83.6998L27.0787 80.7009L21.9283 75.8768Z" fill="#4D6466"/>
<path d="M21.093 76.6541L19.5244 78.123L24.6764 82.9449L26.245 81.476L21.093 76.6541Z" fill="#364849"/>
<path d="M15.1827 82.1892C14.3411 82.9771 14.3496 84.2504 15.1827 85.0383L17.1973 86.9165C18.0389 87.7044 19.399 87.7044 20.232 86.9165L22.2382 85.0383C23.0797 84.2504 23.0797 82.9771 22.2382 82.1972L20.2235 80.319C19.382 79.5311 18.0219 79.5311 17.1803 80.319L15.1827 82.1892Z" fill="#C9A88B"/>
<path d="M17.6991 79.8415C17.1381 80.3668 17.1381 81.2104 17.6991 81.7357L18.5832 82.5634C19.1442 83.0887 20.0538 83.0887 20.6063 82.5634C21.1674 82.0381 21.1674 81.1866 20.6063 80.6613L19.7222 79.8336C19.1612 79.3162 18.2516 79.3162 17.6991 79.8415Z" fill="#F4D9BD"/>
<path d="M32.3369 93.8246H29.1152V85.5874H35.5671L32.3369 93.8246Z" fill="#F4D9BD"/>
<path d="M28.4863 89.9967V93.8246H33.0851L34.5812 89.9967H28.4863Z" fill="#AD713B"/>
<path d="M49.0495 93.8246H52.2798V85.5874H45.8193L49.0495 93.8246Z" fill="#F4D9BD"/>
<path d="M53.0956 89.9967V93.8246H48.4968L46.9922 89.9967H53.0956Z" fill="#AD713B"/>
<path d="M29.5741 68.0792C28.0015 70.6816 27.0664 73.849 27.0664 77.2871C27.0664 80.7171 28.0015 83.8925 29.5741 86.4949C32.7193 87.8001 36.5531 88.572 40.7013 88.572C44.8496 88.572 48.6834 87.8001 51.8286 86.4949C53.4012 83.8925 54.3362 80.7251 54.3362 77.2871C54.3362 73.857 53.4012 70.6816 51.8201 68.0792C48.6749 66.7741 44.8411 66.0021 40.7013 66.0021C36.5446 66.0021 32.7108 66.7741 29.5741 68.0792Z" fill="#F4D9BD"/>
<path d="M53.6219 86.6778L27.0576 68.1508H29.8373L53.6219 84.7599V86.6778Z" fill="#AD713B"/>
<path d="M27.9248 86.5424L54.4891 68.0234H51.7094L27.9248 84.6324V86.5424Z" fill="#AD713B"/>
<path d="M62.1828 54.5975C62.1828 62.5559 55.2888 69.0181 46.7798 69.0181H34.8025C26.2934 69.0181 19.3994 62.5638 19.3994 54.5975C19.3994 46.6311 26.2934 40.1768 34.8025 40.1768H46.7798C55.2888 40.1768 62.1828 46.639 62.1828 54.5975Z" fill="#F4D9BD"/>
<path d="M34.8785 43.0899L39.8088 45.8754L41.3049 43.0899L46.2352 45.8754L47.7313 43.0899L52.6617 45.8754L54.1578 43.0899L59.0456 45.8754C56.1129 42.0156 52.7127 39.4848 47.2553 39.4848H34.6574C25.7148 39.4848 18.4639 46.2733 18.4639 54.6455C18.4639 57.8607 18.4639 73.2443 18.4639 73.2443L26.8539 67.9281C26.8539 67.9281 26.8539 58.195 26.8539 55.513C26.8539 51.3826 29.6336 47.8729 33.5354 46.5041L34.8785 43.0899Z" fill="#D3D3D3"/>
<path d="M52.5424 41.8721H54.098C54.472 41.8721 54.7865 41.9676 55.05 42.1109C54.404 40.5829 53.4349 39.1584 52.1173 37.917C49.7202 35.6728 46.6345 34.4711 43.4893 34.304C45.8099 35.8001 48.1051 37.5668 50.2982 39.62C51.0973 40.3601 51.8368 41.1082 52.5424 41.8721Z" fill="#D3D3D3"/>
<path d="M38.5168 51.2235H33.5186V62.8663H38.5168V51.2235Z" fill="#EB4900"/>
<path d="M45.8185 62.9618C48.7597 62.9618 51.5819 63.2165 54.217 63.6701C51.9814 61.8079 49.0487 60.6699 45.8185 60.6699C42.5968 60.6699 39.6556 61.8079 37.4199 63.6701C40.0551 63.2244 42.8773 62.9618 45.8185 62.9618Z" fill="#D3D3D3"/>
<path d="M20.334 65.4926C22.5271 63.4393 24.8223 61.6725 27.1429 60.1763C24.0062 60.3514 20.9205 61.5452 18.5233 63.7895C16.1177 66.0338 14.8426 68.9227 14.6641 71.8673C16.2537 69.6947 18.1408 67.5459 20.334 65.4926Z" fill="#D3D3D3"/>
<path d="M27.5342 41.8881C30.637 41.8881 36.3578 39.4848 36.3578 39.4848C36.3578 39.4848 30.926 39.4848 27.5342 39.4848C24.1425 39.4848 21.0568 40.6785 18.7021 42.6362C21.4733 42.1587 24.44 41.8881 27.5342 41.8881Z" fill="#D3D3D3"/>
<path d="M54.9996 66.0419C52.696 63.7658 49.4402 62.3333 45.819 62.3333C42.1978 62.3333 38.942 63.7578 36.6384 66.0419C36.6384 66.2965 36.6299 66.5353 36.6299 66.7899C36.6299 72.9178 37.9815 76.6344 37.9815 76.6344H40.5147C40.5147 76.6344 40.3446 71.9708 40.3446 69.1297C40.3446 69.1297 44.4334 70.0369 45.819 70.0369C47.2046 70.0369 51.2934 69.1297 51.2934 69.1297C51.2934 71.9708 51.1234 76.6344 51.1234 76.6344H53.6565C53.6565 76.6344 55.0081 72.9178 55.0081 66.7899C55.0166 66.5432 54.9996 66.2965 54.9996 66.0419Z" fill="#D3D3D3"/>
<path d="M41.7214 69.7184H36.0176V73.9604H41.7214V69.7184Z" fill="#8BA1A5"/>
<path d="M55.1267 69.7184H49.4229V73.9604H55.1267V69.7184Z" fill="#8BA1A5"/>
<path d="M41.7214 70.801H36.0176V72.8781H41.7214V70.801Z" fill="#6B7F82"/>
<path d="M55.1267 70.801H49.4229V72.8781H55.1267V70.801Z" fill="#6B7F82"/>
<path d="M36.0262 53.9293C34.6406 53.9293 33.5186 54.9797 33.5186 56.2769H38.5168C38.5168 54.9797 37.4033 53.9293 36.0262 53.9293Z" fill="#2A5B6A"/>
<path d="M45.6918 67.1799C47.0774 67.1799 48.1995 66.1294 48.1995 64.8323H43.2012C43.2012 66.1215 44.3147 67.1799 45.6918 67.1799Z" fill="#F2F1E7"/>
<path d="M57.1844 53.9293C55.7988 53.9293 54.6768 54.9797 54.6768 56.2769H59.6836C59.6836 54.9797 58.5615 53.9293 57.1844 53.9293Z" fill="#2A5B6A"/>
<path d="M40.9734 52.1864L31.0703 53.4757V50.9051L40.9734 47.9922V52.1864Z" fill="#D3D3D3"/>
<path d="M53.1885 52.1864L61.179 53.4757V50.8971L53.1885 48.0003V52.1864Z" fill="#D3D3D3"/>
<path d="M27.9248 86.4949V89.2244L31.138 88.5718L34.3512 89.2244L37.5645 88.5718L40.7777 89.2244L43.9909 88.5718L47.2041 89.2244L50.4088 88.5718L53.6221 89.2244V86.4949H27.9248Z" fill="#FF9B00"/>
<path d="M53.6221 82.8658H27.9248V86.6778H53.6221V82.8658Z" fill="#AD713B"/>
<path d="M50.0604 84.7679C50.0604 87.7523 47.4763 90.1716 44.2885 90.1716C41.1008 90.1716 38.5166 87.7523 38.5166 84.7679C38.5166 81.7836 41.1008 79.3642 44.2885 79.3642C47.4763 79.3642 50.0604 81.7836 50.0604 84.7679Z" fill="#8BA1A5"/>
<path d="M48.3353 84.7679C48.3353 86.861 46.5247 88.5482 44.2975 88.5482C42.0704 88.5482 40.2598 86.853 40.2598 84.7679C40.2598 82.6828 42.0704 80.9877 44.2975 80.9877C46.5247 80.9877 48.3353 82.6828 48.3353 84.7679Z" fill="#6B7F82"/>
<g filter="url(#filter0_d_1460_7826)">
<path d="M58 80.0881C58 89.5299 50.1694 97.1761 40.5 97.1761C30.8306 97.1761 23 89.5299 23 80.0881C23 70.6462 30.8306 63 40.5 63C50.1694 63 58 70.6462 58 80.0881Z" fill="url(#paint0_linear_1460_7826)"/>
<path d="M40.5004 92.6422C47.601 92.6422 53.3572 87.0215 53.3572 80.0881C53.3572 73.1546 47.601 67.5339 40.5004 67.5339C33.3997 67.5339 27.6436 73.1546 27.6436 80.0881C27.6436 87.0215 33.3997 92.6422 40.5004 92.6422Z" fill="url(#paint1_linear_1460_7826)"/>
<path d="M40.5004 69.7185C47.2123 69.7185 52.6677 74.7612 53.2347 81.1804C53.9242 73.4145 47.6721 67.5488 40.5004 67.5488C33.3288 67.5488 27.0613 73.3995 27.7662 81.1804C28.3332 74.7612 33.7885 69.7185 40.5004 69.7185Z" fill="#D48031"/>
<path opacity="0.53" d="M42.538 79.9384L47.6562 73.2499L44.6833 71.0802L40.6378 76.3622L36.3471 71.0503L33.4355 73.2948L38.8143 79.9684V80.6417H35.5043V83.8289H38.8449C38.8449 94.4079 38.8449 79.7888 38.8449 90.6222H42.5533C42.5533 79.8337 42.5533 94.752 42.5533 83.8289H45.8939V80.6417H42.5533V79.9384H42.538Z" fill="#FFF297"/>
</g>
<defs>
<filter id="filter0_d_1460_7826" x="13" y="53" width="55" height="54.1761" filterUnits="userSpaceOnUse" color-interpolation-filters="sRGB">
<feFlood flood-opacity="0" result="BackgroundImageFix"/>
<feColorMatrix in="SourceAlpha" type="matrix" values="0 0 0 0 0 0 0 0 0 0 0 0 0 0 0 0 0 0 127 0" result="hardAlpha"/>
<feOffset/>
<feGaussianBlur stdDeviation="5"/>
<feComposite in2="hardAlpha" operator="out"/>
<feColorMatrix type="matrix" values="0 0 0 0 0 0 0 0 0 0 0 0 0 0 0 0 0 0 0.5 0"/>
<feBlend mode="normal" in2="BackgroundImageFix" result="effect1_dropShadow_1460_7826"/>
<feBlend mode="normal" in="SourceGraphic" in2="effect1_dropShadow_1460_7826" result="shape"/>
</filter>
<linearGradient id="paint0_linear_1460_7826" x1="40.5031" y1="76.9833" x2="40.5031" y2="98.044" gradientUnits="userSpaceOnUse">
<stop stop-color="#FFF297"/>
<stop offset="1" stop-color="#FAC823"/>
</linearGradient>
<linearGradient id="paint1_linear_1460_7826" x1="40.5036" y1="93.3435" x2="40.5036" y2="74.0708" gradientUnits="userSpaceOnUse">
<stop stop-color="#F6AA39"/>
<stop offset="1" stop-color="#FAC823"/>
</linearGradient>
</defs>
</svg>
