<svg width="80" height="108" viewBox="0 0 80 108" fill="none" xmlns="http://www.w3.org/2000/svg">
<path d="M40.8867 37.3584C53.3911 37.3584 58.8059 40.7862 61.0841 45.9519C63.1242 48.4231 64.3483 51.5161 64.3483 54.8802H62.4187C62.4442 55.199 62.4697 55.5179 62.4697 55.8448C62.4697 56.4506 62.4187 57.0405 62.3422 57.6224C62.4357 58.0131 62.4952 58.4196 62.4952 58.8341C62.4952 60.4604 61.7216 61.9192 60.4976 62.9077C59.129 65.1876 57.1228 67.0769 54.7087 68.3763L55.7457 68.727C56.4173 68.9582 56.8253 69.5481 56.8253 70.1858C57.4714 70.8076 57.7349 71.7483 57.3863 72.6172L56.9528 73.7412C56.8168 74.092 56.5958 74.3869 56.3323 74.6261C56.7573 75.216 57.1313 75.7979 57.4544 76.3639H57.4714C57.5564 76.34 57.6414 76.332 57.7179 76.332C58.1684 76.332 58.5764 76.619 58.6954 77.0495L58.8825 77.7271H59.0355V78.2851L59.197 78.8989H60.7271V79.3134H62.6142V77.7271H63.8043V78.6199H64.6968V77.7271H66.482V80.3577V84.7182V87.3489H64.6968V86.4561H63.8043V87.3489H62.6142V85.7625H61.1776L61.2286 86.0256C61.4326 87.1257 60.6506 88.17 59.486 88.3613L56.6893 88.8237C56.5618 88.8476 56.4428 88.8556 56.3153 88.8556C55.3462 88.8556 54.4962 88.2338 54.2411 87.3409H52.5665V92.8015V93.0327C59.4775 93.4632 64.0933 94.2444 64.0933 95.1373C64.0933 96.4924 53.3231 97.6005 40.0452 97.6005C26.7673 97.6005 15.997 96.5004 15.997 95.1373C15.997 94.1647 21.4629 93.3277 29.4025 92.9291V92.8015V88.9193C28.1529 88.6961 27.1583 88.0823 26.7503 87.2851C26.7503 87.2772 26.7418 87.2772 26.7418 87.2692C26.6228 87.0221 26.5378 86.767 26.5378 86.4959V83.9689C26.5378 82.9007 27.0223 81.9361 27.8129 81.2107C26.5548 80.1026 25.6282 78.9069 26.0702 77.9822C26.5378 77.0096 27.1583 75.9414 27.9404 74.8413C27.8639 74.7217 27.7958 74.5942 27.7448 74.4587L27.3028 73.3347C27.0053 72.5614 27.1668 71.7403 27.6513 71.1345C27.5493 71.1903 27.4388 71.2301 27.3368 71.2381C26.5378 71.278 25.7727 71.2939 25.0587 71.2939C3.6457 71.2939 18.6492 54.2664 18.6492 54.2664C18.6407 44.78 19.0828 37.3584 40.8867 37.3584ZM28.7139 69.5481C28.7904 69.5082 28.8669 69.4684 28.9519 69.4445L29.4535 69.2771C29.2664 69.2053 29.0794 69.1415 28.8924 69.0618C28.8414 69.2372 28.7819 69.3966 28.7139 69.5481ZM48.7838 70.1938C48.6988 70.2018 48.6223 70.2098 48.5373 70.2177C48.5713 70.2895 48.6053 70.3532 48.6393 70.425C48.6563 70.425 48.6733 70.433 48.6903 70.433L48.7838 70.1938ZM31.4511 78.038C31.6551 77.8307 31.9271 77.7191 32.2076 77.7191C32.4202 77.7191 32.6242 77.7829 32.8027 77.9104L33.6102 78.4844C33.7717 78.3887 33.9588 78.3329 34.1543 78.3329C34.2223 78.3329 34.2903 78.3409 34.3583 78.3489C34.4348 78.1894 34.4943 78.038 34.4943 77.8706C34.4943 77.0734 34.1968 76.348 33.7037 75.766C33.5252 75.5588 33.3552 75.3276 33.1937 75.0805L32.1821 75.4232C31.9526 76.0849 31.7146 76.8263 31.4766 77.6633C31.4341 77.8068 31.4341 77.9264 31.4511 78.038ZM50.3139 77.7191H52.6345C52.66 77.6872 52.694 77.6553 52.7195 77.6314C52.5495 77.0814 52.371 76.5552 52.201 76.061C51.776 76.7864 51.1214 77.3763 50.3139 77.7191ZM48.9793 79.2257L49.1068 79.162V78.022C48.9538 78.038 48.8008 78.0699 48.6393 78.0699H48.2652V78.4047C48.5288 78.5003 48.7498 78.6837 48.8603 78.9467L48.9793 79.2257ZM42.6379 89.868C42.0513 89.868 41.4988 89.868 40.9972 89.868C39.7561 89.868 38.2431 89.9317 36.713 89.9317C36.0329 89.9317 35.3529 89.9158 34.6898 89.8839L33.5592 92.7697C35.6249 92.7139 37.801 92.682 40.0452 92.682C42.9949 92.682 45.8256 92.7378 48.4352 92.8334L48.4268 92.8095L47.2197 89.7165C45.7066 89.852 44.083 89.868 42.6379 89.868ZM40.8867 34.9669C30.533 34.9669 23.9621 36.609 20.2218 40.1246C16.3201 43.7915 16.1076 48.8456 16.0991 53.4453C14.2034 55.7889 9.05207 62.9316 11.7808 68.3683C13.5319 71.8519 17.8927 73.6376 24.7526 73.6854C24.7951 73.8449 24.8461 73.9963 24.9056 74.1478L25.0842 74.6022C24.5741 75.4073 24.1236 76.2124 23.7411 77.0096C23.0865 78.3887 23.367 79.8635 24.5826 81.4259C24.1916 82.2231 23.9876 83.084 23.9876 83.9769V86.5039C23.9876 87.0938 24.1321 87.6837 24.4211 88.2736C24.4296 88.2975 24.4466 88.3135 24.4551 88.3374C24.9312 89.2781 25.7812 90.0593 26.8523 90.6014V90.689C23.8346 90.8883 21.2504 91.1514 19.2868 91.4703C17.1021 91.821 13.4469 92.4109 13.4469 95.1452C13.4469 98.0788 17.4847 98.7245 22.7635 99.2666C27.3963 99.7369 33.5337 100 40.0452 100C46.5566 100 52.694 99.7369 57.3269 99.2666C62.6057 98.7245 66.6435 98.0788 66.6435 95.1452C66.6435 92.6979 63.7958 91.6775 57.8879 91.0637L59.928 90.7209C60.7951 90.5774 61.5686 90.2187 62.1892 89.7085C62.3252 89.7324 62.4697 89.7404 62.6142 89.7404H63.8043C63.9573 89.7404 64.1103 89.7245 64.2548 89.7006C64.3993 89.7245 64.5523 89.7404 64.7054 89.7404H66.4905C67.9016 89.7404 69.0406 88.6722 69.0406 87.3489V84.7182V80.3577V77.7271C69.0406 76.4038 67.9016 75.3356 66.4905 75.3356H64.7054C64.5523 75.3356 64.3993 75.3515 64.2548 75.3754C64.1103 75.3515 63.9573 75.3356 63.8043 75.3356H62.6142C61.9852 75.3356 61.4071 75.5508 60.9651 75.9016C60.6421 75.2399 60.1065 74.6978 59.4435 74.355L59.8005 73.4383C60.3531 72.0273 60.132 70.4489 59.2565 69.2053C59.1885 68.9422 59.0865 68.6951 58.959 68.456C60.3615 67.2921 61.5601 65.9369 62.5207 64.4223C64.1358 62.9635 65.0539 60.9466 65.0539 58.8341C65.0539 58.4037 65.0114 57.9652 64.9349 57.5188C64.9434 57.4072 64.9604 57.3036 64.9689 57.1999C66.0824 56.9448 66.907 56.0042 66.907 54.8802C66.907 51.1972 65.6659 47.6977 63.3112 44.7402C60.2 38.0679 53.0681 34.9669 40.8867 34.9669Z" fill="black"/>
<path d="M64.1022 95.1374C64.1022 96.5005 53.3319 97.6006 40.054 97.6006C26.7761 97.6006 16.0059 96.5005 16.0059 95.1374C16.0059 93.7742 26.7761 92.6741 40.054 92.6741C53.3319 92.6741 64.1022 93.7742 64.1022 95.1374Z" fill="#DDD8BF"/>
<path d="M54.9562 72.8804C58.7135 77.1213 59.5635 81.3383 59.6995 82.3826C60.2351 86.5917 54.7352 86.0815 54.4037 84.3835C52.6185 75.1045 49.8133 70.5527 49.3203 69.5722C49.3203 69.5722 51.7005 69.2055 54.9562 72.8804Z" fill="#C9A88B"/>
<path d="M61.2292 86.0258C61.4333 87.1259 60.6512 88.1702 59.4866 88.3616L56.6899 88.8239C55.5168 89.0153 54.4032 88.2818 54.1992 87.1897L53.7062 84.5669C53.5022 83.4668 54.2842 82.4225 55.4488 82.2312L58.2455 81.7688C59.4186 81.5775 60.5322 82.3029 60.7362 83.403L61.2292 86.0258Z" fill="#C9A88B"/>
<path d="M60.6174 82.7414C60.7535 83.4748 60.2349 84.1683 59.4529 84.2959L58.2203 84.5031C57.4382 84.6307 56.6987 84.1444 56.5627 83.411C56.4267 82.6776 56.9452 81.9841 57.7273 81.8485L58.9598 81.6493C59.7334 81.5217 60.4729 82.008 60.6174 82.7414Z" fill="#F4D9BD"/>
<path d="M54.5984 82.6935L58.9082 81.6732C59.4522 81.5456 59.7753 81.0275 59.6392 80.5253L58.7042 77.0417C58.5682 76.5316 58.0156 76.2286 57.4801 76.3562L53.1703 77.3765C52.6263 77.5041 52.3032 78.0222 52.4393 78.5244L53.3828 82.008C53.5103 82.5182 54.0543 82.8291 54.5984 82.6935Z" fill="#D33605"/>
<path d="M56.9618 73.7414C56.4943 74.9611 55.0577 75.5829 53.7571 75.1445L50.0169 73.869C48.7163 73.4305 48.0532 72.0832 48.5208 70.8635L48.9543 69.7395C49.4218 68.5277 50.8584 67.898 52.159 68.3444L55.8993 69.6199C57.1998 70.0663 57.8629 71.4136 57.3954 72.6253L56.9618 73.7414Z" fill="#D33605"/>
<path d="M56.4522 71.4456C56.1377 72.2507 55.1941 72.6652 54.3355 72.3702L51.8618 71.5253C51.0033 71.2303 50.5613 70.3455 50.8758 69.5404L51.1648 68.7991C51.4708 68.002 52.4229 67.5875 53.2729 67.8744L55.7466 68.7194C56.6052 69.0143 57.0472 69.8991 56.7327 70.7042L56.4522 71.4456Z" fill="#EB4900"/>
<path d="M32.6328 95.1374H29.4111V87.3327L35.863 86.8783L32.6328 95.1374Z" fill="#0C3841"/>
<path d="M49.3454 95.1373H52.5757V86.8783H46.1152L49.3454 95.1373Z" fill="#0C3841"/>
<path d="M48.044 77.8786C48.044 77.1691 48.282 76.5075 48.6901 75.9654C49.3786 75.0407 49.9481 73.5021 49.3361 72.0035C48.8431 70.8236 48.401 69.883 48.078 69.3489C44.9328 68.0415 45.1453 67.2682 40.997 67.2682C36.8488 67.2682 37.0528 68.0415 33.9076 69.3489C33.5931 69.867 33.168 70.7838 32.7005 71.9397C32.1055 73.3985 32.8705 74.8095 33.7036 75.7821C34.1966 76.356 34.4941 77.0894 34.4941 77.8866C34.4941 79.752 29.1473 80.7006 29.4108 87.3411C29.5468 90.5616 36.8403 89.8761 40.997 89.8761C45.1453 89.8761 52.5748 90.1073 52.5748 86.8867C52.5748 82.8211 48.044 79.744 48.044 77.8786Z" fill="#EB4900"/>
<path d="M48.6396 80.2142C48.8436 80.2142 49.0391 80.1824 49.2431 80.1584C48.5716 79.2736 48.0445 78.5003 48.0445 77.8785C48.0445 77.169 48.2826 76.5073 48.6906 75.9652C49.2771 75.176 49.7362 73.9404 49.4811 72.6569C49.2091 72.6011 48.9286 72.5772 48.6396 72.5772H39.0679C36.8152 72.5772 34.9961 74.2911 34.9961 76.3957C34.9961 78.5083 36.8152 80.2142 39.0679 80.2142H48.6396Z" fill="#D33605"/>
<path d="M62.4785 55.845C62.4785 63.8166 55.5845 70.2896 47.0754 70.2896H35.0896C26.5805 70.2896 19.6865 63.8246 19.6865 55.845C19.6865 47.8654 26.5805 41.4005 35.0896 41.4005H47.0754C55.5845 41.4005 62.4785 47.8654 62.4785 55.845Z" fill="#F4D9BD"/>
<path d="M59.5375 62.7801C59.5375 64.207 58.1264 65.3628 56.3923 65.3628C54.6582 65.3628 53.2471 64.207 53.2471 62.7801C53.2471 61.3532 54.6582 60.1973 56.3923 60.1973C58.1264 60.1973 59.5375 61.3532 59.5375 62.7801Z" fill="#FFAC83"/>
<path d="M38.9318 62.7801C38.9318 64.207 37.5207 65.3628 35.7866 65.3628C34.0524 65.3628 32.6328 64.207 32.6328 62.7801C32.6328 61.3532 34.0439 60.1973 35.7866 60.1973C37.5207 60.1973 38.9318 61.3532 38.9318 62.7801Z" fill="#FFAC83"/>
<path d="M35.4725 57.0645C34.0869 57.0645 32.9648 58.1167 32.9648 59.4161H37.9632C37.9632 58.1167 36.8496 57.0645 35.4725 57.0645Z" fill="#2A5B6A"/>
<path d="M45.2485 67.2605C46.6341 67.2605 47.7562 66.2081 47.7562 64.9087H42.7578C42.7578 66.2081 43.8714 67.2605 45.2485 67.2605Z" fill="#EB4900"/>
<path d="M56.6307 57.0645C55.2451 57.0645 54.123 58.1167 54.123 59.4161H59.1214C59.1299 58.1167 58.0078 57.0645 56.6307 57.0645Z" fill="#2A5B6A"/>
<path d="M34.7584 58.8342C34.7584 59.1611 34.4779 59.4241 34.1293 59.4241H31.1456C30.7971 59.4241 30.5166 59.1611 30.5166 58.8342C30.5166 58.5074 30.7971 58.2443 31.1456 58.2443H34.1293C34.4779 58.2443 34.7584 58.5074 34.7584 58.8342Z" fill="#2A5B6A"/>
<path d="M61.7222 58.8342C61.7222 59.1611 61.4417 59.4241 61.0932 59.4241H58.1095C57.761 59.4241 57.4805 59.1611 57.4805 58.8342C57.4805 58.5074 57.761 58.2443 58.1095 58.2443H61.0932C61.4417 58.2443 61.7222 58.5074 61.7222 58.8342Z" fill="#2A5B6A"/>
<path d="M52.7113 74.2435C52.7113 76.356 50.8837 78.062 48.6395 78.062H39.0679C36.8152 78.062 34.9961 76.348 34.9961 74.2435C34.9961 72.1389 36.8152 70.4249 39.0679 70.4249H48.6395C50.8837 70.4249 52.7113 72.1389 52.7113 74.2435Z" fill="#EB4900"/>
<path d="M29.4111 92.8017V95.1374H32.6328L33.5509 92.8017H29.4111Z" fill="#EB4900"/>
<path d="M48.4355 92.8017L49.3451 95.1374H52.5753V92.8017H48.4355Z" fill="#EB4900"/>
<path d="M40.9885 84.4076C36.6192 84.4076 32.7514 83.6263 30.6518 82.3189L29.7422 81.7529L30.4052 80.9477C30.9578 80.2701 31.5443 79.744 31.9353 79.4012L32.4709 78.9388L33.1084 79.2656C33.7205 79.5845 36.1006 80.6129 40.9885 80.6129C45.7573 80.6129 48.1545 79.6164 48.775 79.3135L49.557 78.9308L51.8692 82L50.9171 82.5182C48.724 83.706 45.0092 84.4076 40.9885 84.4076Z" fill="#AD713B"/>
<path d="M42.026 80.1188C42.026 80.6609 41.5585 81.0914 40.9889 81.0914C40.4109 81.0914 39.9434 80.6529 39.9434 80.1188C39.9434 79.5846 40.4109 79.1462 40.9889 79.1462C41.5585 79.1462 42.026 79.5846 42.026 80.1188Z" fill="#FFB103"/>
<path d="M42.026 80.1186H39.9434V85.0771H42.026V80.1186Z" fill="#8192A4"/>
<path d="M42.2637 84.3997H39.7051V85.0777H42.2637V84.3997Z" fill="#6B7F82"/>
<path d="M38.4471 80.079C38.3536 80.6132 37.8181 80.972 37.2486 80.8843C36.679 80.7966 36.2965 80.2942 36.39 79.76C36.4835 79.2258 37.0191 78.867 37.5886 78.9547C38.1581 79.0424 38.5491 79.5448 38.4471 80.079Z" fill="#FFB103"/>
<path d="M36.412 79.7434L35.5449 84.6347L37.5994 84.955L38.4666 80.0637L36.412 79.7434Z" fill="#8192A4"/>
<path d="M35.4094 83.9221L35.2891 84.5988L37.813 84.9932L37.9333 84.3165L35.4094 83.9221Z" fill="#6B7F82"/>
<path d="M35.1236 79.6645C34.9025 80.1668 34.3075 80.4059 33.772 80.1986C33.2364 79.9993 32.9814 79.4253 33.1939 78.9311C33.4065 78.4288 34.0185 78.1896 34.554 78.3969C35.0811 78.5962 35.3361 79.1623 35.1236 79.6645Z" fill="#FFB103"/>
<path d="M33.1865 78.919L31.2021 83.5152L33.1325 84.2482L35.1169 79.6521L33.1865 78.919Z" fill="#8192A4"/>
<path d="M33.3551 84.3437L30.9834 83.4349L31.2554 82.8051L33.6271 83.7059L33.3551 84.3437Z" fill="#6B7F82"/>
<path d="M43.599 80.0868C43.6925 80.6208 44.2281 80.9795 44.7976 80.8918C45.3671 80.8042 45.7497 80.302 45.6562 79.768C45.5627 79.2339 45.0271 78.8752 44.4576 78.9709C43.888 79.0506 43.5055 79.5607 43.599 80.0868Z" fill="#FFB103"/>
<path d="M45.6393 79.7745L43.585 80.095L44.4526 84.9861L46.507 84.6656L45.6393 79.7745Z" fill="#8192A4"/>
<path d="M44.2284 85.0135L46.7531 84.6228L46.634 83.9451L44.1094 84.3438L44.2284 85.0135Z" fill="#6B7F82"/>
<path d="M46.9309 79.6723C47.1434 80.1745 47.7469 80.4137 48.2825 80.2144C48.818 80.0071 49.073 79.4411 48.8605 78.9469C48.648 78.4446 48.0359 78.2055 47.5089 78.4128C46.9734 78.6041 46.7099 79.178 46.9309 79.6723Z" fill="#FFB103"/>
<path d="M48.862 78.9535L46.9316 79.6865L48.916 84.2824L50.8464 83.5495L48.862 78.9535Z" fill="#8192A4"/>
<path d="M50.7935 82.8362L48.4229 83.74L48.6984 84.3757L51.069 83.4719L50.7935 82.8362Z" fill="#6B7F82"/>
<path d="M40.0032 87.0062C40.2837 87.0062 40.5048 86.7909 40.5048 86.5358C40.5048 86.2728 40.2752 86.0655 40.0032 86.0655C39.1617 86.0655 38.4816 85.4278 38.4816 84.6386C38.4816 84.3755 38.2521 84.1683 37.9801 84.1683C37.6995 84.1683 37.4785 84.3835 37.4785 84.6386C37.4785 85.938 38.6091 87.0062 40.0032 87.0062Z" fill="#8192A4"/>
<path d="M34.665 85.1168C34.665 82.9964 37.1387 81.2745 40.1734 81.2745C43.2081 81.2745 45.6818 82.9964 45.6818 85.1168C45.6818 87.2373 43.2081 88.9591 40.1734 88.9591C37.1302 88.9591 34.665 87.2373 34.665 85.1168ZM35.6766 85.1168C35.6766 86.7112 37.6912 88.0105 40.1734 88.0105C42.6556 88.0105 44.6702 86.7112 44.6702 85.1168C44.6702 83.5225 42.6471 82.2232 40.1734 82.2232C37.6912 82.2232 35.6766 83.5225 35.6766 85.1168Z" fill="#8192A4"/>
<path d="M31.1882 79.9591H46.3617V85.0053H38.9237C37.6401 85.0053 36.484 85.4517 35.6425 86.1851C34.2144 87.4207 32.5483 89.0231 30.4146 89.0231C28.281 89.0231 26.5469 87.8911 26.5469 86.496V83.9689C26.5469 81.7528 28.621 79.9591 31.1882 79.9591Z" fill="#AD713B"/>
<path d="M26.5977 86.8468C26.7422 86.7272 26.8867 86.5997 27.0312 86.4721C27.3287 86.2011 27.6432 85.9141 28.0428 85.6989C29.1053 85.1249 30.1849 85.2205 31.239 85.3162C31.6215 85.3481 32.004 85.38 32.3951 85.38L32.6246 85.388C32.8541 85.3959 33.0921 85.4039 33.2366 85.3242C33.3726 85.2524 33.4746 85.1408 33.6191 84.9894C33.6786 84.9256 33.7381 84.8618 33.8061 84.798C34.4777 84.1443 35.0897 84.0008 35.8718 83.969C36.1693 83.961 36.4753 83.9769 36.7899 84.0008C37.1979 84.0327 37.5804 84.0567 37.9204 84.0088C38.0904 83.9849 38.2349 83.8972 38.405 83.8015C38.541 83.7298 38.6685 83.6501 38.8215 83.5943C39.2125 83.4348 39.629 83.4109 39.9946 83.395C40.4366 83.3711 40.8956 83.3711 41.3377 83.395C41.6777 83.4109 41.9837 83.5066 42.2812 83.5943C42.4172 83.6341 42.5532 83.682 42.6893 83.7139C43.2928 83.8573 44.4319 83.9929 45.3159 83.3312L45.775 84.1204C44.6359 84.9654 43.2418 84.814 42.5107 84.6386C42.3492 84.5987 42.1962 84.5509 42.0517 84.511C41.7882 84.4313 41.5502 84.3516 41.2951 84.3436C40.8786 84.3197 40.4451 84.3197 40.0286 84.3436C39.7055 84.3596 39.3655 84.3755 39.0935 84.4871C38.983 84.535 38.8725 84.5908 38.7705 84.6545C38.558 84.7741 38.3199 84.9096 38.0224 84.9575C37.5974 85.0213 37.1554 84.9894 36.7218 84.9575C36.4413 84.9336 36.1523 84.9176 35.8888 84.9256C35.1577 84.9575 34.7837 85.101 34.3417 85.5235L34.1802 85.6909C34.0187 85.8663 33.8317 86.0576 33.5766 86.1931C33.2536 86.3605 32.8966 86.3605 32.5821 86.3446H32.3781C31.97 86.3446 31.562 86.3127 31.1625 86.2728C30.1764 86.1851 29.2498 86.1054 28.3913 86.5678C28.0768 86.7352 27.8218 86.9744 27.5412 87.2215C27.3712 87.3809 27.1927 87.5404 26.9972 87.6918C26.8102 87.4288 26.6657 87.1497 26.5977 86.8468Z" fill="#894B19"/>
<path d="M32.3016 81.41C32.7521 81.5296 33.2282 81.6492 33.6617 81.5774C34.0017 81.5216 34.3843 81.3223 34.7498 81.139C34.9878 81.0194 35.2258 80.8998 35.4553 80.8121C36.0844 80.565 37.1044 80.6048 37.725 80.7962C37.8695 80.844 38.014 80.8918 38.1585 80.9397C38.643 81.115 39.0001 81.2346 39.4506 81.0513C40.0626 80.7962 40.8872 80.5092 41.8052 80.5092C42.2388 80.5092 42.6383 80.5729 43.0208 80.6367C43.3948 80.7005 43.7434 80.7563 44.1089 80.7563V81.705C43.6839 81.705 43.2843 81.6412 42.9018 81.5695C42.5278 81.5057 42.1793 81.4499 41.8052 81.4499C41.0147 81.4499 40.2921 81.7129 39.7396 81.9362C39.0086 82.2391 38.4475 82.0398 37.9035 81.8405C37.776 81.7927 37.6485 81.7448 37.5125 81.705C36.9769 81.5455 36.1439 81.5376 35.7358 81.705C35.5233 81.7927 35.3108 81.8963 35.0983 82.0079C34.6818 82.2152 34.2482 82.4384 33.7977 82.5102C33.1942 82.6138 32.6161 82.4623 32.1146 82.3268C31.9361 82.279 31.7576 82.2311 31.5791 82.1993C30.8225 82.0558 30.1425 82.0558 29.7089 82.2152C29.4539 82.3029 29.2159 82.4464 28.9779 82.5739C28.5784 82.8051 28.1618 83.0363 27.6518 83.1081C27.3288 83.1559 26.9972 83.14 26.6572 83.124C26.7422 82.7892 26.8867 82.4863 27.0482 82.1913C27.2268 82.1913 27.3968 82.1913 27.5498 82.1753C27.9068 82.1275 28.2468 81.9362 28.5954 81.7369C28.8589 81.5854 29.1394 81.4259 29.4454 81.3223C30.202 81.0513 31.1965 81.1788 31.7151 81.2745C31.9106 81.2984 32.1061 81.3542 32.3016 81.41Z" fill="#894B19"/>
<path d="M45.5801 79.7198H49.1078V83.5784V85.1171H45.5801V80.1185V79.7198Z" fill="#425059"/>
<path d="M59.0446 77.7191H49.1074V87.3411H59.0446V77.7191Z" fill="#8192A4"/>
<path d="M60.7278 78.8908H59.0361V86.1613H60.7278V78.8908Z" fill="#EB4900"/>
<path d="M62.6147 79.3054H60.7275V85.7627H62.6147V79.3054Z" fill="#425059"/>
<path d="M62.6147 81.0674H45.333V83.9929H62.6147V81.0674Z" fill="#8192A4"/>
<path d="M64.7572 78.6201H62.8701V86.4481H64.7572V78.6201Z" fill="#425059"/>
<path d="M63.8053 77.7191H62.6152V87.3411H63.8053V77.7191Z" fill="#8192A4"/>
<path d="M44.084 77.7191H41.6953V85.5793H44.084V77.7191Z" fill="#8192A4"/>
<path d="M48.2662 77.7191H44.084V86.8467H48.2662V77.7191Z" fill="#8192A4"/>
<path d="M59.0446 80.3496H49.1074V84.7102H59.0446V80.3496Z" fill="#BCC4CD"/>
<path d="M60.7278 80.884H59.0361V84.1763H60.7278V80.884Z" fill="#D33605"/>
<path d="M64.7572 80.7565H62.8701V84.3039H64.7572V80.7565Z" fill="#8192A4"/>
<path d="M66.4912 77.7191H64.7061V87.3411H66.4912V77.7191Z" fill="#8192A4"/>
<path d="M66.4912 80.3496H64.7061V84.7102H66.4912V80.3496Z" fill="#BCC4CD"/>
<path d="M63.8053 80.3496H62.6152V84.7102H63.8053V80.3496Z" fill="#BCC4CD"/>
<path d="M39.1875 82.5341C39.1875 81.7688 39.8505 81.155 40.6666 81.155H45.0359V83.9212H40.6666C39.8505 83.9132 39.1875 83.2914 39.1875 82.5341ZM43.7948 82.3109H40.6666C40.5391 82.3109 40.4371 82.4066 40.4371 82.5261C40.4371 82.6457 40.5391 82.7414 40.6666 82.7414H43.7948V82.3109Z" fill="#8192A4"/>
<path d="M45.5802 84.4873C44.1011 84.4873 43.6846 83.6104 43.6846 82.5342C43.6846 81.45 44.0926 80.5811 45.5802 80.5811H48.2664V84.4873C48.2664 84.4873 47.0593 84.4873 45.5802 84.4873Z" fill="#BCC4CD"/>
<path d="M59.0361 84.7102V85.1168V86.1691V87.341H49.1074V85.1168V84.7102H59.0361Z" fill="#8192A4"/>
<path d="M60.7278 84.1763V85.117V85.7628V86.1693H59.0361V85.117V84.7105V84.1763H60.7278Z" fill="#EB4900"/>
<path d="M51.4541 79.6006H49.958V85.4676H51.4541V79.6006Z" fill="#425059"/>
<path d="M58.1865 79.6006H56.6904V85.4676H58.1865V79.6006Z" fill="#425059"/>
<path d="M54.8203 79.6006H53.3242V85.4676H54.8203V79.6006Z" fill="#425059"/>
<path d="M42.29 80.35C42.29 80.8522 42.7236 81.2587 43.2591 81.2587H46.8039C47.3394 81.2587 47.7729 80.8522 47.7729 80.35C47.7729 79.8478 47.3394 79.4413 46.8039 79.4413H43.2591C42.7321 79.4413 42.29 79.8478 42.29 80.35Z" fill="#425059"/>
<path d="M43.2679 80.3498H46.8126C47.1696 80.3498 47.4672 80.5413 47.6287 80.8046C47.4587 81.068 47.1611 81.2595 46.8126 81.2595H43.2679C42.9109 81.2595 42.6134 81.068 42.4434 80.8046C42.6134 80.5413 42.9109 80.3498 43.2679 80.3498Z" fill="#222B30"/>
<path d="M29.3436 73.0717C27.8305 74.7856 26.785 76.4916 26.0709 77.9903C25.0168 80.1984 31.7408 83.985 32.3103 84.3118C36.1696 86.52 37.9632 81.6174 36.4501 80.6289C34.631 79.4411 31.0182 79.2737 31.4688 77.6794C33.0839 72.0274 34.5885 70.5207 34.971 69.7634C34.9795 69.7634 32.5993 69.3967 29.3436 73.0717Z" fill="#C9A88B"/>
<path d="M39.9274 84.7901C40.1314 85.8903 39.3579 86.9346 38.1848 87.1259L35.3881 87.5883C34.2151 87.7796 33.1015 87.0462 32.8974 85.954L32.4044 83.3313C32.2004 82.2312 32.9825 81.1869 34.147 80.9955L36.9437 80.5332C38.1168 80.3418 39.2303 81.0673 39.4344 82.1674L39.9274 84.7901Z" fill="#C9A88B"/>
<path d="M36.0423 81.4101L33.3476 84.7344C33.0076 85.1489 32.3786 85.2287 31.9281 84.9098L28.8849 82.7334C28.4428 82.4146 28.3578 81.8246 28.6978 81.4101L31.3925 78.0937C31.7326 77.6792 32.3616 77.5995 32.8121 77.9184L35.8553 80.0947C36.2973 80.4056 36.3823 80.9955 36.0423 81.4101Z" fill="#D33605"/>
<path d="M27.7453 74.4588C28.2128 75.6785 29.6495 76.3003 30.95 75.8619L34.6903 74.5864C35.9909 74.1479 36.6539 72.8007 36.1864 71.5811L35.7529 70.4571C35.2853 69.2454 33.8487 68.6156 32.5481 69.062L28.8079 70.3375C27.5073 70.7839 26.8443 72.1231 27.3118 73.3428L27.7453 74.4588Z" fill="#D33605"/>
<path d="M28.2556 72.1709C28.5701 72.976 29.5137 73.3906 30.3722 73.0956L32.8459 72.2506C33.7045 71.9556 34.1465 71.0708 33.832 70.2656L33.543 69.5243C33.2285 68.7271 32.2849 68.3126 31.4263 68.5996L28.9527 69.4446C28.0941 69.7395 27.6521 70.6244 27.9666 71.4295L28.2556 72.1709Z" fill="#EB4900"/>
<path d="M40.8869 37.3586C19.0744 37.3586 18.6324 44.7882 18.6494 54.2745C18.6494 54.2745 2.62576 72.4659 27.3369 71.2463C28.6885 71.1825 30.5077 66.4872 29.4621 54.721C28.8245 47.4747 36.6196 47.8812 36.6196 47.8812L61.7303 47.7378C59.9282 41.5836 54.7768 37.3586 40.8869 37.3586Z" fill="#FFB103"/>
<path d="M53.6718 57.1522C53.6718 57.9174 53.0087 58.5312 52.2012 58.5312H40.4618C39.6458 58.5312 38.9912 57.9174 38.9912 57.1522C38.9912 56.3869 39.6543 55.7731 40.4618 55.7731H52.2012C53.0172 55.7731 53.6718 56.3869 53.6718 57.1522Z" fill="#8192A4"/>
<path d="M41.9836 58.8343C41.9836 61.8078 39.4164 64.2153 36.2457 64.2153C33.0835 64.2153 30.5078 61.8078 30.5078 58.8343C30.5078 55.8607 33.075 53.4532 36.2457 53.4532C39.4164 53.4532 41.9836 55.8607 41.9836 58.8343Z" fill="#8192A4"/>
<path d="M39.0087 58.8342C39.0087 60.2691 37.7677 61.425 36.2461 61.425C34.7245 61.425 33.4834 60.2691 33.4834 58.8342C33.4834 57.4072 34.7245 56.2434 36.2461 56.2434C37.7762 56.2354 39.0087 57.3993 39.0087 58.8342Z" fill="#7ACEA6"/>
<path d="M36.1351 57.0644C36.1351 57.7819 35.5145 58.3558 34.758 58.3558C33.9929 58.3558 33.3809 57.7739 33.3809 57.0644C33.3809 56.347 34.0014 55.765 34.758 55.765C35.5145 55.773 36.1351 56.347 36.1351 57.0644Z" fill="#BCC4CD"/>
<path d="M62.5041 58.8262C62.5041 61.7997 59.9369 64.2072 56.7662 64.2072C53.604 64.2072 51.0283 61.7997 51.0283 58.8262C51.0283 55.8527 53.5955 53.4452 56.7662 53.4452C59.9369 53.4452 62.5041 55.8607 62.5041 58.8262Z" fill="#8192A4"/>
<path d="M59.5293 58.8262C59.5293 60.2612 58.2882 61.4172 56.7666 61.4172C55.245 61.4172 54.0039 60.2612 54.0039 58.8262C54.0039 57.3913 55.245 56.2353 56.7666 56.2353C58.2967 56.2353 59.5293 57.3992 59.5293 58.8262Z" fill="#EB4900"/>
<path d="M56.5967 57.0644C56.5967 57.7819 55.9761 58.3559 55.2111 58.3559C54.446 58.3559 53.834 57.7739 53.834 57.0644C53.834 56.347 54.4545 55.765 55.2111 55.765C55.9846 55.773 56.5967 56.347 56.5967 57.0644Z" fill="#BCC4CD"/>
<path d="M57.0812 60.7077C57.0812 60.8672 56.9452 61.0027 56.7667 61.0027C56.5882 61.0027 56.4521 60.8672 56.4521 60.7077V56.9529C56.4521 56.7855 56.5882 56.658 56.7667 56.658C56.9452 56.658 57.0812 56.7855 57.0812 56.9529V60.7077Z" fill="#425059"/>
<path d="M54.7686 59.1221C54.5901 59.1221 54.4541 58.9863 54.4541 58.8266C54.4541 58.659 54.5901 58.5312 54.7686 58.5312H58.7724C58.9509 58.5312 59.0869 58.667 59.0869 58.8266C59.0869 58.9943 58.9509 59.1221 58.7724 59.1221H54.7686Z" fill="#425059"/>
<path d="M42.7912 47.5701C43.5648 49.9456 43.9133 52.4169 43.8283 54.8801H47.101C47.3305 51.7313 47.0075 48.5904 46.166 45.5771C48.1211 48.3911 49.3622 51.5798 49.8382 54.8801H55.3211C54.7855 51.7711 53.7145 48.7738 52.1674 46.0235C54.9046 48.4868 56.9787 51.54 58.2198 54.8801H64.3487C64.3487 46.8048 57.3697 40.268 48.7671 40.268C40.1645 40.268 33.1855 46.8048 33.1855 54.8801H41.5841C42.3237 52.4886 42.7232 50.0333 42.7912 47.5701Z" fill="#FFB103"/>
<path d="M28.0285 44.9645L25.5811 47.2576L30.7782 52.1352L33.2256 49.8421L28.0285 44.9645Z" fill="#8192A4"/>
<path d="M29.628 46.4571L27.1816 48.7514L29.1712 50.6172L31.6176 48.323L29.628 46.4571Z" fill="#BCC4CD"/>
<g filter="url(#filter0_d_1460_7943)">
<path d="M60 80.0881C60 89.5299 52.1694 97.1761 42.5 97.1761C32.8306 97.1761 25 89.5299 25 80.0881C25 70.6462 32.8306 63 42.5 63C52.1694 63 60 70.6462 60 80.0881Z" fill="url(#paint0_linear_1460_7943)"/>
<path d="M42.5004 92.6422C49.601 92.6422 55.3572 87.0215 55.3572 80.0881C55.3572 73.1546 49.601 67.5339 42.5004 67.5339C35.3997 67.5339 29.6436 73.1546 29.6436 80.0881C29.6436 87.0215 35.3997 92.6422 42.5004 92.6422Z" fill="url(#paint1_linear_1460_7943)"/>
<path d="M42.5004 69.7185C49.2123 69.7185 54.6677 74.7612 55.2347 81.1804C55.9242 73.4145 49.6721 67.5488 42.5004 67.5488C35.3288 67.5488 29.0613 73.3995 29.7662 81.1804C30.3332 74.7612 35.7885 69.7185 42.5004 69.7185Z" fill="#D48031"/>
<path opacity="0.53" d="M44.538 79.9384L49.6562 73.2499L46.6833 71.0802L42.6378 76.3622L38.3471 71.0503L35.4355 73.2948L40.8143 79.9684V80.6417H37.5043V83.8289H40.8449C40.8449 94.4079 40.8449 79.7888 40.8449 90.6222H44.5533C44.5533 79.8337 44.5533 94.752 44.5533 83.8289H47.8939V80.6417H44.5533V79.9384H44.538Z" fill="#FFF297"/>
</g>
<defs>
<filter id="filter0_d_1460_7943" x="15" y="53" width="55" height="54.1761" filterUnits="userSpaceOnUse" color-interpolation-filters="sRGB">
<feFlood flood-opacity="0" result="BackgroundImageFix"/>
<feColorMatrix in="SourceAlpha" type="matrix" values="0 0 0 0 0 0 0 0 0 0 0 0 0 0 0 0 0 0 127 0" result="hardAlpha"/>
<feOffset/>
<feGaussianBlur stdDeviation="5"/>
<feComposite in2="hardAlpha" operator="out"/>
<feColorMatrix type="matrix" values="0 0 0 0 0 0 0 0 0 0 0 0 0 0 0 0 0 0 0.5 0"/>
<feBlend mode="normal" in2="BackgroundImageFix" result="effect1_dropShadow_1460_7943"/>
<feBlend mode="normal" in="SourceGraphic" in2="effect1_dropShadow_1460_7943" result="shape"/>
</filter>
<linearGradient id="paint0_linear_1460_7943" x1="42.5031" y1="76.9833" x2="42.5031" y2="98.044" gradientUnits="userSpaceOnUse">
<stop stop-color="#FFF297"/>
<stop offset="1" stop-color="#FAC823"/>
</linearGradient>
<linearGradient id="paint1_linear_1460_7943" x1="42.5036" y1="93.3435" x2="42.5036" y2="74.0708" gradientUnits="userSpaceOnUse">
<stop stop-color="#F6AA39"/>
<stop offset="1" stop-color="#FAC823"/>
</linearGradient>
</defs>
</svg>
