<svg width="80" height="108" viewBox="0 0 80 108" fill="none" xmlns="http://www.w3.org/2000/svg">
<path d="M12.8256 62.4575L16.9228 66.2906L14.7977 66.3861L13.2761 64.9626L12.222 63.9765L10.7004 62.5529L12.8256 62.4575ZM12.8256 60.0717C12.7831 60.0717 12.7491 60.0717 12.7066 60.0717L10.5814 60.1592C9.56984 60.199 8.68579 60.7954 8.32027 61.6782C7.95474 62.5609 8.17576 63.5629 8.8898 64.2309L10.3434 65.5908C10.3689 65.6147 10.3859 65.6385 10.4114 65.6544L11.4655 66.6406L12.9871 68.0641C13.4631 68.5094 14.1177 68.7639 14.7892 68.7639C14.8317 68.7639 14.8657 68.7639 14.9082 68.7639L17.0334 68.6685C18.0449 68.6207 18.929 68.0243 19.2945 67.1495C19.66 66.2747 19.4305 65.2727 18.7165 64.6047L14.6192 60.7716C14.1431 60.3183 13.4971 60.0717 12.8256 60.0717Z" fill="black"/>
<path d="M27.5653 30.2908C27.5653 30.2908 50.2789 36.9548 70.7058 45.3126L60.3606 46.2987C62.1202 48.6127 63.1658 51.4358 63.1998 54.4815C63.7183 55.4198 64.5344 56.2628 65.5289 57.2648C67.9516 59.73 70.9438 62.7836 71.2923 69.5589H71.4198C72.6099 69.5589 73.5705 70.4575 73.5705 71.5629V74.2269C73.5705 75.3322 72.6099 76.2388 71.4198 76.2388H71.2583C70.7568 82.5608 67.8751 85.4872 65.5289 87.8649C63.8373 89.5746 62.6217 90.8152 62.6217 92.8669C62.6217 93.3917 62.1712 93.8132 61.6102 93.8132C61.5847 93.8132 61.5677 93.8132 61.5422 93.8132C61.4741 93.8052 61.4061 93.7893 61.3296 93.7814C60.9046 93.67 60.5901 93.3042 60.5901 92.8748C60.5901 90.0836 62.2562 88.3898 64.0328 86.5926C66.2515 84.3421 68.7336 81.8053 69.2182 76.2467H68.5722C67.8836 76.2467 67.2801 75.9366 66.889 75.4754C66.8635 75.4754 66.838 75.4754 66.8125 75.4754C65.1634 75.4754 61.0576 75.1652 56.5268 72.7398C55.6343 72.2627 54.9287 71.7935 54.3592 71.3481C54.9967 73.1851 55.3537 75.1891 55.3537 77.2964C55.3537 79.7616 54.8607 82.0916 54.0021 84.1671L54.0616 84.2069V87.5309H53.5431L54.0616 91.5945H53.2881V93.01C56.5183 93.2009 59.2725 93.4712 61.3212 93.7814C61.3892 93.7973 61.4572 93.8132 61.5337 93.8132C63.9053 94.1949 65.2824 94.6482 65.2824 95.1332C65.2824 96.4931 54.5207 97.5905 41.2343 97.5905C27.9564 97.5905 17.1861 96.4931 17.1861 95.1332C17.1861 94.1869 22.4395 93.3678 30.124 92.9543V91.5865H29.0359L29.7755 87.523H29.4355V84.3103L29.0444 84.6761V86.179C29.0444 87.2924 28.0839 88.191 26.8938 88.191H24.0546C22.8645 88.191 21.904 87.2924 21.904 86.179V83.523C21.904 83.3958 21.921 83.2765 21.9465 83.1572C21.921 83.0618 21.904 82.9584 21.904 82.855C21.904 82.3143 22.244 81.853 22.737 81.6383C22.737 81.5747 22.737 81.5111 22.7455 81.4475L21.1049 80.191L17.9682 77.7894L15.69 76.04L17.3816 74.4575L12.7743 70.1474L10.6492 70.2428L9.12759 68.8193L8.72806 68.4456L6.55192 66.4098L8.67706 66.3144L7.76749 65.4635L8.47304 64.7955L9.38261 65.6464L9.48461 63.6584L13.5819 67.4913L13.4799 69.4794L11.9583 68.0559L18.0872 73.7815L21.5214 70.5688L11.9158 61.5749L12.6298 60.9069L13.5394 61.7578L13.6329 59.7697L15.1545 61.1932V61.1852L16.2086 62.1713L17.7302 63.5947L17.6282 65.5828L22.2355 69.8929L25.6697 66.6802L25.5422 66.5609H22.2525L21.904 63.1494L21.4364 62.712L21.0029 66.553H19.5833V62.4337L18.9458 62.4576L16.3956 60.0719L16.3701 60.048L14.8485 58.6325L16.9736 58.5371L16.0641 57.6862L16.7781 57.0182L17.6877 57.8691L17.7897 55.8811L19.5918 57.559V50.1316L14.908 50.5769L14.4999 50.5133C14.4999 50.5133 17.0416 38.2908 22.482 33.1059C22.482 33.1059 23.4001 33.2332 24.9982 33.4797C25.7547 32.3107 26.6133 31.1894 27.5653 30.2908ZM66.634 70.211C66.889 69.8293 67.3396 69.5669 67.8581 69.5669C67.9686 69.5669 68.0791 69.5828 68.1811 69.6066C68.3086 69.5828 68.4361 69.5669 68.5722 69.5669H69.2607C68.9292 63.5391 66.3365 60.891 64.0328 58.553C63.6503 58.1634 63.2678 57.7737 62.9108 57.3841C61.8652 62.4337 57.9974 66.5371 52.8971 68.207C52.9311 68.2627 52.9651 68.3263 52.9906 68.382C54.9287 68.9227 59.383 70.0201 66.634 70.211ZM19.5748 61.0182L17.2796 58.8711L19.5748 61.0182ZM43.5804 91.5945V89.8927H39.5172V91.5945H36.0064V89.8927H34.8928L33.7538 92.8032C36.1084 92.7237 38.6246 92.684 41.2343 92.684C44.201 92.684 47.0487 92.7396 49.6754 92.843L48.5193 89.8927H47.0827V91.5945H43.5804ZM27.5653 27.9052C26.8938 27.9052 26.2308 28.1517 25.7462 28.6209C25.0577 29.2729 24.3861 30.0443 23.7401 30.927C23.162 30.8395 22.8475 30.7998 22.8475 30.7998C22.72 30.7839 22.601 30.7759 22.4735 30.7759C21.7935 30.7759 21.1389 31.0304 20.6544 31.4916C14.738 37.1218 12.0943 49.5829 11.9838 50.1157C11.8478 50.7519 12.0008 51.4119 12.4003 51.9368C12.7998 52.4696 13.4034 52.8195 14.0919 52.9229L14.4999 52.9865C14.636 53.0024 14.7635 53.0183 14.8995 53.0183C14.9845 53.0183 15.0695 53.0103 15.1545 53.0024L17.0331 52.8274V53.6545C16.9736 53.6704 16.9226 53.6863 16.8631 53.7101C16.1916 53.9566 15.673 54.4417 15.418 55.0461C15.2565 55.1415 15.1035 55.2529 14.9675 55.3801L14.2534 56.0401C14.1174 56.1674 13.9984 56.3105 13.8964 56.4536C13.3099 56.6763 12.8168 57.0978 12.5363 57.6465C11.9498 57.9089 11.4907 58.3701 11.2612 58.9188C11.1082 59.0143 10.9637 59.1176 10.8277 59.2449L10.1137 59.9129C9.71413 60.2866 9.45912 60.7717 9.38261 61.2965C9.11059 61.3045 8.83007 61.3602 8.56655 61.4556C7.895 61.7021 7.37648 62.1951 7.11296 62.7995C6.95145 62.8949 6.79842 63.0063 6.66241 63.1335L5.95688 63.8015C5.82087 63.9287 5.70186 64.0639 5.60835 64.215C4.96231 64.4536 4.42677 64.9387 4.17175 65.5748C3.80623 66.4575 4.03574 67.4516 4.74978 68.1195L6.92594 70.1553L7.32547 70.5291C7.35097 70.5529 7.36796 70.5688 7.39347 70.5847L8.85557 71.9525C9.3316 72.3978 9.98615 72.6523 10.6577 72.6523C10.7002 72.6523 10.7342 72.6523 10.7767 72.6523L11.7798 72.6046L13.7859 74.4813C13.3439 74.9505 13.1144 75.5549 13.1484 76.1831C13.1824 76.859 13.5224 77.4873 14.0749 77.9087L16.2936 79.6105C16.3191 79.6264 16.3361 79.6423 16.3616 79.6662L19.4728 82.0439C19.4048 82.3143 19.3708 82.6005 19.3708 82.8868C19.3708 82.9982 19.3793 83.1015 19.3878 83.2129C19.3793 83.3321 19.3708 83.4435 19.3708 83.5548V86.2108C19.3708 88.6363 21.4789 90.6084 24.0716 90.6084H26.6558L26.6218 90.8152C24.1481 91.006 22.023 91.2446 20.3568 91.515C18.2232 91.8649 14.6615 92.4533 14.6615 95.1571C14.6615 98.0835 18.6992 98.7276 23.9781 99.2684C28.6109 99.7376 34.7483 100 41.2598 100C47.7712 100 53.9086 99.7376 58.5415 99.2684C63.8203 98.7276 67.8581 98.0835 67.8581 95.1571C67.8581 93.6144 66.685 92.7555 65.2739 92.2386C65.4864 91.515 66.107 90.8311 67.4161 89.511C69.6772 87.2208 72.6949 84.1512 73.613 78.1473C75.1091 77.4077 76.1292 75.9445 76.1292 74.2587V71.5947C76.1292 69.9406 75.1516 68.5013 73.698 67.7458C72.9159 61.2568 69.7622 58.06 67.4076 55.6743C66.7615 55.0222 66.1495 54.394 65.733 53.8215C65.631 51.9209 65.1974 50.068 64.4409 48.3265L70.9693 47.7062C72.1254 47.5949 73.0519 46.7758 73.2304 45.7022C73.409 44.6287 72.7969 43.579 71.7344 43.1496C51.418 34.8316 28.5684 28.104 28.3389 28.0324C28.0754 27.9449 27.8204 27.9052 27.5653 27.9052ZM59.5785 67.2766C61.3636 65.8134 62.8428 64.0401 63.8968 62.0441C65.0274 63.4039 65.9795 65.0023 66.447 67.4277C66.175 67.5231 65.9115 67.6504 65.6734 67.8015C63.5228 67.706 61.4911 67.5311 59.5785 67.2766ZM56.6118 84.4375C57.4619 82.1632 57.8954 79.7696 57.8954 77.2964C57.8954 76.8749 57.8784 76.4455 57.8529 76.0241C61.2106 77.368 64.1348 77.7417 65.8689 77.8292C66.022 77.9326 66.192 78.028 66.3535 78.1155C65.6139 81.4554 63.9223 83.1731 62.1457 84.9783C60.5646 86.5767 58.805 88.3579 58.2269 91.006C57.6829 90.9504 57.1134 90.9027 56.5268 90.8549L56.2548 88.7476C56.4758 88.3977 56.6033 87.9842 56.6033 87.5468V84.4375H56.6118Z" fill="black"/>
<path d="M65.2818 95.1414C65.2818 96.5011 54.5201 97.5985 41.2337 97.5985C27.9558 97.5985 17.1855 96.5011 17.1855 95.1414C17.1855 93.7816 27.9558 92.6843 41.2337 92.6843C54.5201 92.6843 65.2818 93.7816 65.2818 95.1414Z" fill="#DDD8BF"/>
<path d="M12.7654 70.1634L10.6403 70.2588L6.54297 66.4257L8.67664 66.3303L12.7654 70.1634Z" fill="#BCC4CD"/>
<path d="M13.4791 69.4953L13.5811 67.5152L9.48384 63.6822L9.38184 65.6703L13.4791 69.4953Z" fill="#BCC4CD"/>
<path d="M11.2437 68.7399L9.11852 68.8354L8.06445 67.8493L10.1896 67.7538L11.2437 68.7399Z" fill="#425059"/>
<path d="M11.9574 68.0797L12.0594 66.0837L11.0053 65.0976L10.9033 67.0936L11.9574 68.0797Z" fill="#425059"/>
<path d="M8.47509 64.8146L7.76562 65.4779L19.0747 76.0635L19.7841 75.4002L8.47509 64.8146Z" fill="#F15A24"/>
<path d="M16.9138 66.2825L14.7887 66.378L10.6914 62.5452L12.825 62.4577L16.9138 66.2825Z" fill="#BCC4CD"/>
<path d="M17.6276 65.6227L17.7296 63.6346L13.6323 59.8017L13.5303 61.7897L17.6276 65.6227Z" fill="#BCC4CD"/>
<path d="M15.3921 64.8674L13.267 64.9549L12.2129 63.9684L14.338 63.8809L15.3921 64.8674Z" fill="#425059"/>
<path d="M16.1059 64.1993L16.2079 62.2112L15.1538 61.2251L15.0518 63.2132L16.1059 64.1993Z" fill="#425059"/>
<path d="M23.9271 71.5152L23.2215 72.1832L11.9072 61.5987L12.6213 60.9387L23.9271 71.5152Z" fill="#F15A24"/>
<path d="M21.0623 62.4098L18.9371 62.4973L14.8398 58.6725L16.965 58.577L21.0623 62.4098Z" fill="#BCC4CD"/>
<path d="M21.776 61.7418L21.878 59.7538L17.7807 55.921L17.6787 57.909L21.776 61.7418Z" fill="#BCC4CD"/>
<path d="M19.5405 60.9866L17.4154 61.0741L16.3613 60.0876L18.4865 60.0001L19.5405 60.9866Z" fill="#425059"/>
<path d="M20.2543 60.3187L20.3478 58.3305L19.2937 57.3444L19.2002 59.3325L20.2543 60.3187Z" fill="#425059"/>
<path d="M28.084 67.6423L27.3699 68.3023L16.0557 57.726L16.7697 57.058L28.084 67.6423Z" fill="#F15A24"/>
<path d="M38.2422 76.0799L28.0925 85.5749L15.6816 76.056L28.067 64.4616L38.2422 76.0799Z" fill="#8192A4"/>
<path d="M32.5035 69.5274L29.9363 66.593L17.959 77.8056L21.0957 80.2072L32.5035 69.5274Z" fill="#FFB103"/>
<path d="M25.6428 72.2628C22.7356 77.0341 22.6676 81.3204 22.7356 82.3621C22.9907 86.5848 28.3121 85.1852 28.3206 83.4675C28.3546 74.06 30.2842 69.1296 30.5817 68.0958C30.5817 68.0958 28.1675 68.1276 25.6428 72.2628Z" fill="#59B587"/>
<path d="M21.8945 86.1952C21.8945 87.3085 22.8551 88.2071 24.0452 88.2071H26.8844C28.066 88.2071 29.035 87.3085 29.035 86.1952V83.5391C29.035 82.4258 28.0745 81.5272 26.8844 81.5272H24.0452C22.8551 81.5272 21.8945 82.4258 21.8945 83.5391V86.1952Z" fill="#C9A88B"/>
<path d="M21.8945 82.871C21.8945 83.6105 22.5321 84.2068 23.3311 84.2068H24.5807C25.3712 84.2068 26.0173 83.6105 26.0173 82.871C26.0173 82.1315 25.3712 81.5272 24.5807 81.5272H23.3311C22.5406 81.5272 21.8945 82.1315 21.8945 82.871Z" fill="#F4D9BD"/>
<path d="M56.5178 72.7398C61.6181 75.4674 66.1999 75.5231 67.3135 75.4594C71.8273 75.2209 70.3397 70.2428 68.4951 70.2349C58.4389 70.2031 53.1686 68.4059 52.0635 68.1196C52.0635 68.1196 52.0975 70.378 56.5178 72.7398Z" fill="#59B587"/>
<path d="M71.402 69.5668C72.592 69.5668 73.5526 70.4654 73.5526 71.5708V74.2349C73.5526 75.3404 72.592 76.247 71.402 76.247H68.5628C67.3727 76.247 66.4121 75.3483 66.4121 74.2349V71.5708C66.4121 70.4654 67.3727 69.5668 68.5628 69.5668H71.402Z" fill="#C9A88B"/>
<path d="M67.8487 69.5668C68.6393 69.5668 69.2769 70.1632 69.2769 70.9107V72.0796C69.2769 72.8192 68.6393 73.4235 67.8487 73.4235C67.0582 73.4235 66.4121 72.8271 66.4121 72.0796V70.9107C66.4121 70.1632 67.0582 69.5668 67.8487 69.5668Z" fill="#F4D9BD"/>
<path d="M33.3533 93.8211H30.123V85.5905H36.5835L33.3533 93.8211Z" fill="#59B587"/>
<path d="M50.0564 93.8213H53.2866V85.5907H46.8262L50.0564 93.8213Z" fill="#59B587"/>
<path d="M30.5826 68.096C29.0015 70.6964 28.0664 73.8613 28.0664 77.2967C28.0664 80.724 29.0015 83.8969 30.5826 86.4973C33.7278 87.8014 37.5616 88.5728 41.7098 88.5728C45.8581 88.5728 49.6919 87.8014 52.8371 86.4973C54.4097 83.8969 55.3533 80.732 55.3533 77.2967C55.3533 73.8693 54.4182 70.6964 52.8371 68.096C49.6919 66.7919 45.8581 66.0205 41.7183 66.0205C37.5616 66.0205 33.7278 66.7919 30.5826 68.096Z" fill="#7ACEA6"/>
<path d="M43.52 67.2052H39.9668V77.6463H43.52V67.2052Z" fill="#59B587"/>
<path d="M63.1906 54.6247C63.1906 62.5769 56.2966 69.0342 47.7876 69.0342H35.8103C27.3012 69.0342 20.4072 62.5849 20.4072 54.6247C20.4072 46.6644 27.3012 40.2151 35.8103 40.2151H47.7876C56.3052 40.2151 63.1906 46.6724 63.1906 54.6247Z" fill="#F4D9BD"/>
<path d="M19.5742 47.6903V66.5931H21.0023L21.6569 60.8117L22.2519 66.5931H29.9365V47.6903H19.5742Z" fill="#2A5B6A"/>
<path d="M37.0428 53.9566C35.6572 53.9566 34.5352 55.0063 34.5352 56.3026H39.542C39.5335 55.0063 38.4199 53.9566 37.0428 53.9566Z" fill="#00ABD3"/>
<path d="M41.9731 66.0205C43.3587 66.0205 44.4808 64.9707 44.4808 63.6742H39.4824C39.4824 64.9627 40.596 66.0205 41.9731 66.0205Z" fill="#F2F1E7"/>
<path d="M58.201 53.9566C56.8154 53.9566 55.6934 55.0063 55.6934 56.3026H60.6917C60.7002 55.0063 59.5781 53.9566 58.201 53.9566Z" fill="#00ABD3"/>
<path d="M41.9816 52.2152L32.0869 53.5035V50.9349L41.9816 48.0243V52.2152Z" fill="#2A5B6A"/>
<path d="M54.1973 52.2152L62.1878 53.5035V50.927L54.1973 48.0323V52.2152Z" fill="#2A5B6A"/>
<path d="M31.9508 89.8927H36.0141V91.5945H39.5164V89.8927H43.5796V91.5945H47.0819V89.8927H51.1451V91.5945H54.0609L53.2873 85.5905H30.1232L29.0352 91.5945H31.9508V89.8927Z" fill="#7ACEA6"/>
<path d="M54.0529 84.2067H29.4268V87.5309H54.0529V84.2067Z" fill="#59B587"/>
<path d="M54.061 84.2069V87.5389L27.4287 69.6624L29.4688 67.7538L54.061 84.2069Z" fill="#FFB103"/>
<path d="M19.5742 47.6903C19.5742 47.6903 22.1159 35.4678 27.5563 30.2909C27.5563 30.2909 50.2698 36.9548 70.6967 45.3206L19.9823 47.754L19.5742 47.6903Z" fill="#59B587"/>
<path d="M14.4912 50.5611C14.4912 50.5611 17.0329 38.3385 22.4733 33.1537C22.4733 33.1537 50.2702 36.9548 70.6971 45.3126L14.8907 50.6168L14.4912 50.5611Z" fill="#7ACEA6"/>
<path d="M21.8955 45.8534V57.3124C21.8955 58.7915 23.1706 59.9844 24.7517 59.9844C26.3328 59.9844 27.6079 58.7836 27.6079 57.3124L21.8955 45.8534Z" fill="#F4D9BD"/>
<path d="M70.306 71.197C69.7535 71.197 69.3114 70.7914 69.2944 70.2745C69.1329 63.7378 66.4213 60.9863 64.0326 58.5529C62.2645 56.7557 60.5898 55.0619 60.5898 52.2707C60.5898 51.7458 61.0404 51.3244 61.6014 51.3244C62.1625 51.3244 62.613 51.7458 62.613 52.2707C62.613 54.3224 63.8286 55.5629 65.5202 57.2726C68.0279 59.8174 71.1391 62.9823 71.3176 70.2268C71.3261 70.7517 70.884 71.1811 70.3315 71.197C70.3145 71.197 70.306 71.197 70.306 71.197Z" fill="#EB4900"/>
<path d="M61.5926 93.8213C61.0316 93.8213 60.5811 93.3998 60.5811 92.875C60.5811 90.0837 62.2472 88.3899 64.0238 86.5926C66.4125 84.1672 69.1242 81.4078 69.2857 74.871C69.2942 74.3541 69.6937 73.9406 70.3142 73.9485C70.8753 73.9644 71.3173 74.3938 71.3003 74.9187C71.1218 82.1712 68.0021 85.3282 65.5029 87.873C63.8113 89.5827 62.5957 90.8233 62.5957 92.875C62.6042 93.3998 62.1537 93.8213 61.5926 93.8213Z" fill="#EB4900"/>
<path d="M71.4446 69.9327H69.1494V75.2209H71.4446V69.9327Z" fill="#8192A4"/>
<g filter="url(#filter0_d_1460_7750)">
<path d="M58 80.0881C58 89.5299 50.1694 97.1761 40.5 97.1761C30.8306 97.1761 23 89.5299 23 80.0881C23 70.6462 30.8306 63 40.5 63C50.1694 63 58 70.6462 58 80.0881Z" fill="url(#paint0_linear_1460_7750)"/>
<path d="M40.5004 92.6422C47.601 92.6422 53.3572 87.0215 53.3572 80.0881C53.3572 73.1546 47.601 67.5339 40.5004 67.5339C33.3997 67.5339 27.6436 73.1546 27.6436 80.0881C27.6436 87.0215 33.3997 92.6422 40.5004 92.6422Z" fill="url(#paint1_linear_1460_7750)"/>
<path d="M40.5004 69.7185C47.2123 69.7185 52.6677 74.7612 53.2347 81.1804C53.9242 73.4145 47.6721 67.5488 40.5004 67.5488C33.3288 67.5488 27.0613 73.3995 27.7662 81.1804C28.3332 74.7612 33.7885 69.7185 40.5004 69.7185Z" fill="#D48031"/>
<path opacity="0.53" d="M42.538 79.9384L47.6562 73.2499L44.6833 71.0802L40.6378 76.3622L36.3471 71.0503L33.4355 73.2948L38.8143 79.9684V80.6417H35.5043V83.8289H38.8449C38.8449 94.4079 38.8449 79.7888 38.8449 90.6222H42.5533C42.5533 79.8337 42.5533 94.752 42.5533 83.8289H45.8939V80.6417H42.5533V79.9384H42.538Z" fill="#FFF297"/>
</g>
<defs>
<filter id="filter0_d_1460_7750" x="13" y="53" width="55" height="54.1761" filterUnits="userSpaceOnUse" color-interpolation-filters="sRGB">
<feFlood flood-opacity="0" result="BackgroundImageFix"/>
<feColorMatrix in="SourceAlpha" type="matrix" values="0 0 0 0 0 0 0 0 0 0 0 0 0 0 0 0 0 0 127 0" result="hardAlpha"/>
<feOffset/>
<feGaussianBlur stdDeviation="5"/>
<feComposite in2="hardAlpha" operator="out"/>
<feColorMatrix type="matrix" values="0 0 0 0 0 0 0 0 0 0 0 0 0 0 0 0 0 0 0.5 0"/>
<feBlend mode="normal" in2="BackgroundImageFix" result="effect1_dropShadow_1460_7750"/>
<feBlend mode="normal" in="SourceGraphic" in2="effect1_dropShadow_1460_7750" result="shape"/>
</filter>
<linearGradient id="paint0_linear_1460_7750" x1="40.5031" y1="76.9833" x2="40.5031" y2="98.044" gradientUnits="userSpaceOnUse">
<stop stop-color="#FFF297"/>
<stop offset="1" stop-color="#FAC823"/>
</linearGradient>
<linearGradient id="paint1_linear_1460_7750" x1="40.5036" y1="93.3435" x2="40.5036" y2="74.0708" gradientUnits="userSpaceOnUse">
<stop stop-color="#F6AA39"/>
<stop offset="1" stop-color="#FAC823"/>
</linearGradient>
</defs>
</svg>
