<svg width="80" height="108" viewBox="0 0 80 108" fill="none" xmlns="http://www.w3.org/2000/svg">
<path d="M57.4285 26.391C61.2963 26.391 64.3735 29 64.4245 32.2312C64.467 35.1753 62.3164 37.6725 59.4007 38.5342C60.7863 39.0528 61.8913 39.7549 62.6309 40.6804C63.957 42.3479 61.5938 44.5579 58.4401 46.5445C60.6927 49.0577 62.0443 52.297 62.0443 55.8314C62.0443 60.5068 59.6727 64.6476 56.0089 67.2884C56.57 67.5438 57.0885 67.8788 57.556 68.3097C58.7461 69.4267 59.2901 70.9266 59.1966 72.3946L60.7692 71.7085C60.7777 71.7085 60.7777 71.7085 60.7862 71.7005L61.4153 71.4213C61.6108 71.3335 61.8148 71.2936 62.0188 71.2936C62.5629 71.2936 63.0729 71.5808 63.3194 72.0675C63.3704 72.1633 63.3959 72.259 63.4214 72.3547C63.4809 72.4265 63.5234 72.5063 63.5745 72.5941L63.7614 72.5143H68.7513L68.9128 75.1871L64.977 75.0036L64.824 75.0754L64.8325 75.0834C65.2576 75.9371 64.9855 76.9264 64.2375 77.5008C63.5915 78.7056 62.0953 79.9183 60.9733 79.9741C60.6927 79.9901 60.4207 79.9981 60.1572 79.9981C58.3126 79.9981 56.876 79.6789 55.7454 79.1603L54.1813 79.8624C54.0623 82.8065 53.5268 85.5112 52.1582 87.793V92.1492V93.0109C59.3157 93.4337 64.1355 94.2316 64.1355 95.1411C64.1355 96.4975 53.3737 97.6065 40.0873 97.6065C26.8094 97.6065 16.0392 96.5055 16.0392 95.1411C16.0392 94.1917 21.3011 93.3619 28.9941 92.955V92.1492V87.793C27.413 85.1841 26.9369 82.0007 26.9369 78.562C26.9369 77.8997 26.9794 77.2535 27.0474 76.6152C25.8999 76.4477 24.7948 75.961 23.9107 75.1312C21.7006 73.0569 21.7006 69.6979 23.9107 67.6235C23.9277 67.6076 23.9362 67.5996 23.9532 67.5836C22.4996 66.7299 19.992 64.9747 18.9379 62.5413C17.8668 60.0759 17.6373 54.2357 17.6458 49.4886C17.5523 49.4886 17.4588 49.4965 17.3653 49.4965C14.9851 49.4965 12.6815 48.4195 11.3894 46.4089C9.50225 43.4728 10.9218 39.4198 14.7046 37.6486C16.0987 36.9943 17.5098 36.364 18.9379 35.7657C18.9379 35.7657 18.9379 35.7657 18.9379 35.7577C19.0484 35.7098 19.1674 35.662 19.2779 35.6141C19.7879 35.3987 20.3065 35.1912 20.825 34.9838C21.0885 34.8801 21.3521 34.7604 21.6156 34.6567C21.6156 34.6567 21.6156 34.6567 21.6156 34.6646C25.5768 33.0929 29.6231 31.7286 33.7374 30.5797V30.5717C33.9159 30.5238 34.1029 30.476 34.2814 30.4281C34.902 30.2606 35.5225 30.093 36.1431 29.9334C36.2791 29.9015 36.4066 29.8616 36.5426 29.8297C36.5426 29.8297 36.5426 29.8297 36.5426 29.8377C40.6824 28.7845 44.8817 27.9388 49.132 27.3085C49.319 27.2846 49.506 27.2607 49.6845 27.2367C50.3475 27.141 51.0106 27.0532 51.6736 26.9655C51.7926 26.9495 51.9116 26.9335 52.0307 26.9176V26.9256C53.5778 26.7341 55.1249 26.5665 56.6805 26.4309C56.9355 26.399 57.182 26.391 57.4285 26.391ZM33.1254 92.7955C35.327 92.7237 37.6562 92.6918 40.0703 92.6918C42.85 92.6918 45.5192 92.7396 48.0014 92.8274L46.6413 89.3408C46.3608 89.3887 46.0802 89.4286 45.7997 89.4764C45.3662 89.7477 44.9242 89.9871 44.4991 90.1706C43.4706 90.6094 42.3995 90.8168 41.3369 90.8168C39.9003 90.8168 38.4892 90.4339 37.2822 89.7158C36.3301 89.628 35.3865 89.5004 34.4684 89.3408L33.1254 92.7955ZM57.4285 23.9975C57.1055 23.9975 56.774 24.0134 56.451 24.0374C55.0144 24.1571 53.5183 24.3166 51.8776 24.5161C51.8181 24.5161 51.7501 24.5241 51.6906 24.532L51.4696 24.564L51.3336 24.5799C50.6621 24.6677 49.982 24.7634 49.302 24.8592L49.0809 24.8911C48.9619 24.907 48.8429 24.923 48.7239 24.9389C48.6814 24.9469 48.6474 24.9549 48.6049 24.9629C44.3971 25.5852 40.1638 26.4389 36.0156 27.4841C35.9646 27.492 35.9135 27.508 35.8625 27.516C35.7775 27.5399 35.6925 27.5638 35.6075 27.5798L35.446 27.6197C34.8085 27.7872 34.1709 27.9548 33.5419 28.1303L33.3294 28.1862C33.2189 28.2181 33.0999 28.242 32.9894 28.2739C32.9298 28.2899 32.8618 28.3138 32.8023 28.3298C28.7136 29.4787 24.6673 30.851 20.757 32.3908C20.706 32.4067 20.655 32.4227 20.604 32.4466C20.434 32.5105 20.264 32.5823 20.1025 32.6541L19.7964 32.7817C19.2694 32.9972 18.7424 33.2046 18.2238 33.428L18.0963 33.4838L17.8838 33.5716C17.8243 33.5955 17.7648 33.6195 17.7138 33.6514C16.2092 34.2897 14.8491 34.896 13.557 35.5024C11.0154 36.6992 9.11972 38.7815 8.36317 41.2309C7.67462 43.4489 7.97214 45.7307 9.19622 47.6376C10.5138 49.688 12.6305 51.1082 15.0956 51.6427C15.2231 60.3552 16.2177 62.653 16.5662 63.4428C17.4163 65.4055 18.9209 66.9693 20.4425 68.1581C19.0569 70.9984 19.6094 74.485 22.1001 76.8227C22.7717 77.453 23.5367 77.9556 24.3783 78.3306C24.3783 78.4104 24.3783 78.4822 24.3783 78.562C24.3783 82.6629 25.0328 85.8064 26.4354 88.3914V90.7131C23.5367 90.9126 21.063 91.1759 19.1844 91.487C17.0508 91.8381 13.489 92.4285 13.489 95.1411C13.489 98.0772 17.5268 98.7235 22.8056 99.266C27.4385 99.7367 33.5759 100 40.0873 100C46.5988 100 52.7362 99.7367 57.369 99.266C62.6479 98.7235 66.6856 98.0772 66.6856 95.1411C66.6856 92.4763 63.1834 91.87 61.2963 91.5429C59.5962 91.2477 57.3435 90.9924 54.7083 90.7849V88.3834C55.6859 86.5723 56.2979 84.458 56.5785 81.9767C57.675 82.248 58.8651 82.3836 60.1572 82.3836C60.4632 82.3836 60.7777 82.3757 61.1093 82.3597C63.1919 82.256 65.2405 80.6124 66.2861 78.9848C66.7281 78.554 67.0682 78.0513 67.2892 77.5088L68.8023 77.5806C68.8448 77.5806 68.8873 77.5806 68.9298 77.5806C69.6099 77.5806 70.2559 77.3253 70.7404 76.8705C71.2505 76.3918 71.5225 75.7296 71.48 75.0515L71.3185 72.3787C71.242 71.1101 70.1284 70.1208 68.7768 70.1208H65.0025C64.2545 69.3549 63.1919 68.8921 62.0528 68.8921C61.7383 68.8921 61.4238 68.924 61.1178 68.9958C60.8203 68.3416 60.4207 67.7272 59.9362 67.1688C62.9539 64.0891 64.6285 60.0839 64.6285 55.8234C64.6285 52.7198 63.7104 49.688 62.0103 47.0631C64.1185 45.4435 65.2491 43.9436 65.5296 42.4277C65.7421 41.2788 65.4616 40.1777 64.7135 39.2443C64.535 39.0209 64.348 38.8054 64.1355 38.598C65.9631 36.9225 67.0512 34.6248 67.0087 32.1913C66.9067 27.5958 62.7159 23.9975 57.4285 23.9975Z" fill="black"/>
<path d="M64.1187 95.1573C64.1187 96.5217 53.357 97.6229 40.0706 97.6229C26.7927 97.6229 16.0225 96.5217 16.0225 95.1573C16.0225 93.7929 26.7927 92.6917 40.0706 92.6917C53.3485 92.6917 64.1187 93.7929 64.1187 95.1573Z" fill="#DDD8BF"/>
<path d="M57.5647 71.3253C59.5453 76.9898 63.2006 74.8437 64.0761 75.4979C65.6827 76.6946 62.8011 79.8939 60.9649 79.9817C50.9258 80.4604 51.9203 72.171 50.9258 71.6444C50.9258 71.6444 55.9751 66.7857 57.5647 71.3253Z" fill="#FFB103"/>
<path d="M64.8241 75.0997C65.3256 76.1131 64.8581 77.31 63.7871 77.7808L61.2114 78.9138C60.1403 79.3846 58.8567 78.9457 58.3552 77.9324L57.1566 75.5147C56.6551 74.5013 57.1226 73.3044 58.1937 72.8336L60.7693 71.7086C61.8489 71.2378 63.124 71.6767 63.6255 72.69L64.8241 75.0997Z" fill="#C9A88B"/>
<path d="M63.3195 72.0755C63.651 72.7537 63.345 73.5517 62.6224 73.8629L61.4919 74.3576C60.7778 74.6768 59.9278 74.3815 59.5877 73.7033C59.2562 73.033 59.5622 72.2351 60.2763 71.9159L61.4068 71.4211C62.1294 71.1099 62.988 71.4052 63.3195 72.0755Z" fill="#F4D9BD"/>
<path d="M57.5561 68.3098C59.7662 70.3841 59.7577 73.7429 57.5561 75.8173C55.3459 77.8916 51.7672 77.8916 49.557 75.8173C47.3469 73.7429 47.3469 70.3841 49.557 68.3098C51.7672 66.2354 55.3459 66.2354 57.5561 68.3098Z" fill="#FFB103"/>
<path d="M52.0901 73.4399C50.5685 72.0116 49.4464 70.5434 48.9024 69.4024C48.3669 70.9344 49.0299 73.041 50.781 74.6687C52.5236 76.3045 54.7678 76.9349 56.3914 76.4322C55.1673 75.9215 53.6117 74.8682 52.0901 73.4399Z" fill="#2A5B6A"/>
<path d="M50.7305 67.6875C51.946 68.1981 53.5017 69.2514 55.0233 70.6797C56.5449 72.1079 57.6669 73.5681 58.2195 74.7091C58.755 73.1771 58.0835 71.0786 56.3408 69.4429C54.6067 67.8151 52.3626 67.1848 50.7305 67.6875Z" fill="#2A5B6A"/>
<path d="M32.2077 95.1577H28.9775V86.8913H35.4294L32.2077 95.1577Z" fill="#2A5B6A"/>
<path d="M48.9119 95.1576H52.1421V86.8913H45.6816L48.9119 95.1576Z" fill="#2A5B6A"/>
<path d="M29.4361 69.3388C27.855 71.9477 26.9199 75.1231 26.9199 78.5698C26.9199 82.0085 27.396 85.1919 28.9771 87.8008C32.1223 89.1093 36.4066 89.8832 40.5549 89.8832C44.7032 89.8832 48.996 89.1093 52.1412 87.8008C53.7138 85.1919 54.1898 82.0165 54.1898 78.5698C54.1898 75.1311 53.2547 71.9477 51.6736 69.3388C48.5284 68.0303 44.6947 67.2564 40.5549 67.2564C36.4066 67.2564 32.5813 68.0303 29.4361 69.3388Z" fill="#D33605"/>
<path d="M62.0452 55.8313C62.0452 63.8097 55.1512 70.2881 46.6421 70.2881H34.6648C26.1557 70.2881 19.2617 63.8177 19.2617 55.8313C19.2617 47.845 26.1642 41.3746 34.6648 41.3746H46.6421C55.1512 41.3746 62.0452 47.845 62.0452 55.8313Z" fill="#F4D9BD"/>
<path d="M35.8885 55.1534C34.5029 55.1534 33.3809 56.2066 33.3809 57.5072H38.3877C38.3877 56.2146 37.2656 55.1534 35.8885 55.1534Z" fill="#2A5B6A"/>
<path d="M40.8273 67.2566C42.2129 67.2566 43.335 66.2034 43.335 64.9028H38.3281C38.3281 66.2034 39.4502 67.2566 40.8273 67.2566Z" fill="#F2F1E7"/>
<path d="M57.0467 55.1534C55.6611 55.1534 54.5391 56.2066 54.5391 57.5072H59.5459C59.5459 56.2146 58.4323 55.1534 57.0467 55.1534Z" fill="#2A5B6A"/>
<path d="M40.8357 53.4064L30.9326 54.707V52.1217L40.8357 49.2092V53.4064Z" fill="#0C3841"/>
<path d="M53.0508 53.4064L61.0413 54.707V52.1137L53.0508 49.2092V53.4064Z" fill="#0C3841"/>
<path d="M28.9775 92.1652V95.1571H32.2077L33.3723 92.1652H28.9775Z" fill="#F15A24"/>
<path d="M47.7471 92.1652L48.9117 95.1571H52.1419V92.1652H47.7471Z" fill="#F15A24"/>
<path d="M17.7994 42.4753C17.7994 42.4753 16.9749 58.0812 18.9215 62.5571C20.4431 66.0836 25.0334 68.1899 25.0334 68.1899C25.0334 63.1395 22.9933 52.3048 27.9576 48.7624C32.2929 45.6667 45.7323 46.2172 47.781 48.7624C48.2315 49.3288 48.4525 51.5229 48.4525 51.5229C48.4525 51.5229 65.7512 44.6136 62.6315 40.6882C55.8565 32.1512 17.7994 42.4753 17.7994 42.4753Z" fill="#0C3841"/>
<path d="M64.4249 32.2314C64.4759 35.6701 61.5347 38.5024 57.8879 38.8215C44.9161 39.9305 32.2842 43.3134 20.6384 48.7865C17.3572 50.3264 13.2684 49.3689 11.3813 46.4169C9.49415 43.4809 10.9222 39.4279 14.6965 37.6567C27.8214 31.4894 42.0684 27.6757 56.6808 26.4231C60.8886 26.0561 64.3739 28.7927 64.4249 32.2314Z" fill="#EB4900"/>
<path d="M21.6073 34.6646C20.7063 35.0236 19.8137 35.3906 18.9297 35.7656C20.7488 39.5474 22.5679 43.3292 24.3955 47.1111C25.186 46.776 25.9766 46.4488 26.7756 46.1297C25.05 42.308 23.3244 38.4863 21.6073 34.6646Z" fill="#D33605"/>
<path d="M36.5432 29.8297C35.5996 30.069 34.6646 30.3163 33.7295 30.5796C34.9961 34.5529 36.2542 38.5342 37.5207 42.5075C38.3538 42.2762 39.1783 42.0528 40.0199 41.8453C38.8553 37.8321 37.6992 33.8269 36.5432 29.8297Z" fill="#D33605"/>
<path d="M52.0312 26.9096C51.0622 27.0292 50.0931 27.1569 49.124 27.3085C49.8126 31.4014 50.5011 35.5024 51.1812 39.6033C52.0397 39.4756 52.8983 39.3639 53.7568 39.2602C53.1873 35.1354 52.6093 31.0185 52.0312 26.9096Z" fill="#D33605"/>
<path d="M44.4997 90.1704C40.683 91.814 36.1692 90.2422 34.4181 86.6599C32.667 83.0776 34.3416 78.841 38.1583 77.1975C41.9751 75.5539 49.3281 75.9049 51.0792 79.4873C52.8303 83.0696 48.3165 88.5269 44.4997 90.1704Z" fill="#B39471"/>
<path d="M42.5275 85.4556C41.4139 85.9344 40.0963 85.4795 39.5862 84.4343C39.0762 83.389 39.5692 82.1523 40.6743 81.6735C41.7879 81.1948 43.1055 81.6496 43.6156 82.6948C44.1256 83.7481 43.6326 84.9769 42.5275 85.4556Z" fill="#735846"/>
<path d="M38.4617 82.353L36.8154 83.0606L38.8828 87.2974L40.529 86.5897L38.4617 82.353Z" fill="#BAAF98"/>
<path d="M46.03 83.5325L44.5254 80.4369L63.7622 72.5222L64.9778 75.0195L46.03 83.5325Z" fill="#BAAF98"/>
<path d="M64.9773 75.0196L63.7617 72.5222L68.7431 72.5302L68.9046 75.2031L64.9773 75.0196Z" fill="#BAAF98"/>
<path d="M63.9532 72.7983L38.1465 84.0243L38.2573 84.2487L64.064 73.0227L63.9532 72.7983Z" fill="#0C3841"/>
<path d="M38.9995 85.7586L38.8975 85.5352L64.7478 74.4133L64.8583 74.6367L38.9995 85.7586Z" fill="#0C3841"/>
<path d="M38.6261 84.9846L38.5156 84.7613L64.3658 73.6313L64.4763 73.8547L38.6261 84.9846Z" fill="#0C3841"/>
<path d="M27.1071 75.1471C28.6542 80.4687 31.8504 83.5403 32.6835 84.2424C36.0497 87.0668 38.7614 82.543 37.4608 81.3223C30.3798 74.6285 28.0081 69.8494 27.4386 68.9159C27.4471 68.9159 25.764 70.5355 27.1071 75.1471Z" fill="#FFB103"/>
<path d="M34.9873 87.5224C35.8289 88.3124 37.189 88.3124 38.0305 87.5224L40.0367 85.6393C40.8782 84.8493 40.8782 83.5726 40.0367 82.7827L38.0305 80.8995C37.189 80.1095 35.8289 80.1095 34.9958 80.8995L32.9812 82.7906C32.1481 83.5806 32.1481 84.8573 32.9897 85.6393L34.9873 87.5224Z" fill="#F4D9BD"/>
<path d="M23.894 75.1391C26.1041 77.2135 29.6829 77.2056 31.893 75.1391C34.1032 73.0647 34.1032 69.7058 31.893 67.6314C29.6829 65.557 26.1041 65.557 23.894 67.6314C21.6838 69.7058 21.6838 73.0647 23.894 75.1391Z" fill="#FFB103"/>
<path d="M29.3592 70.0095C27.8376 68.5812 26.282 67.5279 25.0664 67.0092C26.6985 66.5065 28.9341 67.1369 30.6852 68.7727C32.4279 70.4084 33.0994 72.515 32.5554 74.039C32.0113 72.898 30.8808 71.4378 29.3592 70.0095Z" fill="#2A5B6A"/>
<path d="M23.2305 68.7324C23.783 69.8734 24.8966 71.3336 26.4267 72.7698C27.9483 74.1981 29.5039 75.2514 30.7195 75.7621C29.0874 76.2648 26.8517 75.6344 25.1091 74.0066C23.3665 72.3629 22.695 70.2644 23.2305 68.7324Z" fill="#2A5B6A"/>
<g filter="url(#filter0_d_1460_7687)">
<path d="M58 80.0881C58 89.5299 50.1694 97.1761 40.5 97.1761C30.8306 97.1761 23 89.5299 23 80.0881C23 70.6462 30.8306 63 40.5 63C50.1694 63 58 70.6462 58 80.0881Z" fill="url(#paint0_linear_1460_7687)"/>
<path d="M40.5004 92.6422C47.601 92.6422 53.3572 87.0215 53.3572 80.0881C53.3572 73.1546 47.601 67.5339 40.5004 67.5339C33.3997 67.5339 27.6436 73.1546 27.6436 80.0881C27.6436 87.0215 33.3997 92.6422 40.5004 92.6422Z" fill="url(#paint1_linear_1460_7687)"/>
<path d="M40.5004 69.7185C47.2123 69.7185 52.6677 74.7612 53.2347 81.1804C53.9242 73.4145 47.6721 67.5488 40.5004 67.5488C33.3288 67.5488 27.0613 73.3995 27.7662 81.1804C28.3332 74.7612 33.7885 69.7185 40.5004 69.7185Z" fill="#D48031"/>
<path opacity="0.53" d="M42.538 79.9384L47.6562 73.2499L44.6833 71.0802L40.6378 76.3622L36.3471 71.0503L33.4355 73.2948L38.8143 79.9684V80.6417H35.5043V83.8289H38.8449C38.8449 94.4079 38.8449 79.7888 38.8449 90.6222H42.5533C42.5533 79.8337 42.5533 94.752 42.5533 83.8289H45.8939V80.6417H42.5533V79.9384H42.538Z" fill="#FFF297"/>
</g>
<defs>
<filter id="filter0_d_1460_7687" x="13" y="53" width="55" height="54.1761" filterUnits="userSpaceOnUse" color-interpolation-filters="sRGB">
<feFlood flood-opacity="0" result="BackgroundImageFix"/>
<feColorMatrix in="SourceAlpha" type="matrix" values="0 0 0 0 0 0 0 0 0 0 0 0 0 0 0 0 0 0 127 0" result="hardAlpha"/>
<feOffset/>
<feGaussianBlur stdDeviation="5"/>
<feComposite in2="hardAlpha" operator="out"/>
<feColorMatrix type="matrix" values="0 0 0 0 0 0 0 0 0 0 0 0 0 0 0 0 0 0 0.5 0"/>
<feBlend mode="normal" in2="BackgroundImageFix" result="effect1_dropShadow_1460_7687"/>
<feBlend mode="normal" in="SourceGraphic" in2="effect1_dropShadow_1460_7687" result="shape"/>
</filter>
<linearGradient id="paint0_linear_1460_7687" x1="40.5031" y1="76.9833" x2="40.5031" y2="98.044" gradientUnits="userSpaceOnUse">
<stop stop-color="#FFF297"/>
<stop offset="1" stop-color="#FAC823"/>
</linearGradient>
<linearGradient id="paint1_linear_1460_7687" x1="40.5036" y1="93.3435" x2="40.5036" y2="74.0708" gradientUnits="userSpaceOnUse">
<stop stop-color="#F6AA39"/>
<stop offset="1" stop-color="#FAC823"/>
</linearGradient>
</defs>
</svg>
