<svg width="62" height="56" viewBox="0 0 62 56" fill="none" xmlns="http://www.w3.org/2000/svg">
<path d="M57.8057 31.7124C60.0211 18.6315 49.7747 6.23036 34.9197 4.01368C20.0648 1.797 6.2266 10.6042 4.01125 23.6851C1.7959 36.766 12.0423 49.1672 26.8972 51.3838C41.7522 53.6005 55.5904 44.7933 57.8057 31.7124Z" fill="#231815"/>
<path d="M55.6095 31.3848C57.6438 19.3725 48.2339 7.98439 34.5918 5.94868C20.9497 3.91297 8.24135 12.0006 6.20698 24.0129C4.17262 36.0252 13.5826 47.4133 27.2247 49.449C40.8668 51.4847 53.5751 43.3971 55.6095 31.3848Z" fill="white"/>
<path d="M29.8708 50.3266C29.8708 50.3266 19.6568 55.7935 12.1182 52.7167C12.1182 52.7167 18.4517 48.933 18.4446 47.4922C18.4446 47.4855 27.8337 51.7001 29.8708 50.3266Z" fill="#231815"/>
<path d="M22.9276 46.1792C22.9276 46.1792 17.7489 51.9155 16.4004 51.9694C16.4004 51.9694 23.774 52.3397 30.129 47.6604L22.9276 46.1792Z" fill="white"/>
</svg>
