<svg width="72" height="72" viewBox="0 0 72 72" fill="none" xmlns="http://www.w3.org/2000/svg">
<path d="M72 36C72 55.8914 55.8914 72 36 72C16.1086 72 0 55.8914 0 36C0 16.1086 16.1086 0 36 0C55.8914 0 72 16.1086 72 36Z" fill="url(#paint0_linear_1416_7027)"/>
<path d="M36.0001 62.4481C50.6071 62.4481 62.4484 50.6069 62.4484 35.9999C62.4484 21.393 50.6071 9.55173 36.0001 9.55173C21.3931 9.55173 9.55176 21.393 9.55176 35.9999C9.55176 50.6069 21.3931 62.4481 36.0001 62.4481Z" fill="url(#paint1_linear_1416_7027)"/>
<path d="M35.9992 14.154C49.8066 14.154 61.029 24.7775 62.1954 38.3012C63.6139 21.9404 50.7523 9.58307 35.9992 9.58307C21.2461 9.58307 8.35294 21.9088 9.80303 38.3012C10.9694 24.7775 22.1918 14.154 35.9992 14.154Z" fill="#D48031"/>
<path opacity="0.53" d="M40.1928 35.6848L50.7217 21.5938L44.6061 17.0229L36.2839 28.1507L27.4573 16.9598L21.4678 21.6883L32.5326 35.7478V37.1664H25.7235V43.8809H32.5956C32.5956 66.168 32.5956 35.3695 32.5956 58.1926H40.2243C40.2243 35.4641 40.2243 66.8931 40.2243 43.8809H47.0964V37.1664H40.2243V35.6848H40.1928Z" fill="#FFF297"/>
<defs>
<linearGradient id="paint0_linear_1416_7027" x1="36.0063" y1="29.4592" x2="36.0063" y2="73.8284" gradientUnits="userSpaceOnUse">
<stop stop-color="#FFF297"/>
<stop offset="1" stop-color="#FAC823"/>
</linearGradient>
<linearGradient id="paint1_linear_1416_7027" x1="36.0067" y1="63.9257" x2="36.0067" y2="23.3231" gradientUnits="userSpaceOnUse">
<stop stop-color="#F6AA39"/>
<stop offset="1" stop-color="#FAC823"/>
</linearGradient>
</defs>
</svg>
