<svg width="184" height="30" viewBox="0 0 184 30" fill="none" xmlns="http://www.w3.org/2000/svg">
<path d="M34.64 17.84L34.44 17.53L32.21 13.98L31.28 12.51L23.39 0L23.38 0.02L23.37 0L15.48 12.51L14.55 13.98L12.32 17.53L12.12 17.84L9.17999 22.51L11.49 29.76L16.89 20.2L16.99 20.01L19.03 16.4L19.43 15.7L23.37 8.72L23.38 8.75L23.39 8.72L27.33 15.7L27.73 16.4L29.77 20.01L29.87 20.2L35.27 29.76L37.58 22.51L34.64 17.84Z" fill="#036EB7"/>
<path d="M14.73 11.91L0 0L2.87 13.27L6.44 29.76H11.49L7.2 16.33L10.98 17.98L14.73 11.91Z" fill="#369AD6"/>
<path d="M32.03 11.91L35.78 17.98L39.56 16.33L35.27 29.76H40.32L43.89 13.27L46.76 0L32.03 11.91Z" fill="#369AD6"/>
<path d="M26.57 16.32L23.38 18.77L20.19 16.32L17.59 20.87L23.37 23.4L23.38 23.39L23.39 23.4L29.17 20.87L26.57 16.32Z" fill="#369AD6"/>
<path d="M66.21 26.38C66.11 26.38 66.01 26.38 65.91 26.38C65.51 26.28 65.11 26.08 64.91 25.68C62.51 22.38 60.21 19.28 58.11 16.58C57.81 16.18 57.71 15.78 57.81 15.38C57.91 14.98 58.11 14.58 58.51 14.38C58.81 14.18 59.11 14.08 59.51 14.08H59.81C60.21 14.18 60.61 14.38 60.91 14.68L63.31 17.78H63.41C63.41 17.78 63.41 17.78 63.51 17.78C65.61 16.78 67.61 15.38 69.31 13.78C70.81 12.38 72.01 10.68 72.81 8.78004H55.21C54.81 8.78004 54.41 8.68004 54.21 8.38004C53.91 8.08004 53.81 7.78004 53.81 7.38004C53.81 6.98004 54.01 6.68004 54.21 6.38004C54.51 6.08004 54.91 5.98004 55.21 5.98004H74.71C75.11 5.98004 75.41 6.18004 75.71 6.38004C76.01 6.68004 76.11 6.98004 76.11 7.38004C76.21 8.28004 76.01 9.18004 75.71 9.98004C74.81 12.18 73.41 14.08 71.71 15.78C69.81 17.68 67.51 19.18 65.11 20.38V20.48C66.31 22.18 67.11 23.28 67.51 23.78C67.71 24.18 67.81 24.58 67.71 24.98C67.61 25.38 67.31 25.78 66.91 25.98C66.81 26.28 66.51 26.38 66.21 26.38Z" fill="#009FE8"/>
<path d="M74.71 6.28001C75.11 6.28001 75.41 6.38 75.71 6.68C76.01 6.88 76.11 7.28 76.11 7.58C76.11 8.38 76.01 9.28 75.71 10.08C74.81 12.28 73.41 14.18 71.71 15.88C69.81 17.78 67.61 19.28 65.21 20.48C65.11 20.48 65.11 20.58 65.11 20.68C65.11 20.68 65.11 20.78 65.21 20.78C66.41 22.48 67.21 23.58 67.61 24.08C67.81 24.38 67.91 24.78 67.81 25.18C67.71 25.58 67.51 25.88 67.11 26.08C66.81 26.18 66.51 26.18 66.21 26.18H65.91C65.51 26.08 65.11 25.88 64.91 25.58C62.51 22.28 60.31 19.18 58.11 16.38C57.91 16.08 57.81 15.78 57.91 15.38C58.01 14.98 58.21 14.68 58.51 14.48C58.81 14.28 59.11 14.18 59.41 14.18C59.51 14.18 59.61 14.18 59.71 14.18C60.11 14.28 60.51 14.48 60.71 14.78L63.11 17.88C63.11 17.98 63.21 17.98 63.31 17.98C63.41 17.98 63.41 17.98 63.51 17.98C65.61 16.98 67.61 15.58 69.31 13.98C70.81 12.58 72.11 10.88 72.91 8.98C72.91 8.88 72.91 8.78 72.81 8.78H55.21C54.81 8.78 54.51 8.68 54.21 8.38C53.91 8.18 53.81 7.78 53.81 7.48C53.81 7.18 54.01 6.78 54.21 6.58C54.51 6.28 54.81 6.18 55.21 6.18H74.71V6.28001ZM74.71 6.08H55.21C54.81 6.08 54.41 6.28 54.11 6.48C53.51 7.08 53.51 7.98 54.01 8.58L54.11 8.68001C54.41 8.98001 54.81 9.18001 55.21 9.18001H72.51C71.71 10.98 70.51 12.48 69.01 13.78C67.31 15.38 65.31 16.78 63.21 17.78L60.81 14.68C60.51 14.28 60.11 14.08 59.61 13.98H59.31C58.91 13.98 58.61 14.08 58.31 14.28C57.91 14.48 57.71 14.88 57.61 15.28C57.51 15.68 57.61 16.18 57.91 16.48C60.01 19.18 62.31 22.28 64.71 25.58C64.91 25.98 65.31 26.18 65.71 26.28C65.81 26.28 65.91 26.28 66.11 26.28C66.51 26.28 66.81 26.18 67.11 25.98C67.51 25.78 67.81 25.38 67.91 24.88C68.01 24.38 67.91 23.98 67.61 23.58C67.21 22.98 66.41 21.88 65.21 20.28C67.61 19.08 69.81 17.58 71.71 15.68C73.41 13.98 74.81 11.98 75.71 9.78C76.01 8.98 76.21 8.08 76.11 7.18C76.11 6.78 75.91 6.38 75.61 6.08C75.31 5.78 74.91 5.58 74.51 5.68L74.71 6.08Z" fill="#009FE8"/>
<path d="M102.41 25.68C102.11 25.68 101.81 25.58 101.51 25.48C101.11 25.28 100.81 24.88 100.71 24.48C99.31 18.98 97.51 13.58 95.31 8.28003C95.21 7.88003 95.2101 7.48003 95.4101 7.18003C95.6101 6.78003 95.91 6.58003 96.31 6.48003C96.51 6.38003 96.7101 6.38003 96.9101 6.38003C97.1101 6.38003 97.41 6.48003 97.61 6.58003C98.01 6.78003 98.31 7.08003 98.51 7.48003C100.81 12.78 102.61 18.28 104.11 23.88C104.21 24.28 104.21 24.68 103.91 25.08C103.71 25.48 103.31 25.68 102.81 25.78C102.71 25.68 102.61 25.68 102.41 25.68ZM82.11 25.38C81.81 25.38 81.61 25.28 81.31 25.18C80.51 24.88 80.21 23.88 80.51 23.18V23.08C83.11 18.28 84.81 13.08 85.61 7.78003C85.71 7.38003 85.91 6.98003 86.21 6.68003C86.51 6.48003 86.91 6.28003 87.31 6.28003H87.51C87.91 6.28003 88.31 6.48003 88.61 6.78003C88.91 7.08003 89.01 7.48003 89.01 7.88003C88.31 13.68 86.51 19.28 83.71 24.38C83.51 24.78 83.11 25.08 82.71 25.18C82.51 25.28 82.31 25.38 82.11 25.38Z" fill="#009FE8"/>
<path d="M96.91 6.38002C97.11 6.38002 97.41 6.38002 97.61 6.48002C98.01 6.68002 98.21 6.88002 98.41 7.28002C100.71 12.58 102.51 18.08 104.01 23.68C104.11 24.08 104.01 24.48 103.81 24.78C103.61 25.08 103.21 25.38 102.81 25.48C102.71 25.48 102.61 25.48 102.41 25.48C102.11 25.48 101.81 25.38 101.61 25.28C101.21 25.08 101.01 24.78 100.91 24.38C99.51 18.88 97.71 13.48 95.51 8.18002C95.41 7.88002 95.41 7.48002 95.61 7.18002C95.81 6.88002 96.11 6.58002 96.41 6.48002C96.61 6.38002 96.81 6.38002 96.91 6.38002ZM87.41 6.38002H87.61C88.01 6.38002 88.31 6.58002 88.61 6.88002C88.91 7.18002 89.01 7.48002 88.91 7.88002C88.21 13.68 86.41 19.28 83.61 24.28C83.41 24.68 83.11 24.88 82.71 25.08C82.51 25.18 82.41 25.18 82.21 25.18C82.01 25.18 81.71 25.08 81.51 24.98C81.11 24.78 80.91 24.48 80.71 24.18C80.61 23.78 80.61 23.38 80.81 23.08C83.41 18.38 85.21 13.18 85.91 7.78002C85.91 7.38002 86.21 6.98002 86.51 6.78002C86.71 6.58002 87.01 6.38002 87.41 6.38002ZM96.91 6.08002C96.71 6.08002 96.51 6.08002 96.31 6.18002C95.91 6.28002 95.51 6.58002 95.31 6.98002C95.11 7.38002 95.11 7.78002 95.21 8.18002C97.41 13.48 99.11 18.88 100.61 24.38C100.71 24.88 101.01 25.28 101.41 25.48C101.71 25.68 102.01 25.78 102.41 25.78C102.51 25.78 102.71 25.78 102.81 25.78C103.31 25.68 103.71 25.38 104.01 24.98C104.31 24.58 104.31 24.08 104.21 23.68C102.71 18.08 100.81 12.58 98.61 7.28002C98.41 6.88002 98.11 6.48002 97.71 6.38002C97.41 6.18002 97.11 6.18002 96.91 6.08002ZM87.41 6.08002C87.01 6.08002 86.61 6.18002 86.31 6.48002C85.91 6.78002 85.71 7.18002 85.61 7.58002C84.91 12.98 83.21 18.18 80.61 22.88C80.41 23.28 80.31 23.78 80.51 24.18C80.61 24.58 81.01 24.98 81.41 25.18C81.71 25.28 81.91 25.38 82.21 25.38C82.41 25.38 82.61 25.38 82.81 25.28C83.21 25.18 83.61 24.88 83.81 24.48C86.61 19.38 88.51 13.78 89.21 7.98002C89.31 7.58002 89.11 7.08002 88.81 6.78002C88.51 6.48002 88.11 6.28002 87.61 6.18002L87.41 6.08002Z" fill="#009FE8"/>
<path d="M114.01 26.48C113.61 26.48 113.31 26.38 113.01 26.18C112.71 25.98 112.51 25.58 112.41 25.28C112.31 24.88 112.41 24.58 112.71 24.28C112.91 23.98 113.31 23.78 113.71 23.78C121.51 23.08 126.01 20.28 126.91 15.38H126.81H109.81C109.41 15.38 109.11 15.28 108.81 14.98C108.51 14.68 108.41 14.38 108.41 13.98C108.41 13.58 108.61 13.28 108.81 12.98C109.11 12.68 109.41 12.58 109.81 12.58H128.61C129.11 12.58 129.51 12.78 129.81 13.08C130.11 13.38 130.31 13.78 130.31 14.28C129.91 21.48 124.51 25.68 114.21 26.58L114.01 26.48ZM111.81 8.47999C111.41 8.47999 111.11 8.37999 110.81 8.07999C110.51 7.77999 110.41 7.47999 110.41 7.07999C110.41 6.67999 110.51 6.37999 110.81 6.07999C111.11 5.77999 111.41 5.67999 111.81 5.67999H127.01C127.41 5.67999 127.71 5.77999 128.01 6.07999C128.31 6.37999 128.41 6.67999 128.41 7.07999C128.41 7.47999 128.21 7.77999 128.01 8.07999C127.71 8.37999 127.41 8.47999 127.01 8.47999H111.81Z" fill="#009FE8"/>
<path d="M127.01 5.87999C127.41 5.87999 127.71 5.97999 127.91 6.27999C128.11 6.47999 128.31 6.77999 128.31 7.17999C128.31 7.47999 128.21 7.87999 127.91 8.07999C127.61 8.27999 127.31 8.47999 127.01 8.47999H111.81C111.41 8.47999 111.11 8.37999 110.81 8.07999C110.51 7.87999 110.41 7.47999 110.41 7.17999C110.41 6.87999 110.51 6.57999 110.81 6.27999C111.11 5.97999 111.41 5.87999 111.81 5.87999H127.01ZM128.51 12.58C128.91 12.58 129.31 12.78 129.61 13.08C129.91 13.38 130.11 13.78 130.01 14.18C129.61 21.38 124.21 25.48 114.01 26.38H113.91C113.61 26.38 113.21 26.28 113.01 26.08C112.71 25.88 112.51 25.58 112.41 25.18C112.31 24.88 112.41 24.48 112.61 24.28C112.81 23.98 113.11 23.88 113.51 23.88C121.41 23.18 125.91 20.38 126.81 15.38C126.81 15.38 126.81 15.28 126.71 15.28C126.71 15.28 126.61 15.18 126.51 15.28H109.51C109.21 15.28 108.81 15.18 108.61 14.98C108.11 14.48 108.11 13.78 108.51 13.28C108.51 13.28 108.51 13.28 108.61 13.18C108.81 12.98 109.21 12.78 109.51 12.78L128.51 12.58ZM127.01 5.67999H111.81C111.41 5.67999 111.01 5.87999 110.71 6.07999C110.11 6.57999 110.11 7.47999 110.61 8.07999L110.71 8.17999C111.01 8.47999 111.41 8.57999 111.81 8.57999H127.01C127.41 8.57999 127.81 8.37999 128.11 8.17999C128.71 7.67999 128.71 6.77999 128.21 6.17999L128.11 6.07999C127.81 5.77999 127.41 5.67999 127.01 5.67999ZM128.61 12.48H109.71C109.31 12.48 108.91 12.58 108.61 12.88C108.31 13.18 108.11 13.58 108.11 13.98C108.11 14.38 108.31 14.78 108.61 15.08C108.91 15.38 109.31 15.48 109.71 15.48H126.71C125.71 20.28 121.41 22.98 113.71 23.58C113.31 23.58 112.91 23.78 112.71 24.08C112.41 24.38 112.31 24.78 112.41 25.18C112.51 25.58 112.71 25.98 113.11 26.18C113.41 26.38 113.81 26.58 114.21 26.48H114.31C124.61 25.58 130.11 21.38 130.51 14.08C130.51 13.58 130.41 13.08 130.01 12.78C129.61 12.58 129.11 12.38 128.61 12.48Z" fill="#009FE8"/>
<path d="M138.61 26.38C138.21 26.38 137.91 26.28 137.61 26.08C137.31 25.88 137.01 25.48 137.01 25.08C136.91 24.68 137.01 24.28 137.31 23.98C137.51 23.68 137.91 23.48 138.31 23.48C143.41 22.88 147.31 21.58 149.81 19.68C152.31 17.78 154.11 14.58 155.11 10.28C155.21 9.88 155.41 9.58 155.81 9.28C156.01 9.08 156.31 8.98 156.71 8.98C157.21 8.98 157.71 9.18 158.01 9.58C158.21 9.88 158.31 10.28 158.21 10.68C157.11 15.58 155.01 19.28 152.01 21.78C149.01 24.28 144.61 25.78 138.91 26.38H138.61ZM143.91 15.98H143.61C142.01 15.68 139.91 15.28 137.21 14.78C136.81 14.68 136.41 14.48 136.21 14.18C136.01 13.88 135.91 13.48 136.01 13.08C136.11 12.68 136.31 12.38 136.71 12.18C136.91 11.98 137.21 11.88 137.51 11.88H137.81C140.51 12.38 142.61 12.68 144.21 13.08C144.61 13.18 144.91 13.38 145.11 13.68C145.31 13.98 145.41 14.38 145.31 14.78C145.21 15.18 145.01 15.48 144.71 15.68C144.41 15.88 144.11 15.98 143.91 15.98ZM145.41 9.58C145.31 9.58 145.21 9.58 145.11 9.58C142.71 9.18 140.41 8.78 138.41 8.38C138.01 8.28 137.61 8.08001 137.41 7.78C137.21 7.48 137.11 7.08 137.21 6.68C137.31 6.28 137.51 5.98001 137.81 5.78C138.01 5.58 138.31 5.48 138.61 5.48C138.71 5.48 138.81 5.48 138.91 5.48C140.31 5.68 142.51 6.08 145.61 6.68C146.01 6.78 146.41 6.98001 146.61 7.28C146.81 7.58001 146.91 7.98 146.81 8.38C146.71 8.78 146.51 9.08 146.11 9.28C146.01 9.48 145.71 9.58 145.41 9.58ZM154.41 8.08C154.21 8.08 154.11 8.08 153.91 7.98C153.61 7.88 153.31 7.68001 153.11 7.38L152.01 5.48C151.81 5.18 151.81 4.88 151.91 4.58C152.01 4.28 152.21 3.98 152.51 3.88C152.71 3.78 152.91 3.78 153.11 3.78C153.61 3.78 154.01 3.98 154.21 4.38L155.31 6.38C155.51 6.68 155.51 7.08 155.41 7.38C155.31 7.68001 155.11 7.98 154.71 8.08C154.71 8.08 154.51 8.08 154.41 8.08ZM158.41 7.78C158.21 7.78 158.11 7.78 158.01 7.68C157.71 7.58 157.41 7.38 157.21 7.08C157.01 6.68 156.61 5.98 156.11 5.08C155.81 4.78 155.81 4.48 155.91 4.18C156.01 3.88 156.21 3.58 156.51 3.48C156.71 3.38 156.91 3.38 157.11 3.38C157.21 3.38 157.41 3.38 157.51 3.38C157.81 3.48 158.11 3.68 158.31 3.98L159.51 5.98C159.71 6.28 159.71 6.68 159.61 6.98C159.51 7.28 159.21 7.58 158.91 7.68C158.81 7.78 158.61 7.78 158.41 7.78Z" fill="#009FE8"/>
<path d="M157.21 3.48002C157.31 3.48002 157.41 3.48002 157.61 3.58002C157.91 3.68002 158.21 3.88002 158.31 4.18002L159.51 6.18002C159.71 6.48002 159.71 6.78002 159.61 7.08002C159.51 7.38002 159.31 7.58002 159.01 7.68002C158.81 7.78002 158.71 7.78002 158.51 7.78002C158.41 7.78002 158.21 7.78002 158.11 7.68002C157.81 7.58002 157.51 7.38002 157.41 7.08002C157.21 6.68002 156.81 5.98002 156.31 5.08002C156.21 4.78002 156.11 4.48002 156.21 4.28002C156.31 3.98002 156.51 3.78002 156.81 3.68002C156.81 3.48002 157.01 3.38002 157.21 3.48002ZM153.21 3.78002C153.31 3.78002 153.41 3.78002 153.61 3.88002C153.91 3.98002 154.11 4.18002 154.31 4.38002L155.41 6.28002C155.51 6.58002 155.61 6.88002 155.51 7.18002C155.41 7.48002 155.21 7.68002 154.91 7.78002C154.71 7.88002 154.61 7.88002 154.41 7.88002C154.31 7.88002 154.11 7.88002 154.01 7.78002C153.71 7.68002 153.51 7.48002 153.31 7.28002C152.71 6.18002 152.31 5.58002 152.21 5.38002C152.11 5.18002 152.01 4.88002 152.11 4.58002C152.21 4.28002 152.41 4.08002 152.71 3.98002C152.71 3.88002 152.91 3.78002 153.21 3.78002ZM138.61 5.58002H138.91C140.31 5.78002 142.51 6.18002 145.71 6.78002C146.11 6.88002 146.41 7.08002 146.61 7.28002C146.81 7.58002 146.91 7.98002 146.81 8.28002C146.71 8.68002 146.51 8.98002 146.21 9.08002C146.01 9.18002 145.71 9.28002 145.41 9.28002H145.11C142.71 8.88002 140.51 8.48002 138.41 8.08002C138.01 7.98002 137.71 7.78002 137.51 7.58002C137.31 7.28002 137.21 6.88002 137.31 6.58002C137.41 6.18002 137.61 5.88002 137.91 5.68002C138.11 5.68002 138.41 5.58002 138.61 5.58002ZM156.61 9.08002H156.91C157.31 9.18002 157.61 9.38002 157.81 9.68002C158.01 9.98002 158.11 10.28 158.01 10.68C156.91 15.58 154.81 19.28 151.81 21.68C148.81 24.08 144.51 25.58 138.81 26.18H138.61C138.31 26.18 138.01 26.08 137.71 25.88C137.41 25.68 137.21 25.38 137.11 24.98C137.01 24.58 137.11 24.28 137.41 23.98C137.61 23.68 137.91 23.48 138.31 23.48C143.41 22.88 147.31 21.58 149.81 19.58C152.31 17.58 154.11 14.38 155.11 10.08C155.21 9.68002 155.41 9.38002 155.71 9.18002C156.11 9.08002 156.31 9.08002 156.61 9.08002ZM137.51 12.08C137.61 12.08 137.71 12.08 137.81 12.08C140.41 12.58 142.61 12.88 144.21 13.28C144.61 13.38 144.91 13.58 145.11 13.78C145.51 14.38 145.31 15.18 144.71 15.58C144.51 15.68 144.21 15.78 143.91 15.78C143.81 15.78 143.71 15.78 143.61 15.78C142.01 15.48 139.81 15.08 137.21 14.58C136.81 14.48 136.51 14.28 136.31 14.08C136.11 13.78 136.01 13.48 136.11 13.08C136.21 12.78 136.41 12.38 136.71 12.28C136.91 12.08 137.21 11.98 137.51 12.08ZM157.21 3.08002C157.01 3.08002 156.71 3.18002 156.51 3.28002C156.21 3.38002 155.91 3.68002 155.81 4.08002C155.71 4.38002 155.71 4.78002 155.91 5.08002C156.41 5.98002 156.81 6.68002 157.01 7.08002C157.21 7.38002 157.51 7.68002 157.91 7.78002C158.11 7.78002 158.21 7.88002 158.41 7.88002C158.61 7.88002 158.81 7.88002 159.01 7.78002C159.31 7.58002 159.61 7.38002 159.71 6.98002C159.81 6.68002 159.81 6.28002 159.61 5.98002L158.41 3.98002C158.21 3.68002 157.91 3.38002 157.51 3.28002C157.51 3.18002 157.31 3.18002 157.21 3.08002ZM153.21 3.48002C153.01 3.48002 152.71 3.58002 152.51 3.58002C152.21 3.78002 151.91 3.98002 151.81 4.38002C151.71 4.68002 151.71 5.08002 151.91 5.38002C152.01 5.58002 152.41 6.18002 153.01 7.28002C153.21 7.58002 153.51 7.88002 153.81 7.98002C154.01 8.08002 154.11 8.08002 154.31 8.08002C154.51 8.08002 154.71 8.08002 154.91 7.98002C155.31 7.88002 155.51 7.58002 155.61 7.18002C155.71 6.88002 155.71 6.48002 155.51 6.08002C155.41 5.88002 155.01 5.18002 154.41 4.08002C154.21 3.78002 153.91 3.58002 153.61 3.48002C153.51 3.48002 153.31 3.48002 153.21 3.48002ZM138.71 5.28002C138.41 5.28002 138.11 5.38002 137.81 5.58002C137.41 5.78002 137.21 6.18002 137.11 6.58002C137.01 6.98002 137.11 7.38002 137.41 7.78002C137.61 8.08002 138.01 8.38002 138.41 8.38002C140.51 8.68002 142.71 9.08002 145.11 9.58002C145.21 9.58002 145.31 9.58002 145.41 9.58002C145.71 9.58002 146.01 9.48002 146.31 9.28002C146.71 9.08002 146.91 8.68002 147.01 8.28002C147.11 7.88002 147.01 7.48002 146.71 7.08002C146.41 6.78002 146.11 6.48002 145.61 6.48002C142.41 5.88002 140.21 5.48002 138.81 5.28002C138.91 5.28002 138.81 5.28002 138.71 5.28002ZM156.61 8.78002C156.31 8.78002 156.01 8.88002 155.71 9.08002C155.31 9.28002 155.11 9.68002 155.01 10.08C154.01 14.28 152.31 17.48 149.81 19.48C147.31 21.48 143.41 22.78 138.41 23.28C138.01 23.28 137.61 23.58 137.31 23.88C137.01 24.18 136.91 24.58 137.01 25.08C137.11 25.48 137.31 25.88 137.71 26.18C138.01 26.38 138.41 26.58 138.81 26.48H139.01C144.71 25.88 149.11 24.28 152.21 21.88C155.31 19.48 157.31 15.68 158.41 10.78C158.51 10.38 158.41 9.88002 158.11 9.58002C157.81 9.28002 157.51 8.98002 157.01 8.88002C156.81 8.78002 156.71 8.78002 156.61 8.78002ZM137.51 11.78C137.21 11.78 136.91 11.88 136.61 12.08C136.21 12.28 136.01 12.68 135.91 13.08C135.81 13.48 135.91 13.88 136.21 14.28C136.41 14.58 136.81 14.88 137.21 14.88C139.81 15.38 142.01 15.78 143.61 16.08C143.71 16.08 143.81 16.08 143.91 16.08C144.21 16.08 144.51 15.98 144.81 15.78C145.21 15.58 145.41 15.18 145.51 14.78C145.61 14.38 145.51 13.98 145.31 13.58C145.11 13.28 144.71 12.98 144.31 12.98C142.71 12.68 140.51 12.28 137.91 11.78C137.61 11.78 137.51 11.78 137.51 11.78Z" fill="#009FE8"/>
<path d="M172.71 26.58C172.41 26.58 172.11 26.48 171.81 26.28C171.41 26.08 171.21 25.68 171.11 25.28L169.41 16.28C169.41 16.18 169.41 16.18 169.31 16.18L165.71 16.88C165.61 16.88 165.51 16.88 165.41 16.88C165.11 16.88 164.81 16.78 164.61 16.68C164.31 16.48 164.01 16.18 164.01 15.78C163.91 15.38 164.01 14.98 164.21 14.68C164.41 14.38 164.81 14.18 165.11 14.08L168.71 13.38C168.81 13.38 168.81 13.38 168.81 13.38L168.31 10.58C168.21 10.18 168.31 9.78 168.61 9.48C168.81 9.18 169.21 8.98 169.61 8.88C169.71 8.88 169.81 8.88 169.91 8.88C170.21 8.88 170.51 8.98001 170.81 9.18001C171.11 9.38001 171.41 9.78001 171.41 10.18L171.91 12.78C171.91 12.88 172.01 12.88 172.01 12.88L181.61 11.08H181.91C182.21 11.08 182.51 11.18 182.71 11.28C183.01 11.48 183.21 11.78 183.31 12.18C183.51 12.98 183.51 13.88 183.21 14.68C182.51 16.78 181.31 18.78 179.71 20.28C179.41 20.58 179.01 20.78 178.61 20.78C178.21 20.78 177.81 20.68 177.51 20.38C177.21 20.18 177.01 19.78 177.01 19.38C177.01 18.98 177.11 18.68 177.41 18.38C178.61 17.18 179.61 15.68 180.21 14.08L172.61 15.58C172.51 15.58 172.51 15.58 172.51 15.58L174.21 24.68C174.31 25.08 174.21 25.48 174.01 25.78C173.81 26.08 173.41 26.28 173.01 26.38L172.71 26.58Z" fill="#009FE8"/>
<path d="M170.01 9.08003C170.31 9.08003 170.61 9.18003 170.81 9.28003C171.11 9.48003 171.31 9.78003 171.41 10.18L171.91 12.78C171.91 12.88 172.01 12.98 172.11 12.98H172.21L181.71 11.18H182.01C182.31 11.18 182.51 11.28 182.71 11.38C183.01 11.58 183.21 11.88 183.31 12.18C183.51 12.98 183.51 13.88 183.21 14.68C182.51 16.78 181.31 18.68 179.81 20.28C179.51 20.58 179.21 20.68 178.81 20.68C178.41 20.68 178.01 20.58 177.71 20.28C177.41 20.08 177.31 19.78 177.31 19.38C177.31 19.08 177.41 18.68 177.71 18.48C178.91 17.18 179.91 15.78 180.61 14.08V13.98C180.61 13.98 180.61 13.88 180.51 13.98L172.91 15.48C172.71 15.48 172.71 15.58 172.71 15.78L174.41 24.78C174.51 25.08 174.41 25.48 174.21 25.78C174.01 26.08 173.61 26.28 173.21 26.38H172.81C172.51 26.38 172.21 26.28 172.01 26.18C171.71 25.98 171.51 25.68 171.41 25.28L169.71 16.28C169.71 16.18 169.61 16.08 169.51 16.08H169.41L165.81 16.88H165.51C165.21 16.88 165.01 16.78 164.81 16.68C164.51 16.48 164.31 16.18 164.21 15.88C164.11 15.58 164.21 15.18 164.41 14.88C164.61 14.58 164.91 14.38 165.31 14.38L168.91 13.68C169.11 13.68 169.11 13.58 169.11 13.38L168.61 10.68C168.51 10.28 168.61 9.98003 168.81 9.68003C169.01 9.38003 169.41 9.18003 169.81 9.08003H170.01ZM170.11 8.78003C170.01 8.78003 169.91 8.78003 169.81 8.78003C169.41 8.88003 168.91 9.08003 168.71 9.48003C168.41 9.88003 168.31 10.28 168.41 10.68L168.91 13.38L165.31 14.08C164.91 14.18 164.51 14.38 164.31 14.68C164.01 14.98 164.01 15.48 164.11 15.88C164.21 16.28 164.41 16.58 164.81 16.88C165.11 17.08 165.41 17.18 165.71 17.08H166.01L169.61 16.38L171.31 25.28C171.41 25.68 171.61 26.08 172.01 26.38C172.31 26.58 172.61 26.68 173.01 26.68C173.11 26.68 173.21 26.68 173.31 26.68C173.71 26.58 174.11 26.38 174.41 25.98C174.71 25.58 174.81 25.18 174.71 24.78L173.01 15.78L180.41 14.38C179.81 15.88 178.81 17.28 177.71 18.48C177.41 18.78 177.21 19.18 177.31 19.58C177.31 19.98 177.51 20.38 177.81 20.58C178.11 20.88 178.61 20.98 179.01 20.98C179.41 20.98 179.91 20.78 180.21 20.48C181.81 18.88 183.01 16.88 183.71 14.68C184.01 13.88 184.01 12.98 183.81 12.08C183.61 11.38 183.01 10.88 182.31 10.88H182.01L172.51 12.78L172.01 10.18C171.91 9.78003 171.71 9.38003 171.31 9.08003C171.01 8.88003 170.71 8.78003 170.31 8.78003H170.11Z" fill="#009FE8"/>
</svg>
