<svg width="38" height="25" viewBox="0 0 38 25" fill="none" xmlns="http://www.w3.org/2000/svg">
<path d="M28.0276 14.4345L27.8658 14.1836L26.0615 11.3113L25.309 10.1219L18.9251 0L18.9171 0.0161821L18.909 0L12.5251 10.1219L11.7726 11.3113L9.96833 14.1836L9.80651 14.4345L7.42773 18.213L9.29677 24.079L13.6659 16.344L13.7469 16.1902L15.3974 13.2694L15.7211 12.703L18.909 7.05541L18.9171 7.07968L18.9251 7.05541L22.113 12.703L22.4367 13.2694L24.0872 16.1902L24.1682 16.344L28.5373 24.079L30.4064 18.213L28.0276 14.4345Z" fill="#036EB7"/>
<path d="M11.9181 9.63646L0 0L2.32214 10.7368L5.21065 24.079H9.29664L5.82557 13.2127L8.88399 14.5477L11.9181 9.63646Z" fill="#369AD6"/>
<path d="M25.9155 9.63646L28.9497 14.5477L32.0081 13.2127L28.537 24.079H32.623L35.5115 10.7368L37.8337 0L25.9155 9.63646Z" fill="#369AD6"/>
<path d="M21.4982 13.2047L18.9171 15.187L16.3361 13.2047L14.2324 16.8861L18.9091 18.9331L18.9171 18.925L18.9252 18.9331L23.6019 16.8861L21.4982 13.2047Z" fill="#369AD6"/>
</svg>
