<svg width="339" height="70" viewBox="0 0 339 70" fill="none" xmlns="http://www.w3.org/2000/svg">
<path d="M18.2162 68.7969L18.7778 68.5151C18.9694 68.4122 19.1611 68.3049 19.3483 68.1931L38.7278 56.5644C38.957 56.4289 39.147 56.2357 39.2789 56.0039C39.4109 55.7721 39.4804 55.5098 39.4804 55.2428C39.4804 54.9758 39.4109 54.7135 39.2789 54.4817C39.147 54.2499 38.957 54.0567 38.7278 53.9212L33.7849 50.9782L31.436 49.5694L30.754 49.1579L27.429 47.1452L23.6717 44.909L20.2977 42.8829L16.3576 40.5258L7.3364 35.1185V24.4783L18.3098 31.044L24.8484 34.9665L25.6239 35.4137L31.9797 39.2199L41.0678 44.6719L48.1991 48.8448C48.7153 49.1492 49.3031 49.3096 49.9017 49.3096C50.5004 49.3096 51.0882 49.1492 51.6044 48.8448L55.9857 46.2194C58.7631 44.561 60.8088 41.9055 61.7086 38.7905C62.6056 36.0239 62.5408 33.0338 61.5247 30.3089C60.5086 27.5841 58.6015 25.2857 56.1149 23.7895L19.482 1.8248C19.2993 1.71746 19.1165 1.61012 18.9293 1.51172C18.7421 1.41333 18.4569 1.26573 18.2162 1.15839C16.556 0.395442 14.7516 0.000348016 12.9256 0C12.6671 0 12.413 8.16417e-08 12.1545 0.0268354L11.8202 0.0581433L11.3745 0.102869C9.55899 0.303102 7.80774 0.893454 6.23995 1.83375V1.83375C4.33531 2.9761 2.75892 4.59516 1.66511 6.53244C0.571289 8.46973 -0.00246672 10.6588 7.97145e-06 12.8854C7.97145e-06 13.0792 7.97145e-06 13.2716 7.97145e-06 13.4624V56.4437C7.97145e-06 56.6897 7.97145e-06 56.9312 7.97145e-06 57.1772C0.0015162 59.3297 0.545837 61.4468 1.58228 63.3314V63.3538C1.65359 63.4835 1.72936 63.6132 1.80514 63.7429C1.88091 63.8726 2.03245 64.1141 2.15279 64.2975L2.20627 64.3691C2.30879 64.5256 2.42022 64.6821 2.53164 64.8163C4.29339 67.1792 6.81197 68.8616 9.66416 69.5808C12.5163 70.3 15.5283 70.0121 18.1939 68.7656L18.2162 68.7969ZM19.999 23.4988L18.3276 22.497L10.7505 17.9528L10.1265 17.5772C8.95178 16.7959 8.12165 15.591 7.80823 14.2122C7.49482 12.8334 7.72215 11.3864 8.44311 10.1713C9.16407 8.95611 10.3234 8.06593 11.6807 7.68527C13.038 7.30461 14.4892 7.46265 15.7336 8.12664L23.6227 12.8541L25.566 14.017L25.6328 14.0572H25.6685L42.6723 24.2815L52.3621 30.0958C52.9816 30.4653 53.522 30.9544 53.9519 31.5348C54.3819 32.1151 54.6929 32.7753 54.867 33.4771C54.977 33.9159 55.0338 34.3664 55.0363 34.8189C55.0363 35.4409 54.9292 36.0582 54.7199 36.6437C54.6031 36.9867 54.4538 37.3177 54.2742 37.6321C53.9056 38.2561 53.4177 38.8009 52.8385 39.235C52.2593 39.669 51.6003 39.9839 50.8994 40.1614C50.1985 40.3389 49.4695 40.3755 48.7544 40.2692C48.0393 40.1629 47.3522 39.9157 46.7327 39.5419L39.1111 34.9709L31.9797 30.6952L25.6239 26.8845L20.057 23.5346L19.999 23.4988ZM12.6894 62.6516H12.4309L12.1367 62.6203L11.9138 62.589L11.584 62.5219L11.3879 62.4727C11.2765 62.4414 11.1695 62.4101 11.0625 62.3698L10.8486 62.2938L10.5812 62.182L10.3449 62.0702L10.1087 61.9449L9.88141 61.8063C9.79994 61.7567 9.72109 61.703 9.64518 61.6453L9.45798 61.5111C9.36884 61.4351 9.27524 61.3635 9.19056 61.2875L9.07467 61.1801C8.97216 61.0817 8.86964 60.9833 8.77604 60.8805L8.72256 60.8178C8.62005 60.6971 8.51753 60.5763 8.42393 60.4511L8.40165 60.4198C8.29849 60.276 8.20326 60.1267 8.11639 59.9725C8.02593 59.8276 7.94263 59.6784 7.8668 59.5253V59.4984C7.79994 59.3508 7.73754 59.2032 7.68405 59.0512L7.65731 58.9841C7.60828 58.8499 7.56817 58.7068 7.53251 58.5681L7.50131 58.4429C7.47011 58.3177 7.44783 58.1924 7.42554 58.0717L7.3988 57.8704C7.3988 57.7676 7.37206 57.6602 7.3676 57.5573V57.3158V57.1235V56.7747C7.3676 56.6718 7.3676 56.5734 7.3988 56.4705C7.3988 56.5689 7.37651 56.6718 7.3676 56.7702V43.6701L13.1663 47.1452L16.3576 49.0595L20.2977 51.421L23.6717 53.4471L26.6624 55.2361L25.6239 55.8578L25.566 55.8936L23.5915 57.0833L15.5999 61.8778C15.456 61.9681 15.3072 62.0503 15.1542 62.1238H15.1274C14.9803 62.1909 14.8332 62.2491 14.6817 62.3027L14.6059 62.334C14.4722 62.3788 14.3385 62.419 14.2003 62.4548L14.0533 62.4951L13.7056 62.5621L13.4827 62.5934L13.193 62.6248H12.9345L12.6894 62.6516Z" fill="#C1A678"/>
<path d="M86.2358 37.1491H95.355C100.302 37.1491 105.161 33.0477 106.141 28.0071C107.122 22.9666 103.913 18.8652 98.9831 18.8652H89.8683C84.9209 18.8652 80.0627 22.9666 79.0821 28.0071L76.7243 39.8684C75.7259 44.9134 78.9528 49.0147 83.8824 49.0147H99.9592L100.877 44.3901H84.8006C82.3581 44.3901 80.7892 42.3596 81.2616 39.8684L82.0416 35.9638C83.2939 36.7625 84.7522 37.1746 86.2358 37.1491V37.1491ZM88.9501 23.4899H98.056C100.503 23.4899 102.067 25.5159 101.595 28.0071C101.122 30.4984 98.7067 32.5244 96.2464 32.5244H87.1584C84.7114 32.5244 83.1247 30.4984 83.6194 28.0071C84.1142 25.5159 86.5076 23.4899 88.9501 23.4899V23.4899Z" fill="#4D4D4D"/>
<path d="M135.942 19.2231H132.376C132.232 19.2303 132.095 19.2844 131.985 19.3772C131.874 19.4701 131.798 19.5966 131.766 19.7375L127.518 41.1297C127.324 42.0222 126.842 42.8254 126.146 43.4149C125.451 44.0044 124.581 44.3472 123.672 44.3902C121.911 44.3902 120.765 42.9277 121.122 41.1297L125.37 19.7375C125.386 19.6759 125.387 19.6116 125.374 19.5494C125.361 19.4873 125.334 19.429 125.294 19.3792C125.255 19.3293 125.205 19.2893 125.147 19.2623C125.09 19.2352 125.027 19.2218 124.964 19.2231H121.456C121.313 19.2303 121.175 19.2844 121.065 19.3772C120.955 19.4701 120.878 19.5966 120.846 19.7375L116.598 41.1297C116.404 42.0222 115.922 42.8254 115.226 43.4149C114.531 44.0044 113.661 44.3472 112.752 44.3902C110.991 44.3902 109.846 42.9277 110.202 41.1297L114.45 19.7375C114.466 19.6759 114.467 19.6116 114.454 19.5494C114.441 19.4873 114.414 19.429 114.374 19.3792C114.335 19.3293 114.285 19.2893 114.228 19.2623C114.17 19.2352 114.107 19.2218 114.044 19.2231H110.536C110.393 19.2303 110.255 19.2844 110.145 19.3772C110.035 19.4701 109.958 19.5966 109.926 19.7375L105.678 41.1297C104.818 45.477 107.586 49.0148 111.851 49.0148C114.032 48.9576 116.124 48.1382 117.766 46.698C118.367 47.4439 119.131 48.0411 119.999 48.4435C120.867 48.846 121.815 49.043 122.771 49.0193C127.041 49.0193 131.213 45.4815 132.078 41.1342L136.325 19.7419C136.341 19.6819 136.344 19.6191 136.332 19.558C136.321 19.4969 136.296 19.4393 136.259 19.3893C136.222 19.3394 136.174 19.2985 136.119 19.2697C136.065 19.2409 136.004 19.225 135.942 19.2231Z" fill="url(#paint0_linear_2292_10256)"/>
<path d="M164.101 19.223C157.697 19.223 151.43 24.5364 150.133 31.0619L146.67 48.5049C146.653 48.5664 146.651 48.6311 146.663 48.6937C146.676 48.7563 146.703 48.8149 146.743 48.865C146.782 48.9151 146.833 48.9551 146.891 48.9819C146.948 49.0087 147.012 49.0215 147.075 49.0192H150.601C150.744 49.0126 150.882 48.9586 150.991 48.8655C151.101 48.7725 151.177 48.6457 151.207 48.5049L154.661 31.044C155.45 27.0679 159.27 23.8298 163.174 23.8298C167.079 23.8298 169.619 27.0858 168.83 31.044L165.358 48.487C165.342 48.5482 165.339 48.6124 165.352 48.6747C165.364 48.7369 165.391 48.7953 165.43 48.8453C165.469 48.8952 165.519 48.9354 165.576 48.9625C165.634 48.9896 165.696 49.0029 165.759 49.0013H169.29C169.432 48.9932 169.569 48.9387 169.678 48.8459C169.788 48.7531 169.864 48.6271 169.896 48.487L173.381 31.044C174.665 24.5364 170.511 19.223 164.101 19.223Z" fill="url(#paint1_linear_2292_10256)"/>
<path d="M142.953 44.3902C141.17 44.3902 140.042 42.9276 140.399 41.1297L143.189 27.0858C143.205 27.024 143.207 26.9592 143.195 26.8964C143.182 26.8337 143.155 26.7748 143.116 26.7244C143.076 26.674 143.026 26.6336 142.968 26.6062C142.91 26.5789 142.847 26.5655 142.783 26.567H139.258C139.113 26.5744 138.975 26.6292 138.865 26.7229C138.755 26.8167 138.678 26.9442 138.647 27.0858L135.861 41.1297C134.997 45.477 137.764 49.0148 142.03 49.0148C142.173 49.0041 142.309 48.9467 142.417 48.8515C142.525 48.7562 142.598 48.6282 142.627 48.487L143.34 44.909C143.358 44.8486 143.361 44.785 143.349 44.7232C143.338 44.6615 143.312 44.6032 143.275 44.553C143.237 44.5027 143.189 44.4619 143.133 44.4336C143.077 44.4054 143.015 44.3905 142.953 44.3902Z" fill="url(#paint2_linear_2292_10256)"/>
<path d="M139.614 24.7825H143.14C143.284 24.7751 143.422 24.7203 143.532 24.6266C143.643 24.5328 143.719 24.4053 143.75 24.2637L144.642 19.7464C144.658 19.6849 144.659 19.6205 144.646 19.5583C144.633 19.4962 144.606 19.4379 144.566 19.3881C144.527 19.3383 144.477 19.2982 144.42 19.2712C144.362 19.2441 144.299 19.2307 144.236 19.232H140.711C140.567 19.2392 140.429 19.2933 140.319 19.3862C140.209 19.479 140.132 19.6055 140.1 19.7464L139.209 24.2637C139.192 24.3255 139.19 24.3903 139.203 24.4531C139.215 24.5158 139.242 24.5747 139.282 24.6251C139.321 24.6755 139.372 24.7159 139.429 24.7432C139.487 24.7706 139.55 24.784 139.614 24.7825V24.7825Z" fill="url(#paint3_linear_2292_10256)"/>
<path d="M205 30.7264H198.314C198.171 30.7331 198.034 30.7871 197.924 30.8801C197.815 30.9732 197.739 31.1 197.708 31.2408L196.991 34.8188C196.974 34.8804 196.972 34.9451 196.984 35.0077C196.997 35.0702 197.024 35.1289 197.064 35.179C197.103 35.2291 197.154 35.2691 197.212 35.2959C197.269 35.3227 197.333 35.3355 197.396 35.3332H204.082C206.524 35.3332 208.093 37.3637 207.616 39.8505C207.14 42.3372 204.733 44.3722 202.268 44.3722H193.171C190.724 44.3722 189.16 42.3417 189.632 39.8505L191.99 27.9892C192.485 25.498 194.874 23.472 197.338 23.472H212.854C212.989 23.4625 213.118 23.4115 213.223 23.3258C213.328 23.2402 213.405 23.1241 213.442 22.9934L214.155 19.4153C214.172 19.3541 214.174 19.2899 214.161 19.2277C214.149 19.1654 214.122 19.107 214.083 19.057C214.044 19.0071 213.994 18.9669 213.937 18.9398C213.88 18.9127 213.817 18.8994 213.754 18.901H198.239C193.291 18.901 188.433 23.0023 187.448 28.0429L185.095 39.9041C184.092 44.9492 187.323 49.0505 192.253 49.0505H201.368C206.315 49.0505 211.173 44.9492 212.158 39.9041C213.143 34.8591 209.93 30.7264 205 30.7264Z" fill="#808080"/>
<path d="M328.832 30.7265H322.146C322.003 30.7346 321.867 30.7892 321.757 30.8819C321.648 30.9747 321.572 31.1007 321.54 31.2409L320.827 34.8189C320.81 34.8801 320.808 34.9444 320.82 35.0066C320.833 35.0688 320.86 35.1272 320.899 35.1772C320.938 35.2272 320.988 35.2673 321.045 35.2944C321.102 35.3215 321.165 35.3348 321.228 35.3332H327.914C330.361 35.3332 331.925 37.3638 331.453 39.8505C330.98 42.3373 328.564 44.3723 326.104 44.3723H317.003C314.56 44.3723 312.991 42.3418 313.468 39.8505L315.822 27.9893C316.316 25.4981 318.71 23.472 321.17 23.472H336.685C336.821 23.4638 336.95 23.4133 337.056 23.3275C337.161 23.2417 337.238 23.1249 337.274 22.9935L337.987 19.4154C338.004 19.3542 338.007 19.2895 337.995 19.2269C337.983 19.1643 337.957 19.1054 337.917 19.0552C337.878 19.005 337.828 18.9648 337.77 18.938C337.712 18.9112 337.649 18.8985 337.586 18.9011H322.07C317.123 18.9011 312.265 23.0024 311.284 28.043L308.926 39.9042C307.928 44.9492 311.155 49.0506 316.085 49.0506H325.204C330.151 49.0506 335.009 44.9492 335.99 39.9042C336.971 34.8592 333.779 30.7265 328.832 30.7265Z" fill="#808080"/>
<path d="M263.054 19.2231C260.869 19.2784 258.771 20.0996 257.126 21.5444C256.524 20.7979 255.76 20.2003 254.891 19.7978C254.022 19.3953 253.073 19.1987 252.116 19.2231C247.851 19.2231 243.679 22.7609 242.814 27.1082L238.567 48.487C238.551 48.5486 238.549 48.6129 238.563 48.6751C238.576 48.7372 238.603 48.7955 238.642 48.8453C238.682 48.8952 238.732 48.9352 238.789 48.9622C238.846 48.9893 238.909 49.0027 238.972 49.0014H242.498C242.642 48.9942 242.779 48.9401 242.889 48.8472C243 48.7544 243.077 48.6279 243.109 48.487L247.37 27.1082C247.564 26.2161 248.047 25.4132 248.742 24.8239C249.437 24.2345 250.307 23.8914 251.216 23.8477C252.999 23.8477 254.127 25.3102 253.77 27.1082L249.504 48.487C249.488 48.5486 249.486 48.6133 249.498 48.6759C249.511 48.7384 249.538 48.7971 249.578 48.8472C249.617 48.8973 249.668 48.9373 249.726 48.9641C249.783 48.9909 249.847 49.0037 249.91 49.0014H253.436C253.581 48.9977 253.722 48.945 253.834 48.8517C253.946 48.7585 254.024 48.63 254.055 48.487L258.289 27.1082C258.484 26.2161 258.967 25.4132 259.662 24.8239C260.357 24.2345 261.227 23.8914 262.136 23.8477C263.919 23.8477 265.046 25.3102 264.69 27.1082L260.442 48.487C260.426 48.5482 260.423 48.6125 260.436 48.6747C260.448 48.7369 260.475 48.7954 260.514 48.8453C260.553 48.8953 260.603 48.9355 260.66 48.9625C260.717 48.9896 260.78 49.0029 260.843 49.0014H264.373C264.517 48.9948 264.654 48.9407 264.764 48.8477C264.873 48.7547 264.949 48.6279 264.98 48.487L269.209 27.1082C270.101 22.7609 267.324 19.2231 263.054 19.2231Z" fill="#808080"/>
<path d="M298.47 19.223C292.065 19.223 285.798 24.5364 284.501 31.0619L281.038 48.5049C281.021 48.5664 281.019 48.6311 281.032 48.6937C281.044 48.7563 281.072 48.8149 281.111 48.865C281.15 48.9151 281.201 48.9551 281.259 48.9819C281.317 49.0087 281.38 49.0215 281.443 49.0192H284.969C285.112 49.0126 285.25 48.9586 285.359 48.8655C285.469 48.7725 285.545 48.6457 285.575 48.5049L289.038 31.0619C289.827 27.0858 293.647 23.8476 297.551 23.8476C301.456 23.8476 303.974 27.0858 303.199 31.044L299.735 48.487C299.72 48.5485 299.718 48.6128 299.731 48.675C299.744 48.7372 299.772 48.7954 299.811 48.8453C299.85 48.8951 299.9 48.9351 299.958 48.9622C300.015 48.9892 300.078 49.0026 300.141 49.0013H303.667C303.81 48.9942 303.948 48.94 304.058 48.8472C304.168 48.7543 304.245 48.6278 304.277 48.487L307.74 31.044C309.033 24.5364 304.866 19.223 298.47 19.223Z" fill="#808080"/>
<path d="M277.316 44.3902C275.533 44.3902 274.41 42.9276 274.767 41.1297L277.557 27.0858C277.574 27.024 277.576 26.9592 277.563 26.8964C277.55 26.8337 277.523 26.7748 277.484 26.7244C277.444 26.674 277.394 26.6336 277.336 26.6062C277.278 26.5789 277.215 26.5655 277.151 26.567H273.626C273.481 26.5744 273.343 26.6292 273.233 26.7229C273.123 26.8167 273.046 26.9442 273.015 27.0858L270.229 41.1297C269.365 45.477 272.133 49.0148 276.398 49.0148C276.544 49.0069 276.683 48.9508 276.793 48.8553C276.904 48.7599 276.979 48.6303 277.009 48.487L277.722 44.909C277.74 44.8471 277.742 44.7819 277.73 44.7188C277.718 44.6556 277.691 44.5963 277.651 44.5456C277.611 44.495 277.561 44.4545 277.502 44.4275C277.444 44.4005 277.38 44.3877 277.316 44.3902V44.3902Z" fill="#808080"/>
<path d="M273.982 24.7825H277.508C277.654 24.7756 277.794 24.72 277.906 24.6244C278.017 24.5288 278.093 24.3988 278.123 24.2547L279.014 19.7375C279.03 19.6759 279.032 19.6116 279.019 19.5494C279.005 19.4873 278.978 19.429 278.939 19.3792C278.9 19.3293 278.849 19.2893 278.792 19.2623C278.735 19.2352 278.672 19.2218 278.609 19.2231H275.083C274.939 19.2303 274.802 19.2844 274.692 19.3772C274.581 19.4701 274.505 19.5966 274.473 19.7375L273.581 24.2547C273.563 24.3167 273.56 24.3822 273.571 24.4458C273.583 24.5093 273.609 24.5692 273.648 24.6206C273.688 24.672 273.738 24.7135 273.796 24.7416C273.854 24.7697 273.918 24.7837 273.982 24.7825Z" fill="#808080"/>
<path d="M229.986 19.223C223.581 19.223 217.315 24.5364 216.018 31.0619L212.554 48.5049C212.538 48.5664 212.535 48.6311 212.548 48.6937C212.561 48.7563 212.588 48.8149 212.628 48.865C212.667 48.9151 212.718 48.9551 212.775 48.9819C212.833 49.0087 212.896 49.0215 212.96 49.0192H216.486C216.634 49.0146 216.776 48.9594 216.889 48.8626C217.001 48.7658 217.078 48.6333 217.105 48.487L219.503 36.4111H233.663L231.265 48.487C231.25 48.5485 231.248 48.6128 231.261 48.675C231.274 48.7372 231.302 48.7954 231.341 48.8453C231.38 48.8951 231.43 48.9351 231.488 48.9622C231.545 48.9892 231.608 49.0026 231.671 49.0013H235.197C235.34 48.9942 235.478 48.94 235.588 48.8472C235.698 48.7543 235.775 48.6278 235.807 48.487L239.27 31.044C240.563 24.5364 236.404 19.223 229.986 19.223ZM234.729 31.044L234.581 31.7864H220.421L220.568 31.044C221.357 27.0679 225.177 23.8298 229.081 23.8298C232.986 23.8298 235.517 27.0858 234.729 31.044Z" fill="#808080"/>
<defs>
<linearGradient id="paint0_linear_2292_10256" x1="107.082" y1="26.4105" x2="170.276" y2="56.5462" gradientUnits="userSpaceOnUse">
<stop stop-color="#C1A678"/>
<stop offset="1" stop-color="#C7B299"/>
</linearGradient>
<linearGradient id="paint1_linear_2292_10256" x1="113.339" y1="13.2835" x2="176.533" y2="43.4192" gradientUnits="userSpaceOnUse">
<stop stop-color="#C1A678"/>
<stop offset="1" stop-color="#C7B299"/>
</linearGradient>
<linearGradient id="paint2_linear_2292_10256" x1="109.11" y1="22.1615" x2="172.304" y2="52.2928" gradientUnits="userSpaceOnUse">
<stop stop-color="#C1A678"/>
<stop offset="1" stop-color="#C7B299"/>
</linearGradient>
<linearGradient id="paint3_linear_2292_10256" x1="115.287" y1="9.20455" x2="178.481" y2="39.3403" gradientUnits="userSpaceOnUse">
<stop stop-color="#C1A678"/>
<stop offset="1" stop-color="#C7B299"/>
</linearGradient>
</defs>
</svg>
