<svg width="195" height="98" viewBox="0 0 195 98" fill="none" xmlns="http://www.w3.org/2000/svg">
<path d="M58.9334 97.8652L40.9133 43.2078L40.5704 43.15C40.0927 45.1381 39.5841 47.1146 39.141 49.1066C35.6528 64.865 32.1852 80.626 28.7381 96.3895C28.5224 97.372 28.376 98.0077 27.1276 98C18.5241 97.9499 0.927833 97.8921 0.511719 97.8035C7.72437 65.2464 14.9344 32.7035 22.142 0.174645H50.0023C46.8815 14.3071 43.7837 28.324 40.5704 42.861C43.2675 39.8211 45.6601 37.1626 48.022 34.4848C57.3537 23.897 66.7471 13.3593 75.9478 2.65592C77.6431 0.690939 79.2845 0.0205281 81.7966 0.0629101C90.9626 0.209321 100.136 0.120704 109.753 0.120704C107.526 2.75995 105.542 5.12949 103.531 7.48747C93.7753 18.8921 84.089 30.3583 74.1832 41.632C72.2567 43.8127 72.0025 45.5157 72.9349 48.1819C75.7706 56.2383 78.2943 64.4065 80.9027 72.54C81.2263 73.5533 81.5346 74.1544 82.8291 74.1505C104.727 74.1043 126.624 74.0901 148.521 74.1081C148.78 74.0911 149.037 74.0602 149.292 74.0157L153.53 59.0548C148.39 59.0548 143.397 59.0163 138.407 59.0818C137.055 59.0818 136.396 58.8391 136.096 57.3094C135.479 54.0576 134.489 50.8751 133.807 47.6348C133.744 47.232 133.766 46.8205 133.872 46.4269C133.979 46.0333 134.166 45.6664 134.423 45.35C136.851 42.8803 139.401 40.5262 141.96 38.1913C142.431 37.7916 143.022 37.5622 143.64 37.5402C157.125 37.5093 170.61 37.5093 184.095 37.5402C184.364 37.5737 184.629 37.6291 184.889 37.7058C184.188 40.4876 183.506 43.254 182.793 46.0089C178.455 62.8461 174.111 79.6923 169.762 96.5475C169.485 97.634 169.092 97.9962 167.986 97.9962C131.836 97.9679 95.6837 97.9576 59.5306 97.9653C59.3299 97.9427 59.1305 97.9093 58.9334 97.8652Z" fill="#C29931"/>
<path d="M194.919 0.124445C193.74 4.62079 192.642 8.83587 191.532 13.051C190.819 15.748 189.991 18.4065 189.417 21.1228C189.113 22.5407 188.508 22.8951 187.105 22.8913C170.676 22.8412 154.248 22.8913 137.815 22.8296C137.222 22.7924 136.628 22.8919 136.08 23.1203C135.532 23.3488 135.043 23.7002 134.652 24.1473C128.364 30.9053 122.042 37.6325 115.688 44.3289C114.644 45.4308 114.308 46.3979 114.844 48.0007C116.585 53.206 118.065 58.681 119.695 64.0943C119.044 64.156 101.262 64.0327 92.8554 64.0943C91.5531 64.0943 90.9867 63.7514 90.586 62.4453C88.8715 56.82 86.9604 51.2718 85.2497 45.6273C85.1567 45.1951 85.1563 44.7481 85.2487 44.3158C85.341 43.8834 85.5239 43.4756 85.7853 43.1191C91.6109 36.1607 97.5135 29.2717 103.416 22.3788C108.325 16.6483 113.248 10.9331 118.184 5.2334C119.059 4.21623 120.111 3.30695 120.774 2.15108C121.798 0.424973 123.178 0.0782099 125.07 0.0820628C147.47 0.138572 169.869 0.151415 192.264 0.120591L194.919 0.124445Z" fill="#5E5E5E"/>
</svg>
