<svg width="479" height="204" viewBox="0 0 479 204" fill="none" xmlns="http://www.w3.org/2000/svg">
<path opacity="0.4" d="M0 204C0 162.617 107.213 129.081 239.5 129.081C371.787 129.081 479 162.617 479 204" fill="url(#paint0_linear_1659_7140)"/>
<g opacity="0.8">
<path opacity="0.8" d="M250.367 38.4255H204.366C203.131 38.4255 201.947 37.9354 201.074 37.0631C200.201 36.1907 199.71 35.0075 199.71 33.7738C199.71 32.5401 200.201 31.3569 201.074 30.4845C201.947 29.6122 203.131 29.1221 204.366 29.1221H250.367C251.602 29.1221 252.787 29.6122 253.66 30.4845C254.533 31.3569 255.023 32.5401 255.023 33.7738C255.023 35.0075 254.533 36.1907 253.66 37.0631C252.787 37.9354 251.602 38.4255 250.367 38.4255Z" fill="#D9D9D9"/>
</g>
<g opacity="0.8">
<path opacity="0.8" d="M233.047 58.7077H204.366C203.131 58.7077 201.947 58.2177 201.074 57.3453C200.201 56.4729 199.71 55.2897 199.71 54.056C199.71 52.8223 200.201 51.6391 201.074 50.7668C201.947 49.8944 203.131 49.4043 204.366 49.4043H233.047C234.282 49.4043 235.466 49.8944 236.339 50.7668C237.213 51.6391 237.703 52.8223 237.703 54.056C237.703 55.2897 237.213 56.4729 236.339 57.3453C235.466 58.2177 234.282 58.7077 233.047 58.7077Z" fill="#D9D9D9"/>
</g>
<g opacity="0.8">
<path opacity="0.8" d="M221.873 78.5705H204.366C203.131 78.5705 201.947 78.0805 201.074 77.2081C200.201 76.3357 199.71 75.1525 199.71 73.9188C199.71 72.6851 200.201 71.5019 201.074 70.6295C201.947 69.7572 203.131 69.2671 204.366 69.2671H221.873C223.107 69.2671 224.292 69.7572 225.165 70.6295C226.038 71.5019 226.529 72.6851 226.529 73.9188C226.529 75.1525 226.038 76.3357 225.165 77.2081C224.292 78.0805 223.107 78.5705 221.873 78.5705Z" fill="#D9D9D9"/>
</g>
<path d="M299.953 34.2859C300.028 33.6116 299.954 32.929 299.737 32.2862C299.52 31.6433 299.165 31.0557 298.696 30.5646L271.458 1.67732C271.016 1.22651 270.487 0.87032 269.903 0.630407C269.318 0.390494 268.691 0.271894 268.06 0.281826H201.618C196.679 0.281826 191.942 2.24218 188.449 5.73165C184.956 9.22112 182.994 13.9539 182.994 18.8887V115.831C182.994 120.766 184.956 125.498 188.449 128.988C191.942 132.477 196.679 134.438 201.618 134.438H244.128C245.362 134.438 246.547 133.948 247.42 133.075C248.293 132.203 248.784 131.02 248.784 129.786C248.784 128.552 248.293 127.369 247.42 126.497C246.547 125.624 245.362 125.134 244.128 125.134H201.618C199.149 125.134 196.78 124.154 195.034 122.409C193.287 120.664 192.306 118.298 192.306 115.831V18.8422C192.306 16.3748 193.287 14.0084 195.034 12.2637C196.78 10.5189 199.149 9.53875 201.618 9.53875H263.171V33.7742C263.171 35.008 263.661 36.1911 264.534 37.0635C265.408 37.9359 266.592 38.426 267.827 38.426H290.688V79.3146C290.688 80.5484 291.178 81.7315 292.052 82.6039C292.925 83.4763 294.109 83.9664 295.344 83.9664C296.579 83.9664 297.763 83.4763 298.636 82.6039C299.509 81.7315 300 80.5484 300 79.3146V34.5185C299.974 34.4433 299.959 34.3651 299.953 34.2859ZM272.483 16.842L283.937 29.076H272.483V16.842Z" fill="#D9D9D9"/>
<path d="M281.423 105.969C286.214 100.892 288.796 94.1252 288.604 87.1504C288.412 80.1756 285.461 73.5609 280.399 68.7548C275.323 63.9568 268.547 61.3693 261.562 61.5612C254.577 61.7531 247.955 64.7088 243.15 69.7782C238.522 74.669 235.94 81.1427 235.934 87.8734C235.921 94.8402 238.673 101.528 243.586 106.472C248.5 111.415 255.174 114.212 262.147 114.249C265.425 114.251 268.677 113.652 271.738 112.481L286.498 129.413C287.044 130.037 287.717 130.538 288.472 130.883C289.226 131.227 290.045 131.408 290.875 131.414C292.28 131.409 293.636 130.897 294.693 129.972C295.85 128.958 296.559 127.528 296.664 125.993C296.769 124.459 296.261 122.946 295.251 121.785L281.423 105.969ZM247.481 87.8269C247.48 83.9234 249.019 80.177 251.765 77.3994C254.51 74.6218 258.24 73.0368 262.147 72.9879C264.091 72.9818 266.018 73.3583 267.817 74.0961C269.615 74.8338 271.251 75.9183 272.63 77.2876C274.009 78.6569 275.105 80.2842 275.855 82.0766C276.605 83.8689 276.994 85.7913 277 87.7339C277.012 89.686 276.636 91.6212 275.894 93.4271C275.152 95.233 274.059 96.8738 272.677 98.2542C271.295 99.6346 269.653 100.727 267.845 101.468C266.038 102.21 264.101 102.585 262.147 102.573C258.256 102.524 254.54 100.952 251.797 98.1945C249.055 95.437 247.505 91.7143 247.481 87.8269V87.8269Z" fill="#D9D9D9"/>
<defs>
<linearGradient id="paint0_linear_1659_7140" x1="239.5" y1="129.081" x2="239.5" y2="194.5" gradientUnits="userSpaceOnUse">
<stop stop-color="#D9D9D9"/>
<stop offset="1" stop-color="#D9D9D9" stop-opacity="0"/>
</linearGradient>
</defs>
</svg>
