<svg width="26" height="26" viewBox="0 0 26 26" fill="none" xmlns="http://www.w3.org/2000/svg">
<path fill-rule="evenodd" clip-rule="evenodd" d="M12.9334 8.87835C13.3831 8.86624 13.828 8.9751 14.2215 9.19371C14.62 9.41507 14.9507 9.7406 15.1783 10.1355C15.4279 10.5684 15.2793 11.1216 14.8464 11.3712C14.4135 11.6207 13.8602 11.4721 13.6107 11.0392C13.5469 10.9287 13.4543 10.8375 13.3428 10.7755C13.2312 10.7135 13.1049 10.6831 12.9773 10.6874C12.9672 10.6877 12.957 10.6879 12.9469 10.6879H11.3384C11.1518 10.6879 10.9728 10.762 10.8408 10.894C10.7089 11.026 10.6347 11.2049 10.6347 11.3916C10.6347 11.5782 10.7089 11.7572 10.8408 11.8892C10.9728 12.0211 11.1518 12.0953 11.3384 12.0953H12.9469C13.6134 12.0953 14.2527 12.3601 14.724 12.8314C15.1953 13.3027 15.4601 13.942 15.4601 14.6085C15.4601 15.2751 15.1953 15.9143 14.724 16.3856C14.2527 16.857 13.6134 17.1217 12.9469 17.1217H11.3519C10.9022 17.1339 10.4573 17.025 10.0638 16.8064C9.66534 16.585 9.3346 16.2595 9.10696 15.8646C8.8574 15.4317 9.00603 14.8785 9.43893 14.6289C9.87184 14.3793 10.4251 14.528 10.6746 14.9609C10.7384 15.0714 10.831 15.1626 10.9426 15.2246C11.0541 15.2865 11.1804 15.317 11.308 15.3127C11.3181 15.3124 11.3283 15.3122 11.3384 15.3122H12.9469C13.1335 15.3122 13.3125 15.2381 13.4445 15.1061C13.5765 14.9741 13.6506 14.7951 13.6506 14.6085C13.6506 14.4219 13.5765 14.2429 13.4445 14.1109C13.3125 13.9789 13.1335 13.9048 12.9469 13.9048H11.3384C10.6719 13.9048 10.0326 13.64 9.5613 13.1687C9.08998 12.6974 8.8252 12.0581 8.8252 11.3916C8.8252 10.725 9.08998 10.0858 9.5613 9.61446C10.0326 9.14314 10.6719 8.87835 11.3384 8.87835H12.9334Z" fill="#444444"/>
<path fill-rule="evenodd" clip-rule="evenodd" d="M12.143 7.27002C12.6427 7.27002 13.0478 7.6751 13.0478 8.17478V9.78325C13.0478 10.2829 12.6427 10.688 12.143 10.688C11.6434 10.688 11.2383 10.2829 11.2383 9.78325V8.17478C11.2383 7.6751 11.6434 7.27002 12.143 7.27002ZM12.143 15.3123C12.6427 15.3123 13.0478 15.7174 13.0478 16.2171V17.8256C13.0478 18.3253 12.6427 18.7303 12.143 18.7303C11.6434 18.7303 11.2383 18.3253 11.2383 17.8256V16.2171C11.2383 15.7174 11.6434 15.3123 12.143 15.3123Z" fill="#444444"/>
<path fill-rule="evenodd" clip-rule="evenodd" d="M5.80952 13C5.80952 9.50223 8.64505 6.6667 12.1429 6.6667C15.6407 6.6667 18.4762 9.50223 18.4762 13C18.4762 13.082 18.4746 13.1636 18.4715 13.2448C18.7388 13.0892 19.0494 13 19.381 13C19.7091 13 20.0169 13.0874 20.2822 13.2401C20.2846 13.1604 20.2857 13.0803 20.2857 13C20.2857 8.50286 16.64 4.85718 12.1429 4.85718C7.64568 4.85718 4 8.50286 4 13C4 17.4972 7.64568 21.1429 12.1429 21.1429C14.082 21.1429 15.8629 20.465 17.2614 19.3334H16.6667C16.0519 19.3334 15.5087 19.0268 15.1816 18.5581C14.2796 19.0523 13.244 19.3334 12.1429 19.3334C8.64505 19.3334 5.80952 16.4978 5.80952 13Z" fill="#444444"/>
<path fill-rule="evenodd" clip-rule="evenodd" d="M20.2855 14.8095C20.2855 14.3099 19.8805 13.9048 19.3808 13.9048C18.8811 13.9048 18.476 14.3099 18.476 14.8095V16.6191H16.6665C16.1668 16.6191 15.7617 17.0241 15.7617 17.5238C15.7617 18.0235 16.1668 18.4286 16.6665 18.4286H18.476V20.2381C18.476 20.7378 18.8811 21.1429 19.3808 21.1429C19.8805 21.1429 20.2855 20.7378 20.2855 20.2381V18.4286H22.0951C22.5947 18.4286 22.9998 18.0235 22.9998 17.5238C22.9998 17.0241 22.5947 16.6191 22.0951 16.6191H20.2855V14.8095Z" fill="#444444"/>
</svg>
