<svg width="26" height="26" viewBox="0 0 26 26" fill="none" xmlns="http://www.w3.org/2000/svg">
<path fill-rule="evenodd" clip-rule="evenodd" d="M19.6162 10.3C20.0202 10.3 20.3232 10.6 20.3232 11C20.3232 11.4 20.0202 11.7 19.6162 11.7C19.2121 11.7 18.9091 11.4 18.9091 11C18.9091 10.65 19.2121 10.3 19.6162 10.3ZM7.84848 7.4H5.32323V7.8H7.74747L7.84848 7.4ZM4.36364 7.8H3.80808C3.35354 7.8 3 8.1 3 8.55V20.25C3 20.65 3.35354 21 3.75758 21H22.2424C22.6465 21 23 20.65 23 20.25V8.55C23 8.15 22.6465 7.8 22.2424 7.8H18.3535L17.5455 5.55C17.4444 5.25 17.1414 5 16.7879 5H9.21212C8.90909 5 8.65657 5.2 8.50505 5.5L8.15152 6.45H4.81818C4.56566 6.45 4.36364 6.65 4.36364 6.9V7.8ZM8.20202 9.3H4.51515V19.5H21.4848V9.3H17.798C17.4949 9.3 17.1919 9.1 17.0909 8.8L16.2323 6.5H9.76768L8.9596 8.75C8.85859 9.05 8.55556 9.3 8.20202 9.3ZM13 8.1C15.9293 8.1 18.3535 10.45 18.3535 13.35C18.3535 16.25 15.9293 18.6 13 18.6C10.0707 18.6 7.69697 16.25 7.69697 13.35C7.69697 10.5 10.1212 8.1 13 8.1Z" fill="black"/>
</svg>
