<svg width="45" height="45" viewBox="0 0 45 45" fill="none" xmlns="http://www.w3.org/2000/svg">
<mask id="mask0_3184_10384" style="mask-type:alpha" maskUnits="userSpaceOnUse" x="8" y="7" width="30" height="27">
<rect x="8" y="7" width="30" height="27" fill="#D9D9D9"/>
</mask>
<g mask="url(#mask0_3184_10384)">
<path d="M31.2172 24.2688C32.3607 22.5556 33.0293 20.4866 33.0293 18.2632C33.0293 12.3418 28.28 7.52051 22.447 7.52051C16.6094 7.52051 11.8647 12.3418 11.8647 18.2632C11.8647 20.5849 12.5979 22.7334 13.8336 24.4934L8.31421 32.5727L13.4601 31.6271L14.3915 36.851L19.9524 28.7063C20.7502 28.9029 21.5847 29.0105 22.447 29.0105C23.4015 29.0105 24.3237 28.8795 25.2044 28.6407L30.8114 36.8557L31.7428 31.6318L36.8888 32.5774L31.2172 24.2688ZM20.8101 27.4471C20.5842 27.405 20.3582 27.3535 20.1415 27.2973C20.1138 27.2879 20.0862 27.2833 20.0585 27.2739C19.8326 27.2131 19.6112 27.1428 19.3945 27.0633C17.9005 26.5296 16.5864 25.6169 15.5581 24.4326C15.406 24.2547 15.2584 24.0722 15.1155 23.8849C15.1016 23.8662 15.0878 23.8522 15.0786 23.8334C14.9403 23.6462 14.8065 23.4496 14.682 23.253C13.7783 21.8066 13.2526 20.1028 13.2526 18.2632C13.248 13.1048 17.3657 8.92478 22.447 8.92478C27.5284 8.92478 31.646 13.1048 31.646 18.2632C31.646 19.9998 31.1711 21.6194 30.3595 23.0096C30.235 23.2202 30.1059 23.4262 29.9676 23.6275C29.9353 23.6743 29.8984 23.7211 29.8662 23.7679C29.7509 23.9271 29.6402 24.0862 29.5157 24.236C29.3682 24.4186 29.2068 24.5917 29.0454 24.7603C28.9762 24.8352 28.9025 24.9054 28.8287 24.9803C28.718 25.0926 28.5981 25.1956 28.4828 25.2986C28.3445 25.4203 28.197 25.542 28.0494 25.6543C27.9572 25.7292 27.8604 25.7994 27.7635 25.8696C27.6344 25.9586 27.5053 26.0475 27.3762 26.1318C27.3255 26.1645 27.2748 26.1926 27.224 26.2254C26.9289 26.4079 26.6246 26.5764 26.3064 26.7216C26.3018 26.7216 26.2972 26.7262 26.2926 26.7262C26.1128 26.8105 25.9329 26.8854 25.7531 26.9603C25.3058 27.1382 24.8401 27.2833 24.3606 27.3862C23.7427 27.5173 23.1064 27.5922 22.447 27.5922C21.8891 27.6062 21.345 27.5454 20.8101 27.4471Z" fill="#454545"/>
<path fill-rule="evenodd" clip-rule="evenodd" d="M22.4469 11.0967C26.3386 11.0967 29.5064 14.3125 29.5064 18.2631C29.5064 22.2138 26.3386 25.4296 22.4469 25.4296C18.5552 25.4296 15.3875 22.2138 15.3875 18.2631C15.3875 14.3125 18.5552 11.0967 22.4469 11.0967ZM23.9848 16.5642L22.802 12.8687L21.6191 16.5642H17.7914L20.8881 18.8482L19.7052 22.5438L22.802 20.2598L25.8987 22.5438L24.7158 18.8482L27.8125 16.5642H23.9848Z" fill="#454545"/>
</g>
<path d="M30.119 39.4499C29.9089 39.3703 29.6988 39.2641 29.5023 39.138L29.4887 39.1248C29.4887 39.0783 29.4887 39.0252 29.4887 38.9721C29.4887 38.6735 29.5023 38.2953 29.5361 37.8573H29.6514V36.7359H30.1596V33.9622H26.439V33.9489L25.1717 33.5441L24.189 33.2322L23.4435 33L23.0233 33.6437C22.7387 34.0683 22.4608 34.4399 22.1898 34.7319C21.9593 34.9841 21.695 35.2296 21.3968 35.4618L20.5836 36.0989L21.2477 36.8819C21.4036 37.0677 21.5798 37.28 21.7764 37.5255V38.9854H21.7967L21.7221 39.0783C21.3833 38.8195 21.0986 38.5541 20.8818 38.282C20.4548 37.7445 20.1227 36.9947 19.8923 36.0591V35.9263L19.9194 35.3424L19.9398 34.7717L19.9533 34.5129L20.0008 33.4711H16.8697V34.4599C16.8562 34.712 16.8562 34.9177 16.8494 35.077C16.8291 35.8401 16.741 36.5567 16.5783 37.2137C16.4224 37.8308 16.1378 38.3484 15.7041 38.7863C15.5143 38.9788 15.311 39.1513 15.1009 39.2973C14.884 39.4499 14.5723 39.6423 14.1792 39.8547L13 40.4917L13.9488 41.4273C14.1453 41.6198 14.3215 41.8388 14.4706 42.0843L14.9925 42.9204L15.8532 42.4227C16.2733 42.1772 16.5986 41.9781 16.8494 41.7989C17.5271 41.3145 18.0896 40.7571 18.5505 40.1334C18.9435 40.6775 19.4044 41.1619 19.9262 41.5932C20.2447 41.852 20.6446 42.1241 21.1461 42.4161L22.1423 43L22.3998 42.4028L22.6845 42.8407L23.5181 42.4028C24.0873 42.1042 24.6431 41.7857 25.1852 41.4472L25.314 41.5468L25.8562 41.9648L26.0392 42.0975L26.8524 42.708L27.3539 42.0577C27.8486 42.5421 28.3705 42.6483 28.7229 42.6483C29.0753 42.6483 29.7733 42.5289 30.2545 41.7326C30.4104 41.4804 30.5527 41.1354 30.7086 40.6775L31 39.795L30.119 39.4499ZM22.9352 35.3955C23.2402 35.0637 23.552 34.6589 23.8637 34.1812L24.8464 34.493L24.5279 34.9575H29.1363V35.7339H23.9247C23.5181 36.1918 23.0979 36.6165 22.6506 37.008C22.4134 36.7094 22.2033 36.4506 22.0136 36.2316C22.3592 35.9595 22.6642 35.6808 22.9285 35.3889L22.9352 35.3955ZM28.628 36.1121V36.8553H23.6739V36.1121H28.628ZM21.6611 41.5534C21.2071 41.288 20.8479 41.0491 20.57 40.8235C19.8991 40.2727 19.3569 39.6224 18.9367 38.8593C18.8148 38.647 18.6792 38.355 18.5166 37.9768C18.3539 38.428 18.1913 38.793 18.0354 39.0717C17.6017 39.8082 17.012 40.4453 16.253 40.9894C16.0361 41.142 15.738 41.3344 15.3449 41.5534C15.1483 41.2415 14.9315 40.9628 14.6807 40.7173C15.1145 40.4851 15.4533 40.2794 15.7108 40.1002C15.9684 39.921 16.2123 39.7153 16.4428 39.4764C16.9985 38.9124 17.378 38.2356 17.5745 37.4459C17.7575 36.716 17.8524 35.933 17.8795 35.1035C17.8795 34.9443 17.8863 34.7319 17.8931 34.4665H18.9435L18.93 34.7319L18.9096 35.3026L18.8893 35.8733L18.8758 36.1387C19.1401 37.28 19.5399 38.1958 20.0821 38.8792C20.4277 39.3106 20.8818 39.722 21.4578 40.1068H21.4714C21.6883 40.2595 21.9661 40.4253 22.3117 40.6244C22.0678 40.8699 21.878 41.1553 21.7289 41.4605C21.7154 41.4937 21.6883 41.5269 21.6747 41.5601L21.6611 41.5534ZM26.6627 41.3079L26.4864 41.1752L25.9375 40.7571L25.3953 40.3457L25.2259 40.2196C24.5211 40.6908 23.7959 41.1287 23.0369 41.5269C23.0098 41.4871 22.9759 41.4472 22.9488 41.4074C22.7929 41.1818 22.6235 40.9628 22.4337 40.7505C22.8133 40.5713 23.1792 40.3789 23.5316 40.1798C23.8095 40.0272 24.0738 39.8613 24.3381 39.6954C23.9044 39.4433 23.4774 39.2044 23.064 38.9788L23.6062 38.2953C24.128 38.5408 24.6363 38.8129 25.131 39.1048C25.4631 38.7996 25.802 38.4612 26.1476 38.0763L26.9744 38.6337C26.6627 38.9522 26.3238 39.2774 25.9578 39.5959L26.5949 40.0604L27.259 40.5249L26.6559 41.3013L26.6627 41.3079ZM29.387 41.2283C29.2176 41.5136 28.994 41.653 28.7297 41.653C28.4789 41.653 28.2485 41.5401 28.0316 41.3079C27.8554 41.1155 27.7267 40.7903 27.6386 40.3324C27.564 39.9277 27.5233 39.5163 27.5233 39.0849C27.5233 38.8394 27.5369 38.4745 27.5572 37.9768H22.7929V37.2004H28.5738C28.506 37.9237 28.4721 38.5143 28.4721 38.9721C28.4721 39.6822 28.5331 40.1798 28.6551 40.4784C28.6755 40.5315 28.7093 40.5581 28.7568 40.5581C28.7907 40.5581 28.8584 40.359 28.9533 39.9675C29.2108 40.1334 29.4751 40.2661 29.7462 40.3723C29.6242 40.7505 29.5023 41.0358 29.387 41.2216V41.2283Z" fill="#454545"/>
</svg>
