<svg width="66" height="66" viewBox="0 0 66 66" fill="none" xmlns="http://www.w3.org/2000/svg">
<path d="M50.3616 41.0188C50.3602 41.0243 50.3591 41.0315 50.3564 41.0524L50.3616 41.0188ZM50.3616 41.0188L50.1675 40.9703M50.3616 41.0188L50.1675 40.9703M50.1675 40.9703L49.9735 40.9218M50.1675 40.9703L49.9735 40.9218M49.9735 40.9218C49.9657 40.9529 49.9621 40.9824 49.9599 41.0001L49.9735 40.9218ZM50.3425 41.1335C50.3502 41.1024 50.3539 41.0728 50.3561 41.0551L49.9595 41.0028C49.9569 41.0237 49.9558 41.0309 49.9544 41.0364L50.1484 41.0849L50.3425 41.1335Z" fill="black" stroke="black" stroke-width="0.4"/>
<path d="M50.0554 40.3523L50.4519 40.4054C50.5582 39.6422 50.6162 38.8594 50.6162 38.057C50.6162 35.2647 49.9494 32.6269 48.7804 30.2889L48.4195 30.4611C50.3586 34.7271 50.3193 38.2981 50.0554 40.3523Z" fill="black" stroke="black" stroke-width="0.4"/>
<path d="M50.0549 40.3508L50.055 40.3502C50.1588 39.6047 50.2155 38.84 50.225 38.0654C50.2248 35.3379 49.5735 32.7615 48.4315 30.4774L48.7841 30.2889L48.6104 30.3879C48.7841 30.2889 48.7842 30.289 48.7842 30.2891L48.7844 30.2894L48.7849 30.2903L48.7866 30.2934L48.793 30.3048C48.7985 30.3148 48.8065 30.3292 48.8167 30.3482C48.8371 30.3861 48.8666 30.4419 48.9034 30.5147C48.9771 30.6603 49.0803 30.8741 49.2001 31.1491C49.4396 31.6992 49.7454 32.4952 50.0127 33.4826C50.5473 35.4567 50.9295 38.2013 50.3155 41.2765C50.3155 41.2765 50.3155 41.2766 50.3155 41.2766L49.9232 41.1982C49.9334 41.1472 49.9433 41.0963 49.9529 41.0455C49.9535 41.0424 49.9541 41.0393 49.9547 41.0362C49.9608 41.0039 49.9668 40.9715 49.9727 40.9392L49.9695 40.9388C49.9699 40.9363 49.9703 40.9338 49.9707 40.9313M50.0549 40.3508L50.2307 38.0666C50.2307 38.7967 50.182 39.5613 50.0683 40.3521C50.0683 40.3523 50.0683 40.3524 50.0683 40.3526C50.0412 40.541 50.0104 40.7309 49.9758 40.9221L49.9731 40.9214C49.9722 40.9248 49.9714 40.9281 49.9707 40.9313M50.0549 40.3508C50.0267 40.5574 49.9987 40.7538 49.9707 40.9313M50.0549 40.3508L50.1193 41.2374L49.9232 41.1981C49.9276 41.1763 49.932 41.1518 49.9369 41.1252L49.9371 41.1242C49.9417 41.0986 49.9468 41.0709 49.9519 41.0453L49.9537 41.036L49.954 41.036C49.9553 41.0305 49.9565 41.0234 49.9591 41.0024L49.9594 40.9998C49.9614 40.984 49.9645 40.9587 49.9707 40.9313M50.3433 41.1276C50.3502 41.0986 50.3536 41.0714 50.3557 41.0547L50.356 41.0521C50.3586 41.0311 50.3597 41.0239 50.3611 41.0184L50.3633 41.0099L50.3646 41.0011C50.3936 40.8178 50.4224 40.6158 50.4512 40.4051L50.3433 41.1276Z" fill="black" stroke="black" stroke-width="0.4"/>
<path d="M50.8467 42.3969L51.0431 42.4442L51.0885 42.2474C51.1175 42.1217 51.1464 41.9867 51.1749 41.8536L51.1751 41.8528L51.1753 41.8528L51.1768 41.8437C51.1953 41.733 51.2232 41.5933 51.2521 41.449L51.2915 41.2517L51.094 41.2134L49.2221 40.8505L49.031 40.8134L48.9888 41.0034L48.9506 41.1753L48.949 41.1828L48.9479 41.1904C48.9445 41.2142 48.9393 41.2372 48.9319 41.2693C48.9317 41.2701 48.9315 41.2709 48.9313 41.2718C48.9249 41.2997 48.9167 41.3351 48.9108 41.3741C48.8996 41.426 48.8873 41.4798 48.8754 41.5317C48.8601 41.5988 48.8455 41.6625 48.8351 41.7143L48.7974 41.9029L48.9844 41.948L50.8467 42.3969Z" fill="black" stroke="black" stroke-width="0.4"/>
<path d="M50.1617 42.018L49.7717 41.9289C49.8356 41.6458 49.8908 41.3622 49.9464 41.0754C49.9483 41.0653 49.9502 41.0553 49.9521 41.0456L50.3446 41.1228L50.3444 41.124L50.3443 41.1244C50.3426 41.1331 50.3409 41.1418 50.3392 41.1505C50.3365 41.1651 50.3337 41.1806 50.3307 41.197L50.3305 41.1979C50.3259 41.2233 50.3209 41.2507 50.3159 41.2761M50.1617 42.018L49.9668 41.973L50.1619 42.017C50.2178 41.7693 50.2671 41.522 50.3148 41.2766L50.3157 41.2768C50.3158 41.2766 50.3158 41.2763 50.3159 41.2761M50.1617 42.018C50.2197 41.7663 50.268 41.5249 50.3159 41.2761M50.1617 42.018L50.3151 41.2752L50.316 41.2754C50.316 41.2756 50.3159 41.2758 50.3159 41.2761" fill="black" stroke="black" stroke-width="0.4"/>
<path d="M49.9694 40.9387L50.3631 41.0091C50.3905 40.8722 50.4092 40.7256 50.427 40.5862C50.4315 40.5509 50.436 40.5161 50.4405 40.482C50.4441 40.4564 50.4476 40.4307 50.4511 40.4048L50.055 40.3495C50.0506 40.3802 50.0465 40.4102 50.0426 40.4398C50.0181 40.6166 49.9937 40.7848 49.9694 40.9387Z" fill="black" stroke="black" stroke-width="0.4"/>
<path d="M24.2927 54.3028L23.8945 53.9923L21.9844 52.5024L21.984 52.502C17.5048 48.9882 14.926 43.7349 14.926 38.0666C14.926 34.0887 16.1814 30.303 18.5566 27.1168L18.5569 27.1164L20.467 24.5664L20.8667 24.0328L20.8267 24.6983L20.6357 27.8784L24.2927 54.3028ZM24.2927 54.3028L24.2152 53.8039M24.2927 54.3028L24.2152 53.8039M24.2152 53.8039L23.8427 51.4067L23.8426 51.4061C23.1912 47.2988 23.857 43.8261 25.7796 41.0362M24.2152 53.8039L25.7796 41.0362M25.7796 41.0362C25.8978 41.5348 26.1 42.0545 26.4157 42.5733C26.4157 42.5733 26.4158 42.5734 26.4158 42.5734L25.7796 41.0362ZM24.1001 34.0688C23.4244 34.5226 22.5853 34.582 21.5787 34.3156L21.578 34.3154C20.9828 34.1553 20.3528 33.8537 19.8054 33.3076C19.3479 32.8512 18.9548 32.2306 18.6859 31.3946C17.732 33.4716 17.2361 35.7281 17.2361 38.0666C17.2361 42.0487 18.6879 45.7966 21.294 48.7077C21.2515 43.8395 23.0702 39.7185 26.658 36.682C26.658 36.6819 26.658 36.6819 26.658 36.6819L31.204 32.8331L31.5037 33.0904L28.3902 38.1617L28.3863 38.1681L28.3862 38.168C28.3863 38.1678 28.3862 38.1681 28.3857 38.1689C28.3829 38.1736 28.3696 38.1957 28.3483 38.2362C28.3245 38.2815 28.2925 38.3461 28.257 38.4275C28.1861 38.5904 28.1019 38.819 28.0414 39.0924C27.9331 39.5813 27.9013 40.2066 28.1473 40.8595C28.4101 40.627 28.7663 40.2377 29.1749 39.6827C29.6935 38.9783 30.2889 38.0173 30.876 36.7957C31.5577 35.3755 32.1622 33.6905 32.4556 32.0586C32.7498 30.4218 32.7263 28.8653 32.183 27.6827L32.1829 27.6825L30.5593 24.1393L30.8638 23.898L33.9485 26.2951L24.1001 34.0688ZM24.1001 34.0688C24.6971 33.6707 25.0372 33.0731 25.2607 32.3345C25.4827 31.6011 25.5967 30.7038 25.7249 29.6872L25.7276 29.6666C25.9754 27.7603 26.2804 25.4142 27.3633 22.8247L27.3634 22.8244C28.6735 19.6784 30.8233 16.942 33.9198 14.4918C34.555 16.29 35.8597 19.3519 38.1902 22.5964C39.2009 24.0191 40.6596 24.85 42.1575 25.7032L42.1693 25.7099C42.1694 25.7099 42.1694 25.7099 42.1694 25.71C44.2232 26.8849 46.2989 28.0805 47.5686 30.8719C49.3446 34.7829 49.3917 38.1232 49.1191 40.2907C49.1045 40.3742 49.0924 40.4593 49.0807 40.5422L49.0784 40.5585C49.0673 40.6372 49.0565 40.7141 49.0438 40.7907L49.0256 40.8817C49.0255 40.8819 49.0255 40.8821 49.0254 40.8824C49.0066 40.9734 48.9892 41.0623 48.9721 41.1496C48.9354 41.3365 48.9002 41.5164 48.8555 41.6951C48.3838 43.5729 47.5308 45.3725 46.3086 47.0867C45.4514 40.9683 42.5417 35.9137 39.7646 32.3237C36.9127 28.6371 34.192 26.4839 33.9487 26.2952L24.1001 34.0688ZM34.9545 30.3703C38.3251 33.8203 43.98 40.932 44.2271 50.0293L44.2271 50.0297L44.294 52.3409L44.308 52.8238L44.6394 52.4724L46.2247 50.7916C48.6803 48.1915 50.323 45.3156 51.0869 42.2407C51.1648 41.9288 51.2231 41.6085 51.2799 41.2956L51.2806 41.2923L51.2806 41.2923L51.2815 41.2869L51.2997 41.1681C51.3262 41.0409 51.3446 40.9051 51.3649 40.7553C51.3746 40.684 51.3846 40.6095 51.3962 40.5313L51.3963 40.5313L51.3969 40.5266C51.6965 38.1102 51.647 34.3185 49.652 29.9139C48.0826 26.4458 45.5326 24.984 43.3223 23.717L43.2949 23.7012L43.2945 23.701L43.2548 23.6781C41.8859 22.8891 40.7513 22.2352 40.0436 21.2463L40.0435 21.2461C38.3925 18.9452 37.2916 16.7173 36.6024 15.0601C36.2579 14.2317 36.0164 13.5465 35.8608 13.0668C35.7829 12.8269 35.7266 12.6385 35.6895 12.5093C35.6709 12.4447 35.6572 12.3949 35.648 12.3609L35.6376 12.3219L35.6349 12.3116C35.6345 12.3098 35.6342 12.3087 35.6341 12.3082C35.6341 12.3082 35.634 12.3082 35.634 12.3081L35.634 12.308L35.2999 10.9525L35.2301 10.6692L34.991 10.8365L33.845 11.6388L33.8439 11.6395C29.7025 14.5798 26.8774 17.9504 25.2084 21.9252L25.2082 21.9257C24.0118 24.7969 23.6714 27.4297 23.4235 29.346L23.4181 29.3882L23.4179 29.3896C23.3413 30.0168 23.2586 30.6748 23.1506 31.2052C23.0966 31.4708 23.0376 31.6969 22.9728 31.8678C22.9059 32.0441 22.8466 32.1229 22.8127 32.1477C22.8109 32.1486 22.8074 32.1501 22.802 32.1519C22.7932 32.1548 22.7806 32.158 22.7635 32.1607C22.7291 32.1663 22.6826 32.1689 22.6235 32.1663C22.5052 32.1612 22.351 32.1359 22.17 32.0861L22.1692 32.0859C21.6087 31.9342 21.1927 31.5336 20.9298 30.8433C20.6638 30.1448 20.5601 29.1603 20.6357 27.8786L34.9545 30.3703ZM30.8953 55.0182L30.9134 55.2175L31.1126 55.1994C31.2781 55.1844 33.2228 54.9955 35.1918 54.0735C37.1626 53.1506 39.1934 51.4737 39.4405 48.4745L39.4569 48.2748L39.2572 48.2588L37.3566 48.1059L37.1576 48.0899L37.1412 48.2889C36.9785 50.2691 35.4752 51.4199 33.9445 52.0841C32.5071 52.7079 31.1028 52.8767 30.9111 52.8997C30.8992 52.9011 30.892 52.902 30.8897 52.9024L30.7067 52.9329L30.7234 53.1177L30.8953 55.0182Z" fill="black" stroke="black" stroke-width="0.4"/>
</svg>
