<?xml version="1.0" encoding="utf-8"?>
<!-- Generator: Adobe Illustrator 26.4.1, SVG Export Plug-In . SVG Version: 6.00 Build 0)  -->
<svg version="1.1" id="圖層_1" xmlns="http://www.w3.org/2000/svg" xmlns:xlink="http://www.w3.org/1999/xlink" x="0px" y="0px"
	 viewBox="0 0 66 66" style="enable-background:new 0 0 66 66;" xml:space="preserve">
<style type="text/css">
	.st0{fill:#454545;}
</style>
<g>
	<path class="st0" d="M27.5,36.2c0-1-0.8-1.9-1.9-1.9c-1,0-1.9,0.8-1.9,1.9s0.8,1.9,1.9,1.9C26.6,38,27.5,37.2,27.5,36.2z"/>
	<path class="st0" d="M56.3,30c0.5-1.2-0.1-2.2-0.1-2.2c-5-7.8-12.3-9.3-14.9-9.6c-0.1-4.2-2.3-5.7-2.4-5.8
		c-1.7-1.2-3.8-1.6-5.8-1.6c-2,0-4.1,0.4-5.8,1.6c-0.1,0.1-2.4,1.6-2.4,5.8c-2.6,0.3-9.9,1.7-14.9,9.6c-0.1,0.1-0.6,1-0.1,2.2
		c0.3,0.8,1,1.6,2.1,2.2c-0.9,1.1-2.2,3-2.2,5.2c0,1.5,0.6,2.8,1.8,3.9c0.2,0.3,1,1.1,2.6,1.7c0,1,0.1,2,0.3,3.1
		c0.4,2.9,1.9,5.1,4.3,6.7c2.7,1.7,6.4,2.5,11.2,2.5c1,0,3.2,0,3.1,0c0,0,2.1,0,3.1,0c4.8,0,8.6-0.8,11.2-2.5
		c2.4-1.5,3.9-3.8,4.3-6.7c0.2-1.1,0.3-2.1,0.3-3.1c1.6-0.6,2.4-1.5,2.6-1.7c1.2-1.1,1.8-2.4,1.8-3.9c0-2.2-1.3-4.1-2.2-5.2
		C55.2,31.5,55.9,30.8,56.3,30z M11.5,29.3c-0.2-0.4-0.1-0.7-0.1-0.7c5.5-8.6,14.2-8.8,14.3-8.8c0.3,0,0.5-0.1,0.7-0.3
		c0.2-0.2,0.3-0.4,0.2-0.7c-0.2-3.8,1.5-5,1.6-5.1c1.4-1,3.1-1.3,4.8-1.3c1.7,0,3.4,0.3,4.8,1.3c0.1,0.1,1.8,1.3,1.6,5.1
		c0,0.3,0.1,0.5,0.2,0.7c0.2,0.2,0.4,0.3,0.7,0.3c0.1,0,8.8,0.2,14.3,8.8c0,0,0.1,0.3-0.1,0.7c-0.2,0.5-1.1,1.7-4.8,2.8
		c-2.8-6.1-7.3-9.3-7.3-9.4c-0.3-0.2-0.7-0.2-1,0c-3.3,2-6.3,2.5-8.4,2.3c0,0-5.1-0.3-8.4-2.3c-0.3-0.2-0.7-0.2-1,0
		c-0.1,0.1-4.5,3.3-7.3,9.4C12.6,31,11.7,29.8,11.5,29.3z M14.1,41c-0.9-0.5-1.3-0.9-1.3-0.9c0,0-0.1-0.1-0.1-0.1
		c-0.8-0.8-1.3-1.6-1.3-2.6c0-1.8,1.3-3.5,2-4.3c0.6,0.3,1.3,0.5,2.1,0.8C14.8,36,14.2,38.3,14.1,41z M49.8,45.8
		c-0.4,2.4-1.5,4.1-3.5,5.4C43,53.3,33,53.3,33,53.3s-10,0-13.3-2.1c-2-1.3-3.1-3-3.5-5.4c-1.9-12,6-19.5,8-21.1
		c3.4,1.9,8.8,2.2,8.8,2.2c2.2,0.2,5.4-0.3,8.8-2.2C43.8,26.3,51.7,33.8,49.8,45.8z M54.5,37.4c0,1-0.4,1.8-1.3,2.6
		c0,0-0.1,0.1-0.1,0.1c0,0-0.4,0.5-1.3,0.9c-0.1-2.6-0.7-5-1.5-7.1c0.8-0.2,1.5-0.5,2.1-0.8C53.2,33.9,54.6,35.6,54.5,37.4z"/>
	<path class="st0" d="M40.4,34.3c-1,0-1.9,0.8-1.9,1.9s0.8,1.9,1.9,1.9c1,0,1.9-0.8,1.9-1.9S41.4,34.3,40.4,34.3z"/>
	<path class="st0" d="M39.7,42.6c0,0-1.6,1.7-4.1,2.6c-0.9,0.3-1.7,0.4-2.6,0.4c-0.9,0-1.7-0.1-2.6-0.4c-2.5-0.8-4.1-2.5-4.1-2.6
		c-0.3-0.4-0.9-0.4-1.3,0c-0.4,0.3-0.4,0.9-0.1,1.3c0.1,0.1,3.2,3.4,7.7,3.6c0.1,0,0.2,0,0.3,0c0.1,0,0.2,0,0.3,0
		c4.5-0.2,7.6-3.4,7.7-3.6c0.3-0.4,0.3-1-0.1-1.3C40.6,42.2,40.1,42.3,39.7,42.6z"/>
</g>
</svg>
