<svg width="213" height="212" viewBox="0 0 213 212" fill="none" xmlns="http://www.w3.org/2000/svg">
<mask id="mask0_1245_20970" style="mask-type:alpha" maskUnits="userSpaceOnUse" x="0" y="0" width="213" height="212">
<rect width="213" height="212" fill="#D9D9D9"/>
</mask>
<g mask="url(#mask0_1245_20970)">
<g opacity="0.9" filter="url(#filter0_d_1245_20970)">
<path d="M211.304 126.639C211.384 125.971 211.394 125.289 211.405 124.607L211.437 122.561C211.459 121.197 211.327 119.87 211.349 118.506C211.17 115.802 210.838 113.134 210.353 110.504C209.384 105.243 207.872 100.145 205.886 95.2241C202.155 85.9103 196.89 77.3094 190.894 69.3802C184.829 61.437 178.033 54.1655 170.536 47.4351C168.803 45.8496 167.054 44.3295 165.153 42.8465L163.882 41.766L162.362 38.9242C159.975 34.8109 157.17 30.954 154.181 27.265C151.109 23.6273 147.839 20.223 144.302 17.0378C142.499 15.4382 140.682 13.904 138.78 12.421C137.864 11.6866 136.879 10.9381 135.878 10.2549C134.947 9.58589 134.016 8.91684 133.07 8.31316L131.617 7.40061L130.917 6.98406L130.533 6.76874C130.533 6.76874 130.478 6.68927 130.409 6.67518L130.242 6.77774C129.348 7.21111 128.401 7.565 127.508 7.99836L126.141 8.60867C125.737 8.79971 125.302 9.12151 124.883 9.37793C124.463 9.63434 124.044 9.89076 123.609 10.2126C123.427 10.3805 123.259 10.4831 123.076 10.651L122.711 10.9869C122.178 11.4254 121.798 11.8266 121.333 12.2792C119.576 13.9727 118.148 15.8021 116.874 17.5943C114.324 21.1787 112.312 24.9412 110.453 28.6665C108.594 32.3919 107.011 36.1736 105.552 40.0488L104.958 41.7064L101.871 41.6234C92.6493 41.5191 83.899 43.1531 75.5914 45.6985C74.5061 46.0242 73.4898 46.364 72.4735 46.7038L70.1202 47.5231L70.0119 47.3642L68.894 46.2465L67.6921 45.1801L65.3723 42.996C64.5941 42.2897 63.801 41.6489 62.9538 40.9285L61.7519 39.8621L60.4662 38.847C57.1016 36.1759 53.4704 33.724 49.4048 31.5939C47.414 30.5032 45.3095 29.5946 42.9682 28.7744L41.7556 28.3899C41.2874 28.2259 40.8042 28.1272 40.2521 28.0145C39.2858 27.8172 38.2654 27.5404 37.2545 27.5392C36.2733 27.4073 35.3314 27.4202 34.3895 27.4331L34.1825 27.3908C34.1676 27.4562 34.0837 27.5075 34.0837 27.5075L33.9403 27.8203L33.5154 28.4177L32.7347 29.6266L31.134 31.8995C30.5413 32.5995 30.0664 33.734 29.923 34.0468C29.4779 35.0505 28.9786 35.9748 28.5335 36.9786L27.2969 39.8732C26.8666 40.8116 26.4905 41.8294 26.1293 42.7819C24.7385 46.6712 23.4858 50.5888 22.4401 54.5486C21.3944 58.5085 20.4327 62.417 19.6089 66.3538C19.1626 68.3151 18.7852 70.2905 18.4078 72.2659L17.8614 75.3015L17.8019 75.563L17.787 75.6284L17.7424 75.8245L17.208 77.2205C14.2789 84.6955 11.611 92.2922 9.13533 99.9965L8.97704 100.375L8.87289 100.832C7.57552 104.946 6.34717 109.074 5.311 113.309C5.07293 114.355 4.83487 115.401 4.58192 116.513L4.20994 118.147L3.90698 119.796C3.55401 121.981 3.18615 124.232 3.11876 126.75L3.10263 127.773C3.09726 128.114 3.14602 128.534 3.14064 128.875L3.18941 129.296L3.17866 129.978L3.2088 133.336C3.24681 134.439 3.35384 135.555 3.44599 136.737C3.55303 137.854 3.59104 138.956 3.83611 140.101L4.37914 143.427C4.6391 144.506 4.95319 145.665 5.21314 146.745C5.45821 147.889 5.87108 148.931 6.20005 150.025C6.59804 151.132 6.92701 152.226 7.4089 153.282C10.8053 161.843 16.5698 169.52 23.5495 175.666C30.5291 181.812 38.6251 186.544 47.1269 190.127C52.6026 192.408 58.1676 194.297 63.9206 195.677C64.0587 195.705 64.2955 195.617 64.4484 195.58C68.5747 196.491 72.7159 197.336 76.9017 197.986C86.0475 199.375 95.3813 200.254 104.701 200.242C106.999 200.301 109.342 200.163 111.724 200.171C112.888 200.135 114.066 200.033 115.23 199.997L116.991 199.878L118.751 199.759C123.451 199.418 128.088 198.723 132.685 197.883L136.853 197.024C138.229 196.689 139.605 196.354 140.982 196.02C140.982 196.02 141.44 195.908 142.22 195.657C142.999 195.405 144.1 195.014 145.368 194.521C145.994 194.307 146.705 194.041 147.484 193.79C148.209 193.459 149.004 193.142 149.798 192.826C150.592 192.509 151.402 192.127 152.265 191.824C153.074 191.442 153.884 191.06 154.693 190.678C155.502 190.296 156.311 189.914 157.12 189.532C157.93 189.15 158.685 188.688 159.425 188.292C160.905 187.5 162.233 186.744 163.324 186.078C165.52 184.679 166.793 183.844 166.556 183.933C167.761 183.084 168.827 182.207 169.809 181.382C170.328 181.009 170.792 180.556 171.226 180.234C171.606 179.833 172.056 179.446 172.367 179.03C172.382 178.965 172.382 178.965 172.451 178.979C173.176 178.648 173.916 178.252 174.741 177.805C177.198 176.528 179.853 175.017 182.415 173.283C184.961 171.613 187.4 169.785 189.463 168.017C191.512 166.315 193.255 164.687 194.465 163.497C195.674 162.307 196.351 161.556 196.351 161.556C198.258 159.209 200.11 156.782 201.716 154.168L202.156 153.505C202.853 152.348 203.549 151.19 204.192 149.953C205.463 147.544 206.664 145.121 207.619 142.511C209.569 137.436 210.858 132.089 211.304 126.639ZM3.27331 129.244C3.27331 129.244 3.32745 129.324 3.27331 129.244V129.244ZM17.8709 75.5771C17.8709 75.5771 17.8858 75.5117 17.8709 75.5771V75.5771ZM198.047 139.188C197.265 141.355 196.207 143.465 195.095 145.495C194.566 146.55 193.913 147.512 193.315 148.553L192.974 149.099C192.322 150.06 191.754 150.971 191.033 151.918L190.069 153.295L189.037 154.658C189.037 154.658 188.81 155.022 188.4 155.554C187.975 156.151 187.367 156.916 186.631 157.929C185.12 159.81 183.03 162.325 180.764 164.667C176.285 169.431 171.112 173.438 171.669 173.209C169.492 175.159 167.443 176.862 165.982 178.205C165.341 178.485 164.699 178.765 163.974 179.095C162.706 179.589 161.438 180.083 160.101 180.562C159.78 180.702 159.459 180.842 159.139 180.981L158.122 181.321L156.09 182.001C155.394 182.201 154.753 182.48 154.057 182.68C153.362 182.88 152.666 183.081 152.039 183.295C150.717 183.709 149.464 184.137 148.256 184.369C147.032 184.667 145.878 184.978 144.877 185.253C143.821 185.448 142.904 185.671 142.139 185.857C141.374 186.043 140.778 186.126 140.388 186.252C139.998 186.377 139.776 186.401 139.776 186.401L135.411 187.493L131.021 188.376C113.994 191.467 96.2315 191.123 78.9361 188.413C73.493 187.575 68.1094 186.475 62.9234 185.143C62.8544 185.129 62.7705 185.18 62.7015 185.166C58.9108 184.05 55.2337 182.752 51.6013 181.257C43.967 177.988 36.8319 173.794 30.8078 168.528C24.8676 163.21 20.0924 156.898 17.2416 149.748C16.8531 148.916 16.5634 147.968 16.2588 147.084C15.9542 146.201 15.5955 145.239 15.4438 144.318L14.7818 141.515L14.2726 138.674C14.0519 137.74 14.0532 136.782 13.9164 135.796C13.8486 134.825 13.6969 133.904 13.7131 132.881L13.6627 129.929L13.6342 129.102L13.5949 128.958L13.6098 128.892L13.5854 128.682L13.5366 128.262C13.5515 128.196 13.5123 128.051 13.5271 127.986C13.542 127.921 13.542 127.921 13.542 127.921C13.542 127.921 13.5271 127.986 13.542 127.921C13.5718 127.79 13.5176 127.71 13.4932 127.5L13.4742 126.949C13.5011 125.244 13.7946 123.32 14.1571 121.41L14.4154 119.957L14.7427 118.519C14.9659 117.538 15.1891 116.558 15.4123 115.577C16.3741 111.669 17.5036 107.657 18.7564 103.74L18.9295 103.296L19.1027 102.853C21.5189 95.41 24.1421 88.0094 26.9724 80.6512L27.5068 79.2551L27.7896 78.013C27.8937 77.5553 27.9586 76.9528 27.9884 76.8221L28.4901 73.9827C28.8526 72.0726 29.2151 70.1626 29.6466 68.2666C30.4405 64.4607 31.3726 60.6828 32.3587 56.9845C33.2907 53.2067 34.4839 49.5507 35.8003 45.9882C36.1467 45.1011 36.493 44.214 36.8394 43.3269L37.9326 40.7451C38.2789 39.858 38.7484 39.0645 39.1489 38.2568L39.3911 37.8274L39.6672 37.8838C41.279 38.4182 42.9843 39.1769 44.5907 40.0522C47.8875 41.7517 50.9963 43.9601 54.0753 46.2992L55.2379 47.2208L56.3315 48.1282C57.0556 48.755 57.7797 49.3818 58.5037 50.0085L60.6462 52.0196L61.7249 52.9924L62.7887 54.0307L66.9601 58.2348L67.339 58.7911L67.6395 59.0577C67.7234 59.0064 67.8763 58.9693 67.9602 58.918L69.396 58.3218C70.3582 57.9025 71.3352 57.4178 72.3515 57.078L73.7724 56.5472L74.4829 56.2818L75.8889 55.8163C76.8362 55.4624 77.7685 55.1739 78.7009 54.8854C86.2291 52.5914 94.0767 51.1152 101.651 51.1567L103.076 51.2425L103.796 51.2527L104.156 51.2578L104.294 51.2859C104.432 51.3141 104.585 51.2769 104.516 51.2628L104.585 51.2769L104.792 51.3192L111 51.9711L111.774 52.0608L111.843 52.0748C111.912 52.0889 111.912 52.0889 111.927 52.0236L111.972 51.8274L112.13 51.4493L112.595 50.0391C112.887 49.0726 113.249 48.1201 113.541 47.1535L113.991 45.8088L114.412 44.5948L114.932 43.2642C116.332 39.6504 117.855 36.1302 119.502 32.7036C121.149 29.2769 123.056 25.9721 125.112 22.971C126.174 21.4775 127.275 20.1288 128.401 18.9904C128.683 18.7058 128.964 18.4212 129.231 18.202L129.413 18.034L129.428 17.9687C130.29 18.6236 131.167 19.2132 132.015 19.9335C133.739 21.2434 135.364 22.67 136.99 24.0966C140.172 26.9357 143.21 30.0875 145.943 33.3137C148.661 36.6053 151.127 40.0508 153.203 43.6219L154.831 46.6227L155.235 47.3892L155.436 47.7724C155.491 47.8519 155.515 48.0621 155.653 48.0903L157.008 49.1195L158.363 50.1488C160.072 51.5241 161.697 52.9506 163.308 54.4426C170.327 60.7334 176.768 67.6588 182.385 75.0316C188.002 82.4044 192.765 90.3555 196.152 98.6412C197.897 103.034 199.252 107.553 200.079 112.169C200.5 114.444 200.769 116.756 200.899 119.041C200.922 120.208 201.029 121.325 200.983 122.479L200.956 124.184C200.975 124.735 200.91 125.337 200.86 125.874C200.761 130.438 199.749 134.884 198.047 139.188Z" fill="white"/>
<path d="M38.2655 49.4336C38.2655 49.4336 33.5699 65.3051 34.6167 71.8131C34.6167 71.8131 39.2349 66.1198 47.9149 65.4293L38.2655 49.4336Z" fill="white"/>
<path d="M149.187 47.9331C149.187 47.9331 139.883 32.0079 135.184 31.3905L133.44 48.891C133.44 48.891 144.489 47.3157 149.187 47.9331Z" fill="white"/>
<path d="M67.5092 92.0917C69.6505 92.529 71.7068 91.2305 72.1574 89.2505C72.619 87.2221 71.2482 85.2744 69.1579 84.8476C67.0165 84.4103 64.9603 85.7087 64.5096 87.6888C64.059 89.6689 65.4188 91.6649 67.5092 92.0917Z" fill="white"/>
<path d="M124.819 79.005C126.96 79.4422 129.016 78.1438 129.467 76.1637C129.929 74.1354 128.558 72.1877 126.467 71.7608C124.326 71.3235 122.27 72.622 121.819 74.602C121.358 76.6304 122.677 78.5677 124.819 79.005Z" fill="white"/>
<path d="M136.686 125.085C136.686 125.085 136.662 124.874 136.667 124.533C136.672 124.192 136.638 123.707 136.55 123.141C136.374 122.011 135.829 120.599 135.056 119.552C133.54 117.327 131.648 116.12 131.741 116.344C130.096 115.324 128.508 115 127.837 115.41C127.151 115.885 127.51 116.848 128.597 119.054C129.157 120.4 129.604 121.928 129.548 122.806C129.513 123.278 129.439 123.605 129.325 123.787C129.212 123.969 129.182 124.1 129.182 124.1C129.182 124.1 129.152 124.23 129.078 124.557C129.018 124.819 128.845 125.262 128.282 125.831C127.788 126.415 127.186 126.839 126.308 127.207C125.43 127.575 124.167 127.728 122.742 127.642C119.946 127.55 116.816 126.706 114.558 125.834C113.43 125.398 112.493 125.07 111.778 124.719C111.586 124.611 111.448 124.583 111.256 124.476C111.138 124.041 111.02 123.607 110.834 123.158C110.598 122.289 110.348 121.485 110.097 120.681C109.862 119.812 109.611 119.009 109.4 118.35C113.944 116.473 116.853 112.893 116.262 109.146C115.449 104.465 109.402 101.52 102.739 102.554C96.0752 103.588 91.2809 108.15 92.0934 112.832C92.7542 116.593 96.7846 119.194 101.834 119.541C102.084 120.345 102.359 121.359 102.742 122.532C103.071 123.625 103.425 124.929 103.847 126.247C103.733 126.429 103.551 126.597 103.437 126.779C102.844 127.479 102.183 128.164 101.536 128.785C100.227 130.091 98.7563 131.159 97.4288 131.914C96.1013 132.67 94.878 132.967 94.0051 132.994C93.1322 133.021 92.3189 132.787 91.6435 132.58C90.9682 132.374 90.6529 132.173 90.6529 132.173C90.6529 132.173 90.1697 132.074 89.5783 131.817C88.972 131.624 88.2723 131.208 87.8487 130.848C87.4251 130.487 87.1151 129.945 87.0271 129.38C86.9391 128.815 86.9593 128.408 86.8754 128.46C86.7886 126.937 87.1606 125.302 86.7424 124.601C86.5258 124.283 86.1117 124.199 85.4554 124.543C85.1347 124.683 84.7003 125.005 84.251 125.392C83.7869 125.845 83.293 126.428 82.8776 127.301C82.2796 128.342 81.8291 129.687 81.97 131.289C82.0568 132.812 82.7945 134.331 83.5673 135.378C84.4092 136.439 85.2565 137.16 85.8723 137.628C86.4881 138.095 86.8724 138.311 86.8724 138.311C86.8724 138.311 87.518 138.648 88.5777 139.069C89.1149 139.248 89.7754 139.519 90.6726 139.703C90.8107 139.731 90.8797 139.745 91.0177 139.773C91.1558 139.801 91.2248 139.815 91.3628 139.843C91.5699 139.886 91.846 139.942 92.1221 139.999C92.6201 140.032 93.2413 140.159 93.8232 140.141C96.205 140.148 98.7505 139.436 100.956 138.313C103.177 137.125 105.112 135.604 106.855 133.976C107.684 133.188 108.529 132.334 109.235 131.452C109.964 131.738 110.817 132.117 111.754 132.445C114.425 133.401 118.078 134.489 122.215 134.718C124.291 134.8 126.51 134.569 128.681 133.918C130.797 133.187 132.673 131.928 133.927 130.542C135.083 129.273 135.839 127.854 136.23 126.77C136.418 126.261 136.522 125.804 136.597 125.477C136.656 125.215 136.686 125.085 136.686 125.085Z" fill="white"/>
<path d="M44.496 123.295C36.7716 124.865 31.321 129.772 32.3459 134.155C33.3708 138.538 40.4394 140.802 48.1639 139.232C55.8883 137.662 61.3389 132.755 60.314 128.372C59.3039 123.924 52.2354 121.66 44.496 123.295Z" fill="white"/>
<path d="M163.289 98.6352C155.564 100.205 150.114 105.113 151.138 109.495C152.163 113.878 159.232 116.142 166.956 114.572C174.681 113.003 180.131 108.095 179.106 103.712C178.082 99.3298 170.959 96.9859 163.289 98.6352Z" fill="white"/>
<path d="M72.6659 105.579C72.8574 105.162 72.8546 104.75 72.6179 104.519C72.4174 104.341 72.1409 104.285 71.7787 104.393C69.6719 101.999 66.0919 100.994 62.8383 102.157C58.7383 103.648 56.6819 108.024 58.2568 111.907C59.8317 115.791 63.3645 115.097 67.4646 113.605C71.5646 112.113 74.6971 110.424 73.1321 106.496C73.0074 106.197 72.8367 105.888 72.6659 105.579Z" fill="white"/>
<path d="M146.923 90.3811C147.242 90.0354 147.378 89.652 147.207 89.3432C147.062 89.131 146.806 88.9872 146.463 89.0087C145.141 86.1355 142 84.2611 138.51 84.5532C134.132 84.9378 130.895 88.5695 131.245 92.7511C131.595 96.9326 135.215 97.1239 139.63 96.7924C144.044 96.4608 147.515 95.6168 147.165 91.4352C147.106 91.0579 147.037 90.7242 146.923 90.3811Z" fill="white"/>
</g>
</g>
<defs>
<filter id="filter0_d_1245_20970" x="-0.897461" y="6.67518" width="216.337" height="201.581" filterUnits="userSpaceOnUse" color-interpolation-filters="sRGB">
<feFlood flood-opacity="0" result="BackgroundImageFix"/>
<feColorMatrix in="SourceAlpha" type="matrix" values="0 0 0 0 0 0 0 0 0 0 0 0 0 0 0 0 0 0 127 0" result="hardAlpha"/>
<feOffset dy="4"/>
<feGaussianBlur stdDeviation="2"/>
<feComposite in2="hardAlpha" operator="out"/>
<feColorMatrix type="matrix" values="0 0 0 0 0 0 0 0 0 0 0 0 0 0 0 0 0 0 0.25 0"/>
<feBlend mode="normal" in2="BackgroundImageFix" result="effect1_dropShadow_1245_20970"/>
<feBlend mode="normal" in="SourceGraphic" in2="effect1_dropShadow_1245_20970" result="shape"/>
</filter>
</defs>
</svg>
