<svg width="45" height="45" viewBox="0 0 45 45" fill="none" xmlns="http://www.w3.org/2000/svg">
<path fill-rule="evenodd" clip-rule="evenodd" d="M11.4736 34.9022C11.3358 34.6043 11.1411 34.3783 10.8893 34.2244C10.6375 34.0704 10.3426 33.9934 10.0048 33.9934C9.6669 33.9934 9.37207 34.0704 9.12028 34.2244C8.86848 34.3783 8.67265 34.6043 8.53276 34.9022C8.39503 35.2002 8.32616 35.5661 8.32616 36C8.32616 36.4339 8.39503 36.7998 8.53276 37.0978C8.67265 37.3957 8.86848 37.6217 9.12028 37.7756C9.37207 37.9296 9.6669 38.0066 10.0048 38.0066C10.3426 38.0066 10.6375 37.9296 10.8893 37.7756C11.1411 37.6217 11.3358 37.3957 11.4736 37.0978C11.6134 36.7998 11.6834 36.4339 11.6834 36C11.6834 35.5661 11.6134 35.2002 11.4736 34.9022ZM9.36702 36.7623C9.44776 36.9334 9.53819 37.0201 9.62001 37.0701C9.7059 37.1226 9.82231 37.162 10.0048 37.162C10.1872 37.162 10.3036 37.1226 10.3895 37.0701C10.4704 37.0207 10.5594 36.935 10.6383 36.7644L10.6403 36.76C10.7165 36.5979 10.7744 36.3546 10.7744 36C10.7744 35.6454 10.7165 35.4021 10.6404 35.2399L10.6383 35.2356C10.5594 35.065 10.4704 34.9793 10.3895 34.9299C10.3036 34.8774 10.1872 34.838 10.0048 34.838C9.82231 34.838 9.7059 34.8774 9.62001 34.9299C9.53819 34.9799 9.44777 35.0666 9.36703 35.2377C9.29193 35.4012 9.2352 35.6456 9.2352 36C9.2352 36.3544 9.29193 36.5988 9.36702 36.7623ZM12.0295 39.5206L12.0283 39.5212C11.413 39.8453 10.7311 40 10.0048 40C9.27408 40 8.58883 39.8443 7.972 39.5168C7.34683 39.1849 6.8608 38.7057 6.51463 38.1058C6.15695 37.4859 6 36.7726 6 36C6 35.2259 6.15676 34.5114 6.51463 33.8912C6.86084 33.2913 7.34725 32.8126 7.97339 32.4825C8.58985 32.1555 9.27463 32 10.0048 32C10.7316 32 11.4137 32.1559 12.0289 32.4821C12.2632 32.6051 12.478 32.7488 12.6733 32.9119V32.084H22.2129V34.6185H23.2324V32.084H34.8627C35.467 32.084 36.0401 32.1841 36.5485 32.4225C37.0528 32.656 37.4601 33.0011 37.7395 33.4557C38.0186 33.9041 38.1412 34.4073 38.1412 34.9352C38.1412 35.4666 38.0167 35.9737 37.728 36.4218L37.7266 36.424C37.5962 36.6251 37.44 36.803 37.2613 36.958L39 39.916H35.3798L34.5612 38.4925V39.916H23.2324V37.3785H22.2129V39.916H18.9971V34.844H17.897V39.916H14.6973V34.844H13.8749C13.9667 35.2099 14.0095 35.5969 14.0095 36C14.0095 36.7746 13.8515 37.4896 13.491 38.11C13.1443 38.7103 12.6566 39.1892 12.0295 39.5206ZM12.6905 37.7097C12.9639 37.2398 13.1005 36.6699 13.1005 36C13.1005 35.5743 13.0453 35.189 12.9349 34.844C12.8716 34.6462 12.7902 34.4616 12.6905 34.2903C12.6848 34.2804 12.6791 34.2706 12.6733 34.2608C12.4037 33.8054 12.0393 33.4573 11.5801 33.2166C11.1131 32.9686 10.588 32.8446 10.0048 32.8446C9.41726 32.8446 8.89 32.9686 8.42301 33.2166C7.95601 33.4625 7.58693 33.8204 7.31577 34.2903C7.04461 34.7602 6.90903 35.3301 6.90903 36C6.90903 36.6679 7.04461 37.2368 7.31577 37.7067C7.58693 38.1766 7.95601 38.5355 8.42301 38.7834C8.89 39.0314 9.41726 39.1554 10.0048 39.1554C10.588 39.1554 11.1131 39.0324 11.5801 38.7864C12.0492 38.5385 12.4194 38.1796 12.6905 37.7097ZM15.6063 33.9994V39.0714H16.9879V33.9994H19.012V32.9286H13.5823V33.9994H15.6063ZM19.9061 39.0714H21.3039V36.5339H24.1414V39.0714H25.5359V32.9286H24.1414V35.4631H21.3039V32.9286H19.9061V39.0714ZM33.6522 39.0714H32.2544V32.9286H34.8627C35.362 32.9286 35.7881 33.0116 36.141 33.1776C36.4961 33.3415 36.7662 33.5745 36.9513 33.8764C37.1385 34.1764 37.2321 34.5293 37.2321 34.9352C37.2321 35.3431 37.1374 35.6941 36.9481 35.988C36.9044 36.0553 36.8562 36.119 36.8035 36.1791C36.6276 36.3796 36.4014 36.5399 36.1249 36.6599C36.1052 36.6685 36.0853 36.6768 36.0651 36.685L37.4678 39.0714H35.9248L34.6725 36.8938H33.6522V39.0714ZM35.66 35.4421C35.6624 35.4385 35.6647 35.4349 35.6669 35.4313C35.7506 35.2972 35.7924 35.1319 35.7924 34.9352C35.7924 34.7313 35.7483 34.5593 35.66 34.4193C35.574 34.2793 35.4416 34.1734 35.263 34.1014C35.0865 34.0274 34.8638 33.9904 34.5948 33.9904H33.6522V35.85H34.6012C34.8681 35.85 35.0898 35.816 35.2662 35.7481C35.4427 35.6801 35.574 35.5781 35.66 35.4421ZM34.5612 35.0054H34.6012C34.7442 35.0054 34.8328 34.9912 34.8815 34.979C34.8826 34.9673 34.8834 34.9528 34.8834 34.9352C34.8834 34.9048 34.8812 34.8827 34.8788 34.8674C34.8457 34.856 34.7603 34.835 34.5948 34.835H34.5612V35.0054ZM34.8718 34.8392C34.8718 34.8392 34.872 34.8395 34.8724 34.8404L34.8718 34.8392ZM34.8742 35.0196C34.8742 35.0195 34.8744 35.0191 34.8747 35.0183L34.8742 35.0196ZM28.0861 35.4631V33.9994H31.1431V32.9286H26.6884V39.0714H31.1561V38.0006H28.0861V36.5339H30.9139V35.4631H28.0861Z" fill="#454545"/>
<path d="M1 17.0316V17.4723V28.3473V28.7879V31.8195H13.1273V28.3473H4.58182V17.4723H13.1273V14H1V17.0316Z" fill="#454545"/>
<path d="M16.6641 17.4723H20.9368V31.8195H24.5186V17.4723H28.7913V14H16.6641V17.4723Z" fill="#454545"/>
<path d="M43.9437 17.4723V14H31.8164V17.0316V17.4723V28.3473V28.7879V31.8195H43.9437V28.3473H35.3982V17.4723H43.9437Z" fill="#454545"/>
<path d="M10.3153 24.4872L13.1274 26.0618V22.9127V19.7635L10.3153 21.3381L7.49707 22.9127L10.3153 24.4872Z" fill="#454545"/>
</svg>
