<?xml version="1.0" encoding="utf-8"?>
<!-- Generator: Adobe Illustrator 27.0.0, SVG Export Plug-In . SVG Version: 6.00 Build 0)  -->
<svg version="1.1" id="圖層_1" xmlns="http://www.w3.org/2000/svg" xmlns:xlink="http://www.w3.org/1999/xlink" x="0px" y="0px"
	 viewBox="0 0 478.2 467.1" style="enable-background:new 0 0 478.2 467.1;" xml:space="preserve">
<style type="text/css">
	.st0{fill:#2B0802;}
	.st1{fill:#691C17;}
	.st2{fill:#EC8E26;}
	.st3{fill:#8B7A76;}
	.st4{fill:#77727A;}
	.st5{opacity:0.39;}
	.st6{fill:#953623;}
	.st7{fill:#E99D29;}
	.st8{fill:#FBF8F3;}
	.st9{fill:#FFFFFF;}
	.st10{opacity:0.39;fill:#953623;}
	.st11{opacity:0.69;fill:#FFFFFF;}
	.st12{opacity:0.51;fill:#953623;}
	.st13{fill:#E9CFBA;}
	.st14{fill:#DA801A;}
	.st15{fill:#D56E16;}
	.st16{fill:#6EA632;}
	.st17{fill:#621E15;}
	.st18{fill:#C9491A;}
	.st19{fill:#589E35;}
	.st20{fill:#167E3B;}
	.st21{fill:#2C0803;}
	.st22{fill:#2C0802;}
	.st23{fill:#B48C1E;}
	.st24{fill:#F0D831;}
	.st25{fill:#F1E134;}
	.st26{fill:#EFCA2B;}
	.st27{fill:#EFC62B;}
	.st28{fill:#EDB929;}
	.st29{fill:#EEB028;}
	.st30{fill:#EFCC2B;}
	.st31{fill:#EFBF2A;}
	.st32{fill:#EDBB29;}
	.st33{fill:#EEB829;}
	.st34{fill:#EB8E25;}
	.st35{fill:#EE9F27;}
	.st36{fill:#EA9327;}
	.st37{fill:#EDB329;}
	.st38{fill:#EDA729;}
	.st39{fill:#EDAB28;}
	.st40{fill:#EB9026;}
	.st41{fill:#ED9E27;}
	.st42{fill:#ECA429;}
	.st43{fill:#ECA028;}
	.st44{fill:#EEAD29;}
	.st45{fill:#EB9425;}
	.st46{fill:#F0D530;}
	.st47{fill:#F1E234;}
	.st48{fill:#EFC72B;}
	.st49{fill:#EEB429;}
	.st50{fill:#EDA629;}
	.st51{fill:#EDB129;}
	.st52{fill:#EEC02A;}
	.st53{fill:#EFCE2D;}
	.st54{fill:#EEBE29;}
	.st55{fill:#EFC42B;}
	.st56{fill:#EC9F27;}
	.st57{fill:#EDAD28;}
	.st58{fill:#EEA529;}
	.st59{fill:#EC9326;}
	.st60{fill:#EC9A25;}
	.st61{fill:#F1E53C;}
	.st62{fill:#F2E74A;}
	.st63{fill:#F2E642;}
	.st64{fill:#F2E856;}
	.st65{fill:#F3EA5F;}
	.st66{fill:#F3E85A;}
	.st67{fill:#F3E969;}
	.st68{fill:#F4EB73;}
	.st69{fill:#F4EB74;}
	.st70{fill:#F5EC80;}
	.st71{fill:#F5EC7D;}
	.st72{fill:#F6ED8F;}
	.st73{fill:#F6ED8B;}
	.st74{fill:#3D3839;}
	.st75{fill:#413B3B;}
	.st76{fill:#3E393A;}
</style>
<g>
	<g>
		<g>
			<g>
				<path class="st0" d="M451.3,286.2c5.5,1.6,10.7,4,15.4,7.4c3.7,2.7,5.7,6.6,5.6,11.2c-0.1,8.1-3.5,14.6-10.2,19.2
					c-5.1,3.6-10.6,3.6-16,0.6c-2.5-1.4-4.9-3-7.4-4.4c-1.9-1.5-2.7-3.7-3.4-5.9c-2.6-8.9,0.4-20.6,8.4-26.1
					C446,286.7,448.5,285.8,451.3,286.2z"/>
				<path class="st0" d="M455.5,329.3c-3.5,0.4-7.1-0.4-10.7-2.4c-1.3-0.7-2.6-1.5-3.8-2.2c-1.2-0.7-2.4-1.4-3.6-2.1
					c-0.1-0.1-0.2-0.2-0.4-0.2c-2.5-2-3.5-4.7-4.3-7.2c-2.6-9.1-0.2-22.4,9.4-29c3-2,6.2-2.9,9.4-2.5c0.1,0,0.3,0,0.4,0.1
					c6.1,1.8,11.5,4.4,16.2,7.8c4.4,3.2,6.8,7.9,6.7,13.3c-0.1,8.9-4,16.3-11.3,21.4C461,328,458.3,329,455.5,329.3z M440.2,318
					c1.2,0.7,2.4,1.4,3.5,2.1c1.2,0.7,2.4,1.5,3.6,2.1c4.6,2.6,9.1,2.4,13.2-0.4c5.9-4.1,9-9.9,9-17.1c0-3.7-1.5-6.8-4.6-9
					c-4.1-3-8.9-5.4-14.3-7c-1.9-0.2-3.7,0.4-5.6,1.6c-7.3,5-9.5,15.7-7.3,23.2C438.4,315.6,439,317,440.2,318z"/>
			</g>
			<g>
				<path class="st0" d="M451.3,286.2c-0.8,0.5-1.8,0.3-2.7,0.5c-3.1,0.6-5.7,2.2-7.7,4.6c-6.1,7.4-7.6,15.7-4.5,24.8
					c0.5,1.5,1.6,2.7,2.3,4.2c-3.5-1.3-7.2-2.1-10.9-2.6c-3.1-1-5-3.3-6.5-5.9c-3.6-6-5.1-12.5-3.9-19.5c0.8-4.5,3-8.1,7.7-9.5
					c3-0.5,6.1-0.3,9.1-0.1c5.6,0.3,11,1.5,16.3,3.1C450.7,285.9,451,286.1,451.3,286.2z"/>
				<path class="st0" d="M438.9,322.9c-0.4,0-0.8,0-1.2-0.2c-3-1.1-6.3-1.9-10.4-2.5c-0.1,0-0.3-0.1-0.4-0.1c-4.2-1.3-6.6-4.6-8-7
					c-4.1-6.8-5.5-14-4.2-21.3c1.1-6.1,4.3-10,9.5-11.6c0.1,0,0.2-0.1,0.3-0.1c3.2-0.5,6.3-0.3,9.3-0.2l0.4,0c5.5,0.3,11,1.4,17,3.3
					c0.4,0.1,0.7,0.3,1,0.4l0.2,0.1c0.9,0.4,1.5,1.3,1.5,2.3c0,1-0.5,1.9-1.3,2.4c-1.1,0.6-2.1,0.7-2.8,0.7c-0.2,0-0.4,0-0.6,0.1
					c-2.5,0.5-4.6,1.8-6.2,3.7c-5.5,6.7-6.9,14-4.1,22.2c0.2,0.6,0.6,1.2,1,1.9c0.4,0.6,0.8,1.3,1.1,2c0.5,1,0.3,2.1-0.5,2.9
					C440.2,322.5,439.6,322.8,438.9,322.9z M428.3,315c1.9,0.3,3.6,0.6,5.3,1c-3-9.6-1.2-18.5,5.3-26.4c1-1.2,2.2-2.3,3.5-3.2
					c-2.9-0.6-5.6-1-8.4-1.1l-0.4,0c-2.8-0.2-5.4-0.3-7.9,0.1c-3.2,1-5,3.3-5.7,7.4c-1.1,6,0.1,11.9,3.5,17.6
					C425,312.9,426.5,314.4,428.3,315z"/>
			</g>
			<g>
				<path class="st0" d="M377.9,305.8c0.2-0.7,0.8-1.2,1.3-1.7c3.5-3.9,7.6-7.2,11.9-10.1c0.3-0.2,0.8-0.4,1.1-0.6
					c0.7,0.5,0.3,1.1,0.2,1.7c-2,11,4.4,21.2,12.9,26.1c0.6,0.3,1.5,0.4,1.5,1.4c-2.1,1.5-4.2,3.1-6.3,4.6c-1,1-2.3,1-3.6,1.1
					c-7,0.4-14.4-4.1-17.5-10.5c-1.5-3-2.3-6.1-2.2-9.5C377.3,307.4,377.4,306.6,377.9,305.8z"/>
				<path class="st0" d="M398.2,330.8c-0.4,0-0.8,0.1-1.1,0.1c-8,0.4-16.4-4.6-20-11.9c-1.8-3.6-2.6-7.1-2.4-10.8
					c0-1,0.2-2.2,0.9-3.5c0.4-1,1-1.7,1.5-2.1c0.1-0.1,0.2-0.2,0.2-0.3c3.5-3.8,7.5-7.2,12.4-10.5c0.4-0.3,0.8-0.5,1.1-0.6
					c0.1,0,0.2-0.1,0.3-0.1c0.9-0.5,2-0.4,2.8,0.2c0.9,0.7,1.8,1.9,1.2,4.1l0,0.1c-1.9,10.3,4.7,19.3,11.6,23.3c0,0,0.1,0,0.2,0.1
					c1.7,0.7,2.6,1.9,2.7,3.5c0,0.9-0.4,1.7-1.1,2.2l-6.1,4.5C400.9,330.3,399.4,330.7,398.2,330.8z M380.4,306.6
					c-0.1,0.3-0.2,0.5-0.4,0.7c-0.1,0.2-0.2,0.5-0.2,1c-0.1,2.7,0.5,5.4,1.9,8.2c2.7,5.4,9.1,9.3,15,9c1.1-0.1,1.6-0.1,1.9-0.4
					c0.1-0.1,0.2-0.1,0.2-0.2l3.4-2.5c-7-4.7-13.3-13.6-13-24c-3.1,2.4-5.8,4.8-8.3,7.4c-0.1,0.1-0.2,0.3-0.4,0.4
					C380.6,306.4,380.5,306.5,380.4,306.6z M377.9,305.8L377.9,305.8L377.9,305.8z"/>
			</g>
			<g>
				<path class="st0" d="M420,317.9c-1.9,0.5-3.8,0.9-5.7,1.4c-3,0.1-5.7-0.9-8.1-2.5c-7.2-4.8-11.5-13.7-9.2-22.4
					c0.5-1.8,1.2-3.6,2.6-4.9c0.2-0.4,0.6-0.6,1-0.7c4.6-2,9.4-3.6,14.3-4.7c0.2,0,0.5,0,0.7,0c0.4,0.7-0.1,1.3-0.4,1.9
					c-3.7,7.5-2.9,15-0.1,22.5c1.1,2.9,2.4,5.7,4.5,8.1C419.8,316.9,420.1,317.4,420,317.9z"/>
				<path class="st0" d="M414.5,321.9c-0.1,0-0.1,0-0.2,0c-3.3,0.1-6.6-0.9-9.6-3c-8.6-5.8-12.8-15.9-10.3-25.2
					c0.5-1.8,1.2-4.1,3.1-5.9c0.6-0.9,1.5-1.3,2-1.5c5.2-2.2,10.1-3.8,14.9-4.9c0.5-0.1,0.9-0.1,1.2-0.1c1,0,2,0.6,2.5,1.5
					c0.9,1.8,0.1,3.4-0.3,4l-0.1,0.2c-3,5.9-3,12.4,0,20.4c1.2,3.2,2.4,5.5,4,7.3c1,1.2,1.4,2.5,1,3.7c-0.3,0.9-1,1.6-1.9,1.9
					l-5.7,1.4C414.8,321.9,414.6,321.9,414.5,321.9z M420,317.9L420,317.9L420,317.9z M401.6,291.2c-0.1,0.1-0.1,0.2-0.2,0.2
					c-0.8,0.8-1.4,1.9-1.8,3.7c-1.9,7.1,1.4,15,8.2,19.5c2.1,1.4,4.1,2.1,6.3,2.1l2-0.5c-1.2-1.9-2.3-4.1-3.3-6.8
					c-3-8.1-3.3-15.3-1-21.8C408.3,288.5,405,289.7,401.6,291.2C401.6,291.2,401.6,291.2,401.6,291.2z"/>
			</g>
			<g>
				<path class="st0" d="M365.1,329.8c1.5-6.2,3.9-11.9,7.6-17.1c1.4,1.3,1.2,3.2,1.9,4.8c3.6,8.1,9.5,13.2,18.4,14.8
					c0.9,0.2,2,0,2.7,0.8c-0.7,1.4-1.4,2.7-2.1,4.1c-2.1,2.2-4.3,4.1-7.1,5.2c-6.7,2.7-14.9,1.5-19.2-5.3
					C365.8,334.9,365.3,332.4,365.1,329.8z"/>
				<path class="st0" d="M381.8,346.2c-6.1,0.7-12.7-1.3-16.8-7.7c-1.5-2.3-2.3-5-2.5-8.5c0-0.3,0-0.5,0.1-0.8
					c1.6-6.7,4.3-12.8,8-18c0.4-0.6,1.1-1,1.9-1.1c0,0,0,0,0,0c0.8-0.1,1.5,0.2,2.1,0.7c1.4,1.4,1.8,3.1,2.1,4.3
					c0.1,0.5,0.2,1,0.4,1.3c3.4,7.6,8.7,11.9,16.4,13.2c0.2,0,0.3,0,0.5,0.1c0.9,0.1,2.4,0.2,3.7,1.5c0.8,0.8,1,2,0.5,3.1l-2.1,4.1
					c-0.1,0.2-0.3,0.4-0.4,0.6c-2,2.1-4.6,4.5-8.1,5.9C385.7,345.5,383.8,346,381.8,346.2z M367.8,330.1c0.2,2.3,0.7,4.1,1.7,5.6
					c3.8,5.9,10.8,6.4,16.1,4.3c2.4-1,4.4-2.7,5.9-4.3l0.4-0.8c-9.1-1.8-15.7-7.2-19.7-16.2c0,0,0,0,0,0
					C370.3,322,368.8,325.9,367.8,330.1z"/>
			</g>
			<g>
				<path class="st0" d="M362.1,350.3c0.7-3.4,0.8-7,1.3-10.4c0.8-0.1,1,0.6,1.3,1c5.9,7.8,16.8,8.5,23.3,5.4c1-0.5,2-1.4,3.4-1
					c0.1,1.2-0.3,2.3-0.5,3.4c-0.7,3.6-1.7,7.1-3,10.5c-2.1,2.2-4.4,4-7.4,4.7c-7.5,1.7-16.4-3.8-18.2-11.2
					C362.1,351.9,362.1,351.1,362.1,350.3z"/>
				<path class="st0" d="M379.4,366.7c-8.5,0.9-17.7-5.2-19.7-13.5c-0.2-1-0.3-2.1-0.2-3.2c0-0.1,0-0.2,0-0.3c0.4-2,0.6-3.9,0.8-6
					c0.1-1.4,0.3-2.8,0.5-4.3c0.2-1.1,1-2,2.2-2.2c1.1-0.2,2.7,0,3.9,2l0.1,0.1c5.1,6.8,14.9,7,19.9,4.6c0.2-0.1,0.3-0.2,0.5-0.3
					c1-0.6,2.6-1.5,4.8-0.9c1,0.3,1.8,1.2,1.9,2.3c0.1,1.3-0.1,2.5-0.4,3.5c-0.1,0.2-0.1,0.5-0.2,0.7c-0.8,4-1.8,7.5-3.1,10.9
					c-0.1,0.3-0.3,0.6-0.6,0.9c-2,2.1-4.7,4.6-8.8,5.4C380.5,366.6,380,366.6,379.4,366.7z M364.8,350.6c0,0.5,0,1,0.1,1.4
					c1.4,6,8.9,10.6,15,9.3c2-0.4,3.7-1.5,5.7-3.5c1-2.7,1.8-5.5,2.5-8.6c-6.7,2.7-16.1,1.9-22.6-3.6
					C365.3,347.2,365.1,348.9,364.8,350.6z"/>
			</g>
			<g>
				<path class="st0" d="M367.5,386.6c-1.9,1.8-4.2,2.9-6.5,3.9c-3.7,1.8-7.6,3.3-11.7,4c-0.5,0-0.9,0-1.4-0.2
					c-2-0.7-3.4-2.1-4.5-3.8c-2.6-4.1-3.6-8.6-2.8-13.4c0.3-1.7,0.8-3.2,2.3-4.1c2.3-0.9,4.5-1.9,6.6-3.2c0.8-0.5,1.5-1.3,2.4-1.5
					c0.9,0.5,0.9,1.4,1.1,2.2c2.3,7.2,6.6,12.6,13.8,15.4c0.3,0.1,0.7,0.2,0.9,0.6c0,0,0,0.1-0.1,0.1
					C367.6,386.5,367.6,386.6,367.5,386.6z"/>
				<path class="st0" d="M349.5,397.1c-0.1,0-0.1,0-0.2,0c-0.7,0-1.3,0-2.1-0.2c-0.1,0-0.2,0-0.2-0.1c-2.4-0.8-4.3-2.4-5.9-4.9
					c-3-4.7-4.1-9.9-3.2-15.2c0.3-2,1-4.4,3.6-6c0.1-0.1,0.2-0.1,0.4-0.2c2.2-0.9,4.3-1.8,6.2-3c0.2-0.1,0.4-0.3,0.6-0.4
					c0.6-0.5,1.4-1.1,2.6-1.4c0.6-0.2,1.3-0.1,1.9,0.2c1.8,0.9,2.2,2.6,2.4,3.4c0,0.1,0,0.2,0.1,0.3c2.2,6.9,6.2,11.4,12.3,13.8
					c0.5,0.2,1.6,0.6,2.2,1.8c0.3,0.6,0.4,1.4,0.2,2.1c-0.2,0.7-0.7,1.3-1.4,1.7c-2.2,1.9-4.6,3-6.8,4c-4.7,2.2-8.6,3.5-12.4,4.2
					C349.6,397.1,349.6,397.1,349.5,397.1z M348.6,391.8c0.2,0,0.3,0.1,0.4,0.1c3.3-0.6,6.6-1.7,10.8-3.7c0.9-0.4,1.9-0.9,2.8-1.4
					c-5.5-3.1-9.5-8-11.8-14.6c-2.2,1.4-4.5,2.4-6.7,3.3c-0.4,0.3-0.7,0.8-1,2.2c-0.7,4.1,0.1,7.9,2.4,11.5
					C346.5,390.5,347.4,391.4,348.6,391.8z"/>
			</g>
			<g>
				<path class="st0" d="M384.1,367.8c-0.2,1.2-1,2.1-1.6,3.1c-2.2,3.5-4.6,6.9-7.7,9.7c-3.7,2.6-7.3,1.8-10.6-0.8
					c-4.5-3.5-7.3-8-7.8-13.8c-0.1-0.7-0.1-1.5,0.2-2.2c0.1-0.4,0.3-0.7,0.4-1.1c0.8-1.5,1.7-2.9,2.5-4.4c0.9-0.3,0.9,0.5,1.2,1
					c4.5,7.1,14.1,10.8,21.2,8.6C382.6,367.7,383.3,367.3,384.1,367.8z"/>
				<path class="st0" d="M371.2,384.7c-2.5,0.3-5.4-0.4-8.6-2.9c-5.3-4.2-8.3-9.4-8.8-15.6c-0.1-0.7-0.2-2,0.3-3.3
					c0.1-0.2,0.2-0.4,0.2-0.6c0,0,0-0.1,0-0.1c0.1-0.3,0.2-0.6,0.3-0.8l2.5-4.4c0.3-0.6,0.8-1,1.4-1.2c1.4-0.5,3.4-0.2,4.3,2.1
					c0,0,0,0,0,0c3.8,5.9,12.1,9.3,18.2,7.4l0.2-0.1c0.7-0.2,2.4-0.8,4.1,0.3c0.9,0.6,1.4,1.7,1.2,2.7c-0.3,1.4-1,2.6-1.6,3.5
					l-0.3,0.5c-2.1,3.3-4.7,7.1-8.1,10.2c-0.1,0.1-0.2,0.1-0.3,0.2C375,383.6,373.2,384.5,371.2,384.7z M359.5,363.7
					c-0.1,0.4-0.2,0.6-0.3,0.8c0,0.1-0.1,0.1-0.1,0.2c-0.1,0.2,0,0.7,0,1c0.4,4.8,2.6,8.6,6.8,11.9c2.7,2.1,4.9,2.4,7.3,0.8
					c2.4-2.2,4.3-4.7,6-7.3c-6.9,0.6-14.5-2.6-19.2-8.3L359.5,363.7z M354.4,362.4C354.4,362.4,354.4,362.4,354.4,362.4
					C354.4,362.4,354.4,362.4,354.4,362.4z M363,357.9C363,357.9,363,357.9,363,357.9C363,357.9,363,357.9,363,357.9z"/>
			</g>
			<g>
				<path class="st0" d="M420,317.9c-5.4-6.5-7.8-14-7.7-22.4c0.1-4.1,1.3-7.9,3.3-11.4c3.1-0.9,6.3-1.3,9.5-1.3
					c-0.3,0.4-0.7,0.6-1.2,0.8c-2.8,1.3-4.4,3.6-5.4,6.4c-1.6,4.7-1.2,9.4,0,14.1c1,3.7,2.6,7.1,5.1,10c1.2,1.4,2.8,2.3,4.2,3.5
					C425.1,317.7,422.6,317.8,420,317.9z"/>
				<path class="st0" d="M428,320.2c-0.1,0-0.1,0-0.2,0l-7.7,0.3c-0.8,0-1.6-0.3-2.1-1c-5.7-6.8-8.5-14.9-8.3-24.1
					c0.1-4.2,1.2-8.3,3.6-12.7c0.3-0.6,0.9-1.1,1.6-1.3c3.2-0.9,6.7-1.4,10.2-1.4c1,0,2,0.6,2.4,1.5c0.4,0.9,0.3,2-0.3,2.8
					c-0.7,0.9-1.6,1.3-2.1,1.5c-1.9,0.9-3.2,2.5-4,4.8c-1.3,3.7-1.2,7.7,0.1,12.5c1,3.6,2.4,6.5,4.6,9c0.6,0.7,1.3,1.2,2.1,1.9
					c0.6,0.4,1.2,0.9,1.8,1.4c0.8,0.7,1.1,1.8,0.7,2.9C429.9,319.4,429,320.1,428,320.2z"/>
			</g>
			<g>
				<path class="st0" d="M399.5,289.5c0,0.4-0.3,0.8-0.5,1.2c-2.3,4.1-2.9,8.4-1.7,12.9c1.7,6.5,5.5,11.3,11.7,14.2
					c1.1,0.5,2.2,0.8,3.3,1c0.7,0.1,1.3,0.2,1.9,0.6c-2.6,0.9-5,2.1-7.5,3.2c-4-2-7.3-4.7-10-8.3c-4.5-6.2-6.3-12.9-4.6-20.5
					c0-0.1,0-0.2,0-0.4C394.5,291.8,396.9,290.4,399.5,289.5z"/>
				<path class="st0" d="M407,325.2c-0.5,0.1-1,0-1.5-0.3c-4.6-2.3-8.1-5.3-10.9-9.1c-5.1-7-6.8-14.5-5.1-22.4l0-0.1
					c0-0.8,0.5-1.6,1.2-2.1c2.2-1.5,4.9-3.1,7.9-4.2c0.8-0.3,1.7-0.2,2.4,0.4c0.7,0.5,1.1,1.3,1.1,2.2c0,1.1-0.5,1.8-0.7,2.3
					l-0.1,0.1c-2,3.5-2.5,7.1-1.4,10.9c1.6,5.9,4.9,10,10.2,12.5c0.8,0.4,1.6,0.6,2.6,0.7c0.7,0.1,1.9,0.3,3,1
					c0.8,0.6,1.3,1.5,1.1,2.5c-0.1,1-0.8,1.8-1.8,2.2c-1.7,0.6-3.3,1.3-5,2.1c-0.8,0.3-1.5,0.7-2.3,1
					C407.5,325.1,407.3,325.1,407,325.2z M394.6,303.3c0.3,1.5,0.7,2.9,1.4,4.3c-0.4-1.1-0.8-2.2-1.1-3.4
					C394.7,303.9,394.6,303.6,394.6,303.3z M389.6,293.5C389.6,293.5,389.6,293.5,389.6,293.5L389.6,293.5z"/>
			</g>
			<g>
				<path class="st0" d="M395.7,333.1c-6.8-0.4-12.4-3-17-8.1c-3-3.3-4.9-7.1-5.8-11.4c-0.1-0.3-0.2-0.6-0.2-0.9
					c1.5-2.5,3.1-4.9,5.2-6.9c-1.9,11.9,7,20.6,16.1,21.9c2.2,0.3,4.4,0,6.5-0.6C398.8,329.1,397.1,330.9,395.7,333.1z"/>
				<path class="st0" d="M396,335.7c-0.1,0-0.3,0-0.4,0c-7.5-0.4-13.8-3.4-18.8-9c-3.3-3.7-5.5-7.9-6.4-12.6c0-0.1-0.1-0.3-0.1-0.4
					l-0.1-0.3c-0.2-0.7-0.1-1.4,0.3-2c1.4-2.4,3.2-5.1,5.7-7.5c0.8-0.8,2-0.9,3-0.4c1,0.5,1.5,1.6,1.4,2.7
					c-0.9,5.6,1.1,9.7,2.9,12.2c2.6,3.6,6.7,6,11,6.6c1.7,0.2,3.4,0.1,5.4-0.5c1.1-0.3,2.3,0.1,2.9,1.1c0.6,1,0.5,2.3-0.2,3.1
					c-0.4,0.5-0.8,0.9-1.2,1.4c-1.2,1.4-2.4,2.8-3.4,4.3C397.5,335.2,396.8,335.6,396,335.7z"/>
			</g>
			<g>
				<path class="st0" d="M391.4,345.2c-2.7,1.4-5.3,2.7-8.3,3c-7.2,0.9-13.5-0.9-18.3-6.6c-0.5-0.6-0.9-1.2-1.3-1.8
					c0-3.4,0.6-6.8,1.7-10c0.6,0.5,0.6,1.2,0.7,1.8c1.6,9.2,10,12.9,17.7,11.1c3.2-0.7,6-2.3,8.4-4.6c0.5-0.5,0.9-1.2,1.8-1.1
					C392.5,339.7,392,342.5,391.4,345.2z"/>
				<path class="st0" d="M383,350.9c-8.5,0.9-15.3-1.6-20.3-7.6c-0.4-0.5-0.7-1-1-1.4c-0.1-0.2-0.2-0.4-0.4-0.5
					c-0.3-0.5-0.5-1-0.5-1.6c0-3.6,0.6-7.2,1.8-10.8c0.3-0.8,0.9-1.4,1.7-1.7c0.8-0.3,1.7-0.1,2.4,0.4c1.4,1,1.6,2.5,1.7,3.3
					c0,0.1,0,0.2,0,0.2c0.6,3.2,2.1,5.8,4.6,7.4c2.7,1.8,6.3,2.4,9.9,1.6c2.7-0.6,5-1.9,7.2-3.9c0.1-0.1,0.1-0.1,0.2-0.2
					c0.5-0.5,1.7-1.9,3.8-1.6c0.8,0.1,1.5,0.6,1.9,1.3c0.4,0.7,0.5,1.6,0.1,2.3c-0.7,1.7-1.2,3.6-1.6,5.6c-0.2,0.7-0.3,1.4-0.5,2.1
					c-0.2,0.7-0.7,1.4-1.4,1.7c-2.9,1.5-5.9,2.9-9.2,3.3C383.2,350.9,383.1,350.9,383,350.9z M391.4,345.2L391.4,345.2L391.4,345.2z
					 M384.8,345.2c-0.2,0.1-0.5,0.1-0.8,0.2c-0.3,0.1-0.7,0.1-1,0.2C383.6,345.5,384.2,345.4,384.8,345.2z M372.3,344.3
					c0.7,0.3,1.5,0.6,2.3,0.9C373.8,344.9,373,344.6,372.3,344.3z"/>
			</g>
			<g>
				<path class="st0" d="M341.3,395.7c-3.8,0.4-7.5,0.6-11.3,0.3c-1.3-0.1-1.3-0.1-1.3-1.4c-0.2-6,0-12.1,0.1-18.1
					c0-0.5-0.1-1.1,0.8-1.1c2.2-0.2,4.5-0.4,6.7-0.7c0.7,0.5,0.3,1.1,0.2,1.7c-1,6.5,0.3,12.3,4.2,17.6
					C341,394.6,341.5,395,341.3,395.7z"/>
				<path class="st0" d="M341.6,398.3C341.6,398.3,341.6,398.3,341.6,398.3c-4.4,0.5-8.2,0.6-11.8,0.3c-2.6-0.2-3.7-1.3-3.8-3.9
					c-0.2-4.6-0.1-9.2,0-13.7c0-1.5,0.1-3,0.1-4.5c0-3.3,2.7-3.7,3.2-3.7c2.2-0.2,4.4-0.4,6.6-0.6c0.7-0.1,1.3,0.1,1.9,0.5
					c0.9,0.7,1.8,1.9,1.2,4.1l0,0.1c-0.9,5.8,0.3,10.9,3.7,15.6l0.1,0.2c0.4,0.5,1.5,1.8,1,3.6C343.6,397.4,342.7,398.2,341.6,398.3
					z M331.3,393.4c1.8,0.1,3.7,0.1,5.7,0c-2.8-4.8-4-10-3.4-15.7c-0.7,0.1-1.5,0.2-2.2,0.2c0,1.1,0,2.1-0.1,3.2
					C331.3,385.2,331.2,389.3,331.3,393.4z"/>
			</g>
			<g>
				<path class="st0" d="M384.1,367.8c-9.3,3-18.9-0.5-24.1-8.9c-0.1-0.2-0.3-0.4-0.4-0.6c1-2.6,1.8-5.3,2.6-8
					c0.3,1.2,0.6,2.4,1.1,3.5c2.5,6.9,10.9,11.5,17.7,9.5c2.1-0.6,3.9-1.7,5.5-3.1c0.4-0.4,0.7-1.1,1.5-0.9
					C386.8,362.1,385.7,365.1,384.1,367.8z"/>
				<path class="st0" d="M380,371.3c-8.8,1-17.4-3.1-22.2-11c-0.1-0.1-0.1-0.2-0.2-0.2l-0.2-0.2c-0.5-0.7-0.6-1.7-0.3-2.5
					c1-2.5,1.7-5,2.5-7.7l0-0.1c0.3-1.1,1.3-1.9,2.5-1.9c1.2,0,2.2,0.8,2.5,1.9c0.1,0.4,0.2,0.8,0.3,1.2c0.2,0.8,0.4,1.5,0.7,2.2
					c2.1,5.7,9,9.4,14.5,7.9c1.5-0.4,3-1.3,4.5-2.6l0,0c1.1-1.3,2.3-1.8,3.7-1.4c0.7,0.2,1.4,0.6,1.7,1.3c0.4,0.7,0.4,1.5,0.2,2.2
					l-0.1,0.2c-1.1,2.9-2.2,6-4,8.8c-0.3,0.5-0.8,0.9-1.4,1.1C383.2,370.8,381.6,371.2,380,371.3z M384.1,367.8L384.1,367.8
					L384.1,367.8z M365.7,361.7c2,1.8,4.3,3.1,6.9,3.8C370.1,364.8,367.7,363.5,365.7,361.7z"/>
			</g>
			<g>
				<path class="st0" d="M356.9,363.4c-0.3,6.8,2.7,12,7.9,16.2c0.9,0.7,1.8,1.2,2.9,1.5c1.8,0.7,3.7,0.7,5.5-0.1
					c0.5-0.2,1-0.7,1.7-0.5c-2.2,2.4-4.5,4.5-7.4,6.1c-5.1-1.4-8.6-4.8-11.6-8.9c-2-2.8-3.2-6-4-9.4c1.5-1.5,3.1-2.9,4.3-4.6
					c0-0.1,0.1-0.3,0.2-0.3c0-0.1,0.1-0.2,0.3-0.2C357,363.1,357,363.2,356.9,363.4z"/>
				<path class="st0" d="M367.8,389.2c-0.3,0-0.7,0-1-0.1c-5.1-1.4-9.2-4.6-13-10c-2-2.8-3.4-6.1-4.4-10.3c-0.2-0.9,0-1.8,0.7-2.5
					c0.4-0.4,0.8-0.8,1.2-1.2c1-1,1.9-1.9,2.7-2.9c0.1-0.2,0.3-0.4,0.4-0.6c0.4-0.6,1.1-1,1.8-1.2c0.3-0.1,0.5-0.1,0.8,0
					c1,0.1,1.8,0.6,2.2,1.4c0.3,0.6,0.4,1.2,0.3,1.9c-0.2,5.4,2.1,9.9,6.9,13.7c0.6,0.4,1.3,0.8,2.1,1.1c1.3,0.5,2.4,0.5,3.5,0
					c0.1,0,0.1-0.1,0.2-0.1c0.6-0.3,1.8-1,3.4-0.5c0.9,0.3,1.6,0.9,1.8,1.8c0.2,0.9,0,1.8-0.6,2.5c-2.7,3-5.3,5.1-8,6.6
					C368.5,389.1,368.1,389.2,367.8,389.2z"/>
			</g>
			<g>
				<path class="st0" d="M341.3,395.7c-3.9-4.5-5.8-9.7-5.7-15.7c0-1.8,0.4-3.5,0.7-5.2c2.2-0.6,4.4-1.2,6.6-1.7
					c-2.8,4.1-2.5,8.5-1.2,13c0.6,1.9,1.4,3.6,2.7,5.1c1.1,1.3,2.4,2.4,4,3.1c0.2,0.3,0.1,0.4-0.2,0.5
					C345.9,395.2,343.6,395.6,341.3,395.7z"/>
				<path class="st0" d="M343.7,398.1c-0.7,0.1-1.5,0.1-2.2,0.2c-0.8,0-1.6-0.3-2.1-0.9c-4.3-5-6.5-10.9-6.4-17.5
					c0-2,0.4-3.9,0.7-5.7c0.2-1,0.9-1.8,1.9-2.1l6.6-1.7c1.1-0.3,2.2,0.1,2.8,1c0.6,0.9,0.6,2.1,0,3c-2,2.9-2.2,6.2-0.8,10.7
					c0.5,1.8,1.3,3.1,2.2,4.2c1,1.2,1.9,1.9,3,2.3c0.5,0.2,1,0.6,1.3,1.1c0.5,0.9,0.6,1.9,0.3,2.8c-0.4,0.9-1.2,1.5-2.2,1.7
					C347.1,397.7,345.3,398,343.7,398.1z M347.6,392.1C347.6,392.1,347.6,392.1,347.6,392.1C347.6,392.1,347.6,392.1,347.6,392.1z"
					/>
			</g>
			<g>
				<path class="st0" d="M348.2,394.7c0.1-0.2,0.1-0.3,0.2-0.5c0.3-0.1,0.6,0.1,0.8,0.3C348.9,394.7,348.6,394.9,348.2,394.7z"/>
				<path class="st0" d="M348.9,397.4c-0.7,0.1-1.3-0.1-1.7-0.3c-1.3-0.6-2-2.1-1.4-3.4l0.2-0.5c0.3-0.8,1.1-1.4,2-1.6
					c1-0.2,2,0.1,3,0.8c0.6,0.5,1,1.3,1,2.1c0,0.8-0.4,1.6-1.1,2.1C350.1,397.1,349.5,397.3,348.9,397.4z M348.6,395.3l-1,1.3
					c0.2,0.1,0.7,0.4,1.3,0.2L348.6,395.3z M348.3,392.1c-0.3,0-0.5,0.1-0.7,0.2l1,1.3l0.6-1.4C348.9,392.1,348.6,392.1,348.3,392.1
					z"/>
			</g>
			<g>
				<path class="st0" d="M356.9,363.4l-0.1-0.1c0,0-0.1-0.2-0.1-0.2c0-0.2,0-0.3,0.2-0.4C357.1,363,357.1,363.2,356.9,363.4z"/>
				<path class="st0" d="M357.2,366c-0.1,0-0.2,0-0.3,0c-0.8,0-1.5-0.3-2-0.9l-0.1-0.1c-0.2-0.3-0.4-0.6-0.5-0.9l-0.1-0.2
					c0-0.1-0.1-0.3-0.1-0.4c-0.2-1.5,0.6-2.8,2-3.3c0.7-0.2,1.4-0.2,2,0.1c0.6,0.3,1.1,0.9,1.3,1.6c0.5,1.6-0.2,2.8-0.6,3.3
					C358.5,365.7,357.9,366,357.2,366z M357.2,363.2l0.7,2c1-0.4,1.7-1.5,1.5-2.5l-1.6,0.3L357.2,363.2z M355,361.6
					c-0.6,0.7-0.6,1.5-0.5,1.9l1.9-0.6L355,361.6z"/>
			</g>
			<g>
				<path class="st0" d="M356.5,363.4c0.1,0.2,0,0.3-0.2,0.3C356.3,363.5,356.3,363.4,356.5,363.4z"/>
				<path class="st0" d="M356.6,366.3c-0.7,0.1-1.4-0.1-1.9-0.5c-0.6-0.5-1-1.2-1-1.9c-0.1-1.5,0.9-2.8,2.4-3.1
					c1.3-0.3,2.6,0.5,3,1.8c0.2,0.8,0.1,1.7-0.3,2.4c-0.4,0.7-1.1,1.2-2,1.3C356.7,366.3,356.6,366.3,356.6,366.3z M356.6,363.7
					l0.4,2.3c1.1-0.2,2-1.3,1.9-2.4L356.6,363.7z M355.8,361.1c-0.6,0.1-1.2,0.5-1.6,1.1c-0.4,0.6-0.5,1.3-0.3,1.9l2.2-0.7
					L355.8,361.1z"/>
			</g>
		</g>
		<g>
			<path class="st1" d="M451.3,286.2c5.5,1.6,10.7,4,15.4,7.4c3.7,2.7,5.7,6.6,5.6,11.2c-0.1,8.1-3.5,14.6-10.2,19.2
				c-5.1,3.6-10.6,3.6-16,0.6c-2.5-1.4-4.9-3-7.4-4.4c-1.9-1.5-2.7-3.7-3.4-5.9c-2.6-8.9,0.4-20.6,8.4-26.1
				C446,286.7,448.5,285.8,451.3,286.2z"/>
			<path class="st2" d="M451.3,286.2c-0.8,0.5-1.8,0.3-2.7,0.5c-3.1,0.6-5.7,2.2-7.7,4.6c-6.1,7.4-7.6,15.7-4.5,24.8
				c0.5,1.5,1.6,2.7,2.3,4.2c-3.5-1.3-7.2-2.1-10.9-2.6c-3.1-1-5-3.3-6.5-5.9c-3.6-6-5.1-12.5-3.9-19.5c0.8-4.5,3-8.1,7.7-9.5
				c3-0.5,6.1-0.3,9.1-0.1c5.6,0.3,11,1.5,16.3,3.1C450.7,285.9,451,286.1,451.3,286.2z"/>
			<path class="st2" d="M377.9,305.8c0.2-0.7,0.8-1.2,1.3-1.7c3.5-3.9,7.6-7.2,11.9-10.1c0.3-0.2,0.8-0.4,1.1-0.6
				c0.7,0.5,0.3,1.1,0.2,1.7c-2,11,4.4,21.2,12.9,26.1c0.6,0.3,1.5,0.4,1.5,1.4c-2.1,1.5-4.2,3.1-6.3,4.6c-1,1-2.3,1-3.6,1.1
				c-7,0.4-14.4-4.1-17.5-10.5c-1.5-3-2.3-6.1-2.2-9.5C377.3,307.4,377.4,306.6,377.9,305.8z"/>
			<path class="st2" d="M420,317.9c-1.9,0.5-3.8,0.9-5.7,1.4c-3,0.1-5.7-0.9-8.1-2.5c-7.2-4.8-11.5-13.7-9.2-22.4
				c0.5-1.8,1.2-3.6,2.6-4.9c0.2-0.4,0.6-0.6,1-0.7c4.6-2,9.4-3.6,14.3-4.7c0.2,0,0.5,0,0.7,0c0.4,0.7-0.1,1.3-0.4,1.9
				c-3.7,7.5-2.9,15-0.1,22.5c1.1,2.9,2.4,5.7,4.5,8.1C419.8,316.9,420.1,317.4,420,317.9z"/>
			<path class="st2" d="M365.1,329.8c1.5-6.2,3.9-11.9,7.6-17.1c1.4,1.3,1.2,3.2,1.9,4.8c3.6,8.1,9.5,13.2,18.4,14.8
				c0.9,0.2,2,0,2.7,0.8c-0.7,1.4-1.4,2.7-2.1,4.1c-2.1,2.2-4.3,4.1-7.1,5.2c-6.7,2.7-14.9,1.5-19.2-5.3
				C365.8,334.9,365.3,332.4,365.1,329.8z"/>
			<path class="st2" d="M362.1,350.3c0.7-3.4,0.8-7,1.3-10.4c0.8-0.1,1,0.6,1.3,1c5.9,7.8,16.8,8.5,23.3,5.4c1-0.5,2-1.4,3.4-1
				c0.1,1.2-0.3,2.3-0.5,3.4c-0.7,3.6-1.7,7.1-3,10.5c-2.1,2.2-4.4,4-7.4,4.7c-7.5,1.7-16.4-3.8-18.2-11.2
				C362.1,351.9,362.1,351.1,362.1,350.3z"/>
			<path class="st2" d="M367.5,386.6c-1.9,1.8-4.2,2.9-6.5,3.9c-3.7,1.8-7.6,3.3-11.7,4c-0.5,0-0.9,0-1.4-0.2
				c-2-0.7-3.4-2.1-4.5-3.8c-2.6-4.1-3.6-8.6-2.8-13.4c0.3-1.7,0.8-3.2,2.3-4.1c2.3-0.9,4.5-1.9,6.6-3.2c0.8-0.5,1.5-1.3,2.4-1.5
				c0.9,0.5,0.9,1.4,1.1,2.2c2.3,7.2,6.6,12.6,13.8,15.4c0.3,0.1,0.7,0.2,0.9,0.6c0,0,0,0.1-0.1,0.1
				C367.6,386.5,367.6,386.6,367.5,386.6z"/>
			<path class="st2" d="M384.1,367.8c-0.2,1.2-1,2.1-1.6,3.1c-2.2,3.5-4.6,6.9-7.7,9.7c-3.7,2.6-7.3,1.8-10.6-0.8
				c-4.5-3.5-7.3-8-7.8-13.8c-0.1-0.7-0.1-1.5,0.2-2.2c0.1-0.4,0.3-0.7,0.4-1.1c0.8-1.5,1.7-2.9,2.5-4.4c0.9-0.3,0.9,0.5,1.2,1
				c4.5,7.1,14.1,10.8,21.2,8.6C382.6,367.7,383.3,367.3,384.1,367.8z"/>
			<path class="st1" d="M420,317.9c-5.4-6.5-7.8-14-7.7-22.4c0.1-4.1,1.3-7.9,3.3-11.4c3.1-0.9,6.3-1.3,9.5-1.3
				c-0.3,0.4-0.7,0.6-1.2,0.8c-2.8,1.3-4.4,3.6-5.4,6.4c-1.6,4.7-1.2,9.4,0,14.1c1,3.7,2.6,7.1,5.1,10c1.2,1.4,2.8,2.3,4.2,3.5
				C425.1,317.7,422.6,317.8,420,317.9z"/>
			<path class="st1" d="M399.5,289.5c0,0.4-0.3,0.8-0.5,1.2c-2.3,4.1-2.9,8.4-1.7,12.9c1.7,6.5,5.5,11.3,11.7,14.2
				c1.1,0.5,2.2,0.8,3.3,1c0.7,0.1,1.3,0.2,1.9,0.6c-2.6,0.9-5,2.1-7.5,3.2c-4-2-7.3-4.7-10-8.3c-4.5-6.2-6.3-12.9-4.6-20.5
				c0-0.1,0-0.2,0-0.4C394.5,291.8,396.9,290.4,399.5,289.5z"/>
			<path class="st1" d="M395.7,333.1c-6.8-0.4-12.4-3-17-8.1c-3-3.3-4.9-7.1-5.8-11.4c-0.1-0.3-0.2-0.6-0.2-0.9
				c1.5-2.5,3.1-4.9,5.2-6.9c-1.9,11.9,7,20.6,16.1,21.9c2.2,0.3,4.4,0,6.5-0.6C398.8,329.1,397.1,330.9,395.7,333.1z"/>
			<path class="st1" d="M391.4,345.2c-2.7,1.4-5.3,2.7-8.3,3c-7.2,0.9-13.5-0.9-18.3-6.6c-0.5-0.6-0.9-1.2-1.3-1.8
				c0-3.4,0.6-6.8,1.7-10c0.6,0.5,0.6,1.2,0.7,1.8c1.6,9.2,10,12.9,17.7,11.1c3.2-0.7,6-2.3,8.4-4.6c0.5-0.5,0.9-1.2,1.8-1.1
				C392.5,339.7,392,342.5,391.4,345.2z"/>
			<path class="st2" d="M341.3,395.7c-3.8,0.4-7.5,0.6-11.3,0.3c-1.3-0.1-1.3-0.1-1.3-1.4c-0.2-6,0-12.1,0.1-18.1
				c0-0.5-0.1-1.1,0.8-1.1c2.2-0.2,4.5-0.4,6.7-0.7c0.7,0.5,0.3,1.1,0.2,1.7c-1,6.5,0.3,12.3,4.2,17.6
				C341,394.6,341.5,395,341.3,395.7z"/>
			<path class="st1" d="M384.1,367.8c-9.3,3-18.9-0.5-24.1-8.9c-0.1-0.2-0.3-0.4-0.4-0.6c1-2.6,1.8-5.3,2.6-8
				c0.3,1.2,0.6,2.4,1.1,3.5c2.5,6.9,10.9,11.5,17.7,9.5c2.1-0.6,3.9-1.7,5.5-3.1c0.4-0.4,0.7-1.1,1.5-0.9
				C386.8,362.1,385.7,365.1,384.1,367.8z"/>
			<path class="st1" d="M356.9,363.4c-0.3,6.8,2.7,12,7.9,16.2c0.9,0.7,1.8,1.2,2.9,1.5c1.8,0.7,3.7,0.7,5.5-0.1
				c0.5-0.2,1-0.7,1.7-0.5c-2.2,2.4-4.5,4.5-7.4,6.1c-5.1-1.4-8.6-4.8-11.6-8.9c-2-2.8-3.2-6-4-9.4c1.5-1.5,3.1-2.9,4.3-4.6
				c0-0.1,0.1-0.3,0.2-0.3c0-0.1,0.1-0.2,0.3-0.2C357,363.1,357,363.2,356.9,363.4z"/>
			<path class="st1" d="M341.3,395.7c-3.9-4.5-5.8-9.7-5.7-15.7c0-1.8,0.4-3.5,0.7-5.2c2.2-0.6,4.4-1.2,6.6-1.7
				c-2.8,4.1-2.5,8.5-1.2,13c0.6,1.9,1.4,3.6,2.7,5.1c1.1,1.3,2.4,2.4,4,3.1c0.2,0.3,0.1,0.4-0.2,0.5
				C345.9,395.2,343.6,395.6,341.3,395.7z"/>
			<path class="st3" d="M348.2,394.7c0.1-0.2,0.1-0.3,0.2-0.5c0.3-0.1,0.6,0.1,0.8,0.3C348.9,394.7,348.6,394.9,348.2,394.7z"/>
			<path class="st4" d="M356.9,363.4l-0.1-0.1c0,0-0.1-0.2-0.1-0.2c0-0.2,0-0.3,0.2-0.4C357.1,363,357.1,363.2,356.9,363.4z"/>
			<path class="st4" d="M356.5,363.4c0.1,0.2,0,0.3-0.2,0.3C356.3,363.5,356.3,363.4,356.5,363.4z"/>
		</g>
	</g>
	<g>
		<g>
			<path class="st0" d="M104.8,255.7c0,0-62.9,36.3-55.7,90.5c0,0,1.6,17.1,14.3,30.6c0,0-29,11.5-21,49.3c0,0,9.9,35.7,40,33.8
				c0,0,72.7-24.8,121.7-24c0,0,50.7,1.3,89.8,18.9c0,0,30.2,15.7,44.6,5.2c0,0,32.5-17.9,28.7-48.2c0,0-1.3-20.1-19.6-26.5
				c0,0,26.4-20.8,16-65c0,0-17.4-42.1-28.7-47l-33.2-1.4c0,0-26,35.7-89.7,37.8C212.1,309.7,144.8,312.2,104.8,255.7z"/>
			<path class="st0" d="M329.2,466c-15.5,1.7-34.8-8-36.4-8.8c-38.1-17.1-88.2-18.6-88.7-18.6c-47.9-0.8-120,23.6-120.7,23.9
				c-0.2,0.1-0.5,0.1-0.7,0.1c-31.8,1.9-42.6-35.4-42.7-35.8c0-0.1,0-0.1,0-0.2c-6.7-31.7,11.6-46.1,19.4-50.6
				c-10.9-13.2-12.6-28.2-12.7-29.5c-3-23,5.9-46.4,25.8-67.7c14.9-16,30.5-25,31.2-25.4c1.2-0.7,2.7-0.4,3.5,0.8
				c38.7,54.7,104.3,52.9,105,52.9c61.6-2,87.5-36.4,87.7-36.7c0.5-0.7,1.4-1.1,2.2-1.1l33.2,1.4c0.3,0,0.7,0.1,1,0.2
				c11.9,5.2,28.2,44,30,48.4c0.1,0.1,0.1,0.3,0.1,0.4c8.5,36.4-6.9,57.4-13.9,64.7c15.6,7.9,17.3,25.5,17.4,27.1
				c3.9,31-27.1,49.2-29.9,50.7C336.9,464.4,333.2,465.6,329.2,466z M180.3,434.5c8.3-0.9,16.4-1.4,23.9-1.2
				c0.5,0,51.7,1.5,90.8,19.1c0,0,0.1,0,0.1,0.1c0.3,0.1,29,14.8,41.9,5.4c0.1-0.1,0.2-0.1,0.3-0.2c0.3-0.2,30.9-17.4,27.3-45.6
				c0-0.1,0-0.1,0-0.2c-0.1-0.7-1.5-18.5-17.8-24.2c-0.9-0.3-1.6-1.1-1.7-2.1c-0.2-1,0.2-1.9,1-2.5c1-0.8,24.8-20.4,15.1-62.1
				c-6.5-15.6-19.3-41.2-26.8-45.2l-31.3-1.3c-5.2,6.3-32.3,35.8-90.9,37.7c-0.7,0-17.5,0.6-39.4-5.9c-19.8-5.8-47.6-18.8-68.6-47.2
				c-10.6,6.8-58.5,40.3-52.4,86.7c0,0,0,0.1,0,0.1c0,0.2,1.7,16.4,13.6,29c0.6,0.6,0.8,1.5,0.7,2.4c-0.2,0.9-0.8,1.6-1.6,1.9
				c-1.1,0.4-26.8,11.2-19.4,46.2c0.6,2.2,10,33.2,36.9,31.9C86.6,455.7,136.5,439.2,180.3,434.5z"/>
		</g>
		<g>
			<path class="st0" d="M91.3,150.4c0,0-8.5-91.2,15.2-95.6c0,0,23.1-12.7,76.7,30.2c0,0,36.5-8.7,75.3,2.1c0,0,41.8-37.6,76.2-29.4
				c0,0,15.5,7.3,15.6,47.3l-3.8,49.6c0,0,36.6,67.6-22.4,128.3c0,0-40.9,48.2-123.9,40.1c0,0-105.3-9.7-121.2-102.9
				C79,220.2,69.8,181.8,91.3,150.4z"/>
			<path class="st0" d="M237.6,325.6c-11.4,1.2-23.9,1.4-37.6,0.1c-1.1-0.1-27.1-2.6-55.6-16.8c-26.4-13.1-59.6-39-68-88.2
				c-0.6-2.6-8.8-39.6,12.2-70.9c-0.4-4.6-2-25-1.2-45.5c1.2-32.5,7.2-49.5,18.3-51.9c3.5-1.6,27.7-10.2,78.2,29.9
				c6.8-1.4,39-7.3,73.9,2c7-6,44.9-36.8,77.5-29.1c0.2,0,0.3,0.1,0.5,0.2c0.7,0.3,17,8.5,17.2,49.7c0,0.1,0,0.1,0,0.2l-3.7,48.9
				c1.8,3.5,9.3,19.5,10.9,41.8c1.7,22.9-2.9,56.8-34,88.9c-1,1.1-11.3,12.8-31.5,23.6C281.5,315.4,262.4,322.9,237.6,325.6z
				 M112.9,55.9c-3.4,0.4-5.1,1.2-5.1,1.2c-0.2,0.1-0.5,0.2-0.8,0.3c-15.6,2.9-16.3,58.5-13.1,92.8c0.1,0.6-0.1,1.2-0.5,1.7
				c-20.6,30-12,67.2-11.9,67.6c0,0.1,0,0.1,0,0.2c6.4,37.7,28.3,66.1,65,84.4c27.6,13.7,53.6,16.3,53.9,16.3
				c42.1,4.1,72.9-6.8,91.3-16.6c20-10.7,30.2-22.5,30.3-22.6c0,0,0.1-0.1,0.1-0.1c23.8-24.5,34.8-53,32.6-84.6
				c-1.7-23.7-10.5-40.4-10.6-40.6c-0.2-0.4-0.3-1-0.3-1.5l3.8-49.5c-0.1-34.9-12.3-43.7-14-44.7c-32.6-7.4-73.1,28.5-73.5,28.9
				c-0.7,0.6-1.6,0.8-2.5,0.6c-37.7-10.5-73.6-2.2-74-2.1c-0.8,0.2-1.6,0-2.3-0.5C144.2,57.2,122.2,54.9,112.9,55.9z M91.3,150.4
				L91.3,150.4L91.3,150.4z"/>
		</g>
		<g>
			<path class="st0" d="M109.2,130.2c0,0-11-64.9,14.9-59.6c0,0,12.9,2.3,33.6,20.9c0,0,7.5,8-1,10.5c0,0-34.3,18.2-38.7,26.3
				C118,128.3,113.4,135,109.2,130.2z"/>
			<path class="st0" d="M113.2,134.5c-0.1,0-0.2,0-0.3,0c-1.5,0.1-3.7-0.3-5.7-2.6c-0.3-0.4-0.5-0.8-0.6-1.3
				c-0.8-4.7-7.5-46.7,5.5-59.3c3.3-3.2,7.6-4.3,12.5-3.3c0.5,0.1,13.8,2.6,34.8,21.5c0.1,0,0.1,0.1,0.2,0.2
				c0.5,0.5,4.8,5.3,3.6,9.8c-0.4,1.6-1.7,3.8-5.5,5c-13,6.9-34.5,19.7-37.4,25.1c0,0.1-0.1,0.2-0.1,0.2
				C119.9,130.2,117.1,134.1,113.2,134.5z M111.6,128.9c0.5,0.4,0.8,0.4,0.9,0.4c1.1-0.1,2.6-1.6,3.2-2.4
				c4.9-8.6,36.2-25.3,39.7-27.2c0.2-0.1,0.3-0.1,0.5-0.2c0.6-0.2,1.9-0.7,2.1-1.4c0.3-1.2-1.1-3.5-2.3-4.7
				c-19.7-17.6-32.1-20.1-32.2-20.1c-3.3-0.7-5.8,0-7.9,1.9C106.6,84,109.6,116.2,111.6,128.9z"/>
		</g>
		<g>
			<path class="st0" d="M328.6,135.5c0,0,13.8-64.3-12.4-60.2c0,0-13,1.7-34.5,19.4c0,0-7.9,7.7,0.5,10.6c0,0,33.5,19.6,37.6,27.9
				C319.8,133.2,324.1,140.2,328.6,135.5z"/>
			<path class="st0" d="M326,139.7c-0.5,0.1-0.9,0-1.3,0c-4.1-0.4-6.8-4.6-7.1-5.1c0-0.1-0.1-0.2-0.1-0.2
				c-2.7-5.5-23.6-19.2-36.3-26.7c-3.7-1.4-4.9-3.6-5.2-5.2c-1-4.6,3.5-9.1,4-9.6c0.1-0.1,0.1-0.1,0.2-0.1
				c21.8-18,35.2-19.9,35.8-20c4.9-0.8,9.2,0.6,12.3,3.9c12.5,13.2,4,54.8,3,59.5c-0.1,0.5-0.3,0.9-0.7,1.3
				C328.9,139,327.3,139.6,326,139.7z M328.6,135.5L328.6,135.5L328.6,135.5z M322.1,131.9c0.7,1,2.1,2.5,3.1,2.6c0.1,0,0.4,0,1-0.3
				c2.6-12.7,6.9-44.7-1.8-53.9c-1.9-2-4.5-2.8-7.7-2.3c-0.2,0-12.7,2-33.1,18.8c-1.2,1.2-2.7,3.5-2.5,4.6c0.2,0.7,1.5,1.3,2.1,1.5
				c0.2,0.1,0.3,0.1,0.5,0.2C287.1,105.1,317.6,123.1,322.1,131.9z"/>
		</g>
		<g class="st5">
			<path class="st0" d="M203.8,295.3C80.5,281.1,92.2,176.9,95.1,159.1c-2.6,5.2-4.5,11-4.5,11c-27.6,99.3,70,134.7,70,134.7
				c91.5,35,151.8-21.4,151.8-21.4c42.6-39.7,40.6-81.3,33.9-105.7C342.8,315.9,203.8,295.3,203.8,295.3z"/>
			<path class="st0" d="M236.4,317.9c-21.5,2.3-47.5,0.5-76.7-10.7c-1-0.4-25.1-9.3-46.3-30.7c-19.6-19.9-39.9-54.6-25.3-107.2
				c0,0,0-0.1,0-0.1c0.1-0.2,2-6,4.6-11.3c0.6-1.2,1.9-1.7,3.2-1.3c1.2,0.4,2,1.7,1.8,2.9c-2,12.4-6.7,55.7,19.2,90.1
				c18.1,24,47.4,38.5,87.1,43c0,0,0.1,0,0.1,0c0.6,0.1,61.8,8.7,102.6-25.6c23.5-19.7,35.9-49.8,36.9-89.4c0-1.3,1-2.4,2.3-2.6
				c0,0,0,0,0,0c1.3-0.1,2.5,0.7,2.8,1.9c4.5,16.3,5,32.6,1.6,48.4c-4.7,21.8-16.9,41.9-36.2,60c-0.6,0.6-15.8,14.6-42.5,24.4
				C262.1,313.2,250.2,316.5,236.4,317.9z M90.8,180.9c-7.2,35.8,1.6,66.7,26.3,91.8c20.3,20.7,44.2,29.5,44.5,29.6
				c46.5,17.8,84.6,11.2,108.4,2.4c25.7-9.4,40.6-23.1,40.7-23.3c30.9-28.8,38.1-58.5,36.6-82.6c-4.4,30.9-16.8,55.2-37.1,72.2
				c-42.5,35.7-103.6,27.3-106.8,26.8c-41.2-4.8-71.7-19.9-90.7-45.1C94.6,228.8,90.7,200.8,90.8,180.9z"/>
		</g>
		<g>
			<g>
				
					<ellipse transform="matrix(2.128175e-02 -0.9998 0.9998 2.128175e-02 -36.6315 457.3105)" class="st0" cx="215.3" cy="247.4" rx="8.9" ry="13.9"/>
				<path class="st0" d="M218.2,258.8c-1,0.1-2.1,0.2-3.2,0.1c-9.3-0.2-16.4-5.4-16.3-11.9c0.1-3.3,2.1-6.3,5.5-8.4
					c3.1-1.9,7.1-2.9,11.3-2.8c4.2,0.1,8.2,1.2,11.2,3.3c3.3,2.2,5.2,5.4,5.1,8.6l0,0C231.7,253.4,225.9,257.9,218.2,258.8z
					 M213,241.2c-2.3,0.2-4.4,0.9-6,1.9c-1.1,0.7-2.9,2.1-2.9,4c-0.1,3,4.5,6.3,11.1,6.5c6.6,0.1,11.3-3,11.4-6l0,0
					c0-1.9-1.7-3.4-2.8-4.1c-2.1-1.4-5.2-2.3-8.4-2.4C214.6,241.1,213.8,241.1,213,241.2z M229.2,247.7L229.2,247.7L229.2,247.7z"/>
			</g>
			<g>
				<path class="st0" d="M210.2,255.6c0,0-2.6,7-8.8,4.9c0,0-2.8-0.2-4.3-4.3c0,0-3-4.7-6.2,0.2c0,0-3.2,4,7.3,11
					c0,0,7.6,3.3,14.9-2.5c0,0,1.9-3.4,4.1,0.2c0,0,3.4,4.9,11.6,3.5c0,0,9.8-2.1,11.1-11.1c0,0-2-6.3-7.4-0.2c0,0-7.6,10-12.7-1.5
					l-1.6-3.1l-7.1-0.2L210.2,255.6z"/>
				<path class="st0" d="M228.1,271.4c-8.7,0.9-12.7-4.3-13.1-4.7c-0.1,0.1-0.2,0.2-0.3,0.3c-8.4,6.6-17.2,3-17.6,2.8
					c-0.1-0.1-0.3-0.1-0.4-0.2c-5.3-3.5-8.3-7-8.8-10.4c-0.3-1.9,0.2-3.4,0.9-4.3c1.9-2.8,3.9-3.3,5.3-3.3c3.1,0,5.1,2.9,5.3,3.2
					c0.1,0.2,0.2,0.3,0.3,0.5c0.8,2.1,1.8,2.5,2.1,2.6c0.3,0,0.3,0,0.6,0.1c3.4,1.2,5.1-2.3,5.5-3.2l0.7-2.8c0.3-1.2,1.4-2,2.6-2
					l7.1,0.2c1,0,1.8,0.6,2.3,1.4l1.6,3.1c0,0.1,0.1,0.1,0.1,0.2c1,2.4,2.3,3.8,3.4,3.9c1.7,0.2,4-1.9,4.8-3c0,0,0.1-0.1,0.1-0.2
					c2.5-2.8,4.9-3.9,7.3-3.4c3.3,0.7,4.5,4.2,4.6,4.6c0.1,0.4,0.2,0.8,0.1,1.2c-1.6,10.7-12.7,13.2-13.2,13.3c0,0-0.1,0-0.1,0
					C228.8,271.3,228.4,271.3,228.1,271.4z M219.3,263.6c0.3,0.4,3,3.4,8.9,2.4c0.7-0.2,7.5-1.9,8.9-8.2c-0.2-0.3-0.3-0.5-0.4-0.5
					c0,0-0.7,0.1-2.2,1.7c-0.7,0.9-4.6,5.5-9.5,4.9c-3.1-0.4-5.7-2.7-7.6-6.9l-0.9-1.6l-3.5-0.1l-0.3,1c0,0.1,0,0.2-0.1,0.2
					c-1.2,3.2-5.2,8.7-11.9,6.6c-1.2-0.2-4.3-1.2-6-5.6c-0.2-0.3-0.6-0.6-0.8-0.7c0,0-0.3,0.2-0.9,1c-0.2,0.7,0.5,3.2,6.3,7.2
					c1.1,0.4,6.4,2,11.7-2c0.6-0.8,1.9-2.2,3.9-2.3C216.2,260.7,217.8,261.2,219.3,263.6z M214.5,265.9L214.5,265.9z M192.9,258
					C192.9,258,192.9,258,192.9,258C192.9,258,192.9,258,192.9,258z M192.9,258C192.9,258,192.9,258,192.9,258
					C192.9,258,192.9,258,192.9,258z M192.9,258L192.9,258L192.9,258z M192.9,258C192.9,258,192.9,258,192.9,258
					C192.9,258,192.9,258,192.9,258z M192.9,258L192.9,258L192.9,258z M193,257.8L193,257.8z M210.2,255.6L210.2,255.6L210.2,255.6z
					"/>
			</g>
		</g>
		<g>
			<path class="st0" d="M263.7,219.7c4.3-0.7,8.7-1.7,13-2.2c6.8-0.7,13.3,0.3,19.1,4.1c2,1.3,3.1,3.4,1.9,5.7
				c-1.2,2.3-3.4,2.1-5.4,1.1c-12.5-5.9-24-2.6-35.2,3.7c-2.2,1.2-4.2,4.7-6.9,2.5c-2.7-2.2-1.9-5.7-1.1-8.9
				c1.1-4.3,3.6-7.8,6.7-10.7c11.4-10.9,25.1-16.4,40.9-15.6c3.4,0.2,8.4,0.1,8,5.2c-0.4,4.8-5,3.3-8.1,3.1
				C283.9,207,273.1,211.4,263.7,219.7z"/>
			<path class="st0" d="M252.4,238c-1.2,0.1-2.5-0.2-3.9-1.3c-4.2-3.4-2.8-8.7-2-11.6c1.2-4.3,3.7-8.4,7.5-12
				c12.2-11.6,26.6-17.1,42.9-16.3l0.5,0c2.6,0.1,6.2,0.3,8.4,2.7c1.2,1.4,1.7,3.2,1.5,5.3c-0.2,2-0.9,3.5-2.2,4.6
				c-2.2,1.8-5,1.4-7.3,1.1c-0.5-0.1-1-0.1-1.4-0.1c-7.7-0.5-14.9,1-21.6,4.6c0.5-0.1,1.1-0.1,1.6-0.2c0,0,0,0,0,0
				c8-0.9,15,0.7,20.8,4.6c3.5,2.3,4.5,5.8,2.7,9.2c-1.7,3.2-5,4.1-8.9,2.3c-9.9-4.7-20-3.5-32.8,3.6c-0.4,0.2-0.9,0.6-1.3,1
				C256.1,236.4,254.4,237.8,252.4,238z M288,202.4c-11.3,1.2-21.5,6.1-30.4,14.6c-3.1,3-5.1,6.1-6,9.5c-1,3.6-0.9,5.2,0.2,6.1
				c0.1,0.1,0.1,0.1,0.2,0.1c0.4-0.1,1.1-0.8,1.6-1.2c0.7-0.6,1.4-1.2,2.2-1.6c9.7-5.4,22.7-10.8,37.6-3.8c1.6,0.7,1.8,0.4,1.9,0
				c0.2-0.4,0.6-1.2-1-2.3c-4.8-3.2-10.5-4.4-17.3-3.7c0,0,0,0,0,0c-2.9,0.3-5.9,0.9-8.8,1.4c-1.4,0.3-2.7,0.5-4.1,0.7
				c-1.2,0.2-2.3-0.4-2.8-1.5c-0.5-1.1-0.3-2.3,0.6-3.1c10.4-9.1,22.1-13.3,34.8-12.5c0.5,0,1.1,0.1,1.7,0.2c1,0.1,2.9,0.4,3.4,0
				c0,0,0.2-0.3,0.2-0.9c0-0.5,0-1.1-0.2-1.4c-0.7-0.8-3.1-0.9-4.7-1l-0.6,0C293.7,202,290.8,202.1,288,202.4z"/>
		</g>
		<g>
			<path class="st0" d="M165.4,218.2c-5.9-5.9-12.8-9.1-20.3-11.2c-4.6-1.3-9.4-1.5-14.1-1.3c-2.9,0.1-5.9-0.2-6.1-3.7
				c-0.2-3,2.5-3.9,5.2-4.4c16-3,40.6,8.9,47.9,23.3c1.5,2.9,2.4,5.9,2,9.2c-0.2,1.7-0.1,3.6-1.9,4.6c-2,1-3.3-0.4-4.6-1.5
				c-7.7-5.9-16.1-9.2-25.9-9.2c-3.6,0-6.9,0.4-10.1,2c-2.2,1.1-4.6,2-6.2-0.9c-1.8-3.1,0.5-4.7,2.8-6c8.2-4.7,16.8-3.6,25.4-1.7
				C161.1,217.7,162.7,219.1,165.4,218.2z"/>
			<path class="st0" d="M177.2,237.6c-2.3,0.2-4-1.1-5-2c-0.2-0.1-0.3-0.2-0.5-0.4c-7.6-5.9-15.6-8.7-24.3-8.7c-3.9,0-6.6,0.5-9,1.7
				c-1.7,0.8-6.7,3.3-9.7-1.9c-3.2-5.6,2-8.6,3.8-9.6c7.5-4.3,15.3-4.1,22.5-2.9c-3.2-1.7-6.7-3.2-10.7-4.3
				c-3.7-1.1-7.8-1.4-13.3-1.2c-7,0.3-8.7-3.2-8.9-6.1c-0.2-3.8,2.2-6.2,7.4-7.2c17.2-3.2,42.8,9.2,50.8,24.7
				c1.9,3.7,2.6,7.2,2.3,10.6l-0.1,0.6c-0.1,1.7-0.4,4.6-3.3,6.1C178.5,237.3,177.9,237.5,177.2,237.6z M143.6,221.5
				c1.4-0.1,2.7-0.2,3.9-0.2c9.9,0,18.9,3.1,27.5,9.7c0.2,0.1,0.4,0.3,0.6,0.4c0.3,0.3,0.9,0.7,1.2,0.8c0,0,0,0,0.1,0
				c0.3-0.1,0.4-0.4,0.5-1.9c0-0.2,0-0.4,0.1-0.6c0.3-2.4-0.3-4.9-1.7-7.7c-6.8-13.2-30.3-24.6-45.1-21.9c-3.1,0.6-3.1,1.3-3,1.7
				c0,0.7,0.1,1.3,3.3,1.2c3.8-0.2,9.4-0.2,15,1.4c9,2.6,15.8,6.4,21.4,11.9c0.7,0.7,0.9,1.6,0.7,2.5c-0.2,0.9-0.9,1.6-1.8,1.9
				c-2.8,0.9-4.9,0.1-6.3-0.4c-0.4-0.2-0.8-0.3-1.1-0.4c-7.8-1.7-16-2.9-23.5,1.4c-2.4,1.4-2.3,1.6-1.8,2.4c0.4,0.7,0.5,0.9,2.7-0.2
				C138.7,222.3,141.2,221.7,143.6,221.5z"/>
		</g>
	</g>
	<path class="st6" d="M104.8,255.7c0,0-62.9,36.3-55.7,90.5c0,0,1.6,17.1,14.3,30.6c0,0-29,11.5-21,49.3c0,0,9.9,35.7,40,33.8
		c0,0,72.7-24.8,121.7-24c0,0,50.7,1.3,89.8,18.9c0,0,30.2,15.7,44.6,5.2c0,0,32.5-17.9,28.7-48.2c0,0-1.3-20.1-19.6-26.5
		c0,0,26.4-20.8,16-65c0,0-17.4-42.1-28.7-47l-33.2-1.4c0,0-26,35.7-89.7,37.8C212.1,309.7,144.8,312.2,104.8,255.7z"/>
	<path class="st7" d="M107,264.6c0,0-53.3,25.9-52.8,80c0,0-0.3,20.7,16.7,35.2c0,0,11.3-3.6,27,14.7c0,0,26.2,8.6,46.6,4.9
		c0,0,26.8-3.3,25.3-24.6c0,0-3.8-19.4-35.3-19.4c0,0-22,1.5-22.4,2.4c0,0-10.7-3.4,0.2-7.7c0,0,19.2-3.1,24.2-1.4
		c0,0,32.5-0.8,39.6,25.7c0,0,0.3,6.4-1.8,15.8l67.4,0.8c0,0-16.7-31.1,29.2-38.9c0,0,17.7-1.6,33.6,2.2c0,0,7.6,3.9,1.3,7.9
		c0,0-28.8-8.3-43.1-1.4c0,0-19.1,7-16.7,21.2c0,0-2,17.2,35.1,19.7c0,0,13.3,1.2,26.3-1.5c0,0,10.7-13.5,30.3-13.7
		c0,0,33.7-18,13.1-73.3c0,0-12.9-27.6-26.7-37.1l-23.3-1c0,0-30.2,33.8-76.9,35.7c0,0-54.9,7.7-96.7-26.2L107,264.6z"/>
	<path class="st8" d="M326.6,280.8c0,0-31.8,13.2-31.5,48.5c0,0,0.7,20.2,7,25.5c0,0,6.5,1.3,5.5,5.2c0,0,0.1,3.7-7.5,2.1
		c0,0-38.3-8.2-49.8,6.3c0,0-14.4,15.7,4,28.5c0,0,13.5,8.9,41.7,5.2l10.9-1.4c0,0,10.4-14.8,30.6-14c0,0,23-15.5,18.5-51
		C356,335.7,353,306,326.6,280.8z"/>
	<g>
		<path class="st9" d="M92.7,274.2c0,0,31.3,5.7,29.9,42.3c0,0-2.3,23.8-10.3,33.7c0,0-5.8-0.1-5,5.8c0,0,1.4,3.2,7.4,2.7
			c0,0,39.9,1.2,46.7,21.6c0,0,6.2,18.9-23.6,19.4c0,0-28.2,1.2-39.1-4.6c0,0-9.7-14.3-28.5-15.7c0,0-25.5-21.8-13.5-56.9
			C56.6,322.5,65.4,292.7,92.7,274.2z"/>
		<path class="st9" d="M112.3,350.2c0,0-3.3,1.2-4.5,2.8c0,0-1.4,1.6,1.1,3.4c0,0,1.4,1,3.2,1.6l1.7,0.8l-3.7,4l-9.4-7.3l1-8.2
			l6.4-1.2L112.3,350.2z"/>
	</g>
	<path class="st6" d="M91.3,150.4c0,0-8.5-91.2,15.2-95.6c0,0,23.1-12.7,76.7,30.2c0,0,36.5-8.7,75.3,2.1c0,0,41.8-37.6,76.2-29.4
		c0,0,15.5,7.3,15.6,47.3l-3.8,49.6c0,0,36.6,67.6-22.4,128.3c0,0-40.9,48.2-123.9,40.1c0,0-105.3-9.7-121.2-102.9
		C79,220.2,69.8,181.8,91.3,150.4z"/>
	<path class="st7" d="M99.9,152c0,0-10.9-87.3,13.1-91.1c0,0,27.3-2.4,68.8,33c0,0,29.8-10.8,77.8,1.4c0,0,47.2-35.9,69.2-29.9
		c0,0,10.4,2,12.4,25.7c0,0,0.9,53.2-3.6,64.8c0,0,40.9,66-25.1,127.5c0,0-60.4,56.4-151.8,21.4c0,0-97.5-35.4-70-134.7
		C90.7,170.1,95.2,156.2,99.9,152z"/>
	<path class="st6" d="M109.2,130.2c0,0-11-64.9,14.9-59.6c0,0,12.9,2.3,33.6,20.9c0,0,7.5,8-1,10.5c0,0-34.3,18.2-38.7,26.3
		C118,128.3,113.4,135,109.2,130.2z"/>
	<path class="st9" d="M116.7,113.2c0,0-6.4-37.5,8.6-34.5c0,0,7.4,1.3,19.4,12.1c0,0,4.4,4.6-0.6,6.1c0,0-19.9,10.5-22.4,15.2
		C121.8,112.1,119.1,116,116.7,113.2z"/>
	<path class="st6" d="M328.6,135.5c0,0,13.8-64.3-12.4-60.2c0,0-13,1.7-34.5,19.4c0,0-7.9,7.7,0.5,10.6c0,0,33.5,19.6,37.6,27.9
		C319.8,133.2,324.1,140.2,328.6,135.5z"/>
	<path class="st9" d="M321.8,118.3c0,0,8-37.2-7.2-34.8c0,0-7.5,1-19.9,11.2c0,0-4.6,4.4,0.3,6.1c0,0,19.4,11.3,21.7,16.1
		C316.8,116.9,319.3,120.9,321.8,118.3z"/>
	<path class="st9" d="M307.7,255.4c-33.5,5.9-67.1-17.1-67.1-17.1c-37.7-14.6-70.4,5.9-70.4,5.9c-25.6,13.2-55,9.6-55,9.6
		c-2.6,0.4-10.7-2.2-19.1-5.4c20.6,40.4,64.4,56.4,64.4,56.4c91.5,35,151.8-21.4,151.8-21.4c12.3-11.4,20.8-23,26.7-34.3
		L307.7,255.4z"/>
	<path class="st10" d="M203.8,295.3C80.5,281.1,92.2,176.9,95.1,159.1c-2.6,5.2-4.5,11-4.5,11c-27.6,99.3,70,134.7,70,134.7
		c91.5,35,151.8-21.4,151.8-21.4c42.6-39.7,40.6-81.3,33.9-105.7C342.8,315.9,203.8,295.3,203.8,295.3z"/>
	<path class="st11" d="M123,70.3c15.7,5.9,39.2,21.7,44.3,28.2c0,0,5.1,5.7,16.7,5.4c0,0,35.8-8.4,63.2,0c0,0,11.6,4.7,20-2.4
		c0,0,37.5-35.7,65.6-26.9l6.1,4.2c-3.7-12-10.1-13.3-10.1-13.3c-22-6-69.2,29.9-69.2,29.9c-48-12.2-77.8-1.4-77.8-1.4
		c-41.5-35.4-68.8-33-68.8-33c-4.1,0.6-7.1,3.7-9.4,8.3C107.6,67.8,114.1,67,123,70.3z"/>
	<path class="st12" d="M211.7,136.9c0,0,2.1,11.1,10.5,10.5c0,0,5.6,0.7,9-11.9l0.9-44.1c0,0-0.4-0.4-0.9-1
		c-5.6-0.6-10.7-0.8-15.4-0.9c-1.2,1.4-2.3,3.4-3.2,6L211.7,136.9z"/>
	<path class="st12" d="M318.3,306.7c0,0-8,3.3-6.3,7.7c0,0,0.3,3.1,10.3,2.6l33.2-8c0,0,0.2-0.3,0.6-0.7c-0.4-3.1-0.9-5.9-1.6-8.5
		c-1.3-0.3-2.9-0.6-5-0.6L318.3,306.7z"/>
	<path class="st12" d="M324.7,323.9c0,0-8,3.3-6.3,7.7c0,0,0.3,3.1,10.3,2.6l33.2-8c0,0,0.2-0.3,0.6-0.7c-0.4-3.1-0.9-5.9-1.6-8.5
		c-1.3-0.3-2.9-0.6-5-0.6L324.7,323.9z"/>
	<path class="st12" d="M327.1,344.3c0,0-8.7,3.5-7,7.9c0,0,0.2,3.2,11.1,2.4l36.1-8.7c0,0,0.3-0.3,0.6-0.7c-0.4-3.1-0.9-5.9-1.6-8.5
		c-1.4-0.3-3.1-0.5-5.4-0.5L327.1,344.3z"/>
	<path class="st12" d="M103.2,310.6c0,0,9.4,0.6,9.6-4.2c0,0,1.1-3-9-6.8l-36.4-7.4c0,0-0.4,0.1-0.9,0.4c-1,3-1.7,5.8-2.2,8.4
		c1.1,0.9,2.6,1.8,4.7,2.7L103.2,310.6z"/>
	<path class="st12" d="M95.3,325.4c0,0,9.4,0.6,9.6-4.2c0,0,1.1-3-9-6.8L59.5,307c0,0-0.4,0.1-0.9,0.4c-1,3-1.7,5.8-2.2,8.4
		c1.1,0.9,2.6,1.8,4.7,2.7L95.3,325.4z"/>
	<path class="st12" d="M89.8,344.1c0,0,9.5,0.1,10.1-6.3c0,0,1.3-4-8.7-8.5L54.8,322c0,0-0.4,0.2-0.9,0.6c-1.2,4.1-2.1,7.8-2.8,11.4
		c1,1.1,2.5,2.2,4.6,3.3L89.8,344.1z"/>
	<path class="st12" d="M237.9,126.8c0,0,2.2,8.8,10.6,8.3c0,0,5.6,0.6,9-9.4l0.7-30.7c-6.4-1.6-12.4-2.8-18.1-3.6
		c-0.5,0.8-1,1.6-1.4,2.6L237.9,126.8z"/>
	<path class="st12" d="M187.5,125.9c0,0,2.2,8.8,10.6,8.3c0,0,5.6,0.6,9-9.4l0.7-34.9c0,0-0.1,0-0.1-0.1c-8.1,0.4-14.4,1.4-18.9,2.3
		c-0.2,0.4-0.4,0.7-0.6,1.1L187.5,125.9z"/>
	<g>
		
			<ellipse transform="matrix(2.128175e-02 -0.9998 0.9998 2.128175e-02 -36.6315 457.3105)" class="st1" cx="215.3" cy="247.4" rx="8.9" ry="13.9"/>
		<path class="st1" d="M210.2,255.6c0,0-2.6,7-8.8,4.9c0,0-2.8-0.2-4.3-4.3c0,0-3-4.7-6.2,0.2c0,0-3.2,4,7.3,11
			c0,0,7.6,3.3,14.9-2.5c0,0,1.9-3.4,4.1,0.2c0,0,3.4,4.9,11.6,3.5c0,0,9.8-2.1,11.1-11.1c0,0-2-6.3-7.4-0.2c0,0-7.6,10-12.7-1.5
			l-1.6-3.1l-7.1-0.2L210.2,255.6z"/>
	</g>
	<g>
		<path class="st8" d="M168.8,394.8l77.9,1.7c0,0,8.1,13.7,52.9,11.1c0,0-0.9,1.7-1.9,4.4c-0.3,0.8-0.6,1.6-0.9,2.5
			c-2.5,7.8-4.4,20.2,5.2,26.3c0,0,17.6,20.3,43,7c0,0-15.1,13.5-30,8.5c0,0-49.6-18.8-71.6-21.5c0,0-52.5-11.4-103,2.3l-41.6,10.5
			c0,0-22.6,11.1-33.5,3c0,0-28.5-21.5-15-52.5c0,0,9.7-23,33.2-10.4c0,0,10.8,8.3,14.3,16.7c0,0,2,10.8,7.4,9.5c0,0,4.5,0.1,1-7.7
			l-2-5.4C104.1,401,150.7,411.8,168.8,394.8z"/>
		<path class="st8" d="M294.9,417.3c0,0,2.9,6.5,7.4,0.2c0,0,11.7-27.6,39.1-23.3c0,0,19.4,5.1,15.4,31.1c0,0-3.7,16.3-13.6,24.3
			c0,0-8.4,6.9-22.6,5.2c0,0-18.3-3.1-26.1-19.7C294.6,435,292,428.2,294.9,417.3z"/>
	</g>
	<g>
		<circle class="st1" cx="337.2" cy="408.7" r="7.7"/>
		<circle class="st1" cx="319.1" cy="413.8" r="7.7"/>
		<circle class="st1" cx="344.6" cy="425.9" r="7.7"/>
		<circle class="st1" cx="323.6" cy="438" r="13"/>
	</g>
	<g>
		<circle class="st1" cx="66.8" cy="400.4" r="7.7"/>
		<circle class="st1" cx="59" cy="417.5" r="7.7"/>
		<circle class="st1" cx="84.7" cy="405.9" r="7.7"/>
		<circle class="st1" cx="80.3" cy="429.7" r="13"/>
	</g>
	<path class="st7" d="M168.2,394.6l77.6,1.7c0,0,18.1,16.5,54.9,9.8c0,0-18.7,31.1,11.8,41.9c0,0,13.8,9.1,32.4-1.2
		c0,0-12,14.1-31.3,9.6c0,0-71.5-30.7-117.5-25.9c0,0-42.3,1.7-73.6,11.1c0,0-25.2,5.7-28.7,8.4l-9.5,3.4c0,0-18.3,3.9-28.9-13.1
		c0,0,11.2,7.7,17.2,6.2c0,0,13.2,2.9,31.4-14.1c0,0,7.7-9.5,0-31.3c0,0,28,4.9,34.9,2.9C139.1,403.9,156.4,404.5,168.2,394.6z"/>
	<path class="st13" d="M304.8,361.4c0,0-39.6-8.1-52.2,4.4c0,0-18.6,16.8,2.1,30.3c0,0-11.6-19.7,17.7-30
		C272.4,366,284.3,361.9,304.8,361.4z"/>
	<path class="st13" d="M113.9,358.4c0,0,17-5.7,40.2-0.6c0,0,22.3,9,12.2,30.4c0,0-5.5,5.9-7.5,6.1c0,0,9.8-23.3-13.3-29.6
		C145.6,364.7,122.6,358.2,113.9,358.4z"/>
	<g>
		<g>
			<g>
				<path class="st0" d="M153.8,371.3c-0.3-1.4-0.1-2.9-0.1-4.3c0-0.8,0-1.6,0.1-2.3c0.2-0.4,0-0.9,0.2-1.3
					c0.4-4.4,1.6-8.6,3.2-12.7c1.7-4.1,3.8-7.9,6.6-11.4c1.5-1.9,3.2-3.7,4.9-5.3c4.9-4.5,10.5-7.8,16.8-10c3.8-1.3,7.6-2,11.6-2.5
					c0.3-0.1,0.7,0.1,1.1-0.1c0.3,0,0.7,0,1,0c0.7-0.2,1.4,0.1,2.1-0.1c1.4,0,2.8,0.1,4.2,0.1c0.2,0,0.5-0.1,0.7,0.2
					c-0.7,0.4-1.5,0.3-2.3,0.5c-2.8,0.7-3.7,2.3-2.7,5c0.9,2.3,2.6,3.9,4.6,5.2c2.5,1.6,5.2,2.8,7.9,3.8c3.6,1.3,7.1,2.5,10.6,4
					c5.5,2.4,9.9,6,13,11.2c2.4,4.1,3.7,8.6,4.2,13.4c1,9.9-1,19.2-5.4,28c-3.5,6.9-8.5,12.4-15.1,16.4c-4.6,2.8-9.6,4.6-15,5.1
					c-9.4,1-18.5-0.2-26.9-4.8c-3.4-1.8-6.4-4.1-9.2-6.7c-7.6-7.1-12.2-15.9-14.9-25.9C154.3,375,153.9,373.2,153.8,371.3z"/>
				<path class="st0" d="M206.3,416.8c0,0-0.1,0-0.1,0c-10.7,1.1-20-0.5-28.5-5.1c-3.5-1.9-6.8-4.2-9.8-7.1
					c-7.5-7.1-12.6-15.9-15.7-27.1c-0.6-2.3-1-4.1-1.1-5.8c-0.2-1.3-0.2-2.5-0.2-3.5c0-0.4,0-0.8,0-1.1c0-0.6,0-1.2,0-1.7l0-0.7
					c0-0.2,0-0.4,0.1-0.6c0-0.3,0-0.7,0.1-1.1c0.5-4.4,1.6-8.8,3.4-13.1c1.8-4.5,4.2-8.5,6.9-12c1.6-2,3.4-3.9,5.2-5.6
					c5-4.7,11-8.2,17.7-10.5c3.4-1.2,7-2,11.9-2.6c0.4-0.1,0.8-0.1,1-0.1c0.2,0,0.4-0.1,0.5-0.1l0.8,0c0.6-0.1,1.1-0.1,1.5,0
					c0.1,0,0.2,0,0.3,0c0.2-0.1,0.5-0.1,0.7-0.1l4.2,0.1c1.4-0.1,2.2,0.6,2.6,1.1c0.5,0.6,0.7,1.4,0.6,2.1c-0.1,0.8-0.6,1.4-1.2,1.8
					c-0.9,0.6-1.9,0.7-2.5,0.8c0,0-0.1,0-0.1,0c-0.1,0-0.2,0-0.3,0.1c-0.8,0.2-1.1,0.4-1.1,0.5c0,0,0,0.3,0.3,1
					c0.6,1.5,1.7,2.7,3.6,4c2.4,1.6,5.1,2.7,7.4,3.5c1,0.4,2.1,0.7,3.1,1.1c2.5,0.9,5.1,1.8,7.7,2.9c6.2,2.6,11,6.8,14.2,12.3
					c2.5,4.2,4,8.9,4.5,14.4c1,10-0.9,19.9-5.7,29.4c-3.7,7.3-9.1,13.2-16,17.5C217.3,414.3,211.9,416.2,206.3,416.8z M156.3,365.1
					l0,0.4c0,0.5,0,1,0,1.5c0,0.5,0,0.9,0,1.4c0,0.9-0.1,1.8,0.1,2.5c0,0.1,0,0.2,0,0.3c0.1,1.5,0.4,3,0.9,5
					c2.8,10.2,7.4,18.3,14.2,24.6c2.7,2.5,5.6,4.7,8.7,6.3c7.5,4,15.8,5.5,25.4,4.5c4.9-0.5,9.5-2.1,13.9-4.8
					c6.1-3.8,10.9-8.9,14.1-15.4c4.4-8.8,6.1-17.5,5.1-26.5c-0.5-4.7-1.7-8.7-3.8-12.3c-2.7-4.6-6.6-7.9-11.7-10.1
					c-2.4-1-4.9-1.9-7.4-2.8c-1-0.4-2.1-0.7-3.1-1.1c-2.6-0.9-5.6-2.2-8.5-4.1c-2.8-1.9-4.6-3.9-5.6-6.5c-0.6-1.4-0.7-2.8-0.5-3.9
					c-0.2,0-0.4,0-0.6,0c-0.1,0-0.1,0-0.2,0c-4.6,0.6-8,1.3-11,2.4c-6,2.1-11.4,5.3-15.9,9.4c-1.6,1.5-3.2,3.2-4.7,5
					c-2.5,3.2-4.5,6.7-6.2,10.7c-1.6,4-2.6,8-3,11.9c0,0.1,0,0.3-0.1,0.4C156.5,364.3,156.4,364.7,156.3,365.1z M156.3,364.4
					C156.3,364.4,156.3,364.4,156.3,364.4C156.3,364.4,156.3,364.4,156.3,364.4z M151.3,363.5C151.3,363.5,151.3,363.5,151.3,363.5
					C151.3,363.5,151.3,363.5,151.3,363.5z M198,323.9C198,323.9,198,323.9,198,323.9C198,323.9,198,323.9,198,323.9z"/>
			</g>
			<g>
				<path class="st0" d="M153.8,371.3c0.7,3.1,1.4,6.2,2.4,9.2c2,6.1,4.9,11.6,8.8,16.7c4.1,5.3,9.2,9.5,15.2,12.5
					c3.7,1.9,7.7,3.2,11.9,3.7c2.8,0.4,5.6,0.8,8.5,0.8c5.5-0.1,10.8-1,15.8-3.2c4.5-2,8.4-4.8,11.9-8.3c3.8-3.8,6.6-8.2,8.7-13.2
					c1.8-4,3-8.2,3.7-12.6c0.5-3.2,0.8-6.5,0.5-9.8c-0.3-3.9-0.8-7.7-2.2-11.3c-2.1-5.6-5.6-10.1-10.6-13.3c-4.2-2.7-8.9-4-13.5-5.7
					c-3.2-1.2-6.4-2.4-9.3-4.3c-2.3-1.5-4.3-3.4-5.1-6.1c-0.6-2.1-0.1-3.4,1.9-4.3c1.1-0.5,2.3-0.7,3.5-0.6c2.2,0,4.4,0.4,6.5,0.9
					c0.3,0.1,0.7,0.1,1,0.1c0.2,0.1,0.5-0.1,0.7,0.2c0.1,0.1,0.1,0.2,0.1,0.3c-0.3,1.2-1,2.1-2,2.8c-1,0-1.9-0.1-2.8-0.3
					c-1.4-0.3-2.8,0-4.2,0.2c-0.5,0.1-1,0.2-1.2,0.8c-0.2,0.6,0.2,1,0.6,1.4c4.4,4.4,9.8,5.8,15.8,5.6c0.2,0,0.5,0,0.7-0.1
					c2.5-1,5-0.6,7.5-0.1c2.6,0.5,5,1.5,7.4,2.6c0.4,0.2,0.7,0.4,1,0.7c2.8,2.8,5.1,6,7,9.4c3.2,5.5,5,11.4,5.8,17.7
					c0.2,1.8,0.4,3.7,0.4,5.6c0.1,1.3,0.1,2.6-0.1,3.9c-0.5,7.3-2.4,14.3-6,20.7c-1.8,3.2-4,6.2-6.6,8.9c-4.6,4.9-10,8.7-16.1,11.4
					c-5.1,2.3-10.4,3.6-16,4.1c-2.8,0.3-5.6,0.3-8.3-0.1c-5.7-0.7-11.3-2.2-16.5-4.8c-3.3-1.6-6.4-3.5-9.2-5.9
					c-2-1.7-3.9-3.5-5.7-5.6c-3.2-3.8-5.9-8-8-12.5c-2.1-4.8-3.5-9.8-4.1-15C153.8,373.3,153.6,372.3,153.8,371.3z"/>
				<path class="st0" d="M206.8,420.6c-0.3,0-0.6,0.1-1,0.1c-3.1,0.3-6.1,0.3-8.9-0.1c-6.3-0.7-12.2-2.4-17.4-5.1
					c-3.8-1.9-7-3.9-9.7-6.2c-2.1-1.8-4.2-3.8-6-5.9c-3.5-4.1-6.3-8.5-8.4-13.2c-2.3-5.1-3.7-10.4-4.3-15.8l-0.1-0.5
					c-0.1-0.9-0.2-2-0.1-3.1c0.2-1.3,1.2-2.2,2.5-2.3c1.3-0.1,2.4,0.8,2.7,2.1l0,0.2c0.7,3.1,1.4,6,2.3,8.8
					c1.9,5.8,4.8,11.2,8.4,15.9c3.9,5,8.7,9,14.3,11.8c3.5,1.8,7.2,3,11,3.5l0.4,0.1c2.7,0.4,5.2,0.7,7.7,0.7
					c5.6-0.1,10.5-1.1,14.8-3c4.2-1.9,7.8-4.4,11.1-7.7c3.4-3.4,6.1-7.5,8.2-12.4c1.7-3.8,2.8-7.8,3.5-11.9c0.6-3.6,0.7-6.5,0.5-9.2
					c-0.3-3.2-0.7-7-2-10.6c-2-5.2-5.1-9.2-9.5-12c-3.1-2-6.7-3.2-10.4-4.5c-0.9-0.3-1.7-0.6-2.6-0.9c-3.6-1.3-6.9-2.6-9.9-4.5
					c-2.1-1.4-5-3.6-6.2-7.6c-1-3.4,0.2-6.1,3.4-7.5c1.5-0.7,3.1-1,4.6-0.9c2.4,0,4.8,0.5,7,0.9c0.1,0,0.2,0,0.4,0
					c0.1,0,0.3,0,0.4,0c0.1,0,0.1,0,0.2,0c0.9,0,1.6,0.4,2.2,1c0.1,0.1,0.1,0.2,0.2,0.3c0.3,0.4,0.5,0.8,0.6,1.3
					c0.1,0.4,0.1,0.8,0,1.2c-0.4,1.7-1.4,3.1-3,4.2c-0.4,0.3-0.9,0.5-1.4,0.5c-1.1,0.1-2.2-0.1-3.1-0.3c3,2,6.6,2.8,11.1,2.6l0.1,0
					c3.1-1.1,6.2-0.7,8.8-0.2c3,0.6,5.7,1.8,8,2.8c0.7,0.3,1.3,0.8,1.7,1.2c2.7,2.7,5.1,5.8,7.5,10c3.2,5.5,5.2,11.8,6.2,18.7
					c0.3,2.3,0.4,4.1,0.4,5.9c0.1,1.4,0,2.8-0.1,4.2c-0.5,7.7-2.6,15.1-6.3,21.7c-1.8,3.2-4.1,6.3-6.9,9.4c-4.7,5-10.4,9.1-17,12
					C217.7,418.6,212.4,420,206.8,420.6z M220.6,336c3.2,1.1,6.3,2.4,9.3,4.3c5.4,3.5,9.3,8.4,11.6,14.6c1.6,4.2,2.1,8.5,2.4,12
					c0.2,3.1,0.1,6.4-0.6,10.4c-0.7,4.6-2,9-3.8,13.2c-2.4,5.5-5.4,10.1-9.3,14c-2,2-4.2,3.8-6.5,5.4c4.6-2.5,8.7-5.6,12.1-9.3
					c2.6-2.8,4.6-5.5,6.2-8.3c3.3-6,5.2-12.5,5.7-19.6c0.1-1.2,0.2-2.4,0.1-3.5c0-0.1,0-0.1,0-0.2c0-1.5-0.1-3.1-0.4-5.2
					c-0.8-6.2-2.7-11.8-5.5-16.7c-2.1-3.7-4.2-6.5-6.6-8.8c-0.2-0.2-0.3-0.2-0.3-0.2c-2.1-1-4.3-1.9-6.8-2.4c-2.5-0.5-4.4-0.7-6.1,0
					C221.6,336,221,336,220.6,336C220.6,336,220.6,336,220.6,336z M214.6,320.1C214.6,320.1,214.6,320.1,214.6,320.1
					C214.6,320.1,214.6,320.1,214.6,320.1z"/>
			</g>
			<g>
				<path class="st0" d="M186.9,309.8c-1.4-0.1-2.7,0.2-4.3,0.4c5.1-8.4,12.4-13,22-14.1c0.5-0.1,1.1-0.1,1.6,0
					c0.5,0.2,1,0.3,1.4,0.5c1.3,1,1.9,2.5,2.5,4c0.2,0.6-0.1,0.7-0.6,0.7c-0.7-0.1-1.3-0.3-2-0.3c-3.6-0.2-6.9,0.8-10.3,2
					c-1.8,0.7-3.6,1.5-4.9,2c3.8-1.3,8.2-3,12.8-3.5c1.6-0.2,3.1-0.1,4.6,0.5c0.6,0.2,1,0.6,1.2,1.3c0.7,2.6,1,5.2,0.8,7.9
					c0,0.3-0.1,0.6-0.4,0.8c-0.3,0.1-0.5,0-0.8-0.2c-1.2-0.8-2.5-1.2-3.9-1.4c-0.5-0.3-0.9-0.6-1.5-0.5c-0.4-0.2-0.9,0-1.3-0.2
					c-0.5,0-0.9-0.1-1.4-0.1c-1.5-0.2-3-0.2-4.4-0.1c-0.8,0-1.6,0-2.4,0c-0.6,0.2-1.1-0.1-1.7,0.1c-0.5,0-1.1,0-1.6,0
					c-0.6,0.2-1.3-0.1-1.9,0.1c-0.5,0-1,0-1.6,0C188.5,309.9,187.7,309.6,186.9,309.8z"/>
				<path class="st0" d="M211.8,314.5c-0.8,0.1-1.6-0.1-2.4-0.6c-0.8-0.5-1.7-0.8-2.8-1c-0.3-0.1-0.6-0.2-0.9-0.3
					c-0.1,0-0.1-0.1-0.1-0.1c-0.3,0-0.5,0-0.7-0.1c-0.3,0-0.6,0-1-0.1l-1.1-0.1c0,0-0.1,0-0.1,0c-1.2-0.1-2.6-0.2-3.9-0.1
					c-0.1,0-0.1,0-0.2,0l-2.1,0c-0.5,0.1-1,0.1-1.3,0c0,0,0,0-0.1,0c-0.2,0-0.4,0.1-0.6,0.1l-1.4,0c-0.5,0.1-1,0.1-1.3,0
					c-0.1,0-0.1,0-0.2,0c-0.2,0-0.4,0.1-0.6,0.1l-1.4,0c-0.6,0.1-1.1,0.1-1.5,0c-0.1,0-0.3,0-0.4,0c-0.3,0.1-0.5,0.1-0.9,0.1
					c-0.7-0.1-1.5,0.1-2.4,0.2c-0.4,0.1-0.9,0.1-1.3,0.2c-1,0.1-2-0.4-2.5-1.2c-0.5-0.9-0.5-1.9,0-2.8c5.5-9,13.6-14.2,24-15.4
					c0.9-0.1,1.7-0.1,2.5,0.1c0.1,0,0.2,0,0.2,0.1l1.4,0.5c0.3,0.1,0.5,0.2,0.8,0.4c1.8,1.3,2.6,3.2,3.2,4.6l0.2,0.4
					c0.2,0.5,0.3,1,0.3,1.5c0.4,0.5,0.6,1.1,0.7,1.5c0.8,2.9,1.1,5.9,0.9,8.8c-0.1,1.3-0.6,2.3-1.6,2.9c-0.2,0.1-0.4,0.2-0.6,0.3
					C212.2,314.5,212,314.5,211.8,314.5z M204.3,312.2C204.3,312.2,204.3,312.2,204.3,312.2C204.3,312.2,204.3,312.2,204.3,312.2z
					 M195.2,312.1C195.2,312.1,195.2,312.1,195.2,312.1C195.2,312.1,195.2,312.1,195.2,312.1z M191.6,312.2L191.6,312.2L191.6,312.2
					z M207.9,307.8c0.5,0.1,1,0.2,1.4,0.4c-0.1-1.3-0.3-2.5-0.6-3.8c-0.9-0.3-1.9-0.3-3.1-0.2c0,0,0,0,0,0
					c-3.7,0.4-7.1,1.6-10.5,2.8c0,0,0,0,0,0c0.1,0,0.2,0,0.2,0c0,0,0.1,0,0.1,0c0.2,0,0.4-0.1,0.5-0.1l2.3,0
					c1.6-0.1,3.2-0.1,4.8,0.1l1.3,0.1c0.2,0,0.3,0,0.5,0.1c0.3,0,0.6,0,1,0.1C206.6,307.2,207.4,307.5,207.9,307.8z M205.1,307.2
					C205.1,307.2,205.1,307.2,205.1,307.2C205.1,307.2,205.1,307.2,205.1,307.2z M195.5,306.9L195.5,306.9L195.5,306.9z
					 M188.9,307.1c0.1,0,0.2,0,0.2,0l1.3,0c0.1,0,0.2,0,0.4-0.1c-0.4-0.3-0.6-0.7-0.8-1.1c-0.1-0.2-0.1-0.3-0.1-0.5
					c-0.6,0.6-1.2,1.1-1.7,1.8c0,0,0.1,0,0.1,0c0.1,0,0.3,0,0.4,0C188.8,307.1,188.9,307.1,188.9,307.1z"/>
			</g>
			<g>
				<path class="st0" d="M212.4,325.6c0.6-0.8,1.3-1.6,1.8-2.5c0.7,0.3,0.7,1,1,1.6c0,0,0,0.1,0.1,0.1c0,0,0,0,0.1-0.1
					c0.6-1.1,0.9-2.4,1.2-3.6c0.1-0.4,0.1-0.9,0.7-1.1c6.4-6,14-9.4,22.6-10.9c0.4-0.1,0.8-0.1,1.2,0c0.3,0.3,1.1,0.4,0.9,0.9
					c-0.1,0.5-0.7,0.7-1.3,0.8c-5.1,0.9-10,2.8-14.3,5.6c-3.1,2-5.9,4.5-7.9,7.6c-0.3,1.2-1.3,2.1-1.8,3.2c-0.6,1.1-1.1,2.2-1.5,3.3
					c-1,2.5-2.7,2.2-4.4,1.4c-0.4-0.2-0.6-0.6-0.6-1c-0.1-0.6-0.1-1.3,0.2-1.9C210.8,327.8,211.4,326.5,212.4,325.6z"/>
				<path class="st0" d="M213.3,335.1c-1.7,0.2-3.2-0.6-3.7-0.8c-1.2-0.6-1.9-1.7-2.1-3c-0.1-0.9-0.2-2.1,0.4-3.3
					c0.6-1.4,1.4-2.9,2.7-4.2c0.1-0.2,0.3-0.4,0.4-0.6c0.4-0.5,0.7-1,1-1.4c0.4-0.8,1.2-1.3,2.1-1.4c0,0,0,0,0,0l0-0.1
					c0.3-1.2,0.8-2,1.7-2.5c6.4-5.9,14.3-9.7,23.7-11.3c0.9-0.2,1.7-0.1,2.5,0.1c0.3,0.1,0.5,0.2,0.8,0.4c2.3,1.2,2.1,3.1,1.9,3.7
					c-0.4,1.4-1.5,2.4-3.4,2.7c-5,0.9-9.4,2.7-13.3,5.2c-3.1,2-5.4,4.2-7,6.5c-0.3,0.9-0.8,1.6-1.2,2.2c-0.2,0.3-0.5,0.6-0.5,0.9
					c0,0.1-0.1,0.2-0.1,0.2c-0.5,1-1,2.2-1.4,3.1c-0.7,1.7-1.7,2.8-3.1,3.3C214,335,213.6,335.1,213.3,335.1z M212.4,325.6
					L212.4,325.6L212.4,325.6z M240.4,311.7L240.4,311.7L240.4,311.7z M242.8,307.2C242.8,307.2,242.8,307.2,242.8,307.2
					C242.8,307.2,242.8,307.2,242.8,307.2z"/>
			</g>
			<g>
				<path class="st0" d="M212.4,325.6c-0.6,1.1-1.2,2.2-1.9,3.3c-0.1,0.2-0.2,0.4-0.3,0.7c-0.3,1.4,0,2.2,1.2,2.6
					c1.5,0.5,2.6,0,3.2-1.3c0.6-1.3,1-2.6,1.8-3.7c0.3-0.2,0.7,0,1,0.1c0.5,0.2,1,0.5,1.4,0.8c2.7,1.9,5.8,2.6,9,3
					c1.8,0.2,3.6,0.5,5.1,1.6c1.7,1,2.9,2.5,4.2,4c-1.4-0.6-2.8-1.3-4.3-1.8c-2.9-1.1-5.8-1.8-8.9-1.7c-0.4,0-0.8,0.1-1.2,0.2
					c-5.9,1.3-11.3,0.2-16.2-3.5c-0.8-0.6-1.5-1.2-2.2-1.8c-0.4-0.4-0.8-0.9-0.6-1.4c0.1-0.6,0.7-0.9,1.3-1c2.1-0.5,4.2-0.3,6.3,0
					C211.7,325.5,212.1,325.5,212.4,325.6z"/>
				<path class="st0" d="M237.5,339.1c-0.4,0-0.9,0-1.3-0.2c-0.5-0.2-0.9-0.4-1.4-0.6c-1-0.4-1.9-0.8-2.9-1.2
					c-2.7-1.1-5.3-1.6-7.9-1.5c-0.1,0-0.3,0.1-0.5,0.1l-0.1,0c-6.7,1.5-12.9,0.2-18.4-3.9c-0.7-0.6-1.5-1.2-2.4-2
					c-1.2-1.1-1.7-2.5-1.4-3.9c0.2-0.7,0.8-2.5,3.3-3.1c2.6-0.6,5.2-0.4,7.3,0l1.1,0.2c0.9,0.1,1.6,0.7,2,1.5
					c0.1,0.2,0.1,0.3,0.2,0.5c0.7-0.5,1.9-0.9,3.5-0.1l0.3,0.1c0.5,0.2,1,0.5,1.6,0.9c2.4,1.7,5.3,2.2,7.8,2.6
					c2.2,0.3,4.2,0.6,6.2,2c1.9,1.2,3.2,2.7,4.5,4.1l0.3,0.3c0.8,0.9,0.9,2.3,0.2,3.3C238.9,338.7,238.2,339,237.5,339.1z
					 M217.5,331c0.5,0,0.9,0,1.4,0c-0.4-0.2-0.8-0.4-1.1-0.7c-0.1,0.2-0.1,0.3-0.2,0.5C217.5,330.9,217.5,331,217.5,331z"/>
			</g>
			<g>
				<path class="st0" d="M217.2,320c-0.5,0.8-0.5,1.7-0.8,2.6c-0.3,0.8-0.5,1.8-1.1,2.5c-0.4-1.2-0.4-2.5-0.4-3.7
					c-0.1-3.1-0.7-6-2.9-8.4c-0.3-0.3-0.6-0.6-0.5-1c0.5-1.2,0.3-2.4,0.2-3.6c0-1.2-0.3-2.5-0.5-3.7c-0.4-2.1-1.2-2.7-3.4-2.8
					c-2.6-0.2-5.2,0.4-7.7,1.1c-2.9,0.8-5.8,1.8-8.6,2.8c-0.1,0-0.2,0-0.4-0.1c6-2.9,12-5.8,19.1-4.5c-0.5-1.6-1.5-3-2.4-4.4
					c1.6,0.4,2.8,1.5,3.8,2.6c3.2,3.5,4.4,8,5.2,12.5c0.5,2.4,0.4,4.9,0.3,7.3C217,319.3,216.9,319.7,217.2,320z"/>
				<path class="st0" d="M215.6,327.6c-0.3,0-0.6,0-0.9-0.1c-0.9-0.2-1.7-0.9-1.9-1.8c-0.5-1.5-0.5-3-0.5-4.3l0-0.2
					c-0.1-2.9-0.8-5.1-2.2-6.7c-1-1.1-1.4-2.2-1.1-3.4c0-0.2,0.1-0.3,0.1-0.5c0.1-0.3,0.1-0.9,0.1-1.6c0-0.3,0-0.6,0-0.9
					c0-1-0.2-2-0.5-3.2c-0.1-0.3-0.1-0.6-0.2-0.7c-0.1,0-0.4-0.1-0.8-0.1c-2.5-0.1-5,0.5-6.8,1c-3,0.9-5.8,1.8-8.4,2.7
					c-1,0.4-2.1,0.2-2.9-0.5c-0.7-0.6-1.1-1.5-1-2.4c0.1-0.9,0.7-1.7,1.5-2.1l0.1-0.1c4.8-2.3,9.8-4.7,15.4-5l0,0
					c-0.6-0.9-0.6-2.1,0-3c0.6-0.9,1.7-1.3,2.8-1.1c2.4,0.5,4,2.1,5.2,3.4c3.7,4.1,5,9,5.9,13.7c0.5,2.7,0.4,5.4,0.3,8c0,0,0,0,0,0
					c0.2,0.7,0.1,1.6-0.3,2.2c0,0.1-0.1,0.4-0.1,0.6c-0.1,0.4-0.2,0.9-0.4,1.5c-0.1,0.2-0.1,0.4-0.2,0.5c-0.2,0.8-0.6,1.8-1.4,2.8
					C216.8,327.3,216.2,327.6,215.6,327.6z"/>
			</g>
			<g>
				<path class="st0" d="M233,332.5c-2.7-1-5.5-1.4-8.4-1.8c-1.9-0.3-3.6-1.1-5.2-2.2c-0.9-0.6-1.9-1.1-2.9-1.5
					c0.5-1.1,1.2-2.1,1.9-3c4.3,1.6,8.4,3.7,12.1,6.4C231.3,331.1,232.3,331.7,233,332.5z"/>
				<path class="st0" d="M233.2,335.1c-0.4,0-0.8,0-1.2-0.2c-2.1-0.8-4.3-1.1-6.7-1.5l-1.1-0.2c-2-0.3-4-1.1-6.2-2.5
					c-0.7-0.4-1.5-0.9-2.3-1.2c-0.7-0.2-1.2-0.7-1.6-1.4s-0.3-1.4-0.1-2.1c0.6-1.4,1.4-2.6,2.2-3.6c0.7-0.9,2-1.3,3.1-0.9
					c5,1.9,9.2,4.1,12.7,6.8c0.2,0.1,0.3,0.3,0.5,0.4c0.8,0.6,1.7,1.2,2.5,2.2c0.7,0.9,0.8,2.2,0.1,3.2
					C234.6,334.7,234,335.1,233.2,335.1z"/>
			</g>
			<g>
				<path class="st0" d="M211.5,311.8c2.2,2.2,3.4,4.9,3.6,7.9c0.1,1.7,0.2,3.5,0.2,5.2c-0.6-0.5-0.6-1.4-1.1-2
					c-0.1-0.1-0.1-0.2-0.2-0.3c-0.2-0.1-0.2-0.4-0.3-0.5c-1.7-3.6-3.7-7.1-5.8-10.5c-0.3-0.5-0.6-0.9-0.9-1.4
					c1.4-0.4,2.4,0.4,3.6,0.9C210.9,311.4,211.2,311.6,211.5,311.8z"/>
				<path class="st0" d="M215.6,327.6c-0.7,0.1-1.5-0.2-2-0.7c-0.8-0.7-1.1-1.6-1.3-2.1c0-0.1-0.1-0.2-0.1-0.2
					c-0.1-0.1-0.2-0.2-0.2-0.4c-0.2-0.2-0.3-0.5-0.4-0.8c0-0.1-0.1-0.1-0.1-0.2c-1.5-3.1-3.3-6.3-5.7-10.2c-0.2-0.3-0.4-0.6-0.6-0.9
					l-0.3-0.5c-0.5-0.7-0.6-1.6-0.2-2.4c0.3-0.8,1-1.4,1.8-1.6c2.1-0.6,3.8,0.3,4.9,0.8c0.2,0.1,0.3,0.2,0.5,0.2
					c0.5,0.2,0.8,0.5,1.1,0.7l0.2,0.1c0.1,0.1,0.3,0.2,0.4,0.3c2.6,2.6,4.1,5.9,4.3,9.6c0.1,1.2,0.1,2.5,0.2,3.7
					c0,0.5,0,1.1,0.1,1.6c0,1.1-0.6,2-1.5,2.5C216.1,327.5,215.9,327.6,215.6,327.6z M212.1,324.7
					C212.1,324.7,212.2,324.7,212.1,324.7C212.2,324.7,212.1,324.7,212.1,324.7z"/>
			</g>
			<g>
				<path class="st0" d="M170.4,392c0.3,0,0.6,0.2,0.9,0.3c0.7,0.5,1.4,0.9,2.1,1.4c0.5,0.3,0.9,0.8,0.5,1.4c-0.4,0.6-0.9,1-1.7,0.5
					c-0.9-0.5-1.8-1-2.6-1.7c-0.4-0.3-0.7-0.7-0.5-1.2C169.4,392.2,169.8,392,170.4,392z"/>
				<path class="st0" d="M173.3,398.5c-0.8,0.1-1.6-0.1-2.3-0.5c-0.9-0.5-2-1.1-3-1.9c-1.8-1.5-1.6-3.2-1.3-4.1
					c0.3-0.7,1.1-2.4,3.6-2.6c0.1,0,0.1,0,0.2,0c1.1,0,2,0.5,2.3,0.8l0.4,0.2c0.6,0.4,1.3,0.8,1.9,1.3c2.2,1.6,2,3.7,1.2,5
					C175.4,397.7,174.4,398.4,173.3,398.5z"/>
			</g>
			<g>
				<path class="st0" d="M176.2,403.1c-1.3,0-2.2-0.6-3-1.5c-0.4-0.5-0.5-1,0-1.5c0.5-0.4,1.1-0.5,1.7-0.1c0.5,0.5,1.1,0.8,1.8,0.8
					c0.6,0.1,1,0.6,0.9,1.3C177.5,403.1,176.9,403.3,176.2,403.1z"/>
				<path class="st0" d="M177,405.8c-0.3,0-0.6,0-1,0c-1.9,0-3.5-0.9-4.8-2.5c-1.3-1.6-1.2-3.8,0.3-5.1c1.6-1.4,3.8-1.4,5.2,0
					c0.1,0.1,0.2,0.1,0.3,0.1c1,0.1,1.9,0.6,2.5,1.4c0.6,0.8,0.9,1.8,0.7,2.9c-0.2,1.4-0.9,2.2-1.5,2.6
					C178.4,405.4,177.8,405.7,177,405.8z M175.6,400.9c-0.4,0.3-0.6,0.7-0.6,0.9c0,0.1,0,0.2,0,0.3c0,0,0,0,0,0
					C175.4,401.8,175.6,401.3,175.6,400.9z M173.1,402C173.1,402,173.1,402,173.1,402C173.1,402,173.1,402,173.1,402z M176.7,400.5
					L176.7,400.5L176.7,400.5z M175.4,400C175.4,400,175.4,400,175.4,400C175.4,400,175.4,400,175.4,400z"/>
			</g>
			<g>
				<path class="st0" d="M184.1,407.8c-0.8,0-1.7,0.2-1.8-1c-0.1-0.8,0.5-1.2,1.8-1.3c0.2,0,0.4-0.1,0.6-0.1
					c0.9-0.2,1.4,0.2,1.5,0.9c0.1,0.9-0.4,1.5-1.3,1.5C184.6,407.8,184.4,407.8,184.1,407.8z"/>
				<path class="st0" d="M185.3,410.4c-0.1,0-0.3,0-0.4,0c-0.2,0-0.4,0-0.7,0l-0.2,0c0,0,0,0,0,0c-0.1,0-0.2,0-0.2,0
					c-3.4,0.1-4-2.4-4.1-3.4c-0.1-1,0.2-1.9,0.8-2.6c1-1.2,2.6-1.4,3.3-1.5c0.2,0,0.3-0.1,0.4-0.1c1.2-0.2,2.4,0,3.2,0.7
					c0.8,0.6,1.3,1.5,1.4,2.6c0.1,1.2-0.2,2.3-1,3.1C187.2,409.9,186.3,410.3,185.3,410.4z M184.1,407.6
					C184.1,407.7,184.2,407.7,184.1,407.6c0.1,0.1,0.2,0.2,0.3,0.2c0.3-0.3,0.5-0.8,0.5-1.3c0-0.4-0.3-0.8-0.7-1.1L184.1,407.6z
					 M184.1,405.4c-0.1,0.1-0.2,0.1-0.3,0.2c-0.3,0.4-0.4,0.8-0.4,0.9c0,0.4,0.3,0.8,0.6,1.1L184.1,405.4
					C184.2,405.4,184.2,405.4,184.1,405.4z"/>
			</g>
			<g>
				<path class="st0" d="M182.2,399.6c-0.8-0.1-1.3-0.4-1.3-1.2c-0.1-0.8,0.4-1.2,1.1-1.3c0.2,0,0.4,0,0.6-0.1
					c0.8-0.4,1.3-0.2,1.6,0.5c0.3,0.7,0,1.5-0.9,1.8C182.9,399.5,182.5,399.5,182.2,399.6z"/>
				<path class="st0" d="M182.5,402.2c-0.2,0-0.3,0-0.5,0c-2.1-0.2-3.6-1.5-3.8-3.5c-0.2-2.1,1.1-3.8,3.3-4.2l0.1,0
					c1.2-0.5,2.1-0.4,2.7-0.2c0.7,0.2,1.6,0.8,2.2,2.1c0.4,1,0.5,2.1,0.1,3.1c-0.4,1-1.3,1.9-2.4,2.3c-0.5,0.2-1,0.3-1.3,0.3l-0.2,0
					C182.6,402.2,182.5,402.2,182.5,402.2z M182.2,399.1c0.1,0.1,0.3,0.2,0.4,0.2c0.1,0,0.2,0.1,0.3,0.1c0.3-0.3,0.6-0.8,0.5-1.3
					c-0.1-0.6-0.7-1.2-1.1-1.2L182.2,399.1z M181.7,397.5c-0.1,0.3-0.1,0.8,0,1.1c0,0.1,0.1,0.2,0.3,0.4L181.7,397.5z M181.3,394.7
					C181.3,394.7,181.3,394.7,181.3,394.7C181.3,394.7,181.3,394.7,181.3,394.7z"/>
			</g>
			<g>
				<path class="st0" d="M164.9,390.6c0.6-0.1,0.9,0.4,1.1,0.9c0.3,0.7,0.7,1.4,0.3,2.2c0,0,0,0.1-0.1,0.1c-0.4,0.3-0.9,0.5-1.4,0.2
					c-0.6-0.3-1.3-2-1.1-2.6C163.8,390.8,164.2,390.6,164.9,390.6z"/>
				<path class="st0" d="M165.7,396.7c-1,0.1-1.7-0.2-2.2-0.5c-1.5-0.9-3-3.8-2.4-5.7c0.5-1.6,1.9-2.6,3.7-2.6
					c0.8,0,2.6,0.2,3.5,2.5l0.1,0.2c0.4,0.8,1,2.3,0.2,4.1c-0.2,0.4-0.5,0.8-0.9,1.1C167,396.4,166.3,396.7,165.7,396.7z
					 M165.1,393.2C165.1,393.2,165.1,393.2,165.1,393.2C165.1,393.2,165.1,393.2,165.1,393.2z M164.9,393.2L164.9,393.2
					c0.1,0,0.2,0,0.2-0.1l-1.2-0.7c0,0.1-0.1,0.2-0.1,0.3C164,393,164.4,393.2,164.9,393.2z M165.1,391.5c-0.2,0-0.4,0.1-0.5,0.1
					l0.9,1.3c0.2-0.2,0.4-0.4,0.5-0.7c0.1-0.2,0.1-0.3,0.1-0.4c-0.1,0-0.1-0.1-0.2-0.1C165.7,391.5,165.4,391.4,165.1,391.5z"/>
			</g>
			<g>
				<path class="st0" d="M191.2,409.6c0.1-0.5,0.4-1,1.1-1c0.6,0,1.6,0.9,1.5,1.4c-0.1,0.6-0.3,1.2-1.1,1.2
					C192,411.3,191.2,410.5,191.2,409.6z"/>
				<path class="st0" d="M193.1,413.9c-0.1,0-0.2,0-0.3,0c-1.1,0-2.1-0.4-2.9-1.2c-0.8-0.8-1.3-2-1.3-3.2c0-0.1,0-0.2,0-0.2
					c0.2-1.9,1.7-3.3,3.6-3.3c1.6-0.1,2.7,1,3.2,1.5c0.8,0.9,1.2,1.9,1.1,2.9C196.2,412.3,194.9,413.7,193.1,413.9z M191.2,409.6
					c0,0,0,0.1,0,0.1c-0.1,0.7,0.2,1.2,0.3,1.3c0.1,0,0.4,0.2,0.9,0.2c0.6,0,1.3-0.6,1.4-1.4L191.2,409.6z M191.2,409.6l2.6,0
					c0-0.2,0-0.5-0.3-0.7c-0.2-0.2-0.6-0.3-0.9-0.3C192,408.6,191.4,409.2,191.2,409.6z"/>
			</g>
			<g>
				<path class="st0" d="M160,382.9c0.1-0.6,0.4-1.1,1.2-1.1c0.7,0,1.3,0.4,1.3,1.2c0,0.7-0.4,1.3-1.2,1.2
					C160.6,384.1,160,383.7,160,382.9z"/>
				<path class="st0" d="M161.8,386.8c-0.2,0-0.5,0-0.7,0c-2.2-0.2-3.7-1.8-3.7-4c0-0.1,0-0.2,0-0.3c0.2-2,1.8-3.4,3.8-3.4
					c1.1,0,2.2,0.4,2.9,1.2c0.7,0.7,1.1,1.7,1,2.7c0,1.2-0.5,2.2-1.3,2.9C163.3,386.4,162.5,386.7,161.8,386.8z M161.2,381.5
					c-0.3,0-0.7,0.2-0.9,0.4c-0.3,0.3-0.5,0.7-0.5,0.9c0,0.4,0.2,0.8,0.5,1.1c0.3,0.3,0.7,0.4,0.9,0.4c0.7,0,1.4-0.7,1.5-1.2
					l-2.6-0.3l2.6,0c0-0.6-0.6-1.3-1.2-1.4C161.4,381.5,161.3,381.5,161.2,381.5z"/>
			</g>
			<g>
				<path class="st0" d="M169,387.4c0,0.8-0.5,1.1-1.2,1c-0.8,0-1.2-0.7-1.2-1.3c0-0.7,0.5-1.1,1.2-1.1
					C168.5,386.1,169.1,386.5,169,387.4z"/>
				<path class="st0" d="M168.4,391c-0.2,0-0.5,0-0.8,0c-2-0.1-3.6-1.7-3.7-3.8c-0.1-1.1,0.3-2.1,1.1-2.8c0.8-0.8,1.8-1.1,3-1
					c1.1,0.1,2.1,0.6,2.8,1.4c0.6,0.7,0.9,1.7,0.8,2.7c0,1-0.4,1.9-1,2.6C170.1,390.4,169.4,390.9,168.4,391z M166.3,387.3
					c0,0.2,0.1,0.6,0.4,0.9c0.3,0.4,0.7,0.5,0.9,0.5c0.4,0,0.8-0.1,1.1-0.4c0.2-0.2,0.4-0.5,0.5-0.8l-0.2,0l0.2,0c0-0.1,0-0.3,0-0.4
					c0-0.6-0.6-1.2-1.3-1.2c-0.1,0-0.6,0.1-1.1,0.5C166.5,386.6,166.4,387,166.3,387.3z"/>
			</g>
			<g>
				<path class="st0" d="M177.1,390.5c-0.1,0.6-0.4,1.1-1.1,1.1c-0.7,0-1.4-0.4-1.3-1.2c0-0.7,0.5-1.2,1.2-1.1
					C176.6,389.3,177.1,389.6,177.1,390.5z"/>
				<path class="st0" d="M176.4,394.3c-0.2,0-0.4,0-0.6,0c-1.2-0.1-2.2-0.5-2.9-1.3c-0.7-0.7-1-1.7-0.9-2.7c0.1-2.2,1.8-3.7,3.9-3.6
					c2.2,0.1,3.8,1.7,3.8,3.9c0,0.1,0,0.2,0,0.3C179.5,392.7,178.2,394.1,176.4,394.3z M174.5,390.5c0,0.6,0.7,1.3,1.3,1.3
					c0.7,0,1.5-0.6,1.5-1.3c0-0.3-0.1-0.7-0.4-1.1c-0.3-0.4-0.7-0.4-0.8-0.5c-0.8,0-1.6,0.6-1.6,1.2l2.6,0.3L174.5,390.5z"/>
			</g>
		</g>
		<g>
			<path class="st14" d="M153.8,371.3c-0.3-1.4-0.1-2.9-0.1-4.3c0-0.8,0-1.6,0.1-2.3c0.2-0.4,0-0.9,0.2-1.3
				c0.4-4.4,1.6-8.6,3.2-12.7c1.7-4.1,3.8-7.9,6.6-11.4c1.5-1.9,3.2-3.7,4.9-5.3c4.9-4.5,10.5-7.8,16.8-10c3.8-1.3,7.6-2,11.6-2.5
				c0.3-0.1,0.7,0.1,1.1-0.1c0.3,0,0.7,0,1,0c0.7-0.2,1.4,0.1,2.1-0.1c1.4,0,2.8,0.1,4.2,0.1c0.2,0,0.5-0.1,0.7,0.2
				c-0.7,0.4-1.5,0.3-2.3,0.5c-2.8,0.7-3.7,2.3-2.7,5c0.9,2.3,2.6,3.9,4.6,5.2c2.5,1.6,5.2,2.8,7.9,3.8c3.6,1.3,7.1,2.5,10.6,4
				c5.5,2.4,9.9,6,13,11.2c2.4,4.1,3.7,8.6,4.2,13.4c1,9.9-1,19.2-5.4,28c-3.5,6.9-8.5,12.4-15.1,16.4c-4.6,2.8-9.6,4.6-15,5.1
				c-9.4,1-18.5-0.2-26.9-4.8c-3.4-1.8-6.4-4.1-9.2-6.7c-7.6-7.1-12.2-15.9-14.9-25.9C154.3,375,153.9,373.2,153.8,371.3z"/>
			<path class="st15" d="M153.8,371.3c0.7,3.1,1.4,6.2,2.4,9.2c2,6.1,4.9,11.6,8.8,16.7c4.1,5.3,9.2,9.5,15.2,12.5
				c3.7,1.9,7.7,3.2,11.9,3.7c2.8,0.4,5.6,0.8,8.5,0.8c5.5-0.1,10.8-1,15.8-3.2c4.5-2,8.4-4.8,11.9-8.3c3.8-3.8,6.6-8.2,8.7-13.2
				c1.8-4,3-8.2,3.7-12.6c0.5-3.2,0.8-6.5,0.5-9.8c-0.3-3.9-0.8-7.7-2.2-11.3c-2.1-5.6-5.6-10.1-10.6-13.3c-4.2-2.7-8.9-4-13.5-5.7
				c-3.2-1.2-6.4-2.4-9.3-4.3c-2.3-1.5-4.3-3.4-5.1-6.1c-0.6-2.1-0.1-3.4,1.9-4.3c1.1-0.5,2.3-0.7,3.5-0.6c2.2,0,4.4,0.4,6.5,0.9
				c0.3,0.1,0.7,0.1,1,0.1c0.2,0.1,0.5-0.1,0.7,0.2c0.1,0.1,0.1,0.2,0.1,0.3c-0.3,1.2-1,2.1-2,2.8c-1,0-1.9-0.1-2.8-0.3
				c-1.4-0.3-2.8,0-4.2,0.2c-0.5,0.1-1,0.2-1.2,0.8c-0.2,0.6,0.2,1,0.6,1.4c4.4,4.4,9.8,5.8,15.8,5.6c0.2,0,0.5,0,0.7-0.1
				c2.5-1,5-0.6,7.5-0.1c2.6,0.5,5,1.5,7.4,2.6c0.4,0.2,0.7,0.4,1,0.7c2.8,2.8,5.1,6,7,9.4c3.2,5.5,5,11.4,5.8,17.7
				c0.2,1.8,0.4,3.7,0.4,5.6c0.1,1.3,0.1,2.6-0.1,3.9c-0.5,7.3-2.4,14.3-6,20.7c-1.8,3.2-4,6.2-6.6,8.9c-4.6,4.9-10,8.7-16.1,11.4
				c-5.1,2.3-10.4,3.6-16,4.1c-2.8,0.3-5.6,0.3-8.3-0.1c-5.7-0.7-11.3-2.2-16.5-4.8c-3.3-1.6-6.4-3.5-9.2-5.9
				c-2-1.7-3.9-3.5-5.7-5.6c-3.2-3.8-5.9-8-8-12.5c-2.1-4.8-3.5-9.8-4.1-15C153.8,373.3,153.6,372.3,153.8,371.3z"/>
			<path class="st16" d="M186.9,309.8c-1.4-0.1-2.7,0.2-4.3,0.4c5.1-8.4,12.4-13,22-14.1c0.5-0.1,1.1-0.1,1.6,0
				c0.5,0.2,1,0.3,1.4,0.5c1.3,1,1.9,2.5,2.5,4c0.2,0.6-0.1,0.7-0.6,0.7c-0.7-0.1-1.3-0.3-2-0.3c-3.6-0.2-6.9,0.8-10.3,2
				c-1.8,0.7-3.6,1.5-4.9,2c3.8-1.3,8.2-3,12.8-3.5c1.6-0.2,3.1-0.1,4.6,0.5c0.6,0.2,1,0.6,1.2,1.3c0.7,2.6,1,5.2,0.8,7.9
				c0,0.3-0.1,0.6-0.4,0.8c-0.3,0.1-0.5,0-0.8-0.2c-1.2-0.8-2.5-1.2-3.9-1.4c-0.5-0.3-0.9-0.6-1.5-0.5c-0.4-0.2-0.9,0-1.3-0.2
				c-0.5,0-0.9-0.1-1.4-0.1c-1.5-0.2-3-0.2-4.4-0.1c-0.8,0-1.6,0-2.4,0c-0.6,0.2-1.1-0.1-1.7,0.1c-0.5,0-1.1,0-1.6,0
				c-0.6,0.2-1.3-0.1-1.9,0.1c-0.5,0-1,0-1.6,0C188.5,309.9,187.7,309.6,186.9,309.8z"/>
			<path class="st17" d="M212.4,325.6c0.6-0.8,1.3-1.6,1.8-2.5c0.7,0.3,0.7,1,1,1.6c0,0,0,0.1,0.1,0.1c0,0,0,0,0.1-0.1
				c0.6-1.1,0.9-2.4,1.2-3.6c0.1-0.4,0.1-0.9,0.7-1.1c6.4-6,14-9.4,22.6-10.9c0.4-0.1,0.8-0.1,1.2,0c0.3,0.3,1.1,0.4,0.9,0.9
				c-0.1,0.5-0.7,0.7-1.3,0.8c-5.1,0.9-10,2.8-14.3,5.6c-3.1,2-5.9,4.5-7.9,7.6c-0.3,1.2-1.3,2.1-1.8,3.2c-0.6,1.1-1.1,2.2-1.5,3.3
				c-1,2.5-2.7,2.2-4.4,1.4c-0.4-0.2-0.6-0.6-0.6-1c-0.1-0.6-0.1-1.3,0.2-1.9C210.8,327.8,211.4,326.5,212.4,325.6z"/>
			<path class="st18" d="M212.4,325.6c-0.6,1.1-1.2,2.2-1.9,3.3c-0.1,0.2-0.2,0.4-0.3,0.7c-0.3,1.4,0,2.2,1.2,2.6
				c1.5,0.5,2.6,0,3.2-1.3c0.6-1.3,1-2.6,1.8-3.7c0.3-0.2,0.7,0,1,0.1c0.5,0.2,1,0.5,1.4,0.8c2.7,1.9,5.8,2.6,9,3
				c1.8,0.2,3.6,0.5,5.1,1.6c1.7,1,2.9,2.5,4.2,4c-1.4-0.6-2.8-1.3-4.3-1.8c-2.9-1.1-5.8-1.8-8.9-1.7c-0.4,0-0.8,0.1-1.2,0.2
				c-5.9,1.3-11.3,0.2-16.2-3.5c-0.8-0.6-1.5-1.2-2.2-1.8c-0.4-0.4-0.8-0.9-0.6-1.4c0.1-0.6,0.7-0.9,1.3-1c2.1-0.5,4.2-0.3,6.3,0
				C211.7,325.5,212.1,325.5,212.4,325.6z"/>
			<path class="st19" d="M217.2,320c-0.5,0.8-0.5,1.7-0.8,2.6c-0.3,0.8-0.5,1.8-1.1,2.5c-0.4-1.2-0.4-2.5-0.4-3.7
				c-0.1-3.1-0.7-6-2.9-8.4c-0.3-0.3-0.6-0.6-0.5-1c0.5-1.2,0.3-2.4,0.2-3.6c0-1.2-0.3-2.5-0.5-3.7c-0.4-2.1-1.2-2.7-3.4-2.8
				c-2.6-0.2-5.2,0.4-7.7,1.1c-2.9,0.8-5.8,1.8-8.6,2.8c-0.1,0-0.2,0-0.4-0.1c6-2.9,12-5.8,19.1-4.5c-0.5-1.6-1.5-3-2.4-4.4
				c1.6,0.4,2.8,1.5,3.8,2.6c3.2,3.5,4.4,8,5.2,12.5c0.5,2.4,0.4,4.9,0.3,7.3C217,319.3,216.9,319.7,217.2,320z"/>
			<path class="st15" d="M233,332.5c-2.7-1-5.5-1.4-8.4-1.8c-1.9-0.3-3.6-1.1-5.2-2.2c-0.9-0.6-1.9-1.1-2.9-1.5
				c0.5-1.1,1.2-2.1,1.9-3c4.3,1.6,8.4,3.7,12.1,6.4C231.3,331.1,232.3,331.7,233,332.5z"/>
			<path class="st20" d="M211.5,311.8c2.2,2.2,3.4,4.9,3.6,7.9c0.1,1.7,0.2,3.5,0.2,5.2c-0.6-0.5-0.6-1.4-1.1-2
				c-0.1-0.1-0.1-0.2-0.2-0.3c-0.2-0.1-0.2-0.4-0.3-0.5c-1.7-3.6-3.7-7.1-5.8-10.5c-0.3-0.5-0.6-0.9-0.9-1.4
				c1.4-0.4,2.4,0.4,3.6,0.9C210.9,311.4,211.2,311.6,211.5,311.8z"/>
			<path class="st15" d="M170.4,392c0.3,0,0.6,0.2,0.9,0.3c0.7,0.5,1.4,0.9,2.1,1.4c0.5,0.3,0.9,0.8,0.5,1.4c-0.4,0.6-0.9,1-1.7,0.5
				c-0.9-0.5-1.8-1-2.6-1.7c-0.4-0.3-0.7-0.7-0.5-1.2C169.4,392.2,169.8,392,170.4,392z"/>
			<path class="st15" d="M176.2,403.1c-1.3,0-2.2-0.6-3-1.5c-0.4-0.5-0.5-1,0-1.5c0.5-0.4,1.1-0.5,1.7-0.1c0.5,0.5,1.1,0.8,1.8,0.8
				c0.6,0.1,1,0.6,0.9,1.3C177.5,403.1,176.9,403.3,176.2,403.1z"/>
			<path class="st15" d="M184.1,407.8c-0.8,0-1.7,0.2-1.8-1c-0.1-0.8,0.5-1.2,1.8-1.3c0.2,0,0.4-0.1,0.6-0.1
				c0.9-0.2,1.4,0.2,1.5,0.9c0.1,0.9-0.4,1.5-1.3,1.5C184.6,407.8,184.4,407.8,184.1,407.8z"/>
			<path class="st15" d="M182.2,399.6c-0.8-0.1-1.3-0.4-1.3-1.2c-0.1-0.8,0.4-1.2,1.1-1.3c0.2,0,0.4,0,0.6-0.1
				c0.8-0.4,1.3-0.2,1.6,0.5c0.3,0.7,0,1.5-0.9,1.8C182.9,399.5,182.5,399.5,182.2,399.6z"/>
			<path class="st15" d="M164.9,390.6c0.6-0.1,0.9,0.4,1.1,0.9c0.3,0.7,0.7,1.4,0.3,2.2c0,0,0,0.1-0.1,0.1c-0.4,0.3-0.9,0.5-1.4,0.2
				c-0.6-0.3-1.3-2-1.1-2.6C163.8,390.8,164.2,390.6,164.9,390.6z"/>
			<path class="st15" d="M191.2,409.6c0.1-0.5,0.4-1,1.1-1c0.6,0,1.6,0.9,1.5,1.4c-0.1,0.6-0.3,1.2-1.1,1.2
				C192,411.3,191.2,410.5,191.2,409.6z"/>
			<path class="st15" d="M160,382.9c0.1-0.6,0.4-1.1,1.2-1.1c0.7,0,1.3,0.4,1.3,1.2c0,0.7-0.4,1.3-1.2,1.2
				C160.6,384.1,160,383.7,160,382.9z"/>
			<path class="st15" d="M169,387.4c0,0.8-0.5,1.1-1.2,1c-0.8,0-1.2-0.7-1.2-1.3c0-0.7,0.5-1.1,1.2-1.1
				C168.5,386.1,169.1,386.5,169,387.4z"/>
			<path class="st15" d="M177.1,390.5c-0.1,0.6-0.4,1.1-1.1,1.1c-0.7,0-1.4-0.4-1.3-1.2c0-0.7,0.5-1.2,1.2-1.1
				C176.6,389.3,177.1,389.6,177.1,390.5z"/>
		</g>
	</g>
	<g>
		<path class="st21" d="M248.1,177.7c2.6,0,5.2-0.2,7.7-0.1c1.5,0,2.5-0.5,3.4-1.8c2.8-4.2,5.8-8.3,8.7-12.5
			c1.9-2.6,4.2-3.5,6.9-2.8c2.4,0.6,3.7,2.3,4.4,4.6c1.4,4.6,3,9.1,4.3,13.8c0.6,2.1,1.7,3.1,3.7,3.6c4.4,1.2,8.7,2.6,13.1,3.9
			c0.9,0.3,1.8,0.5,2.6,1c3.8,2.2,4,7.5,0.4,10.2c-4.1,3-8.2,6-12.4,8.8c-1.7,1.1-2.2,2.3-2.1,4.2c0.2,5,0.2,10,0.3,15
			c0,3.2-1.8,5.6-4.6,6.3c-2,0.5-3.7,0-5.3-1.2c-4.1-3-8.2-5.9-12.2-9.1c-1.4-1.1-2.6-1.2-4.2-0.6c-4.6,1.7-9.2,3.2-13.9,4.8
			c-1.1,0.4-2.3,0.7-3.5,0.6c-3.9-0.5-6.1-4.1-4.9-8.1c1.3-4.1,2.4-8.3,4.1-12.2c1.5-3.5,1-6-1.4-8.7c-2.8-3.2-5.3-6.8-7.8-10.3
			c-2.4-3.3-1.3-7.5,2.2-9.2c0.9-0.4,1.8-0.5,2.8-0.5c1.4,0,2.8,0,4.1,0c1.3,0,2.6,0,3.9-0.1C248.1,177.5,248.1,177.6,248.1,177.7z"
			/>
		<path class="st22" d="M189.3,228.1c-0.8,0-1.6-0.1-2.4-0.4c-4.6-1.3-9.1-2.4-13.7-3.8c-1.4-0.4-2.4-0.2-3.5,0.8
			c-3.7,3.2-7.5,6.3-11.3,9.5c-1.5,1.3-3.2,1.9-5.3,1.5c-2.8-0.6-4.5-2.7-4.7-5.7c-0.2-4.9-0.5-9.8-0.7-14.7c0-1.6-0.6-2.5-1.9-3.3
			c-4.1-2.5-8.2-5.1-12.3-7.6c-1.6-1-2.8-2.3-3.1-4.2c-0.5-3,0.9-5.6,3.9-6.7c4.3-1.7,8.6-3.4,13-4.8c2.2-0.7,3.1-2,3.5-4.1
			c0.9-4.4,2.2-8.7,3.2-13c0.6-2.5,2-4.2,4.5-4.8c2.6-0.6,4.7,0.3,6.4,2.4c2.9,3.6,5.8,7.2,8.7,10.9c1.1,1.4,2.2,2.1,4.1,1.9
			c4.7-0.5,9.4-0.6,14.2-1c2.7-0.2,4.8,0.7,6.1,3.1c1.2,2.2,0.9,4.5-0.6,6.6c-2.6,3.9-5.2,7.9-7.9,11.8c-0.9,1.3-1.1,2.5-0.4,4
			c1.9,4.2,3.5,8.6,5.3,12.9c0.5,1.1,0.9,2.3,0.8,3.5C195,225.9,192.6,228.1,189.3,228.1z"/>
		<path class="st23" d="M244.2,179.6c4.5,0.1,8.2,0.1,11.9,0.3c2,0.1,3.4-0.6,4.5-2.3c3-4.4,6.1-8.7,9.2-13.1
			c0.4-0.6,0.8-1.2,1.3-1.6c2-1.6,4.7-0.8,5.5,1.8c1.4,4,2.6,8,3.8,12c0.4,1.2,0.9,2.4,1.1,3.7c0.5,2.3,2,3.4,4.2,4
			c4.9,1.4,9.7,2.9,14.6,4.4c0.6,0.2,1.2,0.3,1.7,0.6c2.3,1.2,2.7,3.7,0.9,5.6c-0.5,0.5-1.1,0.9-1.6,1.3c-4.1,2.9-8.2,6-12.4,8.8
			c-1.8,1.3-2.6,2.8-2.6,5c0,4.7,0.5,9.4,0.5,14.2c0,0.9,0,1.7-0.1,2.6c-0.5,3.2-3.2,4.4-5.9,2.5c-3.6-2.6-7.2-5.3-10.8-7.9
			c-5.7-4.2-4-3.7-10.6-1.6c-4.1,1.3-8.1,2.8-12.2,4.2c-1.6,0.6-3.1,0.7-4.3-0.6c-1.2-1.3-1.1-2.8-0.6-4.3c1.7-5,3.3-10.1,5.1-15.2
			c0.7-2,0.5-3.6-0.8-5.3c-3.1-3.9-6-7.9-9-11.9c-0.4-0.5-0.9-1.1-1.2-1.7c-1.5-2.5-0.2-5.2,2.7-5.4
			C241.1,179.6,243,179.6,244.2,179.6z"/>
		<path class="st23" d="M193.3,222.5c0,2.3-1.5,3.7-3.6,3.5c-1.2-0.1-2.3-0.5-3.5-0.8c-4.2-1.2-8.5-2.3-12.7-3.5
			c-1.9-0.6-3.3-0.3-4.7,1c-3.4,2.9-6.8,5.8-10.3,8.6c-0.8,0.7-1.6,1.4-2.4,1.9c-2.2,1.5-4.9,0.3-5.3-2.3c-0.2-0.9-0.1-1.9-0.2-2.8
			c-0.2-4.6-0.5-9.3-0.6-13.9c0-1.8-0.8-2.9-2.2-3.8c-4.3-2.6-8.5-5.3-12.7-7.9c-0.4-0.3-0.9-0.5-1.3-0.8c-2.2-1.7-1.9-4.7,0.6-5.8
			c1.8-0.8,3.7-1.4,5.5-2.1c3.1-1.1,6.1-2.4,9.2-3.4c2.2-0.7,3.4-2,3.9-4.3c1-4.7,2.3-9.3,3.4-14c0.1-0.3,0.1-0.5,0.2-0.8
			c0.3-1.6,1.2-2.7,2.8-3c1.5-0.3,2.6,0.4,3.5,1.6c2.3,3,4.7,5.9,7.1,8.9c0.9,1.1,1.8,2.1,2.6,3.2c1.3,1.8,2.9,2.4,5.1,2.1
			c4.1-0.5,8.2-0.7,12.3-1c1.1-0.1,2.2-0.2,3.3-0.2c2.9,0.1,4.2,2.5,2.9,5.1c-0.3,0.5-0.6,1-1,1.5c-2.5,3.8-4.9,7.7-7.6,11.4
			c-1.6,2.2-1.6,4.1-0.5,6.5c1.9,4.2,3.5,8.6,5.2,12.9C192.8,221.2,193.1,222,193.3,222.5z"/>
		<path class="st24" d="M250,202.8c0.3-2-0.4-3.6-1.6-5.1c-1.5-5,0.7-9.1,3.4-13c0.9-1.3,1.9-2.6,3.6-3.1c1.2,0,2.4,0,3.6-0.1
			c0.1,1.1-1,1.3-1.6,1.9c-5.9,5.2-8.1,12-5.2,18.5c3.3,7.5,9.8,11.5,18.6,10.1c7-1.2,12.6-9.2,12.7-15.9c0.1-7.9-8.2-17.7-18.8-16
			c-1.1,0.2-2.2,0.7-3.2-0.2c0.4-0.8,0.7-1.6,1.5-2.1c0.9-1.4,2.2-1.9,3.7-1.8c5.1,0.5,10.1,1.1,13.5,5.6c0.8,1.3,1,2.9,2.6,3.6
			c2.2,1.7,3.1,4.1,3.6,6.6c2.9,12.6-7.4,24.4-20.2,23.7c-6.7-0.4-11.7-3.5-15.4-8.9C250,205.5,249.4,204.2,250,202.8z"/>
		<path class="st25" d="M261.5,179.9c1.3,0.2,2.5-0.5,3.8-0.6c2.9-0.3,5.7,0.2,8.3,1.1c2.8,1,5,3.3,7,5.6c3.8,4.4,4,9.6,3,15
			c-0.2,1.3-1,2.4-1.7,3.4c-3.2,4.9-7.3,8.4-13.5,8.4c-1.5,0-3,0.1-4.6-0.2c-4.2-0.8-7.2-3.2-9.9-6.3c-3.6-4.2-4.2-9.1-3-14.2
			c1.1-4.6,4.1-8,8.1-10.5C259.9,181.1,260.7,180.5,261.5,179.9z"/>
		<path class="st26" d="M250,202.8c0.5,3.7,3,6.2,5.8,8.2c2.2,1.7,4.7,3.1,7.6,3.6c6.5,1.1,12.2-0.1,17-5c2.6-2.6,4.5-5.4,5.3-8.9
			c1.1-4.7,0.7-9.2-1.7-13.4c-0.4-0.7-0.7-1.4-1.1-2.1c1.4,0.3,2.9,0.6,4.2,1.4c0.3,0.3,0.8,0.5,0.9,0.9c1.8,5.4,3,10.8-0.1,16.2
			c-1.5,1.2-3.1,2.4-3,4.7c-3.4,5.8-9.9,9.6-16.4,9.1c-1.3-0.5-2.4-1.8-4.1-1.5c-0.3,0.3-0.8,0.2-1.1,0.5c-0.2,0-0.3,0-0.5,0
			c-1,0.5-2,0.3-3,0c-4.5-1.7-7.9-4.6-10.5-8.5c-0.4-0.7-0.6-1.4-0.3-2.2C249,204.7,249.3,203.7,250,202.8z"/>
		<path class="st27" d="M280.2,181.6c-3.3-2.6-7-4.2-11.1-4.8c-2.1-0.3-4.2-0.5-6.1,0.9c0.5-1.5,1.5-2.6,2.6-3.6
			c0.2-0.2,0.4-0.3,0.5-0.5l0,0c4.6-0.8,8.8,0.2,12.5,2.9C279.5,178,279.8,179.8,280.2,181.6z"/>
		<path class="st28" d="M287.7,203.7c-0.1-1.8,0.8-3.4,1-5.2c0.5-4.2-0.6-8-1.8-11.9c1.1,0,2.2,0.3,3.1,1c1.4,0.8,1.7,2.3,1.9,3.7
			c0.6,3.3,1.1,6.6-0.7,9.7C290.2,202,289.2,203.1,287.7,203.7z"/>
		<path class="st29" d="M273,221c-1-0.5-2.1-1-2.6-2c2.1-1.2,4.5-1.2,6.6-2.5c1.7-1.1,3.5-2.1,5.1-3.3c0.8-0.6,1.5-1.4,2.7-1.1
			c0,1.2,0,2.4,0.1,3.6c-2.3,3.2-5.8,4.6-9.3,6.1c-0.6,0.3-1.3,0.2-2-0.2l0,0C273.4,221.3,273.2,221.2,273,221z"/>
		<path class="st30" d="M255.3,181.6c-1.7,2.1-3.8,3.9-4.9,6.4c-1.4,3.1-2.2,6.3-2,9.6c-0.8-0.9-1.8-1.7-2.2-3
			c-0.3-0.6-0.7-1.3-0.6-1.9c1-4.3,2.1-8.5,6.1-11.1C252.9,181.6,254.1,181.6,255.3,181.6z"/>
		<path class="st31" d="M284.8,212c-2.6,1.6-4.8,3.8-7.6,5.1c-2.2,1-4.3,2-6.8,1.9c-0.8-0.4-1.7-0.6-2.1-1.5c1.3-0.3,2.6-0.8,4-1
			c4.1-0.6,7.2-2.9,10-5.8c0.8-0.8,1.4-1.7,2.4-2.3C284.7,209.6,284.7,210.8,284.8,212z"/>
		<path class="st32" d="M251.7,181.6c-2,2-3.1,4.5-4.2,6.9c-0.9,1.9-1.5,4-1.3,6.2c-1.3-0.9-2.1-2.1-2.6-3.6c-0.8-1.6,0.3-2.7,0.8-4
			c0.7-1.8,1.5-3.6,2.7-5.2c0.2-0.2,0.4-0.3,0.6-0.4c0.5,0,1-0.2,1.5,0.2C250,181.6,250.9,181.6,251.7,181.6z"/>
		<path class="st33" d="M278.5,176.5c-1.9-0.7-3.8-1.3-5.8-1.9c-2.2-0.7-4.6-0.4-6.8-1c0.1-1.1,0.9-1.8,1.6-2.6
			c2.9-1.3,7.5-0.4,9.8,1.9C278.1,174,278.4,175.2,278.5,176.5z"/>
		<path class="st34" d="M284.9,219.3c0,1.5,0.1,3.1,0.1,4.6c-0.1,2.7-2.3,4.1-4.6,2.7c-1.3-0.8-2.9-1.5-3.8-3
			C279.3,221.9,281.9,220.1,284.9,219.3z"/>
		<path class="st31" d="M249,205.8c0.6,2.6,2.4,4.3,4.3,5.9c2.7,2.4,5.6,4.5,9.4,4.8c-0.9,0.7-2,1-3.1,1.1c-4.4,0.3-7-2.6-9.6-5.3
			c-1-1-2.5-2-2-3.8C248,207.5,248.3,206.6,249,205.8z"/>
		<path class="st35" d="M284.9,219.3c-2.5,1.8-5.1,3.6-8.2,4.3c-1.3-0.2-2.1-1.3-3.1-2c3.4-0.7,6.4-2.4,9.1-4.5
			c0.7-0.5,1.4-1,2.1-1.4C284.9,216.9,284.9,218.1,284.9,219.3z"/>
		<path class="st36" d="M253.4,219.8c-1.4,1-3.1,1.4-4.7,1.8c-2.5,0.8-4.7-1.4-4-3.9c0.3-1,0.9-2,1.3-3c0.8-0.4,1.3,0.2,1.8,0.6
			C249.5,217.1,251.5,218.4,253.4,219.8z"/>
		<path class="st37" d="M248,208.5c0.5,1.8,1.9,3,3.1,4.2c2.3,2.3,5,4.3,8.4,4.9c-0.9,0.7-1.9,1-3.1,1.1c-0.2,0.2-0.5,0.3-0.7,0.2
			c-4-1.2-6.6-4-8.8-7.3c0-0.2,0-0.3,0-0.5c0.3-0.3,0.2-0.8,0.5-1.1C247.5,209.5,247.5,208.9,248,208.5z"/>
		<path class="st38" d="M247,211.6c3.2,2.3,5.2,6.2,9.5,7.1c-0.9,0.7-2,1-3.1,1.1c-1.7,0-2.8-1.1-4-2c-1.2-1-2.1-2.3-3.4-3
			c0-0.3,0-0.7,0.1-1c0.2-0.2,0.3-0.4,0.4-0.5C246.5,212.6,246.5,212,247,211.6z"/>
		<path class="st39" d="M291.3,201.1c-0.3-1.5,0.4-2.8,0.4-4.3c0.1-3.2-0.4-6.3-1.7-9.2c1.1,0,2.2,0.4,3.1,1c1.9,3.1,2,8.6,0.2,10.9
			C292.9,200.3,292.3,201,291.3,201.1z"/>
		<path class="st40" d="M295.3,189.1c1.1,0.3,2.2,0.6,3.2,0.9c2.4,0.9,3,3.4,1.2,5.3c-0.9,0.9-1.9,1.7-3.2,2.1
			C295.3,194.8,295.2,192,295.3,189.1z"/>
		<path class="st41" d="M242,189c-1.1-0.5-1.7-1.5-2.1-2.5c-1.4-2.8-0.2-4.9,2.6-5.3c1.7-0.2,3.4,0,5.1,0c0.2,0.1,0.2,0.2,0.2,0.3
			c-0.1,0.1-0.1,0.1-0.2,0.1l0,0c-2.4,0.8-3.6,2.6-4.3,4.9C243,187.4,242.8,188.4,242,189z"/>
		<path class="st42" d="M277.4,172.9c-3.2-1.2-6.4-2.3-9.8-1.9c0.8-1.1,1.2-2.4,2.5-3.2c2.4-0.7,4.4-0.1,6.3,1.5
			C276.8,170.4,277.4,171.6,277.4,172.9z"/>
		<path class="st43" d="M295.3,189.1c1.3,2.6,1.1,5.5,1.2,8.3c-0.8,1.1-1.8,1.7-3.1,2.1c0.9-2.9,0.5-5.8,0.1-8.7
			c-0.1-0.8-0.3-1.5-0.3-2.3C293.9,188.6,294.6,188.8,295.3,189.1z"/>
		<path class="st44" d="M242,189c0-2.4,1.3-4.3,2.4-6.3c0.7-1.3,2-1,3.2-1c-1,2.1-1.9,4.3-2.9,6.4c-0.5,1-0.8,2-1.1,3.1
			C242.8,190.6,242.1,190,242,189z"/>
		<path class="st45" d="M276.3,169.3c-2.1-0.5-4.2-1-6.3-1.5c0.3-1.6,1.4-2.1,2.9-2.1c1.6-0.1,2.5,0.8,3.1,2.1
			C276.2,168.3,276.2,168.8,276.3,169.3z"/>
		<path class="st44" d="M247.6,181.6c0-0.1,0-0.3,0-0.4c0.6-0.1,1.1-0.2,1.6,0.4C248.6,181.6,248.1,181.6,247.6,181.6z"/>
		<path class="st38" d="M247.5,210c0,0.4-0.1,0.8-0.5,1.1C247,210.7,247.1,210.3,247.5,210z"/>
		<path class="st31" d="M263.1,216.5c0.2-0.4,0.6-0.5,1.1-0.5C264,216.4,263.6,216.5,263.1,216.5z"/>
		<path class="st35" d="M273,221c0.2,0.2,0.4,0.3,0.5,0.5C273.4,221.3,273.2,221.2,273,221z"/>
		<path class="st36" d="M246.5,213.2c-0.1,0.2-0.3,0.4-0.4,0.5C246.2,213.5,246.4,213.3,246.5,213.2z"/>
		<path class="st33" d="M266,173.6c-0.2,0.2-0.3,0.4-0.5,0.5C265.7,173.9,265.9,173.8,266,173.6z"/>
		<path class="st46" d="M153.7,189.4c0.2-1.1,0.5-2.1,0.9-3.1c1.3-2.2,3.5-3,5.8-3.5c3.8-0.9,7.7-0.9,11.2,1.2
			c1.3,0.9,2.2,2.5,4.2,2c3.1,1,4.7,3.7,6.1,6.3c5.5,10.2-0.1,23.6-11.3,26.9l0,0c-3.2,1.2-6.5,1.6-9.9,0.7c-3.2-0.8-6-2.3-8.5-4.4
			c-0.2-0.2-0.3-0.4-0.4-0.7c-0.3-0.8,0.1-1.8-0.4-2.6c-0.2-2-2.1-2.4-3.2-3.5c-0.3-0.2-0.6-0.4-0.8-0.7c-2.9-3.7-2.1-12.6,1.5-15.9
			c1-0.5,2-0.9,3.1-1.1c0.3,1.2-0.6,2.1-1,3.1c-3,6.3-2.2,12.3,2.3,17.4c3.8,4.3,10.8,6.2,16,4.3c6.5-2.3,11-7.8,11-14.4
			c0-5.8-2.5-10.8-7.8-13.7c-5.7-3.1-11.5-3.4-16.9,0.8C155.1,189,154.6,189.6,153.7,189.4z"/>
		<path class="st47" d="M153.7,189.4c1.6-1.2,2.9-2.7,5-3.5c3.7-1.3,7.3-1.4,11-0.3c6.9,2.2,10.3,7.4,11.5,14.2
			c0.6,3.3-0.6,6.5-2.2,9.3c-1.4,2.6-3.5,4.7-6.2,6.1c-2,1-4,1.8-6.3,2c-3.6,0.4-6.9-0.4-9.9-2.1c-3.1-1.7-5.4-4.4-6.8-7.8
			c-2.4-5.9-1.2-11.2,2.3-16.3C152.8,190.6,153.3,190.1,153.7,189.4z"/>
		<path class="st48" d="M170.7,219.1c0.6-0.5,1.1-1.2,1.8-1.4c2.7-0.9,4.8-2.7,6.5-4.9c2.6-3.2,4.5-6.8,4.4-11.1
			c-0.1-1.8-0.1-3.5-0.5-5.3c-1-4.4-3.8-7.5-7-10.4c1,0,2-0.1,3.1-0.1c0.7-0.5,1.3-0.1,1.9,0.3c3,1.8,6.3,9.9,5.6,13.6l0,0
			c-0.2,0.2-0.3,0.4-0.5,0.6c-0.1,0.2,0,0.6-0.2,0.7c-1.6,1.8-1.6,3.8-0.7,5.9c0.4,1.2,0.2,2.4-0.5,3.4c-2,3.1-4,6.2-7.2,8.3
			c-1.4,0.9-2.8,1.6-4.5,1C172,219.7,171.3,219.4,170.7,219.1z"/>
		<path class="st49" d="M186.4,199.7c-0.5-4.1-1.9-8-4.4-11.3c-0.8-1.1-1.6-2.3-3.1-2.5c1.6-1,3.5-0.4,5.2-0.5
			c3.2,2.2,5.6,7.6,4.8,10.7C188.1,197.3,187.4,198.6,186.4,199.7z"/>
		<path class="st33" d="M172.7,219.6c2.8,0.2,4.7-1.6,6.4-3.3c2.6-2.6,5.1-5.4,5.9-9.3c0.7,0.7,0.9,1.7,1.1,2.6
			c0.3,0.3,0.2,0.8,0.5,1c0,0.2,0,0.3,0.1,0.5c-1.6,4.5-4.1,8.1-8.6,10C176.1,220.8,174.4,220.3,172.7,219.6z"/>
		<path class="st50" d="M177.9,221c3.8-2.5,6.3-6.1,8.6-10c0.7,1.3,1.5,2.6,1.6,4.1c-0.8,3-4.3,6.7-6.6,6.9
			C180.3,222,179.1,221.7,177.9,221z"/>
		<path class="st51" d="M165.6,222.8c-0.8,1.2-2,1.8-3.1,2.6c-3,1.1-8.6-0.8-10.4-3.4c-0.9-2.4-0.5-4.8-0.6-7.2
			c0.1-0.2,0.3-0.2,0.4,0l0,0c0.3,0.5,0.5,1,0.7,1.5c0,1.8,0.9,2.8,2.5,3.5c2.8,1.3,5.6,2.5,8.8,2.4
			C164.5,222.2,165.2,222.3,165.6,222.8z"/>
		<path class="st40" d="M181.6,222c1.6-0.2,2.2-1.5,3.1-2.5c1.3-1.4,2.4-2.9,3.5-4.4c1.3,1.5,1.7,3.3,2.1,5.1c0.4,2-0.6,3.1-2.6,3.2
			C185.5,223.6,183.5,222.8,181.6,222z"/>
		<path class="st52" d="M155.1,184.2c0-1.3,0.5-2.5,1-3.6c2.3-2.4,7.7-3.2,11.4-1.8c1.1,0.6,1.6,1.5,2.1,2.6
			c-0.6,0.7-1.5,0.8-2.3,0.7c-4-0.5-7.8,0.3-11.3,2.1C155.6,184.3,155.4,184.3,155.1,184.2z"/>
		<path class="st26" d="M149,192.1c-2.9,4.4-3,9.1-1.8,14c0.2,0.9,0.8,1.7,1.1,2.6c-1.2-0.4-2.3-1-3.1-2c-2.3-4.4-1.7-8.7,0.3-13
			l0,0c0.2-0.1,0.3-0.3,0.5-0.4C147,193.1,147.9,192.2,149,192.1z"/>
		<path class="st53" d="M155.1,184.2c0.7-0.8,1.5-1.3,2.5-1.7c3.1-1,6.1-1.9,9.4-1.2c0.8,0.2,1.7,0,2.5,0c0,0,0,0,0,0
			c0.1,0.2,0.4,0.3,0.5,0.5c0.5,0.7,1.1,1.4,1.6,2c-2.5-0.2-5-1-7.6-0.9c-3,0.1-5.7,0.8-8.1,2.6c-0.4,0.3-0.9,0.5-1.3,0.7
			C154.5,185.5,154.8,184.9,155.1,184.2z"/>
		<path class="st43" d="M188.9,196c0.2-1.7-0.4-3.2-1.1-4.6c-1.1-2.1-2.4-4.1-3.7-6.1c1.2,0,2.4-0.1,3.6-0.1c2.4,1.6,3.4,4,3.7,6.7
			C190.9,193.5,189.9,194.8,188.9,196z"/>
		<path class="st54" d="M145.4,193.7c0,0.4,0.1,0.9,0,1.3c-1.2,3.9-1.1,7.8-0.3,11.7c-1.1-0.2-1.8-0.9-2.6-1.5
			c-0.2-0.2-0.3-0.4-0.5-0.5l0,0c-1.4-3.1-0.8-8,1.4-10.4C144,193.9,144.7,193.6,145.4,193.7z"/>
		<path class="st55" d="M165.6,222.8c-4.3,0.6-8.1-1.2-11.9-2.9c-1.7-0.7-1.7-2.1-1.7-3.6c0.8-0.3,1.4,0.1,1.9,0.5
			c3.9,3.1,8.5,3.8,13.3,3.5c0.4,0,0.7,0.1,0.9,0.4C167.3,221.4,166.4,222.1,165.6,222.8z"/>
		<path class="st56" d="M157,176.9c-0.1-1.1,0.2-2.1,0.5-3c1-2.6,3.8-3.1,5.5-1c0.8,1,2,1.9,2.3,3.3
			C162.6,177,159.9,177.6,157,176.9z"/>
		<path class="st51" d="M157,176.9c1,0.1,2-0.4,2.9-0.6c1.8-0.4,3.6-0.2,5.4-0.1c1.1,0.6,1.6,1.6,2.1,2.6c-3.9,0.1-7.8-0.1-11.4,1.8
			c-0.1-0.9,0.4-1.7,0.5-2.6C156.9,177.7,156.8,177.2,157,176.9L157,176.9z"/>
		<path class="st57" d="M143.4,194.3c-1.4,3.3-1.5,6.8-1.4,10.4c-1-0.2-2-0.6-2.6-1.5c-2.2-2.4-0.9-4.8-0.1-7.2
			C140.7,195.3,142,194.8,143.4,194.3z"/>
		<path class="st48" d="M168.1,220.7c-3.9,1.3-7.6-0.2-11.2-1.1c-1.9-0.5-3-2.4-4.8-3.3c0-0.5,0-1,0-1.5c3.4,2.2,6.7,4.3,10.9,4.7
			c1.5,0.2,3.1,0.4,4.5-0.1c1.1-0.3,2.2-0.3,3.3-0.3c-0.4,0.6-0.9,0.5-1.5,0.5c-0.2,0.1-0.4,0.3-0.6,0.5l0,0
			C168.5,220.3,168.3,220.5,168.1,220.7L168.1,220.7z"/>
		<path class="st58" d="M152.1,222c1.8,1.9,8.2,3.4,10.4,3.4c-0.4,0.9-1.3,1.2-2,1.6c-0.2,0.2-0.4,0.3-0.5,0.5l0,0
			c-3,1.1-5.4-0.5-7.8-1.9C152.2,224.4,152.1,223.2,152.1,222z"/>
		<path class="st40" d="M191.4,191.9c-1.3-2.2-2.1-4.6-3.7-6.7c0.6-0.1,1.2-0.1,1.8-0.2c1.7-0.3,2.9,0.1,3.8,1.4
			c0.9,1.3,0.6,2.4-0.2,3.5C192.5,190.6,192.3,191.5,191.4,191.9z"/>
		<path class="st59" d="M152.2,225.6c1.6-0.1,2.8,1,4.3,1.3c1.1,0.2,2.2,0.8,3.5,0.6c-0.8,1.2-2,1.9-3.1,2.6
			c-2.2,1.4-4.5,0.2-4.7-2.5C152.2,227,152.2,226.3,152.2,225.6z"/>
		<path class="st60" d="M139.3,195.9c0,1.6,0.2,3.2-0.4,4.8c-0.3,0.8,0.1,1.7,0.5,2.4c-0.9,0-1.5-0.8-2.2-1.1
			c-1.5-0.7-1.6-2.1-1.4-3.5c0.1-1.3,0.9-1.9,2.1-2.2C138.3,196.2,138.8,196,139.3,195.9z"/>
		<path class="st55" d="M152,214.8c-0.1,0-0.3,0-0.4,0c0-0.9,0-1.7-0.1-2.6C152.3,212.9,151.9,213.9,152,214.8z"/>
		<path class="st56" d="M157,176.9c0,0.4-0.1,0.8-0.5,1C156.6,177.6,156.7,177.2,157,176.9z"/>
		<path class="st50" d="M186.5,210.6c-0.4-0.2-0.5-0.6-0.5-1C186.4,209.8,186.5,210.1,186.5,210.6z"/>
		<path class="st54" d="M145.9,193.2c-0.2,0.1-0.3,0.3-0.5,0.4C145.6,193.5,145.8,193.4,145.9,193.2z"/>
		<path class="st55" d="M168.1,220.7c0.2-0.2,0.3-0.3,0.5-0.5C168.5,220.3,168.3,220.5,168.1,220.7z"/>
		<path class="st59" d="M160,227.5c0.2-0.2,0.4-0.3,0.5-0.5C160.3,227.2,160.1,227.4,160,227.5z"/>
		<path class="st49" d="M185.9,200.3c0.2-0.2,0.3-0.4,0.5-0.6C186.2,199.9,186.1,200.1,185.9,200.3z"/>
		<path class="st55" d="M168.6,220.2c0.2-0.2,0.4-0.3,0.6-0.5C169,219.8,168.8,220,168.6,220.2z"/>
		<path class="st57" d="M142,204.6c0.2,0.2,0.4,0.3,0.5,0.5C142.4,204.9,142.2,204.8,142,204.6z"/>
		<path class="st52" d="M170.1,181.9c-0.2-0.2-0.3-0.3-0.5-0.5C169.7,181.6,169.9,181.7,170.1,181.9z"/>
		<path class="st61" d="M267.3,210.8c-7.5,0.5-14.7-6.8-14.7-14.2c0-8.3,6.2-15,14.8-15.3c6.8-0.2,14.9,6.3,14.6,15.1
			C281.7,203.2,276.3,210.9,267.3,210.8z"/>
		<path class="st61" d="M176.7,207.6c-0.3,2.2-1.9,3.4-3.4,4.6c-3.9,3-8.4,3.5-12.9,2.3c-6.1-1.6-10.7-9.5-9.4-15.7
			c1.1-5.3,4-9.3,9.2-11.1c2.5-0.9,5.3-1,8-0.1c-1.1,1.1-2.6,0.6-3.9,0.7c-3.9,0.3-7.2,1.6-9.3,5.2c-0.7,1.9-1.9,3.6-2.1,5.8
			c-0.4,4.5,1.1,8.2,4.3,11.3c0.4,0.5,0.7,1.1,1.3,1.4c0.2,0.1,0.4,0.2,0.5,0.3c0.3,0.1,0.6,0.3,0.9,0.4c0.2,0.1,0.4,0.2,0.6,0.3
			c2.7,0.9,5.3,1.2,8,0.2c0.2-0.1,0.4-0.2,0.7-0.2c2.5-0.8,4.3-2.4,5.8-4.4c0.1-0.2,0.3-0.4,0.4-0.6
			C175.8,207.7,176.2,207.4,176.7,207.6z"/>
		<path class="st61" d="M176.7,207.6c-0.3,0.2-0.7,0.4-1,0.5c-0.8-1.1,0-2,0.4-2.9c1.9-4.8,0.5-10.2-3.3-13.3
			c-4.6-3.7-9.6-4-14.3-1.1c-1.4,0.9-2.2,2.8-4.2,2.7c1.1-3,3.8-4.2,6.5-5.2c2.4-0.9,4.9-0.6,7.4-0.7c1.5,0,2.8,0.6,4,1.4
			c4.3,2.6,6,6.7,6.9,11.4C178.2,202.8,179.4,205.8,176.7,207.6z"/>
		<path class="st62" d="M279.9,195.9c1.1,6-5.8,13.8-12.8,12.8c-6.2,1.2-12.6-6.9-12.6-12.5c-0.1-6.9,6.7-13,12.7-12.8
			C274.1,183.5,279.7,188.8,279.9,195.9z"/>
		<path class="st63" d="M154.2,193.5c0.7-0.3,1.2-1,1.7-1.5c3.9-3.6,9.2-5,14-2.7c5.5,2.7,8,7.2,7.7,13.1c-0.1,1.2-0.6,2.3-1,3.4
			c-0.3,0.8-0.9,1.5-0.9,2.4c-1.7,2.4-3.9,4.2-6.6,5.3c-3.1,1-6.2,0.8-9.3-0.4c-0.3-0.3-0.8-0.2-1-0.5c-0.5-0.4-1.1-0.6-1.6-1
			c-1-1.7-2.7-2.7-3.6-4.6c-1.9-4.4-2.1-8.5,0.5-12.7C154.2,194.1,154.2,193.8,154.2,193.5z"/>
		<path class="st61" d="M159.7,213.1c3.1,0.7,6.2,0.7,9.3,0.4C165.9,215.1,162.8,214.8,159.7,213.1z"/>
		<path class="st61" d="M169,213.4c2.4-1.5,4.6-3.3,6.6-5.3C174.3,211,172.1,212.8,169,213.4z"/>
		<path class="st61" d="M157.1,211.6c0.7,0,1.3,0.3,1.6,1C157.9,212.6,157.4,212.3,157.1,211.6z"/>
		<path class="st61" d="M158.7,212.6c0.4,0,0.8,0.1,1,0.5C159.3,213.1,158.9,213,158.7,212.6z"/>
		<path class="st64" d="M267.4,185.5c5.8-0.5,10.7,4.8,10.8,10.4c0.1,6.1-4.6,11-10.8,11.2c-5.7,0.2-11-4.7-10.9-10.9
			C256.7,189.9,260.9,185.6,267.4,185.5z"/>
		<path class="st62" d="M164.9,212.5c-5.5,1-11.8-5.6-11.6-12c0.2-5.9,5.3-10.9,11.6-10.9c6.6,0,11.6,5.3,11.6,11.1
			C176.5,206.6,172,212.7,164.9,212.5z"/>
		<path class="st65" d="M266.7,186.5c5.6,0.4,9.4,3.3,9.9,9.2c0.4,4.4-2.9,9.6-9.1,9.8c-5.5,0.2-9.1-3.6-9.6-9
			C257.4,191.7,262,186.8,266.7,186.5z"/>
		<path class="st66" d="M164.6,191.3c6-0.6,10,4.2,10.2,9.5c0.3,5.5-4.3,10.4-10.2,10.1c-5.3-0.2-9.7-4.5-9.8-10.1
			C154.8,195.6,159,191.4,164.6,191.3z"/>
		<path class="st67" d="M267.4,204.1c-4.8,0-9.2-4.8-8.1-9.4c0.7-2.8,2.4-5,5.3-6.1c2.9-1.1,5.3-0.1,7.6,1.5
			c1.9,1.3,2.7,3.3,2.9,5.4C275.6,199.8,271.7,204,267.4,204.1z"/>
		<path class="st67" d="M165,208.9c-4.8,0.1-8-3.1-8.1-8c0-3.8,3.6-7.8,7.3-8c4-0.1,8.7,4,8.7,7.8C173,205.1,169.4,208.8,165,208.9z
			"/>
		<path class="st68" d="M267.3,202.5c-3.5,0.1-6.5-2.8-6.5-6.4c0-3.4,2.9-6.5,6.2-6.5c3.9,0,6.6,2.7,6.7,6.6
			C273.7,199.7,270.9,202.5,267.3,202.5z"/>
		<path class="st69" d="M170.9,201.1c0,3.3-2.9,6.2-6.4,6.2c-3.1,0-5.9-3-6-6.5c-0.1-2.7,3.1-5.8,6-5.9
			C168.1,194.8,170.8,197.5,170.9,201.1z"/>
		<path class="st70" d="M272.1,195.9c0.1,2.8-1.9,5-4.6,5.1c-2.6,0.1-5.2-2.3-5.2-4.9c0-2.2,2.7-4.9,5.1-4.9
			C269.8,191.1,272,193.3,272.1,195.9z"/>
		<path class="st71" d="M169.3,201.2c0,2.9-1.6,4.5-4.4,4.5c-2.7,0-4.9-2-4.9-4.5c-0.1-2.6,2.2-4.8,4.9-4.8
			C167.8,196.5,169.3,198.1,169.3,201.2z"/>
		<path class="st72" d="M267.1,193.2c1.4-0.1,2.9,1.2,3,2.6c0.1,1.5-1.3,3-2.8,3c-1.4,0-2.8-1.3-2.8-2.8
			C264.3,194.7,265.6,193.3,267.1,193.2z"/>
		<path class="st73" d="M167.8,201.1c0,1.8-1.2,3-3,3.1c-1.8,0-3.1-1.4-3.2-3.3c0-1.6,1.4-3,3.2-2.9
			C166.6,198,167.8,199.3,167.8,201.1z"/>
	</g>
	<g>
		<path class="st74" d="M114,245.3c1,0.2,2.1,0.4,3.1,0.5c7.5,1.1,14.7,3.3,21.5,6.7c4.6,2.3,8.8,5.2,12.8,8.5
			c0.1,0.1,0.3,0.3,0.4,0.4c0.2,0.2,0.3,0.5,0.1,0.8c-0.2,0.4-0.6,0.5-1,0.3c-0.3-0.2-0.7-0.4-1-0.6c-2.7-1.7-5.5-3.3-8.3-4.8
			c-7.2-3.8-14.8-6.6-22.8-8.1c-1.7-0.3-3.3-0.7-5-0.7c-0.4-0.2-0.8-0.2-1.3-0.2c-11.3-1.2-22.4,0.1-33.2,3.5
			c-1.8,0.6-3.5,1.3-5.3,1.9c-0.3,0.1-0.5,0.2-0.8,0.3c-0.3,0.1-0.6,0.2-0.8-0.1c-0.2-0.2-0.2-0.6,0-0.9c0.2-0.4,0.5-0.6,0.9-0.7
			c3.6-1.7,7.2-3.2,11.1-4.3c9.4-2.7,18.9-3.4,28.6-2.5C113.3,245.3,113.7,245.3,114,245.3z"/>
		<path class="st74" d="M114.4,262.5c2.2,0,4.3,0,6.5,0.1c6.5,0.3,12.9,1.6,19,3.6c0.9,0.3,1.8,0.6,2.7,1c0.3,0.1,0.7,0.3,0.6,0.7
			c-0.1,0.5-0.5,0.9-0.9,1c-0.5,0-0.8-0.2-1.3-0.3c-1.8-0.5-3.6-1.1-5.4-1.6c-6.5-1.7-13.1-2.4-19.8-2.3c-0.2,0-0.5,0.1-0.7,0.1
			c-0.5-0.2-1-0.1-1.4,0c-9.1,0.5-17.9,2.5-26.3,6.1c-0.5,0.2-1,0.4-1.5,0.6c-0.2,0.1-0.5,0.1-0.7-0.1c-0.2-0.2-0.2-0.7,0-0.9
			c0.2-0.2,0.5-0.3,0.7-0.5c8.3-4.3,17.1-6.6,26.4-7.3C113.1,262.6,113.8,262.5,114.4,262.5z"/>
		<path class="st75" d="M119.9,286.7c0.2-0.1,0.5-0.1,0.7-0.3c3-2,6.2-3.5,9.5-4.9c4.2-1.8,8.6-3.1,13.2-3.9c0.5-0.1,1-0.2,1.6-0.2
			c0.1,0,0.3,0,0.3,0.2c0.1,0.2,0,0.4-0.2,0.5c-0.3,0.1-0.5,0.2-0.8,0.2c-2.3,0.5-4.5,1-6.7,1.7c-5.1,1.5-10,3.6-14.6,6.2
			c-0.5,0.3-0.9,0.5-1.4,0.8c-2.1,1.1-4.1,2.5-6.1,4c-1.8,1.3-3.6,2.8-5.2,4.4c-0.3,0.3-0.7,0.6-1.1,0.9c-0.2,0.1-0.4,0.1-0.5-0.1
			c-0.1-0.1-0.1-0.3,0-0.4c0.1-0.2,0.3-0.4,0.5-0.5c1.5-1.6,3.2-2.9,4.9-4.3C115.8,289.4,117.8,288,119.9,286.7z"/>
	</g>
	<g>
		<path class="st74" d="M324.5,237.7c-1.1-0.3-2.3-0.2-3.5-0.2c-9.2-0.2-18.3,1-27.1,3.8c-5.6,1.8-10.9,4.1-15.9,7.1
			c-0.4,0.2-0.8,0.5-1.3,0.7c-0.3,0.2-0.6,0.1-0.8-0.1c-0.2-0.3-0.1-0.6,0.1-0.8c0.2-0.2,0.4-0.4,0.7-0.5c2.2-1.4,4.5-2.7,6.8-3.8
			c11.3-5.5,23.2-8.3,35.7-8.5c1.4,0,2.8,0,4.2,0c0.8,0.1,1.6,0.1,2.5,0.2c9.9,0.7,19.4,3.2,28.3,7.6c1.3,0.6,2.5,1.3,3.7,2
			c0.5,0.3,0.6,0.5,0.4,0.9c-0.2,0.5-0.6,0.7-1,0.5c-0.5-0.2-1-0.4-1.5-0.6c-3.3-1.5-6.6-2.9-10.1-4c-6.2-2.1-12.6-3.4-19.1-4
			C326.1,237.7,325.3,237.5,324.5,237.7z"/>
		<path class="st74" d="M328,262.5c-1.8-0.7-3.8-1.2-5.7-1.7c-5.5-1.5-11-2.5-16.7-3c-6.2-0.6-12.5-0.5-18.7,0.3
			c-1.8,0.2-3.6,0.4-5.3,0.5c-0.4,0-0.8,0-1.2,0c-0.1,0-0.1-0.1-0.1-0.2c0,0,0-0.1,0.1-0.1c0.3-0.3,0.7-0.4,1-0.5
			c2.4-0.8,5-1.3,7.5-1.7c4.7-0.7,9.5-0.7,14.2-0.5c3.2,0.2,6.4,0.4,9.5,0.9c4.8,0.7,9.4,1.7,14,3.3c0.5,0.2,0.9,0.3,1.4,0.4
			c1.9,0.8,3.8,1.6,5.7,2.4c1,0.4,2,0.9,3,1.4c0.3,0.1,0.5,0.3,0.8,0.4c0.4,0.2,0.5,0.6,0.4,0.8c-0.2,0.4-0.6,0.7-1,0.6
			c-0.4-0.1-0.7-0.3-1.1-0.4c-2.1-0.8-4.3-1.6-6.4-2.3C328.9,262.7,328.5,262.4,328,262.5z"/>
		<path class="st76" d="M327.3,287.9c0.3,0.4,0,1.1-0.5,1.2c-0.3,0-0.6,0-0.8-0.2c-0.6-0.4-1.2-0.8-1.8-1.3
			c-8.7-6.2-18.1-11.1-28.2-14.3c-3.2-1-6.4-1.9-9.7-2.6c-0.4-0.1-0.8-0.2-1.1-0.3c-0.2-0.1-0.3-0.2-0.2-0.5c0-0.2,0.2-0.4,0.3-0.4
			c0.4-0.1,0.8,0,1.1,0c3.1,0.4,6.2,1,9.3,1.7c9.8,2.5,18.8,6.6,26.8,12.7c1.5,1.2,3,2.5,4.5,3.7
			C327.1,287.8,327.2,287.9,327.3,287.9z"/>
	</g>
</g>
</svg>
