<svg width="45" height="45" viewBox="0 0 45 45" fill="none" xmlns="http://www.w3.org/2000/svg">
<path fill-rule="evenodd" clip-rule="evenodd" d="M31.4645 30.6829C31.5774 30.2522 31.6376 29.8015 31.6383 29.3375V12.495C31.6383 9.46372 29.0925 7 25.9699 7H12.6684C9.54146 7 7 9.46372 7 12.495V29.3375C7 29.8015 7.05971 30.2522 7.17207 30.6829H8.98768C8.82427 30.2643 8.73479 29.8108 8.73479 29.3375V12.495C8.73479 10.3929 10.4999 8.68172 12.6684 8.68172H25.9699C28.1384 8.68172 29.9035 10.3929 29.9035 12.495V29.3375C29.9035 29.8108 29.814 30.2643 29.6506 30.6829H31.4645Z" fill="#454545"/>
<path d="M31.634 26.4197H7V12.5244H31.634V26.4197ZM8.73479 24.7379H29.8992V14.2061H8.73479V24.7379Z" fill="#454545"/>
<path d="M16.3678 26.4197H7V12.5244H16.3678V26.4197ZM8.73479 24.7379H14.6331V14.2061H8.73479V24.7379Z" fill="#454545"/>
<path d="M31.634 26.4197H22.2661V12.5244H31.634V26.4197ZM24.0009 24.7379H29.8992V14.2061H24.0009V24.7379Z" fill="#454545"/>
<path d="M24.0009 26.4197H14.6331V12.5244H24.0009V26.4197ZM16.3678 24.7379H22.2661V14.2061H16.3678V24.7379Z" fill="#454545"/>
<path d="M9.15552 17.3719C9.15552 17.2499 9.25961 17.149 9.38104 17.149C9.50681 17.149 9.60656 17.2499 9.60656 17.3719V17.5148L9.79739 17.3803C10.3395 16.9935 10.8036 16.7665 11.2763 16.758C11.7577 16.7496 12.2174 16.9725 12.7292 17.4896L12.8116 17.5737L13.4188 16.9893L13.4318 16.9809C13.5185 16.8884 13.6616 16.8884 13.7484 16.9809L14.0563 17.2836V17.2878C14.1387 17.3677 14.1474 17.5022 14.065 17.5947C13.8004 17.8932 13.5402 18.2211 13.2973 18.5617C13.0371 18.9275 12.7942 19.2974 12.5904 19.6548C12.3822 20.008 12.2391 20.441 12.1524 20.8951C12.0656 21.3702 12.0439 21.8705 12.0917 22.3204C12.096 22.3372 12.096 22.3456 12.096 22.3582C12.096 22.4843 11.9919 22.5852 11.8705 22.5852H10.0836H10.0663C9.94485 22.5768 9.84943 22.4675 9.85811 22.3456C9.87979 22.0597 9.9275 21.7317 10.0099 21.429C10.075 21.1684 10.1704 20.9245 10.2875 20.7353C10.5997 20.235 10.9857 19.7978 11.3761 19.3647C11.4801 19.2512 11.5799 19.1335 11.684 19.0158C11.2156 19.1209 10.6691 19.2092 10.4436 19.062C10.3395 18.9947 10.2311 18.9611 10.1183 18.9569H10.1097C9.97087 18.9485 9.83209 18.9779 9.68897 19.0326L9.67596 19.0368L9.60656 19.0662V19.1923C9.60656 19.3185 9.50248 19.4152 9.38104 19.4152C9.25961 19.4152 9.15552 19.3143 9.15552 19.1923V17.3719Z" fill="#454545"/>
<path d="M16.8145 17.3719C16.8145 17.2499 16.9185 17.149 17.04 17.149C17.1657 17.149 17.2655 17.2499 17.2655 17.3719V17.5148L17.4563 17.3803C17.9984 16.9935 18.4625 16.7665 18.9352 16.758C19.4166 16.7496 19.8764 16.9725 20.3881 17.4896L20.4705 17.5737L21.0777 16.9893L21.0907 16.9809C21.1775 16.8884 21.3206 16.8884 21.4073 16.9809L21.7152 17.2836V17.2878C21.7976 17.3677 21.8063 17.5022 21.7239 17.5947C21.4594 17.8932 21.1991 18.2211 20.9563 18.5617C20.6961 18.9275 20.4532 19.2975 20.2493 19.6548C20.0412 20.008 19.898 20.441 19.8113 20.8951C19.7246 21.3702 19.7029 21.8705 19.7506 22.3204C19.7549 22.3372 19.7549 22.3456 19.7549 22.3582C19.7549 22.4843 19.6508 22.5852 19.5294 22.5852H17.7469H17.7296C17.6081 22.5768 17.5127 22.4675 17.5214 22.3456C17.5431 22.0597 17.5908 21.7317 17.6732 21.429C17.7382 21.1684 17.8336 20.9245 17.9507 20.7353C18.263 20.235 18.649 19.7978 19.0393 19.3647C19.1434 19.2512 19.2432 19.1335 19.3472 19.0158C18.8789 19.1209 18.3324 19.2092 18.1069 19.062C18.0028 18.9947 17.8944 18.9611 17.7816 18.9569H17.7773C17.6385 18.9485 17.4997 18.9779 17.3566 19.0326L17.3436 19.0368L17.2698 19.0662V19.1923C17.2698 19.3185 17.1657 19.4152 17.0443 19.4152C16.9229 19.4152 16.8188 19.3143 16.8188 19.1923V17.3719H16.8145Z" fill="#454545"/>
<path d="M24.4692 17.3719C24.4692 17.2499 24.5733 17.149 24.6948 17.149C24.8205 17.149 24.9203 17.2499 24.9203 17.3719V17.5148L25.1111 17.3803C25.6532 16.9935 26.1173 16.7665 26.59 16.758C27.0714 16.7496 27.5311 16.9725 28.0429 17.4896L28.1253 17.5737L28.7325 16.9893L28.7455 16.9809C28.8322 16.8884 28.9754 16.8884 29.0621 16.9809L29.37 17.2836V17.2878C29.4524 17.3677 29.4611 17.5022 29.3787 17.5947C29.1141 17.8932 28.8539 18.2211 28.6111 18.5617C28.3508 18.9275 28.108 19.2974 27.9041 19.6548C27.696 20.008 27.5528 20.441 27.4661 20.8951C27.3794 21.3702 27.3577 21.8705 27.4054 22.3204C27.4097 22.3372 27.4097 22.3456 27.4097 22.3582C27.4097 22.4843 27.3056 22.5852 27.1842 22.5852H25.4017H25.3843C25.2629 22.5768 25.1675 22.4675 25.1762 22.3456C25.1979 22.0597 25.2456 21.7317 25.328 21.429C25.393 21.1684 25.4884 20.9245 25.6055 20.7353C25.9178 20.235 26.3038 19.7978 26.6941 19.3647C26.7982 19.2512 26.8979 19.1335 27.002 19.0158C26.5336 19.1209 25.9872 19.2092 25.7617 19.062C25.6576 18.9947 25.5491 18.9611 25.4364 18.9569H25.432C25.2933 18.9485 25.1545 18.9779 25.0114 19.0326L24.9984 19.0368L24.9246 19.0662V19.1923C24.9246 19.3185 24.8205 19.4152 24.6991 19.4152C24.5777 19.4152 24.4736 19.3143 24.4736 19.1923V17.3719H24.4692Z" fill="#454545"/>
<path d="M36.6952 27.8618H30.7666V26.1801H34.9604V18.8394H36.6952V27.8618Z" fill="#454545"/>
<path d="M35.8279 19.4951C33.525 19.4951 31.6558 17.6788 31.6558 15.4506C31.6558 13.2223 33.5293 11.406 35.8279 11.406C38.1265 11.406 40.0001 13.2223 40.0001 15.4506C40.0001 17.6788 38.1308 19.4951 35.8279 19.4951ZM35.8279 13.0835C34.4835 13.0835 33.3905 14.143 33.3905 15.4463C33.3905 16.7497 34.4835 17.8092 35.8279 17.8092C37.1724 17.8092 38.2653 16.7497 38.2653 15.4463C38.2653 14.143 37.1724 13.0835 35.8279 13.0835Z" fill="#454545"/>
<path d="M19.3539 34.949H15.7217V38.2658H19.3539V34.949ZM18.2686 37.205H16.807V36.0098H18.2686V37.205Z" fill="#454545"/>
<path d="M27.6169 34.2983L26.5171 33.9801L26.3073 34.8429C26.2422 34.7297 26.1698 34.6095 26.1047 34.4963L25.5837 33.6548L24.6865 34.0932L23.9919 34.4327L23.7531 34.0579L22.8487 34.5458L21.9298 35.0409L21.6621 35.1823V32.8273H13.4931V34.1781L13.0734 33.7538L12.3282 32.99L11.894 32.5444L11.279 32.6929H5.8089V35.9108H8.74654C8.48606 36.229 8.22558 36.5048 7.95063 36.7382C7.34284 37.2545 6.50351 37.7425 5.44712 38.188L4 38.8033L5.10704 39.8995C5.33135 40.1258 5.51947 40.3733 5.64971 40.6491L6.12726 41.6109L7.1113 41.13C7.89274 40.7481 8.58736 40.345 9.18068 39.9136C9.50628 39.6802 9.83912 39.4185 10.1647 39.1286C10.6423 39.6519 11.1126 40.2389 11.5684 40.8825L12.2269 41.816L13.1385 41.1088L13.4931 40.833V40.8754H16.8142V40.3804H18.2758V40.7764H21.6693V39.2488L22.5159 40.3309C22.6823 40.543 22.8053 40.7693 22.8921 41.0169L23.2249 41.9999L24.2379 41.6958C25.6416 41.2714 26.7342 40.6632 27.4867 39.8853C28.2898 39.0508 28.9483 37.7637 29.5054 35.9461L29.8166 34.9277L28.7746 34.6307L27.6242 34.2983H27.6169ZM12.4584 40.2884C11.7348 39.2559 10.9751 38.3719 10.1864 37.6364C9.62928 38.2021 9.07938 38.676 8.52947 39.072C7.97957 39.4681 7.35007 39.8358 6.61928 40.1894C6.43116 39.8146 6.18515 39.4681 5.87402 39.164C7.03171 38.6689 7.95786 38.1314 8.65248 37.5374C9.16621 37.0989 9.65099 36.5473 10.0996 35.8683C10.2732 35.6067 10.4758 35.2672 10.7219 34.85H6.89423V33.7538H11.402L11.5395 33.7184L12.2847 34.4822C11.8578 35.2248 11.3803 35.9886 10.8593 36.7665C11.8 37.6152 12.661 38.5275 13.4352 39.5176L12.4512 40.2814L12.4584 40.2884ZM12.263 36.6109C12.6103 36.0664 12.9359 35.5289 13.2398 35.0055L13.4931 34.56V37.9122C13.1024 37.4666 12.6899 37.0282 12.263 36.6109ZM20.584 39.7227H19.3611V39.3266H15.7289V39.8217H14.5784V33.8881H20.584V39.7227ZM25.1785 35.048C25.4969 35.5642 25.7791 36.0946 26.0251 36.6392L25.0772 37.106C24.8529 36.5402 24.5925 35.9956 24.2958 35.4794L25.1785 35.048ZM21.6693 39.0084V36.7453C21.937 37.1625 22.183 37.5939 22.4001 38.0324L22.7546 38.7467L21.6693 39.0084ZM22.4652 35.9744L23.3841 35.4794C23.7242 36.0098 24.0281 36.5402 24.303 37.0706L23.3841 37.5656C23.1092 37.0211 22.8053 36.4907 22.4652 35.9744ZM26.7053 39.1569C26.083 39.8004 25.1568 40.3096 23.9268 40.6845C23.8038 40.3309 23.6229 39.9985 23.3841 39.6873C24.1004 39.5176 24.6865 39.2983 25.1424 39.0296C25.7502 38.676 26.2349 38.1385 26.5895 37.4242C26.8717 36.8514 27.1177 36.1512 27.3203 35.3167L28.4707 35.6491C27.9715 37.2898 27.3854 38.4638 26.7053 39.164V39.1569Z" fill="#454545"/>
<path d="M37.0231 35.9675C36.0246 35.4512 34.9899 34.9844 33.9335 34.5813V32H30.54V41.4837H33.9335V38.1245C34.4183 38.3579 34.8886 38.6124 35.3445 38.8812L36.2996 39.4399L36.8422 38.4922L37.45 37.4314L37.9927 36.4837L37.0086 35.9745L37.0231 35.9675ZM35.9016 37.9618C34.9248 37.389 33.9118 36.8939 32.8482 36.4696V40.4158H31.6254V33.0608H32.8482V35.3168C34.1072 35.7624 35.33 36.2928 36.5094 36.9081L35.9016 37.9689V37.9618Z" fill="#454545"/>
</svg>
