<svg width="47" height="40" viewBox="0 0 47 40" fill="none" xmlns="http://www.w3.org/2000/svg">
<mask id="mask0_3175_10278" style="mask-type:alpha" maskUnits="userSpaceOnUse" x="9" y="4" width="31" height="25">
<rect x="9" y="4" width="31" height="25" fill="#D9D9D9"/>
</mask>
<g mask="url(#mask0_3175_10278)">
<path d="M28.3042 21.9381C28.5119 21.9381 28.7111 21.8556 28.858 21.7087C29.0049 21.5618 29.0874 21.3626 29.0874 21.1549V17.7746C29.0852 17.6179 29.0372 17.4653 28.9492 17.3355C28.8613 17.2058 28.7372 17.1047 28.5924 17.0447C28.5004 17.0093 28.4027 16.9913 28.3042 16.9915C28.0972 16.9939 27.8994 17.0772 27.7531 17.2235C27.6067 17.3699 27.5234 17.5677 27.521 17.7746V21.1549C27.521 21.3626 27.6035 21.5618 27.7504 21.7087C27.8972 21.8556 28.0965 21.9381 28.3042 21.9381V21.9381Z" fill="#454545"/>
<path d="M23.9903 23.398C25.162 23.398 26.011 22.8091 26.011 21.9945C26.0105 21.8089 25.9442 21.6294 25.8237 21.4881C25.7032 21.3468 25.5364 21.253 25.3532 21.2232C25.1699 21.1935 24.982 21.2299 24.8231 21.3258C24.6641 21.4218 24.5444 21.571 24.4853 21.7471C24.3272 21.8066 24.1592 21.8353 23.9903 21.8316C23.8204 21.8349 23.6515 21.8062 23.4922 21.7471C23.4331 21.571 23.3134 21.4218 23.1545 21.3258C22.9955 21.2299 22.8076 21.1935 22.6243 21.2232C22.441 21.253 22.2743 21.3468 22.1538 21.4881C22.0333 21.6294 21.967 21.8089 21.9666 21.9945C21.9666 22.8091 22.8187 23.398 23.9903 23.398Z" fill="#454545"/>
<path d="M38.6422 18.2446C38.6416 17.9543 38.6069 17.6652 38.5388 17.3831C38.5106 17.2671 38.4761 17.1544 38.4385 17.0416C38.2578 16.5214 37.9631 16.0481 37.5762 15.6562C37.1892 15.2644 36.7196 14.9639 36.2017 14.7766C36.2926 13.4796 35.9636 10.3438 31.4744 7.25799C30.1827 6.47944 28.7888 5.88475 27.3329 5.4911C24.1406 4.6202 21.1864 4.91155 18.7773 6.33382C17.9628 6.60637 13.2167 8.45783 11.7537 14.692C11.1718 14.8488 10.637 15.1455 10.1959 15.556C9.75475 15.9666 9.42056 16.4787 9.22241 17.0479C9.18482 17.1606 9.15351 17.2734 9.12532 17.3893C9.04883 17.6682 9.00674 17.9554 9 18.2446C9.00067 18.9668 9.21286 19.6729 9.61038 20.2759C10.0079 20.8788 10.5733 21.3521 11.2368 21.6374C11.1992 28.0188 12.0388 31.6152 18.3294 32.602C20.0914 32.8757 21.8719 33.014 23.6551 33.0155C27.6399 33.0155 31.6185 32.3107 33.9649 30.5406C34.5707 30.1168 35.0816 29.5714 35.4651 28.9393C35.8486 28.3072 36.0963 27.6021 36.1924 26.8691C36.255 26.3459 36.3145 25.8885 36.3678 25.4781C36.609 23.5828 36.7186 22.6837 36.681 21.4901C37.2708 21.1769 37.7646 20.7097 38.1099 20.1382C38.4552 19.5667 38.6392 18.9123 38.6422 18.2446ZM19.2786 21.935C19.4863 21.935 19.6855 21.8525 19.8324 21.7056C19.9793 21.5587 20.0618 21.3595 20.0618 21.1518V18.2446L20.5379 17.9877C20.8951 17.7935 21.2554 17.5992 21.6094 17.3956C21.8005 17.2859 21.9916 17.1732 22.1764 17.0541C23.2071 16.4056 24.1312 15.635 24.6826 14.526C24.8586 14.1803 25.0553 13.8455 25.2715 13.5235C26.3022 14.7046 28.6267 16.4746 33.2162 16.2271C33.235 16.5047 33.2705 16.7809 33.3227 17.0541V17.0729C33.3227 17.1387 33.3478 17.2045 33.3572 17.2672V18.0848C33.3582 20.1209 32.6962 22.102 31.4713 23.7284C30.2464 25.3548 28.5252 26.5382 26.568 27.0995C24.6108 27.6608 22.5241 27.5696 20.6234 26.8396C18.7226 26.1096 17.1113 24.7805 16.033 23.0533C16.2241 21.1737 17.1922 20.0647 18.486 19.1781V21.1643C18.4872 21.2672 18.5087 21.3688 18.5492 21.4633C18.5897 21.5579 18.6484 21.6435 18.722 21.7154C18.7956 21.7872 18.8826 21.8439 18.9781 21.8821C19.0736 21.9203 19.1757 21.9393 19.2786 21.9381V21.935ZM34.651 14.4978C29.1938 15.2904 26.9695 13.1852 26.2709 12.2547C27.6131 10.8362 29.1981 9.66916 30.9512 8.8087C34.3221 11.2648 34.6886 13.5454 34.651 14.5009V14.4978ZM10.5664 18.2446C10.5659 17.9475 10.6289 17.6538 10.7512 17.3831C10.8037 17.2633 10.8677 17.149 10.9423 17.0416C11.1382 16.7589 11.3994 16.5275 11.7037 16.3672C12.008 16.2069 12.3464 16.1223 12.6904 16.1206C12.7625 16.1206 12.8188 16.1206 12.8627 16.1206C12.8627 16.2866 12.8063 16.5654 12.7687 16.7784C12.7687 16.8599 12.7374 16.9445 12.7249 17.0322C12.7123 17.1199 12.6872 17.2546 12.6716 17.3737C12.6297 17.6589 12.6077 17.9468 12.6058 18.2352C12.6166 18.7257 12.6712 19.2142 12.7687 19.695C12.7875 19.811 12.8126 19.9425 12.8314 20.0678C12.8502 20.1931 12.8595 20.2746 12.8627 20.3529H12.6904C12.13 20.3521 11.5926 20.1302 11.1949 19.7354C10.7972 19.3407 10.5713 18.8049 10.5664 18.2446V18.2446ZM34.8296 25.2808C34.7763 25.6911 34.7168 26.1516 34.6542 26.6748C34.5832 27.1998 34.4026 27.704 34.1241 28.1547C33.8456 28.6053 33.4754 28.9924 33.0376 29.2907C29.9957 31.5839 23.4044 31.8125 18.5706 31.0544C13.6866 30.29 12.8063 28.213 12.8094 21.935C13.0499 21.9416 13.289 21.8976 13.5114 21.8058C13.7337 21.7141 13.9343 21.5766 14.1001 21.4024C14.5607 20.851 14.4353 20.1274 14.31 19.4288C14.2287 19.039 14.1826 18.6426 14.1722 18.2446C14.1766 17.9556 14.2049 17.6674 14.2568 17.3831C14.2568 17.2734 14.2912 17.1669 14.31 17.0698V17.051C14.4322 16.3587 14.5544 15.6444 14.097 15.0993C13.9017 14.8734 13.6412 14.7136 13.3514 14.6419C14.8081 9.14391 19.0781 7.86888 19.288 7.80935C19.3583 7.7904 19.4258 7.76194 19.4885 7.72476C23.0849 5.55063 27.264 6.94784 29.3222 7.90333C27.6211 8.86196 24.8016 10.8105 23.2885 13.8211C22.662 15.0554 21.271 15.8073 19.7923 16.6061C19.5229 16.7503 19.2472 16.8975 18.9716 17.051C18.7773 17.1606 18.58 17.2734 18.3857 17.3925C16.4873 18.5328 14.6797 20.096 14.4698 23.1724C14.4698 23.2069 14.4698 23.2413 14.4698 23.2726C14.4224 24.5206 14.5672 25.7684 14.899 26.9724C14.941 27.1417 15.0385 27.2919 15.1759 27.3992C15.3133 27.5066 15.4827 27.5648 15.6571 27.5645C15.7216 27.5639 15.7858 27.5555 15.8482 27.5395C16.047 27.4884 16.2178 27.3613 16.3239 27.1855C16.4299 27.0097 16.4628 26.7993 16.4153 26.5996C16.3463 26.3239 16.2868 26.0577 16.2367 25.8008C17.5318 27.1076 19.1358 28.0664 20.9001 28.5882C22.6644 29.1101 24.5319 29.1781 26.3295 28.786C28.1271 28.394 29.7966 27.5545 31.1834 26.3453C32.5701 25.1362 33.6293 23.5966 34.2626 21.8692C34.4881 21.9306 34.7212 21.9601 34.9549 21.9569C35.0207 21.9569 35.0833 21.9569 35.146 21.9569C35.1075 23.0712 35.0018 24.1822 34.8296 25.2839V25.2808ZM36.5871 19.6011C36.4015 19.8245 36.172 20.0074 35.9128 20.1383C35.6535 20.2693 35.3702 20.3455 35.0802 20.3623H34.9518H34.7826C34.8018 20.1415 34.8332 19.9218 34.8766 19.7044C34.9079 19.529 34.9392 19.3316 34.9674 19.1249C35.0122 18.8336 35.0352 18.5393 35.0364 18.2446C35.0345 17.9562 35.0125 17.6684 34.9706 17.3831C34.9706 17.2953 34.9455 17.2076 34.933 17.1262V16.1206H34.9518C35.4376 16.121 35.9087 16.2879 36.2863 16.5936C36.4455 16.7227 36.5857 16.8735 36.703 17.0416C36.7754 17.1498 36.8383 17.264 36.891 17.3831C37.0513 17.7451 37.1069 18.1448 37.0516 18.5369C36.9962 18.9289 36.832 19.2976 36.5777 19.6011H36.5871Z" fill="#454545"/>
</g>
<path d="M36.3031 28.6174C35.9864 28.2661 35.6556 27.9368 35.3318 27.644L34.6139 27L33.9874 27.6075H33.9804L33.2695 28.2881L32.8402 28.6979L32.6783 28.8516H27.153V29.4298L26.4632 28.8516L25.4708 28.0319L24.6754 27.3659L24.0138 28.171C23.6267 28.6394 23.317 29.0053 23.0776 29.2542C22.2401 30.1324 21.3039 30.8789 20.2904 31.4644C19.9103 31.684 19.4105 31.9255 18.8052 32.1816L19.0516 31.5742L18.4955 31.0546L17.8339 30.4398L17.7846 30.3959V28.2369H11.0839V30.2275H10.2604V33.4844H14.1598C13.8571 33.7259 13.5122 33.9308 13.1181 34.0845C12.7943 34.2089 12.3227 34.326 11.7103 34.4212L9.99292 34.6919L11.0135 36.1557C11.1895 36.4045 11.3021 36.668 11.3654 36.9534L11.5977 38.0073L12.6183 37.7878C13.7586 37.5389 14.7721 37.1364 15.6308 36.5948C16.3206 36.1557 16.9259 35.5629 17.4397 34.831C17.672 34.5017 17.8902 34.1284 18.1014 33.7186L18.2914 33.9528C18.4885 34.1943 18.6504 34.4578 18.763 34.7285L19.1853 35.7092L20.1355 35.2921C20.6212 35.0798 21.0998 34.8383 21.5714 34.5675V37.6487H24.8725V32.1231C25.4285 31.5961 25.9846 31.0546 26.5265 30.5057L27.1459 29.8836V32.1524H31.4465C31.0031 32.9208 30.4189 33.499 29.6517 33.9088C29.4546 34.0186 29.2646 34.1065 29.0886 34.165C28.8986 34.2382 28.61 34.3187 28.244 34.4138L26.6532 34.8164L27.6598 36.1557C27.8428 36.4045 27.9906 36.6753 28.0891 36.9681L28.427 37.9854L29.4124 37.656C30.5245 37.2828 31.5028 36.7778 32.3193 36.1484C32.9528 35.6653 33.5088 35.0213 33.9734 34.2528C34.262 33.7698 34.5153 33.2941 34.7265 32.8403C34.9306 32.3939 35.1699 31.8084 35.4233 31.0985L35.4655 30.9887L35.8456 30.5935L36.275 30.147L37 29.3932L36.3031 28.6174V28.6174ZM12.1397 29.3347H16.7288V30.3959H12.1397V29.3347V29.3347ZM16.5881 34.1796C16.1517 34.8017 15.6519 35.2921 15.0818 35.658C14.3287 36.1337 13.4348 36.485 12.4072 36.7119C12.3157 36.2801 12.1397 35.8776 11.8793 35.5116C12.569 35.4019 13.111 35.2701 13.5052 35.1164C14.4483 34.7359 15.1944 34.143 15.7505 33.3307C15.8983 33.1111 16.0743 32.8037 16.2643 32.3939H11.3162V31.3327H16.9541L17.116 31.2668L17.7776 31.8816C17.6509 32.2036 17.5172 32.5037 17.3764 32.7891H17.3482L17.3623 32.8184C17.116 33.338 16.8555 33.7991 16.581 34.1943L16.5881 34.1796ZM23.8237 31.6327V36.5363H22.6342V32.5622C21.7051 33.2648 20.7338 33.8357 19.7343 34.2748C19.5795 33.9088 19.3683 33.5722 19.1079 33.2428C19.7977 32.9574 20.3678 32.6793 20.8042 32.4305C21.9092 31.7864 22.9158 30.9887 23.8308 30.0299C24.0842 29.7591 24.415 29.3786 24.8162 28.8882L25.8086 29.7079C25.154 30.3666 24.4924 31.0033 23.8308 31.6254L23.8237 31.6327ZM33.7833 32.3573C33.5862 32.7818 33.361 33.2136 33.0865 33.66C32.6923 34.3187 32.2348 34.8456 31.6999 35.2555C30.9749 35.8117 30.1092 36.2655 29.0956 36.6021C28.9549 36.1923 28.7578 35.8117 28.5044 35.4677C28.9056 35.3653 29.2223 35.2701 29.4476 35.1896C29.6728 35.1091 29.9051 34.9993 30.1444 34.8676C31.1861 34.3041 31.9885 33.4697 32.5375 32.3646C32.6853 32.0645 32.8613 31.6254 33.0584 31.0399H28.2088V29.9421H33.5229L33.6214 29.8762L34.445 30.6959C34.1986 31.3766 33.9734 31.9255 33.7833 32.35V32.3573ZM34.4801 30.4325C34.1845 30.1031 33.8748 29.7957 33.5581 29.503L33.9874 29.0931L34.1353 29.2322L34.452 29.5396L34.7687 29.847L34.9165 29.986L34.4872 30.4325H34.4801ZM35.1066 29.8177L34.9588 29.6786L34.642 29.3713L34.3253 29.0639L34.1775 28.9248L34.642 28.4784C34.9447 28.7492 35.2403 29.0419 35.5359 29.3713L35.1066 29.8177V29.8177Z" fill="#454545"/>
</svg>
