<?xml version="1.0" encoding="utf-8"?>
<!-- Generator: Adobe Illustrator 25.0.1, SVG Export Plug-In . SVG Version: 6.00 Build 0)  -->
<svg version="1.1" id="圖層_1" xmlns="http://www.w3.org/2000/svg" xmlns:xlink="http://www.w3.org/1999/xlink" x="0px" y="0px"
	 viewBox="0 0 26 26" style="enable-background:new 0 0 26 26;" xml:space="preserve">
<style type="text/css">
	.st0{fill:#FFFFFF;}
</style>
<path class="st0" d="M13.5,12.5c-0.5,0-1,0.1-1.4,0.4c-0.4,0.3-0.8,0.7-1,1.1c-0.2,0.5-0.2,1-0.1,1.5c0.1,0.5,0.3,0.9,0.7,1.3
	c0.4,0.4,0.8,0.6,1.3,0.7c0.5,0.1,1,0,1.5-0.1c0.5-0.2,0.9-0.5,1.2-0.9c0.3-0.4,0.4-0.9,0.4-1.4c0-0.7-0.3-1.3-0.8-1.8
	C14.8,12.8,14.2,12.5,13.5,12.5z M13.5,15.9c-0.2,0-0.3,0-0.5-0.1c-0.1-0.1-0.3-0.2-0.3-0.4c-0.1-0.2-0.1-0.3,0-0.5
	c0-0.2,0.1-0.3,0.2-0.4c0.1-0.1,0.3-0.2,0.4-0.2c0.2,0,0.3,0,0.5,0c0.2,0.1,0.3,0.2,0.4,0.3c0.1,0.1,0.1,0.3,0.1,0.5
	c0,0.2-0.1,0.4-0.3,0.6C13.9,15.8,13.7,15.9,13.5,15.9z M12.9,10.6c0.1,0.1,0.2,0.1,0.3,0.2c0.1,0,0.2,0.1,0.3,0.1s0.2,0,0.3-0.1
	c0.1,0,0.2-0.1,0.3-0.2l2-1.9c0.2-0.2,0.3-0.4,0.3-0.6c0-0.2-0.1-0.5-0.3-0.6c-0.2-0.2-0.4-0.3-0.6-0.3c-0.2,0-0.5,0.1-0.6,0.3
	l-0.5,0.5V4.8c0-0.2-0.1-0.4-0.3-0.6C13.9,4.1,13.7,4,13.5,4s-0.4,0.1-0.6,0.2c-0.2,0.2-0.3,0.4-0.3,0.6v3.1l-0.5-0.5
	c-0.2-0.2-0.4-0.3-0.6-0.3c-0.2,0-0.5,0.1-0.6,0.3c-0.2,0.2-0.3,0.4-0.3,0.6c0,0.2,0.1,0.5,0.3,0.6L12.9,10.6z M19.5,15.1
	c0-0.2-0.1-0.3-0.1-0.5c-0.1-0.1-0.2-0.2-0.4-0.3c-0.2-0.1-0.3-0.1-0.5,0c-0.2,0-0.3,0.1-0.4,0.2c-0.1,0.1-0.2,0.3-0.2,0.4
	c0,0.2,0,0.3,0,0.5c0.1,0.2,0.2,0.3,0.3,0.4c0.1,0.1,0.3,0.1,0.5,0.1c0.2,0,0.4-0.1,0.6-0.2C19.5,15.5,19.5,15.3,19.5,15.1z
	 M20.4,9.1h-2.6c-0.2,0-0.4,0.1-0.6,0.2C17,9.5,17,9.7,17,9.9c0,0.2,0.1,0.4,0.3,0.6c0.2,0.2,0.4,0.2,0.6,0.2h2.6
	c0.2,0,0.4,0.1,0.6,0.2c0.2,0.2,0.3,0.4,0.3,0.6v6.8c0,0.2-0.1,0.4-0.3,0.6c-0.2,0.2-0.4,0.2-0.6,0.2H6.6c-0.2,0-0.4-0.1-0.6-0.2
	c-0.2-0.2-0.3-0.4-0.3-0.6v-6.8c0-0.2,0.1-0.4,0.3-0.6c0.2-0.2,0.4-0.2,0.6-0.2h2.6c0.2,0,0.4-0.1,0.6-0.2C10,10.4,10,10.2,10,9.9
	c0-0.2-0.1-0.4-0.3-0.6C9.6,9.2,9.4,9.1,9.2,9.1H6.6c-0.7,0-1.3,0.3-1.8,0.7S4,11,4,11.6v6.8c0,0.7,0.3,1.3,0.8,1.8
	C5.2,20.7,5.9,21,6.6,21h13.8c0.7,0,1.3-0.3,1.8-0.7c0.5-0.5,0.8-1.1,0.8-1.8v-6.8c0-0.7-0.3-1.3-0.8-1.8
	C21.8,9.4,21.1,9.1,20.4,9.1z M7.5,15.1c0,0.2,0.1,0.3,0.1,0.5c0.1,0.1,0.2,0.2,0.4,0.3c0.2,0.1,0.3,0.1,0.5,0
	c0.2,0,0.3-0.1,0.4-0.2c0.1-0.1,0.2-0.3,0.2-0.4c0-0.2,0-0.3,0-0.5c-0.1-0.2-0.2-0.3-0.3-0.4c-0.1-0.1-0.3-0.1-0.5-0.1
	c-0.2,0-0.4,0.1-0.6,0.2S7.5,14.8,7.5,15.1z"/>
</svg>
