<svg width="40" height="41" viewBox="0 0 40 41" fill="none" xmlns="http://www.w3.org/2000/svg">
<g clip-path="url(#clip0_1181_5637)">
<path d="M20.0057 0C8.95233 0 0 8.95233 0 20.0057C0 31.0591 8.95233 40.0114 20.0057 40.0114C31.0477 40.0114 40 31.0591 40 20.0057C40 8.95233 31.0477 0 20.0057 0Z" fill="#DE2910"/>
<path d="M22.9289 8.16435C21.5587 7.97023 18.4527 8.49549 16.8884 11.1218C15.3126 13.7481 15.0614 17.8703 19.5604 20.1312C19.5604 20.1312 16.4202 17.9959 18.4756 13.8737C18.4756 13.8737 18.5327 13.7596 18.6697 13.8966C18.6697 13.8966 16.4887 17.5278 19.686 20.0399C19.686 20.0399 18.0302 18.2471 20.0742 16.1918C20.5424 15.7236 21.5244 15.7578 22.1182 14.2848C22.7005 12.8118 22.495 12.0125 21.7984 10.8478C21.5701 10.3339 21.3988 9.0436 22.9289 8.16435ZM19.6289 13.4398L19.1721 14.125L19.0351 13.3028L18.3271 13.1429L18.9438 12.7661V11.9668L19.5033 12.5263L20.2112 12.1952L19.8344 12.9374L20.4054 13.5312L19.6289 13.4398Z" fill="white"/>
<path d="M27.8047 14.5247C24.8244 13.8396 20.8278 14.8787 20.0627 19.8459C20.0627 19.8459 21.1247 16.2033 25.6808 16.8884C25.6808 16.8884 25.8064 16.9113 25.7265 17.0825C25.7265 17.0825 21.5929 16.1348 20.1998 19.9487C20.1998 19.9487 21.3987 17.8134 23.9794 19.1379C24.5617 19.4348 24.8358 20.3826 26.423 20.4853C27.9988 20.5881 28.7068 20.1428 29.5974 19.1265C30.0085 18.7497 31.1846 18.1788 32.4978 19.3549C32.258 17.9961 30.7964 15.2099 27.8047 14.5247ZM26.9825 17.9047L26.5943 18.6241L26.4458 17.8476L25.6579 17.6307L26.4002 17.2424L26.3317 16.523L26.8798 16.9912L27.6334 16.74L27.2794 17.448L27.8161 18.0189L26.9825 17.9047Z" fill="white"/>
<path d="M20.4967 20.2568C20.4967 20.2568 24.2877 20.1427 25.0413 24.6873C25.0413 24.6873 25.0642 24.8244 24.8701 24.7901C24.8701 24.7901 24.5047 20.5766 20.4396 20.4167C20.4396 20.4167 22.8375 20.8963 22.3808 23.7624C22.278 24.4133 21.4558 24.9614 21.8441 26.5029C22.2323 28.0444 22.8832 28.5583 24.1164 29.095C24.6074 29.369 25.5095 30.3168 24.7901 31.9268C26.0234 31.276 28.2158 29.0265 27.9417 25.9776C27.6677 22.9288 25.4524 19.4461 20.4967 20.2568ZM24.9843 26.3773L24.6074 27.0624L24.4704 26.2403L23.6597 26.1033L24.3562 25.7264L24.322 24.8929L24.9157 25.4866L25.578 25.2012L25.2926 25.8635L25.7607 26.5029L24.9843 26.3773Z" fill="white"/>
<path d="M20.2341 20.7822C20.2341 20.7822 21.513 24.3562 17.4137 26.4687C17.4137 26.4687 17.2995 26.5258 17.2653 26.3317C17.2653 26.3317 21.1705 24.6874 20.0629 20.7708C20.0629 20.7708 20.3483 23.203 17.4822 23.6483C16.8313 23.7511 16.0549 23.1344 14.7074 23.9794C13.36 24.813 13.0631 25.6009 12.9375 26.9369C12.8233 27.485 12.2067 28.6383 10.4482 28.4442C11.4417 29.4148 14.2621 30.8079 17.0711 29.6203C19.903 28.4328 22.5407 25.2583 20.2341 20.7822ZM16.386 27.0739L15.9178 27.7134L15.7922 26.9369L15.0272 26.7884L15.7694 26.4002L15.6552 25.5895L16.2261 26.1262L16.9912 25.8407L16.6144 26.5829L17.094 27.131L16.386 27.0739Z" fill="white"/>
<path d="M13.3713 19.8457C13.3713 19.8457 13.28 19.7544 13.4513 19.663C13.4513 19.663 16.2489 22.8375 19.6174 20.5537C19.6174 20.5537 17.4022 21.5928 16.0662 19.0122C15.7579 18.4298 16.089 17.4935 14.8672 16.4886C13.6454 15.4838 12.8118 15.4495 11.4987 15.7464C10.9391 15.8149 9.64882 15.598 9.272 13.8623C8.6668 15.1184 8.23289 18.2243 10.2654 20.5195C12.298 22.8146 16.1461 24.2991 19.6517 20.7022C19.6631 20.7022 16.6714 23.0544 13.3713 19.8457ZM12.6291 19.7544L12.4578 19.0464L11.7042 18.8066L12.4122 18.4412L12.3094 17.6648L12.9032 18.2471L13.634 17.8817L13.3028 18.6011L13.8281 19.2406L12.9945 19.1264L12.6291 19.7544Z" fill="white"/>
</g>
<defs>
<clipPath id="clip0_1181_5637">
<rect width="40" height="40.0114" fill="white"/>
</clipPath>
</defs>
</svg>
