<svg width="47" height="40" viewBox="0 0 47 40" fill="none" xmlns="http://www.w3.org/2000/svg">
<g clip-path="url(#clip0_2902_10260)">
<path d="M37.8927 11.7155L33.4126 4.36909C33.2745 4.14157 33.0239 4 32.7529 4H13.2422C12.9711 4 12.7256 4.14157 12.5824 4.36909L8.10748 11.7155C7.92848 12.0138 7.97451 12.3931 8.21999 12.6408L22.4529 26.7725C22.5961 26.914 22.7904 26.9949 22.995 26.9949C23.1995 26.9949 23.3939 26.914 23.5371 26.7725L37.7699 12.6408C38.0205 12.3931 38.0666 12.0138 37.8825 11.7155H37.8927ZM21.338 6.23983L17.8705 11.1847L14.3213 5.51682H21.8494L21.3431 6.23983H21.338ZM17.487 12.6105L21.5323 23.7085L10.3577 12.6105H17.487V12.6105ZM9.96905 11.5993L13.4007 5.97186L16.9295 11.6043H9.96905V11.5993ZM20.5299 9.16223L22.995 5.64322L25.46 9.16223L27.1682 11.5993H18.8218L20.5299 9.16223ZM24.1508 5.51682H31.6789L28.1296 11.1847L24.6622 6.23983L24.1559 5.51682H24.1508ZM27.4239 12.6105L23.0001 24.745L18.5763 12.6105H27.429H27.4239ZM29.0707 11.5993L32.5995 5.96681L36.0311 11.5993H29.0758H29.0707ZM35.6373 12.6105L24.4627 23.7085L28.5081 12.6105H35.6373Z" fill="#454545"/>
</g>
<path d="M9.72234 33.5022L9.73019 33.4944L9.68802 33.4723C9.491 33.3691 9.24908 33.3232 8.98231 33.3232H7.57617H7.54117V33.3582V35.4628V35.4978H7.57617H8.93695C9.40269 35.4978 9.75734 35.4068 9.97529 35.2267L9.97541 35.2266C10.2021 35.0377 10.3055 34.7915 10.3055 34.4831C10.3055 34.2591 10.2494 34.0625 10.1466 33.8849L10.1466 33.8849L10.1454 33.8831C10.0417 33.7275 9.90554 33.5954 9.72234 33.5022Z" fill="#454545" stroke="#454545" stroke-width="0.07"/>
<path d="M7.57617 30.2389H7.54117V30.2739V32.2335V32.2685H7.57617H8.81902C9.04922 32.2685 9.26339 32.2317 9.44182 32.1471L9.44274 32.1491L9.45158 32.1403L9.45615 32.1357C9.63978 32.0519 9.788 31.9313 9.89072 31.7821C10.0052 31.6292 10.0515 31.4398 10.0515 31.2265C10.0515 30.927 9.94797 30.6899 9.73065 30.5103C9.5227 30.3308 9.22328 30.2389 8.84623 30.2389H7.57617Z" fill="#454545" stroke="#454545" stroke-width="0.07"/>
<path d="M40.4384 30.6099L40.448 30.6003L40.4053 30.5784C40.0635 30.4029 39.6405 30.3114 39.1374 30.3114H38.0669H38.0319V30.3464V35.3995V35.4345H38.0669H39.1283C39.6316 35.4345 40.0454 35.3429 40.3959 35.1677L40.3959 35.1677L40.3965 35.1674C40.7483 34.9822 41.0077 34.7041 41.1742 34.3252C41.3492 33.9473 41.4403 33.4612 41.4403 32.8684C41.4403 32.2754 41.3491 31.7982 41.174 31.4203C41.0059 31.0576 40.7608 30.7869 40.4384 30.6099ZM40.301 33.9051L40.2995 33.9036L40.2942 33.9148C40.2058 34.1004 40.1017 34.2205 39.9473 34.2977L39.9473 34.2977L39.9462 34.2983C39.7538 34.4032 39.4792 34.4573 39.1374 34.4573H39.0182V31.2886H39.1464C39.488 31.2886 39.763 31.3426 39.9648 31.4479C40.1115 31.5256 40.2242 31.6464 40.3029 31.8214L40.3029 31.8214L40.3031 31.8217C40.4179 32.0689 40.4722 32.4258 40.4722 32.8593C40.4722 33.2888 40.41 33.6617 40.3055 33.9006L40.301 33.9051Z" fill="#454545" stroke="#454545" stroke-width="0.07"/>
<mask id="path-5-outside-1_2902_10260" maskUnits="userSpaceOnUse" x="4" y="26.9968" width="41" height="11" fill="black">
<rect fill="white" x="4" y="26.9968" width="41" height="11"/>
<path d="M43.4103 30.3192C43.0202 29.5753 42.4487 28.9947 41.7139 28.5865C41.0063 28.1964 40.1717 27.9968 39.2191 27.9968H32.4334V31.0722L30.6099 28.396L30.3378 28.0059H27.4801V34.1838L25.5659 28.6137L25.3573 28.0059H21.91L21.7013 28.6137L19.4515 35.1182L18.8709 34.0659C19.1158 33.8573 19.3336 33.6032 19.4969 33.322C19.8053 32.7958 19.9686 32.188 19.9686 31.4986C19.9686 30.8091 19.8144 30.2013 19.5059 29.6751C19.1975 29.1308 18.7439 28.7135 18.1542 28.4141C17.6099 28.142 16.9567 27.9968 16.2219 27.9968H12.194V29.4393C12.194 29.4393 12.1759 29.412 12.1759 29.3939C11.8856 28.9403 11.4592 28.5865 10.9058 28.3325C10.3978 28.1057 9.78995 27.9968 9.08234 27.9968H5V37.74H9.291C10.0167 37.74 10.6518 37.613 11.1779 37.3681C11.5862 37.1776 11.9309 36.9236 12.2031 36.6151V37.74H15.6957V35.3632L16.7118 37.2592L16.9658 37.74H22.2819L22.4815 37.1141L22.8625 35.9347H24.4047L24.7858 37.1141L24.9853 37.74H30.9728V34.6737L32.8234 37.3499L33.0956 37.74H39.21C40.1626 37.74 41.0063 37.5404 41.723 37.1504C42.4578 36.7512 43.0293 36.1615 43.4285 35.4085C43.8095 34.6919 44 33.83 44 32.8594C44 31.8887 43.8095 31.0359 43.4285 30.3192H43.4103ZM11.7041 35.7714C11.4955 36.098 11.1961 36.3611 10.7879 36.5516C10.3796 36.7421 9.88067 36.8419 9.291 36.8419H5.90719V28.9131H9.07327C9.65387 28.9131 10.1438 29.0038 10.5338 29.1762C10.9239 29.3485 11.2142 29.5844 11.4138 29.8928C11.6134 30.2013 11.7041 30.546 11.7041 30.9452C11.7041 31.2536 11.6406 31.5258 11.5227 31.7617C11.3957 31.9975 11.2324 32.188 11.0147 32.3332C10.7969 32.4783 10.552 32.5872 10.2798 32.6507V32.7323C10.5792 32.7414 10.8604 32.8321 11.1235 32.9864C11.3866 33.1406 11.6043 33.3674 11.7676 33.6486C11.9309 33.9298 12.0126 34.2655 12.0126 34.6556C12.0126 35.0729 11.9037 35.4539 11.695 35.7805L11.7041 35.7714ZM12.2031 32.7323C12.1577 32.6779 12.1305 32.6144 12.0761 32.5691C12.1214 32.5055 12.1577 32.442 12.2031 32.3785V32.7323ZM18.8618 36.8328H17.501L16.0042 34.0296H14.7795V36.8328H13.1012V28.9131H16.2219C16.8207 28.9131 17.3287 29.0219 17.7551 29.2306C18.1814 29.4393 18.508 29.7386 18.7258 30.1287C18.9525 30.5188 19.0614 30.9724 19.0614 31.4895C19.0614 32.0066 18.9525 32.4693 18.7167 32.8503C18.4899 33.2222 18.1633 33.5125 17.7278 33.7121C17.7006 33.7212 17.6734 33.7303 17.6553 33.7393L19.0433 36.2794L19.3426 36.8238H18.8528L18.8618 36.8328ZM25.6476 36.8328L25.0579 35.0275H22.2003L21.6106 36.8328H19.8144L20.0321 36.1978L22.5541 28.9131H24.7132L27.4438 36.8328H25.6476V36.8328ZM35.0188 36.8328H33.5764L30.1291 31.8524H30.0747V36.8328H28.4054V28.9131H29.866L33.2861 33.8935H33.3587V28.9131H35.0279V36.8328H35.0188ZM42.612 34.9912C42.3036 35.5809 41.859 36.0345 41.2784 36.352C40.6978 36.6695 40.0084 36.8238 39.21 36.8238H36.4068V28.9131H39.2373C40.0356 28.9131 40.716 29.0673 41.2966 29.3848C41.8681 29.7023 42.3126 30.1559 42.6211 30.7456C42.9295 31.3353 43.0928 32.0429 43.0928 32.8684C43.0928 33.694 42.9386 34.4016 42.6211 34.9912H42.612Z"/>
</mask>
<path d="M43.4103 30.3192C43.0202 29.5753 42.4487 28.9947 41.7139 28.5865C41.0063 28.1964 40.1717 27.9968 39.2191 27.9968H32.4334V31.0722L30.6099 28.396L30.3378 28.0059H27.4801V34.1838L25.5659 28.6137L25.3573 28.0059H21.91L21.7013 28.6137L19.4515 35.1182L18.8709 34.0659C19.1158 33.8573 19.3336 33.6032 19.4969 33.322C19.8053 32.7958 19.9686 32.188 19.9686 31.4986C19.9686 30.8091 19.8144 30.2013 19.5059 29.6751C19.1975 29.1308 18.7439 28.7135 18.1542 28.4141C17.6099 28.142 16.9567 27.9968 16.2219 27.9968H12.194V29.4393C12.194 29.4393 12.1759 29.412 12.1759 29.3939C11.8856 28.9403 11.4592 28.5865 10.9058 28.3325C10.3978 28.1057 9.78995 27.9968 9.08234 27.9968H5V37.74H9.291C10.0167 37.74 10.6518 37.613 11.1779 37.3681C11.5862 37.1776 11.9309 36.9236 12.2031 36.6151V37.74H15.6957V35.3632L16.7118 37.2592L16.9658 37.74H22.2819L22.4815 37.1141L22.8625 35.9347H24.4047L24.7858 37.1141L24.9853 37.74H30.9728V34.6737L32.8234 37.3499L33.0956 37.74H39.21C40.1626 37.74 41.0063 37.5404 41.723 37.1504C42.4578 36.7512 43.0293 36.1615 43.4285 35.4085C43.8095 34.6919 44 33.83 44 32.8594C44 31.8887 43.8095 31.0359 43.4285 30.3192H43.4103ZM11.7041 35.7714C11.4955 36.098 11.1961 36.3611 10.7879 36.5516C10.3796 36.7421 9.88067 36.8419 9.291 36.8419H5.90719V28.9131H9.07327C9.65387 28.9131 10.1438 29.0038 10.5338 29.1762C10.9239 29.3485 11.2142 29.5844 11.4138 29.8928C11.6134 30.2013 11.7041 30.546 11.7041 30.9452C11.7041 31.2536 11.6406 31.5258 11.5227 31.7617C11.3957 31.9975 11.2324 32.188 11.0147 32.3332C10.7969 32.4783 10.552 32.5872 10.2798 32.6507V32.7323C10.5792 32.7414 10.8604 32.8321 11.1235 32.9864C11.3866 33.1406 11.6043 33.3674 11.7676 33.6486C11.9309 33.9298 12.0126 34.2655 12.0126 34.6556C12.0126 35.0729 11.9037 35.4539 11.695 35.7805L11.7041 35.7714ZM12.2031 32.7323C12.1577 32.6779 12.1305 32.6144 12.0761 32.5691C12.1214 32.5055 12.1577 32.442 12.2031 32.3785V32.7323ZM18.8618 36.8328H17.501L16.0042 34.0296H14.7795V36.8328H13.1012V28.9131H16.2219C16.8207 28.9131 17.3287 29.0219 17.7551 29.2306C18.1814 29.4393 18.508 29.7386 18.7258 30.1287C18.9525 30.5188 19.0614 30.9724 19.0614 31.4895C19.0614 32.0066 18.9525 32.4693 18.7167 32.8503C18.4899 33.2222 18.1633 33.5125 17.7278 33.7121C17.7006 33.7212 17.6734 33.7303 17.6553 33.7393L19.0433 36.2794L19.3426 36.8238H18.8528L18.8618 36.8328ZM25.6476 36.8328L25.0579 35.0275H22.2003L21.6106 36.8328H19.8144L20.0321 36.1978L22.5541 28.9131H24.7132L27.4438 36.8328H25.6476V36.8328ZM35.0188 36.8328H33.5764L30.1291 31.8524H30.0747V36.8328H28.4054V28.9131H29.866L33.2861 33.8935H33.3587V28.9131H35.0279V36.8328H35.0188ZM42.612 34.9912C42.3036 35.5809 41.859 36.0345 41.2784 36.352C40.6978 36.6695 40.0084 36.8238 39.21 36.8238H36.4068V28.9131H39.2373C40.0356 28.9131 40.716 29.0673 41.2966 29.3848C41.8681 29.7023 42.3126 30.1559 42.6211 30.7456C42.9295 31.3353 43.0928 32.0429 43.0928 32.8684C43.0928 33.694 42.9386 34.4016 42.6211 34.9912H42.612Z" fill="#454545"/>
<path d="M43.4103 30.3192C43.0202 29.5753 42.4487 28.9947 41.7139 28.5865C41.0063 28.1964 40.1717 27.9968 39.2191 27.9968H32.4334V31.0722L30.6099 28.396L30.3378 28.0059H27.4801V34.1838L25.5659 28.6137L25.3573 28.0059H21.91L21.7013 28.6137L19.4515 35.1182L18.8709 34.0659C19.1158 33.8573 19.3336 33.6032 19.4969 33.322C19.8053 32.7958 19.9686 32.188 19.9686 31.4986C19.9686 30.8091 19.8144 30.2013 19.5059 29.6751C19.1975 29.1308 18.7439 28.7135 18.1542 28.4141C17.6099 28.142 16.9567 27.9968 16.2219 27.9968H12.194V29.4393C12.194 29.4393 12.1759 29.412 12.1759 29.3939C11.8856 28.9403 11.4592 28.5865 10.9058 28.3325C10.3978 28.1057 9.78995 27.9968 9.08234 27.9968H5V37.74H9.291C10.0167 37.74 10.6518 37.613 11.1779 37.3681C11.5862 37.1776 11.9309 36.9236 12.2031 36.6151V37.74H15.6957V35.3632L16.7118 37.2592L16.9658 37.74H22.2819L22.4815 37.1141L22.8625 35.9347H24.4047L24.7858 37.1141L24.9853 37.74H30.9728V34.6737L32.8234 37.3499L33.0956 37.74H39.21C40.1626 37.74 41.0063 37.5404 41.723 37.1504C42.4578 36.7512 43.0293 36.1615 43.4285 35.4085C43.8095 34.6919 44 33.83 44 32.8594C44 31.8887 43.8095 31.0359 43.4285 30.3192H43.4103ZM11.7041 35.7714C11.4955 36.098 11.1961 36.3611 10.7879 36.5516C10.3796 36.7421 9.88067 36.8419 9.291 36.8419H5.90719V28.9131H9.07327C9.65387 28.9131 10.1438 29.0038 10.5338 29.1762C10.9239 29.3485 11.2142 29.5844 11.4138 29.8928C11.6134 30.2013 11.7041 30.546 11.7041 30.9452C11.7041 31.2536 11.6406 31.5258 11.5227 31.7617C11.3957 31.9975 11.2324 32.188 11.0147 32.3332C10.7969 32.4783 10.552 32.5872 10.2798 32.6507V32.7323C10.5792 32.7414 10.8604 32.8321 11.1235 32.9864C11.3866 33.1406 11.6043 33.3674 11.7676 33.6486C11.9309 33.9298 12.0126 34.2655 12.0126 34.6556C12.0126 35.0729 11.9037 35.4539 11.695 35.7805L11.7041 35.7714ZM12.2031 32.7323C12.1577 32.6779 12.1305 32.6144 12.0761 32.5691C12.1214 32.5055 12.1577 32.442 12.2031 32.3785V32.7323ZM18.8618 36.8328H17.501L16.0042 34.0296H14.7795V36.8328H13.1012V28.9131H16.2219C16.8207 28.9131 17.3287 29.0219 17.7551 29.2306C18.1814 29.4393 18.508 29.7386 18.7258 30.1287C18.9525 30.5188 19.0614 30.9724 19.0614 31.4895C19.0614 32.0066 18.9525 32.4693 18.7167 32.8503C18.4899 33.2222 18.1633 33.5125 17.7278 33.7121C17.7006 33.7212 17.6734 33.7303 17.6553 33.7393L19.0433 36.2794L19.3426 36.8238H18.8528L18.8618 36.8328ZM25.6476 36.8328L25.0579 35.0275H22.2003L21.6106 36.8328H19.8144L20.0321 36.1978L22.5541 28.9131H24.7132L27.4438 36.8328H25.6476V36.8328ZM35.0188 36.8328H33.5764L30.1291 31.8524H30.0747V36.8328H28.4054V28.9131H29.866L33.2861 33.8935H33.3587V28.9131H35.0279V36.8328H35.0188ZM42.612 34.9912C42.3036 35.5809 41.859 36.0345 41.2784 36.352C40.6978 36.6695 40.0084 36.8238 39.21 36.8238H36.4068V28.9131H39.2373C40.0356 28.9131 40.716 29.0673 41.2966 29.3848C41.8681 29.7023 42.3126 30.1559 42.6211 30.7456C42.9295 31.3353 43.0928 32.0429 43.0928 32.8684C43.0928 33.694 42.9386 34.4016 42.6211 34.9912H42.612Z" stroke="#454545" stroke-width="0.14" mask="url(#path-5-outside-1_2902_10260)"/>
<path d="M16.7366 30.4034L16.7381 30.4019L16.7269 30.3965C16.5117 30.2936 16.2338 30.248 15.9135 30.248H14.7886H14.7536V30.283V32.6779V32.7129H14.7886H15.9226C16.2434 32.7129 16.5107 32.6671 16.7332 32.5837L16.7332 32.5837L16.7348 32.583C16.948 32.4904 17.118 32.3593 17.2226 32.179C17.336 31.999 17.3818 31.7741 17.3818 31.5077C17.3818 31.2396 17.3263 31.0159 17.2233 30.8285C17.1201 30.6409 16.9524 30.501 16.741 30.4078L16.7366 30.4034Z" fill="#454545" stroke="#454545" stroke-width="0.07"/>
<path d="M23.5974 30.6835H23.5719L23.5641 30.7077L22.5934 33.7105L22.5786 33.7563H22.6267H24.6316H24.6797L24.6649 33.7105L23.6942 30.7077L23.6864 30.6835H23.6609H23.5974Z" fill="#454545" stroke="#454545" stroke-width="0.07"/>
<defs>
<clipPath id="clip0_2902_10260">
<rect width="30" height="23" fill="white" transform="translate(8 4)"/>
</clipPath>
</defs>
</svg>
