<svg width="45" height="45" viewBox="0 0 45 45" fill="none" xmlns="http://www.w3.org/2000/svg">
<mask id="mask0_3184_10385" style="mask-type:alpha" maskUnits="userSpaceOnUse" x="7" y="5" width="31" height="26">
<rect x="7" y="5" width="31" height="26" fill="#D9D9D9"/>
</mask>
<g mask="url(#mask0_3184_10385)">
<path d="M26.3042 22.9381C26.5119 22.9381 26.7111 22.8556 26.858 22.7087C27.0049 22.5618 27.0874 22.3626 27.0874 22.1549V18.7746C27.0852 18.6179 27.0372 18.4653 26.9492 18.3355C26.8613 18.2058 26.7372 18.1047 26.5924 18.0447C26.5004 18.0093 26.4027 17.9913 26.3042 17.9915C26.0972 17.9939 25.8994 18.0772 25.7531 18.2235C25.6067 18.3699 25.5234 18.5677 25.521 18.7746V22.1549C25.521 22.3626 25.6035 22.5618 25.7504 22.7087C25.8972 22.8556 26.0965 22.9381 26.3042 22.9381Z" fill="#454545"/>
<path d="M21.9903 24.398C23.162 24.398 24.011 23.8091 24.011 22.9945C24.0105 22.8089 23.9442 22.6294 23.8237 22.4881C23.7032 22.3468 23.5364 22.253 23.3532 22.2232C23.1699 22.1935 22.982 22.2299 22.8231 22.3258C22.6641 22.4218 22.5444 22.571 22.4853 22.7471C22.3272 22.8066 22.1592 22.8353 21.9903 22.8316C21.8204 22.8349 21.6515 22.8062 21.4922 22.7471C21.4331 22.571 21.3134 22.4218 21.1545 22.3258C20.9955 22.2299 20.8076 22.1935 20.6243 22.2232C20.441 22.253 20.2743 22.3468 20.1538 22.4881C20.0333 22.6294 19.967 22.8089 19.9666 22.9945C19.9666 23.8091 20.8187 24.398 21.9903 24.398Z" fill="#454545"/>
<path d="M36.6422 19.2446C36.6416 18.9543 36.6069 18.6652 36.5388 18.3831C36.5106 18.2671 36.4761 18.1544 36.4385 18.0416C36.2578 17.5214 35.9631 17.0481 35.5762 16.6562C35.1892 16.2644 34.7196 15.9639 34.2017 15.7766C34.2926 14.4796 33.9636 11.3438 29.4744 8.25799C28.1827 7.47944 26.7888 6.88475 25.3329 6.4911C22.1406 5.6202 19.1864 5.91155 16.7773 7.33382C15.9628 7.60637 11.2167 9.45783 9.75371 15.692C9.17182 15.8488 8.63704 16.1455 8.19589 16.556C7.75475 16.9666 7.42056 17.4787 7.22241 18.0479C7.18482 18.1606 7.15351 18.2734 7.12532 18.3893C7.04883 18.6682 7.00674 18.9554 7 19.2446C7.00067 19.9668 7.21286 20.6729 7.61038 21.2759C8.00789 21.8788 8.5733 22.3521 9.23679 22.6374C9.1992 29.0188 10.0388 32.6152 16.3294 33.602C18.0914 33.8757 19.8719 34.014 21.6551 34.0155C25.6399 34.0155 29.6185 33.3107 31.9649 31.5406C32.5707 31.1168 33.0816 30.5714 33.4651 29.9393C33.8486 29.3072 34.0963 28.6021 34.1924 27.8691C34.255 27.3459 34.3145 26.8885 34.3678 26.4781C34.609 24.5828 34.7186 23.6837 34.681 22.4901C35.2708 22.1769 35.7646 21.7097 36.1099 21.1382C36.4552 20.5667 36.6392 19.9123 36.6422 19.2446ZM17.2786 22.935C17.4863 22.935 17.6855 22.8525 17.8324 22.7056C17.9793 22.5587 18.0618 22.3595 18.0618 22.1518V19.2446L18.5379 18.9877C18.8951 18.7935 19.2554 18.5992 19.6094 18.3956C19.8005 18.2859 19.9916 18.1732 20.1764 18.0541C21.2071 17.4056 22.1312 16.635 22.6826 15.526C22.8586 15.1803 23.0553 14.8455 23.2715 14.5235C24.3022 15.7046 26.6267 17.4746 31.2162 17.2271C31.235 17.5047 31.2705 17.7809 31.3227 18.0541V18.0729C31.3227 18.1387 31.3478 18.2045 31.3572 18.2672V19.0848C31.3582 21.1209 30.6962 23.102 29.4713 24.7284C28.2464 26.3548 26.5252 27.5382 24.568 28.0995C22.6108 28.6608 20.5241 28.5696 18.6234 27.8396C16.7226 27.1096 15.1113 25.7805 14.033 24.0533C14.2241 22.1737 15.1922 21.0647 16.486 20.1781V22.1643C16.4872 22.2672 16.5087 22.3688 16.5492 22.4633C16.5897 22.5579 16.6484 22.6435 16.722 22.7154C16.7956 22.7872 16.8826 22.8439 16.9781 22.8821C17.0736 22.9203 17.1757 22.9393 17.2786 22.9381V22.935ZM32.651 15.4978C27.1938 16.2904 24.9695 14.1852 24.2709 13.2547C25.6131 11.8362 27.1981 10.6692 28.9512 9.8087C32.3221 12.2648 32.6886 14.5454 32.651 15.5009V15.4978ZM8.56638 19.2446C8.56586 18.9475 8.62887 18.6538 8.7512 18.3831C8.80374 18.2633 8.86773 18.149 8.94229 18.0416C9.13819 17.7589 9.39939 17.5275 9.70369 17.3672C10.008 17.2069 10.3464 17.1223 10.6904 17.1206C10.7625 17.1206 10.8188 17.1206 10.8627 17.1206C10.8627 17.2866 10.8063 17.5654 10.7687 17.7784C10.7687 17.8599 10.7374 17.9445 10.7249 18.0322C10.7123 18.1199 10.6872 18.2546 10.6716 18.3737C10.6297 18.6589 10.6077 18.9468 10.6058 19.2352C10.6166 19.7257 10.6712 20.2142 10.7687 20.695C10.7875 20.811 10.8126 20.9425 10.8314 21.0678C10.8502 21.1931 10.8595 21.2746 10.8627 21.3529H10.6904C10.13 21.3521 9.59259 21.1302 9.19488 20.7354C8.79718 20.3407 8.57133 19.8049 8.56638 19.2446ZM32.8296 26.2808C32.7763 26.6911 32.7168 27.1516 32.6542 27.6748C32.5832 28.1998 32.4026 28.704 32.1241 29.1547C31.8456 29.6053 31.4754 29.9924 31.0376 30.2907C27.9957 32.5839 21.4044 32.8125 16.5706 32.0544C11.6866 31.29 10.8063 29.213 10.8094 22.935C11.0499 22.9416 11.289 22.8976 11.5114 22.8058C11.7337 22.7141 11.9343 22.5766 12.1001 22.4024C12.5607 21.851 12.4353 21.1274 12.31 20.4288C12.2287 20.039 12.1826 19.6426 12.1722 19.2446C12.1766 18.9556 12.2049 18.6674 12.2568 18.3831C12.2568 18.2734 12.2912 18.1669 12.31 18.0698V18.051C12.4322 17.3587 12.5544 16.6444 12.097 16.0993C11.9017 15.8734 11.6412 15.7136 11.3514 15.6419C12.8081 10.1439 17.0781 8.86888 17.288 8.80935C17.3583 8.7904 17.4258 8.76194 17.4885 8.72476C21.0849 6.55063 25.264 7.94784 27.3222 8.90333C25.6211 9.86196 22.8016 11.8105 21.2885 14.8211C20.662 16.0554 19.271 16.8073 17.7923 17.6061C17.5229 17.7502 17.2472 17.8975 16.9716 18.051C16.7773 18.1606 16.58 18.2734 16.3857 18.3925C14.4873 19.5328 12.6797 21.096 12.4698 24.1724C12.4698 24.2069 12.4698 24.2413 12.4698 24.2726C12.4224 25.5206 12.5672 26.7684 12.899 27.9724C12.941 28.1417 13.0385 28.2919 13.1759 28.3992C13.3133 28.5066 13.4827 28.5648 13.6571 28.5645C13.7216 28.5639 13.7858 28.5555 13.8482 28.5395C14.047 28.4884 14.2178 28.3613 14.3239 28.1855C14.4299 28.0097 14.4628 27.7993 14.4153 27.5996C14.3463 27.3239 14.2868 27.0577 14.2367 26.8008C15.5318 28.1076 17.1358 29.0664 18.9001 29.5882C20.6644 30.1101 22.5319 30.1781 24.3295 29.786C26.1271 29.394 27.7966 28.5545 29.1834 27.3453C30.5702 26.1362 31.6293 24.5966 32.2626 22.8692C32.4881 22.9306 32.7212 22.9601 32.9549 22.9569C33.0207 22.9569 33.0833 22.9569 33.146 22.9569C33.1075 24.0712 33.0018 25.1822 32.8296 26.2839V26.2808ZM34.5871 20.6011C34.4015 20.8245 34.172 21.0074 33.9128 21.1383C33.6535 21.2693 33.3702 21.3455 33.0802 21.3623H32.9518H32.7826C32.8018 21.1415 32.8332 20.9218 32.8766 20.7044C32.9079 20.529 32.9392 20.3316 32.9674 20.1249C33.0122 19.8336 33.0352 19.5393 33.0364 19.2446C33.0345 18.9562 33.0125 18.6684 32.9706 18.3831C32.9706 18.2953 32.9455 18.2076 32.933 18.1262V17.1206H32.9518C33.4376 17.121 33.9087 17.2879 34.2863 17.5936C34.4455 17.7227 34.5857 17.8735 34.703 18.0416C34.7754 18.1498 34.8383 18.264 34.891 18.3831C35.0513 18.7451 35.1069 19.1448 35.0516 19.5369C34.9962 19.9289 34.832 20.2976 34.5777 20.6011H34.5871Z" fill="#454545"/>
</g>
<path d="M34.3102 32.6174C33.9935 32.2661 33.6627 31.9368 33.3389 31.644L32.621 31L31.9945 31.6075H31.9875L31.2766 32.2881L30.8472 32.6979L30.6853 32.8516H25.1601V33.4298L24.4703 32.8516L23.4778 32.0319L22.6825 31.3659L22.0209 32.171C21.6337 32.6394 21.324 33.0053 21.0847 33.2542C20.2471 34.1324 19.311 34.8789 18.2974 35.4644C17.9174 35.684 17.4176 35.9255 16.8123 36.1816L17.0587 35.5742L16.5026 35.0546L15.841 34.4398L15.7917 34.3959V32.2369H9.09098V34.2275H8.26747V37.4844H12.1668C11.8642 37.7259 11.5193 37.9308 11.1251 38.0845C10.8014 38.2089 10.3298 38.326 9.71741 38.4212L8 38.6919L9.02059 40.1557C9.19656 40.4045 9.30918 40.668 9.37252 40.9534L9.6048 42.0073L10.6254 41.7878C11.7656 41.5389 12.7792 41.1364 13.6379 40.5948C14.3277 40.1557 14.933 39.5629 15.4468 38.831C15.6791 38.5017 15.8973 38.1284 16.1084 37.7186L16.2985 37.9528C16.4956 38.1943 16.6575 38.4578 16.7701 38.7285L17.1924 39.7092L18.1426 39.2921C18.6283 39.0798 19.1069 38.8383 19.5785 38.5675V41.6487H22.8796V36.1231C23.4356 35.5961 23.9917 35.0546 24.5336 34.5057L25.153 33.8836V36.1524H29.4536C29.0102 36.9208 28.426 37.499 27.6588 37.9088C27.4617 38.0186 27.2716 38.1065 27.0957 38.165C26.9056 38.2382 26.6171 38.3187 26.251 38.4138L24.6603 38.8164L25.6668 40.1557C25.8498 40.4045 25.9977 40.6753 26.0962 40.9681L26.434 41.9854L27.4194 41.656C28.5315 41.2828 29.5099 40.7778 30.3264 40.1484C30.9599 39.6653 31.5159 39.0213 31.9804 38.2528C32.269 37.7698 32.5224 37.2941 32.7336 36.8403C32.9377 36.3939 33.177 35.8084 33.4304 35.0985L33.4726 34.9887L33.8527 34.5935L34.2821 34.147L35.007 33.3932L34.3102 32.6174ZM10.1468 33.3347H14.7359V34.3959H10.1468V33.3347ZM14.5952 38.1796C14.1588 38.8017 13.659 39.2921 13.0889 39.658C12.3358 40.1337 11.4419 40.485 10.4142 40.7119C10.3227 40.2801 10.1468 39.8776 9.88634 39.5116C10.5761 39.4019 11.1181 39.2701 11.5123 39.1164C12.4554 38.7359 13.2015 38.143 13.7576 37.3307C13.9054 37.1111 14.0813 36.8037 14.2714 36.3939H9.32325V35.3327H14.9612L15.123 35.2668L15.7847 35.8816C15.658 36.2036 15.5242 36.5037 15.3835 36.7891H15.3553L15.3694 36.8184C15.123 37.338 14.8626 37.7991 14.5881 38.1943L14.5952 38.1796ZM21.8308 35.6327V40.5363H20.6413V36.5622C19.7122 37.2648 18.7409 37.8357 17.7414 38.2748C17.5865 37.9088 17.3754 37.5722 17.115 37.2428C17.8047 36.9574 18.3749 36.6793 18.8113 36.4305C19.9163 35.7864 20.9228 34.9887 21.8379 34.0299C22.0912 33.7591 22.4221 33.3786 22.8233 32.8882L23.8157 33.7079C23.1611 34.3666 22.4995 35.0033 21.8379 35.6254L21.8308 35.6327ZM31.7904 36.3573C31.5933 36.7818 31.3681 37.2136 31.0936 37.66C30.6994 38.3187 30.2419 38.8456 29.707 39.2555C28.982 39.8117 28.1163 40.2655 27.1027 40.6021C26.9619 40.1923 26.7649 39.8117 26.5115 39.4677C26.9127 39.3653 27.2294 39.2701 27.4546 39.1896C27.6799 39.1091 27.9121 38.9993 28.1515 38.8676C29.1932 38.3041 29.9956 37.4697 30.5446 36.3646C30.6924 36.0645 30.8684 35.6254 31.0654 35.0399H26.2159V33.9421H31.53L31.6285 33.8762L32.452 34.6959C32.2057 35.3766 31.9804 35.9255 31.7904 36.35V36.3573ZM32.4872 34.4325C32.1916 34.1031 31.8819 33.7957 31.5652 33.503L31.9945 33.0931L32.1423 33.2322L32.4591 33.5396L32.7758 33.847L32.9236 33.986L32.4943 34.4325H32.4872ZM33.1137 33.8177L32.9658 33.6786L32.6491 33.3713L32.3324 33.0639L32.1846 32.9248L32.6491 32.4784C32.9518 32.7492 33.2474 33.0419 33.543 33.3713L33.1137 33.8177Z" fill="#454545"/>
</svg>
