<svg width="47" height="40" viewBox="0 0 47 40" fill="none" xmlns="http://www.w3.org/2000/svg">
<path fill-rule="evenodd" clip-rule="evenodd" d="M14.0338 32.3872L13.318 32.2223C13.1443 32.1848 12.9809 32.1399 12.8279 32.0874C12.6749 32.0324 12.54 31.9687 12.4233 31.8963C12.3066 31.8213 12.2146 31.7326 12.1472 31.6302C12.0823 31.5277 12.0525 31.4078 12.0577 31.2704C12.0577 31.1055 12.107 30.958 12.2055 30.8281C12.3066 30.6982 12.4519 30.597 12.6412 30.5245C12.8305 30.4496 13.0626 30.4121 13.3375 30.4121C13.742 30.4121 14.0623 30.4958 14.2983 30.6632C14.5343 30.8306 14.6679 31.0655 14.699 31.3678H16.3133C16.3066 30.9756 16.2122 30.6238 16.0299 30.3124C15.9997 30.2608 15.9671 30.2104 15.9321 30.161C15.6857 29.8137 15.3408 29.5426 14.8974 29.3477C14.4565 29.1528 13.9404 29.0554 13.3492 29.0554C12.7683 29.0554 12.2496 29.1528 11.7932 29.3477C11.3367 29.5426 10.9776 29.8137 10.7156 30.161C10.4563 30.5083 10.3279 30.9143 10.3305 31.3791C10.3279 31.9462 10.5211 32.3972 10.9101 32.732C11.225 33.003 11.6324 33.2159 12.1324 33.3707C12.2502 33.4071 12.3731 33.4403 12.5011 33.4704L13.3686 33.6802C13.6591 33.7477 13.9041 33.8227 14.1038 33.9051C14.3061 33.9876 14.4591 34.0875 14.5628 34.2049C14.6691 34.3224 14.7223 34.4673 14.7223 34.6397C14.7223 34.8246 14.664 34.9882 14.5473 35.1307C14.4306 35.2731 14.2659 35.3843 14.0532 35.4642C13.8432 35.5442 13.5955 35.5841 13.3103 35.5841C13.0198 35.5841 12.7592 35.5417 12.5284 35.4567C12.3002 35.3693 12.1173 35.2406 11.9799 35.0707C11.845 34.8983 11.7685 34.6834 11.7504 34.4261H10.1205C10.1298 34.8239 10.2045 35.1757 10.3444 35.4814C10.3987 35.6001 10.4628 35.7118 10.5367 35.8165C10.8038 36.1888 11.1747 36.4699 11.6492 36.6598C12.1264 36.8497 12.6866 36.9446 13.3297 36.9446C13.978 36.9446 14.5317 36.8509 14.9907 36.6635C15.4523 36.4736 15.805 36.2075 16.0488 35.8652C16.2952 35.5204 16.4196 35.1132 16.4222 34.6434C16.4196 34.3236 16.3587 34.04 16.2394 33.7927C16.1227 33.5453 15.958 33.3304 15.7454 33.148C15.5327 32.9656 15.2812 32.812 14.9907 32.6871C14.7445 32.5812 14.4778 32.4932 14.1905 32.4232C14.139 32.4106 14.0867 32.3986 14.0338 32.3872ZM16.4598 37.0041C16.1581 37.2671 15.8069 37.4753 15.4209 37.6341L15.4181 37.6353C14.7899 37.8917 14.0828 38 13.3297 38C12.5772 38 11.8691 37.8891 11.2311 37.6352L11.2291 37.6345C10.5792 37.3744 10.0336 36.9713 9.63563 36.4166L9.63085 36.41C9.22385 35.8333 9.04204 35.1608 9.02534 34.4499L9 33.3707H10.0205C9.47906 32.8276 9.2328 32.1331 9.23511 31.3796C9.23239 30.7139 9.42109 30.0875 9.82643 29.5447L9.82946 29.5406C10.218 29.0255 10.7383 28.6438 11.3493 28.3828C11.9665 28.1193 12.6402 28 13.3492 28C14.0639 28 14.7413 28.1178 15.3531 28.388C15.7722 28.5724 16.146 28.8164 16.4598 29.124V28.1049H20.335V34.4425H22.3866C22.2762 33.9853 22.2247 33.5018 22.2247 32.9981C22.2247 32.0308 22.4136 31.1381 22.8449 30.3631C23.262 29.6135 23.8482 29.0153 24.6027 28.6029C25.3455 28.1943 26.1707 28 27.0506 28C27.9264 28 28.7484 28.1948 29.4898 28.6024C29.7721 28.7561 30.031 28.9357 30.2662 29.1394V28.1049H39V31.5537H36.561V37.8913H32.7053V31.5537H31.7142C31.8249 32.0109 31.8765 32.4944 31.8765 32.9981C31.8765 33.966 31.6861 34.8594 31.2516 35.6347C30.8338 36.3848 30.2462 36.9831 29.4905 37.3972L29.4891 37.398C28.7475 37.803 27.9259 37.9963 27.0506 37.9963C26.1701 37.9963 25.3443 37.8017 24.601 37.3925C24.2886 37.2205 24.005 37.0168 23.7503 36.7839V37.8913H16.4598V37.0041ZM23.7503 35.018C23.7697 35.0561 23.7896 35.0936 23.8103 35.1307C24.137 35.7178 24.5818 36.1663 25.1445 36.4761C25.7073 36.7859 26.3426 36.9409 27.0506 36.9409C27.7534 36.9409 28.3862 36.7872 28.9489 36.4799C29.5142 36.1701 29.9603 35.7216 30.2871 35.1344C30.6164 34.5472 30.7811 33.8351 30.7811 32.9981C30.7811 32.4662 30.7146 31.9847 30.5816 31.5537C30.5053 31.3065 30.4071 31.0759 30.2871 30.8619C30.2802 30.8495 30.2732 30.8372 30.2662 30.8249C29.9414 30.2559 29.5023 29.821 28.9489 29.5201C28.3862 29.2103 27.7534 29.0554 27.0506 29.0554C26.3426 29.0554 25.7073 29.2103 25.1445 29.5201C24.5818 29.8274 24.137 30.2747 23.8103 30.8619C23.4835 31.449 23.3201 32.1611 23.3201 32.9981C23.3201 33.5298 23.3864 34.0113 23.5191 34.4425C23.5815 34.6455 23.6586 34.8373 23.7503 35.018ZM28.8205 34.3698C28.9891 33.9976 29.0734 33.5403 29.0734 32.9981C29.0734 32.4559 28.9891 31.9987 28.8205 31.6264C28.6546 31.2541 28.4199 30.9718 28.1164 30.7794C27.813 30.587 27.4577 30.4908 27.0506 30.4908C26.6434 30.4908 26.2882 30.587 25.9847 30.7794C25.6813 30.9718 25.4453 31.2541 25.2768 31.6264C25.1108 31.9987 25.0278 32.4559 25.0278 32.9981C25.0278 33.5403 25.1108 33.9976 25.2768 34.3698C25.4453 34.7421 25.6813 35.0245 25.9847 35.2169C26.2882 35.4092 26.6434 35.5054 27.0506 35.5054C27.4577 35.5054 27.813 35.4092 28.1164 35.2169C28.4199 35.0245 28.6546 34.7421 28.8205 34.3698ZM26.2821 33.9506C26.3794 34.1644 26.4883 34.2727 26.5869 34.3352C26.6904 34.4009 26.8307 34.45 27.0506 34.45C27.2705 34.45 27.4108 34.4009 27.5142 34.3352C27.6116 34.2735 27.719 34.1665 27.814 33.9533L27.8165 33.9478C27.9082 33.7452 27.978 33.4412 27.978 32.9981C27.978 32.5551 27.9082 32.251 27.8165 32.0484L27.814 32.0429C27.719 31.8298 27.6116 31.7228 27.5142 31.661C27.4108 31.5954 27.2705 31.5462 27.0506 31.5462C26.8307 31.5462 26.6904 31.5954 26.5869 31.661C26.4883 31.7235 26.3794 31.8319 26.2821 32.0457C26.1916 32.2499 26.1232 32.5553 26.1232 32.9981C26.1232 33.4409 26.1916 33.7463 26.2821 33.9506ZM33.8007 30.4983V36.8359H35.4656V30.4983H37.9046V29.1603H31.3617V30.4983H33.8007ZM19.2395 35.4979V29.1603H17.5552V36.8359H22.6549V35.4979H19.2395Z" fill="#454545"/>
<path fill-rule="evenodd" clip-rule="evenodd" d="M33.2406 27.5299C33.3431 27.1384 33.3979 26.7286 33.3985 26.3069V10.9955C33.3985 8.23975 31.0841 6 28.2454 6H16.1531C13.3104 6 11 8.23975 11 10.9955V26.3069C11 26.7286 11.0543 27.1384 11.1564 27.5299H12.807C12.6584 27.1493 12.5771 26.7371 12.5771 26.3069V10.9955C12.5771 9.08444 14.1818 7.52884 16.1531 7.52884H28.2454C30.2167 7.52884 31.8214 9.08444 31.8214 10.9955V26.3069C31.8214 26.7371 31.7401 27.1493 31.5916 27.5299H33.2406Z" fill="#454545"/>
<path d="M33.3946 23.6543H11V11.0222H33.3946V23.6543ZM12.5771 22.1254H31.8175V12.5511H12.5771V22.1254Z" fill="#454545"/>
<path d="M19.5162 23.6543H11V11.0222H19.5162V23.6543ZM12.5771 22.1254H17.9392V12.5511H12.5771V22.1254Z" fill="#454545"/>
<path d="M33.3947 23.6543H24.8784V11.0222H33.3947V23.6543V23.6543ZM26.4555 22.1254H31.8176V12.5511H26.4555V22.1254Z" fill="#454545"/>
<path d="M26.4555 23.6543H17.9392V11.0222H26.4555V23.6543ZM19.5163 22.1254H24.8784V12.5511H19.5163V22.1254Z" fill="#454545"/>
<path d="M12.9595 15.4291C12.9595 15.3182 13.0541 15.2265 13.1645 15.2265C13.2788 15.2265 13.3695 15.3182 13.3695 15.4291V15.559L13.543 15.4367C14.0358 15.0851 14.4577 14.8787 14.8875 14.8711C15.3251 14.8634 15.743 15.066 16.2083 15.5361L16.2832 15.6125L16.8352 15.0813L16.847 15.0736C16.9258 14.9895 17.056 14.9895 17.1348 15.0736L17.4147 15.3488V15.3526C17.4897 15.4253 17.4975 15.5476 17.4226 15.6317C17.1821 15.903 16.9456 16.2012 16.7248 16.5107C16.4882 16.8433 16.2674 17.1796 16.0821 17.5045C15.8929 17.8256 15.7627 18.2192 15.6839 18.632C15.605 19.0639 15.5853 19.5188 15.6287 19.9277C15.6326 19.943 15.6326 19.9506 15.6326 19.9621C15.6326 20.0768 15.538 20.1685 15.4276 20.1685H13.8032H13.7874C13.677 20.1609 13.5903 20.0615 13.5982 19.9506C13.6179 19.6907 13.6613 19.3926 13.7362 19.1174C13.7953 18.8805 13.8821 18.6588 13.9885 18.4868C14.2724 18.0319 14.6233 17.6344 14.9781 17.2408C15.0728 17.1376 15.1635 17.0306 15.2581 16.9235C14.8323 17.0191 14.3355 17.0994 14.1305 16.9656C14.0358 16.9044 13.9373 16.8738 13.8348 16.87H13.8269C13.7007 16.8624 13.5745 16.8891 13.4444 16.9388L13.4326 16.9426L13.3695 16.9694V17.0841C13.3695 17.1987 13.2749 17.2866 13.1645 17.2866C13.0541 17.2866 12.9595 17.1949 12.9595 17.0841V15.4291V15.4291Z" fill="#454545"/>
<path d="M19.9224 15.4291C19.9224 15.3182 20.017 15.2265 20.1274 15.2265C20.2417 15.2265 20.3324 15.3182 20.3324 15.4291V15.559L20.5059 15.4367C20.9987 15.0851 21.4206 14.8787 21.8504 14.8711C22.288 14.8634 22.7059 15.066 23.1712 15.5361L23.2461 15.6125L23.7981 15.0813L23.8099 15.0736C23.8887 14.9895 24.0188 14.9895 24.0977 15.0736L24.3776 15.3488V15.3526C24.4525 15.4253 24.4604 15.5476 24.3855 15.6317C24.145 15.903 23.9085 16.2012 23.6877 16.5107C23.4511 16.8433 23.2303 17.1796 23.045 17.5045C22.8557 17.8256 22.7256 18.2192 22.6468 18.632C22.5679 19.0639 22.5482 19.5188 22.5916 19.9277C22.5955 19.943 22.5955 19.9506 22.5955 19.9621C22.5955 20.0768 22.5009 20.1685 22.3905 20.1685H20.77H20.7543C20.6439 20.1609 20.5571 20.0615 20.565 19.9506C20.5847 19.6907 20.6281 19.3926 20.703 19.1174C20.7622 18.8805 20.8489 18.6588 20.9554 18.4868C21.2392 18.0319 21.5901 17.6344 21.945 17.2408C22.0396 17.1376 22.1303 17.0306 22.2249 16.9235C21.7991 17.0191 21.3023 17.0994 21.0973 16.9656C21.0027 16.9044 20.9041 16.8738 20.8016 16.87H20.7976C20.6715 16.8624 20.5453 16.8891 20.4152 16.9388L20.4034 16.9426L20.3363 16.9694V17.0841C20.3363 17.1987 20.2417 17.2866 20.1313 17.2866C20.0209 17.2866 19.9263 17.1949 19.9263 17.0841V15.4291H19.9224Z" fill="#454545"/>
<path d="M26.8813 15.4291C26.8813 15.3182 26.976 15.2265 27.0864 15.2265C27.2007 15.2265 27.2914 15.3182 27.2914 15.4291V15.559L27.4649 15.4367C27.9577 15.0851 28.3796 14.8787 28.8093 14.8711C29.247 14.8634 29.6649 15.066 30.1301 15.5361L30.2051 15.6125L30.757 15.0813L30.7689 15.0736C30.8477 14.9895 30.9778 14.9895 31.0567 15.0736L31.3366 15.3488V15.3526C31.4115 15.4253 31.4194 15.5476 31.3445 15.6317C31.104 15.903 30.8674 16.2012 30.6466 16.5107C30.4101 16.8433 30.1893 17.1796 30.004 17.5045C29.8147 17.8256 29.6846 18.2192 29.6058 18.632C29.5269 19.0639 29.5072 19.5188 29.5506 19.9277C29.5545 19.943 29.5545 19.9506 29.5545 19.9621C29.5545 20.0768 29.4599 20.1685 29.3495 20.1685H27.729H27.7133C27.6029 20.1609 27.5161 20.0615 27.524 19.9506C27.5437 19.6907 27.5871 19.3926 27.662 19.1174C27.7211 18.8805 27.8079 18.6588 27.9143 18.4868C28.1982 18.0319 28.5491 17.6344 28.904 17.2408C28.9986 17.1376 29.0893 17.0306 29.1839 16.9235C28.7581 17.0191 28.2613 17.0994 28.0563 16.9656C27.9617 16.9044 27.8631 16.8738 27.7606 16.87H27.7566C27.6305 16.8624 27.5043 16.8891 27.3742 16.9388L27.3624 16.9426L27.2953 16.9694V17.0841C27.2953 17.1987 27.2007 17.2866 27.0903 17.2866C26.9799 17.2866 26.8853 17.1949 26.8853 17.0841V15.4291H26.8813Z" fill="#454545"/>
<path d="M37.9956 24.9652H32.606V23.4364H36.4185V16.7629H37.9956V24.9652Z" fill="#454545"/>
<path d="M37.2072 17.3594C35.1136 17.3594 33.4143 15.7082 33.4143 13.6825C33.4143 11.6568 35.1176 10.0056 37.2072 10.0056C39.2968 10.0056 41.0001 11.6568 41.0001 13.6825C41.0001 15.7082 39.3008 17.3594 37.2072 17.3594ZM37.2072 11.5306C35.9849 11.5306 34.9914 12.4938 34.9914 13.6787C34.9914 14.8635 35.9849 15.8267 37.2072 15.8267C38.4294 15.8267 39.423 14.8635 39.423 13.6787C39.423 12.4938 38.4294 11.5306 37.2072 11.5306Z" fill="#454545"/>
</svg>
