<svg width="45" height="45" viewBox="0 0 45 45" fill="none" xmlns="http://www.w3.org/2000/svg">
<g clip-path="url(#clip0_2902_10259)">
<path d="M36.8927 15.7155L32.4126 8.36909C32.2745 8.14157 32.0239 8 31.7529 8H12.2422C11.9711 8 11.7256 8.14157 11.5824 8.36909L7.10748 15.7155C6.92848 16.0138 6.97451 16.3931 7.21999 16.6408L21.4529 30.7725C21.5961 30.914 21.7904 30.9949 21.995 30.9949C22.1995 30.9949 22.3939 30.914 22.5371 30.7725L36.7699 16.6408C37.0205 16.3931 37.0666 16.0138 36.8825 15.7155H36.8927ZM20.338 10.2398L16.8705 15.1847L13.3213 9.51682H20.8494L20.3431 10.2398H20.338ZM16.487 16.6105L20.5323 27.7085L9.35773 16.6105H16.487V16.6105ZM8.96905 15.5993L12.4007 9.97186L15.9295 15.6043H8.96905V15.5993ZM19.5299 13.1622L21.995 9.64322L24.46 13.1622L26.1682 15.5993H17.8218L19.5299 13.1622ZM23.1508 9.51682H30.6789L27.1296 15.1847L23.6622 10.2398L23.1559 9.51682H23.1508ZM26.4239 16.6105L22.0001 28.745L17.5763 16.6105H26.429H26.4239ZM28.0707 15.5993L31.5995 9.96681L35.0311 15.5993H28.0758H28.0707ZM34.6373 16.6105L23.4627 27.7085L27.5081 16.6105H34.6373Z" fill="#454545"/>
</g>
<path d="M11.2425 36.8213C11.1605 36.6983 11.054 36.5924 10.9128 36.5151L10.9194 36.5085L10.8591 36.477C10.6934 36.3902 10.4911 36.3521 10.2698 36.3521H9.11523H9.06523V36.4021V38.1302V38.1802H9.11523H10.2326C10.6168 38.1802 10.914 38.1053 11.0987 37.9528L11.0988 37.9526C11.2904 37.793 11.3775 37.5845 11.3775 37.3257C11.3775 37.1381 11.3304 36.973 11.2442 36.824L11.2443 36.8239L11.2425 36.8213Z" fill="#454545" stroke="#454545" stroke-width="0.1"/>
<path d="M9.11523 33.8196H9.06523V33.8696V35.4786V35.5286H9.11523H10.1357C10.3268 35.5286 10.506 35.4981 10.6562 35.4269L10.664 35.4232L10.6701 35.4171L10.6712 35.416C10.8233 35.346 10.9469 35.2453 11.0329 35.1204C11.1303 34.9901 11.169 34.8297 11.169 34.6518C11.169 34.4003 11.0817 34.1994 10.898 34.0474C10.7221 33.8958 10.4708 33.8196 10.1581 33.8196H9.11523Z" fill="#454545" stroke="#454545" stroke-width="0.1"/>
<path d="M36.0736 37.9064C36.3667 37.7521 36.5831 37.5202 36.7216 37.2049C36.867 36.891 36.942 36.4886 36.942 36C36.942 35.511 36.8668 35.1159 36.7214 34.802C36.5859 34.5097 36.3898 34.2886 36.133 34.1407L36.1416 34.1321L36.0806 34.1007C35.7963 33.9547 35.4454 33.8792 35.0298 33.8792H34.1509H34.1009V33.9292V38.0782V38.1282H34.1509H35.0224C35.4383 38.1282 35.7814 38.0525 36.0727 37.9069L36.0727 37.9069L36.0736 37.9064ZM35.9703 36.8361L35.9642 36.8422L35.9605 36.85C35.8893 36.9994 35.8068 37.0938 35.6853 37.1545L35.6853 37.1545L35.6837 37.1553C35.5302 37.2391 35.3088 37.2833 35.0298 37.2833H34.9532V34.7241H35.0373C35.3158 34.7241 35.5378 34.7682 35.6993 34.8524C35.8152 34.9138 35.9046 35.0093 35.9675 35.149L35.9675 35.149L35.9677 35.1495C36.06 35.3483 36.1046 35.6377 36.1046 35.9925C36.1046 36.3415 36.0543 36.6428 35.9711 36.8353L35.9703 36.8361Z" fill="#454545" stroke="#454545" stroke-width="0.1"/>
<mask id="path-5-outside-1_2902_10259" maskUnits="userSpaceOnUse" x="6" y="31" width="34" height="10" fill="black">
<rect fill="white" x="6" y="31" width="34" height="10"/>
<path d="M38.5382 33.9069C38.2179 33.2961 37.7486 32.8194 37.1453 32.4842C36.5642 32.1639 35.879 32 35.0968 32H29.5251V34.5251L28.0279 32.3277L27.8045 32.0074H25.4581V37.0801L23.8864 32.5065L23.7151 32.0074H20.8845L20.7132 32.5065L18.8659 37.8473L18.3892 36.9832C18.5903 36.8119 18.7691 36.6034 18.9032 36.3724C19.1564 35.9404 19.2905 35.4413 19.2905 34.8752C19.2905 34.3091 19.1639 33.8101 18.9106 33.378C18.6574 32.9311 18.2849 32.5885 17.8007 32.3426C17.3538 32.1192 16.8175 32 16.2142 32H12.9069V33.1844C12.9069 33.1844 12.892 33.162 12.892 33.1471C12.6536 32.7747 12.3035 32.4842 11.8492 32.2756C11.432 32.0894 10.933 32 10.352 32H7V40H10.5233C11.1192 40 11.6406 39.8957 12.0726 39.6946C12.4078 39.5382 12.6909 39.3296 12.9143 39.0764V40H15.7821V38.0484L16.6164 39.6052L16.825 40H21.1899L21.3538 39.486L21.6667 38.5177H22.933L23.2458 39.486L23.4097 40H28.3259V37.4823L29.8454 39.6797L30.0689 40H35.0894C35.8715 40 36.5642 39.8361 37.1527 39.5158C37.7561 39.1881 38.2253 38.7039 38.5531 38.0857C38.8659 37.4972 39.0223 36.7896 39.0223 35.9926C39.0223 35.1955 38.8659 34.4953 38.5531 33.9069H38.5382ZM12.5047 38.3836C12.3333 38.6518 12.0875 38.8678 11.7523 39.0242C11.4171 39.1806 11.0074 39.2626 10.5233 39.2626H7.74488V32.7523H10.3445C10.8212 32.7523 11.2235 32.8268 11.5438 32.9683C11.8641 33.1099 12.1024 33.3035 12.2663 33.5568C12.4302 33.8101 12.5047 34.0931 12.5047 34.4209C12.5047 34.6741 12.4525 34.8976 12.3557 35.0912C12.2514 35.2849 12.1173 35.4413 11.9385 35.5605C11.7598 35.6797 11.5587 35.7691 11.3352 35.8212V35.8883C11.581 35.8957 11.8119 35.9702 12.0279 36.0968C12.2439 36.2235 12.4227 36.4097 12.5568 36.6406C12.6909 36.8715 12.7579 37.1471 12.7579 37.4674C12.7579 37.8101 12.6685 38.1229 12.4972 38.3911L12.5047 38.3836ZM12.9143 35.8883C12.8771 35.8436 12.8547 35.7914 12.8101 35.7542C12.8473 35.702 12.8771 35.6499 12.9143 35.5978V35.8883ZM18.3818 39.2551H17.2644L16.0354 36.9534H15.0298V39.2551H13.6518V32.7523H16.2142C16.7058 32.7523 17.1229 32.8417 17.473 33.013C17.8231 33.1844 18.0912 33.4302 18.27 33.7505C18.4562 34.0708 18.5456 34.4432 18.5456 34.8678C18.5456 35.2924 18.4562 35.6723 18.2626 35.9851C18.0763 36.2905 17.8082 36.5289 17.4507 36.6927C17.4283 36.7002 17.406 36.7076 17.3911 36.7151L18.5307 38.8007L18.7765 39.2477H18.3743L18.3818 39.2551ZM23.9534 39.2551L23.4693 37.7728H21.1229L20.6387 39.2551H19.1639L19.3426 38.7337L21.4134 32.7523H23.1862L25.4283 39.2551H23.9534V39.2551ZM31.648 39.2551H30.4637L27.6331 35.1657H27.5885V39.2551H26.2179V32.7523H27.4171L30.2253 36.8417H30.2849V32.7523H31.6555V39.2551H31.648ZM37.8827 37.743C37.6294 38.2272 37.2644 38.5996 36.7877 38.8603C36.311 39.121 35.7449 39.2477 35.0894 39.2477H32.7877V32.7523H35.1117C35.7672 32.7523 36.3259 32.879 36.8026 33.1397C37.2719 33.4004 37.6369 33.7728 37.8901 34.257C38.1434 34.7412 38.2775 35.3222 38.2775 36C38.2775 36.6778 38.1508 37.2588 37.8901 37.743H37.8827Z"/>
</mask>
<path d="M38.5382 33.9069C38.2179 33.2961 37.7486 32.8194 37.1453 32.4842C36.5642 32.1639 35.879 32 35.0968 32H29.5251V34.5251L28.0279 32.3277L27.8045 32.0074H25.4581V37.0801L23.8864 32.5065L23.7151 32.0074H20.8845L20.7132 32.5065L18.8659 37.8473L18.3892 36.9832C18.5903 36.8119 18.7691 36.6034 18.9032 36.3724C19.1564 35.9404 19.2905 35.4413 19.2905 34.8752C19.2905 34.3091 19.1639 33.8101 18.9106 33.378C18.6574 32.9311 18.2849 32.5885 17.8007 32.3426C17.3538 32.1192 16.8175 32 16.2142 32H12.9069V33.1844C12.9069 33.1844 12.892 33.162 12.892 33.1471C12.6536 32.7747 12.3035 32.4842 11.8492 32.2756C11.432 32.0894 10.933 32 10.352 32H7V40H10.5233C11.1192 40 11.6406 39.8957 12.0726 39.6946C12.4078 39.5382 12.6909 39.3296 12.9143 39.0764V40H15.7821V38.0484L16.6164 39.6052L16.825 40H21.1899L21.3538 39.486L21.6667 38.5177H22.933L23.2458 39.486L23.4097 40H28.3259V37.4823L29.8454 39.6797L30.0689 40H35.0894C35.8715 40 36.5642 39.8361 37.1527 39.5158C37.7561 39.1881 38.2253 38.7039 38.5531 38.0857C38.8659 37.4972 39.0223 36.7896 39.0223 35.9926C39.0223 35.1955 38.8659 34.4953 38.5531 33.9069H38.5382ZM12.5047 38.3836C12.3333 38.6518 12.0875 38.8678 11.7523 39.0242C11.4171 39.1806 11.0074 39.2626 10.5233 39.2626H7.74488V32.7523H10.3445C10.8212 32.7523 11.2235 32.8268 11.5438 32.9683C11.8641 33.1099 12.1024 33.3035 12.2663 33.5568C12.4302 33.8101 12.5047 34.0931 12.5047 34.4209C12.5047 34.6741 12.4525 34.8976 12.3557 35.0912C12.2514 35.2849 12.1173 35.4413 11.9385 35.5605C11.7598 35.6797 11.5587 35.7691 11.3352 35.8212V35.8883C11.581 35.8957 11.8119 35.9702 12.0279 36.0968C12.2439 36.2235 12.4227 36.4097 12.5568 36.6406C12.6909 36.8715 12.7579 37.1471 12.7579 37.4674C12.7579 37.8101 12.6685 38.1229 12.4972 38.3911L12.5047 38.3836ZM12.9143 35.8883C12.8771 35.8436 12.8547 35.7914 12.8101 35.7542C12.8473 35.702 12.8771 35.6499 12.9143 35.5978V35.8883ZM18.3818 39.2551H17.2644L16.0354 36.9534H15.0298V39.2551H13.6518V32.7523H16.2142C16.7058 32.7523 17.1229 32.8417 17.473 33.013C17.8231 33.1844 18.0912 33.4302 18.27 33.7505C18.4562 34.0708 18.5456 34.4432 18.5456 34.8678C18.5456 35.2924 18.4562 35.6723 18.2626 35.9851C18.0763 36.2905 17.8082 36.5289 17.4507 36.6927C17.4283 36.7002 17.406 36.7076 17.3911 36.7151L18.5307 38.8007L18.7765 39.2477H18.3743L18.3818 39.2551ZM23.9534 39.2551L23.4693 37.7728H21.1229L20.6387 39.2551H19.1639L19.3426 38.7337L21.4134 32.7523H23.1862L25.4283 39.2551H23.9534V39.2551ZM31.648 39.2551H30.4637L27.6331 35.1657H27.5885V39.2551H26.2179V32.7523H27.4171L30.2253 36.8417H30.2849V32.7523H31.6555V39.2551H31.648ZM37.8827 37.743C37.6294 38.2272 37.2644 38.5996 36.7877 38.8603C36.311 39.121 35.7449 39.2477 35.0894 39.2477H32.7877V32.7523H35.1117C35.7672 32.7523 36.3259 32.879 36.8026 33.1397C37.2719 33.4004 37.6369 33.7728 37.8901 34.257C38.1434 34.7412 38.2775 35.3222 38.2775 36C38.2775 36.6778 38.1508 37.2588 37.8901 37.743H37.8827Z" fill="#454545"/>
<path d="M38.5382 33.9069C38.2179 33.2961 37.7486 32.8194 37.1453 32.4842C36.5642 32.1639 35.879 32 35.0968 32H29.5251V34.5251L28.0279 32.3277L27.8045 32.0074H25.4581V37.0801L23.8864 32.5065L23.7151 32.0074H20.8845L20.7132 32.5065L18.8659 37.8473L18.3892 36.9832C18.5903 36.8119 18.7691 36.6034 18.9032 36.3724C19.1564 35.9404 19.2905 35.4413 19.2905 34.8752C19.2905 34.3091 19.1639 33.8101 18.9106 33.378C18.6574 32.9311 18.2849 32.5885 17.8007 32.3426C17.3538 32.1192 16.8175 32 16.2142 32H12.9069V33.1844C12.9069 33.1844 12.892 33.162 12.892 33.1471C12.6536 32.7747 12.3035 32.4842 11.8492 32.2756C11.432 32.0894 10.933 32 10.352 32H7V40H10.5233C11.1192 40 11.6406 39.8957 12.0726 39.6946C12.4078 39.5382 12.6909 39.3296 12.9143 39.0764V40H15.7821V38.0484L16.6164 39.6052L16.825 40H21.1899L21.3538 39.486L21.6667 38.5177H22.933L23.2458 39.486L23.4097 40H28.3259V37.4823L29.8454 39.6797L30.0689 40H35.0894C35.8715 40 36.5642 39.8361 37.1527 39.5158C37.7561 39.1881 38.2253 38.7039 38.5531 38.0857C38.8659 37.4972 39.0223 36.7896 39.0223 35.9926C39.0223 35.1955 38.8659 34.4953 38.5531 33.9069H38.5382ZM12.5047 38.3836C12.3333 38.6518 12.0875 38.8678 11.7523 39.0242C11.4171 39.1806 11.0074 39.2626 10.5233 39.2626H7.74488V32.7523H10.3445C10.8212 32.7523 11.2235 32.8268 11.5438 32.9683C11.8641 33.1099 12.1024 33.3035 12.2663 33.5568C12.4302 33.8101 12.5047 34.0931 12.5047 34.4209C12.5047 34.6741 12.4525 34.8976 12.3557 35.0912C12.2514 35.2849 12.1173 35.4413 11.9385 35.5605C11.7598 35.6797 11.5587 35.7691 11.3352 35.8212V35.8883C11.581 35.8957 11.8119 35.9702 12.0279 36.0968C12.2439 36.2235 12.4227 36.4097 12.5568 36.6406C12.6909 36.8715 12.7579 37.1471 12.7579 37.4674C12.7579 37.8101 12.6685 38.1229 12.4972 38.3911L12.5047 38.3836ZM12.9143 35.8883C12.8771 35.8436 12.8547 35.7914 12.8101 35.7542C12.8473 35.702 12.8771 35.6499 12.9143 35.5978V35.8883ZM18.3818 39.2551H17.2644L16.0354 36.9534H15.0298V39.2551H13.6518V32.7523H16.2142C16.7058 32.7523 17.1229 32.8417 17.473 33.013C17.8231 33.1844 18.0912 33.4302 18.27 33.7505C18.4562 34.0708 18.5456 34.4432 18.5456 34.8678C18.5456 35.2924 18.4562 35.6723 18.2626 35.9851C18.0763 36.2905 17.8082 36.5289 17.4507 36.6927C17.4283 36.7002 17.406 36.7076 17.3911 36.7151L18.5307 38.8007L18.7765 39.2477H18.3743L18.3818 39.2551ZM23.9534 39.2551L23.4693 37.7728H21.1229L20.6387 39.2551H19.1639L19.3426 38.7337L21.4134 32.7523H23.1862L25.4283 39.2551H23.9534V39.2551ZM31.648 39.2551H30.4637L27.6331 35.1657H27.5885V39.2551H26.2179V32.7523H27.4171L30.2253 36.8417H30.2849V32.7523H31.6555V39.2551H31.648ZM37.8827 37.743C37.6294 38.2272 37.2644 38.5996 36.7877 38.8603C36.311 39.121 35.7449 39.2477 35.0894 39.2477H32.7877V32.7523H35.1117C35.7672 32.7523 36.3259 32.879 36.8026 33.1397C37.2719 33.4004 37.6369 33.7728 37.8901 34.257C38.1434 34.7412 38.2775 35.3222 38.2775 36C38.2775 36.6778 38.1508 37.2588 37.8901 37.743H37.8827Z" stroke="#454545" stroke-width="0.2" mask="url(#path-5-outside-1_2902_10259)"/>
<path d="M16.6519 33.961L16.6458 33.955L16.6381 33.9513C16.4574 33.8649 16.2256 33.8272 15.961 33.8272H15.0374H14.9874V33.8772V35.8437V35.8937H15.0374H15.9685C16.2338 35.8937 16.456 35.8558 16.6415 35.7862L16.6415 35.7863L16.6439 35.7852C16.8216 35.708 16.9653 35.5979 17.0541 35.445C17.15 35.2926 17.1879 35.1036 17.1879 34.8828C17.1879 34.6597 17.1417 34.4724 17.0551 34.3149C16.9683 34.1571 16.828 34.0399 16.6527 33.9618L16.6519 33.961Z" fill="#454545" stroke="#454545" stroke-width="0.1"/>
<path d="M22.2702 34.1846H22.2338L22.2226 34.2192L21.4256 36.6848L21.4044 36.7502H21.4731H23.1193H23.188L23.1669 36.6848L22.3699 34.2192L22.3587 34.1846H22.3223H22.2702Z" fill="#454545" stroke="#454545" stroke-width="0.1"/>
<defs>
<clipPath id="clip0_2902_10259">
<rect width="30" height="23" fill="white" transform="translate(7 8)"/>
</clipPath>
</defs>
</svg>
