<svg width="43" height="34" viewBox="0 0 43 34" fill="none" xmlns="http://www.w3.org/2000/svg">
<path d="M7.22485 11.4384L4.64843 6.37612C4.01725 6.1847 3.51801 5.66217 3.38091 4.96633L3.37574 4.94047C3.20242 3.93939 3.84394 3.00556 4.83726 2.81155C5.18647 2.7443 5.5331 2.78051 5.84351 2.89692C6.06339 2.33042 6.55746 1.88549 7.19122 1.75615L7.22744 1.74839C7.85602 1.63975 8.45874 1.85186 8.87003 2.27351L8.90884 2.21401C8.90625 2.20625 8.90625 2.19849 8.90366 2.19073L8.89849 2.16228C8.72518 1.1612 9.36669 0.227371 10.36 0.0333636C10.8412 -0.0597601 11.3507 0.0437107 11.7543 0.323082C12.1604 0.602453 12.432 1.02151 12.5174 1.50265C12.5174 1.51041 12.52 1.51558 12.52 1.52334L12.5846 1.56732C12.8381 1.09653 13.2934 0.736965 13.8522 0.625734L13.878 0.62056C14.5144 0.509329 15.1248 0.729205 15.5361 1.1612C15.7896 0.902518 16.1182 0.713684 16.4984 0.638668C16.9873 0.542957 17.4995 0.651602 17.9056 0.936146C18.3143 1.22328 18.5834 1.65268 18.6635 2.14934C18.7774 2.80638 18.5109 3.45825 18.0194 3.86696L17.5124 9.47249L7.22485 11.4384ZM7.47318 6.21833L8.65016 8.53349L15.1171 7.29701L15.3499 4.71024L15.3473 4.71283L14.1677 5.34141L13.8651 4.72576L13.3839 5.26123L11.061 3.65484L9.47793 6.0476L8.77691 5.70356L8.72776 6.35802L7.47318 6.21833Z" fill="#040000"/>
<path d="M15.13 4.34564L14.4238 2.9255C14.6566 2.8272 14.7963 2.58405 14.7498 2.33054C14.6903 2.03307 14.4057 1.84423 14.1108 1.89597C13.8134 1.95288 13.6219 2.23742 13.6737 2.5349C13.6969 2.64872 13.759 2.74184 13.8366 2.81944L12.758 4.01712L11.3611 5.43208L9.54518 4.63536L7.99571 3.87743C8.08107 3.76103 8.12246 3.60582 8.09401 3.45838C8.03451 3.1609 7.74997 2.97206 7.45507 3.0238C7.16277 3.08329 6.96617 3.36525 7.02567 3.66273C7.08258 3.93952 7.33608 4.11542 7.60511 4.09214L7.46542 5.81234L7.16536 8.18182L8.3501 8.78971L9.99787 7.85589L11.6431 6.92206L11.6456 6.90913L11.6482 6.92465L13.5288 7.18074L15.4068 7.43683L16.2811 6.43058L15.13 4.34564Z" fill="#B06F20"/>
<path d="M10.7222 1.83911L12.1371 9.18036L7.94656 9.97968L5.23821 4.67421L8.59843 5.04412L10.7222 1.83911Z" fill="#EEDE80"/>
<path d="M10.7222 1.83911L12.1371 9.18037L16.3225 8.37071L16.8632 2.447L13.8832 4.03011L10.7222 1.83911Z" fill="#E2CA55"/>
<path d="M5.083 5.14736C5.37789 5.20944 5.66503 5.0232 5.72969 4.73089C5.79178 4.43859 5.60553 4.14887 5.31322 4.0842C5.01833 4.02212 4.7312 4.20836 4.66653 4.50067C4.60186 4.79556 4.78811 5.08528 5.083 5.14736Z" fill="#E2CA55"/>
<path d="M16.7468 2.97964C17.0416 3.04172 17.3288 2.85547 17.3934 2.56317C17.4555 2.27086 17.2693 1.98114 16.977 1.91648C16.6821 1.85439 16.395 2.04064 16.3303 2.33295C16.2656 2.62525 16.4544 2.91497 16.7468 2.97964Z" fill="#E2CA55"/>
<path d="M10.6083 2.36929C10.9032 2.43137 11.1904 2.24512 11.255 1.95282C11.3171 1.66051 11.1309 1.37079 10.8386 1.30612C10.5437 1.24404 10.2565 1.43029 10.1919 1.72259C10.1272 2.01749 10.3135 2.3072 10.6083 2.36929Z" fill="#E2CA55"/>
<path d="M28.2863 23.9197C26.9929 29.9391 19.6879 33.201 12.2768 32.3474C2.95409 31.2713 0.118989 24.6284 1.41496 18.609C2.70835 12.5896 9.66676 8.98623 16.964 10.5564C24.2613 12.1266 29.5823 17.9002 28.2863 23.9197Z" fill="white"/>
<path d="M7.31539 31.2815C7.31539 31.2815 1.66847 28.3506 4.80881 23.2107C4.80881 23.2107 5.85645 21.9639 8.01123 22.0493C10.166 22.132 11.6379 20.0161 11.6379 20.0161C11.6379 20.0161 12.3674 18.4847 13.8315 18.9348C15.2878 19.3849 15.3913 18.5235 15.3913 18.5235C15.3913 18.5235 15.9267 17.5198 17.0727 18.1872C18.2186 18.8546 20.6709 19.5427 22.5929 18.5882C24.5148 17.6311 26.5558 19.2504 26.5558 19.2504C26.5558 19.2504 30.6403 24.0825 24.8278 29.4009C24.8278 29.4009 28.2294 27.4349 29.0934 24.054C29.9574 20.6731 29.6677 16.5576 24.0596 10.6675L22.3419 9.28098L20.0113 5.37754L17.8461 4.59375L16.232 7.48835L14.8584 9.87076C14.8584 9.87076 13.0399 9.07921 11.3301 10.1838C9.6202 11.2883 9.51673 10.7554 9.51673 10.7554C9.51673 10.7554 7.20933 8.36009 6.46434 8.16091C5.71935 7.95914 4.49064 7.56077 4.49064 7.56077L2.84804 14.3743C2.84804 14.3743 0.250923 20.9551 0.827772 23.7695C1.40462 26.5787 2.72646 30.0502 7.31539 31.2815Z" fill="#DEBB7E"/>
<path d="M9.20373 31.1107C9.23736 31.1185 9.25029 31.1211 9.27874 31.1676C9.40549 31.3047 9.54777 31.5246 9.55553 31.7704C9.57622 32.0187 9.44688 32.3032 8.9735 32.5205C8.95798 32.5309 8.87779 32.5542 8.83899 32.5464C7.9957 32.3369 7.18863 32.0497 6.39449 31.6953C5.16319 31.1392 3.9888 30.4175 2.97479 29.4811C1.96853 28.5395 1.12783 27.3677 0.636345 26.0562C0.561329 25.8984 0.517354 25.7251 0.465619 25.5595C0.413883 25.3914 0.354387 25.2232 0.323346 25.0551C0.284545 24.8844 0.24057 24.7188 0.201768 24.5481L0.116405 24.0333C0.0853634 23.8626 0.0750163 23.6919 0.0569089 23.5186C0.0465619 23.3478 0.0232809 23.1719 0.0181074 23.0012V22.4916L0.0155206 22.383L0.0129338 22.3959L0.0155206 22.4114C0.0129338 22.4192 0.0155206 22.4114 0.0181074 22.4037L0.00776031 22.3261C0.00776031 22.2717 0.00258677 22.2045 0 22.1553L0.00517354 22.0001C0.0206942 21.6173 0.0646692 21.281 0.118991 20.9396L0.157793 20.6912L0.209528 20.4455C0.237983 20.2825 0.271611 20.1195 0.312999 19.9592C0.457858 19.3125 0.636345 18.6787 0.817419 18.0553L0.838113 17.9855L0.858808 17.9156C1.2132 16.7386 1.60638 15.5824 2.02803 14.4312L2.10822 14.2191L2.12115 14.1958L2.12374 14.1829C2.12632 14.1752 2.12374 14.1829 2.12374 14.1829C2.12115 14.1907 2.12374 14.1829 2.12374 14.1829L2.1315 14.1441L2.2091 13.6863C2.26084 13.3862 2.32033 13.0784 2.37724 12.7809C2.50141 12.1756 2.63592 11.5754 2.78595 10.9701C2.93598 10.3648 3.11964 9.7673 3.32141 9.17234C3.37315 9.02231 3.42488 8.87745 3.48438 8.72741L3.66028 8.28508C3.71977 8.13504 3.7922 7.9876 3.86463 7.84015C3.88791 7.791 3.95776 7.62286 4.04312 7.51163L4.27593 7.15466L4.39492 6.97617L4.45442 6.88822L4.48546 6.84166C4.49322 6.83649 4.49581 6.82355 4.50357 6.81838H4.53202C4.67171 6.82873 4.8088 6.82355 4.94849 6.83907C5.09076 6.84166 5.23045 6.88046 5.38048 6.9115C5.45291 6.92702 5.52275 6.94254 5.59777 6.971L5.77626 7.03049C6.10995 7.14948 6.41778 7.29693 6.70749 7.46248C7.29728 7.78583 7.81722 8.16867 8.30612 8.57997L8.48978 8.73517L8.66568 8.89555C8.78467 9.00161 8.90366 9.11026 9.01748 9.21631L9.35376 9.54742L9.5219 9.71297L9.68228 9.8837L9.70556 9.90181L10.0367 9.77764C10.1893 9.72849 10.3367 9.67159 10.4894 9.62502C11.6974 9.24218 12.9701 8.97833 14.2919 8.98609L14.7368 9.00161L14.8274 8.74294C15.0421 8.15833 15.2749 7.57889 15.5413 7.00463C15.8078 6.43036 16.1052 5.86386 16.4674 5.31288C16.6562 5.03609 16.8554 4.76707 17.1089 4.50322C17.1787 4.43596 17.2382 4.37388 17.3133 4.30921L17.365 4.26006C17.3909 4.23937 17.4141 4.21609 17.44 4.19539C17.4969 4.14624 17.559 4.11262 17.6237 4.06605C17.6857 4.02467 17.7452 3.9781 17.8125 3.94448L18.0091 3.85135C18.1384 3.7841 18.2729 3.7246 18.4023 3.66511L18.4333 3.65217C18.4411 3.647 18.4514 3.66252 18.4592 3.66511L18.5135 3.69615L18.6247 3.74788L18.8317 3.88757C18.9688 3.9781 19.1033 4.08158 19.243 4.17987C19.3827 4.2911 19.5301 4.39716 19.6595 4.51357C19.9362 4.73603 20.1975 4.97401 20.4562 5.21975C20.9709 5.70348 21.4547 6.22859 21.8892 6.78992C22.3316 7.34608 22.7351 7.94104 23.0817 8.57221L23.3068 9.00679C23.3016 8.99903 23.3068 9.00679 23.3068 9.00679L23.5034 9.16975C23.7724 9.39739 24.0285 9.63537 24.282 9.87335C25.3633 10.9003 26.3592 12.0152 27.2309 13.2336C28.1027 14.4442 28.8658 15.7608 29.4142 17.1887C29.7013 17.9415 29.9238 18.7279 30.0634 19.5324C30.1333 19.9333 30.1798 20.3446 30.2083 20.7559C30.2109 20.9603 30.229 21.1672 30.2238 21.3767L30.2109 21.6871C30.2083 21.788 30.2057 21.8967 30.1902 22.0027C30.1255 22.8357 29.9444 23.6505 29.6547 24.4291C29.5176 24.8197 29.3417 25.1948 29.1607 25.5621C29.0675 25.7458 28.9615 25.9191 28.8606 26.1002L28.7985 26.201C28.5631 26.5968 28.2941 26.9667 28.0173 27.3341C28.0173 27.3341 27.9138 27.4401 27.7431 27.6289C27.5698 27.8074 27.3189 28.0532 27.0162 28.3196C26.7162 28.5809 26.3618 28.8628 25.9944 29.1241C25.6271 29.3828 25.2365 29.6182 24.877 29.8122C24.2742 30.151 23.8526 30.3114 23.5965 30.3709C23.3404 30.4304 23.2473 30.3916 23.2732 30.2959C23.3275 30.1097 23.8423 29.6647 24.4346 29.1215C24.3596 29.1603 25.102 28.5395 25.7591 27.8204C26.0876 27.4634 26.3928 27.0831 26.6127 26.7908C26.7187 26.6434 26.8067 26.5218 26.8662 26.4313C26.9257 26.3433 26.9567 26.289 26.9567 26.289L27.1093 26.0846L27.2568 25.8725C27.3551 25.7303 27.4405 25.5854 27.531 25.4431L27.5853 25.3526C27.6733 25.1948 27.7612 25.0448 27.8414 24.887C27.9966 24.574 28.1466 24.2532 28.2656 23.9195C28.5088 23.2599 28.6614 22.5822 28.7183 21.8811C28.7287 21.7958 28.7287 21.7078 28.7338 21.6199L28.7416 21.3586C28.7442 21.1827 28.7287 21.0094 28.7261 20.8335C28.7054 20.4843 28.6614 20.1273 28.6019 19.7755C28.4829 19.0719 28.2837 18.3787 28.0225 17.7061C27.5362 16.4282 26.8403 15.2202 26.0255 14.0898C25.2107 12.9594 24.2691 11.9014 23.2551 10.9391C23.0197 10.7115 22.7739 10.4968 22.5334 10.2898L22.3549 10.1372L22.1583 9.97941C22.1402 9.96906 22.1324 9.94578 22.1221 9.93026L22.0936 9.87594L22.0315 9.75954L21.7909 9.29392C21.4805 8.74552 21.1261 8.21523 20.733 7.71599C20.3372 7.21674 19.9026 6.74336 19.4344 6.30361C19.2042 6.08374 18.9636 5.86903 18.7153 5.66727C18.5937 5.56638 18.4669 5.4655 18.3454 5.36979C18.3454 5.36979 18.3428 5.37755 18.3376 5.37496L18.3195 5.39824C18.2781 5.42928 18.2341 5.47584 18.1928 5.51982C18.0272 5.69313 17.8668 5.90266 17.709 6.12771C17.4064 6.58557 17.1348 7.08999 16.8942 7.61252C16.6536 8.13763 16.4337 8.68085 16.2346 9.23183L16.1621 9.44136L16.0949 9.6302L16.0225 9.83972C15.9707 9.98458 15.9319 10.132 15.8802 10.2769L15.8129 10.4994L15.8026 10.5511L15.7974 10.577C15.7948 10.5847 15.7948 10.5847 15.7896 10.5821L15.7767 10.5795L15.6629 10.5692L14.7549 10.4683L14.7291 10.4631L14.7161 10.4606C14.7161 10.4606 14.6954 10.4554 14.6825 10.4606H14.6541L14.5997 10.4554L14.4988 10.4528L14.2971 10.4424C13.1977 10.4373 12.0595 10.6597 10.9653 11.0141C10.8256 11.0581 10.6937 11.1047 10.5566 11.1486L10.3574 11.2211L10.2384 11.2702L10.0315 11.353C9.88922 11.4099 9.74695 11.4746 9.60985 11.5392L9.39774 11.6375C9.38221 11.6479 9.35893 11.6556 9.346 11.6608L9.3072 11.6194L9.22959 11.5341L8.62688 10.8951L8.47943 10.7347L8.32164 10.5795L8.01381 10.2769C7.90517 10.1786 7.79911 10.0803 7.69564 9.98458L7.53526 9.84231L7.36712 9.70521C6.92996 9.34048 6.4721 9.0042 5.99355 8.74552C5.75815 8.6136 5.51758 8.49978 5.27701 8.41442L5.23821 8.39889L5.20458 8.46615C5.15026 8.59549 5.083 8.71707 5.03385 8.84899L4.87606 9.24218C4.82691 9.37411 4.77776 9.51121 4.72603 9.65089C4.53978 10.2019 4.37164 10.7606 4.22161 11.3323C4.07934 11.904 3.94741 12.4808 3.82842 13.0654C3.77151 13.3577 3.71719 13.6449 3.66804 13.9398L3.59561 14.3717C3.59044 14.3924 3.5775 14.4907 3.56198 14.5554L3.49731 14.7313L3.41712 14.9434C3.00583 16.0687 2.62557 17.2068 2.27894 18.345L2.25825 18.4097L2.23756 18.4718C2.05907 19.0771 1.89093 19.6772 1.75124 20.2851C1.71244 20.4325 1.67881 20.5878 1.65295 20.7378L1.6038 20.9654L1.56241 21.1879C1.51326 21.4828 1.47705 21.7803 1.46929 22.0363V22.1243C1.46929 22.1579 1.47446 22.1657 1.47446 22.1941C1.47705 22.2097 1.45894 22.1424 1.46929 22.1579L1.47187 22.1786C1.46929 22.1864 1.47705 22.1864 1.47187 22.2071C1.46929 22.22 1.47187 22.2407 1.46929 22.2485L1.47705 22.3105V22.339L1.47963 22.3545V22.383V22.5123L1.48481 22.9598C1.48739 23.1099 1.50809 23.2573 1.51843 23.4022C1.53395 23.547 1.53654 23.6971 1.56758 23.8393L1.63743 24.2739L1.73572 24.7007C1.76676 24.843 1.81074 24.9801 1.8573 25.1198C1.90128 25.2595 1.94008 25.4017 1.99957 25.5311C2.41087 26.6227 3.10412 27.5927 3.9681 28.4024C4.83209 29.212 5.87714 29.851 6.98169 30.3528C7.71892 30.6632 8.45615 30.9245 9.20373 31.1107Z" fill="#221714"/>
<path d="M5.09076 10.1865C5.09076 10.1865 4.40527 12.6155 4.57082 13.614C4.57082 13.614 5.2408 12.7423 6.49797 12.631L5.09076 10.1865Z" fill="#D87447"/>
<path d="M18.9015 10.0984C18.9015 10.0984 20.5079 9.85529 21.1882 9.94583C21.1882 9.94583 19.8328 7.51168 19.1525 7.42114L18.9015 10.0984Z" fill="#D87447"/>
<path d="M9.44947 17.4759C9.86594 17.5664 10.2747 17.3 10.3626 16.8861C10.4506 16.4697 10.1867 16.0609 9.77282 15.973C9.35635 15.8825 8.94764 16.1489 8.85969 16.5628C8.76915 16.9767 9.033 17.388 9.44947 17.4759Z" fill="white"/>
<path d="M17.5874 15.6058C18.0039 15.6963 18.4126 15.4299 18.5006 15.016C18.5885 14.5995 18.3247 14.1908 17.9108 14.1029C17.4943 14.0123 17.0856 14.2788 16.9977 14.6927C16.9071 15.1091 17.1736 15.5178 17.5874 15.6058Z" fill="white"/>
<path d="M6.54453 23.9196C7.6646 23.6739 8.45356 22.9289 8.30353 22.2589C8.15609 21.5863 7.12655 21.2423 6.00648 21.488C4.88641 21.7338 4.09744 22.4788 4.24748 23.1487C4.39492 23.8187 5.42446 24.1653 6.54453 23.9196Z" fill="#D4824B"/>
<path d="M23.7724 20.1403C24.8925 19.8946 25.6815 19.1496 25.5314 18.4796C25.384 17.807 24.3544 17.463 23.2344 17.7062C22.1143 17.9519 21.3253 18.6969 21.4754 19.3669C21.6254 20.042 22.6523 20.3861 23.7724 20.1403Z" fill="#D4824B"/>
<path d="M8.25438 32.3706C8.21558 32.3628 8.20265 32.3603 8.16643 32.3111C8.02675 32.1662 7.88189 31.9257 7.89482 31.6773C7.91293 31.4316 8.0759 31.1807 8.52082 30.9712C8.53634 30.9608 8.60877 30.9427 8.6424 30.9427C9.40032 31.1471 10.1841 31.3152 10.9705 31.4445C13.4822 31.8558 16.0613 31.9102 18.5342 31.4316L19.1757 31.2919L19.8069 31.1289C19.8069 31.1289 19.8431 31.1238 19.9 31.1083C19.9569 31.0927 20.0501 31.072 20.1561 31.0488C20.2622 31.0255 20.3993 30.9919 20.5493 30.9582C20.7019 30.9168 20.8597 30.8754 21.0382 30.8263C21.2167 30.7823 21.4003 30.7202 21.5892 30.6607C21.6849 30.6271 21.7858 30.6012 21.8815 30.5676C21.9772 30.534 22.0729 30.4926 22.1764 30.4616L22.4713 30.3555L22.6187 30.2986C22.6627 30.2805 22.7144 30.2572 22.761 30.2417C22.955 30.1615 23.1412 30.0865 23.3249 30.0166C23.6224 29.8692 23.8681 29.7605 24.0725 29.67C24.2717 29.5691 24.4346 29.5045 24.551 29.4605C24.7994 29.3777 24.8977 29.3932 24.8847 29.4915C24.8718 29.5898 24.745 29.7657 24.5381 29.9934C24.4864 30.0503 24.432 30.1123 24.37 30.1744C24.3079 30.2365 24.2354 30.2934 24.1682 30.3555C24.0259 30.4797 23.8681 30.6168 23.6974 30.7487C23.7414 30.7306 23.55 30.8651 23.2344 31.0746C23.0817 31.1833 22.8826 31.2893 22.673 31.4161C22.5644 31.473 22.4558 31.5454 22.3419 31.6023C22.2281 31.6592 22.1065 31.7213 21.9927 31.7782C21.8711 31.8326 21.7573 31.8972 21.6357 31.9515C21.5142 32.0059 21.3952 32.055 21.2839 32.1067C21.1701 32.1559 21.0589 32.2076 20.9528 32.2516C20.8442 32.2878 20.7459 32.3292 20.6502 32.3706C20.4588 32.4379 20.301 32.5051 20.1923 32.5439C20.0837 32.5801 20.0164 32.6008 20.0164 32.6008C19.8147 32.6526 19.6207 32.7043 19.4215 32.7509L18.8239 32.8802C18.1514 33.0069 17.4788 33.113 16.8011 33.1647L16.545 33.1906L16.2915 33.2035C16.1208 33.2139 15.9552 33.2268 15.7845 33.2294C15.443 33.2372 15.1067 33.2527 14.7705 33.2475C13.4124 33.2475 12.0699 33.1208 10.7377 32.9035C9.89957 32.7664 9.07439 32.5956 8.25438 32.3706Z" fill="#AE1E25"/>
<path d="M10.2695 19.2791C10.6135 20.1741 9.93319 20.5621 9.03817 20.9062C8.14315 21.2502 7.37488 21.4158 7.03084 20.5207C6.6868 19.6257 7.13431 18.6246 8.02933 18.2806C8.92177 17.9392 9.92543 18.3867 10.2695 19.2791Z" fill="#221714"/>
<path d="M10.1505 18.8212C10.2333 18.9066 10.1945 19.0954 10.0496 19.2325C9.90991 19.3799 9.63313 19.3386 9.63313 19.3386C9.63313 19.3386 9.58915 19.0644 9.73401 18.9273C9.88146 18.7824 10.0677 18.7358 10.1505 18.8212Z" fill="#F6F6F6"/>
<path d="M21.5349 17.0387C21.6228 17.9933 20.8545 18.1795 19.9 18.2597C18.9455 18.3451 18.1617 18.2933 18.0763 17.3388C17.9884 16.3843 18.6998 15.5462 19.6465 15.4608C20.6088 15.3806 21.4495 16.0842 21.5349 17.0387Z" fill="#221714"/>
<path d="M21.5478 16.5655C21.6073 16.6742 21.509 16.8345 21.3383 16.9406C21.1624 17.0389 20.914 16.9303 20.914 16.9303C20.914 16.9303 20.9528 16.6612 21.1236 16.5552C21.2943 16.4569 21.4909 16.4595 21.5478 16.5655Z" fill="#F6F6F6"/>
<path d="M14.8894 20.8854C15.8595 20.7302 16.5527 20.0266 16.4363 19.3152C16.3225 18.6039 15.443 18.1512 14.473 18.309C13.5029 18.4642 12.8097 19.1678 12.9261 19.8792C13.0399 20.5905 13.9194 21.0406 14.8894 20.8854Z" fill="#221714"/>
<path d="M15.3655 21.6511L15.3577 21.6563C15.3655 21.6589 15.3759 21.6616 15.3837 21.6616L15.3655 21.6511Z" fill="#C3351E"/>
<path d="M16.7597 22.4194L16.426 22.2332C15.3137 22.7402 14.7472 25.1459 14.5894 25.94C14.9308 26.3047 15.4223 26.5117 16.1259 26.3306C18.3402 25.7744 16.7597 22.4194 16.7597 22.4194Z" fill="#C3351E"/>
<path d="M16.426 22.2383L15.3887 21.6692C15.3809 21.6666 15.368 21.6641 15.3628 21.6641L13.8004 23.661C13.8004 23.661 13.8547 25.1717 14.5894 25.9529C14.7498 25.1459 15.3059 22.7427 16.426 22.2383Z" fill="#A62124"/>
<path d="M14.2453 20.5749C14.2428 20.5594 14.2428 20.5594 14.2609 20.5309C14.3824 20.3731 14.7265 20.1015 15.2594 20.2438C15.2723 20.2464 15.3033 20.2593 15.3137 20.2697C15.3163 20.2852 15.4042 20.6008 15.5361 21.069C15.5646 21.1828 15.6008 21.307 15.6396 21.4441C15.6577 21.5165 15.6836 21.5889 15.7017 21.6613C15.7198 21.7338 15.7405 21.7984 15.7586 21.8709C15.7767 21.9433 15.7896 22.0131 15.8078 22.0856L15.8233 22.1373C15.8181 22.158 15.8026 22.1658 15.7922 22.1839L15.7301 22.2796C15.6913 22.3391 15.65 22.4037 15.6008 22.4684L15.5336 22.5615L15.4792 22.6314L15.3965 22.7297C15.2878 22.8616 15.1714 22.9935 15.0472 23.1229C14.7963 23.3738 14.5144 23.6118 14.191 23.7851C13.8677 23.961 13.4978 24.0774 13.1537 24.0696C13.0709 24.0722 12.9856 24.0619 12.908 24.0515C12.8692 24.0438 12.8356 24.036 12.8019 24.036C12.789 24.0334 12.7683 24.0282 12.7554 24.0256C12.7347 24.0205 12.7217 24.0179 12.7036 24.0153C12.582 23.9817 12.4863 23.948 12.4061 23.917C12.2432 23.8549 12.1526 23.8006 12.1526 23.8006C12.1526 23.8006 12.0983 23.7696 12.0052 23.6945C11.9121 23.6195 11.7879 23.5109 11.6741 23.3453C11.5525 23.1824 11.4542 22.9521 11.4361 22.7116C11.418 22.4762 11.4853 22.2615 11.568 22.1037C11.6379 21.9692 11.7051 21.876 11.775 21.8088C11.8448 21.7415 11.8991 21.7001 11.9457 21.6769C12.0466 21.6225 12.1035 21.6355 12.132 21.6898C12.1992 21.7855 12.1449 22.0442 12.1552 22.277C12.1656 22.2666 12.163 22.3339 12.1733 22.4167C12.1889 22.502 12.2277 22.5771 12.2949 22.6391C12.357 22.6986 12.4527 22.7555 12.5484 22.7892C12.6364 22.8228 12.7062 22.8435 12.7062 22.8435C12.7062 22.8435 12.7554 22.8668 12.8485 22.9004C12.9494 22.9366 13.0658 22.9677 13.1951 22.9625C13.3245 22.9573 13.5004 22.9056 13.6918 22.7969C13.8858 22.6831 14.0901 22.5176 14.2841 22.321C14.3799 22.2201 14.4704 22.1166 14.5609 22.0131C14.5816 21.9847 14.6075 21.9562 14.6256 21.933C14.5687 21.7234 14.5144 21.5294 14.4704 21.3639C14.3385 20.906 14.2557 20.5982 14.2453 20.5749Z" fill="#221714"/>
<path d="M15.1248 22.6082C15.1119 22.6056 15.1145 22.5978 15.1119 22.572C15.0964 22.4814 15.1093 22.3288 15.174 22.1581C15.2438 21.9899 15.3706 21.8063 15.5698 21.6407C15.5775 21.6356 15.6086 21.6149 15.6163 21.6174C15.6241 21.62 15.6784 21.6433 15.7767 21.6925C15.8776 21.7339 16.0121 21.7985 16.1751 21.8606C16.501 21.9848 16.9537 22.1167 17.365 22.1296C17.5668 22.14 17.7504 22.1115 17.8823 22.0572C18.0169 22.0055 18.1048 21.9356 18.1721 21.8477C18.2471 21.7545 18.2729 21.6925 18.2833 21.6485C18.2936 21.6019 18.2962 21.5838 18.2962 21.5838C18.2962 21.5838 18.3066 21.5709 18.3195 21.5424C18.3324 21.5114 18.3428 21.4674 18.3454 21.3924C18.3557 21.2527 18.2885 21.0199 18.2109 20.8155C18.0505 20.4819 18.0039 20.3292 18.0996 20.2568C18.2005 20.1973 18.4333 20.2465 18.6713 20.4068C18.6558 20.3836 18.9352 20.5646 19.155 20.9035C19.2611 21.0691 19.3439 21.2838 19.3749 21.4597C19.3904 21.545 19.3956 21.62 19.3956 21.6744C19.4008 21.7235 19.4008 21.752 19.4008 21.752C19.4008 21.752 19.3956 21.7778 19.3853 21.8244C19.3749 21.8709 19.3594 21.9408 19.3361 22.0236C19.2792 22.1865 19.1731 22.4012 19.0024 22.5952C18.8291 22.8022 18.5497 22.9988 18.2393 23.11C17.9315 23.2187 17.6056 23.2523 17.3029 23.2342C16.6976 23.2057 16.1725 23.0324 15.7819 22.8927C15.3861 22.7453 15.1378 22.6185 15.1248 22.6082Z" fill="#221714"/>
<path d="M26.3126 21.9485C26.2169 22.1916 23.8345 27.2488 23.7388 27.6239C23.8009 27.3678 26.1626 22.3184 26.3126 21.9485Z" fill="#E3BE7F"/>
<path d="M26.3905 21.7595C26.3905 21.7595 26.3905 21.7624 26.3876 21.7653C26.3876 21.7624 26.3905 21.7624 26.3905 21.7595Z" fill="#E3BE7F"/>
<path d="M26.3876 21.7646C26.3592 21.8293 26.3359 21.8888 26.3126 21.9483C26.3385 21.8811 26.3644 21.819 26.3876 21.7646Z" fill="#E3BE7F"/>
<path d="M23.6301 28.4127C23.6301 28.4127 23.612 28.4102 23.5836 28.4076C23.6198 28.1308 23.6741 27.8695 23.7362 27.6238C23.6198 28.1334 23.6301 28.4127 23.6301 28.4127Z" fill="#E3BE7F"/>
<path d="M26.7291 21.0611C26.8455 20.8438 26.9748 20.6161 27.1249 20.373C28.4183 18.3062 30.9093 14.4777 33.9074 16.1255C36.9055 17.7733 35.2629 22.4941 34.8412 23.2365C34.7455 23.4047 34.4532 23.9867 34.0238 24.7808C31.8587 24.8171 29.0003 24.1393 26.7291 21.0611Z" fill="white"/>
<path d="M27.6164 32.466L31.0464 29.5171C29.9496 30.9527 28.7468 32.1504 27.6164 32.466Z" fill="white"/>
<path d="M23.5862 28.4074C23.612 28.41 23.6327 28.4125 23.6327 28.4125C23.6327 28.4125 23.6198 28.1332 23.7414 27.6236C23.8371 27.2485 26.2195 22.1914 26.3152 21.9482C26.3411 21.8861 26.3644 21.8266 26.3902 21.7645C26.3902 21.762 26.3902 21.762 26.3928 21.7594C26.4859 21.5421 26.6023 21.3067 26.7343 21.0583C29.0029 24.1366 31.8638 24.8143 34.029 24.7781C33.328 26.0741 32.2544 27.9366 31.049 29.5171L27.6189 32.466C27.3913 32.5307 27.1689 32.5617 26.949 32.5488C23.7802 32.0651 23.3689 30.037 23.5862 28.4074Z" fill="#E3BE7F"/>
<path d="M28.9666 17.4553C28.9925 17.4242 29.0029 17.4139 29.0649 17.3984C29.2693 17.3337 29.5668 17.3052 29.7944 17.4294C30.0246 17.5561 30.1876 17.8355 30.1824 18.3451C30.1824 18.3632 30.1721 18.446 30.154 18.4745C29.6211 19.0927 29.1296 19.7782 28.6614 20.4792C27.4948 22.2563 26.4678 24.1602 25.6349 26.1158C25.2288 27.0884 24.8537 28.0998 24.6726 29.0595C24.6286 29.2975 24.6028 29.5303 24.6079 29.7217C24.6028 29.8149 24.626 29.9235 24.6209 29.9054L24.6648 30.0089L24.7347 30.146C24.9339 30.5185 25.2288 30.8444 25.5728 31.0901C25.9194 31.3359 26.3307 31.4988 26.7731 31.5868C26.9929 31.6385 27.2257 31.6489 27.4586 31.667C27.575 31.6747 27.6965 31.6618 27.8155 31.6618C27.9319 31.6592 28.0716 31.6592 28.1285 31.6463C28.4441 31.5997 28.8658 31.3695 29.2434 31.085C29.6289 30.7952 29.9988 30.4486 30.348 30.0735C31.7422 28.5577 32.8778 26.7159 33.7625 24.8095C34.1997 23.8523 34.5722 22.8642 34.8334 21.8631C35.0869 20.8672 35.2396 19.8403 35.1283 18.9116C35.0714 18.4512 34.9447 18.0244 34.73 17.6907C34.5204 17.3518 34.223 17.1086 33.8505 16.9379C33.4624 16.7749 33.1003 16.718 32.6968 16.7905C32.2984 16.8603 31.8845 17.0466 31.4887 17.3052C30.692 17.8252 29.9755 18.5909 29.3288 19.4031C28.6795 20.2205 28.0949 21.1104 27.5491 22.0261L27.2309 22.5719L27.0473 22.8978L26.6877 23.5549C26.6877 23.5549 26.3773 24.0541 25.9582 24.7293C25.5418 25.4148 25.0192 26.2761 24.5872 26.9901C23.8759 28.2162 23.581 28.5577 23.4879 28.3663C23.3999 28.1697 23.5448 27.4428 23.8164 26.5943C23.7646 26.6719 24.1164 25.6683 24.5277 24.6594C24.9365 23.648 25.4098 22.6366 25.4098 22.6366L25.7797 21.9666L25.9712 21.6329L26.191 21.2578C26.3307 21.0224 26.4756 20.787 26.6204 20.5542C27.2102 19.623 27.844 18.7098 28.5838 17.8562C28.9563 17.4294 29.3521 17.0155 29.797 16.6327C30.2393 16.2498 30.7308 15.8954 31.3025 15.6212C31.869 15.347 32.539 15.1634 33.24 15.2022C33.5866 15.2229 33.9358 15.3005 34.2514 15.4169C34.5618 15.5255 34.8671 15.6911 35.149 15.8903C35.7181 16.2912 36.1423 16.8888 36.3803 17.4992C36.6209 18.1149 36.7114 18.7409 36.727 19.341C36.7528 20.5439 36.5226 21.6743 36.2096 22.7556C35.8914 23.8368 35.475 24.8715 34.9938 25.8726C34.5127 26.8711 33.9643 27.8386 33.3486 28.7646C32.7304 29.6881 32.0527 30.5805 31.2508 31.398C30.8472 31.8067 30.4126 32.1947 29.9056 32.5387C29.6495 32.7094 29.3728 32.8672 29.0598 32.9966C28.9822 33.0302 28.902 33.0587 28.8166 33.0871C28.7338 33.1156 28.6459 33.1388 28.5553 33.1595C28.3846 33.2035 28.1544 33.2242 28.0276 33.2242C27.4301 33.2604 26.8067 33.2113 26.191 33.0664C25.5754 32.9138 24.9727 32.6241 24.4579 32.2154C23.9483 31.7989 23.5318 31.2841 23.2499 30.6762L23.1981 30.5573C23.18 30.5133 23.1697 30.4874 23.1438 30.4176C23.0921 30.2934 23.0817 30.1485 23.0688 30.0632C23.0533 29.9623 23.0507 29.8743 23.0481 29.789C23.0455 29.701 23.0429 29.6105 23.0507 29.5329C23.061 29.1992 23.118 28.9069 23.1723 28.612C23.418 27.4609 23.8164 26.4314 24.2432 25.4122C25.1149 23.3867 26.1548 21.4648 27.3628 19.623C27.8517 18.878 28.3691 18.1511 28.9666 17.4553Z" fill="#1E1A1A"/>
<path d="M28.6407 18.6297C28.3407 18.6297 28.082 18.4021 28.0509 18.0968C27.9061 16.731 30.2652 16.0559 31.5741 15.7894L31.2559 12.8147C29.9263 12.5767 28.6252 11.8007 27.5129 10.5849C27.0938 10.7866 26.6463 10.9134 26.1755 10.9625C26.0307 10.9781 25.8806 10.9858 25.7358 10.9858C23.6353 10.9858 21.8815 9.40789 21.659 7.31778C21.4547 5.42944 22.5722 3.67561 24.3131 3.03667C24.3053 2.98235 24.3001 2.92803 24.2924 2.87371C24.2743 2.71592 24.3208 2.55812 24.4191 2.43396C24.5174 2.30979 24.6623 2.23219 24.8201 2.21408L38.0824 0.796532C38.1031 0.793945 38.1238 0.793945 38.1445 0.793945C38.2816 0.793945 38.4135 0.840507 38.5196 0.925871C38.6438 1.02675 38.7214 1.17161 38.7369 1.32941C38.7421 1.39149 38.7498 1.45616 38.755 1.51824C40.5424 1.81572 41.9652 3.28759 42.1643 5.13196C42.2808 6.22099 41.9652 7.29191 41.2771 8.14554C40.589 8.99918 39.6086 9.53205 38.5196 9.64846C38.3747 9.66398 38.2247 9.67174 38.0798 9.67174C37.7849 9.67174 37.4926 9.6407 37.2081 9.57862C36.3752 11.0065 35.2913 12.0128 34.0367 12.5224L34.3549 15.4946C34.4118 15.4946 34.4687 15.4946 34.523 15.4946C35.6043 15.4946 38.1393 15.642 38.2842 17.0078C38.3023 17.1656 38.2557 17.3208 38.1549 17.445C38.054 17.5691 37.9117 17.6468 37.7539 17.6623L28.7002 18.6297C28.6821 18.6297 28.6614 18.6297 28.6407 18.6297ZM24.8278 5.57171C24.3596 5.89764 24.0828 6.46156 24.1475 7.05652C24.2354 7.87135 24.9184 8.487 25.7358 8.487C25.7927 8.487 25.8496 8.48441 25.9091 8.47665C25.9427 8.47406 25.9763 8.46889 26.01 8.46372C25.5237 7.57904 25.1279 6.61159 24.8278 5.57171ZM38.7834 4.12829C38.7084 5.19145 38.5274 6.20547 38.2428 7.15999C38.248 7.15999 38.2506 7.15999 38.2557 7.15999C39.1327 7.06686 39.769 6.27531 39.6759 5.3984C39.6138 4.83189 39.2672 4.3611 38.7834 4.12829Z" fill="white"/>
<path d="M38.1471 1.38889C38.1704 1.61394 38.1859 1.8364 38.1988 2.05886C39.9216 2.11318 41.3857 3.42985 41.572 5.19403C41.7789 7.12117 40.3821 8.84913 38.4549 9.05607C38.3282 9.06901 38.2014 9.07677 38.0772 9.07677C37.6711 9.07677 37.2779 9.00693 36.9106 8.87759C36.0596 10.515 34.8412 11.6842 33.39 12.1188L33.8168 16.1076C34.0574 16.0947 34.2902 16.0895 34.5179 16.0895C36.3027 16.0895 37.6246 16.4672 37.6892 17.0699L33.1184 17.5588L28.6381 18.0373C28.5657 17.357 30.1126 16.6198 32.2208 16.2783L31.794 12.2895C30.273 12.1705 28.8244 11.2729 27.6422 9.83469C27.1947 10.1244 26.6748 10.3158 26.1109 10.3779C25.9841 10.3908 25.8573 10.3986 25.7332 10.3986C23.9612 10.3986 22.4402 9.06125 22.2488 7.26086C22.0574 5.46822 23.2525 3.84632 24.9727 3.46348C24.939 3.24619 24.908 3.0289 24.8847 2.80903L31.4706 2.10542L38.1471 1.38889ZM38.0824 7.7601C38.16 7.7601 38.2376 7.75493 38.3178 7.74717C39.5233 7.61783 40.395 6.53656 40.2682 5.33113C40.1518 4.25244 39.2723 3.44278 38.2247 3.37553C38.1859 4.93535 37.9117 6.39687 37.4487 7.66439C37.6478 7.72906 37.8625 7.7601 38.0824 7.7601ZM25.7358 9.07936C25.8134 9.07936 25.8936 9.07418 25.9712 9.06642C26.3023 9.03021 26.6075 8.92156 26.8739 8.7586C26.16 7.62042 25.5909 6.25978 25.2262 4.75169C24.1682 5.00519 23.4361 6.00627 23.5551 7.11858C23.6767 8.24383 24.6286 9.07936 25.7358 9.07936ZM38.1471 0.198975C38.1057 0.198975 38.0617 0.201561 38.0203 0.206735L31.3439 0.920683L24.758 1.6217C24.4424 1.65533 24.1553 1.81312 23.9561 2.06145C23.819 2.23218 23.7336 2.43394 23.7052 2.64865C21.9462 3.48935 20.8494 5.36734 21.0666 7.38502C21.3227 9.78037 23.3301 11.5859 25.7358 11.5859C25.9039 11.5859 26.072 11.5756 26.2402 11.5601C26.6308 11.5187 27.0085 11.4307 27.368 11.2988C28.3769 12.3102 29.5254 12.9983 30.7101 13.3087L30.9248 15.329C29.3417 15.717 27.2852 16.5396 27.4586 18.1641C27.5232 18.7746 28.0406 19.2273 28.6407 19.2273C28.6821 19.2273 28.7261 19.2247 28.7675 19.2195L33.2477 18.7409L37.8186 18.252C38.1316 18.2184 38.4213 18.0606 38.6179 17.8149C38.8171 17.5691 38.9076 17.2561 38.874 16.9405C38.7395 15.6834 37.3271 14.9643 34.8878 14.8996L34.6731 12.8793C35.7595 12.3309 36.7321 11.4204 37.503 10.2279C37.6944 10.2512 37.8858 10.2641 38.0798 10.2641C38.248 10.2641 38.4161 10.2563 38.5817 10.2382C41.1581 9.96403 43.0309 7.6437 42.7541 5.06728C42.5446 3.10392 41.1219 1.51047 39.2775 1.02157C39.2077 0.804279 39.0757 0.610271 38.8947 0.462825C38.6851 0.292098 38.4187 0.198975 38.1471 0.198975Z" fill="#AA3B0B"/>
<path d="M24.8847 2.80638C24.9106 3.02626 24.939 3.24614 24.9727 3.46084C23.2525 3.84368 22.0574 5.46558 22.2488 7.25822C22.4557 9.18536 24.1837 10.5796 26.1109 10.3753C26.6774 10.3158 27.1973 10.1218 27.6422 9.83205C28.8244 11.2703 30.2756 12.1679 31.794 12.2869L32.2208 16.2757C30.1152 16.6171 28.5657 17.3544 28.6381 18.0347L33.1184 17.5561L31.4681 2.10278L24.8847 2.80638ZM25.9712 9.06637C24.7657 9.19571 23.6845 8.32138 23.5551 7.11594C23.4361 6.00622 24.1682 5.00255 25.2262 4.74905C25.5909 6.25714 26.16 7.62036 26.8739 8.75596C26.6075 8.9241 26.3023 9.03274 25.9712 9.06637Z" fill="#E2CA55"/>
<path d="M38.1988 2.05889C38.1859 1.83643 38.1704 1.61396 38.1471 1.38892L31.4706 2.10286L33.121 17.5562L37.6918 17.0673C37.6194 16.387 35.9509 15.9938 33.8194 16.105L33.3926 12.1162C34.8438 11.6817 36.0622 10.5125 36.9132 8.87503C37.3918 9.04575 37.9169 9.11301 38.4549 9.0561C40.3821 8.84916 41.7763 7.1212 41.572 5.19405C41.3857 3.42988 39.9216 2.11321 38.1988 2.05889ZM38.3178 7.7472C38.0152 7.77824 37.7203 7.74978 37.4461 7.66442C37.9117 6.3969 38.1833 4.93796 38.2221 3.37556C39.2698 3.44022 40.1493 4.25247 40.2657 5.33115C40.395 6.53917 39.5233 7.62044 38.3178 7.7472Z" fill="#D8B10E"/>
<path opacity="0.7" d="M29.3262 3.89795C29.3573 4.436 29.6651 6.05273 29.6651 6.05273C29.6651 6.05273 30.3506 8.04972 30.379 8.11956C30.4075 8.1894 30.0091 6.00358 30.0091 6.00358L29.3262 3.89795Z" fill="white"/>
<path opacity="0.7" d="M27.8906 6.76404C28.426 6.60625 30.0272 6.09924 30.0272 6.09924C30.0272 6.09924 31.6284 5.1499 31.6698 5.12144C31.6828 5.1111 29.8617 5.86126 29.8617 5.86126L27.8906 6.76404Z" fill="white"/>
<path d="M30.2549 5.89765C30.0324 5.51481 30.3997 4.94055 30.4825 4.76724C30.4566 4.81638 30.4308 4.87071 30.3997 4.9302C30.4127 4.90433 30.4256 4.87588 30.4282 4.86812C30.4463 4.8319 30.4644 4.79569 30.4799 4.76465C30.454 4.8138 30.4101 4.88881 30.3532 4.97159C30.3532 4.97159 29.9496 5.53033 29.7091 5.56913C29.171 5.65708 28.2113 5.10352 28.5864 5.3027C29.8539 5.97267 29.3262 7.01772 29.1658 7.36435C29.1891 7.31779 29.2176 7.25829 29.2538 7.19104C29.2486 7.20397 29.2434 7.21432 29.2409 7.22208C29.2124 7.2764 29.1891 7.32555 29.1684 7.36435C29.6056 6.56763 29.8617 6.05286 31.0128 6.54952C31.393 6.71507 30.511 6.34258 30.2549 5.89765Z" fill="white"/>
</svg>
