<svg width="55" height="47" viewBox="0 0 55 47" fill="none" xmlns="http://www.w3.org/2000/svg">
<path d="M39.6369 24.9702C39.6369 33.6424 30.5566 40.2929 20.1327 41.3119C6.99991 42.5964 1.13782 34.2657 1.13782 25.5936C1.13782 16.9214 9.6438 9.87526 20.1327 9.87526C30.6216 9.87526 39.6369 16.2981 39.6369 24.9702Z" fill="white"/>
<path d="M12.9812 41.3118C12.9812 41.3118 4.34518 38.9486 7.15161 30.9377C7.15161 30.9377 8.23517 28.9106 11.2096 28.3956C14.1839 27.8807 15.598 24.5203 15.598 24.5203C15.598 24.5203 16.1398 22.1951 18.3069 22.3523C20.4741 22.5095 20.3386 21.3225 20.3386 21.3225C20.3386 21.3225 20.7774 19.7831 22.5491 20.3685C24.3207 20.9539 27.9019 21.1707 30.2587 19.2845C32.6154 17.3983 35.904 19.0243 35.904 19.0243C35.904 19.0243 42.9472 24.4444 36.5271 33.5177C36.5271 33.5177 40.623 29.7995 40.8072 24.8889C40.9914 19.9782 39.3769 14.4009 29.9336 7.9456L27.1596 6.54724L22.8254 1.86426L19.6126 1.41984L18.2527 5.886L17.0717 9.57706C16.218 9.44045 15.3444 9.50242 14.5185 9.75808C13.6926 10.0137 12.9367 10.4562 12.3094 11.0513C10.2831 13.0839 9.98513 12.3793 9.98513 12.3793C9.98513 12.3793 6.10056 9.76676 5.02241 9.70714C3.94426 9.64752 2.12927 9.46326 2.12927 9.46326L1.86923 19.317C1.86923 19.317 0.243879 29.1545 1.86923 32.8672C3.49458 36.58 6.30102 40.9866 12.9812 41.3118Z" fill="#EBC481"/>
<path d="M15.5275 40.5206C15.5746 40.5216 15.6193 40.5411 15.6521 40.5749C15.9083 40.762 16.0981 41.0259 16.1939 41.3283C16.2968 41.6589 16.1939 42.0871 15.6142 42.5261C15.56 42.5639 15.4994 42.5915 15.4354 42.6074C14.2241 42.5604 13.019 42.4116 11.8326 42.163C9.94673 41.7826 8.1364 41.0941 6.47431 40.125C4.77469 39.1262 3.32704 37.7503 2.24299 36.1033C2.10337 35.9009 1.97494 35.691 1.85831 35.4746C1.72893 35.2654 1.61314 35.0482 1.5116 34.8242C1.40324 34.6074 1.29487 34.3851 1.19735 34.1629L0.931884 33.4799C0.841274 33.2532 0.763499 33.0217 0.698921 32.7862C0.633907 32.5531 0.547219 32.3255 0.493041 32.087L0.335903 31.3824L0.298007 31.2306L0.260078 31.1276C0.260078 31.0517 0.21132 30.9596 0.195067 30.8946L0.151715 30.6832C0.0663553 30.1887 0.0156494 29.6888 0 29.1873V28.8295V28.4772C0 28.2387 0 28.0057 0 27.7726C0 26.8404 0.065014 25.9189 0.135446 25.0029V24.8999V24.8023C0.276309 23.0787 0.476773 21.366 0.715157 19.6641L0.758509 19.3443V19.2847V19.2305L0.726004 18.5746C0.726004 18.141 0.726005 17.7075 0.693498 17.2684C0.693498 16.4012 0.693498 15.5286 0.693498 14.6559C0.693498 13.7833 0.796445 12.9052 0.904801 12.0218C0.904801 11.7995 0.958965 11.5827 0.991472 11.3605L1.10526 10.6939C1.1486 10.4716 1.20276 10.244 1.25152 10.0218C1.2852 9.84912 1.33604 9.68023 1.40323 9.51767L1.61454 8.97566L1.72287 8.6938L1.77706 8.55288V8.48784V8.44993H1.90709C2.10213 8.41741 2.28634 8.37402 2.4868 8.35776C2.69042 8.33849 2.8954 8.33849 3.09902 8.35776C3.2055 8.35236 3.31217 8.35236 3.41865 8.35776H3.6733C4.15236 8.4242 4.62525 8.52938 5.08735 8.67217C5.9634 8.95183 6.81064 9.31483 7.61747 9.75619L7.92086 9.9079L8.21345 10.076L8.79316 10.412L9.33494 10.7697L9.61665 10.9486L9.88754 11.1329L9.92004 11.16L10.3372 10.8944C10.5323 10.7752 10.7219 10.6559 10.9169 10.5475C12.4806 9.61811 14.181 8.94128 15.9555 8.54203L16.5732 8.43365L16.6219 8.05427C16.7411 7.18705 16.8928 6.31981 17.0879 5.45259C17.2793 4.56507 17.5383 3.69354 17.8626 2.84556C18.042 2.39254 18.2595 1.95554 18.5127 1.53929C18.5832 1.43089 18.6482 1.3225 18.7294 1.2141L18.789 1.13278L18.8812 1.01356L19.0924 0.785889C19.161 0.706536 19.2353 0.632247 19.3146 0.563646L19.553 0.373956C19.7101 0.243873 19.878 0.124662 20.0405 0H20.0785C20.0785 0 20.0785 0 20.1164 0L20.1977 0.0324862L20.3602 0.0920994L20.6853 0.227602C20.8966 0.308904 21.1187 0.406476 21.3354 0.509458L22.0072 0.840077C22.4515 1.06772 22.8849 1.31704 23.3129 1.5772C24.1662 2.09393 24.9811 2.67182 25.751 3.30625C26.5282 3.94832 27.2529 4.65157 27.9181 5.40925L28.3569 5.95127L28.6712 6.11925C29.11 6.35774 29.5326 6.60706 29.9498 6.86181C31.7466 7.95161 33.4387 9.2054 35.0046 10.6071C36.5941 12.0219 37.9944 13.636 39.1709 15.4093C39.7966 16.3675 40.3283 17.384 40.7584 18.4446C40.969 18.9761 41.1498 19.519 41.3001 20.0706C41.3651 20.3524 41.4518 20.6126 41.506 20.9216L41.5818 21.3552C41.5818 21.4961 41.636 21.6425 41.6523 21.7888C41.8121 22.9505 41.8121 24.1285 41.6523 25.2902C41.5709 25.8661 41.4533 26.4364 41.3001 26.9975C41.2243 27.2794 41.1376 27.5395 41.0509 27.8322L40.9913 27.9894C40.7784 28.5986 40.5325 29.1957 40.2545 29.778L39.9619 30.2604C39.7777 30.5585 39.5068 30.9705 39.1709 31.4258C38.835 31.881 38.4341 32.3634 38.0061 32.8295C37.5879 33.2823 37.1428 33.7095 36.6733 34.1087C36.1846 34.5634 35.6381 34.9516 35.0479 35.2632C34.712 35.4204 34.5658 35.3933 34.582 35.2632C34.582 34.9867 35.178 34.2334 35.8335 33.3011C35.736 33.3716 36.5812 32.3038 37.2693 31.1331C37.616 30.5423 37.9194 29.9244 38.1361 29.4583L38.3799 28.9162L38.4612 28.6994L38.6129 28.3688L38.7483 28.0382C38.8458 27.816 38.9217 27.5883 39.0029 27.3661L39.0517 27.2306C39.1276 26.9921 39.2034 26.7536 39.2684 26.5151C39.3968 26.0373 39.4963 25.5523 39.5664 25.0626C39.6991 24.0878 39.6991 23.0996 39.5664 22.1248C39.5549 22.0026 39.535 21.8812 39.5068 21.7617L39.4418 21.3986C39.3985 21.1547 39.3226 20.9216 39.2684 20.6831C39.1362 20.2005 38.9752 19.7263 38.7863 19.263C38.4042 18.3281 37.9343 17.4316 37.383 16.5855C36.3129 14.965 35.0382 13.4894 33.5905 12.1952C32.1234 10.8799 30.5383 9.70227 28.8554 8.67753C28.4581 8.43904 28.0626 8.21146 27.6689 7.99466L27.3546 7.83203L27.035 7.6694C27.0101 7.65532 26.9895 7.63472 26.9754 7.60978L26.9158 7.53932L26.802 7.39839L26.3361 6.85638C25.7437 6.18978 25.1007 5.57008 24.4127 5.00275C23.7194 4.42667 22.9842 3.90307 22.2131 3.43633C21.8284 3.20868 21.4384 2.98106 21.0374 2.77509C20.8388 2.6703 20.6383 2.57272 20.4361 2.48238L20.4036 2.52572C20.3541 2.59143 20.3088 2.66022 20.2681 2.73169C20.0785 3.04365 19.9171 3.37201 19.7859 3.71276C19.501 4.45687 19.2728 5.22146 19.1033 6.00003C18.9245 6.79678 18.7836 7.62605 18.6699 8.42822L18.6319 8.73721L18.594 9.01357L18.5615 9.32255C18.5615 9.53394 18.5236 9.75071 18.5019 9.96752L18.4748 10.2873V10.3686V10.4066H18.3123L17.0391 10.5367H16.9795H16.9307H16.8928H16.8224H16.6815L16.3998 10.5854C14.8454 10.9423 13.3558 11.5384 11.9842 12.3524L11.4425 12.6668L11.1878 12.8293L11.0524 12.9161L10.7923 13.0895C10.6136 13.2087 10.4402 13.3443 10.2506 13.4689L9.99048 13.6641L9.92547 13.7074L9.85503 13.6641L9.72501 13.5719L8.70646 12.8673L8.45183 12.6938L8.19176 12.5313L7.64997 12.206C7.4766 12.0976 7.29781 12.0001 7.10819 11.9025L6.84272 11.7508L6.57725 11.6098C5.88615 11.2366 5.16034 10.9317 4.41012 10.6993C4.05617 10.5886 3.69377 10.507 3.32656 10.4553H3.26697V10.5584C3.22362 10.7481 3.17487 10.9377 3.14237 11.1329L3.03943 11.7236C3.00692 11.9242 2.98524 12.1248 2.95815 12.3253C2.86063 13.1383 2.79562 13.9513 2.76311 14.7914C2.73061 15.6315 2.72519 16.4554 2.73603 17.2901C2.73603 17.7074 2.73603 18.1248 2.76854 18.5367L2.80104 19.1601C2.80104 19.1872 2.80104 19.3227 2.80104 19.4256L2.76854 19.6858L2.72518 20.0001C2.4868 21.6695 2.29718 23.3498 2.1834 25.0192V25.1168V25.2088C2.11839 26.0923 2.06421 26.9758 2.05338 27.8484C2.05338 28.0652 2.05338 28.2821 2.05338 28.4989V28.8241V29.1384C2.06271 29.5402 2.10254 29.9406 2.17255 30.3363V30.4555C2.17255 30.4989 2.17255 30.5152 2.19964 30.5477V30.4989V30.5314C2.19964 30.5314 2.19964 30.5314 2.19964 30.5639V30.6236V30.7048V30.7428V30.797L2.24299 30.9758L2.38386 31.5883C2.4272 31.7943 2.50305 31.9894 2.55723 32.1899C2.6108 32.3905 2.67592 32.5878 2.75227 32.7808L2.97981 33.3607L3.24527 33.9027C3.33206 34.089 3.42977 34.27 3.53786 34.4447C3.63214 34.6324 3.73891 34.8134 3.85749 34.9867C4.76947 36.3671 5.98522 37.5204 7.41159 38.358C8.87651 39.2078 10.4706 39.812 12.1305 40.1467C13.2496 40.3716 14.3864 40.4967 15.5275 40.5206V40.5206Z" fill="#231815"/>
<path d="M3.68415 12.9322C3.68415 12.9322 3.46201 16.4716 3.97671 17.8103C4.48465 16.8877 5.33198 16.1994 6.33887 15.8916L3.68415 12.9322Z" fill="#ED7A49"/>
<path d="M22.6464 8.72091C23.6499 8.3311 24.6873 8.03534 25.7454 7.83743C25.7454 7.83743 23.1611 4.88344 22.2021 4.95932L22.6464 8.72091Z" fill="#ED7A49"/>
<path d="M11.8271 21.6802C12.4255 21.6802 12.9107 21.1949 12.9107 20.5962C12.9107 19.9975 12.4255 19.5122 11.8271 19.5122C11.2287 19.5122 10.7435 19.9975 10.7435 20.5962C10.7435 21.1949 11.2287 21.6802 11.8271 21.6802Z" fill="white"/>
<path d="M22.4677 16.6939C23.0662 16.6939 23.5513 16.2086 23.5513 15.6099C23.5513 15.0112 23.0662 14.5258 22.4677 14.5258C21.8693 14.5258 21.3842 15.0112 21.3842 15.6099C21.3842 16.2086 21.8693 16.6939 22.4677 16.6939Z" fill="white"/>
<path d="M9.7329 31.41C11.2001 30.7401 12.0642 29.4839 11.663 28.6043C11.2617 27.7247 9.74704 27.5547 8.27982 28.2245C6.8126 28.8944 5.94844 30.1505 6.34969 31.0301C6.75095 31.9097 8.26567 32.0798 9.7329 31.41Z" fill="#E58A4C"/>
<path d="M32.3054 21.1068C33.7726 20.437 34.6368 19.1809 34.2355 18.3013C33.8343 17.4217 32.3196 17.2516 30.8523 17.9214C29.3851 18.5913 28.521 19.8474 28.9222 20.7271C29.3235 21.6067 30.8382 21.7767 32.3054 21.1068Z" fill="#E58A4C"/>
<path d="M14.5955 42.5423C14.5426 42.5413 14.4922 42.5199 14.4546 42.4826C14.1815 42.2935 13.9883 42.0096 13.9129 41.6859C13.8641 41.339 14.0158 40.9488 14.5684 40.5314C14.6181 40.5008 14.6707 40.4754 14.7255 40.4555C15.8408 40.5152 16.9585 40.5152 18.0738 40.4555C21.6431 40.3206 25.1607 39.5574 28.4652 38.2008L29.3049 37.8214L30.1284 37.404L30.2476 37.3498L30.589 37.1927L31.0982 36.9542L31.7321 36.6235C31.9651 36.5151 32.198 36.3688 32.4473 36.2279L32.8211 36.0165L33.1949 35.7834L33.5688 35.5504L33.7584 35.4311L33.9372 35.3064L34.6469 34.8295C35.0045 34.5422 35.3187 34.3146 35.5734 34.1249C35.7635 33.969 35.9625 33.8242 36.1693 33.6912C36.489 33.5015 36.6298 33.4961 36.6407 33.6371C36.5975 33.9239 36.4881 34.1967 36.321 34.4338L36.1422 34.7265C36.07 34.8277 35.9941 34.9306 35.9147 35.0354C35.7576 35.2522 35.5788 35.4853 35.3729 35.7129C35.2097 35.9268 35.0284 36.1263 34.8311 36.3092C34.6469 36.5043 34.4085 36.7103 34.1539 36.9487C34.0239 37.0626 33.8938 37.1872 33.7584 37.3011L33.3249 37.6534L32.8861 38.0003L32.4473 38.32L32.0301 38.6182L31.6454 38.8675L31.0657 39.236L30.8382 39.3661C30.5835 39.4962 30.3235 39.6317 30.0634 39.7564L29.2778 40.1087C28.3933 40.4877 27.489 40.8188 26.5689 41.1006L26.2276 41.2089L25.8809 41.3065L25.1928 41.4962C24.7268 41.6046 24.2663 41.7238 23.8004 41.816C21.9409 42.2069 20.0531 42.448 18.155 42.5369C16.9694 42.6008 15.7813 42.6027 14.5955 42.5423V42.5423Z" fill="#C30D23"/>
<path d="M13.4903 23.9134C14.2217 25.0408 13.4037 25.7833 12.2768 26.5204C11.1498 27.2576 10.1367 27.7074 9.40531 26.58C9.23029 26.3117 9.10978 26.0115 9.05072 25.6966C8.99167 25.3816 8.9952 25.0582 9.06111 24.7447C9.12701 24.4311 9.25401 24.1336 9.43484 23.8691C9.61567 23.6047 9.84682 23.3784 10.115 23.2033C10.3833 23.0282 10.6833 22.9077 10.9981 22.8486C11.3129 22.7896 11.6363 22.7931 11.9497 22.859C12.2631 22.925 12.5605 23.052 12.8248 23.2329C13.0892 23.4138 13.3153 23.6451 13.4903 23.9134V23.9134Z" fill="#231815"/>
<path d="M13.1923 23.3224C13.3386 23.4092 13.3332 23.6802 13.1923 23.9241C13.1864 23.9834 13.1656 24.0402 13.1318 24.0893C13.0979 24.1383 13.0522 24.178 12.9989 24.2046C12.9455 24.2312 12.8863 24.2437 12.8268 24.2412C12.7673 24.2386 12.7094 24.221 12.6585 24.19C12.6077 24.1589 12.5655 24.1155 12.536 24.0637C12.5065 24.0119 12.4906 23.9535 12.4898 23.894C12.489 23.8344 12.5033 23.7755 12.5314 23.7229C12.5595 23.6704 12.6005 23.6258 12.6506 23.5934C12.8131 23.3495 13.0515 23.2303 13.1923 23.3224Z" fill="#F7F7F7"/>
<path d="M28.3134 17.4959C28.7089 18.7805 27.7174 19.2683 26.4334 19.664C25.1494 20.0596 24.0496 20.206 23.6541 18.9377C23.5594 18.6316 23.526 18.3099 23.5556 17.9909C23.5853 17.6719 23.6774 17.3619 23.8269 17.0786C23.9763 16.7952 24.18 16.544 24.4265 16.3395C24.6729 16.1349 24.9572 15.9808 25.2631 15.8862C25.5691 15.7915 25.8906 15.7581 26.2095 15.7877C26.5284 15.8174 26.8383 15.9096 27.1215 16.0591C27.4048 16.2085 27.6558 16.4124 27.8603 16.6589C28.0648 16.9054 28.2187 17.1899 28.3134 17.4959Z" fill="#231815"/>
<path d="M28.1942 16.8401C28.308 16.9702 28.2267 17.2249 28.0154 17.4146C27.995 17.4723 27.96 17.5237 27.9137 17.5637C27.8674 17.6037 27.8116 17.6309 27.7516 17.6427C27.6916 17.6546 27.6296 17.6506 27.5716 17.6312C27.5136 17.6117 27.4617 17.5775 27.4209 17.5319C27.3802 17.4863 27.352 17.4309 27.3392 17.3711C27.3263 17.3113 27.3292 17.2492 27.3477 17.1908C27.3661 17.1325 27.3994 17.08 27.4443 17.0385C27.4892 16.9969 27.5441 16.9678 27.6037 16.9539C27.815 16.7696 28.0805 16.7154 28.1942 16.8401Z" fill="#F7F7F7"/>
<path d="M20.2925 24.7859C21.5806 24.284 22.3264 23.1106 21.9583 22.165C21.5901 21.2194 20.2475 20.8597 18.9593 21.3616C17.6712 21.8635 16.9254 23.037 17.2935 23.9826C17.6617 24.9282 19.0043 25.2878 20.2925 24.7859Z" fill="#231815"/>
<path d="M23.3398 26.3199L22.8306 26.1627C21.4436 27.198 21.3786 30.6723 21.4002 31.8159C21.7248 32.0431 22.1078 32.1721 22.5036 32.1874C22.8994 32.2028 23.2912 32.104 23.6324 31.9027C26.5038 30.4663 23.3398 26.3199 23.3398 26.3199Z" fill="#DB2F0E"/>
<path d="M22.8307 26.1628L21.2053 25.6858H21.162L19.6071 28.9C19.6071 28.9 20.1488 30.9596 21.3733 31.816C21.3787 30.6723 21.4437 27.198 22.8307 26.1628Z" fill="#BC0000"/>
<path d="M19.347 24.5259C19.347 24.5259 19.347 24.5259 19.347 24.4662C19.4693 24.2364 19.6573 24.0483 19.8869 23.9257C20.1166 23.8031 20.3775 23.7517 20.6364 23.7779C20.6632 23.7724 20.6909 23.7724 20.7177 23.7779C20.7177 23.7779 20.9452 24.2115 21.2594 24.8131L21.5141 25.2955L21.6604 25.5774L21.8012 25.8538L21.9313 26.1303L21.9638 26.2007C21.9654 26.2242 21.9654 26.2477 21.9638 26.2712L21.9096 26.4175C21.8717 26.5151 21.8283 26.6126 21.785 26.7102L21.72 26.8565L21.6658 26.9758L21.5845 27.1384C21.4732 27.358 21.3502 27.5715 21.2161 27.778C20.9461 28.2126 20.616 28.6067 20.2355 28.9487C19.8526 29.2897 19.3908 29.53 18.8919 29.6479C18.7792 29.6714 18.6652 29.6877 18.5505 29.6967H18.2526C18.1038 29.6903 17.9555 29.6758 17.8083 29.6533C17.6803 29.6343 17.5536 29.6071 17.4291 29.572C17.4291 29.572 17.3424 29.5395 17.1961 29.4691C17.0002 29.366 16.8181 29.2385 16.6543 29.0896C16.4138 28.8743 16.2376 28.5967 16.145 28.2874C16.0633 28.0023 16.0633 27.6999 16.145 27.4148C16.186 27.2504 16.2518 27.0933 16.3401 26.9487C16.3917 26.8575 16.4596 26.7766 16.5405 26.7102C16.6597 26.6126 16.7464 26.6126 16.806 26.6723C16.8656 26.7319 16.9252 27.1546 17.0119 27.469C17.0371 27.5291 17.0588 27.5906 17.0769 27.6533C17.1217 27.7674 17.2038 27.8629 17.3099 27.9243C17.4306 27.9926 17.5628 28.0386 17.7 28.0598C17.7757 28.0654 17.8518 28.0654 17.9275 28.0598C17.9989 28.0783 18.0712 28.0928 18.1442 28.1032C18.3075 28.1299 18.474 28.1299 18.6372 28.1032C18.8753 28.0281 19.0925 27.8981 19.2711 27.7237C19.5348 27.4786 19.7627 27.1976 19.9483 26.8891C20.0513 26.7265 20.1434 26.5584 20.2355 26.385L20.2951 26.2495L19.9104 25.5124L19.347 24.5259Z" fill="#231815"/>
<path d="M21.1458 27.0679C21.1458 27.0679 21.1458 27.0679 21.1133 27.0191C21.0548 26.8278 21.0437 26.625 21.0808 26.4283C21.146 26.1258 21.2794 25.8422 21.4709 25.5991C21.4882 25.58 21.5083 25.5635 21.5305 25.5503L21.7688 25.6099C21.9151 25.6099 22.121 25.6804 22.3703 25.7183C22.9374 25.8083 23.5151 25.8083 24.0823 25.7183C24.3263 25.6834 24.5606 25.5985 24.7703 25.469C24.9137 25.379 25.0298 25.2515 25.1062 25.1004C25.1602 25.0059 25.1917 24.9002 25.1983 24.7915C25.202 24.7591 25.202 24.7263 25.1983 24.6939V24.6289C25.2089 24.5588 25.2089 24.4875 25.1983 24.4175C25.1281 24.1442 25.0068 23.8867 24.8408 23.6586C24.5157 23.2521 24.4073 23.0516 24.5211 22.9269C24.6523 22.8667 24.796 22.8386 24.9402 22.8452C25.0844 22.8518 25.2249 22.8929 25.3501 22.9649C25.6613 23.0762 25.9404 23.2623 26.1627 23.5069C26.3594 23.7084 26.5158 23.9457 26.6232 24.2061C26.6658 24.2995 26.6967 24.3978 26.7153 24.4988L26.7424 24.6126C26.7446 24.6469 26.7446 24.6813 26.7424 24.7156C26.7424 24.7806 26.7424 24.8782 26.7424 24.9975C26.7043 25.3101 26.6048 25.6121 26.4499 25.8863C26.2393 26.2705 25.9309 26.5922 25.5559 26.8186C25.1727 27.046 24.7499 27.1986 24.3098 27.2685C23.5917 27.3795 22.8608 27.3795 22.1427 27.2685C21.8071 27.2189 21.4744 27.152 21.1458 27.0679Z" fill="#231815"/>
<path d="M6 34.8271H25.221C25.8362 34.8271 26.4245 35.079 26.8491 35.5242L29.8639 38.6848C30.6931 39.5541 30.6931 40.9215 29.8639 41.7908L26.8491 44.9515C26.4245 45.3966 25.8362 45.6485 25.221 45.6485H6C4.75736 45.6485 3.75 44.6411 3.75 43.3985V37.0771C3.75 35.8345 4.75736 34.8271 6 34.8271Z" fill="#0573C4" stroke="black" stroke-width="1.5"/>
<path d="M14.5808 38.0115V39.2916C14.5808 39.7717 14.7008 39.9099 15.2404 39.9099H15.9748C16.3795 39.9099 16.5219 39.728 16.5744 39.0153C16.432 38.9789 16.2296 38.9062 16.1247 38.8334C16.1097 39.3935 16.0722 39.4735 15.9074 39.4735H15.3003C15.1204 39.4735 15.0905 39.4444 15.0905 39.2916V38.0115H14.5808ZM12.6922 37.7788H15.9224V38.5861H16.4245V37.3133H12.2126V38.6152H12.6922V37.7788ZM13.3892 38.0261C13.3293 38.9571 13.1119 39.4298 12.0402 39.6844C12.1452 39.779 12.2726 39.9535 12.3175 40.0772C13.5466 39.7499 13.8314 39.1462 13.9063 38.0261H13.3892ZM12.0028 40.4772L11.9278 39.9753C11.6805 40.0553 11.4332 40.1354 11.1859 40.2081V38.8698H11.9878V38.3752H11.1859V36.9205H10.6688V38.3752H9.73195V38.8698H10.6688V40.3608C10.279 40.4772 9.91931 40.5863 9.63452 40.659L9.77692 41.1827L10.6688 40.899V42.9283C10.6688 43.0374 10.6313 43.0592 10.5413 43.0592C10.4514 43.0665 10.1591 43.0665 9.83687 43.0592C9.91182 43.2047 9.97927 43.4302 10.0017 43.5538C10.4664 43.5611 10.7512 43.5393 10.9311 43.4593C11.1184 43.372 11.1859 43.2265 11.1859 42.9283V40.739L12.0028 40.4772ZM16.4844 41.1318V40.6372H14.5284V39.859H13.9888V40.6372H12.0852V41.1318H13.6291C13.1869 41.8664 12.4524 42.5065 11.6805 42.8265C11.8079 42.9283 11.9578 43.1174 12.0402 43.2411C12.8047 42.8701 13.5091 42.2155 13.9888 41.4373V43.5538H14.5284V41.43C14.9855 42.1646 15.6451 42.8337 16.3046 43.2047C16.3945 43.0738 16.5744 42.8847 16.6943 42.7828C16.0123 42.4555 15.3153 41.8155 14.8881 41.1318H16.4844Z" fill="white"/>
<path d="M21.5881 37.2406H20.9061C20.9136 37.2988 20.9436 37.5097 20.9511 37.6988C20.9586 37.8006 20.9661 37.9752 20.9661 38.1788C19.8494 38.1934 18.4405 38.237 17.6086 38.2516L17.6236 38.8116C18.5604 38.7461 19.8344 38.6952 20.9736 38.688C20.9811 38.9425 20.9811 39.2044 20.9811 39.4226C20.8312 39.3717 20.6663 39.3426 20.479 39.3426C19.767 39.3426 19.1599 39.8881 19.1599 40.6081C19.1599 41.4009 19.7595 41.8228 20.389 41.8228C20.6438 41.8228 20.8612 41.7573 21.041 41.6264C20.7413 42.2883 20.0518 42.6956 19.055 42.9138L19.5571 43.3938C21.3034 42.8847 21.798 41.7937 21.798 40.8118C21.798 40.4481 21.7155 40.1281 21.5582 39.8808C21.5507 39.5462 21.5432 39.0953 21.5432 38.6807C21.5806 38.6807 21.6106 38.6807 21.6481 38.6807C22.7423 38.6807 23.4243 38.6952 23.844 38.7171L23.8515 38.1788C23.4917 38.1788 22.5699 38.1716 21.6556 38.1716C21.6181 38.1716 21.5806 38.1716 21.5432 38.1716C21.5432 37.9752 21.5507 37.8079 21.5507 37.6988C21.5582 37.6042 21.5732 37.3206 21.5881 37.2406ZM19.722 40.6008C19.722 40.1281 20.0893 39.8299 20.479 39.8299C20.7712 39.8299 21.0261 39.9681 21.146 40.2881C21.2134 40.9791 20.9286 41.3209 20.4865 41.3209C20.0668 41.3209 19.722 41.0518 19.722 40.6008Z" fill="white"/>
<path d="M40.9834 38.634C42.279 38.634 43.3293 37.5832 43.3293 36.2871C43.3293 34.9909 42.279 33.9402 40.9834 33.9402C39.6878 33.9402 38.6375 34.9909 38.6375 36.2871C38.6375 37.5832 39.6878 38.634 40.9834 38.634Z" fill="#EBC481"/>
<path d="M39.3147 36.1841C39.3147 36.1841 39.3147 36.2166 39.2822 36.2437C39.1524 36.3915 38.9939 36.5114 38.8163 36.596C38.6104 36.6719 38.3178 36.6827 38.0199 36.2383C37.9958 36.1957 37.9776 36.1502 37.9657 36.1028C37.9942 35.5994 38.148 35.1111 38.4132 34.6823C38.6784 34.2535 39.0465 33.8979 39.484 33.6477C39.9216 33.3975 40.4148 33.2608 40.9187 33.2499C41.4225 33.239 41.9212 33.3543 42.3691 33.5853C42.8171 33.8163 43.2003 34.1557 43.4837 34.5726C43.7672 34.9895 43.9419 35.4707 43.9921 35.9724C44.0423 36.4741 43.9664 36.9804 43.7711 37.4452C43.5759 37.91 43.2676 38.3187 42.8743 38.634C42.7562 38.7217 42.6311 38.7996 42.5004 38.867C42.1749 39.0302 41.8224 39.1331 41.4602 39.1706C40.9982 39.2146 40.5324 39.1419 40.1057 38.9592C39.6877 38.7789 39.3237 38.4932 39.0493 38.1299C38.7551 37.7727 38.5942 37.3244 38.5942 36.8616C38.5942 36.6123 38.6809 36.5526 38.7513 36.6014C38.8217 36.6502 39.1034 37.2626 39.6181 37.642C39.9878 37.9259 40.4415 38.0785 40.9076 38.0757C41.228 38.0599 41.5385 37.9588 41.807 37.783C42.1306 37.5529 42.3869 37.2404 42.5492 36.8779C42.6262 36.6537 42.6547 36.4158 42.6329 36.1798C42.6112 35.9439 42.5396 35.7153 42.423 35.509C42.3063 35.3028 42.1473 35.1236 41.9563 34.9834C41.7654 34.8432 41.5468 34.7452 41.3152 34.6957C41.0835 34.6463 40.844 34.6466 40.6125 34.6966C40.381 34.7466 40.1627 34.8452 39.9721 34.9859C39.7815 35.1266 39.6228 35.3061 39.5067 35.5126C39.3906 35.7192 39.3197 35.9481 39.2985 36.1841H39.3147Z" fill="#1B1B1B"/>
<path d="M43.053 29.6909C48.5855 29.6909 53.0705 25.204 53.0705 19.6691C53.0705 14.1342 48.5855 9.64734 43.053 9.64734C37.5204 9.64734 33.0354 14.1342 33.0354 19.6691C33.0354 25.204 37.5204 29.6909 43.053 29.6909Z" fill="#45D9FF"/>
<path d="M38.9572 38.4281C38.8941 38.4334 38.8306 38.4334 38.7676 38.4281C38.593 38.4029 38.4252 38.3435 38.2738 38.2532C38.1223 38.1629 37.9902 38.0436 37.885 37.9021C37.7797 37.7605 37.7035 37.5996 37.6606 37.4285C37.6178 37.2574 37.6092 37.0795 37.6352 36.9051L38.5021 30.9809C36.7988 30.4304 35.2461 29.4929 33.9655 28.2417C32.6849 26.9905 31.7113 25.4597 31.121 23.7692C30.5306 22.0787 30.3395 20.2744 30.5626 18.4977C30.7857 16.7209 31.417 15.02 32.407 13.5281C33.1384 12.422 34.0547 11.4503 35.1159 10.6555C35.3489 10.4821 35.5927 10.3195 35.8311 10.1677C37.6824 8.99136 39.8305 8.36713 42.0237 8.36819C42.8118 8.37227 43.5975 8.454 44.3696 8.61213C47.1767 9.19098 49.6695 10.7909 51.3655 13.1023C53.0615 15.4137 53.8403 18.2724 53.5511 21.1251C53.2619 23.9778 51.9253 26.6219 49.7999 28.5456C47.6746 30.4693 44.9115 31.5359 42.0453 31.5391C41.7365 31.5391 41.4277 31.5392 41.1189 31.5012L40.2683 37.2953C40.2203 37.6132 40.0601 37.9034 39.8165 38.1133C39.573 38.3231 39.2623 38.4387 38.9409 38.439L38.9572 38.4281ZM42.0345 11.0403C40.2094 11.0408 38.4297 11.6091 36.9417 12.6664L36.7304 12.8073C35.8998 13.4291 35.1831 14.1901 34.6121 15.0566C33.5497 16.6649 33.037 18.5742 33.1507 20.4985C33.2644 22.4228 33.9984 24.2584 35.2427 25.7302C36.487 27.202 38.1746 28.2307 40.0525 28.6622C41.9305 29.0937 43.8976 28.9047 45.6592 28.1235C47.4207 27.3423 48.8818 26.0111 49.8233 24.3292C50.7649 22.6474 51.1362 20.7056 50.8817 18.7948C50.6273 16.884 49.7606 15.1073 48.4117 13.7307C47.0628 12.3542 45.3043 11.4521 43.3998 11.1596C43.1506 11.1216 42.8905 11.0891 42.6197 11.0728L42.0345 11.0403Z" fill="white"/>
<path d="M42.0616 9.17032C42.7897 9.17443 43.5157 9.25064 44.2288 9.39792C47.0379 9.90105 49.5322 11.5 51.1629 13.8429C52.7937 16.1859 53.4273 19.081 52.9244 21.8913C52.4214 24.7016 50.8232 27.197 48.4812 28.8284C46.1393 30.4598 43.2454 31.0937 40.4363 30.5905L39.4719 37.1651C39.45 37.2924 39.3834 37.4076 39.284 37.4901C39.1847 37.5726 39.0592 37.6169 38.9301 37.615H38.8543C38.7182 37.5911 38.5964 37.516 38.5138 37.4052C38.4312 37.2943 38.3941 37.1561 38.41 37.0188L39.3852 30.39C37.4107 29.8907 35.6181 28.8416 34.2155 27.3643C32.8128 25.8871 31.8576 24.0423 31.4606 22.0439C31.0635 20.0455 31.241 17.9754 31.9724 16.0738C32.7038 14.1722 33.9591 12.5171 35.5927 11.3004C35.8095 11.1378 36.0316 10.9915 36.2591 10.8505C37.9765 9.7556 39.971 9.17446 42.0075 9.17568L42.0616 9.17032ZM42.0075 7.54965C39.6628 7.54973 37.3666 8.21711 35.3869 9.47381C35.0943 9.66352 34.8451 9.82612 34.623 10.0158C32.3305 11.7218 30.6993 14.1695 30.007 16.9427C29.2652 19.8821 29.6277 22.9916 31.0259 25.6812C32.4241 28.3708 34.7605 30.4533 37.5919 31.5336L36.8172 36.802C36.7395 37.3663 36.8869 37.9384 37.2276 38.3948C37.5682 38.8512 38.0747 39.1552 38.6376 39.2411C38.7403 39.2491 38.8436 39.2491 38.9464 39.2411C39.4617 39.2381 39.9591 39.0515 40.3493 38.7147C40.7395 38.378 40.997 37.9132 41.0756 37.4036L41.8178 32.3358H42.0616C45.1293 32.3328 48.0868 31.1914 50.3617 29.1325C52.6366 27.0737 54.0673 24.2438 54.3767 21.1905C54.6862 18.1372 53.8524 15.0776 52.0369 12.6038C50.2213 10.13 47.5531 8.418 44.5484 7.79902C43.7354 7.6318 42.9079 7.54467 42.0779 7.53886L42.0075 7.54965Z" fill="#231815"/>
<path d="M34.4656 43.5393C37.8587 43.5393 40.6094 40.7875 40.6094 37.3929C40.6094 33.9983 37.8587 31.2465 34.4656 31.2465C31.0725 31.2465 28.3218 33.9983 28.3218 37.3929C28.3218 40.7875 31.0725 43.5393 34.4656 43.5393Z" fill="#EBC481"/>
<path d="M40.1112 37.9998C40.2307 37.8167 40.3323 37.6225 40.4146 37.4198C40.6909 37.3548 40.5825 37.3006 40.9184 37.8209C41.1367 38.9305 40.9584 40.0816 40.4146 41.073C39.8327 42.0201 39.0331 42.8144 38.0825 43.39C37.1318 43.9656 36.0575 44.3058 34.9489 44.3821C33.8403 44.4585 32.7294 44.2689 31.7089 43.8291C30.6883 43.3893 29.7875 42.712 29.0814 41.8536C28.3752 40.9953 27.8842 39.9806 27.6492 38.894C27.4142 37.8075 27.4419 36.6805 27.7301 35.6068C28.0183 34.5332 28.5587 33.5439 29.3062 32.7214C30.0537 31.8988 30.9868 31.2667 32.0277 30.8777C33.4175 30.3615 34.9354 30.3008 36.362 30.7043C36.4455 30.7193 36.5272 30.7429 36.6058 30.7748L36.7142 30.8127L36.9363 30.894C37.0834 30.9424 37.2265 31.0022 37.3643 31.0729L37.7869 31.2788L38.1878 31.5173C38.3215 31.609 38.4483 31.7104 38.5671 31.8208C39.6959 32.7553 40.4625 34.0553 40.7342 35.4957C40.7965 35.8298 40.8238 36.1695 40.8155 36.5092C40.8167 36.7176 40.7912 36.9253 40.7396 37.1271C40.6692 37.4252 40.5771 37.4957 40.4958 37.4144C40.3665 37.2331 40.2779 37.0261 40.2358 36.8074C40.1816 36.6556 40.122 36.4821 40.0624 36.2978L39.8294 35.7179C39.7256 35.5593 39.6384 35.3904 39.5694 35.2138C39.3462 34.8005 39.0752 34.4148 38.7621 34.0648C38.4426 33.7148 38.0783 33.4086 37.6785 33.1542C37.5506 33.0671 37.4166 32.9892 37.2776 32.9211L37.1259 32.8398C36.9239 32.7225 36.7159 32.6158 36.5029 32.52L36.1778 32.4008L36.0965 32.3737L35.9232 32.3249L35.5222 32.2219C34.9865 32.1224 34.4396 32.0969 33.8969 32.146C32.5114 32.2991 31.2419 32.9918 30.3628 34.074C29.4838 35.1563 29.0659 36.5412 29.1997 37.9293C29.2587 38.4771 29.3955 39.0137 29.606 39.5228C29.8309 40.0274 30.1304 40.4951 30.4945 40.9104C31.223 41.7463 32.1981 42.329 33.2793 42.5743C34.3601 42.8302 35.4941 42.7372 36.5189 42.3088C37.5437 41.8805 38.4067 41.1386 38.9842 40.1895C39.396 39.4849 40.0678 37.9998 40.1112 37.9998Z" fill="#1B1B1B"/>
<path d="M47.2199 16.4608L39.9143 13.897C37.4917 13.0469 34.8389 14.3224 33.9891 16.7459L33.9084 16.9761C33.0586 19.3997 34.3336 22.0536 36.7562 22.9038L44.0618 25.4675C46.4844 26.3177 49.1372 25.0422 49.987 22.6186L50.0677 22.3884C50.9175 19.9648 49.6425 17.3109 47.2199 16.4608Z" fill="#036EB7"/>
<path d="M45.5777 26.2383C44.9795 26.2384 44.3858 26.1357 43.8223 25.9348L36.7467 23.4578C36.0864 23.2261 35.4782 22.8666 34.9569 22.3998C34.4355 21.933 34.0111 21.368 33.708 20.7371C33.4049 20.1062 33.229 19.4218 33.1903 18.7228C33.1516 18.0239 33.2508 17.3242 33.4824 16.6637C33.714 16.0032 34.0734 15.3947 34.54 14.8731C35.0066 14.3515 35.5714 13.927 36.202 13.6238C36.8326 13.3205 37.5168 13.1446 38.2154 13.1058C38.914 13.0671 39.6134 13.1664 40.2737 13.3981L47.3169 15.8805C48.5053 16.2958 49.5082 17.1189 50.1478 18.2037C50.7873 19.2885 51.022 20.5649 50.8103 21.8063C50.5986 23.0478 49.9542 24.1741 48.9913 24.9854C48.0285 25.7967 46.8095 26.2407 45.5506 26.2383H45.5777ZM38.5345 14.2111C37.9008 14.213 37.2754 14.3556 36.7033 14.6285C35.9525 14.9898 35.3255 15.5656 34.9016 16.2832C34.4777 17.0008 34.2759 17.828 34.3217 18.6603C34.3675 19.4926 34.6589 20.2926 35.1589 20.9594C35.659 21.6261 36.3454 22.1296 37.1313 22.4063L44.1745 24.8887C45.2299 25.2589 46.3891 25.1944 47.397 24.7096C48.4049 24.2247 49.179 23.3592 49.549 22.3033C49.919 21.2475 49.8546 20.0878 49.3699 19.0795C48.8853 18.0711 48.0201 17.2967 46.9647 16.9266L39.8944 14.4442C39.4519 14.2904 38.9868 14.2116 38.5183 14.2111H38.5345Z" fill="white"/>
<path d="M39.4339 19.8643C39.3084 19.8633 39.1838 19.8413 39.0655 19.7992L36.0315 18.7152C35.7705 18.6043 35.5615 18.3982 35.4469 18.1387C35.3323 17.8792 35.3207 17.5859 35.4145 17.3182C35.5083 17.0504 35.7004 16.8285 35.9519 16.6973C36.2034 16.5662 36.4953 16.5358 36.7683 16.6122L39.8023 17.6962C40.0563 17.7783 40.2722 17.9492 40.4105 18.1776C40.5488 18.4059 40.6004 18.6764 40.5556 18.9396C40.5109 19.2029 40.3729 19.4412 40.1669 19.611C39.9609 19.7808 39.7008 19.8707 39.4339 19.8643V19.8643Z" fill="white"/>
<path d="M37.3859 20.8507C37.2083 20.8491 37.0336 20.8053 36.8762 20.723C36.7188 20.6407 36.5833 20.5221 36.4806 20.3771C36.378 20.2321 36.3112 20.0648 36.2859 19.889C36.2605 19.7131 36.2773 19.5337 36.3348 19.3656L37.4184 16.3304C37.4667 16.1926 37.5418 16.0658 37.6392 15.9571C37.7365 15.8483 37.8544 15.7599 37.9859 15.6967C38.1175 15.6335 38.2602 15.5969 38.4059 15.5889C38.5516 15.5809 38.6975 15.6017 38.8351 15.6501C38.9728 15.6985 39.0996 15.7736 39.2083 15.871C39.3169 15.9684 39.4054 16.0863 39.4685 16.2179C39.5317 16.3496 39.5683 16.4923 39.5762 16.6381C39.5842 16.7838 39.5634 16.9298 39.5151 17.0675L38.4315 20.1027C38.3555 20.32 38.2143 20.5085 38.0271 20.6424C37.84 20.7763 37.616 20.8491 37.3859 20.8507V20.8507Z" fill="white"/>
<path d="M43.7357 21.0836C44.1038 21.0836 44.4021 20.7852 44.4021 20.417C44.4021 20.0488 44.1038 19.7503 43.7357 19.7503C43.3677 19.7503 43.0693 20.0488 43.0693 20.417C43.0693 20.7852 43.3677 21.0836 43.7357 21.0836Z" fill="white"/>
<path d="M46.656 19.6798C47.0241 19.6798 47.3224 19.3813 47.3224 19.0131C47.3224 18.6449 47.0241 18.3464 46.656 18.3464C46.288 18.3464 45.9896 18.6449 45.9896 19.0131C45.9896 19.3813 46.288 19.6798 46.656 19.6798Z" fill="white"/>
<path d="M44.9602 23.6311C45.3283 23.6311 45.6266 23.3326 45.6266 22.9644C45.6266 22.5962 45.3283 22.2977 44.9602 22.2977C44.5922 22.2977 44.2938 22.5962 44.2938 22.9644C44.2938 23.3326 44.5922 23.6311 44.9602 23.6311Z" fill="white"/>
<path d="M47.875 22.2274C48.243 22.2274 48.5414 21.9289 48.5414 21.5608C48.5414 21.1926 48.243 20.8941 47.875 20.8941C47.507 20.8941 47.2086 21.1926 47.2086 21.5608C47.2086 21.9289 47.507 22.2274 47.875 22.2274Z" fill="white"/>
<path d="M38.5238 13.6527C39.0574 13.6528 39.5869 13.7445 40.0896 13.9237L47.1327 16.4007C48.3148 16.8287 49.2804 17.706 49.8197 18.842C50.3591 19.978 50.4287 21.281 50.0134 22.4681C49.5982 23.6551 48.7316 24.6303 47.6018 25.182C46.4721 25.7336 45.1704 25.8171 43.9796 25.4143L36.9039 22.9319C35.8407 22.5574 34.9443 21.8186 34.3734 20.8463C33.8025 19.874 33.594 18.731 33.7847 17.6196C33.9755 16.5082 34.5533 15.5002 35.4157 14.7742C36.2781 14.0481 37.3696 13.6508 38.4967 13.6527H38.5238ZM38.4967 13.1106C37.3917 13.1093 36.3135 13.4511 35.411 14.089C34.5085 14.7269 33.8261 15.6293 33.4581 16.6717C32.9928 18.0044 33.0734 19.4672 33.6825 20.7407C34.2916 22.0141 35.3795 22.9948 36.7088 23.4685L43.7845 25.9455C44.3462 26.146 44.9381 26.2486 45.5345 26.249C46.4364 26.2515 47.3241 26.0246 48.1143 25.5895C48.9044 25.1545 49.571 24.5257 50.0515 23.7621C50.532 22.9985 50.8106 22.1253 50.8611 21.2244C50.9115 20.3235 50.7323 19.4246 50.3401 18.6121C50.0385 17.9822 49.615 17.4184 49.0943 16.9532C48.5735 16.4881 47.9657 16.1307 47.3061 15.902L40.2629 13.4196C39.7009 13.2209 39.109 13.12 38.513 13.1215L38.4967 13.1106Z" fill="black"/>
<path d="M38.5183 13.0945C39.1163 13.0963 39.7098 13.1988 40.2737 13.398L47.3169 15.8804C48.5053 16.2957 49.5083 17.1189 50.1478 18.2036C50.7873 19.2884 51.022 20.5648 50.8103 21.8062C50.5986 23.0477 49.9542 24.174 48.9914 24.9853C48.0285 25.7967 46.8095 26.2406 45.5507 26.2383C44.9525 26.2383 44.3587 26.1356 43.7953 25.9347L36.7196 23.4577C35.7251 23.1091 34.8563 22.473 34.2233 21.6302C33.5902 20.7873 33.2214 19.7756 33.1634 18.7229C33.1054 17.6702 33.3608 16.624 33.8974 15.7166C34.434 14.8093 35.2276 14.0816 36.1778 13.6257C36.8986 13.2739 37.6892 13.0887 38.4912 13.0837L38.5183 13.0945ZM38.4912 12.5416C37.1034 12.5425 35.7606 13.0341 34.7001 13.9296C33.6395 14.825 32.9295 16.0667 32.6955 17.4352C32.4615 18.8037 32.7185 20.2109 33.4211 21.4081C34.1238 22.6054 35.2268 23.5157 36.5354 23.9781L43.6111 26.4604C44.2339 26.6809 44.89 26.7928 45.5507 26.7911C46.9422 26.7965 48.2905 26.3079 49.3557 25.4121C50.421 24.5164 51.1341 23.2717 51.3681 21.8994C51.6021 20.5271 51.342 19.1162 50.6339 17.9178C49.9258 16.7194 48.8157 15.8111 47.5011 15.3546L40.4362 12.8723C39.8132 12.6526 39.1572 12.5408 38.4966 12.5416H38.4912Z" fill="black"/>
</svg>
