<svg width="66" height="66" viewBox="0 0 66 66" fill="none" xmlns="http://www.w3.org/2000/svg">
<path d="M50.4145 21.0906C53.2854 21.0906 55.6191 18.8284 55.6191 16.0453C55.6191 13.2623 53.2854 11 50.4145 11C47.5436 11 45.21 13.2623 45.21 16.0453C45.21 18.8284 47.5436 21.0906 50.4145 21.0906Z" fill="#454545"/>
<path d="M57.7854 31.9241C57.6445 30.763 56.5613 29.935 55.3549 30.0715C53.3646 30.302 48.0544 30.8826 46.0554 30.9509V23.7115C46.0554 23.1481 45.8264 22.6103 45.4125 22.2176L43.4135 20.2797L36.7295 13.8001C35.8137 12.9123 34.8274 12.733 34.1845 12.7586C32.9956 12.7928 32.1767 13.4331 31.8332 13.7575L25.6776 19.0333C24.7706 19.8101 24.6913 21.1419 25.4839 22.0212C26.2852 22.9005 27.659 22.9774 28.5661 22.209L34.2197 17.36L38.7638 21.7651L28.8391 31.3094L8.6462 50.6968C7.79199 51.5163 7.78318 52.8566 8.62859 53.6932C9.05129 54.1116 9.6149 54.3164 10.1785 54.3164C10.7333 54.3164 11.2881 54.1116 11.7108 53.7018L30.4594 35.7059C30.4594 35.7059 30.7324 35.3047 31.1815 35.3047C31.569 35.3047 31.8772 35.7486 31.8772 35.7486L39.0368 43.2099C36.2276 43.4916 31.3929 43.8075 27.025 44.0124C25.8185 44.0721 24.8938 45.0624 24.9467 46.232C24.9995 47.3674 25.9682 48.2467 27.1218 48.2467C27.1571 48.2467 27.1923 48.2467 27.2275 48.2467C29.3763 48.1442 40.2344 47.6064 42.4712 46.9661C44.3206 46.4369 44.7345 45.1649 44.8225 44.6441C45.1219 42.9282 43.6513 41.5793 42.8147 40.9561L36.2804 34.1437L41.6787 28.8678V31.8302C41.617 32.4277 41.7491 33.179 42.2687 33.8363C42.9732 34.7327 44.1268 35.1852 45.712 35.1852C47.9312 35.1852 55.0643 34.3656 55.8656 34.2717C57.0809 34.1437 57.9351 33.0851 57.7854 31.9241Z" fill="#454545"/>
<circle cx="52.5" cy="51.5" r="4" stroke="#454545" stroke-width="3"/>
</svg>
