<svg width="45" height="45" viewBox="0 0 45 45" fill="none" xmlns="http://www.w3.org/2000/svg">
<path fill-rule="evenodd" clip-rule="evenodd" d="M33.2312 18.2315C33.2312 20.5561 32.5216 22.7192 31.3079 24.5103L37.3274 33.197L31.8659 32.2084L30.8773 37.67L29.0589 35.0456V33.6751H31V32.657H27.4039L24.9263 29.0812C23.9916 29.3308 23.0128 29.4678 21.9998 29.4678C21.0846 29.4678 20.1988 29.3553 19.3522 29.1497L15.2511 35.0667H14.3405V32.657H13V35.1782L12.4616 32.2035L7 33.1921L12.858 24.7452C11.5464 22.9051 10.7683 20.6588 10.7683 18.2315C10.7683 12.0407 15.8041 7 21.9998 7C28.1905 7 33.2312 12.0407 33.2312 18.2315ZM14.3405 36.3805L14.5455 36.0848H14.3405V36.3805ZM19.5528 27.6767C19.7828 27.7354 20.0226 27.7892 20.2624 27.8333C20.8301 27.9361 21.4076 27.9997 21.9998 27.985C22.6996 27.985 23.375 27.9067 24.0307 27.7697C24.5397 27.662 25.034 27.5103 25.5087 27.3243L25.5087 27.3243C25.6996 27.246 25.8904 27.1677 26.0813 27.0796C26.0837 27.0796 26.0862 27.0784 26.0886 27.0772C26.0911 27.076 26.0935 27.0747 26.096 27.0747C26.4336 26.923 26.7566 26.7468 27.0698 26.556C27.0967 26.5389 27.1237 26.523 27.1506 26.5071C27.1775 26.4911 27.2044 26.4752 27.2313 26.4581C27.3684 26.37 27.5054 26.277 27.6424 26.184C27.7452 26.1106 27.848 26.0372 27.9458 25.9589C28.1024 25.8415 28.2591 25.7142 28.4059 25.587C28.429 25.5666 28.4523 25.5463 28.4757 25.5259C28.576 25.4383 28.6777 25.3495 28.7729 25.2542C28.7992 25.2279 28.8255 25.2022 28.8516 25.1766C28.9032 25.1261 28.9542 25.0762 29.0029 25.0242C29.1742 24.848 29.3455 24.6669 29.5021 24.4761C29.61 24.3481 29.7082 24.2137 29.8072 24.078C29.8294 24.0476 29.8516 24.0172 29.874 23.9867C29.8912 23.9622 29.9095 23.9378 29.9279 23.9133C29.9462 23.8888 29.9646 23.8643 29.9817 23.8399C30.1285 23.6294 30.2655 23.4141 30.3977 23.1939C31.259 21.7404 31.7631 20.0471 31.7631 18.2315C31.7631 12.8384 27.3928 8.46817 21.9998 8.46817C16.6067 8.46817 12.2365 12.8384 12.2414 18.2315C12.2414 20.1548 12.7993 21.9361 13.7585 23.4484C13.8906 23.6539 14.0325 23.8594 14.1793 24.0552C14.1861 24.0687 14.1952 24.0799 14.205 24.092C14.2094 24.0974 14.2139 24.103 14.2185 24.109C14.3702 24.3048 14.5268 24.4957 14.6883 24.6816C15.7796 25.9198 17.1744 26.8741 18.76 27.432C18.99 27.5152 19.2249 27.5886 19.4647 27.6522C19.4794 27.6571 19.4941 27.6608 19.5088 27.6644C19.5235 27.6681 19.5381 27.6718 19.5528 27.6767Z" fill="#454545"/>
<path fill-rule="evenodd" clip-rule="evenodd" d="M21.9996 10.5771C26.1301 10.5771 29.4922 13.9393 29.4922 18.0697C29.4922 22.2001 26.1301 25.5622 21.9996 25.5622C17.8692 25.5622 14.5071 22.2001 14.5071 18.0697C14.5071 13.9393 17.8692 10.5771 21.9996 10.5771ZM23.3471 16.723L22 12.5771L20.6529 16.723H16.2937L19.8204 19.2854L18.4733 23.4313L22 20.8689L25.5267 23.4313L24.1796 19.2854L27.7063 16.723H23.3471Z" fill="#454545"/>
<path fill-rule="evenodd" clip-rule="evenodd" d="M12 39.4973V31.657H15.3405V34.0667H16.0617V31.657H19.3991V32.7951C19.6778 32.4925 20.0058 32.241 20.3806 32.0451C20.9873 31.726 21.6553 31.5771 22.3618 31.5771C23.0652 31.5771 23.7306 31.7264 24.3361 32.0446C24.497 32.1284 24.6493 32.2224 24.7928 32.3262V31.657H32V34.6751H30.0589V39.4973H26.7339V34.6751H26.2508C26.3052 34.9661 26.3307 35.2677 26.3307 35.5771C26.3307 36.3507 26.171 37.0757 25.8009 37.7072C25.448 38.3129 24.956 38.7877 24.3367 39.1122L24.3354 39.1128C23.7299 39.429 23.0648 39.5771 22.3618 39.5771C21.6548 39.5771 20.9862 39.428 20.3791 39.1084C20.005 38.9115 19.6775 38.6595 19.3991 38.3568V39.4973H16.0617V37.0848H15.3405V39.4973H12ZM14.3405 36.0848H17.0617V38.4973H18.3991V32.657H17.0617V35.0667H14.3405V32.657H13V38.4973H14.3405V36.0848ZM19.3991 35.8135C19.4279 36.3474 19.5558 36.8095 19.783 37.1998C20.043 37.6465 20.397 37.9878 20.8449 38.2235C21.2927 38.4593 21.7984 38.5771 22.3618 38.5771C22.9211 38.5771 23.4247 38.4602 23.8726 38.2264C24.3225 37.9906 24.6775 37.6494 24.9376 37.2026C25.1997 36.7559 25.3307 36.214 25.3307 35.5771C25.3307 35.2516 25.2965 34.9509 25.228 34.6751C25.1625 34.4112 25.0657 34.1701 24.9376 33.9517C24.8922 33.8737 24.8439 33.799 24.7928 33.7276C24.5508 33.3894 24.244 33.1238 23.8726 32.9308C23.4247 32.695 22.9211 32.5771 22.3618 32.5771C21.7984 32.5771 21.2927 32.695 20.8449 32.9308C20.397 33.1646 20.043 33.5049 19.783 33.9517C19.5558 34.342 19.4279 34.8048 19.3991 35.3401C19.395 35.4176 19.3929 35.4966 19.3929 35.5771C19.3929 35.6574 19.395 35.7362 19.3991 35.8135ZM23.7704 36.6209C23.9046 36.3376 23.9717 35.9897 23.9717 35.5771C23.9717 35.1646 23.9046 34.8167 23.7704 34.5334C23.6383 34.2502 23.4516 34.0353 23.2101 33.8889C22.9686 33.7425 22.6859 33.6694 22.3618 33.6694C22.0378 33.6694 21.755 33.7425 21.5136 33.8889C21.2721 34.0353 21.0843 34.2502 20.9501 34.5334C20.818 34.8167 20.752 35.1646 20.752 35.5771C20.752 35.9897 20.818 36.3376 20.9501 36.6209C21.0843 36.9041 21.2721 37.119 21.5136 37.2654C21.755 37.4117 22.0378 37.4849 22.3618 37.4849C22.6859 37.4849 22.9686 37.4117 23.2101 37.2654C23.4516 37.119 23.6383 36.9041 23.7704 36.6209ZM21.8552 36.1957C21.9147 36.3201 21.9766 36.3766 22.032 36.4102C22.0952 36.4486 22.1931 36.4849 22.3618 36.4849C22.5305 36.4849 22.6285 36.4486 22.6917 36.4102C22.746 36.3773 22.8064 36.3221 22.8641 36.1983L22.8666 36.1929C22.9207 36.0787 22.9717 35.8864 22.9717 35.5771C22.9717 35.2678 22.9207 35.0756 22.8667 34.9614L22.8641 34.956C22.8064 34.8322 22.746 34.777 22.6917 34.7441C22.6285 34.7057 22.5305 34.6694 22.3618 34.6694C22.1931 34.6694 22.0952 34.7057 22.032 34.7441C21.9766 34.7777 21.9147 34.8342 21.8552 34.9586C21.8017 35.0746 21.752 35.2683 21.752 35.5771C21.752 35.886 21.8017 36.0797 21.8552 36.1957ZM25.7928 33.6751H27.7339V38.4973H29.0589V33.6751H31V32.657H25.7928V33.6751Z" fill="#454545"/>
</svg>
