<svg width="25" height="24" viewBox="0 0 25 24" fill="none" xmlns="http://www.w3.org/2000/svg">
<path d="M12.5315 0C15.995 0 19.0806 1.33333 21.3476 3.51515L21.4106 3.57576C23.6776 5.75758 25 8.72727 25 12C25 13.2727 24.8111 14.5455 24.3703 15.697C23.9924 16.8485 23.4887 17.9394 22.796 18.8485V23.0909C22.796 23.5758 22.3552 24 21.8514 24H12.5315C9.06801 24 5.98237 22.6667 3.71536 20.4848C1.44836 18.3636 0 15.3333 0 12C0 8.66667 1.44836 5.69697 3.65239 3.51515C5.91939 1.33333 9.06801 0 12.5315 0ZM6.29723 9.63636H18.7657C19.0806 9.63636 19.3325 9.39394 19.3325 9.09091C19.3325 8.78788 19.0806 8.54545 18.7657 8.54545H6.29723C5.98237 8.48485 5.66751 8.78788 5.66751 9.09091C5.66751 9.33333 5.98237 9.63636 6.29723 9.63636ZM6.29723 12.6061H18.7657C19.0806 12.6061 19.3325 12.3636 19.3325 12.0606C19.3325 11.7576 19.0806 11.5152 18.7657 11.5152H6.29723C5.98237 11.5152 5.73048 11.7576 5.73048 12.0606C5.66751 12.303 5.98237 12.6061 6.29723 12.6061ZM6.29723 15.5152H18.7657C19.0806 15.5152 19.3325 15.2727 19.3325 14.9697C19.3325 14.6667 19.0806 14.4242 18.7657 14.4242H6.29723C5.98237 14.4242 5.73048 14.6667 5.73048 14.9697C5.66751 15.2727 5.98237 15.5152 6.29723 15.5152ZM19.9622 4.84848C18.073 3.0303 15.3652 1.87879 12.4685 1.87879C9.57179 1.87879 6.92695 2.9697 5.03778 4.84848C3.14861 6.66667 1.95214 9.21212 1.95214 12.0606C1.95214 14.8485 3.14861 17.3939 5.03778 19.2727C6.92695 21.0909 9.57179 22.2424 12.5315 22.2424H20.9068V18.6061C20.9068 18.4242 20.9698 18.2424 21.0957 18.0606C21.7254 17.2121 22.2292 16.2424 22.6071 15.2121C22.9219 14.2424 23.1108 13.1515 23.1108 12.0606C23.1108 9.21212 21.9144 6.72727 19.9622 4.84848Z" fill="black"/>
</svg>
