<svg width="47" height="40" viewBox="0 0 47 40" fill="none" xmlns="http://www.w3.org/2000/svg">
<path fill-rule="evenodd" clip-rule="evenodd" d="M11 38V28.0664H14.5741V34.7447H17.9257V28H23.7729L25.1543 31.986L26.491 28H36.843V31.2608H36.5345V34.4257H32.4071V34.7447H37V38H28.8331V32.049L26.6731 38H23.5528L21.4998 32.3329V38H11ZM20.5427 28.9443H18.8828V37.0557H20.5427V28.9443ZM24.2271 37.0557H25.9992L28.9433 28.9443H27.1825L25.1692 34.9476L23.0887 28.9443H21.2886L24.2271 37.0557ZM29.7901 37.0557H36.0429V35.689H31.4501V33.4814H35.5775V32.1147H31.4501V30.3165H35.8859V28.9443H29.7901V37.0557ZM13.617 35.689V29.0107H11.9571V37.0557H17.7444V35.689H13.617Z" fill="#454545"/>
<mask id="mask0_2615_10646" style="mask-type:alpha" maskUnits="userSpaceOnUse" x="9" y="3" width="31" height="25">
<rect x="9" y="3" width="31" height="25" fill="#D9D9D9"/>
</mask>
<g mask="url(#mask0_2615_10646)">
<path d="M28.3042 20.9381C28.5119 20.9381 28.7111 20.8556 28.858 20.7087C29.0049 20.5618 29.0874 20.3626 29.0874 20.1549V16.7746C29.0852 16.6179 29.0372 16.4653 28.9492 16.3355C28.8613 16.2058 28.7372 16.1047 28.5924 16.0447C28.5004 16.0093 28.4027 15.9913 28.3042 15.9915C28.0972 15.9939 27.8994 16.0772 27.7531 16.2235C27.6067 16.3699 27.5234 16.5677 27.521 16.7746V20.1549C27.521 20.3626 27.6035 20.5618 27.7504 20.7087C27.8972 20.8556 28.0965 20.9381 28.3042 20.9381V20.9381Z" fill="#454545"/>
<path d="M23.9903 22.398C25.162 22.398 26.011 21.8091 26.011 20.9945C26.0105 20.8089 25.9442 20.6294 25.8237 20.4881C25.7032 20.3468 25.5364 20.253 25.3532 20.2232C25.1699 20.1935 24.982 20.2299 24.8231 20.3258C24.6641 20.4218 24.5444 20.571 24.4853 20.7471C24.3272 20.8066 24.1592 20.8353 23.9903 20.8316C23.8204 20.8349 23.6515 20.8062 23.4922 20.7471C23.4331 20.571 23.3134 20.4218 23.1545 20.3258C22.9955 20.2299 22.8076 20.1935 22.6243 20.2232C22.441 20.253 22.2743 20.3468 22.1538 20.4881C22.0333 20.6294 21.967 20.8089 21.9666 20.9945C21.9666 21.8091 22.8187 22.398 23.9903 22.398Z" fill="#454545"/>
<path d="M38.6422 17.2446C38.6416 16.9543 38.6069 16.6652 38.5388 16.3831C38.5106 16.2671 38.4761 16.1544 38.4385 16.0416C38.2578 15.5214 37.9631 15.0481 37.5762 14.6562C37.1892 14.2644 36.7196 13.9639 36.2017 13.7766C36.2926 12.4796 35.9636 9.34375 31.4744 6.25799C30.1827 5.47944 28.7888 4.88475 27.3329 4.4911C24.1406 3.6202 21.1864 3.91155 18.7773 5.33382C17.9628 5.60637 13.2167 7.45783 11.7537 13.692C11.1718 13.8488 10.637 14.1455 10.1959 14.556C9.75475 14.9666 9.42056 15.4787 9.22241 16.0479C9.18482 16.1606 9.15351 16.2734 9.12532 16.3893C9.04883 16.6682 9.00674 16.9554 9 17.2446C9.00067 17.9668 9.21286 18.6729 9.61038 19.2759C10.0079 19.8788 10.5733 20.3521 11.2368 20.6374C11.1992 27.0188 12.0388 30.6152 18.3294 31.602C20.0914 31.8757 21.8719 32.014 23.6551 32.0155C27.6399 32.0155 31.6185 31.3107 33.9649 29.5406C34.5707 29.1168 35.0816 28.5714 35.4651 27.9393C35.8486 27.3072 36.0963 26.6021 36.1924 25.8691C36.255 25.3459 36.3145 24.8885 36.3678 24.4781C36.609 22.5828 36.7186 21.6837 36.681 20.4901C37.2708 20.1769 37.7646 19.7097 38.1099 19.1382C38.4552 18.5667 38.6392 17.9123 38.6422 17.2446ZM19.2786 20.935C19.4863 20.935 19.6855 20.8525 19.8324 20.7056C19.9793 20.5587 20.0618 20.3595 20.0618 20.1518V17.2446L20.5379 16.9877C20.8951 16.7935 21.2554 16.5992 21.6094 16.3956C21.8005 16.2859 21.9916 16.1732 22.1764 16.0541C23.2071 15.4056 24.1312 14.635 24.6826 13.526C24.8586 13.1803 25.0553 12.8455 25.2715 12.5235C26.3022 13.7046 28.6267 15.4746 33.2162 15.2271C33.235 15.5047 33.2705 15.7809 33.3227 16.0541V16.0729C33.3227 16.1387 33.3478 16.2045 33.3572 16.2672V17.0848C33.3582 19.1209 32.6962 21.102 31.4713 22.7284C30.2464 24.3548 28.5252 25.5382 26.568 26.0995C24.6108 26.6608 22.5241 26.5696 20.6234 25.8396C18.7226 25.1096 17.1113 23.7805 16.033 22.0533C16.2241 20.1737 17.1922 19.0647 18.486 18.1781V20.1643C18.4872 20.2672 18.5087 20.3688 18.5492 20.4633C18.5897 20.5579 18.6484 20.6435 18.722 20.7154C18.7956 20.7872 18.8826 20.8439 18.9781 20.8821C19.0736 20.9203 19.1757 20.9393 19.2786 20.9381V20.935ZM34.651 13.4978C29.1938 14.2904 26.9695 12.1852 26.2709 11.2547C27.6131 9.83621 29.1981 8.66916 30.9512 7.8087C34.3221 10.2648 34.6886 12.5454 34.651 13.5009V13.4978ZM10.5664 17.2446C10.5659 16.9475 10.6289 16.6538 10.7512 16.3831C10.8037 16.2633 10.8677 16.149 10.9423 16.0416C11.1382 15.7589 11.3994 15.5275 11.7037 15.3672C12.008 15.2069 12.3464 15.1223 12.6904 15.1206C12.7625 15.1206 12.8188 15.1206 12.8627 15.1206C12.8627 15.2866 12.8063 15.5654 12.7687 15.7784C12.7687 15.8599 12.7374 15.9445 12.7249 16.0322C12.7123 16.1199 12.6872 16.2546 12.6716 16.3737C12.6297 16.6589 12.6077 16.9468 12.6058 17.2352C12.6166 17.7257 12.6712 18.2142 12.7687 18.695C12.7875 18.811 12.8126 18.9425 12.8314 19.0678C12.8502 19.1931 12.8595 19.2746 12.8627 19.3529H12.6904C12.13 19.3521 11.5926 19.1302 11.1949 18.7354C10.7972 18.3407 10.5713 17.8049 10.5664 17.2446V17.2446ZM34.8296 24.2808C34.7763 24.6911 34.7168 25.1516 34.6542 25.6748C34.5832 26.1998 34.4026 26.704 34.1241 27.1547C33.8456 27.6053 33.4754 27.9924 33.0376 28.2907C29.9957 30.5839 23.4044 30.8125 18.5706 30.0544C13.6866 29.29 12.8063 27.213 12.8094 20.935C13.0499 20.9416 13.289 20.8976 13.5114 20.8058C13.7337 20.7141 13.9343 20.5766 14.1001 20.4024C14.5607 19.851 14.4353 19.1274 14.31 18.4288C14.2287 18.039 14.1826 17.6426 14.1722 17.2446C14.1766 16.9556 14.2049 16.6674 14.2568 16.3831C14.2568 16.2734 14.2912 16.1669 14.31 16.0698V16.051C14.4322 15.3587 14.5544 14.6444 14.097 14.0993C13.9017 13.8734 13.6412 13.7136 13.3514 13.6419C14.8081 8.14391 19.0781 6.86888 19.288 6.80935C19.3583 6.7904 19.4258 6.76194 19.4885 6.72476C23.0849 4.55063 27.264 5.94784 29.3222 6.90333C27.6211 7.86196 24.8016 9.81054 23.2885 12.8211C22.662 14.0554 21.271 14.8073 19.7923 15.6061C19.5229 15.7503 19.2472 15.8975 18.9716 16.051C18.7773 16.1606 18.58 16.2734 18.3857 16.3925C16.4873 17.5328 14.6797 19.096 14.4698 22.1724C14.4698 22.2069 14.4698 22.2413 14.4698 22.2726C14.4224 23.5206 14.5672 24.7684 14.899 25.9724C14.941 26.1417 15.0385 26.2919 15.1759 26.3992C15.3133 26.5066 15.4827 26.5648 15.6571 26.5645C15.7216 26.5639 15.7858 26.5555 15.8482 26.5395C16.047 26.4884 16.2178 26.3613 16.3239 26.1855C16.4299 26.0097 16.4628 25.7993 16.4153 25.5996C16.3463 25.3239 16.2868 25.0577 16.2367 24.8008C17.5318 26.1076 19.1358 27.0664 20.9001 27.5882C22.6644 28.1101 24.5319 28.1781 26.3295 27.786C28.1271 27.394 29.7966 26.5545 31.1834 25.3453C32.5701 24.1362 33.6293 22.5966 34.2626 20.8692C34.4881 20.9306 34.7212 20.9601 34.9549 20.9569C35.0207 20.9569 35.0833 20.9569 35.146 20.9569C35.1075 22.0712 35.0018 23.1822 34.8296 24.2839V24.2808ZM36.5871 18.6011C36.4015 18.8245 36.172 19.0074 35.9128 19.1383C35.6535 19.2693 35.3702 19.3455 35.0802 19.3623H34.9518H34.7826C34.8018 19.1415 34.8332 18.9218 34.8766 18.7044C34.9079 18.529 34.9392 18.3316 34.9674 18.1249C35.0122 17.8336 35.0352 17.5393 35.0364 17.2446C35.0345 16.9562 35.0125 16.6684 34.9706 16.3831C34.9706 16.2953 34.9455 16.2076 34.933 16.1262V15.1206H34.9518C35.4376 15.121 35.9087 15.2879 36.2863 15.5936C36.4455 15.7227 36.5857 15.8735 36.703 16.0416C36.7754 16.1498 36.8383 16.264 36.891 16.3831C37.0513 16.7451 37.1069 17.1448 37.0516 17.5369C36.9962 17.9289 36.832 18.2976 36.5777 18.6011H36.5871Z" fill="#454545"/>
</g>
</svg>
