<svg width="47" height="40" viewBox="0 0 47 40" fill="none" xmlns="http://www.w3.org/2000/svg">
<path d="M36.9049 13.0462L32.7229 6.33707C32.594 6.12929 32.36 6 32.107 6H13.8943C13.6413 6 13.4121 6.12929 13.2785 6.33707L9.10124 13.0462C8.93415 13.3186 8.97712 13.6649 9.20627 13.8912L22.4922 26.7968C22.6259 26.9261 22.8073 27 22.9983 27C23.1892 27 23.3706 26.9261 23.5043 26.7968L36.7903 13.8912C37.0242 13.6649 37.0672 13.3186 36.8953 13.0462H36.9049ZM21.4515 8.04551L18.2148 12.5613L14.9016 7.38522H21.9289L21.4563 8.04551H21.4515ZM17.8567 13.8635L21.6329 23.9987L11.2018 13.8635H17.8567ZM10.839 12.94L14.0423 7.80079L17.3363 12.9446H10.839V12.94ZM20.6972 10.7144L22.9983 7.50066L25.2993 10.7144L26.8938 12.94H19.1027L20.6972 10.7144ZM24.0772 7.38522H31.1045L27.7913 12.5613L24.5546 8.04551L24.082 7.38522H24.0772ZM27.1325 13.8635L23.003 24.9452L18.8736 13.8635H27.1373H27.1325ZM28.6697 12.94L31.9638 7.79617L35.1671 12.94H28.6745H28.6697ZM34.7995 13.8635L24.3684 23.9987L28.1446 13.8635H34.7995Z" fill="#454545"/>
<path d="M7.86379 29.9326C7.62902 29.9326 7.51782 30.0852 7.51782 30.3976C7.51782 30.71 7.6352 30.8481 7.86996 30.8481C8.11708 30.8481 8.24064 30.6955 8.24064 30.3976C8.24064 30.0997 8.11708 29.9326 7.86379 29.9326Z" fill="#454545"/>
<path d="M10.9341 35.309H14.0354V31.9087H10.9341V35.3162V35.309ZM11.8608 32.9913H13.1087V34.2191H11.8608V32.9913Z" fill="#454545"/>
<path d="M31.278 30.601L30.4563 29.8236L29.5853 29.0099L28.8872 28.3487L28.3064 29.1479C27.9666 29.6129 27.6948 29.9762 27.4848 30.2232C26.7496 31.0951 25.9279 31.8362 25.0383 32.4174C24.6923 32.6499 24.2228 32.8969 23.6544 33.1658L23.2344 33.3619C23.1479 33.1585 23.0675 32.9551 22.9811 32.7589L23.6421 31.9815L24.0745 31.4729L24.7109 30.7245L24.0931 29.9544C23.7904 29.5766 23.4753 29.2351 23.1602 28.93L22.5115 28.3196L21.9246 29.0099L21.7022 29.2714L21.3563 29.6565L21.313 29.5838L20.5778 30.0488L19.8056 30.5356H19.7809L18.7677 30.1142L17.7854 29.7219L17.563 30.9134C17.4703 31.4075 17.3839 31.7998 17.3159 32.0687C17.075 32.9986 16.7475 33.8269 16.3398 34.5171C16.2533 34.6624 16.1359 34.8296 16.0062 35.0112V29.7292H9.55025C9.42669 29.2932 9.18575 28.9154 8.83361 28.6321C8.54325 28.4068 8.22817 28.2979 7.90074 28.2979C7.38797 28.2979 6.93081 28.5376 6.57867 28.9881C6.38097 29.2351 6.24506 29.5257 6.16474 29.8309H1.40774V33.1004H5.14539C4.75 33.8414 4.23105 34.4082 3.57619 34.8296C3.28583 35.0112 2.87191 35.1856 2.35297 35.3527L1 35.7813L1.86491 37.0746C2.02554 37.3216 2.15527 37.5905 2.24176 37.8811L2.55066 38.92L3.42792 38.5495C4.19399 38.2298 4.83649 37.8738 5.34926 37.5033C6.2327 36.8494 6.94934 36.0138 7.48064 35.0185C7.72158 34.568 7.93163 34.1175 8.09844 33.6816C8.23435 33.3329 8.38262 32.8897 8.54325 32.3738C8.71623 32.2939 8.87068 32.1704 9.01895 32.0251V38.0046H11.8546V37.496H13.1026V37.9029H16V37.1763C16.1359 37.3289 16.2657 37.496 16.3645 37.6704L17.0441 38.8256L17.8287 37.7648C18.3476 37.0601 18.7739 36.3626 19.0951 35.6724C19.367 35.0984 19.6512 34.2992 19.9724 33.2384C20.1825 33.6889 20.374 34.1248 20.547 34.5462C20.8497 35.3091 21.14 36.1737 21.4057 37.1182L21.7269 38.2516L22.6598 37.7648L23.6421 37.2562L24.4452 36.8421L24.334 36.4934L24.9024 36.21C25.3287 35.9993 25.7488 35.7595 26.1627 35.4907V38.5495H29.0601V33.0713C29.5482 32.5482 30.0362 32.0105 30.5119 31.4656L31.2718 30.6083L31.278 30.601ZM7.25824 33.2311C7.10379 33.6235 6.91845 34.0303 6.69605 34.4445C6.23888 35.3018 5.62727 36.0138 4.85502 36.5805C4.40404 36.9148 3.82331 37.2272 3.11285 37.5251C2.98929 37.1182 2.81631 36.7404 2.5939 36.3989C3.18699 36.21 3.65651 36.0066 4.01483 35.7813C4.9168 35.2074 5.61491 34.3791 6.11532 33.2965C6.25124 33.0059 6.40568 32.57 6.59102 32.0033H2.33443V30.9134H6.88138L6.99877 30.848L7.78336 31.6618C7.59185 32.3084 7.41886 32.8315 7.26442 33.2239L7.25824 33.2311ZM8.5 31.1241C8.3332 31.3276 8.1355 31.4293 7.89456 31.4293C7.59802 31.4293 7.36944 31.2912 7.20264 31.0224C7.08526 30.8335 7.02965 30.6228 7.02965 30.3903C7.02965 30.1578 7.10379 29.9253 7.26442 29.7292C7.44358 29.5039 7.6598 29.3877 7.90692 29.3877C8.05519 29.3877 8.1911 29.4385 8.32702 29.5403C8.60503 29.7582 8.74094 30.0488 8.74094 30.4121C8.74094 30.6955 8.6668 30.9352 8.50618 31.1241H8.5ZM15.0733 36.813H14.0292V36.4062H10.9279V36.9148H9.94563V30.819H15.0733V36.2245L15.0548 36.2463L15.0733 36.2609V36.8203V36.813ZM18.2858 35.142C17.9893 35.7668 17.6063 36.3989 17.1244 37.0455C16.9267 36.7041 16.6858 36.3989 16.4016 36.1228C16.6981 35.745 16.9267 35.4181 17.0935 35.142C17.5568 34.35 17.9275 33.4346 18.1932 32.3883C18.2673 32.0905 18.36 31.6763 18.4588 31.1532L19.472 31.5601C19.021 33.2239 18.6256 34.4154 18.2858 35.1347V35.142ZM22.5733 29.7945C22.8575 30.0634 23.1355 30.3685 23.4135 30.7173L22.9811 31.2259C22.7092 30.8916 22.4312 30.5792 22.1409 30.3031L22.5733 29.7945ZM21.9061 30.5429C22.1903 30.8335 22.4683 31.1532 22.7463 31.4947L22.3138 32.0033C22.0605 31.64 21.7825 31.313 21.4736 31.0152L21.9061 30.5356V30.5429ZM22.283 36.7767C22.0049 35.7886 21.7022 34.8877 21.3872 34.0885C21.0659 33.282 20.6705 32.4319 20.201 31.531L21.0103 31.0224C21.4242 31.7417 21.7825 32.4392 22.0853 33.1149C22.4868 34.0231 22.8822 35.0693 23.2714 36.2681L22.2891 36.7767H22.283ZM28.1334 32.5845V37.4524H27.0894V33.5072C26.2739 34.2047 25.4213 34.7714 24.5441 35.2074C24.4082 34.8441 24.2228 34.5099 23.9942 34.1829C24.5997 33.8996 25.1001 33.6235 25.4831 33.3765C26.4531 32.7371 27.3365 31.9451 28.1396 30.9934C28.362 30.7245 28.6524 30.3467 29.0045 29.8599L29.8756 30.6737C29.3011 31.3276 28.7203 31.9597 28.1396 32.5772L28.1334 32.5845Z" fill="#454545"/>
<path d="M45.0733 32.0106H38.3209L38.3579 31.9089L38.6298 31.5892L39.0622 31.0806L39.7418 30.2814L39.0375 29.5112C38.7533 29.1988 38.4506 28.8937 38.1479 28.6103L37.4992 28L36.9246 28.6757L36.8938 28.6466L36.3069 29.3369L36.1277 29.5476L35.4172 29.2787L34.4349 28.9009L33.6627 28.603L33.3167 29.4676C33.1623 29.86 33.0264 30.1579 32.9214 30.3613C32.5569 31.0806 32.1368 31.6691 31.6549 32.1196C31.4881 32.2721 31.241 32.4538 30.9321 32.6572L29.8633 33.3474L30.7097 34.3719C30.9135 34.6116 31.0803 34.8732 31.2224 35.142L31.3954 35.469L30.1104 35.8468L31.068 37.1836C31.2533 37.4379 31.3954 37.714 31.4943 38.0119L31.834 39.0073L32.6866 38.6222C33.2179 38.3824 33.6627 38.1572 34.0087 37.9538C35.0033 37.3725 35.8003 36.6968 36.3748 35.9485C36.9926 35.142 37.598 33.9214 38.2405 32.2213L38.29 32.0905V35.2946H45.9938V32.0106H45.0672H45.0733ZM35.6891 35.2147C35.1948 35.8613 34.4967 36.4498 33.6009 36.9729C33.2859 37.1546 32.8719 37.3653 32.3592 37.5978C32.2232 37.1982 32.0256 36.8203 31.7784 36.4716C32.4457 36.2754 33.014 36.0284 33.4897 35.7378C33.8728 35.5053 34.2496 35.1929 34.6203 34.8078C34.2434 34.4155 33.848 34.0304 33.4341 33.6526L34.0148 32.9406C34.4535 33.2748 34.8798 33.6308 35.2875 33.9941C35.5964 33.4782 35.8929 32.8461 36.1833 32.0905H34.299C33.9222 32.6863 33.5453 33.1876 33.1623 33.5872C32.8349 33.9359 32.4518 34.2629 32.0132 34.5753C31.834 34.2411 31.624 33.9214 31.3769 33.6235C31.7352 33.391 32.0194 33.1803 32.2294 32.9841C32.804 32.4538 33.2982 31.7708 33.7183 30.9353C33.8419 30.7028 33.984 30.3686 34.1569 29.9399L35.1392 30.3177C35.0527 30.5284 34.9415 30.7609 34.818 31.0297H36.6405L36.727 30.9934L37.3942 31.7781C36.8011 33.362 36.2265 34.5099 35.6829 35.2147H35.6891ZM37.4003 31.4657C37.1409 31.1169 36.8814 30.8045 36.6158 30.5139L36.9617 30.107C37.2521 30.3831 37.5239 30.681 37.771 30.9934L37.3942 31.4729L37.4003 31.4657ZM37.9811 30.819C37.7278 30.5066 37.4621 30.2087 37.1718 29.9326L37.5795 29.4531C37.8699 29.7292 38.1479 30.0125 38.4197 30.3032L37.9873 30.8118L37.9811 30.819ZM45.0733 34.1902H39.2228V33.1004H45.0733V34.1902Z" fill="#454545"/>
</svg>
