<svg width="67" height="66" viewBox="0 0 67 66" fill="none" xmlns="http://www.w3.org/2000/svg">
<path d="M63.014 23.2534L47.1873 15.725C44.5063 14.4515 41.2533 15.5258 39.9397 18.1248L35.7305 26.4502L26.4275 13.282C24.7384 10.8909 21.3604 10.2845 18.9028 11.9132L4.35399 21.5727C1.88748 23.2101 1.26191 26.4848 2.942 28.8672L16.9278 48.6628C17.9734 50.1442 19.6714 50.9412 21.4051 50.9412C22.4596 50.9412 23.5231 50.6467 24.4525 50.0229L30.4758 46.0205C30.7975 46.2717 31.146 46.5056 31.5303 46.6876L47.3571 54.2073C48.6976 54.8484 50.181 54.8917 51.4947 54.4585C52.8084 54.0254 53.9434 53.1071 54.6047 51.8076L65.4895 30.2707C66.8121 27.6717 65.695 24.5269 63.014 23.2534ZM22.3792 47.0861C21.5838 47.6145 20.5025 47.4153 19.9573 46.6443L5.98045 26.8573C5.43532 26.0863 5.64086 25.038 6.43622 24.5096L20.9761 14.8587C21.28 14.6594 21.6196 14.5641 21.9592 14.5641C22.5132 14.5641 23.0584 14.824 23.398 15.3005L33.8717 30.1321L29.0548 39.6617C28.5186 40.7186 28.3935 41.8708 28.608 42.945L22.3792 47.0861ZM62.1919 28.7026L51.3071 50.2395C50.887 51.0712 49.8415 51.4177 48.9746 51.0105L33.8181 43.8027L33.1478 43.4822C32.2899 43.075 31.9324 42.0614 32.3525 41.221L32.9423 40.0602L36.2578 33.5021L38.1166 29.8288L43.2373 19.6928C43.6573 18.8611 44.7029 18.5146 45.5697 18.9218L61.3965 26.4415C62.2634 26.8573 62.6208 27.8709 62.1919 28.7026Z" fill="#454545"/>
<path d="M26.7849 36.7421C26.6598 36.6988 26.1773 36.0577 25.3193 34.7929C24.5597 33.7966 23.809 32.7483 23.0048 31.6654C23.0316 31.6481 23.0584 31.6221 23.1209 31.5788C24.0325 30.7471 24.8546 30.1233 25.5874 29.6902C25.8287 29.5776 25.9449 29.4996 25.9538 29.4216C25.9628 29.3696 25.8913 29.2484 25.7572 29.0838C25.4266 28.6593 25.2925 28.0442 25.3461 27.2731C25.3998 26.4934 25.507 25.9303 25.6589 25.5318C25.8823 25.2286 25.8019 25.0726 25.373 25.0553C24.944 25.038 24.4525 25.09 23.9074 25.1766C22.6026 25.4452 21.2621 26.2595 19.9395 27.611C19.9127 27.637 19.9127 27.637 19.9127 27.637C19.8144 27.507 19.7071 27.3424 19.591 27.2038C18.6884 26.0863 18.2326 25.4452 18.2326 25.2632C18.3041 24.7694 17.9734 24.7001 17.2406 25.0813C16.5078 25.4885 16.4006 25.861 16.9189 26.1902C17.0351 26.3028 17.7143 27.1432 18.9743 28.6852C18.5633 29.1617 18.1969 29.6555 17.8305 30.158C17.1513 31.1023 16.49 31.7954 15.8644 32.2545C15.5874 32.3931 15.5784 32.6184 15.8644 32.9216C16.5078 33.5367 17.2228 33.9265 18.0539 34.0998C18.876 34.2991 19.4301 34.4463 19.6893 34.5416C20.0467 34.7669 20.288 34.7495 20.3774 34.5416C20.8957 33.7966 21.4587 33.1382 22.0843 32.5491C22.7456 33.3981 23.2729 34.0132 23.6214 34.3943C24.2827 35.174 24.8725 35.9018 25.4176 36.5948C25.784 37.1233 25.9628 37.4352 25.9449 37.5911C25.927 37.7384 26.1683 37.6691 26.6688 37.4005C27.1335 37.1233 27.1782 36.9154 26.7849 36.7421ZM20.5293 32.4884C20.2076 32.9043 19.9395 33.1728 19.6803 33.3114C19.5105 33.476 19.162 33.3807 18.6705 33.0515C18.1432 32.731 17.8841 32.4278 17.8751 32.1246C17.9734 31.4921 18.5364 30.5912 19.5552 29.4389C19.6446 29.5776 19.725 29.6902 19.868 29.8115C20.3774 30.4872 20.8421 31.0763 21.2889 31.5874C20.9672 31.96 20.708 32.2632 20.5293 32.4884ZM20.5114 28.3994C20.5561 28.3647 20.6187 28.2954 20.6902 28.2174C21.7358 27.2038 22.5937 26.658 23.2371 26.632C23.4695 26.7533 23.7107 27.0825 23.9788 27.663C24.2201 28.2607 24.1576 28.7719 23.7644 29.179C23.2997 29.5862 22.7813 30.0627 22.2094 30.5912C21.6196 29.8288 21.0566 29.0838 20.5114 28.3994Z" fill="#454545"/>
<path d="M53.7557 35.9018C53.2106 35.2867 52.8531 34.7322 52.6208 34.2644C52.3973 33.7793 52.1739 33.3634 52.022 32.9909C52.2186 32.9389 52.7101 32.8523 53.4697 32.7916C54.2383 32.8783 54.6136 32.835 54.5779 32.6097C54.5153 32.4191 54.5421 32.1246 54.5957 31.7694C54.6315 31.3795 54.1042 31.3882 53.0765 31.7694C52.3258 31.9946 51.8433 32.1419 51.6377 32.2112C51.3696 31.7261 51.173 31.3795 51.039 31.1629C51.039 31.1629 51.0569 31.1283 51.1015 31.1196C51.1283 31.0763 51.6467 30.929 52.6208 30.7125C53.425 30.6951 53.7825 30.5825 53.7468 30.3833C53.6574 30.1753 53.6127 29.8894 53.6306 29.4909C53.6127 29.1184 53.0765 29.1791 52.0488 29.6989C51.1283 30.0974 50.6458 30.3053 50.5832 30.3313C50.5117 30.3139 50.467 30.3139 50.4581 30.3313C50.3687 30.158 50.2972 29.9847 50.2615 29.8201C50.1721 29.4649 50.0381 29.3956 49.8236 29.6295C49.6002 29.8721 49.3857 30.1407 49.207 30.4526C48.9657 30.7644 49.0372 30.903 49.3321 30.929C49.5734 31.059 49.8325 31.3795 50.1364 31.9426C50.3955 32.4884 50.7173 32.9822 51.1015 33.4067C51.4411 33.8052 51.593 34.377 51.5573 35.1047C51.2892 35.6072 51.3339 35.9364 51.6913 36.0837C52.0131 36.257 52.308 36.4302 52.6297 36.6815C52.8889 36.924 53.3178 37.1666 53.8987 37.4178C54.2204 37.5478 54.4885 37.6691 54.6851 37.7557C54.8281 37.8337 54.9443 37.851 54.98 37.7903C54.9979 37.721 54.9264 37.5218 54.7923 37.2012C54.6315 36.9413 54.283 36.4909 53.7557 35.9018Z" fill="#454545"/>
<path d="M51.0479 36.0403C50.4045 35.8844 50.047 35.7111 49.9755 35.5292C49.9577 35.0787 50.2883 34.7928 50.9854 34.6282C51.2982 34.5936 51.2445 34.2817 50.7888 33.7186C50.6369 33.398 49.8326 33.1295 48.3133 32.9302C48.0184 32.8523 47.9022 32.9129 47.8933 33.1122C47.7682 33.632 47.5001 34.0738 47.1248 34.403C46.812 34.7409 46.2132 34.9055 45.3106 34.9141C45.0693 34.9661 45.0693 35.0441 45.3285 35.1827C45.9362 35.5465 46.6243 35.6505 47.4107 35.5639C47.5448 35.5552 47.7146 35.3213 47.9291 34.8708C48.0989 34.4203 48.4206 34.0391 48.8674 33.7706C49.2427 33.7273 49.5377 33.8052 49.7521 34.0131C49.8147 34.2037 49.6985 34.4463 49.4036 34.7409C49.0729 35.0267 48.9657 35.3386 49.0193 35.6678C48.8674 36.1963 48.9925 36.5255 49.3679 36.6381C49.7253 36.7854 50.0649 36.8893 50.3598 36.9067C50.5832 36.9413 50.8424 36.8634 51.1641 36.6294C51.4769 36.3955 51.4322 36.2049 51.0479 36.0403Z" fill="#454545"/>
<path d="M43.8807 37.3485C44.2113 36.9154 44.5867 36.6121 45.0246 36.4389C45.2122 36.2569 45.1139 35.9191 44.6939 35.4339C44.4884 35.2867 44.1577 35.1307 43.7377 35.0268C43.2819 34.9055 43.0943 34.8015 43.1479 34.7149C43.3356 34.351 43.6751 34.1431 44.1667 34.1258C44.6582 34.2211 45.0782 34.2817 45.4088 34.299C45.5429 34.2904 45.6591 34.2297 45.7306 34.1691C46.0523 33.7099 46.3472 33.3807 46.5974 33.1555C46.8298 32.9736 47.1157 32.8003 47.4464 32.6963C47.8039 32.7223 47.8128 32.5317 47.4375 32.1246C47.0711 31.8906 46.5885 31.7347 45.9897 31.6567C45.3999 31.5441 44.9978 31.4575 44.7297 31.3362C46.0702 30.8164 47.0532 30.3226 47.6966 29.9241C48.3043 29.4823 48.8673 29.257 49.341 29.2657C49.6269 29.2743 49.7342 29.1271 49.6537 28.8238C49.5554 28.5293 49.3588 28.2001 49.0818 27.8709C48.8226 27.4464 48.3579 27.2645 47.7145 27.3078C47.0443 27.3164 46.5081 27.1518 46.1327 26.814C46.0344 26.736 45.9182 26.9006 45.7306 27.3684C45.5429 27.8102 45.6323 28.0615 46.0255 28.1048C47.2051 27.9055 47.8575 27.9662 47.9558 28.3474C47.92 28.5899 47.4732 29.0231 46.5617 29.5862C45.9808 29.3177 45.4625 28.9798 44.971 28.5553C44.8548 28.3907 44.7297 28.3474 44.6314 28.4513C44.5152 28.5466 44.4526 28.8065 44.4437 29.179C44.4348 29.5602 44.4794 29.7422 44.5867 29.7422C44.8548 29.9674 45.1944 30.106 45.5697 30.1407C44.9352 30.4525 44.2918 30.6951 43.7198 30.877C42.9781 31.085 42.2721 31.2236 41.6465 31.2669C40.9584 31.3015 40.3686 31.3535 39.9039 31.4748C39.5017 31.5181 39.4481 31.6134 39.7341 31.7694C40.5116 32.0812 41.5929 32.2718 42.9781 32.3845C43.4339 32.3585 43.7109 32.2285 43.7913 31.9426C43.8092 31.6914 43.979 31.5355 44.3186 31.4575C44.2471 31.5441 44.1845 31.6481 44.122 31.7607C43.8628 32.1505 43.8896 32.3238 44.1845 32.2805C44.971 32.1765 45.4178 32.2718 45.534 32.5144C45.4625 32.757 45.2212 32.9909 44.828 33.2508C44.6224 33.2854 44.399 33.2681 44.1935 33.2335C43.9254 33.1901 43.6841 33.1035 43.4607 33.0255C43.3177 32.9909 43.2015 33.0689 43.1211 33.2941C42.7904 33.7706 42.424 34.1171 42.0308 34.3683C41.6108 34.6282 41.2801 34.8362 41.0656 35.0094C40.735 35.2173 40.6546 35.3993 40.8601 35.5466C41.0388 35.6765 41.3248 35.6938 41.727 35.5639C42.0219 35.4599 42.3078 35.3906 42.6206 35.4339C42.8708 35.4686 43.0675 35.5725 43.2462 35.7631C43.2551 35.8931 43.0943 36.1876 42.6832 36.6814C42.281 37.1752 41.8789 37.5478 41.432 37.8163C40.9763 37.851 40.5741 37.3399 40.2345 36.2916C40.1005 36.0144 40.0379 36.049 40.0379 36.3869C40.0558 37.2446 40.1541 37.8856 40.4133 38.3101C40.6009 38.7173 40.7797 39.1332 40.9316 39.497C41.0388 39.5923 41.1908 39.5923 41.3516 39.4537C41.4767 39.3411 41.7001 39.2111 41.9593 39.0898C42.8798 38.3448 43.5232 37.7644 43.8807 37.3485Z" fill="#454545"/>
<path d="M49.1355 37.0281C48.9299 36.7595 48.4295 36.5689 47.6699 36.4909C46.8656 36.4043 46.3383 36.2657 46.097 36.1357C45.9004 36.0491 45.811 36.231 45.811 36.6729C45.7574 37.0887 45.963 37.262 46.3651 37.132C46.5885 37.0714 46.9371 37.0714 47.3481 37.132C47.7503 37.2013 47.9916 37.288 48.0631 37.4092C48.1346 37.5479 47.9201 37.7991 47.4733 38.1889C47.2498 38.3189 47.0622 38.4315 46.8656 38.5528C46.4366 38.1196 46.0166 37.6951 45.5429 37.2793C45.2212 37.1493 45.105 37.21 45.248 37.4699C45.4268 37.8857 45.6949 38.3795 45.9808 38.934C45.9093 38.9773 45.8647 38.9946 45.811 39.0033C45.3106 39.1419 44.8816 39.2372 44.4616 39.2545C44.0237 39.2459 43.5947 39.2372 43.2015 39.2285C42.6564 39.0553 42.433 39.0813 42.5581 39.2892C42.6474 39.4971 42.9692 39.7483 43.5054 40.0169C43.6662 40.1035 43.8539 40.1815 44.1041 40.2508C44.3186 40.3201 44.4973 40.2941 44.6224 40.2248C44.7386 40.1295 44.9084 40.0515 45.1408 40.0169C45.5161 39.9736 45.9183 39.9043 46.3919 39.7916C46.7404 40.5453 47.1337 41.3943 47.6073 42.3646C47.6609 42.7198 47.7503 42.9624 47.8039 43.1616C47.8218 43.3522 47.938 43.4389 48.1703 43.4389C48.3669 43.4215 48.6261 43.153 48.9657 42.6245C49.2874 42.0614 49.4036 41.7409 49.2874 41.6456C48.787 40.8745 48.2418 40.0949 47.5716 39.3325C47.7771 39.2199 48.0005 39.0553 48.2239 38.8733C48.7155 38.4488 49.1444 38.2063 49.5376 38.137C49.6717 38.085 49.6538 37.9377 49.5287 37.6691C49.3768 37.3746 49.2249 37.158 49.1355 37.0281Z" fill="#454545"/>
</svg>
