<svg width="47" height="40" viewBox="0 0 47 40" fill="none" xmlns="http://www.w3.org/2000/svg">
<path d="M6 28.6319H5.5V29.1319V36.8681V37.3681H6H8.90361C9.49844 37.3681 10.0117 37.312 10.4219 37.1807L10.4237 37.1801C10.9332 37.0147 11.3685 36.7746 11.7045 36.4434C12.0551 36.0987 12.329 35.6743 12.5329 35.1812V36.8681V37.3681H13.0329H14.5759H15.0759V36.8681V35.107C15.0968 35.1551 15.1185 35.2028 15.1409 35.2504L15.1414 35.2513C15.4831 35.9714 15.9996 36.5341 16.6838 36.927L16.6857 36.9281C17.3672 37.3154 18.152 37.5 19.0232 37.5C19.7173 37.5 20.3992 37.3677 21.0663 37.1068L21.0677 37.1063C21.6597 36.8726 22.156 36.5948 22.5326 36.2609V36.8681V37.3681H23.0326H24.5756H25.0756V36.8681V30.9406H26.6306V36.8681V37.3681H27.1306H28.6736H28.9991H29.1736H29.7272H31.3641H31.7158L31.8347 37.037L32.3466 35.6108H34.7047L35.2495 37.0456L35.3719 37.3681H35.7169H37.1202H37.3955H37.6202H38.1309H43H43.5V36.8681V35.5646V35.0646H43H39.6633V29.1953V28.6953H39.1633H37.6202H37.1202V29.1953V34.8129L34.8004 28.948L34.6754 28.6319H34.3355H32.7038H32.3605L32.2372 28.9524L29.2606 36.6885L29.1736 36.9146V36.8681V30.9406H30.936H31.436V30.4406V29.1319V28.6319H30.936H25.0756H24.8629H24.5756H24.3629H23.0326H22.5326V29.1319V30.6535C22.3168 30.0694 21.9609 29.5823 21.4618 29.2078C20.8133 28.7151 19.9525 28.5 18.9398 28.5C18.1543 28.5 17.4594 28.6378 16.8787 28.9419C16.1485 29.3217 15.586 29.8736 15.2039 30.5908C15.1584 30.6762 15.1158 30.7629 15.0759 30.8509V29.1319V28.6319H14.5759H13.0329H12.5329V29.1319V30.8255C12.3514 30.3792 12.1055 29.9853 11.7915 29.6502C11.4113 29.2443 10.9506 28.9595 10.4175 28.8005L10.4162 28.8001C10.0133 28.6812 9.47146 28.6319 8.8202 28.6319H6ZM22.5326 31.7189V32.2203H22.2917H18.9658H18.4658V32.7203V34.0237V34.5237H18.9658H20.233V34.7469C20.0827 34.8424 19.909 34.9305 19.71 35.0099C19.441 35.1151 19.18 35.1649 18.9241 35.1649C18.4031 35.1649 18.0158 34.9898 17.7151 34.649C17.4237 34.3153 17.2347 33.7654 17.2347 32.9103C17.2347 32.1289 17.4169 31.629 17.697 31.3226C17.9879 31.0081 18.3833 30.8351 18.9398 30.8351C19.2991 30.8351 19.5578 30.9232 19.7501 31.0675L19.75 31.0675L19.7554 31.0714C19.9577 31.2191 20.0995 31.4208 20.179 31.701L20.3038 32.141L20.7531 32.0559L22.2857 31.7657L22.5326 31.7189ZM9.50554 35.006L9.50554 35.006L9.50344 35.0066C9.378 35.0389 9.12144 35.0646 8.69509 35.0646H8.04303V30.9406H8.23635C8.87287 30.9406 9.23965 30.9672 9.39168 31.0019L9.39167 31.002L9.39588 31.0029C9.60734 31.0493 9.7591 31.1323 9.87175 31.24C9.98461 31.3479 10.0937 31.5186 10.1797 31.7828C10.2597 32.0285 10.3115 32.4257 10.3115 33.0053C10.3115 33.5813 10.2605 33.9992 10.1764 34.2807C10.0842 34.5854 9.98337 34.7344 9.91267 34.7985L9.91265 34.7985L9.9088 34.802C9.81597 34.888 9.68769 34.9599 9.50554 35.006ZM33.1803 33.3074L33.5061 32.4014L33.8384 33.3074H33.1803Z" stroke="#454545"/>
<path d="M16.6363 5H14.0908V7.54545H16.6363V5Z" fill="#454545"/>
<path d="M31.9092 5H29.3638V7.54545H31.9092V5Z" fill="#454545"/>
<path d="M34.4545 15.1818V12.6363H31.9091V10.0909H29.3636V7.54541H26.8182V10.0909H24.2727H21.7273H19.1818V7.54541H16.6364V10.0909H14.0909V12.6363H11.5455V15.1818H9V17.7272V20.2727V22.8181V25.3636H11.5455V22.8181V20.2727V17.7272H14.0909V20.2727V22.8181V25.3636H16.6364V22.8181H19.1818H21.7273V20.2727H24.2727V22.8181H26.8182H29.3636V25.3636H31.9091V22.8181V20.2727V17.7272H34.4545V20.2727V22.8181V25.3636H37V22.8181V20.2727V17.7272V15.1818H34.4545ZM16.6364 15.1818V12.6363H19.1818V15.1818V17.7272H16.6364V15.1818ZM26.8182 17.7272V15.1818V12.6363H29.3636V15.1818V17.7272H26.8182Z" fill="#454545"/>
<path d="M19.1817 27.909H21.7271V25.3635H19.1817H16.6362V27.909H19.1817Z" fill="#454545"/>
<path d="M24.2727 25.3635V27.909H26.8182H29.3636V25.3635H26.8182H24.2727Z" fill="#454545"/>
</svg>
