<svg width="47" height="40" viewBox="0 0 47 40" fill="none" xmlns="http://www.w3.org/2000/svg">
<path fill-rule="evenodd" clip-rule="evenodd" d="M12.8467 26.5679L8.13996 11.349C7.9236 10.6443 8.33468 9.89763 9.06598 9.68369L18.0665 7.07031C18.1963 7.03256 18.3305 7.01578 18.4603 7.01578C19.0531 7.01578 19.6027 7.38912 19.7801 7.96801L20.8879 11.5546L22.0735 8.36651L21.7706 7.38912C21.2211 5.6189 19.2911 4.61214 17.4651 5.14069L8.4645 7.75407C6.63842 8.28681 5.5999 10.1577 6.14513 11.9279L10.6728 26.5679H12.8467Z" fill="#454545"/>
<path d="M16.937 19.8854L13.5618 18.1991C13.207 18.0229 12.9127 17.7754 12.7093 17.4692C12.5146 17.1839 12.4064 16.84 12.4108 16.4582C12.4151 16.1227 12.506 15.7913 12.6661 15.4976C12.8262 15.204 13.0555 14.9439 13.3368 14.751C13.6613 14.5244 14.0248 14.407 14.3926 14.3902C14.7215 14.3734 15.0504 14.4321 15.3706 14.558C15.5523 14.2769 15.7903 14.0462 16.0673 13.87C16.3788 13.6771 16.738 13.568 17.1491 13.568C17.4909 13.5638 17.8371 13.6519 18.14 13.7987C18.4472 13.9455 18.7198 14.1637 18.9232 14.4363C19.1525 14.7426 19.2694 15.0823 19.2867 15.4305C19.3083 15.7913 19.2131 16.1604 19.0357 16.5002L19.0271 16.517L17.3005 19.7763C17.2313 19.898 17.0712 19.9483 16.937 19.8854Z" fill="#454545"/>
<path d="M26.1238 16.9282L28.9927 15.4768C29.0014 15.4726 29.0143 15.4684 29.0316 15.46C29.1442 15.4181 29.2696 15.4139 29.3735 15.4474C29.4903 15.4852 29.6028 15.5649 29.6677 15.6865L31.152 18.4425L31.1693 18.4677C31.2558 18.6229 31.3207 18.7949 31.364 18.9669L31.3683 18.9795C31.4073 19.1599 31.4289 19.3318 31.4203 19.508C31.4116 19.6842 31.377 19.8562 31.3164 20.024C31.2558 20.1876 31.1736 20.347 31.0654 20.4896C31.0568 20.5022 31.0481 20.5148 31.0395 20.5274C30.9443 20.649 30.8361 20.7581 30.7192 20.8504C30.5938 20.9552 30.451 21.0475 30.2995 21.123C30.1567 21.1943 30.0053 21.2447 29.8495 21.2866L29.8235 21.295C29.6634 21.3328 29.499 21.3538 29.3259 21.3538C29.1355 21.3538 28.9494 21.3286 28.772 21.2824C28.5903 21.2321 28.4215 21.1566 28.2614 21.0643C28.2052 21.0266 28.1532 20.9888 28.1013 20.9469C28.1143 21.0224 28.1316 21.0937 28.1619 21.165C28.2571 21.4209 28.4172 21.6558 28.6379 21.8445C28.7287 21.9075 28.772 22.0249 28.7374 22.1382C28.6941 22.2766 28.5427 22.3521 28.3999 22.306L26.1324 21.6138V21.6096C26.0286 21.5803 25.955 21.4964 25.942 21.3873C25.9291 21.2405 26.0372 21.1146 26.1844 21.1021C26.4829 21.0727 26.7599 20.9678 26.9979 20.8042C27.0585 20.7623 27.119 20.7161 27.1753 20.6616C27.1061 20.6658 27.0411 20.6658 26.9719 20.6616C26.7858 20.6574 26.6041 20.6197 26.4224 20.5567C26.2536 20.498 26.0848 20.4183 25.9247 20.3092C25.7863 20.217 25.6651 20.1079 25.5526 19.9904C25.4444 19.8688 25.3449 19.7303 25.267 19.5877C25.1848 19.4451 25.1285 19.2899 25.0809 19.1305C25.0377 18.9753 25.0117 18.8159 25.0117 18.6565C25.0074 18.4719 25.0333 18.2915 25.0809 18.1237C25.1285 17.9517 25.2021 17.7965 25.2973 17.6539L25.3016 17.6413C25.4011 17.4945 25.518 17.3603 25.6564 17.2344C25.7992 17.117 25.9593 17.0121 26.1238 16.9282Z" fill="#454545"/>
<path fill-rule="evenodd" clip-rule="evenodd" d="M33.8423 26.5679L38.8068 13.2074C39.101 12.4104 39.0578 11.5463 38.6856 10.7744C38.3092 10.0026 37.6514 9.41947 36.8293 9.13422L27.9888 6.04683C27.1666 5.76158 26.2752 5.80353 25.479 6.16428C24.6828 6.52923 24.0813 7.16685 23.7871 7.96387L18.2007 22.9939C17.9064 23.791 17.9497 24.6551 18.3218 25.4269C18.5426 25.8795 18.86 26.2672 19.2506 26.5679H23.8522L20.7667 25.4899C20.3773 25.3556 20.0657 25.0788 19.8883 24.7138C19.7152 24.3489 19.6936 23.942 19.832 23.5644L25.4141 8.53017C25.5526 8.15263 25.8382 7.85061 26.2147 7.67862C26.5911 7.51082 27.0109 7.48566 27.4003 7.62408L36.2408 10.7115C36.6302 10.8457 36.9418 11.1226 37.1192 11.4875C37.2923 11.8525 37.3139 12.2594 37.1754 12.6369L31.999 26.5679H33.8423Z" fill="#454545"/>
<path d="M6.5 36.8935V37.3935H7H8.53534H9.03534V36.8935V34.8688H9.82601C10.4491 34.8688 11.0128 34.7455 11.4958 34.4742C11.9738 34.2071 12.3445 33.8289 12.5981 33.3469C12.7018 33.1497 12.7828 32.9423 12.8423 32.7255C12.8389 32.8159 12.8373 32.9074 12.8373 33C12.8373 33.9038 12.9961 34.7058 13.3368 35.3871C13.6719 36.0572 14.1379 36.5865 14.739 36.9548C15.3363 37.3209 16.0071 37.5 16.7377 37.5C17.4635 37.5 18.1312 37.3222 18.7277 36.9596L18.7284 36.9592C19.3318 36.5912 19.7993 36.062 20.1346 35.3917C20.4781 34.71 20.6381 33.9063 20.6381 33C20.6381 32.0937 20.4781 31.2901 20.1347 30.6084C19.7994 29.9382 19.3318 29.41 18.7281 29.0444C18.1317 28.6793 17.4638 28.5 16.7377 28.5C16.0074 28.5 15.3369 28.679 14.7397 29.0447C14.1381 29.4106 13.6718 29.939 13.3368 30.6091C13.1718 30.9391 13.0495 31.2976 12.9672 31.6825C12.9591 31.1229 12.8424 30.6071 12.6036 30.1473C12.3565 29.6643 11.9935 29.283 11.5231 29.0121C11.0437 28.7334 10.4837 28.6065 9.86502 28.6065H7H6.5V29.1065V36.8935ZM9.57781 32.5494H9.03534V30.9525H9.57071C9.81078 30.9525 9.96531 30.9968 10.0632 31.0518L10.0632 31.0518L10.0675 31.0542C10.1724 31.1118 10.2425 31.1865 10.2909 31.2864L10.2908 31.2865L10.2942 31.2931C10.3497 31.4035 10.3862 31.5494 10.3862 31.7452C10.3862 31.9374 10.3502 32.0869 10.2919 32.2058L10.2919 32.2058L10.2909 32.2079C10.2416 32.3095 10.1691 32.3889 10.0599 32.452C9.96517 32.5056 9.81426 32.5494 9.57781 32.5494ZM17.8869 31.7943L17.8869 31.7943L17.8879 31.7968C18.0103 32.0977 18.0815 32.4933 18.0815 33C18.0815 33.5067 18.0103 33.9023 17.8879 34.2032L17.8869 34.2057C17.7642 34.5121 17.6039 34.7133 17.4209 34.8424C17.2369 34.9723 17.016 35.0437 16.7377 35.0437C16.4594 35.0437 16.2385 34.9723 16.0544 34.8424C15.8709 34.7129 15.7094 34.5112 15.5844 34.2044C15.4639 33.9029 15.3939 33.5067 15.3939 33C15.3939 32.4933 15.4639 32.0971 15.5844 31.7956C15.7094 31.4888 15.8709 31.2871 16.0544 31.1576C16.2385 31.0277 16.4594 30.9563 16.7377 30.9563C17.016 30.9563 17.2369 31.0277 17.4209 31.1576C17.6039 31.2867 17.7642 31.4879 17.8869 31.7943ZM20.7754 36.8935V37.3935H21.2754H22.8108H23.3108V36.8935V34.8497L23.5236 34.5712L25.1305 37.1574L25.2773 37.3935H25.5552H27.392H27.6596H28.1596H28.301H33.067H33.567V36.8935V35.5361V35.0361H33.067H30.195V34.1768H32.8011H33.3011V33.6768V32.3194V31.8194H32.8011H30.195V30.9639H33.0529H33.5529V30.4639V29.1065V28.6065H33.0529H28.3784H28.1596H27.6596H27.3601H25.5198H25.272L25.1219 28.8036L23.3108 31.1832V29.1065V28.6065H22.8108H21.2754H20.7754V29.1065V36.8935ZM27.6596 29.5365V36.382L25.2753 32.6215L27.6596 29.5365ZM33.7735 36.8935V37.3935H34.2735H35.8088H36.3088V36.8935V34.6331H36.6201L37.8576 37.1165L37.9956 37.3935H38.3051H40H40.8158L40.4455 36.6666L39.1188 34.0616C39.4261 33.8425 39.6767 33.5647 39.865 33.2298L39.8657 33.2285C40.1233 32.7671 40.2412 32.2346 40.2412 31.6502C40.2412 31.0689 40.1248 30.5372 39.8732 30.0716C39.6226 29.6005 39.2541 29.235 38.7795 28.9817C38.3032 28.7237 37.7496 28.6065 37.1385 28.6065H34.2735H33.7735V29.1065V36.8935ZM36.8513 32.3099H36.3088V30.9525H36.8442C37.0908 30.9525 37.2549 30.9922 37.3604 31.0432L37.3604 31.0433L37.3673 31.0465C37.4731 31.0957 37.5336 31.1572 37.5731 31.2313L37.5731 31.2314L37.5755 31.2359C37.6226 31.3221 37.6597 31.4526 37.6597 31.6502C37.6597 31.845 37.6227 31.9691 37.5785 32.0477L37.5785 32.0477L37.576 32.0523C37.5383 32.121 37.4809 32.1783 37.3786 32.2237C37.2682 32.2728 37.0995 32.3099 36.8513 32.3099Z" stroke="#454545"/>
</svg>
