<svg width="66" height="66" viewBox="0 0 66 66" fill="none" xmlns="http://www.w3.org/2000/svg">
<path d="M51.168 23.812V24.5958C51.2587 25.1378 51.3418 25.7604 51.3418 26.4124C51.3418 27.284 51.1907 28.0971 51.0698 28.7563C50.9942 29.1812 50.8884 29.7525 50.9111 30.0089C50.9866 30.0309 51.1302 30.0529 51.3796 30.0529C51.5156 30.0529 51.6516 30.0309 51.7876 30.0162C51.6894 28.6904 51.508 27.013 51.2511 24.5738L51.168 23.812Z" fill="#454545"/>
<path d="M40.2267 24.5371C39.5995 24.5371 39.0933 25.0279 39.0933 25.6359V31.1442C39.0933 31.7522 39.5995 32.243 40.2267 32.243C40.8538 32.243 41.3601 31.7522 41.3601 31.1442V25.6359C41.3601 25.0279 40.8538 24.5371 40.2267 24.5371Z" fill="#454545"/>
<path d="M35.0659 31.408C34.537 31.408 34.0987 31.7595 33.9702 32.2283C33.8116 32.3089 33.4715 32.4188 32.988 32.4188C32.5044 32.4188 32.1643 32.3089 32.0057 32.2283C31.8772 31.7595 31.439 31.408 30.91 31.408C30.2829 31.408 29.7766 31.8987 29.7766 32.5067C29.7766 33.7299 31.1292 34.6162 32.988 34.6162C34.8468 34.6162 36.1993 33.7299 36.1993 32.5067C36.1993 31.8987 35.6855 31.408 35.0659 31.408Z" fill="#454545"/>
<path d="M57.4015 26.4123C57.4015 23.8412 55.6787 21.6584 53.291 20.8893C53.4799 18.9189 53.087 13.7694 45.4478 8.69326C45.4403 8.69326 45.4403 8.68594 45.4327 8.68594C45.4252 8.68594 45.4252 8.67861 45.4176 8.67129C44.9491 8.37829 33.9248 1.63935 24.2909 7.177C23.6108 7.38943 20.9586 8.31237 18.2687 10.7516C16.1605 12.6634 13.7275 15.8351 12.5639 20.7648C9.94191 21.3947 8 23.6801 8 26.4123C8 28.8588 9.5641 30.9537 11.778 31.8181C11.7554 42.6297 13.3195 47.8524 22.9308 49.5005C22.7419 50.46 22.6436 51.4929 22.6436 52.5989C22.6436 53.2069 23.1499 53.6977 23.7771 53.6977H29.5952H36.849H42.1232C42.7201 53.6977 43.2112 53.2508 43.2566 52.6795C43.2641 52.5843 43.3699 51.0387 42.9846 49.1342C45.5914 48.4896 47.896 47.5594 49.649 46.2775C51.7874 44.7173 53.019 42.7469 53.3137 40.4176C53.4195 39.5679 53.5177 38.828 53.6084 38.1615C54.024 35.0264 54.2053 33.5761 54.1524 31.5837C56.0792 30.6095 57.4015 28.661 57.4015 26.4123ZM30.5624 51.5002C30.5548 51.4489 30.5473 51.405 30.5397 51.3537C30.4868 51.0094 30.4339 50.6578 30.3811 50.2989C30.3811 50.2769 30.3735 50.2549 30.3735 50.2256C30.3584 50.1304 30.3433 50.0352 30.3282 49.9326C30.2602 49.4565 30.1997 48.9658 30.1468 48.4603C30.1468 48.4457 30.1468 48.4237 30.1393 48.4091C30.2375 48.4164 30.3357 48.4164 30.4339 48.4237C30.6153 48.431 30.8042 48.4384 30.9931 48.4457C31.4011 48.4603 31.8167 48.475 32.2323 48.475C32.4816 48.475 32.7234 48.4823 32.9728 48.475C33.1466 48.475 33.3128 48.4677 33.4866 48.4677C33.8266 48.4603 34.1666 48.4457 34.5067 48.431C34.6653 48.4237 34.8316 48.4164 34.9903 48.4091C35.4058 48.3871 35.8214 48.3578 36.2446 48.3212C36.3201 48.3138 36.3957 48.3138 36.4712 48.3065C36.4788 48.3065 36.4788 48.3065 36.4864 48.3065C36.4335 48.6508 36.373 49.0097 36.3126 49.3613C36.2899 49.4785 36.2748 49.5884 36.2597 49.6982C36.237 49.8447 36.1992 49.9912 36.1766 50.1377C36.0934 50.5846 36.0103 51.0387 35.9196 51.4929H30.5624V51.5002ZM33.9475 43.8237C34.008 43.831 34.0684 43.8383 34.1289 43.8383C35.1943 43.8383 36.1539 44.0068 36.9775 44.3364C36.9624 44.4902 36.9473 44.644 36.9322 44.8052C36.9019 45.0909 36.8717 45.3692 36.8415 45.6622C36.8264 45.8014 36.8113 45.9332 36.7962 46.0651C36.7962 46.0724 36.7962 46.0724 36.7962 46.0797H36.7886C36.4486 46.1164 36.1161 46.1383 35.7761 46.1603C35.5947 46.175 35.4134 46.1896 35.2396 46.2043C34.5444 46.2482 33.8493 46.2848 33.1768 46.2922C33.139 46.2922 33.1088 46.2922 33.0786 46.2922C32.4514 46.2995 31.8394 46.2922 31.2424 46.2702C31.0535 46.2629 30.8722 46.2482 30.6833 46.2409C30.4339 46.2262 30.1846 46.2043 29.9428 46.1823C29.9352 46.0431 29.9201 45.9039 29.9126 45.7648C29.8899 45.4278 29.8672 45.0909 29.8521 44.7539C29.8446 44.5781 29.837 44.4096 29.8219 44.2338C31.9149 43.5307 33.9324 43.8163 33.9475 43.8237ZM32.9803 41.5602C27.5098 41.5602 22.3716 38.7768 19.4701 34.2866C19.8026 30.9684 21.6236 29.0859 23.9357 27.5916V31.1442C23.9357 31.7522 24.442 32.2429 25.0691 32.2429C25.6963 32.2429 26.2026 31.7522 26.2026 31.1442V26.2878C26.4972 26.1339 26.7995 25.9728 27.0942 25.819C29.7992 24.4052 32.595 22.9476 33.9853 20.2667C34.3178 19.6221 34.7031 19.0068 35.1187 18.4208C36.7433 20.3253 40.6422 23.3944 48.6441 22.9256C48.6441 23.4091 48.7347 23.9291 48.833 24.4565C48.8556 24.5664 48.8707 24.6763 48.8934 24.7861V26.1266C48.901 34.6382 41.7605 41.5602 32.9803 41.5602ZM51.0544 20.4644C41.4507 21.8635 37.6802 18.1424 36.577 16.6481C39.539 13.4471 43.2868 11.506 44.6847 10.8541C50.6766 15.0293 51.1376 18.9482 51.0544 20.4644ZM10.2668 26.4123C10.2668 25.0938 11.0073 23.9438 12.0954 23.3065C12.6545 22.9769 13.3044 22.7791 14.0071 22.7791C14.2338 22.7791 14.3698 22.8011 14.4529 22.8157C14.4604 22.8157 14.4755 22.8157 14.4755 22.8231C14.4982 23.0794 14.3924 23.6435 14.3169 24.0756C14.2942 24.1928 14.2715 24.3247 14.2489 24.4565C14.1506 25.0352 14.0448 25.7091 14.0448 26.4196C14.0448 26.7566 14.0675 27.0788 14.1053 27.3938C14.1582 27.8919 14.2413 28.3607 14.3169 28.7636C14.3924 29.1884 14.4982 29.7598 14.4755 30.0162C14.4 30.0308 14.264 30.0528 14.0524 30.0528C14.0373 30.0528 14.0297 30.0528 14.0071 30.0528C13.1759 30.0528 12.4203 29.7818 11.7931 29.3349C10.8789 28.6684 10.2668 27.6062 10.2668 26.4123ZM14.0373 32.2356C15.0574 32.2283 15.7752 31.9719 16.2437 31.4299C16.969 30.5948 16.765 29.5107 16.561 28.3607C16.4477 27.7308 16.3268 27.0788 16.3268 26.405C16.3268 25.7311 16.4477 25.0791 16.561 24.4492C16.7726 23.2992 16.969 22.2151 16.2437 21.3801C15.9263 21.0138 15.4805 20.7867 14.9062 20.6695C17.3242 11.4621 24.6838 9.33786 25.0465 9.24264C25.1447 9.21334 25.2429 9.17671 25.3336 9.12544C31.6354 5.43367 38.9723 7.99007 42.3347 9.55028C39.539 11.0372 34.5822 14.2309 31.9678 19.2705C30.9024 21.3288 28.5298 22.5667 26.0212 23.8779C22.2054 25.8702 17.6718 28.2435 17.1957 34.3452C17.1882 34.4404 17.1806 34.543 17.1806 34.6455C17.0899 36.3229 17.2864 38.264 17.8909 40.5567C18.0193 41.0548 18.4803 41.3844 18.9865 41.3844C19.0772 41.3844 19.1754 41.3771 19.2661 41.3478C19.8706 41.2013 20.2408 40.6007 20.0821 40.0147C19.9084 39.3481 19.7799 38.7328 19.6741 38.1322C21.7974 40.337 24.4722 41.9778 27.4191 42.9007C26.0817 43.6479 24.9936 44.6807 24.2002 46.0138C23.9508 46.4387 23.7242 46.8928 23.5353 47.3762C15.4956 46.0651 14.0373 42.3587 14.0373 32.2356ZM24.9482 51.5002C24.986 50.9069 25.0767 50.3502 25.1825 49.8228C25.3412 49.039 25.5754 48.3285 25.8776 47.6912C25.9759 47.4934 26.059 47.2883 26.1723 47.1052C26.5577 46.4533 27.0413 45.8893 27.608 45.4205C27.6458 46.0504 27.6987 46.6804 27.7515 47.2883C27.7667 47.4861 27.7893 47.6766 27.812 47.867C27.8573 48.3212 27.9027 48.768 27.9556 49.2075C27.9707 49.3686 27.9933 49.5225 28.016 49.6763C28.0311 49.8154 28.0462 49.9546 28.0689 50.0938C28.1293 50.5626 28.1974 51.0241 28.2729 51.4709C28.2729 51.4782 28.2729 51.4855 28.2729 51.4855H24.9482V51.5002ZM40.9973 51.5002H38.2318C38.2998 51.1559 38.3527 50.8263 38.4131 50.4893C38.4434 50.3062 38.4887 50.1158 38.5189 49.9326C38.534 49.8521 38.5416 49.7788 38.5567 49.6982C38.6701 49.0097 38.7758 48.3358 38.8741 47.6692C38.8967 47.5227 38.9194 47.3616 38.9421 47.2151C39.0025 46.761 39.0554 46.3141 39.1083 45.8673C39.4181 46.2262 39.6901 46.6364 39.9244 47.0979C39.9924 47.2224 40.0453 47.3543 40.1057 47.4788C40.4231 48.1893 40.6346 48.9145 40.7706 49.603C40.9142 50.3209 40.9747 50.9874 40.9973 51.5002ZM51.3567 37.8831C51.266 38.5497 51.1678 39.2968 51.062 40.1465C50.8429 41.8825 49.9286 43.3182 48.2814 44.5195C46.755 45.6329 44.6998 46.446 42.3574 47.01C42.2365 46.7024 42.1005 46.402 41.9418 46.0944C41.1938 44.6587 40.151 43.5526 38.8514 42.7982C44.0802 41.0622 48.2436 37.0774 50.1024 32.0452C50.4651 32.1697 50.8806 32.2356 51.3793 32.2356C51.5456 32.2356 51.7118 32.221 51.878 32.2136C51.8932 33.8178 51.7118 35.1949 51.3567 37.8831ZM53.9786 29.02C53.3968 29.562 52.6337 29.9136 51.7874 30.0015C51.6514 30.0161 51.5229 30.0381 51.3793 30.0381C51.1376 30.0381 50.9864 30.0162 50.9109 29.9942C50.8882 29.7378 50.994 29.1738 51.0695 28.7416C51.1904 28.0897 51.3416 27.2693 51.3416 26.3976C51.3416 25.7457 51.2584 25.1304 51.1678 24.581V23.7973V22.7718C51.2282 22.7645 51.2962 22.7645 51.3793 22.7645C52.1198 22.7645 52.815 22.9842 53.3968 23.3431C54.432 23.9877 55.1272 25.1158 55.1272 26.3976C55.1347 27.4378 54.6889 28.3607 53.9786 29.02Z" fill="#454545"/>
<path d="M19.791 47.2692H22.1799V53.0963H25.9082V55H19.791V47.2692Z" fill="#454545"/>
<path d="M27.4135 47.2692H29.8076V55H27.4135V47.2692Z" fill="#454545"/>
<path d="M31.0861 47.2692H33.5857L35.3259 52.8326L37.0398 47.2692H39.4656L36.5968 55H34.0076L31.0861 47.2692Z" fill="#454545"/>
<path d="M40.5753 47.2692H46.9773V48.9198H42.9695V50.1485H46.6872V51.7252H42.9695V53.2492H47.0933V55H40.5753V47.2692Z" fill="#454545"/>
<path fill-rule="evenodd" clip-rule="evenodd" d="M17.791 45.2692H24.1799V51.0963H25.4135V45.2692H35.0557L35.3113 46.0866L35.5632 45.2692H48.9773V50.9198H48.6872V51.2492H49.0933V57H38.5753V55.4171L37.9879 57H36.1349L35.3405 59.5787L34.5339 57H32.6253L31.8076 54.8361V57H17.791V45.2692ZM25.9082 55V53.0963H22.1799V47.2692H19.791V55H25.9082ZM29.8076 47.2692H27.4135V55H29.8076V47.2692ZM34.0076 55H36.5968L39.4656 47.2692H37.0398L35.3259 52.8326L33.5857 47.2692H31.0861L34.0076 55ZM40.5753 55H47.0933V53.2492H42.9695V51.7252H46.6872V50.1485H42.9695V48.9198H46.9773V47.2692H40.5753V55Z" fill="white"/>
</svg>
