<svg width="26" height="26" viewBox="0 0 26 26" fill="none" xmlns="http://www.w3.org/2000/svg">
<path d="M17.57 5C17.72 5 17.85 5.13 17.85 5.28V19.73C17.85 19.88 17.72 20.01 17.57 20.01H8.28C8.13 20 8 19.87 8 19.72V5.28C8 5.13 8.13 5 8.28 5H17.57ZM17.57 3H8.28C7.02 3 6 4.02 6 5.28V19.73C6 20.98 7.02 22 8.28 22H17.57C18.82 22 19.85 20.98 19.85 19.72V5.28C19.85 4.02 18.82 3 17.57 3Z" fill="black"/>
<path d="M12.9204 17.0801C12.3504 17.0801 11.9004 17.5401 11.9004 18.1001C11.9004 18.6701 12.3604 19.1201 12.9204 19.1201C13.4904 19.1201 13.9404 18.6601 13.9404 18.1001C13.9504 17.5401 13.4904 17.0801 12.9204 17.0801Z" fill="black"/>
</svg>
