<svg width="66" height="66" viewBox="0 0 66 66" fill="none" xmlns="http://www.w3.org/2000/svg">
<g clip-path="url(#clip0_1476_7045)">
<path d="M34.7472 40.7256L31.283 38.0023L33.8435 34.7453L36.4445 36.79L37.8016 35.0636L35.2006 33.0189L37.761 29.7619L41.2252 32.4851L46.6129 25.6316L31.1366 21.7612L27.2063 18.6715L25.4799 17.3144L24.7203 16.7173C21.4921 14.1795 15.7752 13.931 13.2419 17.1535C10.7086 20.376 12.2999 25.8726 15.5225 28.4059L16.282 29.003L18.0084 30.3601L21.9387 33.4498L29.3595 47.5792L34.7472 40.7256ZM33.4742 31.6618L29.3828 28.4455L28.0257 30.1718L32.1171 33.3882L29.5567 36.6452L19.3713 28.6383L25.8492 20.3979L36.0346 28.4048L33.4742 31.6618Z" fill="#231815"/>
<path d="M39.5444 37.9982C37.6412 40.4311 38.0518 43.9475 40.4519 45.8807C40.9624 46.3565 44.0213 48.8729 51.7947 48.7083L53.1308 48.6786L52.8441 47.3732C51.1732 39.775 48.0012 37.4025 47.4183 37.0188C44.9776 35.1373 41.4592 35.5743 39.5444 37.9982ZM50.3744 46.5117C44.1382 46.3671 41.9841 44.3106 41.9726 44.3016L41.855 44.1905C40.9861 43.5075 40.551 42.4857 40.5525 41.4534C40.6355 41.5373 41.8698 42.7031 45.4313 42.6259C44.6666 39.1571 43.2526 38.2318 43.14 38.1619C44.137 37.9121 45.2383 38.0982 46.1015 38.7768L46.2211 38.8615C46.2544 38.8784 48.7614 40.486 50.3744 46.5117Z" fill="#231815"/>
<path d="M18.7369 18.8569C19.2491 18.2054 19.1361 17.262 18.4846 16.7498C17.8331 16.2377 16.8897 16.3506 16.3776 17.0022C15.8654 17.6537 15.9784 18.597 16.6299 19.1092C17.2814 19.6213 18.2247 19.5084 18.7369 18.8569Z" fill="white"/>
<path d="M21.4077 18.0419C21.68 17.6955 21.62 17.1939 21.2736 16.9216C20.9271 16.6493 20.4256 16.7093 20.1532 17.0557C19.8809 17.4022 19.941 17.9037 20.2874 18.1761C20.6338 18.4484 21.1354 18.3883 21.4077 18.0419Z" fill="white"/>
</g>
<defs>
<clipPath id="clip0_1476_7045">
<rect width="27.9173" height="50.8426" fill="white" transform="translate(4.61523 28.1273) rotate(-51.8286)"/>
</clipPath>
</defs>
</svg>
