<svg width="47" height="40" viewBox="0 0 47 40" fill="none" xmlns="http://www.w3.org/2000/svg">
<mask id="mask0_3175_10338" style="mask-type:alpha" maskUnits="userSpaceOnUse" x="11" y="5" width="27" height="22">
<rect x="11" y="5" width="27" height="22" fill="#D9D9D9"/>
</mask>
<g mask="url(#mask0_3175_10338)">
<path d="M31.8955 20.1459C32.9247 18.627 33.5265 16.7927 33.5265 14.8215C33.5265 9.57181 29.252 5.29736 24.0023 5.29736C18.7485 5.29736 14.4782 9.57181 14.4782 14.8215C14.4782 16.8799 15.138 18.7847 16.2502 20.3451L11.2827 27.5079L15.9141 26.6696L16.7524 31.301L21.7572 24.08C22.4751 24.2543 23.2263 24.3498 24.0023 24.3498C24.8614 24.3498 25.6913 24.2336 26.484 24.0219L31.5303 31.3051L32.3686 26.6738L37 27.5121L31.8955 20.1459ZM22.5291 22.9637C22.3257 22.9264 22.1224 22.8807 21.9273 22.8309C21.9024 22.8226 21.8775 22.8185 21.8526 22.8102C21.6493 22.7562 21.4501 22.694 21.255 22.6234C19.9105 22.1503 18.7277 21.3411 17.8023 20.2911C17.6653 20.1334 17.5325 19.9716 17.4039 19.8056C17.3914 19.789 17.379 19.7765 17.3707 19.7599C17.2462 19.5939 17.1258 19.4196 17.0138 19.2453C16.2004 17.963 15.7273 16.4524 15.7273 14.8215C15.7232 10.2483 19.4291 6.54235 24.0023 6.54235C28.5756 6.54235 32.2815 10.2483 32.2815 14.8215C32.2815 16.3611 31.854 17.797 31.1236 19.0296C31.0116 19.2163 30.8954 19.3989 30.7709 19.5773C30.7418 19.6188 30.7086 19.6603 30.6796 19.7018C30.5758 19.8429 30.4762 19.984 30.3642 20.1168C30.2314 20.2787 30.0861 20.4322 29.9409 20.5816C29.8786 20.648 29.8122 20.7103 29.7458 20.7767C29.6463 20.8763 29.5384 20.9676 29.4346 21.0589C29.3101 21.1668 29.1773 21.2747 29.0445 21.3743C28.9615 21.4407 28.8744 21.5029 28.7872 21.5652C28.671 21.644 28.5548 21.7229 28.4386 21.7976C28.393 21.8266 28.3473 21.8515 28.3017 21.8806C28.0361 22.0424 27.7622 22.1918 27.4758 22.3205C27.4717 22.3205 27.4675 22.3246 27.4634 22.3246C27.3015 22.3993 27.1397 22.4657 26.9778 22.5321C26.5753 22.6898 26.1561 22.8185 25.7245 22.9098C25.1685 23.026 24.5958 23.0924 24.0023 23.0924C23.5002 23.1048 23.0105 23.0509 22.5291 22.9637Z" fill="#454545"/>
<path fill-rule="evenodd" clip-rule="evenodd" d="M24.0023 8.46802C27.5048 8.46802 30.3558 11.319 30.3558 14.8216C30.3558 18.3242 27.5048 21.1752 24.0023 21.1752C20.4997 21.1752 17.6487 18.3242 17.6487 14.8216C17.6487 11.319 20.4997 8.46802 24.0023 8.46802ZM25.3867 13.3154L24.3222 10.0391L23.2576 13.3154H19.8126L22.5997 15.3404L21.5351 18.6167L24.3222 16.5918L27.1092 18.6167L26.0447 15.3404L28.8317 13.3154H25.3867Z" fill="#454545"/>
</g>
<path d="M32.07 34.0996C31.8483 34.012 31.6265 33.8951 31.4191 33.7563L31.4047 33.7417C31.4047 33.6906 31.4047 33.6321 31.4047 33.5737C31.4047 33.245 31.4191 32.8287 31.4548 32.3466H31.5764V31.1122H32.113V28.0591H28.1856V28.0445L26.8479 27.5989L25.8106 27.2556L25.0237 27L24.5802 27.7085C24.2797 28.176 23.9864 28.585 23.7003 28.9064C23.4571 29.1839 23.1781 29.4542 22.8633 29.7098L22.0049 30.411L22.7059 31.2729C22.8705 31.4774 23.0565 31.7112 23.2639 31.9814V33.5883H23.2854L23.2067 33.6906C22.849 33.4057 22.5486 33.1135 22.3197 32.8141C21.869 32.2224 21.5184 31.3971 21.2752 30.3672V30.2211L21.3038 29.5784L21.3253 28.9502L21.3396 28.6653L21.3897 27.5186H18.0847V28.6069C18.0704 28.8845 18.0704 29.1109 18.0633 29.2862C18.0418 30.1262 17.9488 30.915 17.7771 31.6381C17.6126 32.3174 17.3121 32.8871 16.8543 33.3692C16.654 33.581 16.4394 33.7709 16.2176 33.9316C15.9887 34.0996 15.6596 34.3114 15.2447 34.5452L14 35.2463L15.0015 36.2762C15.209 36.488 15.395 36.7291 15.5523 36.9993L16.1032 37.9197L17.0117 37.3718C17.4552 37.1016 17.7986 36.8825 18.0633 36.6853C18.7786 36.1521 19.3724 35.5385 19.8588 34.8519C20.2737 35.4509 20.7602 35.9841 21.311 36.4588C21.6472 36.7437 22.0693 37.0432 22.5986 37.3645L23.6502 38.0073L23.9221 37.3499L24.2225 37.832L25.1024 37.3499C25.7033 37.0212 26.2899 36.6706 26.8622 36.2981L26.9981 36.4077L27.5704 36.8679L27.7636 37.0139L28.622 37.6859L29.1514 36.9701C29.6736 37.5033 30.2244 37.6202 30.5964 37.6202C30.9684 37.6202 31.7052 37.4887 32.2131 36.6122C32.3776 36.3347 32.5279 35.9548 32.6924 35.4509L33 34.4794L32.07 34.0996ZM24.4872 29.6368C24.8091 29.2716 25.1382 28.826 25.4672 28.3001L26.5045 28.6434L26.1683 29.1547H31.0328V30.0093H25.5316C25.1024 30.5133 24.6589 30.9807 24.1867 31.4117C23.9364 31.083 23.7146 30.7981 23.5143 30.5571C23.8791 30.2576 24.2011 29.9509 24.48 29.6295L24.4872 29.6368ZM30.4962 30.4256V31.2437H25.2669V30.4256H30.4962ZM23.1423 36.415C22.663 36.1228 22.2839 35.8599 21.9906 35.6116C21.2824 35.0053 20.7101 34.2895 20.2666 33.4495C20.1378 33.2158 19.9947 32.8944 19.823 32.4781C19.6514 32.9748 19.4797 33.3765 19.3151 33.6833C18.8573 34.494 18.2349 35.1952 17.4337 35.7942C17.2048 35.9622 16.8901 36.174 16.4752 36.415C16.2677 36.0717 16.0388 35.7649 15.7741 35.4947C16.2319 35.239 16.5896 35.0126 16.8614 34.8154C17.1333 34.6182 17.3908 34.3918 17.634 34.1288C18.2206 33.508 18.6212 32.7629 18.8287 31.8938C19.0218 31.0903 19.122 30.2284 19.1506 29.3154C19.1506 29.1401 19.1578 28.9064 19.1649 28.6142H20.2737L20.2594 28.9064L20.238 29.5345L20.2165 30.1627L20.2022 30.4548C20.4812 31.7112 20.9032 32.7191 21.4755 33.4714C21.8404 33.9462 22.3197 34.3991 22.9277 34.8227H22.942C23.1709 34.9907 23.4642 35.1733 23.8291 35.3924C23.5715 35.6627 23.3712 35.9768 23.2139 36.3127C23.1995 36.3493 23.1709 36.3858 23.1566 36.4223L23.1423 36.415ZM28.4217 36.1448L28.2357 35.9987L27.6563 35.5385L27.084 35.0857L26.9051 34.9469C26.1611 35.4655 25.3957 35.9475 24.5945 36.3858C24.5659 36.342 24.5301 36.2981 24.5015 36.2543C24.337 36.006 24.1581 35.7649 23.9578 35.5312C24.3584 35.334 24.7447 35.1222 25.1167 34.9031C25.41 34.7351 25.689 34.5525 25.968 34.3699C25.5102 34.0923 25.0595 33.8293 24.6231 33.581L25.1954 32.8287C25.7462 33.0989 26.2828 33.3984 26.805 33.7198C27.1555 33.3838 27.5132 33.0113 27.878 32.5876L28.7508 33.2012C28.4217 33.5518 28.064 33.9097 27.6777 34.2603L28.3502 34.7716L29.0512 35.2829L28.4145 36.1374L28.4217 36.1448ZM31.2974 36.0571C31.1186 36.3712 30.8825 36.5246 30.6035 36.5246C30.3389 36.5246 30.0956 36.4004 29.8667 36.1448C29.6807 35.9329 29.5448 35.575 29.4518 35.071C29.3731 34.6255 29.3302 34.1726 29.3302 33.6979C29.3302 33.4276 29.3445 33.0259 29.366 32.4781H24.337V31.6235H30.439C30.3675 32.4197 30.3317 33.0697 30.3317 33.5737C30.3317 34.3552 30.3961 34.9031 30.5249 35.2317C30.5463 35.2902 30.5821 35.3194 30.6322 35.3194C30.6679 35.3194 30.7395 35.1003 30.8396 34.6693C31.1114 34.8519 31.3904 34.998 31.6766 35.1149C31.5478 35.5312 31.4191 35.8453 31.2974 36.0498V36.0571Z" fill="#454545"/>
</svg>
