<svg width="73" height="77" viewBox="0 0 73 77" fill="none" xmlns="http://www.w3.org/2000/svg">
<path d="M15.8748 18.8833L11.0185 11.5495C9.96836 11.3058 9.08064 10.5341 8.73252 9.42592C8.23354 7.73752 9.16187 5.9853 10.7922 5.46892C11.2622 5.31806 11.7438 5.28905 12.208 5.35868C12.5329 4.48837 13.2349 3.76891 14.1807 3.46141L14.2445 3.444C15.0336 3.21192 15.84 3.29315 16.5189 3.61806C16.3854 2.14434 17.2731 0.740241 18.6946 0.293483C19.4953 0.0381923 20.3772 0.119421 21.1257 0.513961C21.6885 0.809866 22.1469 1.27983 22.4428 1.83683C22.8257 1.26243 23.4001 0.815668 24.1138 0.589388C25.0711 0.310889 26.0459 0.484951 26.8059 0.983927C27.1598 0.606794 27.6124 0.316691 28.1346 0.148431C28.9469 -0.112661 29.8404 -0.0256303 30.5889 0.380514C31.3431 0.786658 31.8827 1.4713 32.1148 2.29519C32.4223 3.33956 32.138 4.44775 31.4534 5.23683L31.6622 13.9573L15.8748 18.8833ZM16.1127 10.8474L17.8185 13.4235L26.9394 10.5689L26.8639 7.48223L25.4018 8.49179L24.9203 7.73752L24.4039 8.46858L20.6325 6.45527L18.6656 10.3252L17.7315 9.99452L17.7663 10.8474H16.1127Z" fill="#040000"/>
<path d="M26.7885 6.33337L25.4715 4.30265C25.808 4.11118 25.9763 3.72245 25.8602 3.34531C25.721 2.90436 25.2568 2.66647 24.8158 2.79412C24.3749 2.93337 24.137 3.39753 24.2646 3.83849C24.3169 4.00675 24.4271 4.14019 24.5606 4.24463L23.1332 6.25214L21.2592 8.64259L18.3582 7.74907L15.8749 6.86716C15.9851 6.67569 16.0199 6.43201 15.9503 6.21153C15.8111 5.77057 15.3469 5.53269 14.9059 5.66033C14.4766 5.79958 14.2271 6.26375 14.3663 6.7047C14.4998 7.11665 14.9175 7.33713 15.3237 7.2559L15.4107 9.89003L15.3701 13.5395L17.279 14.2532L19.6172 12.5474L21.9554 10.8416V10.8184L21.9612 10.8416L24.8623 10.8996L27.7633 10.9576L28.9179 9.28081L26.7885 6.33337Z" fill="#B06F20"/>
<path d="M19.6525 3.29297L23.0815 14.195L16.8559 16.1445L11.8197 8.55543L16.9893 8.53222L19.6525 3.29297Z" fill="#EEDE80"/>
<path d="M19.6519 3.29276L23.0809 14.1948L29.2949 12.2337L29.086 3.14771L24.8331 6.07194L19.6519 3.29276Z" fill="#E2CA55"/>
<path d="M11.6625 9.30242C12.1205 9.3488 12.5264 9.01252 12.5728 8.55449C12.6191 8.09646 12.2829 7.69061 11.8248 7.65003C11.3668 7.60365 10.961 7.93992 10.9146 8.39795C10.874 8.85018 11.2103 9.25603 11.6625 9.30242Z" fill="#E2CA55"/>
<path d="M29.0042 3.97051C29.4622 4.01689 29.868 3.68061 29.9144 3.22258C29.9608 2.76455 29.6245 2.3587 29.1665 2.31812C28.7085 2.27174 28.3026 2.60801 28.2562 3.06604C28.2098 3.52407 28.5461 3.92992 29.0042 3.97051Z" fill="#E2CA55"/>
<path d="M50.1882 33.771C49.2715 43.1413 38.7466 49.3669 27.3398 49.3669C12.9913 49.3611 7.52573 39.7645 8.44245 30.3942C9.35918 21.0239 19.2981 14.3399 30.6585 15.4481C42.0131 16.5563 51.105 24.4007 50.1882 33.771Z" fill="white"/>
<path d="M19.6173 48.607C19.6173 48.607 10.5254 45.1432 14.4012 36.7824C14.4012 36.7824 15.7763 34.7053 19.0603 34.4558C22.35 34.2121 24.2183 30.7425 24.2183 30.7425C24.2183 30.7425 25.0596 28.2882 27.363 28.7176C29.6548 29.1469 29.6606 27.8241 29.6606 27.8241C29.6606 27.8241 30.2989 26.2053 32.1555 27.0176C34.0122 27.8299 37.8531 28.4507 40.6091 26.6637C43.3651 24.8766 46.7477 26.977 46.7477 26.977C46.7477 26.977 53.7972 33.6029 45.8948 42.6947C45.8948 42.6947 50.7221 39.1149 51.4415 33.8292C52.161 28.5435 51.0064 22.3411 41.4562 14.3749L38.6074 12.5705L34.3893 7.04691L30.9603 6.23462L29.0166 10.9111L27.3456 14.7694C27.3456 14.7694 24.4446 13.8875 22.0425 15.8602C19.6347 17.8329 19.391 17.0438 19.391 17.0438C19.391 17.0438 15.4688 13.8121 14.3026 13.6322C13.1364 13.4582 11.1985 13.0636 11.1985 13.0636L9.89302 23.6988C9.89302 23.6988 7.09643 34.1483 8.46572 38.32C9.81759 42.4975 12.4343 47.5395 19.6173 48.607Z" fill="#DEBB7E"/>
<path d="M22.4546 48.0211C22.5068 48.0269 22.5242 48.0269 22.5822 48.0965C22.7969 48.2822 23.0522 48.5897 23.1102 48.961C23.1857 49.3323 23.0406 49.7907 22.356 50.2026C22.3328 50.22 22.2167 50.2723 22.1587 50.2665C20.8416 50.0982 19.5652 49.7965 18.3003 49.4019C16.3334 48.7695 14.4246 47.8818 12.7187 46.6344C11.0245 45.3811 9.54502 43.7507 8.57028 41.8419C8.43103 41.6156 8.33239 41.3603 8.22215 41.1166C8.11191 40.8729 7.99587 40.6234 7.92045 40.3739C7.83342 40.1187 7.73478 39.875 7.64775 39.6255L7.42727 38.8596C7.35185 38.6101 7.30543 38.349 7.24741 38.0879C7.20099 37.8268 7.13717 37.5658 7.09656 37.3105L7.00953 36.5388L6.98632 36.3763V36.3937V36.4111C6.98632 36.4227 6.98632 36.4111 6.98632 36.3995L6.95731 36.2835C6.9457 36.2023 6.92249 36.0978 6.91089 36.0224L6.89348 35.7845C6.84707 35.1985 6.85867 34.6821 6.88188 34.1541L6.89929 33.7712L6.9341 33.3883C6.9515 33.133 6.97471 32.8835 7.00953 32.634C7.11976 31.6244 7.27642 30.6323 7.44468 29.6518L7.46789 29.5415L7.4911 29.4313C7.82762 27.5804 8.21635 25.7528 8.66311 23.9367L8.74434 23.6002L8.75594 23.5596V23.5364C8.75594 23.5248 8.75594 23.5364 8.75594 23.5364C8.75594 23.548 8.75594 23.5364 8.75594 23.5364L8.76175 23.4784L8.80236 22.7705C8.82557 22.3063 8.86618 21.8306 8.90099 21.3664C8.98222 20.4265 9.08666 19.4924 9.2085 18.5466C9.33035 17.6009 9.50441 16.6609 9.70748 15.7268C9.7597 15.4889 9.81192 15.2569 9.87574 15.019L10.0672 14.3169C10.131 14.079 10.2181 13.8412 10.2993 13.6091C10.3283 13.5278 10.4037 13.2609 10.514 13.0811L10.8041 12.5009L10.9549 12.2108L11.0303 12.0657L11.071 11.9903C11.0826 11.9787 11.0826 11.9613 11.0942 11.9497L11.1348 11.9439C11.3495 11.9323 11.5583 11.9033 11.773 11.9033C11.9877 11.8859 12.2082 11.9149 12.4402 11.9381C12.5505 11.9497 12.6607 11.9613 12.7826 11.9903L13.0611 12.0483C13.5891 12.1702 14.0822 12.3442 14.5522 12.5415C15.5037 12.9302 16.3624 13.4234 17.1747 13.9572L17.4822 14.1603L17.7781 14.3749C17.9812 14.5142 18.1785 14.6592 18.3699 14.7985L18.9385 15.2394L19.2229 15.4599L19.4955 15.692L19.5362 15.7152L20.0177 15.4657C20.244 15.3671 20.4587 15.2569 20.6792 15.1524C22.4488 14.3575 24.3345 13.7367 26.342 13.5162L27.0208 13.4582L27.1136 13.0521C27.3341 12.1295 27.5894 11.207 27.8911 10.2903C28.1928 9.37357 28.5468 8.46265 29.0051 7.55752C29.243 7.10496 29.4983 6.65821 29.8406 6.21145C29.9334 6.10121 30.0147 5.99677 30.1191 5.88073L30.1887 5.7937C30.2236 5.75889 30.2584 5.71827 30.2932 5.68346C30.3744 5.60223 30.4614 5.53841 30.5485 5.45138C30.6355 5.37595 30.7167 5.29472 30.8154 5.2309L31.0997 5.05684C31.2853 4.935 31.4768 4.81895 31.6625 4.70291L31.7031 4.6739C31.7147 4.6623 31.7321 4.68551 31.7437 4.68551L31.8307 4.72612L31.9932 4.81315L32.3355 4.98721C32.556 5.10326 32.7823 5.2367 33.0143 5.35855C33.2464 5.5036 33.4843 5.63704 33.7048 5.7937C34.1631 6.0838 34.6041 6.40292 35.0393 6.72783C35.9038 7.37186 36.7335 8.08551 37.4935 8.86299C38.2652 9.62886 38.9789 10.4644 39.6113 11.3637L40.029 11.9845C40.0174 11.9729 40.029 11.9845 40.029 11.9845L40.3539 12.1992C40.8065 12.4951 41.23 12.8142 41.6594 13.1333C43.4812 14.5026 45.187 16.0227 46.7246 17.7227C48.2621 19.4111 49.6488 21.2794 50.728 23.3507C51.2966 24.4473 51.7724 25.6019 52.1263 26.7971C52.3004 27.3948 52.4454 28.0098 52.5615 28.6306C52.6021 28.9381 52.6659 29.2514 52.6949 29.5705L52.7297 30.0405C52.7471 30.1971 52.7587 30.3596 52.7529 30.5221C52.7993 31.7985 52.6659 33.0692 52.3642 34.2992C52.2249 34.9142 52.0219 35.5176 51.813 36.1094C51.7028 36.4053 51.5751 36.6838 51.4533 36.9797L51.3778 37.148C51.0877 37.792 50.7454 38.4012 50.3915 39.0047C50.3915 39.0047 50.2522 39.1845 50.026 39.4978C49.7939 39.7995 49.4574 40.2173 49.0454 40.6757C48.6335 41.1224 48.1461 41.6156 47.6355 42.0739C47.1191 42.5323 46.5679 42.9559 46.0574 43.3156C45.2045 43.9364 44.5894 44.2497 44.2123 44.389C43.8294 44.5224 43.6843 44.4818 43.7075 44.3309C43.7539 44.0408 44.4618 43.275 45.2683 42.3466C45.158 42.4163 46.1792 41.3487 47.0553 40.1361C47.4905 39.5385 47.8908 38.906 48.1693 38.4245C48.3028 38.1808 48.4188 37.9777 48.4942 37.8326C48.5696 37.6876 48.6103 37.6006 48.6103 37.6006L48.8075 37.264L48.9932 36.9159C49.115 36.6838 49.2195 36.4518 49.3355 36.2139L49.3993 36.0688C49.5038 35.8135 49.614 35.5698 49.7068 35.3146C49.8867 34.8156 50.0608 34.2992 50.1826 33.7712C50.4379 32.7268 50.5539 31.6709 50.5133 30.5975C50.5133 30.464 50.4959 30.3306 50.4901 30.1971L50.4553 29.7968C50.4321 29.5299 50.3741 29.2688 50.3393 29.0019C50.2464 28.4739 50.1188 27.9401 49.9621 27.418C49.6546 26.3678 49.2369 25.3524 48.7205 24.3719C47.7574 22.5152 46.4925 20.8036 45.0536 19.2255C43.6147 17.6473 42.0075 16.2084 40.2959 14.9203C39.8956 14.6186 39.4894 14.3343 39.0833 14.0616L38.7816 13.8586L38.4567 13.6555C38.4277 13.6439 38.4102 13.6091 38.3928 13.5859L38.3406 13.5104L38.2246 13.348L37.7778 12.6807C37.2092 11.9033 36.5826 11.1606 35.8922 10.4702C35.2075 9.77971 34.4649 9.14149 33.6758 8.55548C33.287 8.26538 32.8867 7.98108 32.4747 7.71418C32.2717 7.58073 32.0628 7.44729 31.8597 7.32544C31.8597 7.32544 31.8597 7.33705 31.8481 7.33705L31.8249 7.37766C31.7669 7.43568 31.7089 7.51111 31.6509 7.58654C31.4304 7.88244 31.2215 8.22476 31.0242 8.59609C30.6471 9.34456 30.3222 10.1568 30.0437 10.9923C29.7652 11.8336 29.5331 12.6923 29.3242 13.5685L29.2488 13.8992L29.1792 14.1951L29.1038 14.5258C29.0515 14.7521 29.0167 14.9842 28.9645 15.2162L28.9007 15.5644L28.8949 15.6456L28.8891 15.6862C28.8891 15.6978 28.8891 15.6978 28.8775 15.6978H28.8601L28.686 15.7036L27.2877 15.7094L27.2471 15.7036H27.2297C27.2297 15.7036 27.2007 15.6978 27.1775 15.7094L27.1369 15.7152H27.0556L26.899 15.7326L26.5915 15.7558C24.9205 15.9415 23.2263 16.4753 21.6307 17.2063C21.4276 17.2992 21.2362 17.392 21.0331 17.4848L20.743 17.6299L20.5689 17.7227L20.2672 17.8852C20.0641 17.9954 19.8553 18.1173 19.6638 18.2449L19.3621 18.4306C19.3389 18.448 19.3099 18.4654 19.2867 18.477L19.2229 18.419L19.0894 18.3029L18.0624 17.4384L17.8072 17.2179L17.5403 17.0091L17.0181 16.6029C16.8382 16.4753 16.6583 16.3418 16.4843 16.2142L16.2174 16.0227L15.9389 15.8429C15.2136 15.3671 14.4594 14.9319 13.6819 14.6244C13.299 14.4678 12.916 14.3343 12.5389 14.2473L12.4809 14.2299L12.4402 14.3401C12.3764 14.549 12.301 14.7463 12.2488 14.9551L12.0747 15.5818C12.0225 15.7906 11.9703 16.0111 11.9181 16.2258C11.7324 17.0961 11.5757 17.9722 11.4481 18.8657C11.3321 19.7592 11.2334 20.6586 11.1522 21.5637C11.1174 22.0162 11.0826 22.463 11.0594 22.9214L11.0245 23.5886C11.0187 23.6176 11.0187 23.7685 11.0071 23.8729L10.9375 24.1514L10.8563 24.4879C10.4269 26.2692 10.0498 28.062 9.71908 29.8548L9.70168 29.9535L9.68427 30.0521C9.52181 31.0036 9.36516 31.9436 9.26652 32.8951C9.23171 33.1272 9.2085 33.3709 9.1969 33.6029L9.16209 33.9569L9.13888 34.2992C9.11567 34.7576 9.10987 35.2101 9.14468 35.6047L9.16209 35.7381C9.16789 35.7903 9.17369 35.8019 9.1853 35.8425C9.1911 35.8658 9.15048 35.7671 9.16789 35.7903L9.17369 35.8193C9.17369 35.8309 9.1853 35.8309 9.17949 35.8599C9.17949 35.8774 9.1853 35.9122 9.1853 35.9238L9.2085 36.0166L9.21431 36.0572L9.22011 36.0804L9.22591 36.121L9.24912 36.3183L9.33615 36.9972C9.36516 37.2234 9.42318 37.4439 9.46379 37.6644C9.51601 37.8849 9.54502 38.1111 9.61465 38.32L9.79451 38.9699L10.0208 39.6023C10.0904 39.8111 10.1832 40.0142 10.2761 40.2173C10.3689 40.4204 10.4501 40.6292 10.5662 40.8149C11.3785 42.3989 12.6027 43.7507 14.059 44.8299C15.5153 45.9091 17.2095 46.6982 18.9792 47.2668C20.1222 47.5975 21.2884 47.8644 22.4546 48.0211Z" fill="#221714"/>
<path d="M12.5559 16.9572C12.5559 16.9572 11.9409 20.7633 12.3644 22.2544C12.3644 22.2544 13.2289 20.8097 15.1204 20.4268L12.5559 16.9572Z" fill="#D87447"/>
<path d="M33.5194 14.4155C33.5194 14.4155 35.9157 13.7657 36.9658 13.7831C36.9658 13.7831 34.4825 10.3251 33.4324 10.3019L33.5194 14.4155Z" fill="#D87447"/>
<path d="M20.4475 27.2671C21.0915 27.3309 21.6717 26.8551 21.7355 26.2111C21.7993 25.5671 21.3236 24.9927 20.6795 24.9288C20.0355 24.865 19.4553 25.3408 19.3915 25.9848C19.3277 26.6288 19.8034 27.2032 20.4475 27.2671Z" fill="white"/>
<path d="M32.4863 23.008C33.1304 23.0719 33.7106 22.5961 33.7744 21.9521C33.8382 21.308 33.3624 20.7336 32.7184 20.6698C32.0744 20.606 31.4942 21.0817 31.4304 21.7258C31.3665 22.3698 31.8365 22.9442 32.4863 23.008Z" fill="white"/>
<path d="M17.163 37.5598C18.8224 36.9912 19.89 35.7206 19.5476 34.7284C19.2053 33.7305 17.5866 33.3882 15.9272 33.9568C14.2678 34.5254 13.2002 35.7902 13.5425 36.7882C13.879 37.7861 15.5036 38.1284 17.163 37.5598Z" fill="#D4824B"/>
<path d="M42.6691 28.8159C44.3285 28.2473 45.3961 26.9825 45.0538 25.9845C44.7114 24.9866 43.0927 24.6443 41.4333 25.2129C39.7739 25.7815 38.7063 27.0521 39.0486 28.0443C39.3909 29.0364 41.0155 29.3845 42.6691 28.8159Z" fill="#D4824B"/>
<path d="M21.2363 50.1044C21.1783 50.0986 21.1551 50.0986 21.0913 50.029C20.8534 49.8317 20.5923 49.4894 20.5691 49.1122C20.5575 48.7351 20.7605 48.329 21.3988 47.9286C21.422 47.9112 21.5264 47.8706 21.5786 47.8648C22.7622 48.0447 23.9865 48.1607 25.2049 48.2187C29.0923 48.4044 33.0203 48.033 36.693 46.8784L37.6445 46.5535L38.5786 46.1938C38.5786 46.1938 38.6309 46.1764 38.7179 46.1474C38.8049 46.1126 38.9384 46.0662 39.1008 46.0139C39.2575 45.9559 39.4606 45.8863 39.681 45.8051C39.9015 45.7122 40.1394 45.6252 40.4005 45.5208C40.6674 45.4221 40.9343 45.3003 41.207 45.1726C41.3462 45.103 41.4971 45.0508 41.6363 44.9812C41.7756 44.9115 41.9148 44.8361 42.0657 44.7665L42.495 44.5518L42.7097 44.4416C42.7735 44.4068 42.849 44.3661 42.9128 44.3313C43.1913 44.1747 43.464 44.0296 43.7309 43.8904C44.1544 43.6177 44.5142 43.4088 44.8043 43.2289C45.0886 43.0433 45.3264 42.9156 45.4947 42.8286C45.8602 42.6603 46.0111 42.6661 46.0053 42.817C45.9995 42.9679 45.837 43.258 45.5701 43.6409C45.5005 43.7337 45.4309 43.8382 45.3497 43.9426C45.2684 44.047 45.164 44.1515 45.077 44.2501C44.8855 44.4648 44.665 44.6969 44.4271 44.9289C44.4909 44.8941 44.2241 45.132 43.7773 45.5092C43.5626 45.7006 43.2783 45.8979 42.9824 46.1242C42.8316 46.2286 42.6749 46.3563 42.5124 46.4665C42.35 46.5709 42.1759 46.687 42.0135 46.7914C41.8394 46.8958 41.6769 47.0119 41.5029 47.1163C41.3288 47.2208 41.1548 47.3194 40.9923 47.4122C40.8298 47.5109 40.6674 47.6037 40.5165 47.6907C40.3541 47.7662 40.2148 47.8474 40.0756 47.9228C39.7971 48.0563 39.5708 48.1897 39.4083 48.2651C39.2459 48.3406 39.1531 48.3812 39.1531 48.3812C38.8572 48.4972 38.5728 48.6075 38.2769 48.7119L37.3892 49.0136C36.3913 49.3211 35.3875 49.5996 34.3664 49.7969L33.966 49.8897L33.5831 49.9535C33.322 49.9999 33.0725 50.0464 32.8172 50.0812C32.3008 50.1508 31.7902 50.2378 31.2797 50.2842C29.2141 50.5279 27.1486 50.5685 25.0889 50.4699C23.8008 50.4119 22.5186 50.2959 21.2363 50.1044Z" fill="#AE1E25"/>
<path d="M22.0082 29.8664C22.687 31.1661 21.7181 31.8739 20.4184 32.5528C19.1188 33.2316 17.9816 33.6204 17.3027 32.3207C16.6239 31.021 17.1287 29.4197 18.4283 28.7466C19.728 28.062 21.3294 28.5668 22.0082 29.8664Z" fill="#221714"/>
<path d="M21.7463 29.1874C21.8855 29.3033 21.8565 29.5932 21.6652 29.8309C21.4796 30.0745 21.0506 30.0687 21.0506 30.0687C21.0506 30.0687 20.9404 29.6628 21.1318 29.4251C21.3347 29.1758 21.6072 29.0714 21.7463 29.1874Z" fill="#F6F6F6"/>
<path d="M38.729 24.4937C39.0249 25.9268 37.8935 26.3446 36.4604 26.6347C35.0273 26.9306 33.8262 26.9886 33.5303 25.5555C33.2344 24.1224 34.1628 22.7241 35.5901 22.4282C37.0348 22.1381 38.4331 23.0606 38.729 24.4937Z" fill="#221714"/>
<path d="M38.6651 23.7744C38.7752 23.9252 38.6535 24.1919 38.41 24.3832C38.1607 24.563 37.7606 24.4412 37.7606 24.4412C37.7606 24.4412 37.7722 24.0238 38.0157 23.8324C38.2592 23.6527 38.5607 23.6237 38.6651 23.7744Z" fill="#F6F6F6"/>
<path d="M29.3066 31.4969C30.7513 31.0908 31.6797 29.9013 31.3838 28.8396C31.0878 27.7778 29.6721 27.244 28.2274 27.6501C26.7827 28.0563 25.8544 29.2457 26.1503 30.3075C26.4462 31.3693 27.8619 31.903 29.3066 31.4969Z" fill="#221714"/>
<path d="M30.1657 32.5759L30.1541 32.5875C30.1657 32.5875 30.1831 32.5933 30.1947 32.5933L30.1657 32.5759Z" fill="#C3351E"/>
<path d="M32.4171 33.4985L31.8775 33.2722C30.2762 34.2354 29.8352 37.9893 29.7366 39.2251C30.3226 39.7183 31.1059 39.9504 32.1386 39.55C35.3994 38.32 32.4171 33.4985 32.4171 33.4985Z" fill="#C3351E"/>
<path d="M31.877 33.284L30.2002 32.5993C30.1886 32.5993 30.1712 32.5935 30.1596 32.5935L28.1346 35.9007C28.1346 35.9007 28.4828 38.1867 29.736 39.2427C29.8346 37.9894 30.264 34.2471 31.877 33.284Z" fill="#A62124"/>
<path d="M28.2745 31.1366C28.2687 31.1134 28.2687 31.1134 28.2919 31.067C28.4486 30.8059 28.9244 30.3359 29.7599 30.4578C29.7773 30.4578 29.8295 30.4752 29.8469 30.4868C29.8527 30.51 30.0442 30.9742 30.3227 31.6646C30.3865 31.8329 30.4619 32.0127 30.5431 32.2158C30.5838 32.3202 30.636 32.4305 30.6766 32.5349C30.7172 32.6394 30.7578 32.738 30.7984 32.8424C30.8391 32.9469 30.8681 33.0513 30.9087 33.1615L30.9435 33.237C30.9377 33.266 30.9203 33.2834 30.9029 33.3124L30.8274 33.4691C30.7752 33.5677 30.7288 33.6721 30.665 33.7766L30.578 33.9332L30.5083 34.0493L30.3981 34.2117C30.253 34.4322 30.1022 34.6527 29.9339 34.8673C29.5974 35.2909 29.2087 35.7028 28.7503 36.022C28.2919 36.3411 27.7466 36.5848 27.2244 36.637C27.1025 36.6544 26.9691 36.6544 26.8472 36.6486C26.7892 36.6428 26.737 36.637 26.6848 36.6428C26.6674 36.6428 26.6326 36.637 26.6152 36.637C26.5861 36.6312 26.5629 36.6312 26.5339 36.6312C26.3425 36.6022 26.1916 36.5673 26.064 36.5325C25.8029 36.4687 25.6578 36.3991 25.6578 36.3991C25.6578 36.3991 25.5708 36.3585 25.4141 36.2656C25.2633 36.167 25.0486 36.0278 24.8513 35.7957C24.6367 35.5694 24.4452 35.2387 24.3814 34.8731C24.3117 34.5192 24.3756 34.1827 24.4742 33.9274C24.5554 33.7127 24.6425 33.5561 24.7353 33.4458C24.8281 33.3356 24.9094 33.2602 24.9732 33.2138C25.1124 33.1151 25.2053 33.1267 25.2575 33.2022C25.3793 33.3356 25.3387 33.7417 25.3967 34.0899C25.4083 34.0725 25.4199 34.1711 25.4489 34.2987C25.4896 34.4264 25.5592 34.5308 25.6752 34.6179C25.7797 34.6991 25.9363 34.7629 26.0872 34.7977C26.2264 34.8325 26.3367 34.8499 26.3367 34.8499C26.3367 34.8499 26.4179 34.8789 26.5629 34.9138C26.7254 34.9486 26.9053 34.9776 27.1025 34.9486C27.2998 34.9196 27.5551 34.8093 27.8278 34.6121C28.1005 34.4032 28.3848 34.1189 28.6401 33.7882C28.7677 33.6199 28.8896 33.4458 29.0056 33.2718C29.0288 33.2254 29.0636 33.1731 29.0926 33.1383C28.9708 32.8308 28.8547 32.5465 28.7561 32.3028C28.4718 31.624 28.2919 31.1714 28.2745 31.1366Z" fill="#221714"/>
<path d="M29.9685 34.073C29.9511 34.073 29.9511 34.0614 29.9453 34.0207C29.9105 33.8873 29.8989 33.6494 29.9685 33.3825C30.0439 33.1156 30.2064 32.8139 30.4791 32.5238C30.4907 32.5122 30.5371 32.4774 30.5429 32.4774C30.5545 32.4774 30.6415 32.5064 30.7982 32.5644C30.9548 32.6108 31.1753 32.6805 31.4306 32.7501C31.947 32.8835 32.6606 33.0054 33.2873 32.9532C33.5948 32.93 33.8675 32.8545 34.0589 32.7559C34.2504 32.6515 34.3781 32.5296 34.4593 32.3904C34.5579 32.2395 34.5869 32.1409 34.5927 32.0655C34.5985 31.9958 34.6043 31.9668 34.6043 31.9668C34.6043 31.9668 34.6159 31.9494 34.6333 31.8972C34.6508 31.845 34.6566 31.7754 34.6449 31.6651C34.6333 31.4504 34.4941 31.1081 34.3432 30.8122C34.0415 30.3364 33.9429 30.1102 34.0763 29.9825C34.2214 29.8723 34.5811 29.9071 34.9699 30.1102C34.9409 30.0753 35.3992 30.3074 35.7938 30.7832C35.9852 31.0153 36.1477 31.3286 36.2231 31.5897C36.2637 31.7173 36.2811 31.8276 36.2927 31.9146C36.3043 31.9958 36.3101 32.0364 36.3101 32.0364C36.3101 32.0364 36.3043 32.0771 36.2985 32.1467C36.2927 32.2163 36.2811 32.3265 36.2579 32.46C36.1999 32.7211 36.0781 33.0634 35.8518 33.3883C35.6255 33.7306 35.231 34.0788 34.7842 34.2992C34.3316 34.5197 33.8443 34.6242 33.3859 34.6532C32.4634 34.717 31.6337 34.5429 31.0129 34.4037C30.3862 34.2354 29.9859 34.0846 29.9685 34.073Z" fill="#221714"/>
<path d="M19.5706 4.12151C20.0287 4.16789 20.4345 3.83161 20.4809 3.37358C20.5273 2.91555 20.191 2.50971 19.733 2.46912C19.2749 2.42274 18.8691 2.75901 18.8227 3.21704C18.7821 3.66927 19.1126 4.07512 19.5706 4.12151Z" fill="#E2CA55"/>
<path d="M9.06342 54.2438L3.16949 50.3502C2.32084 50.4995 1.41623 50.2057 0.800729 49.4969C-0.0992137 48.4058 0.0406738 46.8158 1.0805 45.9205C1.38359 45.664 1.72865 45.4868 2.09236 45.3936C2.05972 44.6475 2.35348 43.8921 2.955 43.3699L2.99696 43.3372C3.50988 42.9176 4.12539 42.7217 4.73623 42.7544C4.17202 41.7052 4.39117 40.3903 5.30511 39.6069C5.81803 39.1686 6.49881 38.9494 7.17027 39.0054C7.68319 39.052 8.1728 39.2525 8.56448 39.5789C8.66707 39.0287 8.95151 38.5111 9.39915 38.1241C10.01 37.6205 10.784 37.4433 11.5021 37.5692C11.6467 37.1822 11.8938 36.8278 12.2295 36.5387C12.7471 36.0957 13.4372 35.8766 14.1134 35.9372C14.7988 36.0024 15.4143 36.3335 15.8433 36.8744C16.3982 37.5505 16.5381 38.4598 16.2769 39.2572L19.1726 45.6407L9.06342 54.2438ZM6.71331 48.224L8.78364 49.5949L14.6309 44.6195L13.6051 42.358L12.845 43.561L12.2482 43.1554L12.0943 43.8595L8.67173 43.5564L8.43392 47.0349L7.63656 47.0815L7.93033 47.7017L6.71331 48.224Z" fill="#040000"/>
<path d="M13.1899 41.5279L11.5766 40.4368C11.7631 40.1896 11.7677 39.8493 11.5626 39.6068C11.3201 39.3223 10.9004 39.2944 10.616 39.5275C10.3316 39.77 10.3036 40.1896 10.5367 40.4741C10.63 40.5813 10.7512 40.6466 10.8818 40.6793L10.4575 42.6144L9.8233 44.9738L7.39858 45.2256L5.28628 45.3515C5.30959 45.1743 5.2583 44.9831 5.13707 44.8432C4.89459 44.5588 4.47493 44.5308 4.19049 44.764C3.91538 45.0018 3.87808 45.4261 4.12055 45.7059C4.34903 45.967 4.72673 46.0043 5.00184 45.8131L5.89712 47.7342L7.01622 50.4481L8.6529 50.3781L9.84661 48.3824L11.0403 46.3867L11.0357 46.3727L11.0496 46.3867L13.2132 45.5194L15.3768 44.6521L15.7032 43.048L13.1899 41.5279Z" fill="#B06F20"/>
<path d="M6.95598 41.5234L12.9198 48.5131L8.92839 51.9078L2.81531 47.879L6.62957 46.2376L6.95598 41.5234Z" fill="#EEDE80"/>
<path d="M6.95581 41.5232L12.9197 48.5129L16.9018 45.109L13.8849 38.4503L11.6607 41.9475L6.95581 41.5232Z" fill="#E2CA55"/>
<path d="M2.93573 48.4795C3.28985 48.3677 3.48555 47.9949 3.37372 47.6408C3.2619 47.2913 2.88913 47.0956 2.53501 47.2028C2.18088 47.3146 1.98518 47.6874 2.09701 48.0415C2.20884 48.3956 2.58626 48.5913 2.93573 48.4795Z" fill="#E2CA55"/>
<path d="M39.1204 54.4675C41.3866 61.6857 35.5579 69.6034 27.1227 73.1845C16.5052 77.6889 9.45026 72.3078 7.17942 65.0897C4.90858 57.8715 10.1637 49.8046 18.9113 47.0535C27.6636 44.307 36.8542 47.2493 39.1204 54.4675Z" fill="white"/>
<path d="M21.1734 75.0546C21.1734 75.0546 13.363 75.3484 13.6008 67.9483C13.6008 67.9483 13.9645 65.9806 16.3193 64.7635C18.6694 63.5465 18.9632 60.3897 18.9632 60.3897C18.9632 60.3897 18.814 58.3101 20.6511 57.9044C22.479 57.4987 22.0687 56.5195 22.0687 56.5195C22.0687 56.5195 22.0314 55.1206 23.6587 55.1393C25.2861 55.1579 28.3263 54.4072 29.7998 52.2203C31.2733 50.0334 34.4394 50.523 34.4394 50.523C34.4394 50.523 41.7369 53.2088 38.7479 62.4181C38.7479 62.4181 41.1913 58.2541 40.0629 54.1181C38.9344 49.9821 36.1274 45.7575 26.5637 42.8665L23.8872 42.4282L19.0285 39.6677L16.24 40.1433L16.2727 44.2141L16.2494 47.5947C16.2494 47.5947 13.8246 47.8511 12.6682 50.0707C11.5118 52.2856 11.0782 51.782 11.0782 51.782C11.0782 51.782 7.16133 50.6209 6.24273 50.8587C5.32414 51.0965 3.76672 51.4136 3.76672 51.4136L6.14481 59.6903C6.14481 59.6903 7.36183 68.298 9.68397 70.9559C12.0061 73.6138 15.5219 76.5234 21.1734 75.0546Z" fill="#8E8E8F"/>
<path d="M23.0899 73.7255C23.1272 73.7115 23.1458 73.7069 23.2064 73.7395C23.4256 73.8094 23.71 73.9586 23.8686 74.2151C24.0411 74.4669 24.0784 74.8493 23.7007 75.3669C23.6914 75.3855 23.6168 75.4601 23.5701 75.4741C22.5396 75.7632 21.5045 75.9451 20.4413 76.0476C18.7907 76.2015 17.098 76.1409 15.4427 75.7539C13.7967 75.3575 12.188 74.6161 10.8684 73.511C10.6912 73.3851 10.542 73.2312 10.3834 73.082C10.2249 72.9328 10.0617 72.7929 9.92645 72.6297C9.7819 72.4712 9.63269 72.322 9.48814 72.1588L9.08246 71.6645C8.94724 71.5013 8.83066 71.3241 8.70943 71.1516C8.59286 70.9744 8.46229 70.8019 8.35505 70.6247L8.04729 70.0791L7.97735 69.9625L7.98201 69.9765L7.996 69.9905C8.00067 69.9998 7.996 69.9905 7.99134 69.9812L7.93538 69.9066C7.89808 69.8506 7.85145 69.7807 7.81881 69.7294L7.73022 69.5615C7.51106 69.1419 7.35718 68.7548 7.20797 68.3585L7.10072 68.0694L7.00746 67.7756C6.93752 67.5844 6.8769 67.3886 6.82561 67.1928C6.5878 66.4141 6.39662 65.6307 6.21011 64.852L6.19145 64.7634L6.1728 64.6748C5.83707 63.2013 5.55263 61.7278 5.31016 60.2404L5.2682 59.9652V59.9326L5.26353 59.9186C5.25887 59.9093 5.26353 59.9186 5.26353 59.9186C5.2682 59.9279 5.26353 59.9186 5.26353 59.9186L5.24955 59.872L5.0537 59.3357C4.9278 58.9814 4.80191 58.6223 4.68533 58.2679C4.45219 57.5498 4.23303 56.8224 4.0232 56.0857C3.81337 55.349 3.65016 54.5982 3.50561 53.8428C3.46831 53.647 3.43567 53.4651 3.41236 53.2646L3.33309 52.6818C3.30511 52.4859 3.29578 52.2854 3.28179 52.0849C3.27713 52.0196 3.24915 51.7958 3.27247 51.6279L3.30511 51.1057L3.32376 50.8446L3.33309 50.714L3.33775 50.6441C3.34241 50.6347 3.33775 50.6161 3.34241 50.6068L3.37039 50.5881C3.52427 50.5135 3.66882 50.4249 3.82736 50.3596C3.98123 50.2757 4.15376 50.2291 4.33561 50.1731C4.41955 50.1451 4.50814 50.1172 4.60606 50.1078L4.82988 50.0612C5.25887 49.9866 5.67853 49.9586 6.08887 49.9586C6.91421 49.9446 7.70224 50.0426 8.47628 50.1824L8.76538 50.2384L9.04982 50.3037C9.241 50.3456 9.43684 50.3876 9.6187 50.4296L10.1782 50.5788L10.458 50.6534L10.7331 50.7373L10.7704 50.742L11.0502 50.4063C11.1854 50.2617 11.3067 50.1125 11.4419 49.9679C12.5004 48.8255 13.6987 47.7717 15.1163 46.979L15.5966 46.7226L15.5359 46.3915C15.41 45.6361 15.3075 44.876 15.2422 44.102C15.1769 43.328 15.1536 42.5399 15.2049 41.7332C15.2375 41.3229 15.2888 40.9126 15.4007 40.4789C15.4334 40.367 15.4613 40.2644 15.5033 40.1478L15.5266 40.0639C15.5406 40.0266 15.5546 39.9893 15.5686 39.9473C15.6012 39.8587 15.6478 39.7841 15.6852 39.6955C15.7271 39.6116 15.7598 39.5277 15.811 39.4484L15.9649 39.2292C16.0628 39.08 16.1701 38.9355 16.2727 38.7909L16.296 38.7583C16.3007 38.749 16.324 38.7583 16.3286 38.7583H16.4079L16.5571 38.7723L16.8649 38.7956C17.0654 38.8096 17.2705 38.8376 17.4804 38.8562C17.6949 38.8889 17.9187 38.9168 18.1285 38.9588C18.5622 39.0287 18.9818 39.1267 19.4108 39.2292C20.2548 39.4344 21.0895 39.7002 21.8962 40.0359C22.7075 40.3623 23.4955 40.754 24.2509 41.2157L24.7545 41.5421C24.7452 41.5374 24.7545 41.5421 24.7545 41.5421L25.0623 41.598C25.4866 41.6773 25.9063 41.7752 26.3213 41.8778C28.1025 42.3161 29.8418 42.9083 31.5111 43.6777C33.1804 44.4424 34.7891 45.389 36.2439 46.578C37.004 47.2075 37.7221 47.9163 38.3609 48.6856C38.678 49.0727 38.9764 49.483 39.2562 49.9073C39.3821 50.1218 39.5266 50.3363 39.6479 50.5601L39.8204 50.8959C39.881 51.0031 39.9416 51.1197 39.9883 51.2456C40.4266 52.1735 40.725 53.1574 40.8882 54.1646C40.9768 54.6682 41.0188 55.1718 41.0468 55.6754C41.0561 55.9272 41.0514 56.1789 41.0561 56.4307L41.0514 56.5753C41.0421 57.1442 40.9768 57.6991 40.9069 58.2586C40.9069 58.2586 40.8602 58.4358 40.795 58.7389C40.7157 59.0373 40.5991 59.4477 40.4406 59.9186C40.2774 60.3802 40.0722 60.8978 39.8391 61.3968C39.6012 61.8957 39.3308 62.3853 39.0604 62.8096C38.622 63.537 38.2677 63.9614 38.0299 64.1852C37.792 64.4043 37.6661 64.4183 37.6382 64.3018C37.5822 64.0733 37.8666 63.2806 38.1697 62.3433C38.1138 62.4319 38.5288 61.3175 38.7946 60.1471C38.9298 59.5689 39.023 58.972 39.079 58.5291C39.1023 58.3099 39.121 58.1234 39.1303 57.9928C39.1396 57.8623 39.1396 57.783 39.1396 57.783L39.1769 57.4706L39.2049 57.1535C39.2236 56.9437 39.2282 56.7385 39.2375 56.5287V56.3981C39.2375 56.1743 39.2375 55.9645 39.2282 55.7453C39.2049 55.3163 39.1723 54.8827 39.0977 54.4537C38.9578 53.6004 38.7106 52.7843 38.3423 52.001C38.305 51.9031 38.249 51.8098 38.2024 51.7119L38.0532 51.4274C37.9506 51.2363 37.8293 51.0637 37.7174 50.8772C37.4843 50.5135 37.2185 50.1638 36.9434 49.8234C36.3885 49.1426 35.759 48.5224 35.0689 47.9629C33.7773 46.8904 32.2991 46.0231 30.7417 45.3097C29.1843 44.5963 27.5383 44.0367 25.869 43.6217C25.4773 43.5238 25.0856 43.4399 24.7032 43.3653L24.4188 43.3093L24.111 43.2627C24.0831 43.2627 24.0644 43.244 24.0411 43.2347L23.9758 43.1927L23.8359 43.1088L23.2997 42.7591C22.6376 42.3627 21.9381 42.0083 21.2107 41.7146C20.4833 41.4208 19.7372 41.1783 18.9678 40.9918C18.5901 40.8986 18.2031 40.8146 17.8161 40.7494C17.6249 40.7167 17.4291 40.6841 17.2426 40.6561C17.2426 40.6561 17.2472 40.6654 17.2379 40.6654V40.7167C17.2146 40.7773 17.1959 40.8519 17.1726 40.9265C17.1027 41.2156 17.056 41.5327 17.0234 41.8685C16.9768 42.5399 16.9954 43.244 17.0514 43.9528C17.112 44.6615 17.2053 45.3703 17.3265 46.0837L17.3778 46.3495L17.4198 46.592L17.471 46.8578C17.5037 47.0443 17.5503 47.2262 17.583 47.4127L17.6436 47.6924L17.6622 47.7531L17.6716 47.7857C17.6762 47.795 17.6762 47.795 17.6669 47.795L17.6529 47.7997L17.527 47.8556L16.4965 48.2986L16.4639 48.3079L16.4499 48.3126C16.4499 48.3126 16.4266 48.3219 16.4126 48.3313L16.3846 48.3499L16.324 48.3779L16.2167 48.4385L15.9976 48.5504C14.8225 49.2126 13.7361 50.1405 12.7802 51.1803C12.6589 51.3109 12.547 51.4414 12.4258 51.572L12.2579 51.7678L12.16 51.8937L11.9875 52.1082C11.8709 52.2574 11.759 52.4113 11.6517 52.5652L11.4839 52.7983C11.4745 52.817 11.4559 52.8403 11.4419 52.8543L11.3766 52.831L11.2414 52.789L10.2109 52.4719L9.95443 52.388L9.6933 52.3181L9.18038 52.1782C9.00786 52.1409 8.83066 52.0989 8.6628 52.0569L8.40634 52.001L8.14522 51.9543C7.4551 51.8284 6.76499 51.7492 6.09353 51.7632C5.76247 51.7632 5.43606 51.7911 5.12831 51.8424L5.07702 51.8471L5.08168 51.9404C5.10033 52.1129 5.10499 52.2854 5.13297 52.4533L5.20292 52.9709C5.23089 53.1434 5.25887 53.3206 5.29151 53.4978C5.42674 54.1972 5.58528 54.8966 5.77179 55.6007C5.96763 56.3002 6.17747 56.995 6.40129 57.6897C6.51786 58.0348 6.63443 58.3752 6.76033 58.7202L6.94685 59.2238C6.95617 59.2472 6.99814 59.3591 7.02145 59.4383L7.05876 59.6668L7.10072 59.9419C7.34319 61.3921 7.62763 62.8423 7.94937 64.2691L7.96803 64.3484L7.98668 64.4276C8.16387 65.183 8.34572 65.9291 8.56954 66.6612C8.61617 66.843 8.67679 67.0296 8.74207 67.2067L8.826 67.4772L8.9146 67.7383C9.0405 68.0834 9.18038 68.4238 9.3296 68.6989L9.38555 68.7921C9.4042 68.8294 9.41353 68.8341 9.43218 68.8621C9.44617 68.8761 9.38555 68.8155 9.4042 68.8294L9.41819 68.8481C9.42286 68.8574 9.42752 68.8528 9.43684 68.8761C9.44151 68.8901 9.4555 68.9134 9.46016 68.918L9.50679 68.9787L9.52544 69.0066L9.53943 69.0206L9.55808 69.0486L9.63735 69.1885L9.91712 69.6641C10.0104 69.8226 10.1223 69.9672 10.2202 70.1164C10.3275 70.261 10.4207 70.4195 10.5373 70.5547L10.873 70.979L11.2367 71.3754C11.3533 71.5106 11.4885 71.6272 11.6191 71.7484C11.7497 71.8697 11.8755 72.0002 12.0201 72.1028C13.1205 73.0214 14.4495 73.6369 15.8623 73.9773C17.2752 74.3177 18.7813 74.369 20.2688 74.2338C21.2294 74.1498 22.1759 73.9773 23.0899 73.7255Z" fill="#221714"/>
<path d="M6.00439 53.8612C6.00439 53.8612 6.7458 56.8734 7.52917 57.8387C7.52917 57.8387 7.71568 56.5004 8.99332 55.6191L6.00439 53.8612Z" fill="#585757"/>
<path d="M20.707 45.3889C20.707 45.3889 22.2737 44.1533 23.0571 43.8409C23.0571 43.8409 20.1335 42.0643 19.3501 42.3767L20.707 45.3889Z" fill="#585757"/>
<path d="M15.0776 59.0077C15.5762 58.8493 15.8511 58.3227 15.6973 57.8242C15.5389 57.3256 15.0124 57.0507 14.5138 57.2091C14.0152 57.3675 13.7403 57.8941 13.8941 58.3926C14.0525 58.8866 14.5837 59.1615 15.0776 59.0077Z" fill="white"/>
<path d="M22.6412 52.0693C23.1398 51.9109 23.4147 51.3844 23.2609 50.8858C23.1025 50.3873 22.576 50.1123 22.0774 50.2708C21.5788 50.4292 21.3039 50.9557 21.4577 51.4543C21.6161 51.9529 22.1473 52.2278 22.6412 52.0693Z" fill="white"/>
<path d="M15.8856 67.6543C16.9348 66.7124 17.3265 65.4394 16.7576 64.8099C16.1934 64.1804 14.8831 64.4368 13.8339 65.3788C12.7848 66.3207 12.3931 67.5936 12.962 68.2231C13.5262 68.8526 14.8365 68.5962 15.8856 67.6543Z" fill="#FFA161"/>
<path d="M32.0046 53.1665C33.0538 52.2246 33.4455 50.9516 32.8766 50.3221C32.3124 49.6926 31.0021 49.9491 29.9529 50.891C28.9038 51.8329 28.5121 53.1058 29.081 53.7353C29.6499 54.3648 30.9555 54.1084 32.0046 53.1665Z" fill="#FFA161"/>
<path d="M22.838 75.6513C22.7913 75.6653 22.7774 75.6699 22.7074 75.6419C22.4696 75.572 22.1712 75.3995 22.0313 75.129C21.9007 74.8539 21.924 74.4902 22.2738 73.9959C22.2831 73.9773 22.3484 73.912 22.3857 73.8934C23.3182 73.6509 24.2602 73.3571 25.1788 73.0167C28.1117 71.9349 30.9002 70.4241 33.2549 68.4144L33.8564 67.8782L34.4346 67.3233C34.4346 67.3233 34.4673 67.2953 34.5232 67.244C34.5745 67.1927 34.6631 67.1135 34.761 67.0249C34.859 66.9316 34.9849 66.8197 35.1248 66.6892C35.26 66.5539 35.4045 66.414 35.5677 66.2508C35.7309 66.097 35.8895 65.9198 36.0573 65.7379C36.1366 65.6447 36.2299 65.5561 36.3138 65.4628C36.3931 65.3695 36.4723 65.267 36.5656 65.169L36.8174 64.8753L36.9433 64.7261C36.9806 64.6794 37.0226 64.6235 37.0599 64.5769C37.2184 64.3717 37.3723 64.1805 37.5262 63.994C37.7546 63.6583 37.9505 63.3925 38.1137 63.1687C38.2629 62.9402 38.3981 62.7723 38.5007 62.6557C38.7152 62.4179 38.8318 62.3713 38.8737 62.4879C38.9157 62.6044 38.8924 62.8656 38.8085 63.2339C38.7851 63.3272 38.7665 63.4251 38.7385 63.5277C38.7105 63.6303 38.6686 63.7375 38.6313 63.8448C38.5567 64.0639 38.4681 64.3064 38.3655 64.5535C38.4028 64.5069 38.2815 64.768 38.0671 65.183C37.9691 65.3929 37.8199 65.626 37.6754 65.8871C37.5961 66.013 37.5215 66.1576 37.4329 66.2881C37.3443 66.4187 37.251 66.5586 37.1671 66.6892C37.0739 66.8197 36.9853 66.9596 36.892 67.0902C36.7987 67.2207 36.7008 67.3466 36.6076 67.4679C36.519 67.5891 36.4257 67.7103 36.3418 67.8222C36.2485 67.9295 36.1692 68.0321 36.09 68.13C35.9268 68.3165 35.8009 68.4844 35.7076 68.5916C35.6144 68.6989 35.5537 68.7595 35.5537 68.7595C35.3719 68.9367 35.1947 69.1092 35.0082 69.2817L34.4486 69.7807C33.8051 70.3216 33.1523 70.8438 32.4576 71.3101L32.1871 71.492L31.926 71.6598C31.7488 71.7764 31.5809 71.8883 31.3991 71.9956C31.04 72.21 30.6903 72.4339 30.3266 72.6297C28.8764 73.4504 27.3657 74.1312 25.8082 74.7047C24.8337 75.0731 23.8498 75.3902 22.838 75.6513Z" fill="#AE1E25"/>
<path d="M17.0508 60.4361C17.9601 61.1821 17.4705 62.0121 16.7197 62.9214C15.969 63.8307 15.2509 64.4742 14.3416 63.7281C13.4324 62.982 13.3018 61.6391 14.0479 60.7298C14.7986 59.8206 16.1415 59.69 17.0508 60.4361Z" fill="#221714"/>
<path d="M16.645 60.0163C16.7848 60.0582 16.8547 60.2819 16.7848 60.5195C16.7242 60.7618 16.4027 60.8876 16.4027 60.8876C16.4027 60.8876 16.193 60.622 16.2629 60.3844C16.3328 60.1421 16.5052 59.979 16.645 60.0163Z" fill="#F6F6F6"/>
<path d="M27.7296 51.2078C28.4011 52.173 27.697 52.8398 26.7271 53.502C25.7572 54.1734 24.8899 54.5931 24.2185 53.6232C23.547 52.658 23.7988 51.329 24.7594 50.6622C25.7386 50.0001 27.0582 50.2426 27.7296 51.2078Z" fill="#221714"/>
<path d="M27.4587 50.6951C27.5845 50.7744 27.5798 51.0073 27.4633 51.2217C27.3329 51.4313 27.002 51.4686 27.002 51.4686C27.002 51.4686 26.8809 51.1564 26.9974 50.9421C27.1185 50.7324 27.3329 50.6159 27.4587 50.6951Z" fill="#F6F6F6"/>
<path d="M22.9589 59.3497C23.9008 58.5943 24.2132 57.4239 23.6583 56.7338C23.1034 56.0437 21.891 56.095 20.9491 56.8503C20.0072 57.6057 19.6948 58.7761 20.2497 59.4662C20.8046 60.1564 22.0169 60.1051 22.9589 59.3497Z" fill="#221714"/>
<path d="M23.934 59.8811L23.9288 59.8914C23.9391 59.8862 23.9545 59.8811 23.9648 59.8811H23.934Z" fill="#C3351E"/>
<path d="M25.8918 59.8534H25.4208C24.5395 61.0704 25.3928 63.9847 25.7053 64.9266C26.2928 65.1085 26.9456 65.0339 27.5844 64.4137C29.6128 62.4833 25.8918 59.8534 25.8918 59.8534Z" fill="#C3351E"/>
<path d="M25.4257 59.8627L23.9708 59.886C23.9615 59.8906 23.9475 59.8953 23.9382 59.8953L23.4766 62.9775C23.4766 62.9775 24.4511 64.5582 25.7101 64.9499C25.3977 63.9894 24.535 61.0844 25.4257 59.8627Z" fill="#A62124"/>
<path d="M22.0872 59.41C22.0732 59.396 22.0732 59.396 22.0779 59.354C22.1152 59.1115 22.3157 58.6126 22.9685 58.4401C22.9825 58.4354 23.0245 58.4307 23.0431 58.4354C23.0571 58.4494 23.3415 58.7338 23.7659 59.1582C23.8685 59.2607 23.9804 59.3726 24.1016 59.4985C24.1669 59.5638 24.2368 59.6291 24.2974 59.6944C24.3627 59.7597 24.4233 59.8156 24.484 59.8809C24.5492 59.9462 24.6005 60.0161 24.6658 60.0814L24.7124 60.128C24.7218 60.1514 24.7078 60.17 24.7078 60.198L24.6985 60.3379C24.6938 60.4265 24.6891 60.5197 24.6751 60.6176L24.6611 60.7575L24.6425 60.8648L24.6145 61.0187C24.5772 61.2285 24.5306 61.4383 24.4793 61.6482C24.3627 62.0678 24.2042 62.4921 23.9664 62.8745C23.7286 63.2569 23.4022 63.6066 23.0291 63.8071C22.9452 63.8584 22.8426 63.9003 22.754 63.9376C22.7074 63.9516 22.6701 63.9656 22.6328 63.9843C22.6188 63.9889 22.5955 63.9983 22.5768 64.0029C22.5535 64.0123 22.5395 64.0169 22.5162 64.0216C22.367 64.0589 22.2458 64.0822 22.1385 64.0962C21.9287 64.1288 21.7981 64.1242 21.7981 64.1242C21.7981 64.1242 21.7188 64.1242 21.579 64.1008C21.4344 64.0775 21.2339 64.0402 21.0101 63.9283C20.7816 63.8304 20.5345 63.6439 20.3713 63.3967C20.2127 63.1589 20.1521 62.8838 20.1428 62.6647C20.1335 62.4782 20.1521 62.3383 20.1847 62.2264C20.2174 62.1144 20.2547 62.0352 20.2873 61.9792C20.3619 61.8626 20.4319 61.8393 20.4972 61.8813C20.6277 61.9419 20.7256 62.2543 20.8795 62.4968C20.8842 62.4782 20.9215 62.5528 20.9821 62.6367C21.052 62.716 21.136 62.7766 21.2479 62.7999C21.3505 62.8279 21.4857 62.8279 21.6069 62.8046C21.7188 62.7859 21.8074 62.7673 21.8074 62.7673C21.8074 62.7673 21.8727 62.7626 21.994 62.7439C22.1245 62.7206 22.2644 62.6833 22.3996 62.5994C22.5349 62.5155 22.6887 62.3523 22.8286 62.1238C22.9685 61.886 23.0851 61.5829 23.1737 61.2565C23.2156 61.0886 23.2483 60.9254 23.2809 60.7622C23.2856 60.7202 23.2949 60.6736 23.2996 60.6363C23.1131 60.4498 22.9359 60.2726 22.7867 60.1234C22.3856 59.7084 22.1105 59.4286 22.0872 59.41Z" fill="#221714"/>
<path d="M24.2603 61.0465C24.2464 61.0511 24.2417 61.0418 24.223 61.0138C24.1531 60.9252 24.0738 60.7527 24.0365 60.5336C24.0085 60.3097 24.0365 60.0393 24.1438 59.7409C24.1484 59.7315 24.1717 59.6896 24.1764 59.6896C24.1857 59.6849 24.2603 59.6802 24.3956 59.6709C24.5261 59.6569 24.7126 59.6383 24.9225 59.6056C25.3468 59.5404 25.911 59.4051 26.3587 59.172C26.5778 59.0601 26.7597 58.9202 26.8669 58.7803C26.9788 58.6451 27.0301 58.5145 27.0488 58.3839C27.0721 58.2394 27.0628 58.1555 27.0441 58.1042C27.0254 58.0482 27.0208 58.0249 27.0208 58.0249C27.0208 58.0249 27.0254 58.0063 27.0208 57.9643C27.0161 57.9223 26.9975 57.8664 26.9555 57.7871C26.8809 57.6332 26.6711 57.4234 26.4612 57.2509C26.0882 56.9944 25.9437 56.8592 26.0043 56.7193C26.0742 56.5934 26.354 56.5048 26.7084 56.5328C26.6757 56.5188 27.0861 56.5421 27.5244 56.7706C27.7389 56.8825 27.958 57.0597 28.0979 57.2322C28.1679 57.3115 28.2145 57.3907 28.2518 57.4467C28.2891 57.5027 28.3031 57.5306 28.3031 57.5306C28.3031 57.5306 28.3124 57.5633 28.3311 57.6146C28.3497 57.6705 28.373 57.7545 28.401 57.857C28.443 58.0669 28.457 58.3606 28.3917 58.6731C28.3311 58.9995 28.1539 59.3818 27.8881 59.6849C27.627 59.988 27.2959 60.2211 26.9648 60.3843C26.3027 60.7201 25.6359 60.8553 25.1323 60.9439C24.624 61.0371 24.279 61.0511 24.2603 61.0465Z" fill="#221714"/>
<path d="M7.15558 42.1613C7.5097 42.0494 7.7054 41.6767 7.59357 41.3225C7.48174 40.9731 7.10898 40.7774 6.75486 40.8846C6.40073 40.9964 6.20503 41.3691 6.31686 41.7233C6.42869 42.0774 6.80611 42.2731 7.15558 42.1613Z" fill="#E2CA55"/>
<path d="M14.0851 39.0881C14.4393 38.9763 14.635 38.6036 14.5231 38.2494C14.4113 37.9 14.0385 37.7043 13.6844 37.8114C13.3303 37.9233 13.1346 38.296 13.2464 38.6501C13.3583 38.9996 13.7357 39.1953 14.0851 39.0881Z" fill="#E2CA55"/>
<path d="M60.761 36.6036L46.8849 35.7104L45.2888 28.4771C44.5518 27.9646 44.0784 27.0812 44.137 26.1196C44.2541 24.6456 45.5134 23.5426 46.9483 23.6353C47.3632 23.6597 47.7536 23.7817 48.0904 23.977C48.6078 23.3913 49.3692 23.0398 50.2136 23.0838L50.2721 23.0887C50.9555 23.1423 51.5656 23.4596 52 23.9282C52.3319 22.7226 53.4642 21.8782 54.7186 21.9612C55.4263 22.0051 56.095 22.337 56.5586 22.869C56.9149 23.279 57.1297 23.772 57.1931 24.2991C57.6666 23.9672 58.2523 23.7915 58.8819 23.8257C59.7312 23.894 60.4438 24.3186 60.8879 24.9434C61.2784 24.7579 61.7177 24.6652 62.1716 24.6944C62.8891 24.7384 63.5626 25.0751 64.0263 25.6169C64.4948 26.1636 64.7145 26.8615 64.6462 27.5839C64.5729 28.4966 64.0165 29.2824 63.2356 29.6924L60.761 36.6036ZM50.0574 32.0108L58.0815 32.5282L58.9551 30.0829L57.5055 30.4343L57.3542 29.6973L56.7295 30.1121L54.3769 27.3935L51.6632 29.8339L51.0336 29.2922L50.7993 29.9706L49.4961 29.4776L50.0574 32.0108Z" fill="#040000"/>
<path d="M59.2434 29.1555L58.8236 27.1592C59.1457 27.1104 59.3947 26.8566 59.4191 26.5247C59.4435 26.1343 59.1506 25.8073 58.765 25.778C58.3746 25.7536 58.0476 26.0464 58.0183 26.432C58.0085 26.5784 58.0573 26.72 58.1305 26.842L56.4027 27.989L54.2064 29.3019L52.2003 27.7254L50.5165 26.2807C50.6629 26.1636 50.7605 25.983 50.7703 25.7877C50.7947 25.3973 50.5018 25.0703 50.1162 25.041C49.7355 25.0215 49.3988 25.3094 49.3744 25.6999C49.3548 26.0611 49.6135 26.3637 49.9552 26.4222L49.2279 28.5161L48.0907 31.3714L49.3695 32.5086L51.722 31.8741L54.0746 31.2396L54.0843 31.225V31.2445L56.3442 32.167L58.604 33.0894L60.0145 32.1182L59.2434 29.1555Z" fill="#B06F20"/>
<path d="M54.562 24.6115L53.9568 34.2071L48.4805 33.8557L46.821 26.3734L50.8868 27.9158L54.562 24.6115Z" fill="#EEDE80"/>
<path d="M54.5624 24.6115L53.9572 34.2071L59.4285 34.5488L62.0105 27.3447L57.7886 28.355L54.5624 24.6115Z" fill="#E2CA55"/>
<path d="M46.4747 26.9145C46.821 27.0852 47.2404 26.9486 47.4111 26.6023C47.5818 26.256 47.4453 25.8366 47.099 25.6659C46.7527 25.4952 46.3333 25.6318 46.1625 25.978C45.987 26.3243 46.1284 26.7438 46.4747 26.9145Z" fill="#E2CA55"/>
<path d="M54.2451 25.2352C54.5914 25.4059 55.0108 25.2693 55.1816 24.923C55.3523 24.5767 55.2157 24.1573 54.8694 23.9866C54.5231 23.8159 54.1037 23.9524 53.933 24.2987C53.7623 24.645 53.9037 25.0645 54.2451 25.2352Z" fill="#E2CA55"/>
<path d="M61.6976 27.9686C62.0439 28.1393 62.4633 28.0027 62.634 27.6564C62.8047 27.3101 62.6682 26.8907 62.3219 26.72C61.9756 26.5493 61.5562 26.6858 61.3854 27.0321C61.2099 27.3784 61.3513 27.7979 61.6976 27.9686Z" fill="#E2CA55"/>
<path d="M69.3216 57.7671C65.7732 64.8443 55.626 66.5575 46.6697 63.1067C35.4048 58.7628 34.0186 49.582 37.567 42.4999C41.1153 35.4227 50.9404 33.1776 59.5209 37.4776C68.1063 41.7825 72.8748 50.6851 69.3216 57.7671Z" fill="white"/>
<path d="M40.8374 60.178C40.8374 60.178 34.7462 54.7115 40.3152 49.323C40.3152 49.323 42.0235 48.1077 44.6786 48.9082C47.3338 49.7037 49.8474 47.5415 49.8474 47.5415C49.8474 47.5415 51.2482 45.8723 52.9272 46.9022C54.5965 47.932 55.0016 46.8924 55.0016 46.8924C55.0016 46.8924 55.9924 45.8137 57.2028 47.0144C58.4132 48.2151 61.2441 49.8599 63.9481 49.2889C66.6521 48.7178 68.6678 51.3876 68.6678 51.3876C68.6678 51.3876 72.1967 58.7186 63.2501 63.4725C63.2501 63.4725 68.1212 62.1205 70.2834 58.1866C72.4456 54.2527 73.412 49.0351 68.3262 39.8933L66.6325 37.614L64.9877 32.001L62.5424 30.3269L59.6042 33.4116L57.1247 35.935C57.1247 35.935 55.1138 34.3633 52.6295 35.1882C50.1451 36.0131 50.1891 35.32 50.1891 35.32C50.1891 35.32 48.0854 31.5959 47.2215 31.1029C46.3576 30.6149 44.9568 29.7168 44.9568 29.7168L40.7203 37.6725C40.7203 37.6725 35.3709 45.0328 35.1806 48.7227C34.9902 52.4175 35.5222 57.1665 40.8374 60.178Z" fill="#D3830F"/>
<path d="M43.2437 60.5734C43.2828 60.593 43.2974 60.5978 43.3218 60.6711C43.4341 60.8809 43.5415 61.2031 43.4731 61.5106C43.4194 61.8278 43.1656 62.1402 42.5067 62.2573C42.4823 62.2671 42.3749 62.2671 42.331 62.2476C41.3451 61.7155 40.4373 61.0957 39.5636 60.4026C38.2116 59.3142 36.9768 58.0403 36.0201 56.5468C35.0732 55.0484 34.3997 53.3205 34.2093 51.5293C34.1654 51.3097 34.1654 51.0803 34.1557 50.8557C34.1459 50.6312 34.1264 50.4018 34.141 50.1822C34.1508 49.9577 34.1459 49.738 34.1508 49.5135L34.2093 48.8448C34.224 48.6252 34.2679 48.4056 34.3021 48.1859C34.346 47.9663 34.3704 47.7418 34.4192 47.5319L34.5852 46.8974L34.6144 46.7607L34.6047 46.7754V46.7949C34.5998 46.8047 34.6047 46.7949 34.6096 46.7851L34.6193 46.6875C34.634 46.6192 34.6486 46.5313 34.6633 46.4679L34.7218 46.2775C34.8634 45.8041 35.0293 45.399 35.205 44.9939L35.3368 44.6961L35.4832 44.4082C35.5711 44.2129 35.6687 44.0226 35.7712 43.8371C36.1617 43.0806 36.5863 42.3485 37.0109 41.6261L37.0597 41.548L37.1085 41.4699C37.9285 40.1179 38.7875 38.805 39.6856 37.5067L39.8516 37.2675L39.876 37.2431L39.8857 37.2285C39.8906 37.2187 39.8857 37.2285 39.8857 37.2285C39.8808 37.2383 39.8857 37.2285 39.8857 37.2285L39.9101 37.1846L40.1542 36.6379C40.3152 36.2816 40.4861 35.9156 40.6569 35.5641C41.0034 34.8515 41.3695 34.1487 41.7502 33.441C42.1309 32.7381 42.5507 32.05 42.9948 31.3764C43.1071 31.2056 43.2193 31.0396 43.3413 30.8737L43.7025 30.3807C43.8245 30.2148 43.9612 30.0537 44.0979 29.8926C44.1418 29.8389 44.2833 29.6535 44.4249 29.5412L44.83 29.1703L45.035 28.9897L45.1375 28.8969L45.1912 28.8481C45.2009 28.8433 45.2107 28.8286 45.2205 28.8237L45.2546 28.8335C45.4255 28.8921 45.5963 28.9311 45.7671 28.9946C45.9428 29.0434 46.1088 29.1361 46.2845 29.224C46.3675 29.2679 46.4504 29.3069 46.5383 29.3704L46.7384 29.5022C47.1142 29.756 47.451 30.0391 47.7585 30.3368C48.3881 30.9274 48.9152 31.5765 49.3887 32.2403L49.5741 32.4795L49.7401 32.7333C49.8524 32.9041 49.9695 33.0749 50.0769 33.2458L50.3892 33.7631L50.5454 34.0218L50.6919 34.2854L50.7163 34.3146L51.1702 34.2658C51.3752 34.2561 51.5802 34.2317 51.7852 34.2219C53.4154 34.1341 55.0797 34.217 56.7245 34.6514L57.2761 34.8125L57.4713 34.5196C57.9252 33.8607 58.4035 33.2116 58.9209 32.5868C59.4383 31.9572 59.9898 31.3471 60.6194 30.7809C60.9416 30.493 61.2783 30.2245 61.6786 29.9756C61.786 29.917 61.8787 29.8585 61.9958 29.7999L62.0739 29.756C62.113 29.7364 62.152 29.7169 62.1862 29.6974C62.274 29.6535 62.3619 29.6339 62.4595 29.5949C62.5522 29.5656 62.6401 29.5217 62.7328 29.5022L63.0062 29.4485C63.1916 29.4045 63.3771 29.3753 63.5577 29.3411L63.6016 29.3313C63.6114 29.3265 63.6211 29.3509 63.626 29.3557L63.6846 29.4143L63.7871 29.5314L64.0018 29.7706C64.1434 29.9268 64.2752 30.0976 64.4216 30.2685C64.5583 30.4539 64.7096 30.6296 64.8316 30.82C65.1049 31.186 65.3538 31.5668 65.5979 31.9572C66.0811 32.7235 66.5155 33.5337 66.8766 34.3732C67.2476 35.2078 67.56 36.0766 67.7845 36.9747L67.926 37.5897C67.9211 37.5799 67.926 37.5897 67.926 37.5897L68.1164 37.8581C68.3799 38.2291 68.6191 38.6049 68.8583 38.9856C69.8735 40.6109 70.7569 42.3192 71.45 44.1202C72.1479 45.9115 72.6702 47.7955 72.8947 49.7478C73.007 50.7776 73.0362 51.8319 72.9484 52.8764C72.9045 53.3986 72.8312 53.9258 72.7336 54.448C72.6702 54.7018 72.6262 54.9654 72.553 55.2241L72.4408 55.6048C72.4066 55.7317 72.3676 55.8635 72.3139 55.9904C71.9673 57.0056 71.4744 57.9622 70.8643 58.8408C70.5665 59.2849 70.2249 59.6949 69.8832 60.0951C69.7075 60.2952 69.522 60.4758 69.3366 60.6711L69.2243 60.7784C68.8046 61.1982 68.3507 61.5691 67.887 61.9401C67.887 61.9401 67.721 62.0377 67.4526 62.2183C67.1793 62.3842 66.7888 62.6087 66.3251 62.8479C65.8663 63.0773 65.3343 63.3165 64.7925 63.5215C64.2508 63.7264 63.6895 63.8924 63.177 64.0193C62.318 64.2487 61.742 64.3121 61.4004 64.3024C61.0587 64.2926 60.9562 64.2145 61.0245 64.1023C61.1514 63.8875 61.9373 63.5019 62.85 63.0138C62.7426 63.0383 63.8701 62.5062 64.9194 61.8181C65.4417 61.4813 65.9444 61.1006 66.3154 60.8077C66.4959 60.6613 66.6424 60.5344 66.7449 60.4417C66.8474 60.3489 66.9059 60.2952 66.9059 60.2952L67.1597 60.0902L67.4135 59.8755C67.5795 59.7291 67.7357 59.5778 67.8967 59.4313L67.9944 59.3337C68.1554 59.1678 68.3116 59.0067 68.4629 58.8359C68.7558 58.4991 69.0486 58.1477 69.3024 57.7719C69.8198 57.03 70.2249 56.2344 70.5226 55.3803C70.5665 55.2778 70.5909 55.1655 70.6251 55.0581L70.7227 54.736C70.7862 54.5163 70.8203 54.2967 70.874 54.0771C70.9619 53.6329 71.0205 53.179 71.0595 52.7202C71.1376 51.8075 71.1132 50.8801 71.0058 49.9577C70.8106 48.2103 70.3323 46.4825 69.6831 44.8133C69.034 43.144 68.1993 41.5236 67.2476 39.9959C67.028 39.6347 66.7888 39.2882 66.5594 38.9514L66.3886 38.7025L66.1933 38.4438C66.1738 38.4243 66.1689 38.395 66.164 38.3706L66.1445 38.2925L66.1006 38.1266L65.9542 37.4725C65.7443 36.6916 65.4758 35.9156 65.144 35.1688C64.8121 34.422 64.4265 33.6899 63.9823 32.9919C63.7627 32.6454 63.5382 32.2989 63.2941 31.967C63.177 31.801 63.0501 31.6351 62.9281 31.4789C62.9281 31.4789 62.9232 31.4887 62.9183 31.4838L62.889 31.5082C62.8256 31.5326 62.7572 31.5765 62.6889 31.6204C62.4253 31.7815 62.1569 31.9914 61.8933 32.2208C61.3711 32.6942 60.8684 33.2311 60.3998 33.807C59.9312 34.383 59.4822 34.9882 59.0576 35.6129L58.9014 35.8472L58.755 36.062L58.5988 36.2963C58.4865 36.4622 58.3938 36.633 58.2815 36.7941L58.1253 37.0479L58.0961 37.1065L58.0814 37.1358C58.0765 37.1455 58.0765 37.1455 58.0717 37.1406L58.057 37.1309L57.9203 37.0821L56.8222 36.6623L56.7929 36.6477L56.7782 36.6379C56.7782 36.6379 56.7538 36.6282 56.7343 36.6282L56.7001 36.6184L56.6367 36.594L56.5098 36.5598L56.2609 36.4817C54.8942 36.1206 53.4056 36.0327 51.9267 36.1206C51.7412 36.1303 51.5606 36.145 51.3752 36.1596L51.1018 36.184L50.9359 36.2084L50.6479 36.2475C50.4527 36.2719 50.2526 36.306 50.0622 36.3451L49.7694 36.3988C49.745 36.4085 49.7157 36.4085 49.6962 36.4085L49.662 36.3451L49.5937 36.2133L49.047 35.2225L48.9152 34.9736L48.7688 34.7295L48.4808 34.2512C48.3784 34.095 48.2759 33.9388 48.1782 33.7875L48.0269 33.5581L47.861 33.3336C47.4364 32.7381 46.9727 32.172 46.4602 31.6937C46.2064 31.4545 45.9477 31.2349 45.6744 31.0543L45.6304 31.025L45.567 31.0982C45.4547 31.2446 45.3327 31.3715 45.2302 31.5228L44.9032 31.9621C44.8007 32.1085 44.6933 32.2647 44.586 32.4209C44.176 33.0456 43.7855 33.6899 43.4146 34.3537C43.0534 35.0224 42.702 35.6959 42.3652 36.3841C42.1992 36.7307 42.0382 37.0723 41.882 37.4188L41.6526 37.9313C41.6428 37.9557 41.5891 38.0729 41.555 38.1461L41.4183 38.3462L41.2524 38.5854C40.3787 39.8544 39.5392 41.1478 38.7387 42.4559L38.6948 42.5291L38.6509 42.6023C38.236 43.3002 37.8309 43.9933 37.4648 44.7059C37.3672 44.8767 37.2794 45.0622 37.1964 45.2379L37.0646 45.5064L36.9426 45.7699C36.7864 46.1213 36.6449 46.4776 36.5521 46.7949L36.5277 46.9072C36.518 46.9511 36.518 46.9608 36.5131 46.995C36.5131 47.0145 36.5082 46.9267 36.518 46.9511L36.5131 46.9755C36.5082 46.9852 36.518 46.9852 36.5033 47.0096C36.4936 47.0243 36.4936 47.0536 36.4887 47.0585L36.4789 47.1366L36.4692 47.1707V47.1902L36.4594 47.2244L36.4155 47.3855L36.2788 47.9468C36.2349 48.1322 36.2154 48.3226 36.1812 48.5081C36.1519 48.6935 36.108 48.8839 36.0982 49.0694L36.0445 49.6355L36.0299 50.2017C36.0201 50.3872 36.0348 50.5775 36.0445 50.763C36.0543 50.9485 36.0543 51.1388 36.0885 51.3194C36.2495 52.8129 36.8011 54.243 37.6161 55.5267C38.4312 56.8152 39.5245 57.9427 40.7399 58.9237C41.5403 59.5387 42.3749 60.1 43.2437 60.5734Z" fill="#221714"/>
<path d="M44.8641 33.1969C44.8641 33.1969 43.2291 35.9985 43.1119 37.2968C43.1119 37.2968 44.2248 36.4231 45.8306 36.6964L44.8641 33.1969Z" fill="#FFCB6E"/>
<path d="M62.0886 37.5308C62.0886 37.5308 64.1679 37.7455 64.983 38.0774C64.983 38.0774 64.08 34.612 63.26 34.2753L62.0886 37.5308Z" fill="#FFCB6E"/>
<path d="M47.9386 43.6742C48.4263 43.918 49.0214 43.7229 49.2652 43.2352C49.5091 42.7475 49.314 42.1524 48.8263 41.9086C48.3385 41.6647 47.7435 41.8598 47.4996 42.3475C47.2558 42.8353 47.4509 43.4254 47.9386 43.6742Z" fill="white"/>
<path d="M58.6764 43.9669C59.1641 44.2107 59.7591 44.0156 60.003 43.5279C60.2469 43.0402 60.0518 42.4452 59.5641 42.2013C59.0763 41.9574 58.4813 42.1525 58.2374 42.6403C57.9936 43.128 58.1887 43.7181 58.6764 43.9669Z" fill="white"/>
<path d="M42.2479 50.763C43.7219 50.8167 44.9421 50.1432 44.9763 49.2597C45.0104 48.3763 43.839 47.6149 42.365 47.5612C40.891 47.5075 39.6708 48.1811 39.6366 49.0645C39.6074 49.9479 40.7739 50.7094 42.2479 50.763Z" fill="#FF9671"/>
<path d="M64.9195 51.6072C66.3935 51.6609 67.6137 50.9873 67.6479 50.1039C67.6821 49.2204 66.5107 48.459 65.0367 48.4053C63.5626 48.3517 62.3424 49.0252 62.3083 49.9086C62.279 50.7872 63.4455 51.5486 64.9195 51.6072Z" fill="#FF9671"/>
<path d="M41.6576 61.8371C41.6137 61.8127 41.599 61.8078 41.5649 61.7346C41.438 61.51 41.3355 61.1635 41.4331 60.856C41.5356 60.5534 41.8187 60.2947 42.4385 60.1776C42.4629 60.1678 42.5557 60.1678 42.5996 60.1825C43.4781 60.6803 44.4006 61.144 45.3377 61.554C48.3297 62.8767 51.5266 63.7699 54.7626 63.97L55.607 64.0041H56.4465C56.4465 64.0041 56.4904 64.009 56.5685 64.009C56.6466 64.009 56.7686 64.0139 56.9101 64.0188C57.0517 64.0237 57.2323 64.0285 57.4275 64.0334C57.6276 64.0285 57.8375 64.0285 58.0815 64.0285C58.3158 64.0334 58.5647 64.0139 58.8234 63.9993C58.9552 63.9895 59.087 63.9895 59.2188 63.9749C59.3506 63.9651 59.4823 63.9456 59.619 63.9358L60.0192 63.8968L60.2193 63.8724C60.2779 63.8626 60.3511 63.8528 60.4146 63.848C60.683 63.8089 60.9368 63.7747 61.1906 63.7503C61.6055 63.6625 61.952 63.6088 62.2302 63.56C62.5084 63.5014 62.733 63.4672 62.894 63.4526C63.2308 63.4282 63.3479 63.4819 63.2991 63.599C63.2503 63.7162 63.0356 63.8968 62.7086 64.1115C62.6256 64.1652 62.5377 64.2238 62.4401 64.2823C62.3425 64.3409 62.2351 64.3897 62.1326 64.4434C61.913 64.5557 61.6738 64.6728 61.42 64.7802C61.4835 64.7704 61.2004 64.8778 60.7367 65.0389C60.5122 65.1267 60.2291 65.1951 59.9265 65.2829C59.7752 65.322 59.6141 65.3756 59.4531 65.4098C59.292 65.444 59.1212 65.483 58.9601 65.5172C58.7941 65.5465 58.6282 65.5904 58.4622 65.6197C58.2963 65.649 58.1304 65.6734 57.9742 65.6978C57.818 65.7222 57.6618 65.7515 57.5154 65.771C57.3689 65.7808 57.2323 65.8003 57.1005 65.8198C56.8418 65.8442 56.6222 65.8784 56.4758 65.8881C56.3244 65.8979 56.2415 65.9028 56.2415 65.9028C55.973 65.9028 55.7143 65.9077 55.4508 65.8979L54.665 65.8637C53.7864 65.8052 52.9128 65.7173 52.0537 65.566L51.7267 65.5172L51.4046 65.4537C51.1849 65.4098 50.9751 65.3708 50.7652 65.322C50.3357 65.2243 49.9159 65.1316 49.4962 65.0193C47.8074 64.5801 46.1724 63.9944 44.5861 63.2915C43.5806 62.8571 42.6094 62.3788 41.6576 61.8371Z" fill="#AE1E25"/>
<path d="M48.3836 46.1846C48.5252 47.4097 47.549 47.6732 46.3239 47.8148C45.0988 47.9514 44.0885 47.9124 43.947 46.6922C43.8054 45.4671 44.684 44.364 45.9091 44.2225C47.1341 44.0809 48.2421 44.9595 48.3836 46.1846Z" fill="#221714"/>
<path d="M48.3829 45.5741C48.4609 45.7058 48.3487 45.9302 48.1244 46.0521C47.9049 46.1886 47.5732 46.0521 47.5732 46.0521C47.5732 46.0521 47.6074 45.696 47.8317 45.5741C48.0561 45.4375 48.3048 45.4424 48.3829 45.5741Z" fill="#F6F6F6"/>
<path d="M63.1332 47.0198C62.9331 48.2351 61.9179 48.2204 60.7074 48.0155C59.4921 47.8153 58.5355 47.4981 58.7307 46.2828C58.9308 45.0674 60.0827 44.2523 61.2931 44.4476C62.5133 44.6574 63.3333 45.8044 63.1332 47.0198Z" fill="#221714"/>
<path d="M63.2984 46.4383C63.3374 46.5895 63.1667 46.7602 62.918 46.8383C62.6644 46.9017 62.3912 46.6871 62.3912 46.6871C62.3912 46.6871 62.5229 46.3652 62.7717 46.2871C63.0155 46.2189 63.2594 46.2871 63.2984 46.4383Z" fill="#F6F6F6"/>
<path d="M53.6155 49.6693C54.8747 49.7864 55.9632 49.1324 56.0461 48.2099C56.134 47.2875 55.1822 46.4431 53.923 46.326C52.6637 46.2088 51.5753 46.8628 51.4923 47.7853C51.4094 48.7078 52.3611 49.5522 53.6155 49.6693Z" fill="#221714"/>
<path d="M53.9623 50.7771L53.9523 50.7821C53.9623 50.7871 53.9773 50.7921 53.9823 50.7971L53.9623 50.7771Z" fill="#C3351E"/>
<path d="M55.4558 52.1832L55.0995 51.8416C53.5523 52.1149 52.0734 54.9311 51.6195 55.8682C51.927 56.4344 52.4736 56.8493 53.4059 56.8493C56.3393 56.8688 55.4558 52.1832 55.4558 52.1832Z" fill="#C3351E"/>
<path d="M55.0948 51.8513L53.9868 50.8068C53.9771 50.8019 53.9624 50.797 53.9575 50.7921L51.3707 52.7737C51.3707 52.7737 50.9558 54.6724 51.6147 55.8828C52.0735 54.931 53.5378 52.1197 55.0948 51.8513Z" fill="#A62124"/>
<path d="M52.9173 49.0793C52.9173 49.0598 52.9173 49.0598 52.9515 49.0305C53.1516 48.8743 53.669 48.6449 54.2888 48.9963C54.3035 49.0061 54.3376 49.0305 54.3523 49.0452C54.3523 49.0647 54.3572 49.4893 54.3718 50.114C54.3718 50.2654 54.3767 50.4313 54.3767 50.6119C54.3767 50.7095 54.3864 50.8071 54.3864 50.8999C54.3864 50.9975 54.3913 51.0853 54.3913 51.1781C54.3913 51.2757 54.3816 51.3635 54.3816 51.4612L54.3864 51.5295C54.3767 51.5539 54.3523 51.5588 54.3327 51.5783L54.2254 51.6759C54.157 51.7345 54.0838 51.8077 54.0057 51.8711L53.8935 51.9639L53.8007 52.0322L53.669 52.1249C53.4884 52.2567 53.3029 52.3787 53.1077 52.5008C52.7123 52.735 52.2877 52.94 51.8289 53.0523C51.3701 53.1646 50.8723 53.1938 50.4427 53.0718C50.3402 53.0474 50.2377 53.0084 50.1401 52.9693C50.0962 52.9449 50.0572 52.9254 50.0132 52.9156C49.9986 52.9059 49.9742 52.8961 49.9595 52.8912C49.9351 52.8815 49.9205 52.8717 49.8961 52.8619C49.7545 52.7839 49.6472 52.7106 49.5544 52.6423C49.3738 52.5105 49.2762 52.4178 49.2762 52.4178C49.2762 52.4178 49.2177 52.3592 49.1298 52.2372C49.0371 52.1152 48.915 51.9395 48.8272 51.6954C48.7296 51.4563 48.6808 51.1341 48.7345 50.8315C48.7881 50.5338 48.9394 50.2849 49.0956 50.114C49.2274 49.9676 49.3397 49.8749 49.4471 49.8114C49.5544 49.7529 49.6374 49.7187 49.7009 49.6992C49.8424 49.665 49.9107 49.6992 49.9303 49.7773C49.9839 49.9188 49.8326 50.2214 49.7692 50.5192C49.7838 50.5094 49.7594 50.5924 49.7448 50.6997C49.735 50.812 49.7594 50.9194 49.8229 51.017C49.8814 51.1146 49.9839 51.2122 50.0913 51.2854C50.1889 51.3538 50.2719 51.4026 50.2719 51.4026C50.2719 51.4026 50.3256 51.4465 50.433 51.5197C50.5452 51.5978 50.6819 51.671 50.843 51.7052C51.0089 51.7394 51.2383 51.7345 51.5165 51.6613C51.7947 51.5832 52.1022 51.4416 52.4048 51.2562C52.5561 51.1634 52.7026 51.0609 52.849 50.9633C52.8831 50.934 52.9271 50.9047 52.9564 50.8852C52.9515 50.607 52.9515 50.3483 52.9466 50.1287C52.9222 49.5186 52.9173 49.1086 52.9173 49.0793Z" fill="#221714"/>
<path d="M53.3569 51.8951C53.3423 51.8854 53.3472 51.8805 53.352 51.8463C53.3618 51.7292 53.4301 51.5437 53.5619 51.3534C53.7035 51.1679 53.9231 50.9824 54.2208 50.836C54.2306 50.8311 54.2794 50.8165 54.2843 50.8214C54.294 50.8263 54.3526 50.8751 54.46 50.9678C54.5723 51.0508 54.7187 51.1728 54.9041 51.3046C55.2702 51.5633 55.7925 51.8756 56.3001 52.0221C56.549 52.1001 56.7833 52.1197 56.9687 52.1001C57.1542 52.0806 57.286 52.0221 57.3982 51.9342C57.5203 51.8415 57.574 51.7731 57.5984 51.7194C57.6228 51.6658 57.6374 51.6413 57.6374 51.6413C57.6374 51.6413 57.652 51.6316 57.6813 51.5974C57.7057 51.5633 57.735 51.5096 57.7594 51.4168C57.818 51.246 57.8082 50.9385 57.7789 50.6554C57.6862 50.1917 57.6765 49.9819 57.8229 49.9233C57.9693 49.8794 58.2426 50.0209 58.4867 50.2942C58.4769 50.2601 58.7649 50.5773 58.9308 51.0703C59.0089 51.3095 59.0431 51.6023 59.0236 51.8317C59.0138 51.944 58.9943 52.0367 58.9796 52.105C58.965 52.1734 58.9552 52.2075 58.9552 52.2075C58.9552 52.2075 58.9406 52.2368 58.9113 52.2905C58.8869 52.3442 58.843 52.4272 58.7844 52.5248C58.6624 52.7102 58.4574 52.9445 58.1841 53.13C57.901 53.3301 57.491 53.4863 57.0712 53.5253C56.6515 53.5644 56.2366 53.4961 55.8657 53.3789C55.1238 53.1495 54.5234 52.7639 54.0793 52.4662C53.64 52.149 53.3667 51.9098 53.3569 51.8951Z" fill="#221714"/>
<path opacity="0.7" d="M7.72827 36.1792C7.95455 37.4847 9.16138 41.343 9.16138 41.343C9.16138 41.343 11.3894 46.0311 11.4822 46.1877C11.5692 46.3502 9.98527 41.1226 9.98527 41.1226L7.72827 36.1792Z" fill="white"/>
<path opacity="0.7" d="M5.03015 43.577C6.295 43.0432 10.0547 41.3548 10.0547 41.3548C10.0547 41.3548 13.6926 38.5873 13.7913 38.506C13.8203 38.4828 9.58476 40.8211 9.58476 40.8211L5.03015 43.577Z" fill="white"/>
<path d="M10.5539 40.7977C9.90406 39.9274 10.6409 38.4189 10.7918 37.9779C10.7454 38.1056 10.6931 38.2448 10.6351 38.4015C10.6583 38.3318 10.6815 38.2564 10.6873 38.2448C10.7222 38.152 10.757 38.0591 10.786 37.9779C10.7396 38.1056 10.6525 38.297 10.5365 38.5233C10.5365 38.5233 9.70679 39.997 9.13239 40.1595C7.84434 40.525 5.34365 39.44 6.31839 39.823C9.60236 41.0994 8.6044 43.7974 8.3085 44.6967C8.35492 44.5806 8.40713 44.424 8.47096 44.2499C8.45935 44.2847 8.45355 44.3079 8.44775 44.3312C8.39553 44.4762 8.34911 44.598 8.3085 44.7025C9.1498 42.6312 9.63137 41.3083 12.5846 42.1902C13.5652 42.4745 11.3082 41.8131 10.5539 40.7977Z" fill="white"/>
<path opacity="0.7" d="M16.7567 1.6687C16.983 2.97416 18.1898 6.83253 18.1898 6.83253C18.1898 6.83253 20.4178 11.5206 20.5106 11.6772C20.5977 11.8397 19.0137 6.61205 19.0137 6.61205L16.7567 1.6687Z" fill="white"/>
<path opacity="0.7" d="M14.0529 9.06604C15.3177 8.53225 19.0774 6.84385 19.0774 6.84385C19.0774 6.84385 22.7153 4.07627 22.814 3.99504C22.843 3.97184 18.6075 6.31007 18.6075 6.31007L14.0529 9.06604Z" fill="white"/>
<path d="M19.5823 6.29258C18.9325 5.42227 19.6694 3.91373 19.8202 3.47278C19.7738 3.60042 19.7216 3.73967 19.6636 3.89633C19.6868 3.8267 19.71 3.75128 19.7158 3.73967C19.7506 3.64684 19.7854 3.55401 19.8144 3.47278C19.768 3.60042 19.681 3.79189 19.5649 4.01817C19.5649 4.01817 18.7352 5.49189 18.1608 5.65435C16.8728 6.01988 14.3721 4.9349 15.3468 5.31783C18.6308 6.59428 17.6328 9.29224 17.3369 10.1916C17.3834 10.0755 17.4356 9.91886 17.4994 9.7448C17.4878 9.77961 17.482 9.80282 17.4762 9.82603C17.424 9.97108 17.3776 10.0929 17.3369 10.1974C18.1782 8.12603 18.6598 6.80316 21.6131 7.68507C22.5936 7.96357 20.3366 7.30794 19.5823 6.29258Z" fill="white"/>
<path opacity="0.7" d="M52.8856 18.0826C53.1119 19.3881 54.3187 23.2465 54.3187 23.2465C54.3187 23.2465 56.5467 27.9345 56.6396 28.0912C56.7266 28.2536 55.1426 23.026 55.1426 23.026L52.8856 18.0826Z" fill="white"/>
<path opacity="0.7" d="M50.1876 25.4747C51.4525 24.9409 55.2122 23.2525 55.2122 23.2525C55.2122 23.2525 58.8501 20.485 58.9487 20.4037C58.9777 20.3805 54.7422 22.7188 54.7422 22.7188L50.1876 25.4747Z" fill="white"/>
<path d="M55.7114 22.7007C55.0615 21.8304 55.7984 20.3218 55.9492 19.8809C55.9028 20.0085 55.8506 20.1478 55.7926 20.3044C55.8158 20.2348 55.839 20.1594 55.8448 20.1478C55.8796 20.0549 55.9144 19.9621 55.9434 19.8809C55.897 20.0085 55.81 20.2 55.694 20.4263C55.694 20.4263 54.8643 21.9 54.2899 22.0624C53.0018 22.428 50.5011 21.343 51.4759 21.7259C54.7598 23.0024 53.7619 25.7003 53.466 26.5996C53.5124 26.4836 53.5646 26.3269 53.6284 26.1529C53.6168 26.1877 53.611 26.2109 53.6052 26.2341C53.553 26.3792 53.5066 26.501 53.466 26.6054C54.3073 24.5341 54.7888 23.2112 57.7421 24.0932C58.7226 24.3775 56.4656 23.716 55.7114 22.7007Z" fill="white"/>
</svg>
