<svg width="66" height="66" viewBox="0 0 66 66" fill="none" xmlns="http://www.w3.org/2000/svg">
<path d="M40.9218 24.2524C40.2616 24.2524 39.7288 24.7863 39.7288 25.4477V31.4396C39.7288 32.101 40.2616 32.6349 40.9218 32.6349C41.5819 32.6349 42.1148 32.101 42.1148 31.4396V25.4477C42.1148 24.7863 41.5819 24.2524 40.9218 24.2524Z" fill="#454545"/>
<path d="M35.4896 31.7266C34.9328 31.7266 34.4715 32.109 34.3363 32.619C34.1693 32.7066 33.8114 32.8262 33.3024 32.8262C32.7933 32.8262 32.4354 32.7066 32.2684 32.619C32.1332 32.109 31.6719 31.7266 31.1151 31.7266C30.455 31.7266 29.9221 32.2604 29.9221 32.9218C29.9221 34.2524 31.3458 35.2166 33.3024 35.2166C35.2589 35.2166 36.6826 34.2524 36.6826 32.9218C36.6826 32.2604 36.1418 31.7266 35.4896 31.7266Z" fill="#454545"/>
<path d="M59 26.2923C59 23.4955 57.1866 21.121 54.6733 20.2844C54.8721 18.141 54.4586 12.5394 46.4176 7.01754C46.4096 7.01754 46.4096 7.00957 46.4017 7.00957C46.3937 7.00957 46.3937 7.0016 46.3857 6.99364C45.8926 6.67491 34.2885 -0.655718 24.1478 5.36815C23.4319 5.59922 20.6403 6.6032 17.8088 9.25657C15.5898 11.3362 13.0288 14.7864 11.8039 20.1489C9.04405 20.8342 7 23.3202 7 26.2923C7 28.9537 8.64638 31.2325 10.9768 32.1728C10.9608 41.6548 12.0266 47.1767 17.7372 49.9097V54.2364V56.077H19.5745H25.134H25.2135H26.9712H27.0508H28.6415H30.4787V55.9734V54.2284V51.7583V50.2284V50.0531L30.5424 50.2284L31.7354 53.575L32.1887 54.8419L32.5864 55.9654L32.6262 56.069H33.9226H35.6247H36.9211L36.9608 55.9654L37.3585 54.8419L39.1799 49.7583V51.5193V53.575V54.2204V55.9654V56.069H41.0171H47.022H48.8593V54.2284V52.8977V51.0571H48.4139V50.7463V49.5033H48.7082V49.2165C49.4797 48.8181 50.1955 48.3798 50.8397 47.9017C53.0905 46.2045 54.387 44.0611 54.6972 41.5273C54.8085 40.603 54.9119 39.7982 55.0073 39.0731C55.4448 35.6628 55.6357 34.0851 55.58 31.9178C57.6081 30.858 59 28.7385 59 26.2923ZM52.3191 19.8222C42.2102 21.3441 38.2414 17.2964 37.0801 15.6709C40.1979 12.1888 44.1429 10.0773 45.6143 9.36812C51.9214 13.9099 52.4065 18.1728 52.3191 19.8222ZM11.0006 29.4636C10.0303 28.7465 9.38605 27.5911 9.38605 26.2923C9.38605 24.8581 10.1655 23.6071 11.3108 22.9139C11.8994 22.5553 12.5834 22.3402 13.323 22.3402C13.5616 22.3402 13.7048 22.3641 13.7923 22.38C13.8002 22.38 13.8162 22.38 13.8162 22.388C13.84 22.6668 13.7287 23.2804 13.6491 23.7505C13.6253 23.878 13.6014 24.0214 13.5775 24.1648C13.4742 24.7943 13.3628 25.5274 13.3628 26.3003C13.3628 26.6668 13.3867 27.0174 13.4264 27.36C13.4821 27.9019 13.5696 28.4118 13.6491 28.8501C13.7287 29.3122 13.84 29.9337 13.8162 30.2126C13.7366 30.2285 13.5935 30.2525 13.3708 30.2525C13.3548 30.2525 13.3469 30.2525 13.323 30.2525C12.4561 30.2365 11.6608 29.9417 11.0006 29.4636ZM25.134 53.583V54.2284H22.4457H19.5824V50.6268V48.093V46.3878H21.1731V48.6109V51.081V52.8977H22.5173H24.9192H25.1419V53.583H25.134ZM25.2135 44.4834V46.0532V46.3241V51.0571H25.134H23.0104V49.0252V46.3878V44.5472H21.1731H19.5824H17.7372V46.3878V47.1527C14.1582 44.8261 13.3548 40.5313 13.3548 32.6269C14.4286 32.619 15.1842 32.3401 15.6773 31.7505C16.4408 30.8421 16.2261 29.6628 16.0113 28.4118C15.892 27.7266 15.7648 27.0174 15.7648 26.2843C15.7648 25.5513 15.892 24.8421 16.0113 24.1569C16.234 22.9059 16.4408 21.7266 15.6773 20.8183C15.3432 20.4198 14.874 20.1728 14.2695 20.0453C16.8146 10.0295 24.5613 7.71873 24.9431 7.61515C25.0465 7.58327 25.1499 7.54343 25.2453 7.48766C31.8786 3.47175 39.6014 6.2526 43.1407 7.94981C40.1979 9.56732 34.9804 13.0414 32.2285 18.5234C31.1071 20.7625 28.6097 22.1091 25.9691 23.5354C21.9526 25.7027 17.1805 28.2843 16.6794 34.9217C16.6715 35.0253 16.6635 35.1369 16.6635 35.2484C16.5681 37.0731 16.7749 39.1847 17.4111 41.6787C17.5463 42.2205 18.0315 42.5791 18.5644 42.5791C18.6598 42.5791 18.7632 42.5711 18.8587 42.5392C19.495 42.3799 19.8847 41.7265 19.7177 41.089C19.5347 40.3639 19.3995 39.6946 19.2882 39.0412C21.5231 41.4396 24.3386 43.2245 27.4405 44.2285C27.3053 44.3081 27.186 44.4038 27.0587 44.4834H27.0428H25.2135V44.4834ZM28.6415 54.2364H27.0508V53.591V47.5751V46.3241H28.6415V54.2364ZM36.8972 50.6826L35.8633 53.583L35.6326 54.2284H33.9306L33.6999 53.583L32.5307 50.3001L31.6559 47.8858L31.0991 46.3161H32.825L33.3659 47.9017L34.1771 50.2683L34.8214 52.1647L35.4656 50.2125L36.2768 47.7503L36.7541 46.3081H37.446H38.4482L36.8972 50.6826ZM34.3998 45.2324C34.4316 45.2324 34.4714 45.2404 34.5032 45.2404C34.7339 45.2404 34.9566 45.2563 35.1713 45.2643L35.0122 45.7344L34.7975 46.3878L34.5668 45.7105L34.3998 45.2324ZM33.2943 42.7703C27.5359 42.7703 22.1276 39.7424 19.0734 34.858C19.4234 31.2485 21.3402 29.2007 23.7739 27.5752V31.4397C23.7739 32.101 24.3068 32.6349 24.967 32.6349C25.6271 32.6349 26.16 32.101 26.16 31.4397V26.1569C26.4702 25.9895 26.7883 25.8142 27.0985 25.6469C29.9459 24.1091 32.8887 22.5234 34.3521 19.6071C34.7021 18.9059 35.1077 18.2366 35.5451 17.5991C37.2551 19.6708 41.3591 23.0095 49.7819 22.4995C49.7819 23.0254 49.8773 23.5911 49.9807 24.1648C50.0046 24.2844 50.0205 24.4039 50.0444 24.5234V25.9816C50.0523 35.2405 42.5363 42.7703 33.2943 42.7703ZM47.0141 54.2364H44.127H41.0092V53.591V49.8221V46.332H41.8602H46.863V47.4635V47.6707H46.3778H42.6953H42.5999V49.4236H46.5607V50.1647V50.7543H44.7632H42.5919V52.9057H44.0633H46.9982V54.2364H47.0141ZM52.6372 38.7703C52.5418 39.4954 52.4384 40.3082 52.327 41.2325C52.0964 43.1209 51.134 44.6826 49.4001 45.9894C49.1774 46.1567 48.9468 46.3161 48.7002 46.4675V46.3161V44.4755H46.863H41.0569H41.0092H39.9832C39.8162 44.356 39.6571 44.2285 39.4821 44.1249C44.9859 42.2364 49.3683 37.9018 51.3249 32.4277C51.7066 32.5632 52.1441 32.6349 52.669 32.6349C52.844 32.6349 53.019 32.619 53.1939 32.611C53.2019 34.348 53.011 35.846 52.6372 38.7703ZM55.3971 29.129C54.7846 29.7186 53.9813 30.1011 53.0906 30.1967C52.9474 30.2126 52.8122 30.2365 52.6611 30.2365C52.4065 30.2365 52.2475 30.2126 52.1679 30.1887C52.1441 29.9098 52.2554 29.2963 52.335 28.8262C52.4622 28.117 52.6213 27.2246 52.6213 26.2764C52.6213 25.5672 52.5338 24.8979 52.4384 24.3003V23.4477V22.3322C52.502 22.3242 52.5736 22.3242 52.6611 22.3242C53.4405 22.3242 54.1722 22.5633 54.7846 22.9537C55.8743 23.6549 56.606 24.882 56.606 26.2764C56.614 27.4078 56.1447 28.4118 55.3971 29.129Z" fill="#454545"/>
</svg>
