<?xml version="1.0" standalone="no"?>
<!DOCTYPE svg PUBLIC "-//W3C//DTD SVG 20010904//EN"
 "http://www.w3.org/TR/2001/REC-SVG-20010904/DTD/svg10.dtd">
<svg version="1.0" xmlns="http://www.w3.org/2000/svg"
 width="1600.000000pt" height="1600.000000pt" viewBox="0 0 1600.000000 1600.000000"
 preserveAspectRatio="xMidYMid meet">

<g transform="translate(0.000000,1600.000000) scale(0.100000,-0.100000)"
fill="#000000" stroke="none">
<path d="M4605 13490 c-340 -28 -698 -145 -990 -323 -161 -98 -291 -201 -436
-346 -356 -356 -557 -751 -652 -1276 l-22 -120 0 -3425 0 -3425 22 -120 c95
-525 296 -920 652 -1276 356 -356 750 -557 1276 -652 l120 -22 3425 0 3425 0
120 22 c412 74 727 208 1040 442 128 96 350 318 446 446 233 312 368 629 442
1040 l22 120 0 3425 0 3425 -22 120 c-95 525 -296 920 -652 1276 -355 354
-744 554 -1271 652 l-115 21 -3370 2 c-1853 1 -3410 -2 -3460 -6z m6857 -1018
c519 -120 896 -498 1010 -1015 l23 -102 0 -3355 0 -3355 -23 -102 c-115 -519
-496 -900 -1015 -1015 l-102 -23 -3355 0 -3355 0 -102 23 c-517 114 -895 491
-1015 1010 l-23 97 -3 3290 c-2 2276 0 3322 8 3395 19 194 70 356 162 516 208
364 570 605 980 653 40 5 1567 8 3393 7 l3320 -1 97 -23z"/>
<path d="M7700 11384 c-19 -2 -89 -9 -155 -15 -484 -44 -1010 -195 -1447 -414
-672 -337 -1183 -829 -1473 -1420 -127 -259 -199 -484 -241 -760 -22 -147 -25
-492 -5 -635 82 -594 348 -1117 796 -1565 532 -532 1270 -894 2100 -1030 317
-52 437 -118 466 -254 16 -79 6 -224 -31 -441 -35 -204 -40 -282 -20 -330 38
-91 185 -78 413 36 285 143 900 533 1347 854 783 562 1315 1048 1666 1522 298
403 469 825 514 1267 134 1341 -870 2588 -2440 3032 -215 61 -430 103 -680
135 -118 14 -720 28 -810 18z m-1743 -2118 c21 -14 47 -40 58 -58 19 -32 20
-58 25 -693 l5 -660 300 -5 c293 -5 301 -6 332 -28 98 -70 117 -187 46 -281
-53 -69 -61 -71 -508 -71 -396 0 -401 0 -445 23 -26 13 -57 40 -75 65 l-30 44
0 783 0 783 30 44 c62 89 174 112 262 54z m1280 0 c22 -15 49 -44 61 -65 l22
-39 0 -777 0 -777 -22 -39 c-83 -149 -302 -120 -347 46 -16 57 -15 1499 0
1546 42 125 179 175 286 105z m628 15 c22 -10 52 -31 66 -47 14 -16 188 -249
385 -519 l359 -489 5 464 c5 460 5 465 28 507 34 65 91 98 167 98 76 0 133
-33 167 -98 l23 -42 0 -770 0 -770 -25 -45 c-33 -59 -114 -104 -177 -97 -93
10 -91 8 -498 561 l-380 517 -5 -473 c-5 -513 -4 -501 -62 -555 -95 -89 -244
-58 -299 62 -18 38 -19 82 -19 798 0 819 -1 797 53 856 30 32 94 61 137 61 19
0 53 -9 75 -19z m2476 -16 c54 -38 83 -94 83 -160 0 -61 -23 -105 -77 -149
l-39 -31 -301 -5 -302 -5 -3 -167 -2 -166 292 -4 293 -3 45 -27 c126 -73 126
-253 0 -326 l-45 -27 -293 -3 -292 -3 2 -167 3 -167 295 -5 c324 -5 330 -7
383 -70 25 -29 47 -86 47 -120 0 -67 -50 -142 -115 -171 -37 -17 -73 -19 -440
-19 -367 0 -403 2 -440 19 -51 23 -91 70 -105 121 -7 27 -10 288 -8 797 l3
758 23 37 c26 41 68 75 110 88 15 5 210 8 434 7 l406 -2 43 -30z"/>
</g>
</svg>
