<svg width="47" height="40" viewBox="0 0 47 40" fill="none" xmlns="http://www.w3.org/2000/svg">
<path d="M14.0373 19.3847C13.5767 17.6864 11.8028 16.662 10.0976 17.102C9.43067 17.2739 8.85312 17.6452 8.41996 18.1677C7.78741 17.9202 7.09984 17.879 6.43291 18.0509C4.71401 18.4978 3.66892 20.2442 4.09521 21.9287C4.2396 22.685 5.06467 25.2359 9.63694 26.4528C9.77445 26.4872 9.91884 26.5285 10.0632 26.556L10.627 26.6797L11.0602 26.2947C11.1702 26.1916 11.2802 26.0953 11.3765 25.9991C11.4521 25.9234 11.5277 25.8478 11.6034 25.7722C14.7524 22.6094 14.2642 20.0792 14.0373 19.3847ZM12.4009 19.8385L12.4147 19.8798C12.5316 20.2304 12.9647 22.1212 10.2007 24.7752C10.187 24.7889 10.1664 24.8027 10.1526 24.8233L10.0839 24.8096C6.38478 23.8264 5.83473 21.9356 5.7591 21.5574C5.55283 20.7392 6.04788 19.9073 6.8592 19.6941C6.98984 19.6597 7.1136 19.646 7.24423 19.646C7.58114 19.646 7.91117 19.756 8.19307 19.976L9.06627 20.6567L9.50631 19.6391C9.69195 19.1922 10.0701 18.8691 10.5308 18.7453C11.3421 18.5321 12.1809 19.0272 12.4009 19.8385Z" fill="#454545"/>
<path d="M42.2957 16.3565C41.3881 15.8133 40.3499 15.607 39.3186 15.7446C38.9473 14.782 38.2735 13.9638 37.359 13.4206C35.1657 12.1211 32.3192 12.8362 31.0335 14.9676C30.4009 15.8958 28.5926 19.4024 32.0854 25.4942C32.1886 25.6798 32.3054 25.8654 32.4223 26.058L32.8142 26.6836L33.5568 26.7318C33.7768 26.7455 33.9968 26.7524 34.21 26.7593C34.375 26.7661 34.5331 26.7662 34.6913 26.7662C41.2712 26.773 43.4233 23.6928 43.9458 22.6889C45.211 20.4887 44.4753 17.656 42.2957 16.3565ZM34.2512 24.6966C34.1687 24.6966 34.0862 24.6897 34.0037 24.6897C33.9625 24.621 33.9212 24.5453 33.88 24.4766C30.9097 19.2992 32.4086 16.6246 32.773 16.0883C33.5018 14.8782 35.0901 14.4726 36.307 15.2014C37.0015 15.6139 37.4553 16.3152 37.5515 17.1266L37.7097 18.4604L38.961 17.9585C39.7173 17.656 40.5493 17.7179 41.2437 18.1304C42.4607 18.8523 42.8732 20.4406 42.1513 21.6645L42.1238 21.7195C41.8557 22.2351 40.2261 24.841 34.2512 24.6966Z" fill="#454545"/>
<path d="M23.7526 4.09726C22.3844 4.34478 21.1811 5.03234 20.2804 6.04993C19.0841 5.4105 17.709 5.19048 16.3476 5.438C13.061 6.03618 10.8471 9.19895 11.4178 12.4099C11.5897 13.8744 12.8204 18.9004 21.518 21.9257C21.7862 22.022 22.0543 22.1113 22.3362 22.1938L23.2644 22.4757L24.0414 21.8844C24.2752 21.7057 24.4952 21.5269 24.7083 21.3481C24.8733 21.2106 25.0315 21.0731 25.1896 20.9425C31.7077 15.2839 31.192 10.3816 30.8413 8.93768C30.195 5.67177 27.0254 3.50596 23.7526 4.09726ZM22.9619 19.2717C22.8794 19.3405 22.7969 19.4092 22.7144 19.478C22.6113 19.4436 22.5081 19.4092 22.405 19.3748C15.0068 16.8034 14.1886 12.8637 14.0855 12.0248C13.7692 10.1959 14.9931 8.43576 16.822 8.10573C17.8602 7.92009 18.9122 8.22262 19.7098 8.94456L21.0161 10.134L21.8206 8.5664C22.3087 7.61757 23.1888 6.95751 24.227 6.77187C26.0559 6.44184 27.823 7.65882 28.1667 9.48773L28.1805 9.56336C28.373 10.2991 29.0056 14.2731 22.9619 19.2717Z" fill="#454545"/>
<mask id="path-4-outside-1_2895_10314" maskUnits="userSpaceOnUse" x="1" y="28" width="45" height="10" fill="black">
<rect fill="white" x="1" y="28" width="45" height="10"/>
<path d="M2 36.8935V29.1065H6.37149V30.4639H3.39591V32.3194H6.08135V33.6768H3.39591V36.8935H2Z"/>
<path d="M7.62394 36.8935H6.12809L8.40733 29.1065H10.2062L12.4822 36.8935H10.9864L9.33256 30.8859H9.28098L7.62394 36.8935ZM7.53045 33.8327H11.0637V35.1179H7.53045V33.8327Z"/>
<path d="M13.6452 29.1065L15.241 35.0228H15.3023L16.9013 29.1065H18.4487L16.1727 36.8935H14.3738L12.0946 29.1065H13.6452Z"/>
<path d="M24.9382 33C24.9382 33.8492 24.8017 34.5716 24.5288 35.1673C24.258 35.763 23.8883 36.218 23.4198 36.5323C22.9534 36.8441 22.429 37 21.8466 37C21.2599 37 20.7333 36.8428 20.2669 36.5285C19.8005 36.2142 19.432 35.7592 19.1612 35.1635C18.8904 34.5678 18.755 33.8466 18.755 33C18.755 32.1508 18.8904 31.4284 19.1612 30.8327C19.432 30.237 19.8005 29.7833 20.2669 29.4715C20.7333 29.1572 21.2599 29 21.8466 29C22.429 29 22.9534 29.1572 23.4198 29.4715C23.8883 29.7833 24.258 30.237 24.5288 30.8327C24.8017 31.4284 24.9382 32.1508 24.9382 33ZM23.523 33C23.523 32.4499 23.4531 31.9861 23.3134 31.6084C23.1759 31.2307 22.9814 30.9442 22.7299 30.749C22.4785 30.5539 22.184 30.4563 21.8466 30.4563C21.5092 30.4563 21.2147 30.5539 20.9633 30.749C20.7118 30.9442 20.5162 31.2307 20.3765 31.6084C20.239 31.9861 20.1702 32.4499 20.1702 33C20.1702 33.5501 20.239 34.0139 20.3765 34.3916C20.5162 34.7693 20.7118 35.0558 20.9633 35.251C21.2147 35.4461 21.5092 35.5437 21.8466 35.5437C22.184 35.5437 22.4785 35.4461 22.7299 35.251C22.9814 35.0558 23.1759 34.7693 23.3134 34.3916C23.4531 34.0139 23.523 33.5501 23.523 33Z"/>
<path d="M25.9723 36.8935V29.1065H28.5771C29.0757 29.1065 29.5013 29.2117 29.8537 29.4221C30.2084 29.6299 30.4781 29.9252 30.6629 30.308C30.8499 30.6882 30.9434 31.1356 30.9434 31.6502C30.9434 32.1673 30.8488 32.6122 30.6597 32.9848C30.4706 33.3549 30.1965 33.6388 29.8376 33.8365C29.4808 34.0342 29.0489 34.1331 28.5416 34.1331H26.7976V32.8099H28.316C28.5825 32.8099 28.8038 32.7668 28.9801 32.6806C29.1563 32.5944 29.2874 32.4651 29.3734 32.2928C29.4615 32.1204 29.5056 31.9062 29.5056 31.6502C29.5056 31.3916 29.4615 31.1736 29.3734 30.9962C29.2874 30.8188 29.1552 30.6844 28.9769 30.5932C28.8006 30.4994 28.5782 30.4525 28.3095 30.4525H27.3682V36.8935H25.9723ZM29.5378 33.3498L31.1787 36.8935H29.6377L28.0323 33.3498H29.5378Z"/>
<path d="M33.3258 29.1065V36.8935H31.9299V29.1065H33.3258Z"/>
<path d="M34.2228 30.4639V29.1065H39.6453V30.4639H37.6239V36.8935H36.2441V30.4639H34.2228Z"/>
<path d="M40.5382 36.8935V29.1065H44.9871V30.4639H41.9342V32.3194H44.7582V33.6768H41.9342V35.5361H45V36.8935H40.5382Z"/>
</mask>
<path d="M2 36.8935V29.1065H6.37149V30.4639H3.39591V32.3194H6.08135V33.6768H3.39591V36.8935H2Z" stroke="#454545" stroke-width="2" mask="url(#path-4-outside-1_2895_10314)"/>
<path d="M7.62394 36.8935H6.12809L8.40733 29.1065H10.2062L12.4822 36.8935H10.9864L9.33256 30.8859H9.28098L7.62394 36.8935ZM7.53045 33.8327H11.0637V35.1179H7.53045V33.8327Z" stroke="#454545" stroke-width="2" mask="url(#path-4-outside-1_2895_10314)"/>
<path d="M13.6452 29.1065L15.241 35.0228H15.3023L16.9013 29.1065H18.4487L16.1727 36.8935H14.3738L12.0946 29.1065H13.6452Z" stroke="#454545" stroke-width="2" mask="url(#path-4-outside-1_2895_10314)"/>
<path d="M24.9382 33C24.9382 33.8492 24.8017 34.5716 24.5288 35.1673C24.258 35.763 23.8883 36.218 23.4198 36.5323C22.9534 36.8441 22.429 37 21.8466 37C21.2599 37 20.7333 36.8428 20.2669 36.5285C19.8005 36.2142 19.432 35.7592 19.1612 35.1635C18.8904 34.5678 18.755 33.8466 18.755 33C18.755 32.1508 18.8904 31.4284 19.1612 30.8327C19.432 30.237 19.8005 29.7833 20.2669 29.4715C20.7333 29.1572 21.2599 29 21.8466 29C22.429 29 22.9534 29.1572 23.4198 29.4715C23.8883 29.7833 24.258 30.237 24.5288 30.8327C24.8017 31.4284 24.9382 32.1508 24.9382 33ZM23.523 33C23.523 32.4499 23.4531 31.9861 23.3134 31.6084C23.1759 31.2307 22.9814 30.9442 22.7299 30.749C22.4785 30.5539 22.184 30.4563 21.8466 30.4563C21.5092 30.4563 21.2147 30.5539 20.9633 30.749C20.7118 30.9442 20.5162 31.2307 20.3765 31.6084C20.239 31.9861 20.1702 32.4499 20.1702 33C20.1702 33.5501 20.239 34.0139 20.3765 34.3916C20.5162 34.7693 20.7118 35.0558 20.9633 35.251C21.2147 35.4461 21.5092 35.5437 21.8466 35.5437C22.184 35.5437 22.4785 35.4461 22.7299 35.251C22.9814 35.0558 23.1759 34.7693 23.3134 34.3916C23.4531 34.0139 23.523 33.5501 23.523 33Z" stroke="#454545" stroke-width="2" mask="url(#path-4-outside-1_2895_10314)"/>
<path d="M25.9723 36.8935V29.1065H28.5771C29.0757 29.1065 29.5013 29.2117 29.8537 29.4221C30.2084 29.6299 30.4781 29.9252 30.6629 30.308C30.8499 30.6882 30.9434 31.1356 30.9434 31.6502C30.9434 32.1673 30.8488 32.6122 30.6597 32.9848C30.4706 33.3549 30.1965 33.6388 29.8376 33.8365C29.4808 34.0342 29.0489 34.1331 28.5416 34.1331H26.7976V32.8099H28.316C28.5825 32.8099 28.8038 32.7668 28.9801 32.6806C29.1563 32.5944 29.2874 32.4651 29.3734 32.2928C29.4615 32.1204 29.5056 31.9062 29.5056 31.6502C29.5056 31.3916 29.4615 31.1736 29.3734 30.9962C29.2874 30.8188 29.1552 30.6844 28.9769 30.5932C28.8006 30.4994 28.5782 30.4525 28.3095 30.4525H27.3682V36.8935H25.9723ZM29.5378 33.3498L31.1787 36.8935H29.6377L28.0323 33.3498H29.5378Z" stroke="#454545" stroke-width="2" mask="url(#path-4-outside-1_2895_10314)"/>
<path d="M33.3258 29.1065V36.8935H31.9299V29.1065H33.3258Z" stroke="#454545" stroke-width="2" mask="url(#path-4-outside-1_2895_10314)"/>
<path d="M34.2228 30.4639V29.1065H39.6453V30.4639H37.6239V36.8935H36.2441V30.4639H34.2228Z" stroke="#454545" stroke-width="2" mask="url(#path-4-outside-1_2895_10314)"/>
<path d="M40.5382 36.8935V29.1065H44.9871V30.4639H41.9342V32.3194H44.7582V33.6768H41.9342V35.5361H45V36.8935H40.5382Z" stroke="#454545" stroke-width="2" mask="url(#path-4-outside-1_2895_10314)"/>
</svg>
