<svg width="47" height="40" viewBox="0 0 47 40" fill="none" xmlns="http://www.w3.org/2000/svg">
<path fill-rule="evenodd" clip-rule="evenodd" d="M33.2406 27.5299C33.3431 27.1384 33.3979 26.7286 33.3985 26.3069V10.9955C33.3985 8.23975 31.0841 6 28.2454 6H16.1531C13.3104 6 11 8.23975 11 10.9955V26.3069C11 26.7286 11.0543 27.1384 11.1564 27.5299H12.807C12.6584 27.1493 12.5771 26.7371 12.5771 26.3069V10.9955C12.5771 9.08444 14.1818 7.52884 16.1531 7.52884H28.2454C30.2167 7.52884 31.8214 9.08444 31.8214 10.9955V26.3069C31.8214 26.7371 31.7401 27.1493 31.5916 27.5299H33.2406Z" fill="#454545"/>
<path d="M33.3946 23.6543H11V11.0222H33.3946V23.6543ZM12.5771 22.1254H31.8175V12.5511H12.5771V22.1254Z" fill="#454545"/>
<path d="M19.5162 23.6543H11V11.0222H19.5162V23.6543ZM12.5771 22.1254H17.9392V12.5511H12.5771V22.1254Z" fill="#454545"/>
<path d="M33.3947 23.6543H24.8784V11.0222H33.3947V23.6543ZM26.4555 22.1254H31.8176V12.5511H26.4555V22.1254Z" fill="#454545"/>
<path d="M26.4555 23.6543H17.9392V11.0222H26.4555V23.6543ZM19.5163 22.1254H24.8784V12.5511H19.5163V22.1254Z" fill="#454545"/>
<path d="M12.9595 15.4291C12.9595 15.3182 13.0541 15.2265 13.1645 15.2265C13.2788 15.2265 13.3695 15.3182 13.3695 15.4291V15.559L13.543 15.4367C14.0358 15.0851 14.4577 14.8787 14.8875 14.8711C15.3251 14.8634 15.743 15.066 16.2083 15.5361L16.2832 15.6125L16.8352 15.0813L16.847 15.0736C16.9258 14.9895 17.056 14.9895 17.1348 15.0736L17.4147 15.3488V15.3526C17.4897 15.4253 17.4975 15.5476 17.4226 15.6317C17.1821 15.903 16.9456 16.2012 16.7248 16.5107C16.4882 16.8433 16.2674 17.1796 16.0821 17.5045C15.8929 17.8256 15.7627 18.2192 15.6839 18.632C15.605 19.0639 15.5853 19.5188 15.6287 19.9277C15.6326 19.943 15.6326 19.9506 15.6326 19.9621C15.6326 20.0768 15.538 20.1685 15.4276 20.1685H13.8032H13.7874C13.677 20.1609 13.5903 20.0615 13.5982 19.9506C13.6179 19.6907 13.6613 19.3926 13.7362 19.1174C13.7953 18.8805 13.8821 18.6588 13.9885 18.4868C14.2724 18.0319 14.6233 17.6344 14.9781 17.2408C15.0728 17.1376 15.1635 17.0306 15.2581 16.9235C14.8323 17.0191 14.3355 17.0994 14.1305 16.9656C14.0358 16.9044 13.9373 16.8738 13.8348 16.87H13.8269C13.7007 16.8624 13.5745 16.8891 13.4444 16.9388L13.4326 16.9426L13.3695 16.9694V17.0841C13.3695 17.1987 13.2749 17.2866 13.1645 17.2866C13.0541 17.2866 12.9595 17.1949 12.9595 17.0841V15.4291Z" fill="#454545"/>
<path d="M19.9224 15.4291C19.9224 15.3182 20.017 15.2265 20.1274 15.2265C20.2417 15.2265 20.3324 15.3182 20.3324 15.4291V15.559L20.5059 15.4367C20.9987 15.0851 21.4206 14.8787 21.8504 14.8711C22.288 14.8634 22.7059 15.066 23.1712 15.5361L23.2461 15.6125L23.7981 15.0813L23.8099 15.0736C23.8887 14.9895 24.0188 14.9895 24.0977 15.0736L24.3776 15.3488V15.3526C24.4525 15.4253 24.4604 15.5476 24.3855 15.6317C24.145 15.903 23.9085 16.2012 23.6877 16.5107C23.4511 16.8433 23.2303 17.1796 23.045 17.5045C22.8557 17.8256 22.7256 18.2192 22.6468 18.632C22.5679 19.0639 22.5482 19.5188 22.5916 19.9277C22.5955 19.943 22.5955 19.9506 22.5955 19.9621C22.5955 20.0768 22.5009 20.1685 22.3905 20.1685H20.77H20.7543C20.6439 20.1609 20.5571 20.0615 20.565 19.9506C20.5847 19.6907 20.6281 19.3926 20.703 19.1174C20.7622 18.8805 20.8489 18.6588 20.9554 18.4868C21.2392 18.0319 21.5901 17.6344 21.945 17.2408C22.0396 17.1376 22.1303 17.0306 22.2249 16.9235C21.7991 17.0191 21.3023 17.0994 21.0973 16.9656C21.0027 16.9044 20.9041 16.8738 20.8016 16.87H20.7976C20.6715 16.8624 20.5453 16.8891 20.4152 16.9388L20.4034 16.9426L20.3363 16.9694V17.0841C20.3363 17.1987 20.2417 17.2866 20.1313 17.2866C20.0209 17.2866 19.9263 17.1949 19.9263 17.0841V15.4291H19.9224Z" fill="#454545"/>
<path d="M26.8813 15.4291C26.8813 15.3182 26.976 15.2265 27.0864 15.2265C27.2007 15.2265 27.2914 15.3182 27.2914 15.4291V15.559L27.4649 15.4367C27.9577 15.0851 28.3796 14.8787 28.8093 14.8711C29.247 14.8634 29.6649 15.066 30.1301 15.5361L30.2051 15.6125L30.757 15.0813L30.7689 15.0736C30.8477 14.9895 30.9778 14.9895 31.0567 15.0736L31.3366 15.3488V15.3526C31.4115 15.4253 31.4194 15.5476 31.3445 15.6317C31.104 15.903 30.8674 16.2012 30.6466 16.5107C30.4101 16.8433 30.1893 17.1796 30.004 17.5045C29.8147 17.8256 29.6846 18.2192 29.6058 18.632C29.5269 19.0639 29.5072 19.5188 29.5506 19.9277C29.5545 19.943 29.5545 19.9506 29.5545 19.9621C29.5545 20.0768 29.4599 20.1685 29.3495 20.1685H27.729H27.7133C27.6029 20.1609 27.5161 20.0615 27.524 19.9506C27.5437 19.6907 27.5871 19.3926 27.662 19.1174C27.7211 18.8805 27.8079 18.6588 27.9143 18.4868C28.1982 18.0319 28.5491 17.6344 28.904 17.2408C28.9986 17.1376 29.0893 17.0306 29.1839 16.9235C28.7581 17.0191 28.2613 17.0994 28.0563 16.9656C27.9617 16.9044 27.8631 16.8738 27.7606 16.87H27.7566C27.6305 16.8624 27.5043 16.8891 27.3742 16.9388L27.3624 16.9426L27.2953 16.9694V17.0841C27.2953 17.1987 27.2007 17.2866 27.0903 17.2866C26.9799 17.2866 26.8853 17.1949 26.8853 17.0841V15.4291H26.8813Z" fill="#454545"/>
<path d="M37.9956 24.9652H32.606V23.4364H36.4185V16.7629H37.9956V24.9652Z" fill="#454545"/>
<path d="M37.2072 17.3594C35.1136 17.3594 33.4143 15.7082 33.4143 13.6825C33.4143 11.6568 35.1176 10.0056 37.2072 10.0056C39.2968 10.0056 41.0001 11.6568 41.0001 13.6825C41.0001 15.7082 39.3008 17.3594 37.2072 17.3594ZM37.2072 11.5306C35.9849 11.5306 34.9914 12.4938 34.9914 13.6787C34.9914 14.8635 35.9849 15.8267 37.2072 15.8267C38.4294 15.8267 39.423 14.8635 39.423 13.6787C39.423 12.4938 38.4294 11.5306 37.2072 11.5306Z" fill="#454545"/>
<path d="M22.3539 30.949H18.7217V34.2658H22.3539V30.949ZM21.2686 33.205H19.807V32.0098H21.2686V33.205Z" fill="#454545"/>
<path d="M30.6169 30.2983L29.5171 29.9801L29.3073 30.8429C29.2422 30.7297 29.1698 30.6095 29.1047 30.4963L28.5837 29.6548L27.6865 30.0932L26.9919 30.4327L26.7531 30.0579L25.8487 30.5458L24.9298 31.0409L24.6621 31.1823V28.8273H16.4931V30.1781L16.0734 29.7538L15.3282 28.99L14.894 28.5444L14.279 28.6929H8.8089V31.9108H11.7465C11.4861 32.229 11.2256 32.5048 10.9506 32.7382C10.3428 33.2545 9.50351 33.7425 8.44712 34.188L7 34.8033L8.10704 35.8995C8.33135 36.1258 8.51947 36.3733 8.64971 36.6491L9.12726 37.6109L10.1113 37.13C10.8927 36.7481 11.5874 36.345 12.1807 35.9136C12.5063 35.6802 12.8391 35.4185 13.1647 35.1286C13.6423 35.6519 14.1126 36.2389 14.5684 36.8825L15.2269 37.816L16.1385 37.1088L16.4931 36.833V36.8754H19.8142V36.3804H21.2758V36.7764H24.6693V35.2488L25.5159 36.3309C25.6823 36.543 25.8053 36.7693 25.8921 37.0169L26.2249 37.9999L27.2379 37.6958C28.6416 37.2714 29.7342 36.6632 30.4867 35.8853C31.2898 35.0508 31.9483 33.7637 32.5054 31.9461L32.8166 30.9277L31.7746 30.6307L30.6242 30.2983H30.6169ZM15.4584 36.2884C14.7348 35.2559 13.9751 34.3719 13.1864 33.6364C12.6293 34.2021 12.0794 34.676 11.5295 35.072C10.9796 35.4681 10.3501 35.8358 9.61928 36.1894C9.43116 35.8146 9.18515 35.4681 8.87402 35.164C10.0317 34.6689 10.9579 34.1314 11.6525 33.5374C12.1662 33.0989 12.651 32.5473 13.0996 31.8683C13.2732 31.6067 13.4758 31.2672 13.7219 30.85H9.89423V29.7538H14.402L14.5395 29.7184L15.2847 30.4822C14.8578 31.2248 14.3803 31.9886 13.8593 32.7665C14.8 33.6152 15.661 34.5275 16.4352 35.5176L15.4512 36.2814L15.4584 36.2884ZM15.263 32.6109C15.6103 32.0664 15.9359 31.5289 16.2398 31.0055L16.4931 30.56V33.9122C16.1024 33.4666 15.6899 33.0282 15.263 32.6109ZM23.584 35.7227H22.3611V35.3266H18.7289V35.8217H17.5784V29.8881H23.584V35.7227ZM28.1785 31.048C28.4969 31.5642 28.7791 32.0946 29.0251 32.6392L28.0772 33.106C27.8529 32.5402 27.5925 31.9956 27.2958 31.4794L28.1785 31.048ZM24.6693 35.0084V32.7453C24.937 33.1625 25.183 33.5939 25.4001 34.0324L25.7546 34.7467L24.6693 35.0084ZM25.4652 31.9744L26.3841 31.4794C26.7242 32.0098 27.0281 32.5402 27.303 33.0706L26.3841 33.5656C26.1092 33.0211 25.8053 32.4907 25.4652 31.9744ZM29.7053 35.1569C29.083 35.8004 28.1568 36.3096 26.9268 36.6845C26.8038 36.3309 26.6229 35.9985 26.3841 35.6873C27.1004 35.5176 27.6865 35.2983 28.1424 35.0296C28.7502 34.676 29.2349 34.1385 29.5895 33.4242C29.8717 32.8514 30.1177 32.1512 30.3203 31.3167L31.4707 31.6491C30.9715 33.2898 30.3854 34.4638 29.7053 35.164V35.1569Z" fill="#454545"/>
<path d="M40.0231 31.9675C39.0246 31.4512 37.9899 30.9844 36.9335 30.5813V28H33.54V37.4837H36.9335V34.1245C37.4183 34.3579 37.8886 34.6124 38.3445 34.8812L39.2996 35.4399L39.8422 34.4922L40.45 33.4314L40.9927 32.4837L40.0086 31.9745L40.0231 31.9675ZM38.9016 33.9618C37.9248 33.389 36.9118 32.8939 35.8482 32.4696V36.4158H34.6254V29.0608H35.8482V31.3168C37.1072 31.7624 38.33 32.2928 39.5094 32.9081L38.9016 33.9689V33.9618Z" fill="#454545"/>
</svg>
