<svg width="26" height="26" viewBox="0 0 26 26" fill="none" xmlns="http://www.w3.org/2000/svg">
<path d="M9.775 16.0238L9.65 10.9048H12.15C12.8333 10.9048 13.375 10.746 13.775 10.4286C14.175 10.0952 14.375 9.65873 14.375 9.11905C14.375 8.56349 14.1667 8.12699 13.75 7.80952C13.35 7.49206 12.8083 7.33333 12.125 7.33333H8V4H11.875C13.1583 4 14.2667 4.21429 15.2 4.64286C16.1333 5.05556 16.85 5.64286 17.35 6.40476C17.8667 7.16667 18.125 8.07143 18.125 9.11905C18.125 10.119 17.9083 10.9921 17.475 11.7381C17.0417 12.4841 16.4333 13.0714 15.65 13.5C14.8667 13.9127 13.95 14.119 12.9 14.119V16.0238H9.775ZM10.975 21.5C10.4083 21.5 9.95 21.3492 9.6 21.0476C9.26667 20.7302 9.1 20.3254 9.1 19.8333C9.1 19.3254 9.26667 18.9206 9.6 18.6191C9.95 18.3175 10.4083 18.1667 10.975 18.1667H11.725C12.2917 18.1667 12.7417 18.3175 13.075 18.6191C13.425 18.9206 13.6 19.3254 13.6 19.8333C13.6 20.3413 13.425 20.746 13.075 21.0476C12.7417 21.3492 12.2833 21.5 11.7 21.5H10.975Z" fill="black"/>
</svg>
