<svg width="66" height="66" viewBox="0 0 66 66" fill="none" xmlns="http://www.w3.org/2000/svg">
<path d="M38.7175 54.3164H18.0197C13.1524 54.3164 9.19647 50.4815 9.19647 45.7696V19.5533C9.19647 14.8349 13.1524 11 18.0197 11H38.7242C43.5847 11 47.5474 14.8349 47.5474 19.5533V45.7696C47.5407 50.4815 43.5847 54.3164 38.7175 54.3164ZM18.0197 13.6177C14.6443 13.6177 11.8968 16.2812 11.8968 19.5533V45.7696C11.8968 49.0417 14.6443 51.7052 18.0197 51.7052H38.7242C42.0996 51.7052 44.8471 49.0417 44.8471 45.7696V19.5533C44.8471 16.2812 42.0996 13.6177 38.7242 13.6177H18.0197Z" fill="#454545"/>
<path d="M47.5407 41.2279H9.19647V19.5991H47.5407V41.2279ZM11.8968 38.6102H44.8404V22.2168H11.8968V38.6102Z" fill="#454545"/>
<path d="M23.7781 41.2279H9.19647V19.5991H23.7781V41.2279ZM11.8968 38.6102H21.0778V22.2168H11.8968V38.6102Z" fill="#454545"/>
<path d="M47.5407 41.2279H32.959V19.5991H47.5407V41.2279V41.2279ZM35.6594 38.6102H44.8404V22.2168H35.6594V38.6102Z" fill="#454545"/>
<path d="M35.6594 41.2279H21.0778V19.5991H35.6594V41.2279ZM23.7781 38.6102H32.9591V22.2168H23.7781V38.6102Z" fill="#454545"/>
<path d="M12.5516 27.1445C12.5516 26.9548 12.7136 26.7977 12.9026 26.7977C13.0984 26.7977 13.2537 26.9548 13.2537 27.1445V27.367L13.5507 27.1576C14.3945 26.5556 15.1169 26.2022 15.8527 26.1891C16.602 26.176 17.3176 26.5228 18.1142 27.3278L18.2425 27.4587L19.1876 26.549L19.2078 26.5359C19.3428 26.3919 19.5656 26.3919 19.7006 26.5359L20.1799 27.0071V27.0137C20.3082 27.138 20.3217 27.3474 20.1934 27.4914C19.7816 27.956 19.3766 28.4665 18.9986 28.9966C18.5935 29.5659 18.2155 30.1418 17.8982 30.6981C17.5741 31.2478 17.3514 31.9219 17.2164 32.6286C17.0813 33.3681 17.0476 34.1469 17.1218 34.8471C17.1286 34.8733 17.1286 34.8864 17.1286 34.906C17.1286 35.1024 16.9666 35.2594 16.7776 35.2594H13.9962H13.9692C13.7802 35.2463 13.6317 35.0762 13.6452 34.8864C13.679 34.4414 13.7532 33.9309 13.8815 33.4598C13.9827 33.054 14.1313 32.6744 14.3135 32.38C14.7996 31.6012 15.4004 30.9206 16.008 30.2465C16.17 30.0698 16.3252 29.8866 16.4873 29.7033C15.7582 29.867 14.9076 30.0044 14.5566 29.7753C14.3945 29.6706 14.2258 29.6183 14.0502 29.6117H14.0367C13.8207 29.5986 13.6047 29.6444 13.3819 29.7295L13.3617 29.7361L13.2537 29.7819V29.9782C13.2537 30.1745 13.0916 30.3251 12.9026 30.3251C12.7136 30.3251 12.5516 30.168 12.5516 29.9782V27.1445V27.1445Z" fill="#454545"/>
<path d="M24.4734 27.1445C24.4734 26.9548 24.6354 26.7977 24.8244 26.7977C25.0202 26.7977 25.1755 26.9548 25.1755 27.1445V27.367L25.4725 27.1576C26.3163 26.5556 27.0387 26.2022 27.7745 26.1891C28.5238 26.176 29.2394 26.5228 30.036 27.3278L30.1643 27.4587L31.1094 26.549L31.1296 26.5359C31.2647 26.3919 31.4874 26.3919 31.6224 26.5359L32.1017 27.0071V27.0137C32.23 27.138 32.2435 27.3474 32.1153 27.4914C31.7035 27.956 31.2984 28.4665 30.9204 28.9966C30.5153 29.5659 30.1373 30.1418 29.82 30.6981C29.496 31.2478 29.2732 31.9219 29.1382 32.6286C29.0031 33.3681 28.9694 34.1469 29.0437 34.8471C29.0504 34.8733 29.0504 34.8864 29.0504 34.906C29.0504 35.1024 28.8884 35.2594 28.6994 35.2594H25.9248H25.8978C25.7088 35.2463 25.5603 35.0762 25.5738 34.8864C25.6075 34.4414 25.6818 33.9309 25.81 33.4598C25.9113 33.054 26.0598 32.6744 26.2421 32.38C26.7281 31.6012 27.329 30.9206 27.9365 30.2465C28.0985 30.0698 28.2538 29.8866 28.4158 29.7033C27.6868 29.867 26.8362 30.0044 26.4851 29.7753C26.3231 29.6706 26.1543 29.6183 25.9788 29.6117H25.9721C25.756 29.5986 25.54 29.6444 25.3172 29.7295L25.297 29.7361L25.1822 29.7819V29.9782C25.1822 30.1745 25.0202 30.3251 24.8312 30.3251C24.6422 30.3251 24.4801 30.168 24.4801 29.9782V27.1445H24.4734Z" fill="#454545"/>
<path d="M36.3885 27.1445C36.3885 26.9548 36.5505 26.7977 36.7395 26.7977C36.9353 26.7977 37.0906 26.9548 37.0906 27.1445V27.367L37.3876 27.1576C38.2314 26.5556 38.9538 26.2022 39.6896 26.1891C40.4389 26.176 41.1545 26.5228 41.9511 27.3278L42.0794 27.4587L43.0245 26.549L43.0447 26.5359C43.1798 26.3919 43.4025 26.3919 43.5375 26.5359L44.0168 27.0071V27.0137C44.1451 27.138 44.1586 27.3474 44.0303 27.4914C43.6186 27.956 43.2135 28.4665 42.8355 28.9966C42.4304 29.5659 42.0524 30.1418 41.7351 30.6981C41.4111 31.2478 41.1883 31.9219 41.0533 32.6286C40.9182 33.3681 40.8845 34.1469 40.9588 34.8471C40.9655 34.8733 40.9655 34.8864 40.9655 34.906C40.9655 35.1024 40.8035 35.2594 40.6145 35.2594H37.8399H37.8129C37.6239 35.2463 37.4754 35.0762 37.4889 34.8864C37.5226 34.4414 37.5969 33.9309 37.7251 33.4598C37.8264 33.054 37.9749 32.6744 38.1572 32.38C38.6432 31.6012 39.2441 30.9206 39.8516 30.2465C40.0136 30.0698 40.1689 29.8866 40.3309 29.7033C39.6019 29.867 38.7513 30.0044 38.4002 29.7753C38.2382 29.6706 38.0694 29.6183 37.8939 29.6117H37.8872C37.6711 29.5986 37.4551 29.6444 37.2323 29.7295L37.2121 29.7361L37.0973 29.7819V29.9782C37.0973 30.1745 36.9353 30.3251 36.7463 30.3251C36.5573 30.3251 36.3952 30.168 36.3952 29.9782V27.1445H36.3885Z" fill="#454545"/>
<path d="M55.4188 43.4726H46.1906V40.8549H52.7185V29.4286H55.4188V43.4726Z" fill="#454545"/>
<path d="M54.0687 30.4495C50.484 30.4495 47.5745 27.6224 47.5745 24.154C47.5745 20.6855 50.4908 17.8584 54.0687 17.8584C57.6465 17.8584 60.5629 20.6855 60.5629 24.154C60.5629 27.6224 57.6533 30.4495 54.0687 30.4495ZM54.0687 20.4696C51.9759 20.4696 50.2748 22.1187 50.2748 24.1474C50.2748 26.1761 51.9759 27.8253 54.0687 27.8253C56.1614 27.8253 57.8626 26.1761 57.8626 24.1474C57.8626 22.1187 56.1614 20.4696 54.0687 20.4696Z" fill="#454545"/>
</svg>
