<svg width="26" height="26" viewBox="0 0 26 26" fill="none" xmlns="http://www.w3.org/2000/svg">
<path d="M12.89 4C7.98 4 4 7.98 4 12.89C4 17.8 7.98 21.78 12.89 21.78C17.8 21.78 21.78 17.8 21.78 12.89C21.78 7.98 17.81 4 12.89 4ZM12.89 19.79C9.09 19.79 6 16.7 6 12.89C6 9.08 9.09 6 12.89 6C16.69 6 19.78 9.09 19.78 12.89C19.78 16.69 16.7 19.79 12.89 19.79Z" fill="black"/>
<path d="M13.1104 9.73C13.3504 9.61 13.6104 9.59 13.9004 9.67C14.3704 9.79 14.6804 10.16 14.8304 10.77L15.9404 10.49C15.8204 10.03 15.6604 9.66 15.4704 9.4C15.2704 9.14 14.9904 8.92 14.6204 8.76L14.8804 7.79L14.0104 7.56L13.7504 8.52C13.4604 8.52 13.2004 8.55 12.9604 8.62C12.7104 8.68 12.5004 8.78 12.3104 8.91C12.1204 9.04 11.9604 9.2 11.8304 9.38C11.7004 9.57 11.6004 9.78 11.5404 10.01C11.4104 10.51 11.4504 10.99 11.6804 11.43C11.8204 11.72 12.1704 12.1 12.7304 12.56C13.0004 12.79 13.2204 12.99 13.3904 13.16C13.5604 13.33 13.6804 13.48 13.7604 13.61C13.9104 13.86 13.9404 14.15 13.8504 14.48C13.7504 14.85 13.5504 15.11 13.2504 15.28C12.9404 15.45 12.6104 15.49 12.2504 15.39C11.8704 15.29 11.6004 15.11 11.4304 14.84C11.2704 14.57 11.1904 14.16 11.1704 13.62L10.0204 13.56C9.99045 14.31 10.1004 14.91 10.3504 15.34C10.6004 15.77 11.0404 16.13 11.6504 16.4L11.3804 17.4L12.2504 17.63L12.5204 16.6C13.1204 16.6 13.6404 16.43 14.0904 16.09C14.5404 15.75 14.8404 15.3 14.9904 14.74C15.1404 14.17 15.0804 13.63 14.8204 13.13C14.7304 12.95 14.5704 12.74 14.3504 12.51C14.1304 12.28 13.8504 12.02 13.5004 11.73C13.1004 11.4 12.8404 11.14 12.7304 10.95C12.6204 10.75 12.5904 10.54 12.6504 10.3C12.7204 10.04 12.8704 9.85 13.1104 9.73Z" fill="black"/>
</svg>
