<svg width="26" height="26" viewBox="0 0 26 26" fill="none" xmlns="http://www.w3.org/2000/svg">
<path d="M17.5398 14.4721C18.626 13.321 19.2294 11.8077 19.2294 10.2202C19.2294 6.79443 16.4443 4 13.0093 4C9.57427 4 6.78912 6.78515 6.78912 10.2202C6.78912 11.8077 7.40186 13.321 8.47878 14.4721C6.9748 15.5027 6.04642 17.2109 6 19.0491L6.00928 19.6247H6.07427C6.3435 20.7851 7.37401 21.6393 8.59947 21.6393H17.4191C18.7931 21.6393 19.9257 20.5623 20 19.1698V19.0398C19.9721 17.2016 19.0345 15.5027 17.5398 14.4721ZM17.4284 20.061H8.60875C8.07029 20.061 7.61538 19.6247 7.6061 19.1048C7.63395 17.5265 8.5809 16.0782 10.0292 15.4284C10.2613 15.3263 10.5027 15.2427 10.7533 15.1777L11.9416 14.8899L10.8647 14.3143C10.6419 14.1936 10.4284 14.0637 10.2149 13.8873C9.04509 12.996 8.37666 11.6592 8.37666 10.2202C8.37666 7.66711 10.4562 5.58753 13.0093 5.58753C15.5623 5.58753 17.6419 7.66711 17.6419 10.2202C17.6419 11.6684 16.9828 13.0053 15.8223 13.8966C15.5995 14.0637 15.3952 14.2029 15.1724 14.3236L14.0955 14.8992L15.2838 15.187C15.5345 15.252 15.7851 15.3355 16.008 15.4377C17.4562 16.0968 18.4032 17.5358 18.431 19.0955C18.4125 19.6154 17.9668 20.061 17.4284 20.061Z" fill="black"/>
</svg>
