<svg width="26" height="26" viewBox="0 0 26 26" fill="none" xmlns="http://www.w3.org/2000/svg">
<path d="M13.5 12.5C12.9876 12.5 12.4866 12.6496 12.0606 12.9298C11.6345 13.21 11.3024 13.6082 11.1063 14.0742C10.9102 14.5401 10.8589 15.0528 10.9589 15.5475C11.0588 16.0421 11.3056 16.4965 11.668 16.8531C12.0303 17.2097 12.492 17.4526 12.9945 17.551C13.4971 17.6494 14.0181 17.5989 14.4915 17.4059C14.9649 17.2129 15.3696 16.886 15.6543 16.4667C15.939 16.0474 16.0909 15.5543 16.0909 15.05C16.0909 14.3737 15.8179 13.7251 15.332 13.2469C14.8462 12.7687 14.1872 12.5 13.5 12.5ZM13.5 15.9C13.3292 15.9 13.1622 15.8501 13.0202 15.7567C12.8782 15.6634 12.7675 15.5306 12.7021 15.3753C12.6367 15.22 12.6196 15.0491 12.653 14.8842C12.6863 14.7193 12.7685 14.5678 12.8893 14.449C13.0101 14.3301 13.164 14.2491 13.3315 14.2163C13.499 14.1835 13.6727 14.2004 13.8305 14.2647C13.9883 14.329 14.1232 14.438 14.2181 14.5778C14.313 14.7175 14.3636 14.8819 14.3636 15.05C14.3636 15.2754 14.2726 15.4916 14.1107 15.651C13.9487 15.8104 13.7291 15.9 13.5 15.9ZM12.8868 10.5535C12.969 10.6309 13.0658 10.6915 13.1718 10.732C13.2752 10.777 13.387 10.8002 13.5 10.8002C13.613 10.8002 13.7248 10.777 13.8282 10.732C13.9342 10.6915 14.031 10.6309 14.1132 10.5535L16.0909 8.641C16.2581 8.47643 16.3521 8.25323 16.3521 8.0205C16.3521 7.78777 16.2581 7.56457 16.0909 7.4C15.9237 7.23543 15.6969 7.14298 15.4605 7.14298C15.224 7.14298 14.9972 7.23543 14.83 7.4L14.3636 7.9015V4.85C14.3636 4.62457 14.2726 4.40837 14.1107 4.24896C13.9487 4.08955 13.7291 4 13.5 4C13.2709 4 13.0513 4.08955 12.8893 4.24896C12.7274 4.40837 12.6364 4.62457 12.6364 4.85V7.9015L12.17 7.4C12.0028 7.23543 11.776 7.14298 11.5395 7.14298C11.3031 7.14298 11.0763 7.23543 10.9091 7.4C10.7419 7.56457 10.6479 7.78777 10.6479 8.0205C10.6479 8.25323 10.7419 8.47643 10.9091 8.641L12.8868 10.5535ZM19.5455 15.05C19.5455 14.8819 19.4948 14.7175 19.3999 14.5778C19.305 14.438 19.1701 14.329 19.0123 14.2647C18.8545 14.2004 18.6809 14.1835 18.5133 14.2163C18.3458 14.2491 18.1919 14.3301 18.0711 14.449C17.9504 14.5678 17.8681 14.7193 17.8348 14.8842C17.8015 15.0491 17.8186 15.22 17.8839 15.3753C17.9493 15.5306 18.06 15.6634 18.202 15.7567C18.344 15.8501 18.511 15.9 18.6818 15.9C18.9109 15.9 19.1305 15.8104 19.2925 15.651C19.4545 15.4916 19.5455 15.2754 19.5455 15.05ZM20.4091 9.1H17.8182C17.5891 9.1 17.3695 9.18955 17.2075 9.34896C17.0455 9.50837 16.9545 9.72457 16.9545 9.95C16.9545 10.1754 17.0455 10.3916 17.2075 10.551C17.3695 10.7104 17.5891 10.8 17.8182 10.8H20.4091C20.6381 10.8 20.8578 10.8896 21.0198 11.049C21.1817 11.2084 21.2727 11.4246 21.2727 11.65V18.45C21.2727 18.6754 21.1817 18.8916 21.0198 19.051C20.8578 19.2104 20.6381 19.3 20.4091 19.3H6.59091C6.36186 19.3 6.14219 19.2104 5.98023 19.051C5.81826 18.8916 5.72727 18.6754 5.72727 18.45V11.65C5.72727 11.4246 5.81826 11.2084 5.98023 11.049C6.14219 10.8896 6.36186 10.8 6.59091 10.8H9.18182C9.41087 10.8 9.63054 10.7104 9.7925 10.551C9.95446 10.3916 10.0455 10.1754 10.0455 9.95C10.0455 9.72457 9.95446 9.50837 9.7925 9.34896C9.63054 9.18955 9.41087 9.1 9.18182 9.1H6.59091C5.90376 9.1 5.24475 9.36866 4.75886 9.84688C4.27297 10.3251 4 10.9737 4 11.65V18.45C4 19.1263 4.27297 19.7749 4.75886 20.2531C5.24475 20.7313 5.90376 21 6.59091 21H20.4091C21.0962 21 21.7553 20.7313 22.2411 20.2531C22.727 19.7749 23 19.1263 23 18.45V11.65C23 10.9737 22.727 10.3251 22.2411 9.84688C21.7553 9.36866 21.0962 9.1 20.4091 9.1ZM7.45455 15.05C7.45455 15.2181 7.5052 15.3825 7.60009 15.5222C7.69499 15.662 7.82987 15.771 7.98768 15.8353C8.14549 15.8996 8.31914 15.9165 8.48667 15.8837C8.6542 15.8509 8.80808 15.7699 8.92886 15.651C9.04965 15.5322 9.1319 15.3807 9.16522 15.2158C9.19855 15.0509 9.18144 14.88 9.11608 14.7247C9.05071 14.5694 8.94002 14.4367 8.79799 14.3433C8.65597 14.2499 8.48899 14.2 8.31818 14.2C8.08913 14.2 7.86946 14.2896 7.7075 14.449C7.54554 14.6084 7.45455 14.8246 7.45455 15.05Z" fill="#444444"/>
</svg>
