<svg width="45" height="45" viewBox="0 0 45 45" fill="none" xmlns="http://www.w3.org/2000/svg">
<path d="M12.0373 24.3847C11.5767 22.6864 9.80276 21.662 8.09761 22.102C7.43067 22.2739 6.85312 22.6452 6.41996 23.1677C5.78741 22.9202 5.09985 22.879 4.43291 23.0509C2.71401 23.4978 1.66892 25.2442 2.09521 26.9287C2.2396 27.685 3.06467 30.2359 7.63694 31.4528C7.77445 31.4872 7.91884 31.5285 8.06323 31.556L8.62703 31.6797L9.06019 31.2947C9.1702 31.1916 9.28021 31.0953 9.37647 30.9991C9.4521 30.9234 9.52773 30.8478 9.60336 30.7722C12.7524 27.6094 12.2642 25.0792 12.0373 24.3847ZM10.4009 24.8385L10.4147 24.8798C10.5316 25.2304 10.9647 27.1212 8.20074 29.7752C8.18699 29.7889 8.16636 29.8027 8.15261 29.8233L8.08386 29.8096C4.38478 28.8264 3.83473 26.9356 3.7591 26.5574C3.55283 25.7392 4.04788 24.9073 4.8592 24.6941C4.98984 24.6597 5.1136 24.646 5.24423 24.646C5.58114 24.646 5.91117 24.756 6.19307 24.976L7.06627 25.6567L7.50631 24.6391C7.69195 24.1922 8.0701 23.8691 8.53077 23.7453C9.34209 23.5321 10.1809 24.0272 10.4009 24.8385Z" fill="#454545"/>
<path d="M40.2957 21.3565C39.3881 20.8133 38.3499 20.607 37.3186 20.7446C36.9473 19.782 36.2735 18.9638 35.359 18.4206C33.1657 17.1211 30.3192 17.8362 29.0335 19.9676C28.4009 20.8958 26.5926 24.4024 30.0854 30.4942C30.1886 30.6798 30.3054 30.8654 30.4223 31.058L30.8142 31.6836L31.5568 31.7318C31.7768 31.7455 31.9968 31.7524 32.21 31.7593C32.375 31.7661 32.5331 31.7662 32.6913 31.7662C39.2712 31.773 41.4233 28.6928 41.9458 27.6889C43.211 25.4887 42.4753 22.656 40.2957 21.3565ZM32.2512 29.6966C32.1687 29.6966 32.0862 29.6897 32.0037 29.6897C31.9625 29.621 31.9212 29.5453 31.88 29.4766C28.9097 24.2992 30.4086 21.6246 30.773 21.0883C31.5018 19.8782 33.0901 19.4726 34.307 20.2014C35.0015 20.6139 35.4553 21.3152 35.5515 22.1266L35.7097 23.4604L36.961 22.9585C37.7173 22.656 38.5493 22.7179 39.2437 23.1304C40.4607 23.8523 40.8732 25.4406 40.1513 26.6645L40.1238 26.7195C39.8557 27.2351 38.2261 29.841 32.2512 29.6966Z" fill="#454545"/>
<path d="M21.7526 9.09726C20.3844 9.34478 19.1811 10.0323 18.2804 11.0499C17.0841 10.4105 15.709 10.1905 14.3476 10.438C11.061 11.0362 8.8471 14.199 9.41777 17.4099C9.58966 18.8744 10.8204 23.9004 19.518 26.9257C19.7862 27.022 20.0543 27.1113 20.3362 27.1938L21.2644 27.4757L22.0414 26.8844C22.2751 26.7057 22.4952 26.5269 22.7083 26.3481C22.8733 26.2106 23.0315 26.0731 23.1896 25.9425C29.7077 20.2839 29.192 15.3816 28.8413 13.9377C28.195 10.6718 25.0254 8.50596 21.7526 9.09726ZM20.9619 24.2717C20.8794 24.3405 20.7969 24.4092 20.7144 24.478C20.6113 24.4436 20.5081 24.4092 20.405 24.3748C13.0068 21.8034 12.1886 17.8637 12.0855 17.0248C11.7692 15.1959 12.9931 13.4358 14.822 13.1057C15.8602 12.9201 16.9122 13.2226 17.7098 13.9446L19.0161 15.134L19.8206 13.5664C20.3087 12.6176 21.1888 11.9575 22.227 11.7719C24.0559 11.4418 25.823 12.6588 26.1667 14.4877L26.1805 14.5634C26.373 15.2991 27.0056 19.2731 20.9619 24.2717Z" fill="#454545"/>
<mask id="path-4-outside-1_2894_10312" maskUnits="userSpaceOnUse" x="2" y="32" width="40" height="8" fill="black">
<rect fill="white" x="2" y="32" width="40" height="8"/>
<path d="M3 38.9202V33.0798H6.86318V34.0979H4.2336V35.4895H6.60677V36.5076H4.2336V38.9202H3Z"/>
<path d="M7.96999 38.9202H6.64808L8.66229 33.0798H10.252L12.2634 38.9202H10.9414L9.47994 34.4144H9.43435L7.96999 38.9202ZM7.88737 36.6245H11.0098V37.5884H7.88737V36.6245Z"/>
<path d="M13.2911 33.0798L14.7013 37.5171H14.7555L16.1686 33.0798H17.5361L15.5247 38.9202H13.935L11.9208 33.0798H13.2911Z"/>
<path d="M23.271 36C23.271 36.6369 23.1504 37.1787 22.9092 37.6255C22.6699 38.0722 22.3432 38.4135 21.9291 38.6492C21.517 38.8831 21.0536 39 20.5388 39C20.0203 39 19.555 38.8821 19.1429 38.6464C18.7307 38.4106 18.405 38.0694 18.1657 37.6226C17.9264 37.1759 17.8067 36.635 17.8067 36C17.8067 35.3631 17.9264 34.8213 18.1657 34.3745C18.405 33.9278 18.7307 33.5875 19.1429 33.3536C19.555 33.1179 20.0203 33 20.5388 33C21.0536 33 21.517 33.1179 21.9291 33.3536C22.3432 33.5875 22.6699 33.9278 22.9092 34.3745C23.1504 34.8213 23.271 35.3631 23.271 36ZM22.0203 36C22.0203 35.5875 21.9586 35.2395 21.8351 34.9563C21.7136 34.673 21.5417 34.4582 21.3195 34.3118C21.0972 34.1654 20.837 34.0922 20.5388 34.0922C20.2407 34.0922 19.9805 34.1654 19.7582 34.3118C19.536 34.4582 19.3632 34.673 19.2397 34.9563C19.1182 35.2395 19.0574 35.5875 19.0574 36C19.0574 36.4125 19.1182 36.7605 19.2397 37.0437C19.3632 37.327 19.536 37.5418 19.7582 37.6882C19.9805 37.8346 20.2407 37.9078 20.5388 37.9078C20.837 37.9078 21.0972 37.8346 21.3195 37.6882C21.5417 37.5418 21.7136 37.327 21.8351 37.0437C21.9586 36.7605 22.0203 36.4125 22.0203 36Z"/>
<path d="M24.1848 38.9202V33.0798H26.4867C26.9274 33.0798 27.3034 33.1587 27.6149 33.3165C27.9283 33.4724 28.1667 33.6939 28.33 33.981C28.4952 34.2662 28.5779 34.6017 28.5779 34.9876C28.5779 35.3755 28.4943 35.7091 28.3272 35.9886C28.16 36.2662 27.9179 36.4791 27.6007 36.6274C27.2854 36.7757 26.9036 36.8498 26.4554 36.8498H24.9141V35.8574H26.256C26.4915 35.8574 26.6871 35.8251 26.8429 35.7605C26.9986 35.6958 27.1145 35.5989 27.1904 35.4696C27.2683 35.3403 27.3072 35.1797 27.3072 34.9876C27.3072 34.7937 27.2683 34.6302 27.1904 34.4971C27.1145 34.3641 26.9977 34.2633 26.84 34.1949C26.6843 34.1245 26.4877 34.0894 26.2503 34.0894H25.4184V38.9202H24.1848ZM27.3357 36.2624L28.7858 38.9202H27.424L26.0053 36.2624H27.3357Z"/>
<path d="M30.6832 33.0798V38.9202H29.4496V33.0798H30.6832Z"/>
<path d="M31.476 34.0979V33.0798H36.2679V34.0979H34.4816V38.9202H33.2623V34.0979H31.476Z"/>
<path d="M37.0571 38.9202V33.0798H40.9886V34.0979H38.2907V35.4895H40.7863V36.5076H38.2907V37.9021H41V38.9202H37.0571Z"/>
</mask>
<path d="M3 38.9202V33.0798H6.86318V34.0979H4.2336V35.4895H6.60677V36.5076H4.2336V38.9202H3Z" stroke="#454545" stroke-width="2" mask="url(#path-4-outside-1_2894_10312)"/>
<path d="M7.96999 38.9202H6.64808L8.66229 33.0798H10.252L12.2634 38.9202H10.9414L9.47994 34.4144H9.43435L7.96999 38.9202ZM7.88737 36.6245H11.0098V37.5884H7.88737V36.6245Z" stroke="#454545" stroke-width="2" mask="url(#path-4-outside-1_2894_10312)"/>
<path d="M13.2911 33.0798L14.7013 37.5171H14.7555L16.1686 33.0798H17.5361L15.5247 38.9202H13.935L11.9208 33.0798H13.2911Z" stroke="#454545" stroke-width="2" mask="url(#path-4-outside-1_2894_10312)"/>
<path d="M23.271 36C23.271 36.6369 23.1504 37.1787 22.9092 37.6255C22.6699 38.0722 22.3432 38.4135 21.9291 38.6492C21.517 38.8831 21.0536 39 20.5388 39C20.0203 39 19.555 38.8821 19.1429 38.6464C18.7307 38.4106 18.405 38.0694 18.1657 37.6226C17.9264 37.1759 17.8067 36.635 17.8067 36C17.8067 35.3631 17.9264 34.8213 18.1657 34.3745C18.405 33.9278 18.7307 33.5875 19.1429 33.3536C19.555 33.1179 20.0203 33 20.5388 33C21.0536 33 21.517 33.1179 21.9291 33.3536C22.3432 33.5875 22.6699 33.9278 22.9092 34.3745C23.1504 34.8213 23.271 35.3631 23.271 36ZM22.0203 36C22.0203 35.5875 21.9586 35.2395 21.8351 34.9563C21.7136 34.673 21.5417 34.4582 21.3195 34.3118C21.0972 34.1654 20.837 34.0922 20.5388 34.0922C20.2407 34.0922 19.9805 34.1654 19.7582 34.3118C19.536 34.4582 19.3632 34.673 19.2397 34.9563C19.1182 35.2395 19.0574 35.5875 19.0574 36C19.0574 36.4125 19.1182 36.7605 19.2397 37.0437C19.3632 37.327 19.536 37.5418 19.7582 37.6882C19.9805 37.8346 20.2407 37.9078 20.5388 37.9078C20.837 37.9078 21.0972 37.8346 21.3195 37.6882C21.5417 37.5418 21.7136 37.327 21.8351 37.0437C21.9586 36.7605 22.0203 36.4125 22.0203 36Z" stroke="#454545" stroke-width="2" mask="url(#path-4-outside-1_2894_10312)"/>
<path d="M24.1848 38.9202V33.0798H26.4867C26.9274 33.0798 27.3034 33.1587 27.6149 33.3165C27.9283 33.4724 28.1667 33.6939 28.33 33.981C28.4952 34.2662 28.5779 34.6017 28.5779 34.9876C28.5779 35.3755 28.4943 35.7091 28.3272 35.9886C28.16 36.2662 27.9179 36.4791 27.6007 36.6274C27.2854 36.7757 26.9036 36.8498 26.4554 36.8498H24.9141V35.8574H26.256C26.4915 35.8574 26.6871 35.8251 26.8429 35.7605C26.9986 35.6958 27.1145 35.5989 27.1904 35.4696C27.2683 35.3403 27.3072 35.1797 27.3072 34.9876C27.3072 34.7937 27.2683 34.6302 27.1904 34.4971C27.1145 34.3641 26.9977 34.2633 26.84 34.1949C26.6843 34.1245 26.4877 34.0894 26.2503 34.0894H25.4184V38.9202H24.1848ZM27.3357 36.2624L28.7858 38.9202H27.424L26.0053 36.2624H27.3357Z" stroke="#454545" stroke-width="2" mask="url(#path-4-outside-1_2894_10312)"/>
<path d="M30.6832 33.0798V38.9202H29.4496V33.0798H30.6832Z" stroke="#454545" stroke-width="2" mask="url(#path-4-outside-1_2894_10312)"/>
<path d="M31.476 34.0979V33.0798H36.2679V34.0979H34.4816V38.9202H33.2623V34.0979H31.476Z" stroke="#454545" stroke-width="2" mask="url(#path-4-outside-1_2894_10312)"/>
<path d="M37.0571 38.9202V33.0798H40.9886V34.0979H38.2907V35.4895H40.7863V36.5076H38.2907V37.9021H41V38.9202H37.0571Z" stroke="#454545" stroke-width="2" mask="url(#path-4-outside-1_2894_10312)"/>
</svg>
