<svg width="45" height="45" viewBox="0 0 45 45" fill="none" xmlns="http://www.w3.org/2000/svg">
<g clip-path="url(#clip0_3184_10279)">
<path d="M36.8927 15.7155L32.4126 8.36909C32.2745 8.14157 32.0239 8 31.7529 8H12.2422C11.9711 8 11.7256 8.14157 11.5824 8.36909L7.10748 15.7155C6.92848 16.0138 6.97451 16.3931 7.21999 16.6408L21.4529 30.7725C21.5961 30.914 21.7904 30.9949 21.995 30.9949C22.1995 30.9949 22.3939 30.914 22.5371 30.7725L36.7699 16.6408C37.0205 16.3931 37.0666 16.0138 36.8825 15.7155H36.8927ZM20.338 10.2398L16.8705 15.1847L13.3213 9.51682H20.8494L20.3431 10.2398H20.338ZM16.487 16.6105L20.5323 27.7085L9.35773 16.6105H16.487ZM8.96905 15.5993L12.4007 9.97186L15.9295 15.6043H8.96905V15.5993ZM19.5299 13.1622L21.995 9.64322L24.46 13.1622L26.1682 15.5993H17.8218L19.5299 13.1622ZM23.1508 9.51682H30.6789L27.1296 15.1847L23.6622 10.2398L23.1559 9.51682H23.1508ZM26.4239 16.6105L22.0001 28.745L17.5763 16.6105H26.429H26.4239ZM28.0707 15.5993L31.5995 9.96681L35.0311 15.5993H28.0758H28.0707ZM34.6373 16.6105L23.4627 27.7085L27.5081 16.6105H34.6373Z" fill="#454545"/>
</g>
<path d="M7.55964 34.3347C7.33528 34.3347 7.229 34.4805 7.229 34.7791C7.229 35.0777 7.34118 35.2096 7.56554 35.2096C7.80171 35.2096 7.91979 35.0638 7.91979 34.7791C7.91979 34.4944 7.80171 34.3347 7.55964 34.3347Z" fill="#454545"/>
<path d="M10.4939 39.4727H13.4578V36.2231H10.4939V39.4797V39.4727ZM11.3795 37.2577H12.5722V38.4312H11.3795V37.2577Z" fill="#454545"/>
<path d="M29.9363 34.9736L29.151 34.2306L28.3185 33.4529L27.6514 32.8211L27.0964 33.5849C26.7716 34.0292 26.5119 34.3764 26.3111 34.6125C25.6085 35.4457 24.8233 36.154 23.9731 36.7095C23.6424 36.9317 23.1937 37.1677 22.6505 37.4246L22.2491 37.6121C22.1664 37.4177 22.0897 37.2233 22.007 37.0358L22.6387 36.2928L23.052 35.8068L23.6602 35.0916L23.0697 34.3556C22.7804 33.9945 22.4793 33.6682 22.1782 33.3766L21.5583 32.7933L20.9974 33.4529L20.7848 33.7029L20.4542 34.0709L20.4129 34.0015L19.7103 34.4459L18.9723 34.9111H18.9486L17.9804 34.5084L17.0416 34.1334L16.829 35.2721C16.7405 35.7443 16.6578 36.1193 16.5929 36.3762C16.3626 37.2649 16.0497 38.0565 15.66 38.7161C15.5774 38.855 15.4652 39.0147 15.3412 39.1883V34.1403H9.17135C9.05327 33.7237 8.82301 33.3627 8.48647 33.0919C8.20898 32.8766 7.90786 32.7725 7.59494 32.7725C7.1049 32.7725 6.66799 33.0016 6.33145 33.4321C6.14252 33.6682 6.01263 33.9459 5.93588 34.2376H1.38967V37.3622H4.96169C4.58382 38.0704 4.08787 38.612 3.46203 39.0147C3.18454 39.1883 2.78896 39.355 2.29301 39.5147L1 39.9243L1.82658 41.1603C1.98009 41.3964 2.10408 41.6533 2.18674 41.931L2.48194 42.9239L3.32033 42.5698C4.05245 42.2643 4.66648 41.9241 5.15653 41.57C6.00082 40.945 6.6857 40.1465 7.19346 39.1953C7.42372 38.7648 7.62446 38.3343 7.78388 37.9176C7.91377 37.5843 8.05547 37.1608 8.20898 36.6678C8.37429 36.5914 8.5219 36.4734 8.6636 36.3345V42.0491H11.3736V41.563H12.5662V41.9518H15.3353V41.2575C15.4652 41.4033 15.5892 41.563 15.6836 41.7297L16.3331 42.8337L17.0829 41.8199C17.5789 41.1464 17.9863 40.4798 18.2933 39.8202C18.5531 39.2716 18.8247 38.5078 19.1317 37.4941C19.3324 37.9246 19.5154 38.3412 19.6808 38.7439C19.9701 39.473 20.2476 40.2993 20.5014 41.2019L20.8084 42.2851L21.7 41.8199L22.6387 41.3339L23.4063 40.9381L23.3 40.6048L23.8432 40.334C24.2506 40.1326 24.6521 39.9035 25.0476 39.6466V42.5698H27.8167V37.3344C28.2831 36.8344 28.7495 36.3206 29.2042 35.7999L29.9304 34.9805L29.9363 34.9736ZM6.98091 37.4871C6.83331 37.8621 6.65618 38.2509 6.44363 38.6467C6.00673 39.4661 5.42221 40.1465 4.68419 40.6881C4.25319 41.0075 3.6982 41.3061 3.01922 41.5908C2.90114 41.2019 2.73582 40.8409 2.52327 40.5145C3.09007 40.334 3.53879 40.1396 3.88123 39.9243C4.74324 39.3758 5.41041 38.5842 5.88864 37.5496C6.01853 37.2719 6.16614 36.8553 6.34326 36.3137H2.2753V35.2721H6.62076L6.73294 35.2097L7.48276 35.9873C7.29974 36.6053 7.13442 37.1052 6.98682 37.4802L6.98091 37.4871ZM8.16765 35.4735C8.00824 35.6679 7.8193 35.7651 7.58904 35.7651C7.30564 35.7651 7.08719 35.6332 6.92777 35.3763C6.8156 35.1958 6.76246 34.9944 6.76246 34.7722C6.76246 34.55 6.83331 34.3278 6.98682 34.1403C7.15804 33.9251 7.36468 33.814 7.60085 33.814C7.74255 33.814 7.87244 33.8626 8.00233 33.9598C8.26802 34.1681 8.39791 34.4459 8.39791 34.793C8.39791 35.0638 8.32706 35.293 8.17355 35.4735H8.16765ZM14.4497 40.9103H13.4519V40.5215H10.488V41.0075H9.54922V35.1819H14.4497V40.3479L14.432 40.3687L14.4497 40.3826V40.9173V40.9103ZM17.5198 39.3133C17.2364 39.9104 16.8704 40.5145 16.4099 41.1325C16.2209 40.8062 15.9907 40.5145 15.7191 40.2507C16.0025 39.8896 16.2209 39.5771 16.3803 39.3133C16.8231 38.5564 17.1774 37.6816 17.4313 36.6817C17.5021 36.397 17.5907 36.0012 17.6852 35.5013L18.6534 35.8901C18.2224 37.4802 17.8446 38.6189 17.5198 39.3063V39.3133ZM21.6173 34.2028C21.8889 34.4597 22.1546 34.7514 22.4203 35.0847L22.007 35.5707C21.7472 35.2513 21.4815 34.9527 21.204 34.6889L21.6173 34.2028ZM20.9797 34.918C21.2513 35.1958 21.5169 35.5013 21.7826 35.8276L21.3693 36.3137C21.1273 35.9665 20.8616 35.654 20.5664 35.3694L20.9797 34.9111V34.918ZM21.3398 40.8756C21.0741 39.9313 20.7848 39.0703 20.4837 38.3065C20.1767 37.5357 19.7988 36.7233 19.3501 35.8623L20.1236 35.3763C20.5191 36.0637 20.8616 36.7303 21.1509 37.376C21.5347 38.244 21.9125 39.2439 22.2845 40.3895L21.3457 40.8756H21.3398ZM26.9311 36.8692V41.5213H25.9333V37.751C25.1539 38.4176 24.3391 38.9592 23.5007 39.3758C23.3709 39.0286 23.1937 38.7092 22.9753 38.3967C23.5539 38.1259 24.0321 37.8621 24.3982 37.626C25.3251 37.015 26.1694 36.2581 26.937 35.3485C27.1495 35.0916 27.427 34.7305 27.7635 34.2653L28.596 35.043C28.0469 35.6679 27.492 36.272 26.937 36.8622L26.9311 36.8692Z" fill="#454545"/>
<path d="M43.1203 36.3206H36.667L36.7024 36.2234L36.9622 35.9179L37.3755 35.4319L38.025 34.6681L37.3519 33.9321C37.0803 33.6335 36.791 33.3419 36.5017 33.0711L35.8818 32.4878L35.3327 33.1335L35.3032 33.1058L34.7423 33.7654L34.571 33.9668L33.8921 33.7099L32.9533 33.3488L32.2153 33.0641L31.8847 33.8904C31.737 34.2653 31.6072 34.55 31.5068 34.7444C31.1584 35.4319 30.757 35.9943 30.2964 36.4248C30.137 36.5706 29.9009 36.7442 29.6056 36.9386L28.5842 37.5983L29.3931 38.5773C29.5879 38.8064 29.7473 39.0564 29.8831 39.3133L30.0485 39.6258L28.8204 39.9868L29.7355 41.2645C29.9127 41.5075 30.0485 41.7713 30.1429 42.056L30.4677 43.0073L31.2824 42.6393C31.7902 42.4101 32.2153 42.1949 32.5459 42.0005C33.4965 41.445 34.2581 40.7992 34.8072 40.084C35.3976 39.3133 35.9762 38.1468 36.5903 36.522L36.6375 36.397V39.4591H44V36.3206H43.1144H43.1203ZM34.1518 39.3827C33.6795 40.0007 33.0123 40.5632 32.1562 41.0631C31.8551 41.2367 31.4596 41.438 30.9695 41.6602C30.8396 41.2783 30.6507 40.9173 30.4145 40.584C31.0522 40.3965 31.5953 40.1604 32.05 39.8827C32.416 39.6605 32.7762 39.3619 33.1304 38.9939C32.7703 38.619 32.3924 38.2509 31.9968 37.8899L32.5518 37.2094C32.971 37.5288 33.3784 37.8691 33.7681 38.2162C34.0633 37.7232 34.3467 37.1191 34.6242 36.397H32.8234C32.4633 36.9664 32.1031 37.4455 31.737 37.8274C31.4241 38.1607 31.0581 38.4731 30.6389 38.7717C30.4677 38.4523 30.2669 38.1468 30.0307 37.8621C30.3732 37.6399 30.6448 37.4386 30.8455 37.2511C31.3946 36.7442 31.8669 36.0915 32.2684 35.293C32.3865 35.0708 32.5223 34.7514 32.6876 34.3417L33.6264 34.7028C33.5437 34.9042 33.4374 35.1263 33.3194 35.3833H35.0611L35.1437 35.3485L35.7814 36.0984C35.2146 37.6121 34.6655 38.7092 34.1459 39.3827H34.1518ZM35.7873 35.7999C35.5393 35.4666 35.2914 35.168 35.0375 34.8903L35.3681 34.5014C35.6456 34.7653 35.9054 35.05 36.1415 35.3485L35.7814 35.8068L35.7873 35.7999ZM36.3423 35.1819C36.1002 34.8833 35.8463 34.5986 35.5688 34.3348L35.9585 33.8765C36.236 34.1404 36.5017 34.4112 36.7615 34.6889L36.3482 35.175L36.3423 35.1819ZM43.1203 38.4037H37.529V37.3622H43.1203V38.4037Z" fill="#454545"/>
<defs>
<clipPath id="clip0_3184_10279">
<rect width="30" height="23" fill="white" transform="translate(7 8)"/>
</clipPath>
</defs>
</svg>
