<svg width="26" height="26" viewBox="0 0 26 26" fill="none" xmlns="http://www.w3.org/2000/svg">
<path d="M17.8317 21.6726L17.8318 21.6736C17.8465 21.8165 17.9388 21.9402 18.0774 21.9891C18.1185 22.0039 18.1625 22.0112 18.2036 22.0112C18.2995 22.0112 18.3962 21.9745 18.4677 21.903L18.4677 21.9029L21.9918 18.3762L21.9918 18.3762L21.993 18.3749C22.0922 18.2721 22.1262 18.1209 22.078 17.9864C22.0292 17.8475 21.9054 17.755 21.7624 17.7403L21.7612 17.7402L19.3089 17.517L16.1996 9.66293L16.1997 9.66292L16.1989 9.66106C16.1512 9.54741 16.0516 9.46188 15.9286 9.43579C15.8057 9.40971 15.6787 9.44709 15.5893 9.53643L9.62792 15.4978C9.53858 15.5872 9.5012 15.7142 9.52728 15.8371C9.55295 15.9582 9.63738 16.0627 9.75468 16.1083C9.75483 16.1083 9.75498 16.1084 9.75513 16.1084L17.6059 19.2201L17.8317 21.6726ZM18.5043 20.8156L18.3305 18.9254L18.3305 18.9254L18.3303 18.9241C18.3156 18.7844 18.2268 18.6651 18.0964 18.613L18.0962 18.6129L10.5551 15.6242L15.7157 10.4636L18.7044 18.0047L18.7045 18.005C18.7558 18.1333 18.8742 18.2275 19.0176 18.239C19.0178 18.239 19.018 18.2391 19.0182 18.2391L20.907 18.4128L18.5043 20.8156Z" fill="black" stroke="black" stroke-width="0.2"/>
<path d="M3.47297 9.97003L3.47297 9.97003L3.47244 9.96986C3.35044 9.9305 3.21958 9.94999 3.1163 10.0253C3.00946 10.1007 2.95 10.2198 2.95 10.3464V13.1998C2.95 13.3979 3.10013 13.5682 3.29505 13.5922C3.2951 13.5922 3.29514 13.5922 3.29519 13.5922L8.8996 14.3018C8.92094 14.3059 8.9383 14.3059 8.95173 14.3059H8.95255C9.07137 14.3059 9.19011 14.2507 9.26572 14.1514C9.26579 14.1513 9.26585 14.1512 9.26592 14.1511L10.3075 12.8155C10.3075 12.8154 10.3076 12.8153 10.3076 12.8152C10.3875 12.7152 10.4107 12.5806 10.3753 12.4586C10.3396 12.3356 10.2444 12.2364 10.1213 12.1965C10.1212 12.1965 10.1211 12.1965 10.121 12.1964L3.47297 9.97003ZM9.3371 12.7745L8.77829 13.4894L3.74256 12.851V10.8973L9.3371 12.7745Z" fill="black" stroke="black" stroke-width="0.1"/>
<path d="M10.9944 3.43044L10.9944 3.4304C10.9559 3.32618 10.9752 3.20841 11.0478 3.11865C11.1202 3.02584 11.2338 2.975 11.3539 2.975H14.2685C14.4558 2.975 14.6203 3.10366 14.6435 3.27456L14.6435 3.2745L14.6187 3.27797L14.6435 3.27461L15.3686 8.44728L15.3686 8.44761C15.384 8.56884 15.3302 8.68974 15.2236 8.76205C15.2236 8.7621 15.2235 8.76215 15.2234 8.76219L13.859 9.72323C13.7938 9.775 13.7104 9.7985 13.6283 9.7985L10.9944 3.43044ZM10.9944 3.43044L13.2687 9.56464C13.2687 9.56469 13.2687 9.56473 13.2688 9.56478C13.3072 9.67234 13.4026 9.75425 13.5193 9.78487L10.9944 3.43044ZM13.8173 8.88444L11.8815 3.66401H13.9355L14.5883 8.34007L13.8173 8.88444Z" fill="black" stroke="black" stroke-width="0.05"/>
<path d="M11.3992 11.0356L11.3992 11.0357L11.4014 11.0365C11.4599 11.059 11.5203 11.0732 11.5862 11.0732C11.7172 11.0732 11.8432 11.0171 11.9319 10.9192L11.9323 10.9186C12.0678 10.7645 12.086 10.5497 11.9886 10.3735L11.9886 10.3735L11.9882 10.3727L8.431 4.18419C8.35567 4.04797 8.21084 3.95963 8.05683 3.9503L8.05683 3.95027L8.05523 3.95023C7.89453 3.94564 7.74913 4.01028 7.65511 4.13708C7.65506 4.13714 7.65502 4.1372 7.65497 4.13727L5.0362 7.60671L5.03611 7.60683C4.9502 7.72138 4.93307 7.87516 4.96495 8.00722C4.99784 8.14348 5.09608 8.26033 5.22718 8.3166C5.22725 8.31663 5.22733 8.31666 5.2274 8.3167L11.3992 11.0356ZM7.97721 5.26257L10.4703 9.60246L6.13834 7.69578L7.97721 5.26257Z" fill="black" stroke="black" stroke-width="0.1"/>
</svg>
