<svg width="81" height="68" viewBox="0 0 81 68" fill="none" xmlns="http://www.w3.org/2000/svg">
<path d="M8.34356 27.1731L3.06464 20.0896C2.0379 19.9496 1.12524 19.2651 0.731134 18.2228C0.181463 16.6827 0.954114 15.0025 2.43719 14.4425C2.94019 14.2506 3.46393 14.2092 3.96175 14.2921C4.17436 13.3743 4.81737 12.5757 5.75596 12.2127L5.813 12.192C6.72047 11.8705 7.69018 12.026 8.44208 12.5238C7.88723 10.963 8.64432 9.32434 10.1481 8.74874C10.8845 8.46872 11.709 8.49983 12.4194 8.82652C13.1298 9.15322 13.6691 9.73919 13.9388 10.4755H13.944C14.2292 9.70289 14.8307 9.0495 15.6552 8.73837C16.6197 8.39094 17.6205 8.55169 18.3776 9.08062C18.6991 8.63466 19.1503 8.27685 19.7 8.06425C20.4415 7.78422 21.2764 7.81534 21.9868 8.1524C22.7076 8.48946 23.2469 9.09617 23.501 9.85327C23.8536 10.8437 23.6203 11.9275 22.9772 12.7001L23.6721 21.4275L8.34356 27.1731ZM7.52942 19.1043L9.81626 22.169L19.2644 18.6273L18.9584 14.8159L17.3665 16.05L16.7649 15.2152L16.1997 16.1174L12.2379 14.2766L10.4489 18.3369L9.334 18.0102L9.42734 18.9902L7.52942 19.1043Z" fill="#040000"/>
<path d="M18.5952 14.1677L17.1433 12.1816C17.47 11.969 17.6204 11.5645 17.4855 11.186C17.3196 10.7452 16.8321 10.5326 16.3966 10.6882C15.9558 10.8541 15.7432 11.3415 15.8987 11.7771C15.9662 11.9431 16.0802 12.0727 16.2202 12.1712L14.8824 14.2869L13.1193 16.8175L10.1324 16.076L7.57071 15.3189C7.67442 15.1166 7.68998 14.8729 7.60701 14.6499C7.44107 14.2092 6.95363 13.9966 6.51804 14.1521C6.08764 14.3181 5.86466 14.8055 6.03059 15.2411C6.18616 15.6508 6.62175 15.853 7.03141 15.7441L7.26995 18.4095L7.43589 22.112L9.4064 22.7291L11.6777 20.8674L13.949 19.0058V18.9851L13.9593 19.0058L16.8996 18.9021L19.8398 18.7984L20.9132 17.0353L18.5952 14.1677Z" fill="#B06F20"/>
<path d="M11.1959 11.4921L15.2821 22.3403L9.09057 24.6634L3.56274 17.2584L8.79499 16.9421L11.1959 11.4921Z" fill="#EEDE80"/>
<path d="M11.1957 11.4921L15.2819 22.3403L21.4683 20.0068L20.7423 10.8076L16.6042 14.0071L11.1957 11.4921Z" fill="#E2CA55"/>
<path d="M3.44835 18.0255C3.91505 18.0463 4.30915 17.6833 4.32471 17.2166C4.34545 16.7499 3.98246 16.3609 3.51576 16.3402C3.04906 16.3195 2.65495 16.6824 2.6394 17.1492C2.61865 17.6159 2.98164 18.01 3.44835 18.0255Z" fill="#E2CA55"/>
<path d="M11.1648 12.3319C11.6315 12.3527 12.0256 11.9897 12.0411 11.523C12.0619 11.0563 11.6989 10.6673 11.2322 10.6466C10.7655 10.6259 10.3714 10.9888 10.3558 11.4555C10.3351 11.9222 10.6981 12.3112 11.1648 12.3319Z" fill="#E2CA55"/>
<path d="M20.706 11.6528C21.1727 11.6736 21.5668 11.3106 21.5824 10.8439C21.6031 10.3772 21.2402 9.98826 20.7735 9.96752C20.3068 9.94678 19.9127 10.3098 19.8971 10.7765C19.8815 11.238 20.2393 11.6321 20.706 11.6528Z" fill="#E2CA55"/>
<path d="M43.8387 40.6297C43.4394 50.1712 33.1305 57.0732 21.5822 57.711C7.04703 58.5096 0.97472 49.103 1.37401 39.5615C1.7733 30.02 11.4599 22.6928 23.029 23.1751C34.5876 23.6625 44.238 31.0935 43.8387 40.6297Z" fill="white"/>
<path d="M13.7154 57.3842C13.7154 57.3842 4.31397 54.3869 7.76756 45.7063C7.76756 45.7063 9.04321 43.5283 12.3568 43.0876C15.6704 42.652 17.3661 39.0273 17.3661 39.0273C17.3661 39.0273 18.0817 36.4967 20.4359 36.7975C22.7798 37.1034 22.7124 35.7604 22.7124 35.7604C22.7124 35.7604 23.2672 34.0854 25.1911 34.8062C27.1201 35.527 31.0456 35.9367 33.7317 33.9713C36.4179 32.006 39.9648 33.9454 39.9648 33.9454C39.9648 33.9454 47.4735 40.2562 39.9855 49.9118C39.9855 49.9118 44.6681 46.0122 45.1037 40.6192C45.5393 35.2262 44.0147 29.0087 33.8977 21.4793L30.9108 19.8095L26.3267 14.4528L22.8109 13.8202L21.1049 18.6635L19.6322 22.6668C19.6322 22.6668 16.6453 21.9356 14.3221 24.0721C11.999 26.2085 11.7034 25.4255 11.7034 25.4255C11.7034 25.4255 7.5394 22.3764 6.34672 22.2623C5.15922 22.1482 3.17315 21.863 3.17315 21.863L2.45235 32.7061C2.45235 32.7061 0.212183 43.4454 1.83008 47.5938C3.44798 51.7475 6.37783 56.7049 13.7154 57.3842Z" fill="#D3830F"/>
<path d="M16.5575 56.6272C16.6094 56.6272 16.6301 56.6324 16.6872 56.6947C16.9153 56.871 17.1902 57.1665 17.268 57.5399C17.3665 57.9133 17.242 58.38 16.5731 58.8363C16.5524 58.857 16.4383 58.9141 16.376 58.9089C15.033 58.8104 13.721 58.5822 12.4195 58.2503C10.3919 57.7214 8.40582 56.928 6.61161 55.7664C4.82777 54.5893 3.2358 53.0233 2.14164 51.1461C1.98608 50.9231 1.87199 50.6742 1.74754 50.4305C1.62308 50.1868 1.48826 49.9482 1.39492 49.6941C1.29121 49.4452 1.17713 49.2015 1.07341 48.9526L0.80895 48.1903C0.715609 47.9414 0.653382 47.6821 0.58597 47.4177C0.523743 47.1584 0.440774 46.8991 0.394104 46.6398L0.259279 45.862L0.22298 45.696V45.7168L0.233351 45.7375C0.233351 45.7479 0.233351 45.7375 0.233351 45.7272L0.197052 45.6131C0.181495 45.5301 0.155567 45.4264 0.134825 45.3538L0.103711 45.1153C0.0259279 44.5241 0.00518557 44.0004 0 43.4663L0 43.0773L0.0155567 42.6884C0.0155567 42.4291 0.0259279 42.175 0.0466702 41.9158C0.0985259 40.889 0.202237 39.8727 0.31632 38.8718L0.331877 38.7578L0.347433 38.6437C0.580784 36.7509 0.876362 34.8789 1.2238 33.0121L1.29121 32.6647L1.30158 32.6232V32.6025C1.30158 32.5921 1.30158 32.6025 1.30158 32.6025C1.30158 32.6128 1.30158 32.6025 1.30158 32.6025V32.5402V31.8195C1.30158 31.3476 1.31195 30.8653 1.32232 30.3882C1.35343 29.4341 1.40011 28.4799 1.4727 27.5154C1.5453 26.5509 1.66457 25.5916 1.82014 24.6271C1.86162 24.3833 1.90311 24.1448 1.95496 23.9011L2.11053 23.1751C2.16238 22.9314 2.23498 22.6877 2.30758 22.4439C2.33351 22.361 2.39574 22.0861 2.49426 21.8943L2.75873 21.2876L2.89355 20.9868L2.96096 20.8364L2.99726 20.7534C3.00763 20.7431 3.00763 20.7223 3.018 20.712L3.05949 20.7171C3.27728 20.6964 3.48471 20.6549 3.7025 20.6394C3.92029 20.6082 4.14327 20.629 4.38181 20.6394C4.49589 20.6445 4.60998 20.6497 4.72924 20.6757L5.01445 20.7171C5.55375 20.8105 6.06712 20.9557 6.55457 21.132C7.53983 21.469 8.43693 21.9202 9.29255 22.418L9.61406 22.6047L9.92519 22.8017C10.1378 22.9366 10.3452 23.0662 10.5475 23.1958L11.149 23.6107L11.4497 23.8181L11.7401 24.0359L11.7816 24.0566L12.2587 23.7766C12.4817 23.6625 12.6891 23.5381 12.9121 23.424C14.6596 22.5217 16.5316 21.7854 18.554 21.4483L19.2385 21.355L19.3059 20.9349C19.477 19.986 19.6844 19.037 19.9385 18.0932C20.1926 17.1495 20.5038 16.2057 20.9134 15.2619C21.1312 14.79 21.3646 14.3233 21.6809 13.8514C21.769 13.7322 21.8468 13.6233 21.9402 13.504L22.0076 13.4159C22.0387 13.3744 22.075 13.3381 22.1061 13.2966C22.1839 13.2084 22.2669 13.141 22.355 13.0477C22.4432 12.9699 22.5158 12.8817 22.6143 12.8091L22.8891 12.6173C23.0706 12.4824 23.2625 12.3528 23.4388 12.2284L23.4803 12.1972C23.4907 12.1869 23.5114 12.2076 23.5218 12.2076L23.6151 12.2439L23.7862 12.3217L24.1388 12.4824C24.3722 12.5862 24.6055 12.7054 24.8441 12.8195C25.0878 12.9543 25.3367 13.0788 25.5701 13.2188C26.0523 13.4884 26.5138 13.784 26.9754 14.09C27.888 14.6915 28.7644 15.3708 29.5785 16.1123C30.403 16.8487 31.1705 17.6525 31.8654 18.5236L32.3217 19.1304C32.3113 19.12 32.3217 19.1304 32.3217 19.1304L32.6639 19.3274C33.1358 19.6022 33.587 19.903 34.0381 20.1986C35.962 21.4846 37.7769 22.9262 39.4259 24.5596C41.0801 26.1827 42.5891 27.9925 43.8025 30.0304C44.4352 31.1038 44.9849 32.2499 45.4101 33.4425C45.6227 34.0389 45.8042 34.6508 45.9494 35.2782C46.0064 35.5894 46.0894 35.9005 46.1361 36.222L46.1983 36.6991C46.2242 36.8546 46.245 37.0206 46.2501 37.1865C46.3694 38.4777 46.3072 39.7689 46.0686 41.0342C45.9597 41.6669 45.7886 42.2891 45.6071 42.8958C45.5138 43.2018 45.3945 43.4922 45.2908 43.7981L45.2234 43.9693C44.9693 44.6382 44.653 45.2708 44.3263 45.9087C44.3263 45.9087 44.1966 46.1005 43.984 46.4272C43.7662 46.7487 43.4499 47.1843 43.0558 47.6718C42.6669 48.1488 42.2002 48.6726 41.7076 49.1704C41.2149 49.663 40.6808 50.1245 40.1778 50.5134C39.3481 51.1876 38.7466 51.5454 38.3681 51.7009C37.9895 51.8617 37.8391 51.8202 37.8547 51.6698C37.8858 51.3743 38.5599 50.5601 39.3222 49.5697C39.2185 49.6475 40.1882 48.5066 41.0075 47.231C41.4172 46.5983 41.7802 45.9346 42.0395 45.4316C42.1639 45.1775 42.2624 44.9701 42.335 44.8145C42.4024 44.6641 42.4387 44.5708 42.4387 44.5708L42.6202 44.2182L42.7914 43.8552C42.9054 43.6114 42.9988 43.3677 43.0973 43.1292L43.1543 42.9788C43.2477 42.7143 43.341 42.4603 43.424 42.1958C43.5796 41.6772 43.7248 41.1483 43.8181 40.609C44.0152 39.5356 44.0722 38.457 43.9737 37.3732C43.9685 37.2384 43.9426 37.1036 43.927 36.9687L43.87 36.5643C43.8285 36.2946 43.7559 36.0353 43.7092 35.7657C43.5848 35.2367 43.424 34.7026 43.2373 34.1841C42.8691 33.1418 42.3869 32.1306 41.8061 31.1713C40.7275 29.3459 39.3481 27.6814 37.8028 26.1672C36.2575 24.653 34.5463 23.284 32.7417 22.0758C32.3217 21.7906 31.8913 21.5261 31.4661 21.272L31.1549 21.0853L30.8127 20.8986C30.7816 20.8883 30.7608 20.8571 30.7453 20.8364L30.6882 20.7638L30.5586 20.6031L30.0711 19.9549C29.4541 19.1978 28.7748 18.4822 28.0384 17.8236C27.302 17.165 26.5138 16.5583 25.6841 16.0086C25.2745 15.7338 24.8545 15.4693 24.4189 15.2256C24.2063 15.1012 23.9885 14.9819 23.7759 14.8678C23.7759 14.8678 23.7759 14.8782 23.7655 14.8782L23.7447 14.9197C23.6929 14.9767 23.6358 15.0597 23.5788 15.1375C23.3714 15.4486 23.1795 15.8116 22.998 16.1953C22.6558 16.9732 22.3758 17.8132 22.1424 18.6792C21.9091 19.5452 21.7172 20.4319 21.5564 21.329L21.4994 21.6661L21.4475 21.972L21.3905 22.3091C21.349 22.5425 21.3283 22.781 21.2868 23.0143L21.2401 23.3722L21.2349 23.4551V23.4966C21.2349 23.507 21.2349 23.507 21.2246 23.507H21.2038L21.0275 23.5225L19.6118 23.6055H19.5704H19.5496C19.5496 23.6055 19.5185 23.6055 19.4978 23.6159L19.4563 23.6262L19.3733 23.6314L19.2177 23.6574L18.9066 23.6937C17.2265 23.9737 15.5412 24.6115 13.9648 25.4412C13.7625 25.5449 13.5758 25.6538 13.3736 25.7575L13.0884 25.9183L12.9173 26.022L12.6217 26.2035C12.4195 26.3279 12.2172 26.4628 12.0305 26.6028L11.735 26.805C11.7142 26.8257 11.6831 26.8413 11.6624 26.8517L11.5949 26.7998L11.4549 26.6909L10.366 25.8716L10.0963 25.6642L9.83185 25.4879L9.28218 25.1041C9.09031 24.9849 8.89845 24.8604 8.72214 24.7411L8.44212 24.5648L8.15172 24.3989C7.38944 23.9529 6.60124 23.564 5.79747 23.2944C5.40337 23.1544 5.00408 23.0455 4.61516 22.978L4.55293 22.9677L4.51145 23.0714C4.45959 23.284 4.39218 23.4862 4.3507 23.704L4.21069 24.347C4.1692 24.5596 4.1329 24.7878 4.09142 25.0108C3.95141 25.8975 3.84251 26.7998 3.75954 27.7125C3.69213 28.6251 3.64027 29.5378 3.61435 30.466C3.60397 30.9275 3.59879 31.3787 3.59879 31.8454V32.5247C3.59879 32.5558 3.59879 32.7114 3.59879 32.8151L3.54693 33.1003L3.47952 33.4477C3.14764 35.273 2.86244 37.1139 2.62909 38.9444L2.61353 39.0481L2.59797 39.1519C2.48389 40.1267 2.38536 41.0861 2.33351 42.0506C2.31277 42.2839 2.3024 42.5329 2.3024 42.7714L2.29202 43.1188L2.28684 43.4663C2.28684 43.9278 2.30758 44.3945 2.36462 44.7886L2.39055 44.9234C2.40092 44.9753 2.40611 44.9856 2.41648 45.0271C2.42685 45.0479 2.38018 44.9545 2.39574 44.9753L2.40611 45.0064C2.40611 45.0167 2.41648 45.0167 2.41648 45.0479C2.41648 45.0686 2.42685 45.0997 2.42166 45.1101L2.44759 45.2034L2.45796 45.2449L2.46833 45.2656L2.4787 45.3071L2.50982 45.5042L2.63427 46.1887C2.67576 46.4168 2.74835 46.6346 2.80021 46.8524C2.86244 47.0702 2.90392 47.2984 2.98689 47.511L3.20468 48.1592L3.46915 48.7867C3.55212 48.9941 3.65583 49.1963 3.76473 49.3934C3.86844 49.5956 3.96178 49.803 4.09142 49.9845C5.00408 51.5454 6.32122 52.847 7.85096 53.8581C9.38589 54.8693 11.149 55.5694 12.9691 56.0465C14.1722 56.3317 15.37 56.5391 16.5575 56.6272Z" fill="#221714"/>
<path d="M4.78142 25.7264C4.78142 25.7264 4.37176 29.6208 4.88513 31.0987C4.88513 31.0987 5.67853 29.5897 7.57645 29.0919L4.78142 25.7264Z" fill="#FFCB6E"/>
<path d="M25.8656 21.9721C25.8656 21.9721 28.2561 21.1787 29.3192 21.1372C29.3192 21.1372 26.6071 17.7718 25.5441 17.8132L25.8656 21.9721Z" fill="#FFCB6E"/>
<path d="M13.3526 35.7241C14.0112 35.7501 14.566 35.2419 14.5971 34.5833C14.6231 33.9248 14.1149 33.3699 13.4563 33.344C12.7977 33.318 12.2429 33.8262 12.2118 34.4848C12.1858 35.1434 12.694 35.6982 13.3526 35.7241Z" fill="white"/>
<path d="M25.3059 30.7306C25.9644 30.7565 26.5193 30.2484 26.5504 29.5898C26.5763 28.9312 26.0681 28.3764 25.4096 28.3504C24.751 28.3245 24.1962 28.8327 24.165 29.4913C24.1339 30.1498 24.6473 30.7047 25.3059 30.7306Z" fill="white"/>
<path d="M10.6041 46.3339C12.2531 45.665 13.2591 44.3219 12.8598 43.3315C12.4554 42.3411 10.796 42.0818 9.14697 42.7559C7.49796 43.4248 6.49195 44.7679 6.89124 45.7583C7.29572 46.7436 8.96029 47.0029 10.6041 46.3339Z" fill="#FF9671"/>
<path d="M35.9466 36.0405C37.5957 35.3715 38.6017 34.0285 38.2024 33.038C37.7979 32.0476 36.1385 31.7883 34.4895 32.4624C32.8405 33.1314 31.8345 34.4744 32.2338 35.4649C32.6382 36.4501 34.3028 36.7094 35.9466 36.0405Z" fill="#FF9671"/>
<path d="M15.4377 58.8051C15.3755 58.8051 15.3548 58.8 15.2873 58.7377C15.0384 58.5511 14.7532 58.2192 14.7066 57.8406C14.6703 57.4569 14.8518 57.0317 15.4792 56.5961C15.5 56.5753 15.6037 56.5287 15.6555 56.5235C16.8638 56.6376 18.1083 56.6894 19.3477 56.6791C23.2939 56.6479 27.2505 56.0516 30.9011 54.6722L31.8449 54.2885L32.7679 53.8737C32.7679 53.8737 32.8198 53.8529 32.9027 53.8166C32.9857 53.7803 33.1205 53.7233 33.2813 53.6559C33.4369 53.5885 33.6391 53.5055 33.8569 53.4121C34.0799 53.3084 34.308 53.2047 34.5725 53.0803C34.837 52.9662 35.0962 52.8262 35.3711 52.681C35.5059 52.6032 35.6563 52.541 35.7911 52.4632C35.9259 52.3854 36.0659 52.2972 36.2111 52.2246L36.6312 51.9861L36.8438 51.8617C36.906 51.8254 36.9838 51.7735 37.046 51.7372C37.3209 51.5661 37.5853 51.4001 37.8498 51.2446C38.2646 50.9438 38.6121 50.7105 38.8973 50.5186C39.1721 50.3164 39.4055 50.1712 39.5766 50.0726C39.9344 49.8808 40.0899 49.8756 40.0951 50.0312C40.1003 50.1867 39.9499 50.4875 39.701 50.8868C39.6336 50.9853 39.5662 51.0994 39.4936 51.2083C39.4158 51.3172 39.3173 51.4261 39.2343 51.535C39.0476 51.7631 38.8454 52.012 38.6172 52.2609C38.6795 52.2246 38.4202 52.4787 37.995 52.8832C37.7927 53.0906 37.5127 53.3033 37.2275 53.5522C37.0771 53.6714 36.9267 53.8062 36.7712 53.9255C36.6104 54.0448 36.4393 54.1692 36.2837 54.2833C36.1126 54.3974 35.9519 54.527 35.7859 54.6411C35.6148 54.7552 35.4489 54.8641 35.2881 54.9678C35.1274 55.0767 34.9718 55.1804 34.8214 55.279C34.6658 55.3671 34.5258 55.4501 34.3858 55.5382C34.111 55.6938 33.888 55.839 33.7324 55.922C33.5769 56.0101 33.4783 56.0568 33.4783 56.0568C33.1828 56.1864 32.9027 56.3213 32.6072 56.4405L31.7256 56.7931C30.73 57.1613 29.7292 57.5036 28.7076 57.7577L28.3239 57.8666L27.9401 57.9547C27.6809 58.0169 27.432 58.0792 27.1727 58.1258C26.6541 58.2295 26.1459 58.3384 25.6274 58.4214C23.5532 58.7792 21.4686 58.9348 19.3736 58.9503C18.0564 58.9763 16.7497 58.9296 15.4377 58.8051Z" fill="#AE1E25"/>
<path d="M15.0797 38.2653C15.8419 39.541 14.9033 40.3136 13.6225 41.0759C12.3469 41.833 11.2112 42.2893 10.4541 41.0137C9.69185 39.738 10.1119 38.089 11.3927 37.3267C12.6736 36.5697 14.3226 36.9897 15.0797 38.2653Z" fill="#221714"/>
<path d="M14.7786 37.5961C14.929 37.705 14.9186 38.0006 14.7319 38.2547C14.5556 38.5139 14.1252 38.5295 14.1252 38.5295C14.1252 38.5295 13.9852 38.125 14.1719 37.8709C14.3586 37.6065 14.6282 37.4872 14.7786 37.5961Z" fill="#F6F6F6"/>
<path d="M31.7152 31.8816C32.0989 33.318 30.9737 33.8055 29.5373 34.1788C28.1009 34.5625 26.8926 34.687 26.5089 33.2506C26.1252 31.8142 26.9911 30.3519 28.4172 29.9681C29.864 29.5948 31.3315 30.4504 31.7152 31.8816Z" fill="#221714"/>
<path d="M31.6111 31.1609C31.7303 31.3113 31.6266 31.5809 31.3881 31.7884C31.1444 31.9854 30.7347 31.8869 30.7347 31.8869C30.7347 31.8869 30.7191 31.4669 30.9577 31.2594C31.191 31.0624 31.4918 31.0105 31.6111 31.1609Z" fill="#F6F6F6"/>
<path d="M22.5628 39.5096C24.0044 39.017 24.8755 37.7621 24.5177 36.7042C24.1547 35.6464 22.6924 35.19 21.2508 35.6775C19.8092 36.1701 18.9381 37.425 19.2959 38.4829C19.6589 39.5407 21.1212 40.0022 22.5628 39.5096Z" fill="#221714"/>
<path d="M23.4906 40.5519L23.48 40.5625C23.4906 40.5625 23.5119 40.5625 23.5225 40.5625L23.4906 40.5519Z" fill="#C3351E"/>
<path d="M25.8293 41.3607L25.2692 41.1637C23.698 42.2319 23.4698 46.0589 23.4387 47.3086C24.0558 47.7753 24.8648 47.9672 25.8915 47.5057C29.1221 46.0744 25.8293 41.3607 25.8293 41.3607Z" fill="#C3351E"/>
<path d="M25.2689 41.1691L23.5317 40.5728C23.5213 40.5728 23.5006 40.5728 23.4902 40.5728L21.6234 44.0315C21.6234 44.0315 22.1057 46.3236 23.4332 47.3296C23.4695 46.0539 23.6873 42.2373 25.2689 41.1691Z" fill="#A62124"/>
<path d="M21.4992 39.2039C21.4889 39.1831 21.4889 39.1831 21.5148 39.1313C21.66 38.8616 22.1111 38.3534 22.9668 38.4312C22.9875 38.4312 23.0394 38.4468 23.0601 38.4571C23.0705 38.4779 23.2883 38.9394 23.6098 39.6239C23.6876 39.7898 23.7705 39.9713 23.8639 40.1684C23.9105 40.2721 23.9676 40.381 24.0142 40.4847C24.0609 40.5884 24.1076 40.6818 24.1543 40.7907C24.2009 40.8944 24.2372 40.9981 24.2839 41.107L24.3202 41.1796C24.3202 41.2107 24.2995 41.2314 24.2839 41.2625L24.2165 41.4233C24.1698 41.5218 24.1231 41.6359 24.0713 41.7448L23.9935 41.9056L23.9261 42.0248L23.8276 42.1959C23.6927 42.4293 23.5527 42.6575 23.3972 42.8856C23.0808 43.3368 22.7127 43.7724 22.2615 44.125C21.8156 44.4776 21.2763 44.7524 20.7473 44.8354C20.6229 44.8613 20.4881 44.8665 20.3636 44.8717C20.3014 44.8717 20.2495 44.8665 20.1977 44.8769C20.1769 44.8769 20.1458 44.8769 20.1251 44.8717C20.094 44.8717 20.0732 44.8717 20.0421 44.8665C19.845 44.8458 19.6947 44.8199 19.5598 44.7939C19.2954 44.7421 19.1398 44.685 19.1398 44.685C19.1398 44.685 19.0465 44.6487 18.8857 44.5606C18.725 44.4724 18.502 44.3376 18.2842 44.1146C18.056 43.902 17.8434 43.5701 17.7553 43.2071C17.6671 42.8545 17.7138 42.5071 17.7967 42.2426C17.8693 42.0196 17.9471 41.8589 18.0353 41.7396C18.1234 41.6203 18.196 41.5426 18.2634 41.4907C18.4035 41.3818 18.4968 41.387 18.5538 41.4596C18.6835 41.5892 18.6627 41.9989 18.7405 42.3515C18.7509 42.3308 18.7664 42.4345 18.8027 42.5589C18.8494 42.6834 18.9272 42.7923 19.0465 42.8649C19.1554 42.9427 19.3213 42.9997 19.4717 43.0256C19.6169 43.0516 19.7258 43.0671 19.7258 43.0671C19.7258 43.0671 19.8087 43.0931 19.9591 43.119C20.1251 43.1449 20.3066 43.1657 20.5036 43.119C20.7007 43.0775 20.9548 42.953 21.2192 42.7352C21.4837 42.5123 21.7585 42.2011 21.9971 41.8537C22.1163 41.6722 22.2304 41.4907 22.3393 41.3144C22.3601 41.2625 22.3963 41.2159 22.4171 41.1744C22.2771 40.8684 22.1423 40.5884 22.0282 40.3447C21.7274 39.6861 21.52 39.235 21.4992 39.2039Z" fill="#221714"/>
<path d="M23.3769 42.0817C23.3561 42.0817 23.3561 42.0713 23.3457 42.0298C23.2991 41.895 23.2783 41.6564 23.3302 41.3816C23.3924 41.1068 23.5376 40.7956 23.8021 40.4845C23.8125 40.4741 23.8539 40.4327 23.8643 40.4378C23.8747 40.4378 23.968 40.4638 24.1288 40.5104C24.2895 40.5467 24.5177 40.609 24.7822 40.6608C25.3111 40.7645 26.0422 40.8475 26.6749 40.7593C26.986 40.723 27.2557 40.6297 27.4475 40.5156C27.6394 40.4015 27.7587 40.2719 27.8365 40.1215C27.9246 39.9608 27.9505 39.8571 27.9557 39.7845C27.9609 39.7119 27.9609 39.6807 27.9609 39.6807C27.9609 39.6807 27.9713 39.66 27.9868 39.6081C27.9972 39.5563 28.0024 39.4837 27.9868 39.3696C27.9661 39.1518 27.8053 38.8148 27.629 38.5192C27.2972 38.0525 27.1831 37.8295 27.3127 37.6947C27.4527 37.5754 27.8209 37.591 28.2254 37.7724C28.1943 37.7413 28.6713 37.9436 29.0966 38.4051C29.304 38.6281 29.4855 38.934 29.5788 39.1985C29.6255 39.3229 29.6514 39.437 29.667 39.52C29.6825 39.603 29.6929 39.6444 29.6929 39.6444C29.6929 39.6444 29.6929 39.6859 29.6877 39.7585C29.6825 39.8311 29.6773 39.9452 29.6618 40.0748C29.6203 40.3393 29.5114 40.6971 29.304 41.0394C29.0914 41.4024 28.718 41.7757 28.272 42.0246C27.8313 42.2735 27.3386 42.4084 26.8719 42.4602C25.9385 42.5743 25.0933 42.4498 24.4555 42.3409C23.8125 42.2217 23.3976 42.092 23.3769 42.0817Z" fill="#221714"/>
<path d="M32.8872 52.8936C32.8872 52.8936 40.3233 51.2965 41.1582 55.7768C41.573 58.017 40.6085 60.9779 39.5507 61.8906C38.4928 62.8033 36.6364 62.124 35.703 62.0825C35.703 62.0825 33.0324 60.9313 31.29 55.9998L32.8872 52.8936Z" fill="#E2CA55"/>
<path d="M32.8873 52.8936C33.7688 52.9402 34.4896 53.0387 35.2311 53.1165C35.9675 53.2099 36.7401 53.2721 37.6632 53.464C37.9588 53.5469 38.5188 53.6092 39.3537 54.1329C39.7944 54.4233 40.2508 54.9315 40.4375 55.6678C40.6345 56.4146 40.6086 57.3583 40.4738 58.1828C40.3389 59.0177 40.0848 59.7541 39.8619 60.2519C39.6337 60.7549 39.447 60.9986 39.447 60.9986C39.447 60.9986 39.4107 61.0556 39.3381 61.1438C39.2655 61.232 39.167 61.3564 39.0374 61.4394C38.804 61.6312 38.2751 61.7557 37.5387 61.6675C37.1757 61.6312 36.7816 61.5586 36.3357 61.4809L35.983 61.429L35.8897 61.4186C35.786 61.3616 35.5889 61.2371 35.4489 61.1334C34.8267 60.6719 34.2977 60.0859 33.9036 59.5674C33.0169 58.3799 32.6487 57.5087 32.4413 57.0679C32.3428 56.8398 32.2339 56.6324 32.1509 56.4249C32.1042 56.3212 32.0628 56.2227 32.0213 56.1242L31.9902 56.0516L31.985 56.0464L31.9694 56.036C31.959 56.0308 31.959 56.0205 31.9539 56.0049C31.9435 56.0153 31.985 55.9271 31.9953 55.896L32.0524 55.756C32.125 55.5693 32.1924 55.3878 32.2546 55.2011C32.5035 54.47 32.685 53.7544 32.8873 52.8936C32.3065 53.5625 31.8294 54.1277 31.3783 54.7552C31.2642 54.9107 31.1553 55.0715 31.0464 55.2426L30.9634 55.3671C30.9271 55.4241 30.9219 55.4241 30.8649 55.5278L30.7197 55.7871C30.6782 55.8753 30.5849 55.9634 30.6523 56.0619C30.7456 56.3368 30.8441 56.622 30.9427 56.9176C31.0153 57.1457 31.119 57.3791 31.2279 57.6228C31.4457 58.0999 31.8398 59.0488 32.8354 60.3919C33.2866 60.983 33.8829 61.652 34.6504 62.2276C34.8578 62.3728 35.0237 62.4972 35.3037 62.6424C35.4023 62.6787 35.4904 62.7617 35.6045 62.7565L35.8327 62.7773L36.1231 62.8187C36.5275 62.8862 36.9683 62.9691 37.4039 63.0106C37.8395 63.0573 38.2854 63.0625 38.7107 62.9899C39.1359 62.9173 39.5352 62.7461 39.8204 62.5387C40.116 62.3261 40.2767 62.1187 40.3856 61.989C40.4997 61.8542 40.5464 61.7764 40.5464 61.7764C40.5464 61.7764 40.816 61.4186 41.0857 60.8171C41.3553 60.2156 41.6509 59.3703 41.8065 58.411C41.962 57.4465 42.0139 56.3731 41.7442 55.3308C41.6042 54.807 41.3657 54.3144 41.0649 53.9203C40.7693 53.521 40.4167 53.241 40.1108 53.0284C39.5352 52.6446 39.0633 52.4787 38.7158 52.3594C38.3632 52.2505 38.1195 52.1987 37.9328 52.1572C36.8335 51.9446 35.9779 52.0068 35.1948 52.1416C34.4118 52.2765 33.691 52.5202 32.8873 52.8936Z" fill="#1B1B1B"/>
<path d="M26.3428 56.5079C26.3428 56.5079 21.0328 61.9528 24.3879 65.0486C26.0628 66.5939 29.0808 67.351 30.4187 66.9413C31.7566 66.5317 32.1662 64.6026 32.6278 63.7833C32.6278 63.7833 33.0737 60.9105 29.8224 56.8087L26.3428 56.5079Z" fill="#E2CA55"/>
<path d="M26.3428 56.5078C25.6013 56.99 25.0153 57.4723 24.476 58.0583C23.9471 58.6494 23.4389 59.3443 23.0344 60.3866C22.9722 60.5629 22.8841 60.8014 22.7907 61.1592C22.7078 61.517 22.5937 62.0045 22.6144 62.6942C22.6352 63.0623 22.6818 63.5135 22.8633 63.975C23.0344 64.4365 23.3248 64.9032 23.693 65.2973C24.4345 66.0803 25.368 66.6041 26.2702 66.9878C27.1673 67.3664 28.0385 67.5686 28.6919 67.6568C29.3453 67.7449 29.7912 67.7086 29.7912 67.7086C29.7912 67.7086 29.8794 67.7086 30.0557 67.6879C30.2268 67.6671 30.4861 67.6412 30.8232 67.5012C31.1551 67.3715 31.5129 67.1226 31.7981 66.8011C32.0885 66.4796 32.3166 66.1011 32.5085 65.707C32.7055 65.3181 32.8663 64.898 33.027 64.5195L33.1463 64.2498L33.25 64.0424C33.3123 63.9491 33.2967 63.8298 33.3123 63.7261C33.3382 63.4098 33.3226 63.2075 33.3071 62.9534C33.2345 61.9993 32.9804 61.1333 32.7211 60.4384C32.1196 58.8776 31.5232 58.0427 31.2328 57.6019C31.0825 57.3841 30.9424 57.1715 30.7869 56.9848C30.5898 56.7411 30.4031 56.513 30.2165 56.2848C30.1698 56.1759 30.0453 56.207 29.952 56.1966L29.6564 56.1863C29.5372 56.1811 29.532 56.1863 29.4697 56.1863H29.3194C29.1171 56.1915 28.9253 56.1966 28.7334 56.2122C27.9504 56.264 27.2192 56.3678 26.3428 56.5078C27.1829 56.793 27.883 57.0211 28.6349 57.1975C28.8215 57.2441 29.0134 57.2856 29.2105 57.3219L29.3608 57.3478C29.3971 57.3582 29.4957 57.3686 29.4749 57.3738C29.4853 57.3841 29.4905 57.3893 29.4905 57.4049V57.4256V57.436L29.532 57.5034C29.5942 57.5916 29.6564 57.6849 29.7187 57.7731C29.8535 57.9545 29.9727 58.1568 30.1076 58.359C30.372 58.7635 30.9165 59.5465 31.4454 60.9259C31.6736 61.5378 31.8914 62.2949 31.9484 63.0675C31.9588 63.2438 31.964 63.4772 31.9588 63.5965L31.9173 63.6794L31.7721 64.0061C31.5958 64.4261 31.4506 64.7943 31.2899 65.121C30.9736 65.7899 30.5898 66.1737 30.2994 66.267C30.1594 66.3292 29.9987 66.35 29.8898 66.3604C29.7809 66.3759 29.7135 66.3759 29.7135 66.3759C29.7135 66.3759 29.4023 66.407 28.8578 66.3344C28.3185 66.2618 27.5563 66.0855 26.7784 65.7537C26.0058 65.4321 25.1916 64.9499 24.6679 64.3847C24.1442 63.835 23.9575 63.1764 23.9471 62.6475C23.9419 61.6622 24.1908 61.154 24.279 60.8637C24.6109 59.9821 24.9635 59.2976 25.2798 58.6183C25.6117 57.939 25.9176 57.2804 26.3428 56.5078Z" fill="#1B1B1B"/>
<path d="M29.8954 48.88C29.8954 48.88 32.2289 38.0992 38.2493 41.8743C44.2698 45.6494 43.9224 51.7425 42.7297 53.9308C42.7297 53.9308 39.9087 57.291 32.8045 54.1434L29.8954 48.88Z" fill="#E2CA55"/>
<path d="M29.8952 48.8797C30.4397 47.8323 30.9479 47.0077 31.4561 46.1573C31.9746 45.3121 32.4828 44.4201 33.2451 43.4608C33.3748 43.3001 33.5511 43.0926 33.8259 42.8385C34.1007 42.5948 34.4793 42.2837 35.0341 42.0918C35.6668 41.874 36.6106 41.9207 37.6166 42.543C38.6433 43.1756 39.7012 44.0312 40.4582 44.9543C41.2361 45.8721 41.7339 46.8574 41.9932 47.5989C42.2628 48.3404 42.3562 48.8279 42.3562 48.8279C42.3562 48.8279 42.3717 48.9316 42.408 49.1131C42.4236 49.2064 42.4443 49.3153 42.4703 49.4502C42.4806 49.585 42.4962 49.7354 42.5117 49.9013C42.5688 50.5651 42.5688 51.5244 42.3147 52.5096C42.2888 52.6341 42.2525 52.7534 42.2058 52.8726C42.1591 52.9867 42.1332 53.1215 42.0761 53.2201L41.9984 53.3808C41.988 53.4119 41.988 53.4067 41.988 53.4067L41.9258 53.4638C41.8843 53.5001 41.8376 53.5416 41.7909 53.5779C41.402 53.8786 40.9146 54.1224 40.4064 54.2831C39.39 54.6305 38.2751 54.6202 37.3625 54.532C36.8854 54.4646 36.4498 54.4076 36.0609 54.2987C35.869 54.252 35.6823 54.2105 35.5112 54.169C35.3401 54.112 35.1793 54.0653 35.029 54.0135C34.4222 53.8371 33.9867 53.6505 33.6859 53.5312C33.6081 53.5001 33.5355 53.4742 33.4629 53.443C33.4474 53.4379 33.4422 53.4379 33.4422 53.4379H33.437C33.4318 53.4379 33.4474 53.4638 33.3903 53.3653C33.2296 53.1008 33.074 52.8467 32.9184 52.6082C32.6073 52.1311 32.3065 51.7007 31.9954 51.291C31.3576 50.4821 30.699 49.7457 29.8952 48.8797C30.2012 50.0206 30.4708 50.9695 30.8338 51.934C31.0153 52.4163 31.2176 52.9037 31.4561 53.4171C31.5754 53.6764 31.705 53.9409 31.845 54.2157C31.9021 54.3298 31.9643 54.4387 32.0265 54.5579C32.1147 54.6824 32.1406 54.8794 32.3221 54.9054C32.5451 54.9987 32.768 55.0921 33.0014 55.1854C33.3281 55.3202 33.8 55.5276 34.4845 55.7299C34.6556 55.7817 34.8319 55.8388 35.0238 55.901C35.2208 55.9477 35.4282 55.9995 35.6512 56.0514C36.092 56.1707 36.595 56.2381 37.155 56.321C38.2336 56.4247 39.5923 56.4507 40.9457 55.9943C41.6198 55.7766 42.2836 55.455 42.8799 54.9987C42.9525 54.9417 43.0303 54.8794 43.1029 54.8172L43.217 54.7135L43.3725 54.5528C43.4918 54.449 43.5385 54.2935 43.5955 54.1898L43.7096 53.9409C43.7926 53.7749 43.8341 53.6142 43.8963 53.4482C43.9533 53.2875 44.0052 53.1267 44.0363 52.966C44.3578 51.7007 44.3474 50.5651 44.28 49.7561C44.2593 49.5539 44.2437 49.3724 44.2282 49.2116C44.197 49.056 44.1763 48.916 44.1556 48.8071C44.1141 48.5842 44.0933 48.4649 44.0933 48.4649C44.0933 48.4649 43.9896 47.8789 43.6629 46.987C43.5125 46.5359 43.2636 46.0277 42.9784 45.4728C42.8125 45.2084 42.6414 44.9335 42.4599 44.6431C42.2732 44.3631 42.045 44.0986 41.8324 43.8134C40.9198 42.7089 39.7426 41.7444 38.5137 40.9925C37.8758 40.6087 37.155 40.3235 36.4291 40.225C35.7083 40.1161 35.0082 40.2146 34.4637 40.391C33.5251 40.7228 32.9858 41.1843 32.6073 41.5214C32.2339 41.874 32.0161 42.1385 31.8502 42.3355C30.9116 43.5438 30.5123 44.6224 30.2375 45.6543C29.9886 46.6914 29.8849 47.6974 29.8952 48.8797Z" fill="#1B1B1B"/>
<path d="M32.1924 50.9384C32.1924 50.9384 33.4058 49.1805 37.1239 48.9056Z" fill="#C30D23"/>
<path d="M32.1925 50.9384C32.6851 51.0058 32.9288 51.0992 33.1363 50.9332C33.2452 50.8451 33.5978 50.591 33.9608 50.4043C34.3238 50.2124 34.6816 50.0828 34.6816 50.0828C34.6816 50.0828 35.0394 49.9532 35.449 49.8495C35.8639 49.7509 36.3254 49.6783 36.4758 49.6472C36.761 49.6005 36.8958 49.362 37.1188 48.9057C36.8336 48.5064 36.621 48.2886 36.2943 48.3197C36.118 48.3404 35.5942 48.4234 35.1172 48.5427C34.6401 48.6671 34.2149 48.8279 34.2149 48.8279C34.2149 48.8279 33.7845 48.9731 33.3385 49.2064C32.8874 49.4346 32.4258 49.7665 32.2858 49.8961C32.0266 50.1295 32.0162 50.4665 32.1925 50.9384Z" fill="#1B1B1B"/>
<path d="M24.5433 51.8409C24.5433 51.8409 14.1722 48.0814 14.167 55.1856C14.1618 62.2898 19.503 65.2404 21.992 65.3908C21.992 65.3908 26.3375 64.7945 27.4524 57.0991L24.5433 51.8409Z" fill="#E2CA55"/>
<path d="M24.5434 51.8408C23.5477 51.203 22.6403 50.7571 21.6291 50.4252C20.6127 50.1089 19.4823 49.8755 17.9629 50.0259C17.7088 50.057 17.3665 50.0985 16.8687 50.2281C16.3813 50.3733 15.702 50.5808 14.9241 51.1978C14.4834 51.566 14.0322 52.1053 13.7366 52.7743C13.4359 53.438 13.2907 54.2003 13.2803 54.947C13.2648 56.3886 13.4514 57.9028 13.9026 59.2614C14.027 59.5933 14.1307 59.9303 14.2708 60.2363C14.416 60.5422 14.5611 60.8326 14.696 61.1127C15.0175 61.6468 15.3131 62.129 15.6138 62.4972C16.1946 63.2439 16.6354 63.6484 16.6354 63.6484C16.6354 63.6484 16.7287 63.7314 16.8947 63.8818C16.9776 63.9595 17.0813 64.0529 17.2006 64.1566C17.3251 64.2551 17.4703 64.3692 17.631 64.4885C18.2792 64.9759 19.2334 65.5878 20.4779 65.9923C20.6283 66.0493 20.789 66.0908 20.9601 66.1271C21.1313 66.1634 21.2868 66.2153 21.4735 66.2308L21.7484 66.2671C21.8676 66.2775 22.0232 66.319 22.1736 66.2723L22.3914 66.2256L22.5366 66.1841C22.6299 66.1582 22.7232 66.1271 22.8114 66.096C23.5166 65.8367 24.1441 65.4478 24.6886 64.9863C25.7983 64.0788 26.4983 62.9172 26.9806 61.9475C27.2139 61.429 27.4214 60.9623 27.5562 60.5319C27.6288 60.3141 27.7014 60.1118 27.7636 59.92C27.8155 59.7229 27.8621 59.5414 27.9036 59.3703C28.0955 58.6858 28.1733 58.1776 28.2303 57.825C28.2718 57.5761 28.3133 57.3324 28.3548 57.099C28.4326 56.9331 28.277 56.8034 28.2148 56.6634C28.1474 56.5494 28.0851 56.4405 28.0229 56.3316C27.8621 56.0671 27.7066 55.813 27.551 55.5745C27.2399 55.0974 26.9391 54.667 26.628 54.2573C26.0005 53.438 25.3471 52.7068 24.5434 51.8408C24.8493 52.9817 25.119 53.9306 25.482 54.8952C25.6635 55.3774 25.8657 55.8649 26.1042 56.3782C26.2235 56.6375 26.3531 56.902 26.4932 57.1768C26.545 57.2753 26.5295 57.2494 26.5295 57.2546L26.5243 57.2598C26.5243 57.2598 26.5191 57.265 26.5139 57.2805C26.4983 57.3583 26.4828 57.4361 26.4672 57.5191C26.4102 57.8354 26.3376 58.3073 26.1613 58.914C26.1198 59.0695 26.0783 59.2303 26.0368 59.4066C25.9798 59.5725 25.9176 59.754 25.8501 59.9407C25.7361 60.3244 25.5494 60.7237 25.3523 61.1645C24.9427 61.9786 24.3567 62.9328 23.5218 63.6069C23.1173 63.9544 22.6506 64.2344 22.1891 64.4055C22.1321 64.4314 22.075 64.447 22.0232 64.4625L21.9402 64.4885C21.9402 64.4885 21.9402 64.4885 21.9143 64.4833L21.738 64.4625C21.6239 64.4574 21.4943 64.4107 21.375 64.3848C21.2505 64.3588 21.1313 64.3277 21.012 64.281C20.0475 63.9699 19.2334 63.4617 18.6992 63.0624C18.5644 62.9587 18.4451 62.8654 18.3414 62.7876C18.2429 62.6994 18.1599 62.6217 18.0873 62.5542C17.9473 62.4298 17.8747 62.3572 17.8747 62.3572C17.8747 62.3572 17.5117 62.0201 17.0295 61.3979C16.5369 60.7808 15.9664 59.837 15.6034 58.691C15.2249 57.5605 15.0641 56.2123 15.0745 55.004C15.0797 53.8217 15.5464 52.9972 16.065 52.5824C16.5213 52.2194 16.9828 52.0586 17.3406 51.9549C17.7036 51.8564 17.9681 51.8201 18.1755 51.7942C19.3889 51.6594 20.4208 51.7008 21.4061 51.7112C22.3966 51.7371 23.3663 51.7423 24.5434 51.8408Z" fill="#1B1B1B"/>
<path d="M32.426 55.2736L29.0191 57.156C27.8783 57.7886 26.4367 57.3738 25.8092 56.2329L24.658 54.1483C24.0254 53.0075 24.4402 51.5659 25.5811 50.9385L28.988 49.0561C30.1288 48.4235 31.5704 48.8383 32.1979 49.9791L33.3491 52.0637C33.9817 53.2046 33.5669 54.641 32.426 55.2736Z" fill="#E2CA55"/>
<path d="M32.4256 55.2737C31.57 55.5019 30.8595 55.7093 30.1336 55.979C29.7706 56.1138 29.4076 56.2642 29.0187 56.4457C28.9201 56.4923 28.8216 56.539 28.7231 56.5857C28.6349 56.6168 28.5727 56.6583 28.4845 56.679C28.329 56.7361 28.1527 56.7672 27.9712 56.7775C27.8467 56.7879 27.6808 56.7827 27.4474 56.7257C27.2193 56.6686 26.9133 56.5442 26.6281 56.2331C26.5659 56.1708 26.514 56.0982 26.457 56.0153C26.4311 55.9686 26.3999 55.9219 26.374 55.8753C26.3377 55.813 26.3014 55.7456 26.2651 55.6782C26.1147 55.4086 25.954 55.1182 25.788 54.8122C25.6221 54.5063 25.4458 54.1951 25.2695 53.8788C25.1243 53.6195 25.0517 53.3965 25.0361 53.1476C24.9895 52.655 25.1917 52.2142 25.3887 51.9601C25.5962 51.7112 25.7725 51.6023 25.7725 51.6023C25.6843 51.6386 26.5607 51.1616 27.6134 50.5808C28.1423 50.2904 28.7334 49.9637 29.3039 49.6474C29.7187 49.414 30.1958 49.3881 30.5588 49.4918C31.1136 49.6422 31.4351 50.0052 31.6166 50.3215C31.8603 50.7623 32.0418 51.0838 32.1663 51.3068C32.2959 51.5297 32.4152 51.7372 32.5345 51.9394C32.6486 52.1209 32.7523 52.2972 32.8612 52.4735C33.0271 52.7432 33.1101 53.0387 33.1464 53.3447C33.2034 53.9462 33.0686 54.6515 32.4256 55.2737C33.2864 55.0404 33.9449 54.3248 34.1264 53.4173C34.2094 52.9661 34.1887 52.4528 33.9864 51.9498L33.9035 51.7631L33.8309 51.6127C33.779 51.5142 33.7323 51.4105 33.6805 51.3068C33.5716 51.0993 33.4575 50.8867 33.3382 50.6586C33.2138 50.4356 33.0375 50.1089 32.7938 49.6681C32.4982 49.1236 31.8915 48.4495 30.9062 48.185C30.2632 47.9984 29.3868 48.045 28.6557 48.4651C28.0852 48.7814 27.4993 49.1081 26.9652 49.3985C25.8969 49.9948 25.0984 50.4252 25.0309 50.4874C25.0309 50.4874 24.9532 50.5393 24.8235 50.6378C24.6939 50.7363 24.5176 50.9023 24.3361 51.1253C23.9731 51.5764 23.6205 52.3594 23.6983 53.2514C23.7242 53.6869 23.8849 54.1588 24.0975 54.527C24.2687 54.8433 24.445 55.1596 24.6109 55.4604C24.7769 55.7664 24.9428 56.0567 25.088 56.3264C25.1243 56.3938 25.1606 56.4612 25.1969 56.5234C25.2436 56.6012 25.2902 56.6738 25.3317 56.7464C25.4302 56.8916 25.5288 57.0265 25.6377 57.1405C26.1562 57.7006 26.7111 57.9184 27.1155 58.0221C27.5304 58.1258 27.8312 58.1258 28.0489 58.1102C28.3756 58.0895 28.6868 58.0169 28.9616 57.8976C29.0964 57.8458 29.2313 57.768 29.3402 57.7058C29.4335 57.6487 29.5268 57.5865 29.615 57.5295C29.9728 57.2961 30.2943 57.0679 30.6003 56.8346C31.2225 56.3679 31.7774 55.8753 32.4256 55.2737Z" fill="#1B1B1B"/>
<path d="M28.5361 54.6981C28.5361 54.6981 29.2258 52.6757 27.2294 49.5281Z" fill="#C30D23"/>
<path d="M28.536 54.698C29.0182 54.558 29.2827 54.3506 29.3138 54.0032C29.3345 53.8113 29.3294 53.2409 29.2412 52.7431C29.1634 52.2401 29.0234 51.8097 29.0234 51.8097C29.0234 51.8097 28.899 51.3741 28.7175 50.9178C28.5308 50.4614 28.2819 49.9947 28.1937 49.8392C28.0278 49.5591 27.7218 49.5176 27.2344 49.528C27.001 49.9792 26.887 50.2281 27.0218 50.4873C27.0892 50.6274 27.307 51.0422 27.4729 51.4311C27.6337 51.8252 27.7426 52.1882 27.7426 52.1882C27.7426 52.1882 27.8567 52.5512 27.9137 52.9609C27.9811 53.3653 27.9863 53.8009 27.9811 53.9409C27.9707 54.2054 28.1885 54.3402 28.536 54.698Z" fill="#1B1B1B"/>
<path d="M25.0572 54.8798C25.0572 54.8798 22.9207 54.9731 20.7117 57.9755Z" fill="#C30D23"/>
<path d="M25.057 54.8795C24.751 54.4802 24.4606 54.3091 24.1288 54.4076C23.9421 54.4595 23.4132 54.6721 22.9828 54.9314C22.542 55.1855 22.1945 55.4707 22.1945 55.4707C22.1945 55.4707 21.8316 55.7455 21.4738 56.0826C21.1211 56.4248 20.7685 56.8241 20.6596 56.9641C20.4626 57.2234 20.53 57.519 20.7167 57.9753C21.2197 58.0272 21.4945 58.0427 21.6864 57.8249C21.7901 57.7108 22.1012 57.3582 22.402 57.0626C22.7079 56.7723 23.0087 56.5389 23.0087 56.5389C23.0087 56.5389 23.3094 56.3004 23.6621 56.0981C24.0147 55.8855 24.4192 55.7248 24.5488 55.6781C24.8029 55.5848 24.8547 55.3307 25.057 54.8795Z" fill="#1B1B1B"/>
<path d="M65.2566 16.8904L48.8961 16.3408L46.7234 7.77937C45.8263 7.25563 45.2455 6.27556 45.2766 5.16066C45.3596 3.50127 46.6871 2.25674 48.2998 2.31896C48.8391 2.33452 49.3421 2.49527 49.7673 2.76492C50.3118 1.99746 51.2192 1.48409 52.2201 1.52557H52.2823C53.252 1.57224 54.0869 2.07524 54.5847 2.81678C54.678 1.19888 56.0366 -0.040473 57.6079 0.00101159C58.3857 0.0217539 59.1376 0.369187 59.6717 0.9396C60.1955 1.51001 60.4807 2.27229 60.4444 3.04494V3.05013C61.0044 2.44342 61.8134 2.08043 62.6897 2.10117C63.7113 2.15302 64.5669 2.67677 65.0647 3.44423C65.5314 3.15903 66.0967 3.00346 66.6826 3.0242C67.476 3.05013 68.2331 3.39756 68.762 3.97835C69.2962 4.5695 69.5658 5.33178 69.514 6.13036C69.4621 7.17785 68.8295 8.09051 67.9375 8.56239L65.2566 16.8904ZM52.1734 12.2753L62.2593 12.6123L63.4365 8.97724L61.4919 9.51135L61.2533 8.51054L60.3822 9.12762L57.4212 5.90738L54.2165 8.97724L53.3142 8.24607L53.0238 9.18466L51.2348 8.56758L52.1734 12.2753Z" fill="#040000"/>
<path d="M63.3432 8.23555L62.7624 5.845C63.1462 5.7724 63.4417 5.45608 63.4573 5.05679C63.4729 4.5849 63.1047 4.20117 62.638 4.18043C62.1661 4.16487 61.7824 4.53305 61.7616 4.99457C61.7564 5.17606 61.8187 5.33681 61.912 5.48201L59.8689 6.9236L57.2709 8.58817L54.7974 6.76285L52.718 5.08272C52.8891 4.93752 53.0032 4.71454 53.0084 4.48119C53.0239 4.00931 52.6557 3.62557 52.189 3.60483C51.7275 3.59446 51.3334 3.95745 51.323 4.42415C51.3127 4.85974 51.6342 5.21754 52.0542 5.27459L51.2556 7.82589L49.9904 11.3054L51.5771 12.6277L54.3877 11.7773L57.1983 10.9269L57.2087 10.9061V10.9269L59.9622 11.9536L62.7158 12.9803L64.3803 11.7566L63.3432 8.23555Z" fill="#B06F20"/>
<path d="M57.53 2.93604L57.1566 14.5258L50.545 14.3028L48.2686 5.34733L53.226 7.05857L57.53 2.93604Z" fill="#EEDE80"/>
<path d="M57.5305 2.93604L57.1571 14.5258L63.7635 14.7332L66.6104 5.95922L61.5597 7.3334L57.5305 2.93604Z" fill="#E2CA55"/>
<path d="M47.8699 6.01611C48.2951 6.21316 48.7929 6.02648 48.99 5.60645C49.187 5.18642 49.0004 4.68342 48.5803 4.48637C48.1551 4.28931 47.6573 4.47599 47.4602 4.89603C47.2632 5.31606 47.4499 5.81906 47.8699 6.01611Z" fill="#E2CA55"/>
<path d="M57.1776 3.70337C57.6028 3.90042 58.1007 3.71374 58.2977 3.29371C58.4948 2.87367 58.3081 2.37067 57.888 2.17362C57.4628 1.97657 56.965 2.16325 56.768 2.58328C56.5709 3.00331 56.7524 3.50631 57.1776 3.70337Z" fill="#E2CA55"/>
<path d="M66.2572 6.72131C66.6824 6.91836 67.1802 6.73168 67.3773 6.31165C67.5744 5.89162 67.3877 5.38862 66.9676 5.19157C66.5424 4.99451 66.0446 5.18119 65.8476 5.60123C65.6505 6.02644 65.832 6.52426 66.2572 6.72131Z" fill="#E2CA55"/>
<path d="M76.5507 42.3464C72.5319 51.0063 60.3665 53.4435 49.4509 49.6166C35.7143 44.7992 33.7023 33.785 37.7211 25.1199C41.7399 16.4548 53.4904 13.3902 63.9964 18.2594C74.5024 23.1287 80.5643 33.6813 76.5507 42.3464Z" fill="white"/>
<path d="M42.3107 46.3082C42.3107 46.3082 34.7708 39.9455 41.2787 33.2457C41.2787 33.2457 43.2907 31.7211 46.5213 32.5819C49.752 33.4428 52.7025 30.7463 52.7025 30.7463C52.7025 30.7463 54.3308 28.6772 56.3895 29.8595C58.443 31.0366 58.8889 29.7714 58.8889 29.7714C58.8889 29.7714 60.0401 28.4387 61.5491 29.8388C63.053 31.2389 66.5273 33.1212 69.7631 32.333C72.9989 31.5448 75.5294 34.6925 75.5294 34.6925C75.5294 34.6925 80.0565 43.3939 69.4468 49.4558C69.4468 49.4558 75.265 47.646 77.7281 42.8286C80.1913 38.0112 81.161 31.6848 74.6894 20.8574L72.5633 18.1712L70.375 11.4715L67.3674 9.54244L63.9397 13.3694L61.0461 16.5015C61.0461 16.5015 58.5674 14.6813 55.6013 15.7651C52.6351 16.8489 52.6611 16.014 52.6611 16.014C52.6611 16.014 49.9905 11.6011 48.9326 11.0463C47.8748 10.4862 46.1532 9.45947 46.1532 9.45947L41.341 19.2032C41.341 19.2032 35.1649 28.2675 35.0716 32.722C34.9783 37.1712 35.7924 42.8753 42.3107 46.3082Z" fill="#DEBB7E"/>
<path d="M45.2249 46.6971C45.2716 46.7178 45.2923 46.7282 45.3183 46.8112C45.4635 47.0601 45.6035 47.4438 45.5309 47.8172C45.479 48.2009 45.1834 48.5846 44.3952 48.7506C44.3693 48.761 44.2397 48.7713 44.1826 48.7454C42.9796 48.1387 41.8543 47.4283 40.7757 46.6245C39.106 45.3644 37.571 43.871 36.3628 42.1079C35.1649 40.3396 34.2937 38.2809 33.9982 36.1289C33.9411 35.8644 33.9308 35.5896 33.91 35.3148C33.8893 35.0451 33.8582 34.7703 33.8685 34.5006C33.8685 34.231 33.8582 33.9613 33.8582 33.6917L33.9048 32.8879C33.9152 32.6234 33.9567 32.359 33.993 32.0893C34.0345 31.8249 34.0604 31.5552 34.1122 31.2959L34.2886 30.5285L34.3197 30.3625L34.3093 30.3833V30.404C34.3041 30.4144 34.3093 30.404 34.3145 30.3936L34.3249 30.2744C34.3404 30.1914 34.356 30.0825 34.3663 30.0099L34.4286 29.7766C34.5841 29.201 34.7656 28.7083 34.9627 28.2105L35.1079 27.8475L35.2738 27.4949C35.3723 27.2564 35.4812 27.023 35.6005 26.7949C36.0413 25.8666 36.5287 24.9695 37.0162 24.088L37.0732 23.9895L37.1303 23.8909C38.0688 22.2316 39.0593 20.6137 40.0912 19.0217L40.2831 18.7261L40.309 18.695L40.3142 18.6691C40.3194 18.6587 40.3142 18.6691 40.3142 18.6691C40.309 18.6794 40.3142 18.6691 40.3142 18.6691L40.3401 18.612L40.615 17.9483C40.7965 17.5127 40.9883 17.0667 41.1802 16.6363C41.5743 15.7651 41.9839 14.9043 42.4195 14.0383C42.8551 13.1724 43.3374 12.3323 43.8456 11.5026C43.9752 11.29 44.1048 11.0878 44.2449 10.8855L44.6649 10.2736C44.8049 10.0662 44.9657 9.86915 45.1264 9.6721C45.1783 9.60468 45.3442 9.37652 45.5101 9.23651L45.982 8.77499L46.2257 8.54683L46.345 8.43274L46.4072 8.37052C46.4228 8.36533 46.428 8.34459 46.4435 8.3394L46.485 8.34977C46.6924 8.412 46.8999 8.45349 47.1073 8.52608C47.3199 8.57794 47.5221 8.68165 47.7347 8.78536C47.8385 8.83203 47.9422 8.8787 48.0459 8.9513L48.2948 9.10168C48.7615 9.39726 49.1763 9.72395 49.5549 10.0714C50.3327 10.7611 50.9913 11.5182 51.5928 12.3064L51.8158 12.6019L52.0284 12.9027C52.1736 13.1049 52.3188 13.3072 52.4536 13.5042L52.8477 14.1161L53.0448 14.4221L53.2315 14.7332L53.2626 14.7695L53.8071 14.6917C54.056 14.671 54.2997 14.6347 54.5434 14.6139C56.5036 14.448 58.5156 14.4843 60.512 14.9458L61.1809 15.1221L61.4039 14.7591C61.9277 13.9502 62.4773 13.1516 63.0789 12.3738C63.6752 11.5959 64.3234 10.844 65.0598 10.1336C65.4383 9.77581 65.8376 9.43874 66.3095 9.12761C66.4339 9.04983 66.548 8.97723 66.6828 8.90463L66.7762 8.84759C66.8228 8.82166 66.8643 8.80092 66.911 8.77499C67.0147 8.72314 67.1184 8.69202 67.2325 8.64017C67.3414 8.59868 67.4451 8.54683 67.5592 8.5209L67.8859 8.4483C68.1037 8.39126 68.3318 8.34977 68.5445 8.29792L68.5963 8.28755C68.6119 8.28236 68.6222 8.30829 68.6274 8.31348L68.7 8.38089L68.8297 8.5209L69.0941 8.80092C69.2704 8.98241 69.4364 9.18465 69.6179 9.3817C69.789 9.5995 69.9757 9.80692 70.1364 10.0299C70.4787 10.4603 70.795 10.9114 71.1009 11.373C71.7128 12.2804 72.2677 13.2398 72.7344 14.2354C73.2167 15.231 73.6211 16.2681 73.9271 17.3364L74.1189 18.0727C74.1138 18.0572 74.1189 18.0727 74.1189 18.0727L74.3575 18.389C74.6894 18.8246 74.9901 19.2706 75.2961 19.7166C76.5821 21.6404 77.7074 23.668 78.6097 25.8044C79.5171 27.9357 80.2172 30.1862 80.5594 32.5301C80.7357 33.7695 80.8032 35.0347 80.7409 36.2948C80.7098 36.9275 80.6424 37.5601 80.5387 38.1979C80.4765 38.5091 80.4298 38.8254 80.352 39.1417L80.2276 39.6032C80.1913 39.7536 80.1498 39.9195 80.0875 40.0699C79.7038 41.3093 79.1541 42.4812 78.4489 43.5598C78.1067 44.1043 77.7126 44.6125 77.3133 45.1051C77.111 45.3488 76.888 45.577 76.6754 45.8207L76.5458 45.9556C76.0532 46.4741 75.5191 46.9408 74.9798 47.4023C74.9798 47.4023 74.7879 47.5268 74.4664 47.7549C74.1397 47.9676 73.6782 48.2528 73.1337 48.5535C72.5892 48.8439 71.9617 49.1551 71.3136 49.4195C70.6705 49.684 69.9964 49.907 69.3845 50.0781C68.3578 50.384 67.6681 50.4826 67.2584 50.4826C66.8488 50.4877 66.7243 50.3944 66.7969 50.2544C66.9421 49.9951 67.8755 49.4973 68.9541 48.875C68.8245 48.9061 70.1624 48.2217 71.4017 47.3608C72.0188 46.9356 72.6151 46.4586 73.0455 46.0956C73.2581 45.9089 73.4293 45.7533 73.5537 45.6392C73.6782 45.5252 73.7404 45.4526 73.7404 45.4526L74.0412 45.1933L74.3367 44.9236C74.5338 44.7421 74.7101 44.5554 74.902 44.3688L75.0109 44.2495C75.1975 44.0421 75.379 43.845 75.5605 43.6324C75.9028 43.2124 76.2398 42.782 76.5354 42.3153C77.1318 41.4026 77.5933 40.4277 77.9148 39.3854C77.9615 39.261 77.9926 39.1262 78.0289 38.9965L78.1326 38.6024C78.2 38.3379 78.2311 38.0683 78.2881 37.8038C78.3763 37.2697 78.4282 36.7149 78.4593 36.16C78.5163 35.0555 78.4593 33.9406 78.2881 32.8309C77.9926 30.7307 77.3496 28.6669 76.5043 26.6756C75.6591 24.6843 74.596 22.7657 73.393 20.9611C73.113 20.5359 72.8174 20.1262 72.5218 19.7321L72.304 19.4417L72.0603 19.1358C72.0343 19.115 72.0292 19.0787 72.0188 19.0476L71.9929 18.9543L71.9358 18.7572L71.7336 17.9742C71.4536 17.0408 71.0958 16.1178 70.6705 15.2258C70.2453 14.3391 69.7475 13.4731 69.1875 12.6486C68.9126 12.239 68.6222 11.8345 68.3163 11.4404C68.1659 11.2485 68.0103 11.0515 67.8548 10.8648C67.8548 10.8648 67.8496 10.8751 67.8392 10.87L67.8029 10.9011C67.7303 10.9374 67.6473 10.9892 67.5696 11.0411C67.2584 11.2485 66.9421 11.5078 66.631 11.793C66.0191 12.379 65.4331 13.0531 64.8886 13.7635C64.3441 14.4739 63.8256 15.2207 63.333 15.9881L63.1515 16.2785L62.9855 16.543L62.804 16.8334C62.6744 17.0356 62.5655 17.243 62.441 17.4453L62.2595 17.7564L62.2232 17.829L62.2077 17.8653C62.2025 17.8757 62.2025 17.8757 62.1921 17.8705L62.1714 17.8601L62.0054 17.8031L60.6676 17.3416L60.6313 17.326L60.6105 17.3156C60.6105 17.3156 60.5846 17.3001 60.5587 17.3053L60.5172 17.2949L60.4394 17.269L60.2838 17.2327L59.9831 17.1497C58.3237 16.766 56.5243 16.7141 54.7456 16.8749C54.5227 16.8956 54.3049 16.9215 54.0819 16.9423L53.7552 16.9838L53.5581 17.0149L53.2159 17.0719C52.9826 17.1134 52.744 17.1601 52.5158 17.2119L52.1632 17.2845C52.1373 17.2949 52.101 17.3001 52.0751 17.3001L52.0336 17.2223L51.9454 17.0667L51.2506 15.8948L51.0794 15.5992L50.8979 15.3088L50.535 14.7436C50.4053 14.5569 50.2757 14.3754 50.1564 14.1939L49.9645 13.9243L49.7571 13.6598C49.223 12.9597 48.6422 12.296 48.0044 11.736C47.6933 11.4559 47.3666 11.2018 47.0347 10.9892L46.9828 10.9529L46.9051 11.0411C46.7754 11.2174 46.6354 11.3781 46.5161 11.5648L46.1428 12.1041C46.0235 12.2856 45.8991 12.4775 45.7798 12.6694C45.3079 13.4368 44.8671 14.225 44.4419 15.0392C44.0271 15.8585 43.633 16.683 43.2544 17.5231C43.0677 17.9483 42.8862 18.3631 42.7099 18.7883L42.4506 19.4158C42.4351 19.4417 42.3832 19.5869 42.3366 19.6803L42.1758 19.924L41.9839 20.2196C40.9779 21.7804 40.0134 23.3724 39.0956 24.9747L39.0437 25.0629L38.9919 25.151C38.5148 26.0067 38.0533 26.8571 37.6384 27.7283C37.5295 27.9409 37.4258 28.1639 37.3377 28.3816L37.1873 28.7083L37.0473 29.0298C36.871 29.4602 36.7154 29.8958 36.6169 30.2796L36.5909 30.4144C36.5806 30.4662 36.5858 30.4766 36.5754 30.5181C36.5754 30.5388 36.5702 30.4351 36.5806 30.4611L36.5754 30.4922C36.5702 30.5025 36.5806 30.5077 36.565 30.5337C36.5547 30.5544 36.5546 30.5855 36.5495 30.5959L36.5391 30.6944L36.5287 30.7359V30.7566L36.5184 30.7981L36.4717 30.9952L36.3265 31.6745C36.2798 31.9027 36.2643 32.1308 36.228 32.3538C36.202 32.582 36.1554 32.8049 36.1502 33.0331L36.1087 33.7176V34.3969C36.1087 34.6199 36.1242 34.8481 36.145 35.071C36.1657 35.294 36.1709 35.5274 36.2228 35.74C36.4717 37.529 37.1873 39.235 38.2192 40.7544C39.2511 42.2738 40.6098 43.5961 42.1136 44.7369C43.1351 45.5096 44.1619 46.1578 45.2249 46.6971Z" fill="#221714"/>
<path d="M46.1634 13.6392C46.1634 13.6392 44.2966 17.0772 44.2032 18.6432C44.2032 18.6432 45.5152 17.5543 47.4546 17.8187L46.1634 13.6392Z" fill="#D87447"/>
<path d="M67.0765 18.2283C67.0765 18.2283 69.5915 18.4098 70.5872 18.778C70.5872 18.778 69.3686 14.6347 68.3729 14.2614L67.0765 18.2283Z" fill="#D87447"/>
<path d="M50.2599 26.1568C50.8562 26.4317 51.5666 26.1724 51.8466 25.5761C52.1215 24.9797 51.8622 24.2693 51.2659 23.9945C50.6695 23.7196 49.9591 23.9789 49.6791 24.5752C49.399 25.1664 49.6635 25.8768 50.2599 26.1568Z" fill="white"/>
<path d="M63.2083 26.1103C63.8046 26.3852 64.5151 26.1259 64.7951 25.5295C65.0699 24.9332 64.8106 24.2228 64.2143 23.9479C63.618 23.6731 62.9075 23.9324 62.6275 24.5287C62.3527 25.1251 62.612 25.8303 63.2083 26.1103Z" fill="white"/>
<path d="M43.6643 34.9103C45.443 34.9207 46.8898 34.065 46.895 32.9968C46.9001 31.9286 45.4637 31.0574 43.6851 31.0418C41.9064 31.0315 40.4597 31.8871 40.4545 32.9553C40.4493 34.0235 41.8857 34.8947 43.6643 34.9103Z" fill="#D4824B"/>
<path d="M71.0131 35.0867C72.7918 35.097 74.2385 34.2414 74.2437 33.1732C74.2489 32.105 72.8125 31.2338 71.0339 31.2182C69.2552 31.2027 67.8084 32.0635 67.8032 33.1317C67.7981 34.1999 69.2345 35.0711 71.0131 35.0867Z" fill="#D4824B"/>
<path d="M43.3577 48.2785C43.3007 48.2525 43.2851 48.2422 43.2436 48.1592C43.0829 47.8947 42.9481 47.4799 43.0518 47.1065C43.1659 46.7383 43.4977 46.4168 44.2393 46.2509C44.2652 46.2405 44.3793 46.2354 44.4311 46.2509C45.5046 46.8161 46.635 47.3399 47.781 47.8066C51.4369 49.2845 55.326 50.249 59.2256 50.3734L60.242 50.3786L61.2531 50.3475C61.2531 50.3475 61.3102 50.3527 61.3983 50.3475C61.4917 50.3423 61.6369 50.3475 61.808 50.3423C61.9791 50.3423 62.1969 50.3423 62.4355 50.3371C62.6792 50.3268 62.9333 50.3164 63.2237 50.306C63.5089 50.3008 63.8096 50.2697 64.1156 50.2438C64.2712 50.2231 64.4319 50.2231 64.5875 50.2023C64.743 50.1816 64.9038 50.1556 65.0697 50.1401L65.552 50.0779L65.7957 50.0416C65.8683 50.0312 65.9565 50.0156 66.0291 50.0001C66.3506 49.943 66.6565 49.8964 66.9573 49.8549C67.4551 49.7356 67.8648 49.6526 68.207 49.5852C68.5389 49.5023 68.8085 49.4556 69.0056 49.4348C69.4101 49.3934 69.5553 49.4504 69.4982 49.5956C69.4412 49.7408 69.1923 49.9638 68.8033 50.2386C68.7048 50.306 68.6011 50.3838 68.487 50.4564C68.3729 50.529 68.2433 50.5912 68.1188 50.6586C67.8596 50.7987 67.5744 50.949 67.2736 51.0942C67.3462 51.0839 67.0091 51.2239 66.4595 51.4313C66.1898 51.5454 65.8528 51.6387 65.4949 51.7528C65.3135 51.8047 65.1216 51.8721 64.9297 51.9187C64.7379 51.9654 64.5304 52.0173 64.3386 52.0639C64.1363 52.1054 63.9393 52.1625 63.7422 52.2039C63.54 52.2454 63.3429 52.2817 63.1563 52.318C62.9696 52.3543 62.7829 52.3958 62.6066 52.4269C62.4251 52.4477 62.2695 52.4736 62.1088 52.4995C61.7976 52.5358 61.5384 52.5877 61.3569 52.6032C61.1754 52.624 61.0717 52.6292 61.0717 52.6292C60.7501 52.6395 60.439 52.6499 60.1175 52.6499L59.1685 52.6395C58.1107 52.6032 57.0528 52.5306 56.0105 52.3751L55.6112 52.3284L55.2223 52.261C54.9579 52.2195 54.7038 52.178 54.4445 52.1262C53.9259 52.0224 53.4126 51.9291 52.9044 51.8098C50.8509 51.3431 48.8648 50.6949 46.9254 49.9067C45.712 49.4348 44.5245 48.8955 43.3577 48.2785Z" fill="#AE1E25"/>
<path d="M50.882 29.1648C51.0946 30.6323 49.9331 30.9901 48.4603 31.2027C46.9876 31.4153 45.769 31.405 45.5564 29.9375C45.3438 28.4648 46.3602 27.1061 47.8329 26.8883C49.3056 26.6757 50.6694 27.6921 50.882 29.1648Z" fill="#221714"/>
<path d="M50.8615 28.4282C50.96 28.589 50.8304 28.8587 50.5659 29.0142C50.3066 29.1853 49.897 29.035 49.897 29.035C49.897 29.035 49.9281 28.6046 50.1926 28.449C50.4674 28.2779 50.763 28.2727 50.8615 28.4282Z" fill="#F6F6F6"/>
<path d="M68.6895 29.6262C68.4924 31.0989 67.2686 31.1197 65.8011 30.9174C64.3284 30.7204 63.1616 30.3729 63.3587 28.9002C63.5557 27.4275 64.9144 26.406 66.3767 26.5979C67.8546 26.8053 68.8865 28.1535 68.6895 29.6262Z" fill="#221714"/>
<path d="M68.8713 28.9158C68.9231 29.0973 68.7209 29.3099 68.4253 29.4136C68.1245 29.5017 67.7875 29.2528 67.7875 29.2528C67.7875 29.2528 67.9379 28.8587 68.2334 28.755C68.5238 28.6669 68.8194 28.7343 68.8713 28.9158Z" fill="#F6F6F6"/>
<path d="M57.3225 33.173C58.8419 33.2663 60.1331 32.4418 60.2005 31.3269C60.2679 30.212 59.096 29.2268 57.5766 29.1334C56.0572 29.0349 54.766 29.8646 54.6986 30.9795C54.626 32.0944 55.8032 33.0745 57.3225 33.173Z" fill="#221714"/>
<path d="M57.7806 34.4902L57.7639 34.4958C57.7751 34.5014 57.7918 34.5069 57.8029 34.5125L57.7806 34.4902Z" fill="#C3351E"/>
<path d="M59.6307 36.129L59.1899 35.7349C57.3335 36.1186 55.6533 39.567 55.1451 40.713C55.5392 41.382 56.2082 41.8642 57.3386 41.8331C60.87 41.7449 59.6307 36.129 59.6307 36.129Z" fill="#C3351E"/>
<path d="M59.184 35.7451L57.8099 34.5317C57.7995 34.5265 57.7839 34.5161 57.7736 34.5161L54.7296 37C54.7296 37 54.2992 39.3024 55.1393 40.7388C55.6527 39.5669 57.3172 36.1236 59.184 35.7451Z" fill="#A62124"/>
<path d="M56.4568 32.4833C56.4568 32.4626 56.4568 32.4626 56.4983 32.4211C56.7368 32.224 57.3487 31.9337 58.1058 32.3278C58.1265 32.3381 58.168 32.3692 58.1836 32.3848C58.1836 32.4055 58.2095 32.9189 58.2458 33.6708C58.251 33.8523 58.2614 34.0546 58.2717 34.2723C58.2769 34.3864 58.2873 34.5057 58.2925 34.6198C58.2977 34.7339 58.3028 34.8428 58.308 34.9568C58.3132 35.0709 58.308 35.1798 58.308 35.2991L58.3132 35.3821C58.2977 35.408 58.2717 35.4184 58.251 35.4443L58.1265 35.5687C58.0436 35.6465 57.9606 35.7295 57.8672 35.8125L57.7324 35.9317L57.6235 36.0199L57.468 36.1392C57.2554 36.2999 57.0376 36.4607 56.8042 36.6162C56.3375 36.9118 55.8293 37.1711 55.2848 37.3267C54.7352 37.4822 54.1336 37.5289 53.6151 37.4044C53.4906 37.3785 53.3662 37.3318 53.2469 37.2904C53.1899 37.2644 53.1432 37.2437 53.0913 37.2281C53.0706 37.2178 53.0447 37.2074 53.0239 37.197C52.998 37.1866 52.9773 37.1763 52.9513 37.1607C52.7802 37.0674 52.6454 36.9844 52.5365 36.9118C52.3135 36.7614 52.1942 36.6525 52.1942 36.6525C52.1942 36.6525 52.1216 36.5851 52.0076 36.4399C51.8935 36.2947 51.7379 36.0873 51.6238 35.7969C51.4942 35.5117 51.4268 35.128 51.4838 34.7546C51.5357 34.3968 51.712 34.0909 51.8883 33.8782C52.0387 33.6967 52.1735 33.5827 52.2979 33.5049C52.4224 33.4271 52.5261 33.3856 52.6039 33.3649C52.775 33.3182 52.858 33.3597 52.8839 33.4478C52.9513 33.6138 52.7802 33.9871 52.718 34.3449C52.7335 34.3294 52.7128 34.4331 52.6972 34.5627C52.692 34.6976 52.7232 34.822 52.8061 34.9413C52.8787 35.0554 53.0084 35.1695 53.138 35.2524C53.2625 35.3302 53.361 35.3872 53.361 35.3872C53.361 35.3872 53.4284 35.4391 53.558 35.5221C53.698 35.6102 53.864 35.6984 54.061 35.7347C54.2581 35.771 54.5381 35.7554 54.87 35.6569C55.2019 35.5532 55.57 35.3717 55.9278 35.1383C56.1093 35.0191 56.2805 34.8946 56.4516 34.7702C56.4931 34.7339 56.5397 34.6976 56.576 34.6716C56.5605 34.3346 56.5501 34.0234 56.5346 33.759C56.4775 33.0174 56.462 32.5196 56.4568 32.4833Z" fill="#221714"/>
<path d="M57.0896 35.8592C57.0688 35.8488 57.074 35.8436 57.0844 35.7969C57.0948 35.6517 57.1674 35.4288 57.3177 35.1902C57.4785 34.9621 57.7378 34.7287 58.0956 34.542C58.1111 34.5368 58.163 34.5161 58.1734 34.5213C58.1837 34.5265 58.2563 34.5835 58.3912 34.6872C58.526 34.7857 58.7127 34.9258 58.9356 35.0761C59.3868 35.3769 60.0298 35.7295 60.6469 35.8903C60.9476 35.9732 61.2329 35.994 61.4558 35.9577C61.6736 35.9214 61.8344 35.8488 61.964 35.7399C62.1092 35.6258 62.1714 35.5428 62.2026 35.4754C62.2337 35.408 62.244 35.3821 62.244 35.3821C62.244 35.3821 62.2596 35.3665 62.2907 35.325C62.3218 35.2836 62.3529 35.2161 62.3789 35.1072C62.4411 34.8998 62.4203 34.5265 62.3737 34.1894C62.244 33.6345 62.2233 33.3856 62.3996 33.3079C62.5707 33.2508 62.9078 33.4064 63.2137 33.7279C63.1982 33.6864 63.5612 34.0598 63.7738 34.6457C63.8775 34.9309 63.9293 35.2836 63.9138 35.5636C63.9086 35.6984 63.8879 35.8125 63.8723 35.8955C63.8568 35.9784 63.8464 36.0199 63.8464 36.0199C63.8464 36.0199 63.8308 36.0562 63.7997 36.1236C63.7686 36.191 63.7219 36.2896 63.6545 36.4088C63.5145 36.637 63.2812 36.9274 62.9545 37.1607C62.6226 37.4148 62.13 37.6171 61.627 37.6793C61.124 37.7415 60.621 37.6741 60.1698 37.5445C59.2623 37.2956 58.5312 36.8496 57.9867 36.5074C57.437 36.1547 57.1051 35.8747 57.0896 35.8592Z" fill="#221714"/>
<path d="M60.4343 51.2501C60.4343 51.2501 67.5541 53.9259 65.8325 58.1469C64.9717 60.2575 62.5604 62.228 61.1759 62.425C59.7913 62.6221 58.5986 61.0457 57.8364 60.5064C57.8364 60.5064 56.2133 58.0951 57.4111 53.0028L60.4343 51.2501Z" fill="#E2CA55"/>
<path d="M60.434 51.2501C61.1496 51.7687 61.7044 52.2354 62.2852 52.7073C62.8556 53.1843 63.4727 53.6562 64.1468 54.3148C64.3491 54.543 64.7899 54.9008 65.2047 55.7927C65.4173 56.2749 65.5314 56.9491 65.2877 57.6699C65.0491 58.401 64.5202 59.1892 63.9602 59.8063C63.3949 60.439 62.783 60.9212 62.3267 61.2168C61.8652 61.5176 61.5748 61.6213 61.5748 61.6213C61.5748 61.6213 61.5126 61.6524 61.4089 61.6835C61.3 61.7198 61.1496 61.7665 60.994 61.7717C60.6933 61.808 60.1799 61.6213 59.6095 61.1546C59.3243 60.9264 59.0339 60.6516 58.6968 60.3508L58.4272 60.1175L58.3546 60.0604C58.2975 59.9567 58.2042 59.7441 58.1368 59.5782C57.8619 58.8574 57.7375 58.0743 57.6856 57.4261C57.5819 55.9483 57.7427 55.0149 57.8101 54.5326C57.8464 54.2889 57.8723 54.0555 57.9138 53.8377C57.9293 53.7288 57.9501 53.6199 57.9656 53.511L57.976 53.4332L57.9708 53.4229L57.9656 53.4073C57.9605 53.3969 57.9656 53.3866 57.9708 53.371C57.9553 53.3762 58.0382 53.3244 58.0642 53.2984L58.1886 53.2103C58.3494 53.091 58.5049 52.9717 58.6553 52.8525C59.2569 52.3702 59.7962 51.8672 60.434 51.2501C59.5835 51.4938 58.8783 51.7168 58.1575 52.002C57.976 52.0746 57.7997 52.1472 57.613 52.2302L57.473 52.2924C57.416 52.3183 57.4108 52.3183 57.3019 52.3754L57.0374 52.5154C56.9545 52.5673 56.83 52.588 56.8352 52.7073C56.7626 52.9925 56.69 53.2829 56.6174 53.5836C56.5552 53.817 56.5189 54.0659 56.4722 54.3304C56.3996 54.8489 56.2129 55.8601 56.3322 57.5299C56.3892 58.2662 56.5292 59.1581 56.8663 60.0552C56.9648 60.2886 57.0374 60.4804 57.193 60.7553C57.2552 60.8434 57.2863 60.9575 57.3849 61.0146L57.5664 61.1546L57.7893 61.3464C58.0953 61.6213 58.4168 61.9272 58.759 62.2021C59.1013 62.4769 59.4695 62.7206 59.8687 62.8865C60.2629 63.0577 60.6933 63.1303 61.0459 63.1043C61.4089 63.0888 61.6526 63.0006 61.8185 62.9488C61.9845 62.8969 62.0674 62.8554 62.0674 62.8554C62.0674 62.8554 62.4875 62.6999 63.0423 62.3421C63.5972 61.9843 64.2972 61.4294 64.9506 60.7034C65.604 59.9774 66.2263 59.1011 66.5633 58.0795C66.7293 57.5662 66.7915 57.0217 66.7552 56.529C66.7241 56.0312 66.5789 55.606 66.4389 55.2638C66.164 54.6311 65.8581 54.237 65.6247 53.9466C65.3862 53.6666 65.2099 53.4903 65.0751 53.3555C64.2661 52.5828 63.509 52.1732 62.7779 51.862C62.0467 51.5613 61.3155 51.3746 60.434 51.2501Z" fill="#1B1B1B"/>
<path d="M52.9776 50.7574C52.9776 50.7574 45.5674 52.4687 46.7135 56.8816C47.289 59.0907 49.4203 61.3568 50.7634 61.7353C52.1064 62.1139 53.4962 60.7086 54.3259 60.273C54.3259 60.273 56.2549 58.1002 55.7363 52.8887L52.9776 50.7574Z" fill="#E2CA55"/>
<path d="M52.9775 50.7574C52.0908 50.7626 51.3389 50.8508 50.5662 51.053C49.7988 51.2656 48.995 51.5716 48.0927 52.2302C47.9423 52.3442 47.7453 52.4998 47.4705 52.7435C47.206 53.0028 46.8482 53.345 46.4904 53.9414C46.3089 54.2629 46.1066 54.6674 46.0081 55.1548C45.9044 55.6371 45.894 56.1867 45.9926 56.7157C46.1948 57.7735 46.6978 58.7225 47.2475 59.5314C47.7971 60.3352 48.4194 60.9782 48.9224 61.4034C49.4254 61.8338 49.8195 62.0413 49.8195 62.0413C49.8195 62.0413 49.8921 62.0931 50.0529 62.1657C50.2084 62.2383 50.4366 62.3576 50.7996 62.425C51.1522 62.4924 51.5826 62.4768 51.9975 62.3628C52.4123 62.2487 52.8116 62.0568 53.1901 61.8286C53.5635 61.6057 53.9265 61.3412 54.2636 61.1079L54.5073 60.9471L54.7043 60.8278C54.808 60.7863 54.8547 60.6723 54.9273 60.5997C55.1192 60.3456 55.2177 60.1693 55.3422 59.9463C55.7985 59.101 56.0526 58.2402 56.2081 57.5143C56.5452 55.8756 56.4934 54.8489 56.4882 54.3251C56.4778 54.0555 56.4778 53.8014 56.4467 53.5628C56.4104 53.2517 56.3793 52.9561 56.343 52.6657C56.3637 52.5465 56.2444 52.5102 56.1667 52.4479L55.9229 52.2768C55.8244 52.2094 55.8192 52.2094 55.7674 52.1731L55.6377 52.0953C55.4666 51.9916 55.3007 51.8931 55.1295 51.7997C54.4606 51.4212 53.7865 51.1101 52.9775 50.7574C53.5272 51.4523 53.9991 52.0227 54.5332 52.5776C54.668 52.7176 54.8029 52.8524 54.9481 52.9924L55.0569 53.0961C55.0829 53.1221 55.1555 53.1843 55.1399 53.1791C55.1399 53.1947 55.1451 53.1999 55.1399 53.2154L55.1295 53.231L55.1244 53.2413V53.3191C55.1295 53.428 55.1295 53.5369 55.1347 53.6458C55.1503 53.8688 55.1399 54.1021 55.1451 54.351C55.1451 54.8333 55.1814 55.7823 54.8858 57.2342C54.751 57.8721 54.5176 58.6292 54.1547 59.3085C54.0665 59.464 53.9472 59.6611 53.8746 59.7544L53.7917 59.8011L53.4961 59.9981C53.1227 60.2522 52.8012 60.4908 52.4849 60.6775C51.8574 61.0664 51.3285 61.1804 51.0329 61.1079C50.8826 61.0871 50.7374 61.0145 50.6337 60.9678C50.5351 60.9212 50.4781 60.8849 50.4781 60.8849C50.4781 60.8849 50.2033 60.7449 49.7832 60.3871C49.3684 60.0344 48.8239 59.4744 48.352 58.7743C47.8749 58.0847 47.4549 57.2394 47.3149 56.4823C47.1697 55.7356 47.3719 55.077 47.6468 54.6311C48.1757 53.8014 48.6579 53.5058 48.8913 53.3088C49.6432 52.7435 50.3173 52.3598 50.9448 51.9605C51.5878 51.5664 52.1997 51.1775 52.9775 50.7574Z" fill="#1B1B1B"/>
<path d="M60.0865 46.2615C60.0865 46.2615 67.8804 38.452 70.9036 44.8821C73.9268 51.3123 70.3436 56.2489 68.1552 57.4468C68.1552 57.4468 63.9653 58.7535 59.6924 52.2612L60.0865 46.2615Z" fill="#E2CA55"/>
<path d="M60.0868 46.2615C61.1083 45.6755 61.9847 45.2555 62.8714 44.8147C63.7633 44.3843 64.676 43.9073 65.8324 43.5132C66.0294 43.4509 66.2835 43.368 66.6517 43.3057C67.0147 43.2487 67.5021 43.1968 68.0725 43.3317C68.7207 43.4924 69.4934 44.0369 70.0016 45.1051C70.5253 46.1941 70.9505 47.4853 71.0906 48.6676C71.2513 49.8603 71.132 50.9596 70.9505 51.7219C70.7794 52.4894 70.5927 52.9509 70.5927 52.9509C70.5927 52.9509 70.5513 53.0442 70.4838 53.2205C70.4475 53.3087 70.4061 53.4124 70.3542 53.5369C70.292 53.6561 70.2246 53.791 70.1468 53.9413C69.8356 54.5325 69.3171 55.3363 68.5755 56.0311C68.4874 56.1245 68.3889 56.2023 68.2903 56.2748C68.1918 56.3474 68.0933 56.446 67.9896 56.4978L67.8392 56.5912C67.8133 56.6067 67.8133 56.6067 67.8133 56.6067L67.7303 56.6171C67.6733 56.6275 67.6162 56.6327 67.554 56.6378C67.0665 56.6793 66.5221 56.6223 66.0087 56.4823C64.9664 56.223 64.033 55.6111 63.3122 55.0459C62.9492 54.7296 62.6121 54.4495 62.3425 54.1488C62.2025 54.0036 62.0728 53.8687 61.9484 53.7443C61.8343 53.6043 61.7254 53.4746 61.6269 53.3554C61.212 52.8783 60.9476 52.4842 60.7609 52.2197C60.7142 52.1523 60.6675 52.0901 60.6209 52.0227C60.6105 52.0123 60.6053 52.0071 60.6053 52.0071H60.6001C60.6001 52.0019 60.595 52.0331 60.6001 51.919C60.6105 51.6078 60.6157 51.3123 60.6105 51.0322C60.6105 50.4618 60.5846 49.9381 60.5431 49.4247C60.4498 48.398 60.2942 47.4231 60.0868 46.2615C59.729 47.3868 59.4438 48.3306 59.226 49.3366C59.1171 49.8396 59.0237 50.3581 58.9459 50.9233C58.9096 51.2034 58.8733 51.4989 58.8422 51.8049C58.8319 51.9293 58.8215 52.059 58.8111 52.1886C58.8163 52.339 58.7333 52.5205 58.8733 52.6398C59.0082 52.8368 59.1482 53.0391 59.2934 53.2465C59.4956 53.5369 59.7808 53.9673 60.2475 54.5066C60.3616 54.6414 60.4809 54.7866 60.6105 54.9422C60.7505 55.0874 60.9009 55.2429 61.0565 55.4089C61.3624 55.7459 61.7513 56.0778 62.1766 56.446C63.027 57.1149 64.1574 57.872 65.542 58.2246C66.2265 58.4113 66.9576 58.4995 67.7096 58.4321C67.8029 58.4269 67.8962 58.4165 67.9948 58.3958L68.1451 58.3698L68.3629 58.318C68.5185 58.292 68.643 58.1935 68.7467 58.1313L68.98 57.9861C69.1408 57.8928 69.26 57.7735 69.4001 57.6698C69.5401 57.5661 69.6645 57.4572 69.7786 57.3431C70.7328 56.4512 71.3395 55.4918 71.718 54.771C71.8113 54.5895 71.8943 54.4288 71.9669 54.2836C72.0291 54.1332 72.081 54.0088 72.1225 53.905C72.2054 53.6976 72.2573 53.5835 72.2573 53.5835C72.2573 53.5835 72.4855 53.0339 72.6929 52.1108C72.8122 51.6493 72.8744 51.0893 72.9366 50.467C72.9418 50.1559 72.947 49.8292 72.947 49.4921C72.9418 49.1551 72.8951 48.8076 72.8692 48.455C72.6981 47.0342 72.2262 45.5822 71.6039 44.2858C71.2772 43.6169 70.8209 42.9894 70.266 42.5123C69.7164 42.0301 69.0785 41.7345 68.5237 41.5893C67.554 41.3611 66.8539 41.4597 66.3509 41.5375C65.8479 41.6308 65.5212 41.7345 65.2723 41.8175C63.8307 42.3257 62.9077 43.0205 62.1247 43.7361C61.3469 44.4673 60.7142 45.2607 60.0868 46.2615Z" fill="#1B1B1B"/>
<path d="M60.9061 49.2327C60.9061 49.2327 62.8766 48.4082 66.1539 50.1921Z" fill="#C30D23"/>
<path d="M60.9059 49.2328C61.2844 49.5543 61.44 49.7669 61.7045 49.741C61.8445 49.7254 62.2749 49.6995 62.6845 49.741C63.0942 49.7721 63.4624 49.8603 63.4624 49.8603C63.4624 49.8603 63.8306 49.9432 64.235 50.078C64.6343 50.2181 65.0647 50.4047 65.2099 50.467C65.4744 50.581 65.7181 50.4514 66.1537 50.1921C66.1278 49.6995 66.0655 49.4039 65.7751 49.2535C65.6196 49.1758 65.1321 48.958 64.6654 48.8024C64.1987 48.652 63.7528 48.5535 63.7528 48.5535C63.7528 48.5535 63.312 48.4446 62.809 48.3979C62.306 48.3409 61.7356 48.3772 61.5489 48.4083C61.2015 48.4601 61.0148 48.7402 60.9059 49.2328Z" fill="#1B1B1B"/>
<path d="M53.9833 45.857C53.9833 45.857 47.2887 37.0882 43.441 43.0619C39.5933 49.0357 42.4973 54.4028 44.5093 55.8807C44.5093 55.8807 48.4918 57.7267 53.584 51.8567L53.9833 45.857Z" fill="#E2CA55"/>
<path d="M53.9835 45.8569C53.4908 44.7835 52.9671 43.9123 52.2981 43.0878C51.6137 42.2736 50.7891 41.4647 49.4305 40.7698C49.1972 40.6557 48.886 40.5105 48.3986 40.3498C47.9112 40.2046 47.2267 40.0127 46.2362 40.1113C45.6658 40.1787 44.9917 40.3913 44.385 40.7957C43.7731 41.195 43.2389 41.7551 42.8241 42.3722C42.0307 43.5752 41.3721 44.9494 41.0195 46.3391C40.9469 46.6866 40.8536 47.0236 40.8017 47.3555C40.7602 47.6926 40.7239 48.0141 40.6876 48.3252C40.6669 48.9475 40.6565 49.5127 40.7136 49.9846C40.8017 50.9284 40.9521 51.504 40.9521 51.504C40.9521 51.504 40.9832 51.6232 41.0403 51.841C41.0714 51.9499 41.1025 52.0847 41.144 52.2403C41.1958 52.3907 41.2581 52.5618 41.3255 52.7537C41.6055 53.516 42.0774 54.5479 42.9071 55.5591C43.0056 55.6887 43.1197 55.8132 43.2389 55.9324C43.3634 56.0517 43.4671 56.1865 43.6123 56.3006L43.8249 56.4769C43.9234 56.5495 44.0272 56.6688 44.1775 56.7103L44.3901 56.7881L44.5353 56.8295C44.6287 56.8607 44.722 56.8814 44.8154 56.9021C45.5517 57.0681 46.2881 57.0733 46.9933 56.9851C48.4142 56.8192 49.6328 56.2228 50.5662 55.668C51.0381 55.3568 51.4685 55.082 51.8159 54.7864C51.9922 54.6464 52.1633 54.5116 52.3189 54.3871C52.4641 54.2523 52.6041 54.1227 52.7337 54.0034C53.2679 53.5315 53.6049 53.1426 53.8434 52.8833C54.0146 52.6966 54.1805 52.5151 54.3413 52.3388C54.4968 52.2403 54.4346 52.0484 54.4605 51.8981C54.4657 51.7684 54.4709 51.6388 54.4761 51.5143C54.4865 51.2032 54.4916 50.9076 54.4865 50.6276C54.4865 50.0572 54.4605 49.5334 54.419 49.0201C54.3465 47.9933 54.1909 47.0184 53.9835 45.8569C53.6257 46.9821 53.3404 47.9259 53.1227 48.9319C53.0138 49.4349 52.9204 49.9535 52.8426 50.5187C52.8063 50.7987 52.77 51.0943 52.7389 51.4002C52.7285 51.5091 52.7285 51.4832 52.7234 51.4832H52.7182C52.7182 51.4832 52.713 51.4884 52.6974 51.4988L52.5315 51.6751C52.3085 51.9084 51.9974 52.2662 51.5203 52.6863C51.4062 52.7952 51.2818 52.9092 51.1469 53.0337C51.0069 53.1426 50.8617 53.2619 50.701 53.3863C50.395 53.6456 50.0269 53.8841 49.6224 54.1486C48.8342 54.6153 47.8282 55.0976 46.7651 55.2168C46.2362 55.2894 45.6917 55.2739 45.2147 55.1702C45.1524 55.1598 45.0954 55.1442 45.0435 55.1287L44.9606 55.1079C44.9606 55.1079 44.9606 55.1079 44.9398 55.0872L44.7998 54.9731C44.7065 54.9057 44.6235 54.7968 44.5353 54.7138C44.4472 54.6257 44.359 54.5375 44.2864 54.4338C43.6382 53.6508 43.2338 52.7848 43.0004 52.1573C42.9434 51.9966 42.8915 51.8566 42.8448 51.7321C42.8085 51.6025 42.7826 51.4936 42.7567 51.4002C42.71 51.2188 42.6841 51.1202 42.6841 51.1202C42.6841 51.1202 42.5596 50.6432 42.487 49.8549C42.4041 49.0719 42.4352 47.9674 42.7515 46.8058C43.0471 45.6494 43.6382 44.4257 44.302 43.4145C44.945 42.424 45.7851 41.9832 46.4488 41.9106C47.0296 41.8484 47.5015 41.9677 47.8593 42.0714C48.2171 42.1855 48.4608 42.2996 48.6475 42.3877C49.7417 42.927 50.5869 43.5234 51.4114 44.0678C52.2359 44.6071 53.0449 45.1361 53.9835 45.8569Z" fill="#1B1B1B"/>
<path d="M58.7596 53.0028L54.8756 52.7435C53.574 52.6554 52.5888 51.5301 52.6717 50.2285L52.8273 47.8535C52.9155 46.5519 54.0407 45.5667 55.3423 45.6497L59.2263 45.9089C60.5279 45.9971 61.5132 47.1224 61.4302 48.4239L61.2746 50.7989C61.1865 52.1057 60.0612 53.091 58.7596 53.0028Z" fill="#E2CA55"/>
<path d="M58.7596 53.0027C57.9144 52.7331 57.2091 52.5205 56.452 52.3597C56.0735 52.2767 55.6846 52.2093 55.2645 52.1523C55.1556 52.1367 55.0519 52.1264 54.943 52.1108C54.8497 52.0901 54.7771 52.0901 54.6941 52.0641C54.5282 52.0278 54.3674 51.9604 54.2067 51.8671C54.0978 51.81 53.9578 51.7115 53.797 51.5404C53.6363 51.3693 53.4444 51.0996 53.3718 50.6848C53.3511 50.6018 53.3511 50.5085 53.3459 50.4099C53.3459 50.3581 53.351 50.301 53.351 50.244C53.3562 50.1714 53.3614 50.0936 53.3666 50.021C53.3873 49.7151 53.4081 49.3832 53.434 49.0358C53.4548 48.6883 53.4807 48.3305 53.5066 47.9727C53.5222 47.6771 53.5844 47.4542 53.7037 47.226C53.9318 46.7852 54.3363 46.5208 54.6423 46.4171C54.9534 46.3185 55.1608 46.3237 55.1608 46.3237C55.0727 46.3082 56.0631 46.3807 57.261 46.4585C57.8677 46.5 58.5366 46.5467 59.1848 46.5882C59.6567 46.6141 60.0716 46.8526 60.3256 47.1378C60.7094 47.5631 60.7872 48.0401 60.7664 48.4083C60.7353 48.9113 60.7094 49.2795 60.6938 49.5336C60.6835 49.7877 60.6679 50.0314 60.6575 50.2647C60.6523 50.4774 60.6472 50.6848 60.642 50.887C60.6368 51.2033 60.5434 51.4937 60.4138 51.7737C60.1338 52.3079 59.636 52.8264 58.7596 53.0027C59.61 53.2724 60.5538 53.0287 61.1968 52.3597C61.5131 52.0227 61.7724 51.5819 61.8709 51.053L61.9021 50.8507L61.9228 50.6848C61.9332 50.5759 61.9487 50.4618 61.9591 50.3477C61.9798 50.1144 62.0006 49.8706 62.0213 49.6165C62.0369 49.3625 62.0628 48.9943 62.0991 48.4913C62.1458 47.8742 62.0006 46.9771 61.3109 46.22C60.8701 45.717 60.1079 45.2814 59.2678 45.2347C58.6144 45.1933 57.9455 45.1466 57.3388 45.1103C56.115 45.0325 55.2127 44.9651 55.1245 44.9806C55.1245 44.9806 55.0312 44.9806 54.8704 44.9962C54.7045 45.0118 54.4711 45.0532 54.1911 45.1414C53.6414 45.3281 52.9206 45.7948 52.5058 46.583C52.2932 46.9615 52.1739 47.449 52.1532 47.869C52.1273 48.2268 52.1065 48.5898 52.0806 48.9321C52.0598 49.2795 52.0339 49.6114 52.0132 49.9173C52.008 49.9951 52.0028 50.0677 51.9976 50.1403C51.9976 50.2284 51.9924 50.3166 51.9924 50.4048C51.9976 50.5811 52.008 50.7522 52.0391 50.9026C52.1739 51.6545 52.5214 52.1367 52.8066 52.4427C53.1021 52.7538 53.3511 52.9146 53.5481 53.0235C53.8385 53.1842 54.1341 53.2879 54.4296 53.3346C54.5748 53.3657 54.7252 53.3657 54.8549 53.3761C54.9638 53.3761 55.0727 53.3761 55.1816 53.3761C55.6068 53.3761 56.0009 53.3553 56.3898 53.3242C57.1573 53.2776 57.8884 53.1635 58.7596 53.0027Z" fill="#1B1B1B"/>
<path d="M55.7983 50.4202C55.7983 50.4202 57.4733 49.0927 57.494 45.3643Z" fill="#C30D23"/>
<path d="M55.7983 50.4203C56.2806 50.5654 56.6176 50.5343 56.8303 50.2543C56.9495 50.1039 57.2555 49.6217 57.4473 49.155C57.6496 48.6883 57.7688 48.2527 57.7688 48.2527C57.7688 48.2527 57.8985 47.8171 57.9918 47.3348C58.08 46.8526 58.1266 46.3185 58.1318 46.1422C58.1422 45.8155 57.9089 45.6184 57.494 45.3591C57.0584 45.6132 56.8251 45.7636 56.7991 46.0488C56.7836 46.2044 56.7421 46.6711 56.6695 47.0911C56.5917 47.506 56.488 47.8741 56.488 47.8741C56.488 47.8741 56.3843 48.2423 56.2184 48.6157C56.0576 48.9942 55.8243 49.3624 55.7465 49.4765C55.5909 49.6995 55.6998 49.9328 55.7983 50.4203Z" fill="#1B1B1B"/>
<path d="M52.7759 48.6936C52.7759 48.6936 50.9298 47.615 47.4503 48.9477Z" fill="#C30D23"/>
<path d="M52.7754 48.6935C52.7339 48.1905 52.5835 47.8898 52.2465 47.7964C52.065 47.7394 51.5049 47.6305 50.9968 47.6201C50.4886 47.5994 50.0374 47.6512 50.0374 47.6512C50.0374 47.6512 49.5863 47.6875 49.0988 47.7757C48.6166 47.869 48.1032 48.0194 47.9373 48.0765C47.6313 48.1854 47.5328 48.4758 47.4395 48.958C47.8336 49.2743 48.0565 49.4351 48.3366 49.3573C48.4869 49.3158 48.9381 49.1862 49.3529 49.1032C49.7678 49.0254 50.1463 48.9891 50.1463 48.9891C50.1463 48.9891 50.5249 48.9528 50.9345 48.9736C51.3442 48.9891 51.7746 49.0721 51.9094 49.1032C52.1791 49.1499 52.3554 48.9632 52.7754 48.6935Z" fill="#1B1B1B"/>
<path opacity="0.7" d="M32.3884 43.098C32.461 44.2855 33.1403 47.8636 33.1403 47.8636C33.1403 47.8636 34.6545 52.2817 34.7167 52.4372C34.779 52.5928 33.8974 47.7547 33.8974 47.7547L32.3884 43.098Z" fill="white"/>
<path opacity="0.7" d="M29.215 49.4348C30.4025 49.0873 33.939 47.9673 33.939 47.9673C33.939 47.9673 37.4756 45.8671 37.5689 45.8049C37.5949 45.7841 33.5708 47.4435 33.5708 47.4435L29.215 49.4348Z" fill="white"/>
<path d="M34.4366 47.5213C33.944 46.676 34.7581 45.4056 34.9396 45.0219C34.8826 45.1307 34.8255 45.25 34.7581 45.3848C34.784 45.3226 34.8152 45.2604 34.8203 45.25C34.8618 45.167 34.8981 45.0944 34.9344 45.0219C34.8774 45.1307 34.784 45.2967 34.6544 45.4834C34.6544 45.4834 33.7573 46.7175 33.2336 46.8057C32.0461 46.9976 29.92 45.7738 30.7497 46.2145C33.5551 47.6976 32.3883 50.0052 32.0305 50.7727C32.0824 50.6689 32.1498 50.5393 32.2224 50.3889C32.212 50.42 32.2016 50.4408 32.1964 50.4563C32.1342 50.5808 32.0824 50.6845 32.0357 50.7727C33.0002 49.0096 33.5654 47.8739 36.1167 48.9681C36.9568 49.3259 35.007 48.5066 34.4366 47.5213Z" fill="white"/>
<path opacity="0.7" d="M62.7041 46.9922C62.7767 48.1797 63.456 51.7577 63.456 51.7577C63.456 51.7577 64.9702 56.1758 65.0324 56.3314C65.0947 56.487 64.2131 51.6488 64.2131 51.6488L62.7041 46.9922Z" fill="white"/>
<path opacity="0.7" d="M59.5308 53.3287C60.7183 52.9813 64.2548 51.8612 64.2548 51.8612C64.2548 51.8612 67.7914 49.761 67.8847 49.6988C67.9107 49.6781 63.8866 51.3374 63.8866 51.3374L59.5308 53.3287Z" fill="white"/>
<path d="M64.7581 51.4153C64.2655 50.5701 65.0796 49.2996 65.2611 48.9159C65.2041 49.0248 65.1471 49.1441 65.0796 49.2789C65.1056 49.2167 65.1367 49.1544 65.1419 49.1441C65.1834 49.0611 65.2197 48.9885 65.256 48.9159C65.1989 49.0248 65.1056 49.1907 64.9759 49.3774C64.9759 49.3774 64.0788 50.6116 63.5551 50.6997C62.3676 50.8916 60.2415 49.6678 61.0712 50.1086C63.8766 51.5917 62.7098 53.8992 62.352 54.6667C62.4039 54.563 62.4713 54.4333 62.5439 54.283C62.5335 54.3141 62.5232 54.3348 62.518 54.3504C62.4557 54.4748 62.4039 54.5785 62.3572 54.6667C63.3217 52.9036 63.887 51.768 66.4383 52.8621C67.2783 53.2199 65.3286 52.4006 64.7581 51.4153Z" fill="white"/>
</svg>
