<svg width="47" height="40" viewBox="0 0 47 40" fill="none" xmlns="http://www.w3.org/2000/svg">
<path d="M10.5 36.8935V37.3935H11H12.9363H13.4363V36.8935V34.1768H16.367V36.8935V37.3935H16.867H18.7988H19.2988V36.8935V29.1065V28.6065H18.7988H16.867H16.367V29.1065V31.8194H13.4363V29.1065V28.6065H12.9363H11H10.5V29.1065V36.8935ZM26.9219 36.9827L26.9226 36.9824C27.6542 36.6286 28.2388 36.1113 28.6656 35.4348C29.1044 34.7441 29.3111 33.9244 29.3111 33C29.3111 32.0756 29.1044 31.2559 28.6656 30.5653C28.2388 29.8887 27.6541 29.3725 26.9222 29.0212C26.1995 28.6703 25.3964 28.5 24.5226 28.5C23.6434 28.5 22.8369 28.6701 22.1136 29.0214C21.3843 29.3731 20.8013 29.8896 20.3747 30.566C19.9392 31.2566 19.7342 32.076 19.7342 33C19.7342 33.9218 19.9394 34.7398 20.3747 35.4302C20.8012 36.1065 21.3841 36.6241 22.113 36.9782C22.8364 37.3298 23.6431 37.5 24.5226 37.5C25.3962 37.5 26.1993 37.331 26.9219 36.9827ZM26.111 31.8338L26.111 31.8338L26.1124 31.8366C26.2609 32.1259 26.348 32.5066 26.348 33C26.348 33.4934 26.2609 33.8741 26.1124 34.1634L26.111 34.1662C25.9623 34.4605 25.7605 34.671 25.5037 34.8146C25.2414 34.9614 24.9199 35.0437 24.5226 35.0437C24.1254 35.0437 23.8039 34.9614 23.5415 34.8146C23.2845 34.6708 23.0808 34.4599 22.9291 34.1648C22.783 33.8749 22.6973 33.4936 22.6973 33C22.6973 32.5064 22.783 32.1251 22.9291 31.8352C23.0808 31.5401 23.2845 31.3292 23.5415 31.1854C23.8039 31.0386 24.1254 30.9563 24.5226 30.9563C24.9199 30.9563 25.2414 31.0386 25.5037 31.1854C25.7605 31.329 25.9623 31.5395 26.111 31.8338ZM28.9785 30.4639V30.9639H29.4785H31.7823V36.8935V37.3935H32.2823H34.1962H34.6962V36.8935V30.9639H37H37.5V30.4639V29.1065V28.6065H37H29.4785H28.9785V29.1065V30.4639Z" stroke="#454545"/>
<mask id="mask0_2615_10644" style="mask-type:alpha" maskUnits="userSpaceOnUse" x="11" y="5" width="27" height="22">
<rect x="11" y="5" width="27" height="22" fill="#D9D9D9"/>
</mask>
<g mask="url(#mask0_2615_10644)">
<path d="M31.8955 20.1459C32.9247 18.627 33.5265 16.7927 33.5265 14.8215C33.5265 9.57181 29.252 5.29736 24.0023 5.29736C18.7485 5.29736 14.4782 9.57181 14.4782 14.8215C14.4782 16.8799 15.138 18.7847 16.2502 20.3451L11.2827 27.5079L15.9141 26.6696L16.7524 31.301L21.7572 24.08C22.4751 24.2543 23.2263 24.3498 24.0023 24.3498C24.8614 24.3498 25.6913 24.2336 26.484 24.0219L31.5303 31.3051L32.3686 26.6738L37 27.5121L31.8955 20.1459ZM22.5291 22.9637C22.3257 22.9264 22.1224 22.8807 21.9273 22.8309C21.9024 22.8226 21.8775 22.8185 21.8526 22.8102C21.6493 22.7562 21.4501 22.694 21.255 22.6234C19.9105 22.1503 18.7277 21.3411 17.8023 20.2911C17.6653 20.1334 17.5325 19.9716 17.4039 19.8056C17.3914 19.789 17.379 19.7765 17.3707 19.7599C17.2462 19.5939 17.1258 19.4196 17.0138 19.2453C16.2004 17.963 15.7273 16.4524 15.7273 14.8215C15.7232 10.2483 19.4291 6.54235 24.0023 6.54235C28.5756 6.54235 32.2815 10.2483 32.2815 14.8215C32.2815 16.3611 31.854 17.797 31.1236 19.0296C31.0116 19.2163 30.8954 19.3989 30.7709 19.5773C30.7418 19.6188 30.7086 19.6603 30.6796 19.7018C30.5758 19.8429 30.4762 19.984 30.3642 20.1168C30.2314 20.2787 30.0861 20.4322 29.9409 20.5816C29.8786 20.648 29.8122 20.7103 29.7458 20.7767C29.6463 20.8763 29.5384 20.9676 29.4346 21.0589C29.3101 21.1668 29.1773 21.2747 29.0445 21.3743C28.9615 21.4407 28.8744 21.5029 28.7872 21.5652C28.671 21.644 28.5548 21.7229 28.4386 21.7976C28.393 21.8266 28.3473 21.8515 28.3017 21.8806C28.0361 22.0424 27.7622 22.1918 27.4758 22.3205C27.4717 22.3205 27.4675 22.3246 27.4634 22.3246C27.3015 22.3993 27.1397 22.4657 26.9778 22.5321C26.5753 22.6898 26.1561 22.8185 25.7245 22.9098C25.1685 23.026 24.5958 23.0924 24.0023 23.0924C23.5002 23.1048 23.0105 23.0509 22.5291 22.9637Z" fill="#454545"/>
<path fill-rule="evenodd" clip-rule="evenodd" d="M24.0023 8.46802C27.5048 8.46802 30.3558 11.319 30.3558 14.8216C30.3558 18.3242 27.5048 21.1752 24.0023 21.1752C20.4997 21.1752 17.6487 18.3242 17.6487 14.8216C17.6487 11.319 20.4997 8.46802 24.0023 8.46802ZM25.3867 13.3154L24.3222 10.0391L23.2576 13.3154H19.8126L22.5997 15.3404L21.5351 18.6167L24.3222 16.5918L27.1092 18.6167L26.0447 15.3404L28.8317 13.3154H25.3867Z" fill="#454545"/>
</g>
</svg>
