<svg width="47" height="40" viewBox="0 0 47 40" fill="none" xmlns="http://www.w3.org/2000/svg">
<path d="M8.18018 12.163V12.4774V20.2366V20.551V22.714H16.8328V20.2366H10.7358V12.4774H16.8328V10H8.18018V12.163Z" fill="#454545"/>
<path d="M19.3567 12.4774H22.4052V22.714H24.9608V12.4774H28.0093V10H19.3567V12.4774Z" fill="#454545"/>
<path d="M38.8196 12.4774V10H30.167V12.163V12.4774V20.2366V20.551V22.714H38.8196V20.2366H32.7226V12.4774H38.8196Z" fill="#454545"/>
<path d="M14.8264 17.4826L16.8328 18.606V16.3592V14.1123L14.8264 15.2357L12.8157 16.3592L14.8264 17.4826Z" fill="#454545"/>
<path d="M20.6309 33.5626C20.6309 33.9329 20.7091 34.2754 20.8655 34.5759C20.9508 34.7506 21.0575 34.8414 21.1713 34.8414C21.2353 34.8414 21.2993 34.8204 21.3704 34.7715C21.4415 34.7226 21.4984 34.6667 21.5411 34.6038C21.9464 33.9749 22.2664 33.0944 22.5081 31.9763L22.7001 31.1377C22.1597 31.3124 21.7544 31.5151 21.4771 31.7387C20.9153 32.1859 20.638 32.7939 20.638 33.5626H20.6309Z" fill="#454545"/>
<path d="M36.0471 34.492C36.1111 34.2753 36.1467 34.0307 36.168 33.7442C36.2036 33.29 36.2107 32.8218 36.1894 32.3606C36.1894 32.2418 36.1822 32.0391 36.1965 31.6408L36.2249 30.97L35.6205 30.6625L34.8525 30.2711L34.3263 29.9986V28.4193H31.226V28.7757L30.7851 28.6359L29.754 28.3075L28.7798 28L28.4243 28.9434C28.1043 29.8029 27.7772 30.5437 27.4501 31.1936C27.2723 30.8791 27.0661 30.5786 26.803 30.3201C25.9781 29.5374 24.8617 29.1391 23.4751 29.1391C22.0885 29.1391 20.837 29.5793 19.9197 30.4458C19.7063 30.6415 19.5286 30.8581 19.365 31.0748V30.8861L18.2415 30.97L17.8931 30.9979L18.3197 30.6765L17.6157 29.8379L16.8193 28.8875L16.3856 28.3704L15.7243 28.5451C15.0701 28.7198 14.3447 28.8036 13.5697 28.8036C13.3634 28.8036 13.079 28.7966 12.7306 28.7757L11.5999 28.7058V31.4591L11.0311 31.4941L10 31.557L10.0356 32.5772L10.0711 33.5625L10.1067 34.6737L11.2302 34.5758L12.247 34.485C12.2399 34.5688 12.2328 34.6527 12.2328 34.7365C12.2328 35.2816 12.4106 35.7987 12.7519 36.2669C13.1003 36.7282 13.5625 37.0915 14.1385 37.3501C14.807 37.6576 15.7243 37.8183 16.9331 37.8532L18.0282 37.8812V34.5758H16.094C15.9162 34.5758 15.7527 34.5479 15.5963 34.478C15.6603 34.4221 15.7883 34.3312 16.03 34.2055L18.3908 34.1426H18.5544C18.6042 34.5968 18.725 35.051 18.917 35.4843C19.5286 36.8539 20.4743 37.0636 20.9863 37.0636C21.4556 37.0636 21.8894 36.9168 22.3018 36.6233C22.3587 36.7491 22.4014 36.8749 22.444 37.0077L22.7498 37.993L23.7595 37.7135C25.004 37.3641 25.8715 36.9867 26.419 36.5465C26.8883 36.1691 27.2439 35.7219 27.4999 35.2187L27.635 35.5891V37.979H30.7709V37.7484C31.0411 37.8602 31.3326 37.9161 31.6384 37.9161H34.3405C35.4712 37.9161 36.0258 37.441 36.2818 37.0356C36.488 36.7142 36.6445 36.2879 36.7796 35.7289L37.0071 34.7505L36.0543 34.492H36.0471ZM15.7669 33.1712C15.3687 33.3599 15.0701 33.5416 14.8781 33.7163C14.5581 33.9958 14.4016 34.2823 14.4016 34.5828C14.4016 34.8833 14.5794 35.1419 14.9349 35.3305C15.3047 35.5262 15.6887 35.624 16.1011 35.624H16.9687V36.805C15.9162 36.7771 15.1198 36.6373 14.5865 36.3927C14.1741 36.2041 13.847 35.9525 13.6123 35.645C13.399 35.3585 13.2923 35.051 13.2923 34.7296C13.2923 34.2753 13.5483 33.7862 14.0603 33.2621L11.1306 33.5276L11.0951 32.5423L12.1617 32.4794C13.4488 31.7456 14.4301 31.1237 15.0914 30.6136C14.295 30.7603 13.4843 30.8721 12.6595 30.942V29.8309C13.0292 29.8519 13.3279 29.8658 13.5625 29.8658C14.4372 29.8658 15.2478 29.768 15.9945 29.5723L16.7909 30.5227C15.902 31.1936 15.0132 31.8085 14.1243 32.3536L18.3268 32.0252L18.3624 33.1083L15.7598 33.1712H15.7669ZM25.7435 35.7358C25.3168 36.0783 24.5631 36.3997 23.468 36.7072C23.3542 36.3368 23.1978 35.9874 22.9987 35.659C23.5107 35.5681 23.8947 35.4703 24.1435 35.3725C25.2244 34.9532 25.7648 34.2124 25.7648 33.1642C25.7648 32.4444 25.5159 31.9064 25.0182 31.543C24.7764 31.3683 24.5133 31.2495 24.2218 31.1726C24.0938 31.1377 23.9444 31.1097 23.7738 31.0748C23.6031 31.8644 23.4467 32.5003 23.2902 32.9895C23.0911 33.6184 22.8494 34.1915 22.5578 34.7016C22.06 35.5821 21.541 36.0224 20.9934 36.0224C20.5525 36.0224 20.1828 35.7079 19.8983 35.072C19.6992 34.6247 19.5997 34.1635 19.5997 33.6813C19.5997 32.703 19.9552 31.8784 20.6663 31.2075C21.3845 30.5297 22.3231 30.1943 23.4822 30.1943C24.6413 30.1943 25.4448 30.4878 26.0635 31.0818C26.4261 31.4312 26.6608 31.8714 26.7888 32.3885C26.8528 32.6541 26.8954 32.9336 26.8954 33.2481C26.8954 33.3669 26.8741 33.4717 26.8599 33.5835C26.7817 34.471 26.419 35.1978 25.7364 35.7498L25.7435 35.7358ZM23.9231 34.3242C24.0653 33.9958 24.1933 33.6534 24.3071 33.29C24.3782 33.0594 24.4564 32.8008 24.5275 32.5073C24.6271 32.6261 24.7053 32.8218 24.7053 33.1572C24.7053 33.5765 24.6057 34.0028 23.9231 34.3242ZM29.7042 36.9308H28.7016V33.2411C28.5523 33.5206 28.3816 33.7792 28.2038 34.0307C28.1327 33.8351 28.0403 33.6324 27.9621 33.4368C27.9621 33.3739 27.9692 33.311 27.9692 33.2481C27.9692 33.0175 27.9407 32.8008 27.9123 32.5912C28.4314 31.7317 28.9363 30.6485 29.434 29.3208L30.4651 29.6492L29.6971 31.4521V36.9518L29.7042 36.9308ZM35.3858 36.4696C35.2152 36.7352 34.8667 36.8679 34.3405 36.8679H31.6384C31.4037 36.8679 31.1975 36.812 31.0126 36.6932C30.8989 36.6233 30.8278 36.5395 30.7851 36.4347C30.7353 36.3159 30.7069 36.1551 30.7069 35.9525V32.9406L29.9105 33.0734L29.7753 32.0881L30.7069 31.9273V30.3899H31.674V31.7666L32.3068 31.6338V29.4675H33.2739V31.4661L34.2765 31.3054L34.3761 31.2075L35.1441 31.5989C35.1298 31.9553 35.1227 32.2278 35.1369 32.4165C35.1583 32.8358 35.1512 33.2551 35.1156 33.6674C35.0801 34.1006 35.0018 34.3802 34.881 34.5129C34.7103 34.6387 34.3405 34.7505 33.7788 34.8414C33.729 34.5199 33.6294 34.1985 33.4801 33.891H33.8783C34.0561 33.891 34.1485 33.4228 34.1485 32.4794V32.2837L33.281 32.4444V35.1628H32.3139V32.6052L31.6811 32.7379V35.6869C31.6811 35.8826 31.7664 35.9804 31.9513 35.9804H33.985C34.2623 35.9804 34.433 35.9595 34.4827 35.9175C34.5041 35.9036 34.5183 35.8896 34.5254 35.8826C34.5965 35.7568 34.6747 35.4983 34.753 35.0999C35.0801 35.2676 35.4143 35.4004 35.7556 35.4913C35.656 35.9315 35.5352 36.26 35.4001 36.4696H35.3858Z" fill="#454545"/>
</svg>
