<svg width="66" height="66" viewBox="0 0 66 66" fill="none" xmlns="http://www.w3.org/2000/svg">
<path d="M47.634 51H33.018C28.212 51 23.676 49.128 20.274 45.726L17.196 42.648H17.826C15.972 39.804 15 36.474 15 33C15 28.194 16.872 23.676 20.274 20.274L20.85 19.752C24.162 16.674 28.464 15 33.018 15C37.806 15 42.306 16.854 45.708 20.238L45.762 20.274C49.11 23.658 51 28.284 51 33C51 34.908 50.712 36.78 50.118 38.58C49.56 40.326 48.714 41.982 47.616 43.512V51H47.634ZM23.352 43.692C26.016 46.086 29.418 47.4 33.018 47.4H44.034V43.422C44.034 42.702 44.25 42.036 44.664 41.478C45.582 40.254 46.266 38.904 46.716 37.482C47.166 36.042 47.4 34.53 47.4 33C47.4 29.22 45.888 25.53 43.26 22.866L44.466 21.534L43.188 22.812C40.47 20.094 36.852 18.6 33.018 18.6C29.166 18.6 25.548 20.094 22.848 22.812L22.326 23.334C19.914 25.98 18.6 29.4 18.6 33C18.6 36.852 20.112 40.47 22.83 43.17L23.352 43.692Z" fill="black"/>
</svg>
