<?xml version="1.0" encoding="utf-8"?>
<!-- Generator: Adobe Illustrator 25.0.1, SVG Export Plug-In . SVG Version: 6.00 Build 0)  -->
<svg version="1.1" id="圖層_1" xmlns="http://www.w3.org/2000/svg" xmlns:xlink="http://www.w3.org/1999/xlink" x="0px" y="0px"
	 viewBox="0 0 26 26" style="enable-background:new 0 0 26 26;" xml:space="preserve">
<style type="text/css">
	.st0{fill-rule:evenodd;clip-rule:evenodd;fill:#FFFFFF;}
</style>
<path class="st0" d="M12.9,8.9c0.4,0,0.9,0.1,1.3,0.3c0.4,0.2,0.7,0.5,1,0.9c0.2,0.4,0.1,1-0.3,1.2c-0.4,0.2-1,0.1-1.2-0.3
	c-0.1-0.1-0.2-0.2-0.3-0.3c-0.1-0.1-0.2-0.1-0.4-0.1c0,0,0,0,0,0h-1.6c-0.2,0-0.4,0.1-0.5,0.2c-0.1,0.1-0.2,0.3-0.2,0.5
	c0,0.2,0.1,0.4,0.2,0.5c0.1,0.1,0.3,0.2,0.5,0.2h1.6c0.7,0,1.3,0.3,1.8,0.7s0.7,1.1,0.7,1.8c0,0.7-0.3,1.3-0.7,1.8
	c-0.5,0.5-1.1,0.7-1.8,0.7h-1.6c-0.4,0-0.9-0.1-1.3-0.3c-0.4-0.2-0.7-0.5-1-0.9c-0.2-0.4-0.1-1,0.3-1.2c0.4-0.2,1-0.1,1.2,0.3
	c0.1,0.1,0.2,0.2,0.3,0.3c0.1,0.1,0.2,0.1,0.4,0.1c0,0,0,0,0,0h1.6c0.2,0,0.4-0.1,0.5-0.2s0.2-0.3,0.2-0.5c0-0.2-0.1-0.4-0.2-0.5
	s-0.3-0.2-0.5-0.2h-1.6c-0.7,0-1.3-0.3-1.8-0.7c-0.5-0.5-0.7-1.1-0.7-1.8c0-0.7,0.3-1.3,0.7-1.8c0.5-0.5,1.1-0.7,1.8-0.7H12.9z"/>
<path class="st0" d="M12.1,7.3c0.5,0,0.9,0.4,0.9,0.9v1.6c0,0.5-0.4,0.9-0.9,0.9c-0.5,0-0.9-0.4-0.9-0.9V8.2
	C11.2,7.7,11.6,7.3,12.1,7.3z M12.1,15.3c0.5,0,0.9,0.4,0.9,0.9v1.6c0,0.5-0.4,0.9-0.9,0.9c-0.5,0-0.9-0.4-0.9-0.9v-1.6
	C11.2,15.7,11.6,15.3,12.1,15.3z"/>
<path class="st0" d="M5.8,13c0-3.5,2.8-6.3,6.3-6.3c3.5,0,6.3,2.8,6.3,6.3c0,0.1,0,0.2,0,0.2c0.3-0.2,0.6-0.2,0.9-0.2
	c0.3,0,0.6,0.1,0.9,0.2c0-0.1,0-0.2,0-0.2c0-4.5-3.6-8.1-8.1-8.1C7.6,4.9,4,8.5,4,13c0,4.5,3.6,8.1,8.1,8.1c1.9,0,3.7-0.7,5.1-1.8
	h-0.6c-0.6,0-1.2-0.3-1.5-0.8c-0.9,0.5-1.9,0.8-3,0.8C8.6,19.3,5.8,16.5,5.8,13z"/>
<path class="st0" d="M20.3,14.8c0-0.5-0.4-0.9-0.9-0.9s-0.9,0.4-0.9,0.9v1.8h-1.8c-0.5,0-0.9,0.4-0.9,0.9s0.4,0.9,0.9,0.9h1.8v1.8
	c0,0.5,0.4,0.9,0.9,0.9s0.9-0.4,0.9-0.9v-1.8h1.8c0.5,0,0.9-0.4,0.9-0.9s-0.4-0.9-0.9-0.9h-1.8V14.8z"/>
</svg>
