<svg width="66" height="66" viewBox="0 0 66 66" fill="none" xmlns="http://www.w3.org/2000/svg">
<path d="M24.4998 48.1433L19.6776 49.5414C19.0785 49.7134 18.4425 49.6489 17.8878 49.3621C17.3331 49.0682 16.9263 48.595 16.7488 48.0142L8.6576 21.8517C8.2878 20.6472 8.99042 19.371 10.2403 19.0053L25.624 14.5386C25.8459 14.474 26.0752 14.4453 26.297 14.4453C27.3103 14.4453 28.2496 15.0835 28.5528 16.0729L30.4462 22.203L32.4727 16.754L31.955 15.0835C31.0157 12.0578 27.7171 10.3371 24.596 11.2405L9.2123 15.7072C6.09119 16.6178 4.31615 19.8155 5.24805 22.8411L13.3393 49.0036C13.7904 50.4663 14.8037 51.6708 16.2015 52.3949C17.0816 52.8538 18.0357 53.0832 19.0046 53.0832C19.5741 53.0832 20.1436 53.0044 20.6983 52.8395L27.7984 50.7746C26.4376 50.1867 25.3134 49.2618 24.4998 48.1433Z" fill="#454545"/>
<path d="M46.2366 54.3165C45.608 54.3165 44.9645 54.2161 44.3433 53.9938L29.2332 48.7169C27.828 48.2293 26.7038 47.2327 26.0604 45.9135C25.4243 44.5943 25.3503 43.1173 25.8533 41.755L35.4015 16.0658C35.9044 14.7035 36.9325 13.6137 38.2933 12.99C39.6542 12.3734 41.1778 12.3017 42.583 12.7892L57.6931 18.0662C59.0983 18.5537 60.2225 19.5503 60.8659 20.8695C61.502 22.1888 61.576 23.6657 61.073 25.028L51.5248 50.7244C50.6964 52.9399 48.5368 54.3165 46.2366 54.3165ZM45.3417 51.298C46.7174 51.7784 48.241 51.0829 48.7365 49.7493L58.2847 24.0529C58.5214 23.4076 58.4844 22.7122 58.1886 22.0884C57.8854 21.4646 57.3528 20.9914 56.6872 20.762L41.5772 15.485C40.9115 15.2484 40.1941 15.2915 39.5507 15.5783C38.9072 15.8722 38.4191 16.3884 38.1824 17.0337L28.6416 42.7301C28.4049 43.3754 28.4419 44.0709 28.7377 44.6946C29.0409 45.3184 29.5735 45.7916 30.2391 46.021L45.3417 51.298Z" fill="#454545"/>
<path d="M23.6936 36.4422L17.9248 33.5599C17.3183 33.2588 16.8154 32.8358 16.4678 32.3124C16.1349 31.8248 15.95 31.2369 15.9574 30.5845C15.9648 30.0109 16.1201 29.4445 16.3938 28.9426C16.6674 28.4407 17.0594 27.9962 17.5402 27.6664C18.0949 27.2792 18.7161 27.0785 19.3448 27.0498C19.9069 27.0211 20.469 27.1215 21.0163 27.3366C21.3269 26.8562 21.7337 26.4619 22.207 26.1608C22.7396 25.8309 23.3534 25.6445 24.056 25.6445C24.6403 25.6374 25.232 25.7879 25.7497 26.0389C26.2748 26.2898 26.7408 26.6626 27.0884 27.1287C27.4804 27.6521 27.6801 28.2328 27.7097 28.8279C27.7467 29.4445 27.5839 30.0754 27.2807 30.6562L27.2659 30.6849L24.3149 36.2557C24.1966 36.4637 23.9229 36.5497 23.6936 36.4422Z" fill="#454545"/>
<path d="M39.3954 31.3874L44.2989 28.9067C44.3137 28.8995 44.3359 28.8923 44.3655 28.878C44.5578 28.8063 44.7723 28.7991 44.9498 28.8565C45.1495 28.921 45.3418 29.0572 45.4527 29.2652L47.9895 33.9757L48.0191 34.0187C48.167 34.284 48.278 34.578 48.3519 34.8719L48.3593 34.8934C48.4259 35.2017 48.4629 35.4957 48.4481 35.7968C48.4333 36.0979 48.3741 36.3919 48.2706 36.6787C48.167 36.9583 48.0265 37.2308 47.8416 37.4745C47.8268 37.4961 47.812 37.5176 47.7972 37.5391C47.6345 37.747 47.4496 37.9334 47.2499 38.0911C47.0354 38.2704 46.7914 38.4281 46.5325 38.5572C46.2884 38.6791 46.0296 38.7651 45.7633 38.8368L45.719 38.8511C45.4453 38.9157 45.1643 38.9515 44.8684 38.9515C44.543 38.9515 44.225 38.9085 43.9217 38.8296C43.6111 38.7436 43.3227 38.6145 43.049 38.4568C42.9529 38.3923 42.8641 38.3277 42.7754 38.256C42.7975 38.3851 42.8271 38.507 42.8789 38.6289C43.0416 39.0662 43.3153 39.4677 43.6925 39.7904C43.8478 39.8979 43.9217 40.0987 43.8626 40.2923C43.7886 40.5289 43.5297 40.6579 43.2857 40.5791L39.4102 39.396V39.3889C39.2327 39.3387 39.107 39.1953 39.0848 39.0089C39.0626 38.7579 39.2475 38.5428 39.4989 38.5213C40.0093 38.4711 40.4826 38.2919 40.8894 38.0123C40.9929 37.9406 41.0965 37.8617 41.1926 37.7685C41.0743 37.7757 40.9633 37.7757 40.845 37.7685C40.527 37.7613 40.2163 37.6968 39.9057 37.5893C39.6173 37.4889 39.3288 37.3527 39.0552 37.1662C38.8185 37.0085 38.6114 36.8221 38.4191 36.6213C38.2342 36.4134 38.0641 36.1768 37.931 35.933C37.7905 35.6893 37.6943 35.424 37.613 35.1515C37.539 34.8863 37.4946 34.6138 37.4946 34.3414C37.4872 34.0259 37.5316 33.7176 37.613 33.4308C37.6943 33.1368 37.8201 32.8715 37.9828 32.6278L37.9902 32.6063C38.1603 32.3553 38.36 32.1259 38.5966 31.9108C38.8407 31.71 39.1144 31.5308 39.3954 31.3874Z" fill="#454545"/>
</svg>
