<svg width="47" height="40" viewBox="0 0 47 40" fill="none" xmlns="http://www.w3.org/2000/svg">
<path d="M8.18018 12.163V12.4774V20.2366V20.551V22.714H16.8328V20.2366H10.7358V12.4774H16.8328V10H8.18018V12.163Z" fill="#454545"/>
<path d="M19.3567 12.4774H22.4052V22.714H24.9608V12.4774H28.0093V10H19.3567V12.4774Z" fill="#454545"/>
<path d="M38.8196 12.4774V10H30.167V12.163V12.4774V20.2366V20.551V22.714H38.8196V20.2366H32.7226V12.4774H38.8196Z" fill="#454545"/>
<path d="M14.8264 17.4826L16.8328 18.606V16.3592V14.1123L14.8264 15.2357L12.8157 16.3592L14.8264 17.4826Z" fill="#454545"/>
<path fill-rule="evenodd" clip-rule="evenodd" d="M11.137 31.6278C10.9826 31.2553 10.7642 30.9729 10.4819 30.7804C10.1996 30.588 9.86903 30.4918 9.4902 30.4918C9.11137 30.4918 8.7808 30.588 8.49849 30.7804C8.21618 30.9729 7.9966 31.2553 7.83976 31.6278C7.68534 32.0002 7.60812 32.4576 7.60812 33C7.60812 33.5424 7.68534 33.9998 7.83976 34.3722C7.9966 34.7447 8.21618 35.0271 8.49849 35.2196C8.7808 35.412 9.11137 35.5082 9.4902 35.5082C9.86903 35.5082 10.1996 35.412 10.4819 35.2196C10.7642 35.0271 10.9826 34.7447 11.137 34.3722C11.2939 33.9998 11.3723 33.5424 11.3723 33C11.3723 32.4576 11.2939 32.0002 11.137 31.6278ZM8.77514 33.9529C8.86568 34.1667 8.96706 34.2751 9.0588 34.3376C9.1551 34.4033 9.28562 34.4525 9.4902 34.4525C9.69478 34.4525 9.8253 34.4033 9.9216 34.3376C10.0122 34.2758 10.1121 34.1688 10.2005 33.9555L10.2028 33.9501C10.2882 33.7474 10.3531 33.4432 10.3531 33C10.3531 32.5568 10.2882 32.2526 10.2028 32.0499L10.2005 32.0445C10.1121 31.8312 10.0122 31.7242 9.9216 31.6624C9.8253 31.5967 9.69478 31.5475 9.4902 31.5475C9.28562 31.5475 9.1551 31.5967 9.0588 31.6624C8.96706 31.7249 8.86568 31.8333 8.77515 32.0471C8.69095 32.2515 8.62734 32.557 8.62734 33C8.62734 33.443 8.69095 33.7485 8.77514 33.9529ZM11.7604 37.4008L11.759 37.4016C11.0691 37.8067 10.3046 38 9.4902 38C8.67094 38 7.90262 37.8054 7.21103 37.396C6.51008 36.9811 5.96514 36.3821 5.57701 35.6322C5.17597 34.8574 5 33.9658 5 33C5 32.0323 5.17576 31.1393 5.57701 30.364C5.96518 29.6141 6.51055 29.0157 7.21259 28.6031C7.90377 28.1943 8.67155 28 9.4902 28C10.3051 28 11.0699 28.1949 11.7597 28.6026C12.0224 28.7564 12.2633 28.936 12.4822 29.1398V28.105H23.1781V31.2731H24.3211V28.105H37.3612C38.0387 28.105 38.6813 28.2302 39.2514 28.5282C39.8167 28.82 40.2735 29.2514 40.5867 29.8196C40.8996 30.3801 41.0371 31.0091 41.0371 31.669C41.0371 32.3332 40.8975 32.9672 40.5738 33.5273L40.5723 33.53C40.426 33.7813 40.2509 34.0037 40.0506 34.1975L42 37.895H37.941L37.0232 36.1157V37.895H24.3211V34.7232H23.1781V37.895H19.5725V31.555H18.339V37.895H14.7515V31.555H13.8294C13.9324 32.0124 13.9804 32.4961 13.9804 33C13.9804 33.9683 13.8032 34.862 13.399 35.6375C13.0102 36.3879 12.4635 36.9865 11.7604 37.4008ZM12.5015 35.1371C12.808 34.5497 12.9612 33.8373 12.9612 33C12.9612 32.4679 12.8993 31.9862 12.7755 31.555C12.7046 31.3077 12.6132 31.077 12.5015 30.8629C12.4951 30.8506 12.4887 30.8382 12.4822 30.826C12.18 30.2568 11.7714 29.8217 11.2565 29.5207C10.7329 29.2108 10.1441 29.0558 9.4902 29.0558C8.83147 29.0558 8.24031 29.2108 7.71671 29.5207C7.1931 29.8281 6.77929 30.2755 6.47526 30.8629C6.17123 31.4503 6.01922 32.1627 6.01922 33C6.01922 33.8348 6.17123 34.5459 6.47526 35.1333C6.77929 35.7207 7.1931 36.1694 7.71671 36.4793C8.24031 36.7892 8.83147 36.9442 9.4902 36.9442C10.1441 36.9442 10.7329 36.7905 11.2565 36.4831C11.7825 36.1731 12.1975 35.7245 12.5015 35.1371ZM15.7707 30.4993V36.8392H17.3198V30.4993H19.5892V29.1608H13.5014V30.4993H15.7707ZM20.5917 36.8392H22.1589V33.6674H25.3404V36.8392H26.9039V29.1608H25.3404V32.3289H22.1589V29.1608H20.5917V36.8392ZM36.004 36.8392H34.4368V29.1608H37.3612C37.921 29.1608 38.3988 29.2645 38.7945 29.472C39.1926 29.6769 39.4954 29.9681 39.703 30.3455C39.9129 30.7205 40.0178 31.1616 40.0178 31.669C40.0178 32.1789 39.9117 32.6176 39.6993 32.985C39.6504 33.0691 39.5964 33.1488 39.5373 33.2239C39.3401 33.4745 39.0865 33.6748 38.7764 33.8248C38.7543 33.8356 38.732 33.846 38.7093 33.8562L40.2821 36.8392H38.552L37.1479 34.1173H36.004V36.8392ZM38.2552 32.3026C38.2578 32.2982 38.2604 32.2937 38.2629 32.2891C38.3567 32.1215 38.4036 31.9148 38.4036 31.669C38.4036 31.4141 38.3541 31.1991 38.2552 31.0241C38.1587 30.8492 38.0103 30.7167 37.81 30.6267C37.6122 30.5342 37.3624 30.488 37.0608 30.488H36.004V32.8125H37.068C37.3672 32.8125 37.6158 32.77 37.8136 32.6851C38.0115 32.6001 38.1587 32.4726 38.2552 32.3026ZM37.0232 31.7567H37.068C37.2284 31.7567 37.3276 31.739 37.3823 31.7237C37.3835 31.7091 37.3844 31.691 37.3844 31.669C37.3844 31.631 37.382 31.6033 37.3792 31.5842C37.3421 31.57 37.2464 31.5438 37.0608 31.5438H37.0232V31.7567ZM37.3714 31.549L37.3721 31.5505ZM37.3741 31.7744L37.3747 31.7728ZM29.7632 32.3289V30.4993H33.1908V29.1608H28.1961V36.8392H33.2053V35.5008H29.7632V33.6674H32.9338V32.3289H29.7632Z" fill="#454545"/>
</svg>
