<svg width="70" height="68" viewBox="0 0 70 68" fill="none" xmlns="http://www.w3.org/2000/svg">
<path d="M63.4013 40.005C63.4241 39.8137 63.4272 39.6183 63.4303 39.4229L63.4395 38.8368C63.4457 38.4461 63.408 38.066 63.4142 37.6752C63.3629 36.9003 63.2679 36.1361 63.129 35.3825C62.8512 33.8754 62.418 32.4149 61.8491 31.0051C60.7803 28.3368 59.2718 25.8727 57.554 23.6011C55.8165 21.3254 53.8696 19.2422 51.7218 17.314C51.2251 16.8598 50.7242 16.4243 50.1794 15.9994L49.8153 15.6899L49.3798 14.8757C48.6962 13.6973 47.8923 12.5924 47.0362 11.5355C46.156 10.4933 45.2192 9.51804 44.206 8.60553C43.6895 8.14726 43.1688 7.70771 42.624 7.28286C42.3615 7.07246 42.0792 6.85801 41.7927 6.6623C41.5259 6.47062 41.2592 6.27895 40.9881 6.106L40.5717 5.84456L40.3713 5.72523L40.2611 5.66354C40.2611 5.66354 40.2456 5.64077 40.2259 5.63673L40.1778 5.66612C39.9219 5.79027 39.6505 5.89166 39.3947 6.01581L39.0031 6.19066C38.8872 6.24539 38.7627 6.33758 38.6425 6.41104C38.5224 6.4845 38.4022 6.55796 38.2777 6.65016C38.2254 6.69827 38.1773 6.72765 38.125 6.77577L38.0203 6.872C37.8676 6.99761 37.7586 7.11257 37.6257 7.24222C37.1221 7.7274 36.7131 8.2515 36.348 8.76495C35.6176 9.79184 35.0412 10.8698 34.5086 11.937C33.976 13.0043 33.5225 14.0877 33.1043 15.1979L32.9342 15.6728L32.0498 15.649C29.408 15.6192 26.9011 16.0873 24.5211 16.8165C24.2101 16.9098 23.919 17.0072 23.6278 17.1045L22.9536 17.3392L22.9226 17.2937L22.6023 16.9735L22.258 16.668L21.5934 16.0423C21.3705 15.8399 21.1432 15.6563 20.9005 15.45L20.5562 15.1444L20.1878 14.8536C19.2239 14.0884 18.1836 13.3859 17.0189 12.7757C16.4485 12.4632 15.8456 12.2029 15.1749 11.9679L14.8275 11.8578C14.6933 11.8108 14.5549 11.7825 14.3967 11.7502C14.1199 11.6937 13.8276 11.6144 13.5379 11.6141C13.2568 11.5763 12.987 11.58 12.7172 11.5837L12.6578 11.5715C12.6536 11.5903 12.6295 11.605 12.6295 11.605L12.5884 11.6946L12.4667 11.8657L12.2431 12.2121L11.7845 12.8632C11.6147 13.0638 11.4786 13.3888 11.4375 13.4784C11.31 13.766 11.167 14.0308 11.0395 14.3183L10.6852 15.1476C10.5619 15.4164 10.4542 15.7081 10.3507 15.9809C9.95224 17.0952 9.59335 18.2175 9.29377 19.352C8.9942 20.4864 8.71866 21.6062 8.48267 22.734C8.35479 23.2959 8.24668 23.8619 8.13857 24.4278L7.98203 25.2975L7.96498 25.3724L7.96072 25.3911L7.94793 25.4473L7.79483 25.8472C6.95568 27.9887 6.19136 30.1651 5.4821 32.3723L5.43675 32.4807L5.40691 32.6118C5.03522 33.7903 4.68332 34.9729 4.38646 36.1863C4.31826 36.486 4.25006 36.7856 4.17759 37.104L4.07102 37.5723L3.98423 38.0446C3.8831 38.6707 3.77772 39.3156 3.75841 40.0369L3.75379 40.33C3.75225 40.4277 3.76622 40.5481 3.76468 40.6458L3.77865 40.7663L3.77557 40.9616L3.7842 41.9238C3.79509 42.2396 3.82576 42.5595 3.85216 42.8981C3.88282 43.218 3.89371 43.5338 3.96392 43.8618L4.1195 44.8147C4.19397 45.124 4.28396 45.4559 4.35843 45.7651C4.42864 46.0931 4.54692 46.3917 4.64117 46.7049C4.75519 47.0222 4.84944 47.3354 4.98749 47.638C5.96052 50.0908 7.612 52.2901 9.61159 54.0508C11.6112 55.8116 13.9306 57.1672 16.3663 58.1938C17.935 58.8473 19.5293 59.3885 21.1775 59.7839C21.2171 59.7919 21.2849 59.7666 21.3287 59.7559C22.5109 60.0169 23.6973 60.2592 24.8965 60.4453C27.5166 60.8431 30.1907 61.0951 32.8608 61.0916C33.5191 61.1084 34.1902 61.069 34.8726 61.0712C35.206 61.0609 35.5437 61.0318 35.8772 61.0215L36.3816 60.9873L36.886 60.9531C38.2325 60.8557 39.5607 60.6565 40.8777 60.4158L42.0718 60.1696C42.4661 60.0737 42.8604 59.9778 43.2547 59.882C43.2547 59.882 43.3861 59.85 43.6094 59.778C43.8328 59.706 44.1479 59.594 44.5112 59.4525C44.6907 59.3912 44.8943 59.3151 45.1176 59.2431C45.3254 59.1484 45.5529 59.0576 45.7805 58.9669C46.0081 58.8762 46.2399 58.7667 46.4873 58.68C46.7191 58.5706 46.9509 58.4611 47.1828 58.3516C47.4146 58.2422 47.6465 58.1327 47.8783 58.0232C48.1101 57.9138 48.3265 57.7816 48.5385 57.6681C48.9626 57.4411 49.343 57.2247 49.6554 57.0337C50.2846 56.633 50.6494 56.3939 50.5816 56.4192C50.9266 56.1761 51.2321 55.9248 51.5136 55.6883C51.662 55.5814 51.795 55.4518 51.9195 55.3596C52.0284 55.2446 52.1571 55.1337 52.2463 55.0147C52.2505 54.996 52.2505 54.996 52.2703 55C52.4781 54.9052 52.6902 54.7917 52.9263 54.6636C53.6303 54.2977 54.3909 53.865 55.1248 53.3681C55.8544 52.8898 56.553 52.3661 57.1442 51.8596C57.7311 51.3718 58.2304 50.9054 58.577 50.5645C58.9236 50.2237 59.1174 50.0085 59.1174 50.0085C59.6636 49.336 60.1943 48.6407 60.6545 47.8919L60.7804 47.702C60.9801 47.3704 61.1797 47.0387 61.3638 46.6843C61.7278 45.9942 62.072 45.3001 62.3457 44.5524C62.9042 43.0984 63.2735 41.5666 63.4013 40.005ZM3.80269 40.7516C3.80269 40.7516 3.8182 40.7743 3.80269 40.7516V40.7516ZM7.98476 25.3764C7.98476 25.3764 7.98902 25.3577 7.98476 25.3764V25.3764ZM59.6033 43.6004C59.3793 44.221 59.0762 44.8255 58.7575 45.4073C58.606 45.7095 58.4191 45.985 58.2478 46.2832L58.1501 46.4397C57.9633 46.7151 57.8004 46.9759 57.5938 47.2473L57.3178 47.6417L57.022 48.0322C57.022 48.0322 56.9569 48.1365 56.8395 48.2889C56.7177 48.46 56.5437 48.6793 56.3328 48.9694C55.8998 49.5082 55.3013 50.2288 54.6519 50.8998C53.3688 52.2647 51.8867 53.4124 52.0464 53.3471C51.4226 53.9057 50.8357 54.3935 50.417 54.7784C50.2333 54.8585 50.0495 54.9385 49.8417 55.0333C49.4784 55.1747 49.1152 55.3162 48.7321 55.4535C48.6402 55.4936 48.5484 55.5336 48.4565 55.5737L48.1653 55.671L47.583 55.8657C47.3837 55.923 47.2 56.0031 47.0007 56.0604C46.8014 56.1177 46.6021 56.175 46.4226 56.2364C46.0439 56.355 45.6849 56.4777 45.3387 56.5442C44.9882 56.6295 44.6575 56.7187 44.3706 56.7974C44.0682 56.8532 43.8053 56.9171 43.5863 56.9704C43.3672 57.0237 43.1962 57.0476 43.0846 57.0836C42.9729 57.1196 42.9093 57.1262 42.9093 57.1262L41.6586 57.4392L40.4009 57.692C35.5229 58.5775 30.4343 58.4792 25.4793 57.7026C23.9199 57.4626 22.3776 57.1476 20.8918 56.7659C20.8721 56.7618 20.848 56.7765 20.8282 56.7725C19.7422 56.4527 18.6888 56.0808 17.6482 55.6527C15.461 54.7161 13.4169 53.5146 11.691 52.0058C9.98922 50.4822 8.62119 48.6741 7.80446 46.6256C7.69316 46.3873 7.61016 46.1156 7.5229 45.8625C7.43564 45.6095 7.33287 45.3337 7.28942 45.07L7.09974 44.2669L6.95387 43.4531C6.89065 43.1854 6.89101 42.911 6.85182 42.6286C6.8324 42.3503 6.78895 42.0866 6.79357 41.7935L6.77913 40.9478L6.77097 40.7109L6.75972 40.6694L6.76398 40.6507L6.75699 40.5904L6.74302 40.47C6.74729 40.4512 6.73604 40.4097 6.7403 40.391C6.74456 40.3723 6.74456 40.3723 6.74456 40.3723C6.74456 40.3723 6.7403 40.391 6.74456 40.3723C6.75309 40.3348 6.73758 40.3121 6.73059 40.2518L6.72515 40.0939C6.73285 39.6055 6.81692 39.0542 6.92077 38.507L6.99477 38.0909L7.08856 37.6789C7.1525 37.3979 7.21644 37.117 7.28038 36.836C7.55592 35.7163 7.87953 34.5671 8.23842 33.4448L8.28803 33.3177L8.33765 33.1906C9.02986 31.0583 9.78139 28.9381 10.5922 26.8301L10.7453 26.4301L10.8263 26.0743C10.8562 25.9432 10.8748 25.7705 10.8833 25.7331L11.027 24.9196C11.1309 24.3724 11.2347 23.8252 11.3584 23.282C11.5858 22.1917 11.8528 21.1094 12.1354 20.0498C12.4024 18.9675 12.7442 17.9201 13.1213 16.8995C13.2206 16.6454 13.3198 16.3912 13.419 16.1371L13.7322 15.3974C13.8314 15.1433 13.9659 14.9159 14.0807 14.6846L14.1501 14.5615L14.2292 14.5777C14.6909 14.7308 15.1795 14.9481 15.6397 15.1989C16.5842 15.6858 17.4748 16.3185 18.3569 16.9886L18.69 17.2526L19.0033 17.5126C19.2107 17.6922 19.4182 17.8717 19.6256 18.0513L20.2394 18.6274L20.5485 18.9061L20.8532 19.2036L22.0483 20.408L22.1569 20.5674L22.2429 20.6438C22.267 20.6291 22.3108 20.6184 22.3348 20.6037L22.7462 20.4329C23.0218 20.3128 23.3017 20.174 23.5929 20.0766L23.9999 19.9245L24.2035 19.8485L24.6063 19.7152C24.8777 19.6138 25.1448 19.5311 25.4119 19.4485C27.5687 18.7912 29.8169 18.3683 31.9869 18.3802L32.3952 18.4048L32.6014 18.4077L32.7046 18.4092L32.7441 18.4173C32.7837 18.4253 32.8275 18.4147 32.8077 18.4106L32.8275 18.4147L32.8868 18.4268L34.6652 18.6135L34.887 18.6392L34.9068 18.6433C34.9265 18.6473 34.9265 18.6473 34.9308 18.6286L34.9436 18.5724L34.9889 18.464L35.1223 18.0601C35.206 17.7831 35.3095 17.5103 35.3932 17.2334L35.5223 16.8481L35.6428 16.5003L35.7916 16.1191C36.1928 15.0838 36.6292 14.0753 37.101 13.0936C37.5727 12.1119 38.1193 11.1651 38.7081 10.3053C39.0124 9.87744 39.328 9.49107 39.6505 9.16492C39.7311 9.08338 39.8118 9.00185 39.8881 8.93904L39.9405 8.89093L39.9447 8.8722C40.1917 9.05984 40.443 9.22874 40.6857 9.43511C41.1797 9.81039 41.6454 10.2191 42.111 10.6278C43.0226 11.4411 43.8931 12.3441 44.676 13.2684C45.4546 14.2114 46.1611 15.1985 46.756 16.2216L47.2225 17.0813L47.3381 17.3009L47.3958 17.4107C47.4113 17.4334 47.4183 17.4937 47.4579 17.5017L47.846 17.7966L48.2341 18.0915C48.7238 18.4855 49.1895 18.8942 49.6509 19.3216C51.6618 21.1238 53.5071 23.1079 55.1163 25.2201C56.7255 27.3324 58.0901 29.6103 59.0604 31.9841C59.5603 33.2426 59.9485 34.5371 60.1856 35.8595C60.3062 36.5113 60.3831 37.1738 60.4203 37.8283C60.427 38.1628 60.4576 38.4827 60.4445 38.8132L60.4368 39.3017C60.4422 39.4596 60.4236 39.6322 60.4093 39.7861C60.3808 41.0935 60.0909 42.3671 59.6033 43.6004Z" fill="#F4D9BD"/>
<path d="M13.8278 17.8864C13.8278 17.8864 12.4826 22.4334 12.7825 24.2979C12.7825 24.2979 14.1056 22.6669 16.5923 22.469L13.8278 17.8864Z" fill="#F4D9BD"/>
<path d="M45.6051 17.4568C45.6051 17.4568 42.9395 12.8944 41.5934 12.7175L41.0938 17.7312C41.0938 17.7312 44.259 17.2799 45.6051 17.4568Z" fill="#F4D9BD"/>
<path d="M22.2052 30.1077C22.8187 30.2329 23.4078 29.861 23.5369 29.2937C23.6691 28.7126 23.2764 28.1546 22.6775 28.0323C22.0641 27.907 21.475 28.279 21.3459 28.8463C21.2168 29.4136 21.6063 29.9854 22.2052 30.1077Z" fill="#F4D9BD"/>
<path d="M38.6241 26.3582C39.2376 26.4834 39.8267 26.1114 39.9558 25.5442C40.0881 24.9631 39.6954 24.4051 39.0965 24.2828C38.483 24.1575 37.8939 24.5295 37.7648 25.0968C37.6326 25.6779 38.0107 26.2329 38.6241 26.3582Z" fill="#F4D9BD"/>
<path d="M42.0239 39.56C42.0239 39.56 42.017 39.4998 42.0185 39.4021C42.02 39.3044 42.0103 39.1652 41.9851 39.0033C41.9347 38.6794 41.7784 38.2751 41.557 37.975C41.1227 37.3375 40.5806 36.9916 40.6074 37.0559C40.1359 36.7636 39.6811 36.6708 39.4888 36.7883C39.2923 36.9246 39.395 37.2004 39.7064 37.8324C39.867 38.218 39.995 38.6557 39.9791 38.9073C39.969 39.0424 39.9477 39.1361 39.9152 39.1882C39.8826 39.2404 39.8741 39.2778 39.8741 39.2778C39.8741 39.2778 39.8655 39.3153 39.8442 39.4089C39.8272 39.4839 39.7776 39.6109 39.6163 39.774C39.4748 39.9411 39.3023 40.0627 39.0507 40.1681C38.7991 40.2735 38.4373 40.3173 38.0291 40.2927C37.2281 40.2663 36.3313 40.0244 35.6846 39.7747C35.3612 39.6499 35.0929 39.5559 34.8882 39.4553C34.8331 39.4245 34.7936 39.4164 34.7385 39.3856C34.7048 39.2611 34.671 39.1366 34.6175 39.008C34.55 38.7591 34.4783 38.5288 34.4065 38.2985C34.339 38.0496 34.2673 37.8193 34.2068 37.6305C35.5086 37.0928 36.3421 36.0673 36.1726 34.9939C35.9398 33.6527 34.2074 32.809 32.2984 33.1052C30.3894 33.4013 29.0159 34.7085 29.2486 36.0497C29.4379 37.1271 30.5926 37.8725 32.0392 37.9719C32.1109 38.2022 32.1896 38.4927 32.2994 38.8287C32.3936 39.1419 32.4949 39.5154 32.6159 39.8929C32.5833 39.9451 32.531 39.9932 32.4984 40.0454C32.3286 40.2459 32.1391 40.4424 31.9538 40.6201C31.5789 40.9944 31.1575 41.3004 30.7772 41.5167C30.3969 41.7331 30.0464 41.8183 29.7963 41.826C29.5462 41.8338 29.3132 41.7666 29.1197 41.7075C28.9263 41.6484 28.8359 41.5907 28.8359 41.5907C28.8359 41.5907 28.6975 41.5625 28.5281 41.4887C28.3544 41.4336 28.1539 41.3142 28.0326 41.2111C27.9112 41.1079 27.8224 40.9525 27.7972 40.7906C27.772 40.6286 27.7778 40.5122 27.7537 40.5269C27.7289 40.0906 27.8354 39.6224 27.7156 39.4215C27.6536 39.3304 27.5349 39.3062 27.3469 39.405C27.255 39.4451 27.1306 39.5372 27.0019 39.6482C26.8689 39.7778 26.7274 39.9449 26.6084 40.195C26.4371 40.4933 26.308 40.8785 26.3484 41.3376C26.3732 41.7738 26.5846 42.209 26.806 42.509C27.0472 42.8131 27.2899 43.0195 27.4663 43.1535C27.6428 43.2875 27.7529 43.3492 27.7529 43.3492C27.7529 43.3492 27.9378 43.4458 28.2414 43.5666C28.3953 43.6176 28.5845 43.6954 28.8416 43.7479C28.8811 43.756 28.9009 43.76 28.9405 43.7681C28.98 43.7762 28.9998 43.7802 29.0393 43.7883C29.0986 43.8004 29.1777 43.8166 29.2568 43.8327C29.3995 43.8422 29.5775 43.8786 29.7442 43.8734C30.4265 43.8756 31.1558 43.6717 31.7877 43.3499C32.4239 43.0094 32.9783 42.5738 33.4776 42.1073C33.7152 41.8815 33.9572 41.6369 34.1595 41.3842C34.3685 41.466 34.6128 41.5747 34.8811 41.6687C35.6464 41.9426 36.6929 42.2543 37.8781 42.3199C38.4729 42.3434 39.1087 42.2772 39.7305 42.0906C40.3369 41.8812 40.8742 41.5205 41.2336 41.1235C41.5646 40.7599 41.7813 40.3533 41.8933 40.043C41.9472 39.8972 41.977 39.7661 41.9984 39.6724C42.0154 39.5975 42.0239 39.56 42.0239 39.56Z" fill="#F4D9BD"/>
<path d="M15.6127 39.0474C13.3997 39.4971 11.8381 40.9031 12.1318 42.1586C12.4254 43.4142 14.4505 44.063 16.6635 43.6132C18.8764 43.1635 20.438 41.7575 20.1443 40.5019C19.855 39.2276 17.8299 38.5789 15.6127 39.0474Z" fill="#F4D9BD"/>
<path d="M49.6452 31.9822C47.4322 32.4319 45.8707 33.8379 46.1643 35.0935C46.4579 36.3491 48.483 36.9978 50.696 36.5481C52.909 36.0984 54.4705 34.6924 54.1769 33.4368C53.8832 32.1812 51.8426 31.5097 49.6452 31.9822Z" fill="#F4D9BD"/>
<path d="M23.6832 33.9719C23.7381 33.8523 23.7373 33.7344 23.6695 33.6682C23.612 33.6172 23.5328 33.6011 23.4291 33.6322C22.8255 32.9464 21.7999 32.6584 20.8677 32.9914C19.6931 33.4188 19.104 34.6722 19.5552 35.7849C20.0064 36.8975 21.0185 36.6986 22.1931 36.2712C23.3677 35.8438 24.2652 35.3598 23.8168 34.2347C23.7811 34.1489 23.7322 34.0604 23.6832 33.9719Z" fill="#F4D9BD"/>
<path d="M44.9564 29.6175C45.048 29.5184 45.0868 29.4086 45.0378 29.3201C44.9964 29.2593 44.9229 29.2182 44.8249 29.2243C44.4459 28.4012 43.546 27.8642 42.5463 27.9479C41.2919 28.058 40.3645 29.0985 40.4648 30.2965C40.5651 31.4944 41.6024 31.5492 42.8671 31.4542C44.1318 31.3592 45.126 31.1174 45.0258 29.9195C45.0089 29.8114 44.9892 29.7158 44.9564 29.6175Z" fill="#F4D9BD"/>
</svg>
