<?xml version="1.0" encoding="utf-8"?>
<!-- Generator: Adobe Illustrator 27.0.0, SVG Export Plug-In . SVG Version: 6.00 Build 0)  -->
<svg version="1.1" id="圖層_1" xmlns="http://www.w3.org/2000/svg" xmlns:xlink="http://www.w3.org/1999/xlink" x="0px" y="0px"
	 viewBox="0 0 51 49" style="enable-background:new 0 0 51 49;" xml:space="preserve">
<style type="text/css">
	.st0{clip-path:url(#SVGID_00000072994011588820625520000014103180110936310919_);}
	.st1{fill:#FFFBBC;}
	.st2{fill:#484848;}
	.st3{fill:#B50000;}
	.st4{fill:#9E3515;}
	.st5{fill:#F3A221;}
	.st6{fill:#FFFFFF;}
</style>
<g>
	<defs>
		
			<rect id="SVGID_1_" x="-76.2" y="17.5" transform="matrix(0.9666 -0.2561 0.2561 0.9666 -11.2715 -12.8949)" width="42.1" height="38.7"/>
	</defs>
	<clipPath id="SVGID_00000152260632368282777140000016029924424677062017_">
		<use xlink:href="#SVGID_1_"  style="overflow:visible;"/>
	</clipPath>
	<g style="clip-path:url(#SVGID_00000152260632368282777140000016029924424677062017_);">
		<path class="st1" d="M-34,34.3c-0.2-0.5-0.4-1-0.6-1.5c-0.5-1-1-1.9-1.7-2.7c-1.2-1.6-2.7-3-4.3-4.2c-1.6-1.2-3.3-2.3-5.1-3.2
			c-0.4-0.2-0.8-0.4-1.3-0.6l-0.3-0.1l-0.4-0.5c-0.7-0.7-1.4-1.3-2.2-1.8c-0.8-0.5-1.6-1-2.5-1.5c-0.4-0.2-0.9-0.4-1.3-0.6
			c-0.2-0.1-0.4-0.2-0.7-0.3c-0.2-0.1-0.4-0.2-0.6-0.2l-0.3-0.1l-0.2,0l-0.1,0c0,0,0,0,0,0l0,0c-0.2,0.1-0.3,0.2-0.5,0.4l-0.2,0.2
			c-0.1,0.1-0.1,0.1-0.2,0.2c-0.1,0.1-0.1,0.1-0.2,0.2c0,0-0.1,0.1-0.1,0.1l-0.1,0.1c-0.1,0.1-0.1,0.2-0.2,0.3
			c-0.2,0.4-0.4,0.8-0.6,1.3c-0.3,0.8-0.5,1.6-0.7,2.5c-0.2,0.8-0.3,1.6-0.4,2.5l0,0.4l-0.6,0.1c-1.7,0.5-3.4,1.2-4.9,2.1
			c-0.2,0.1-0.4,0.2-0.6,0.4l-0.4,0.3l0,0l-0.3-0.2l-0.3-0.1l-0.6-0.3c-0.2-0.1-0.4-0.2-0.6-0.3l-0.3-0.1l-0.3-0.1
			c-0.8-0.4-1.7-0.6-2.5-0.8c-0.5-0.1-0.9-0.2-1.4-0.2l-0.3,0c-0.1,0-0.2,0-0.3,0c-0.2,0-0.4,0-0.6,0.1c-0.2,0-0.4,0.1-0.6,0.1l0,0
			c0,0,0,0,0,0l0,0.1l-0.1,0.1l-0.1,0.3l-0.2,0.5c-0.1,0.2-0.1,0.3-0.1,0.5c0,0.2-0.1,0.4-0.1,0.6l-0.1,0.6c0,0.2-0.1,0.4-0.1,0.6
			c-0.1,0.8-0.1,1.6-0.1,2.5c0,0.8,0,1.6,0.1,2.4c0,0.4,0,0.8,0.1,1.2l0.1,0.6l0,0l0,0l0,0l0,0.3c-0.2,1.6-0.3,3.2-0.4,4.8l0,0.1
			l0,0.1c0,0.9-0.1,1.7-0.1,2.6c0,0.2,0,0.4,0,0.7l0,0.3l0,0.3c0,0.5,0.1,0.9,0.2,1.4l0.1,0.2c0,0.1,0,0.1,0.1,0.2l0,0.1l0,0.1
			L-74,48c0.1,0.2,0.1,0.4,0.2,0.6c0.1,0.2,0.2,0.4,0.2,0.6l0.3,0.6c0.1,0.2,0.2,0.4,0.3,0.6c0.1,0.2,0.2,0.4,0.4,0.6
			c0.1,0.2,0.3,0.4,0.4,0.6c1.1,1.5,2.6,2.7,4.3,3.5c1.7,0.8,3.5,1.3,5.3,1.6c1.2,0.2,2.4,0.2,3.6,0.2c0,0,0.1,0,0.1,0
			c0.9,0,1.7-0.1,2.6-0.2c1.9-0.2,3.7-0.5,5.5-1c0.4-0.1,0.9-0.3,1.4-0.4c0.2-0.1,0.5-0.1,0.7-0.2l0.3-0.1l0.3-0.1
			c0.9-0.3,1.8-0.7,2.6-1.1l0.8-0.4l0.8-0.4c0,0,0.1,0,0.2-0.1c0.1-0.1,0.3-0.2,0.6-0.4c0.1-0.1,0.2-0.2,0.4-0.3
			c0.1-0.1,0.3-0.2,0.4-0.3c0.2-0.1,0.3-0.2,0.4-0.3l0.4-0.3l0.4-0.3c0.1-0.1,0.3-0.2,0.4-0.4c0.2-0.2,0.5-0.4,0.6-0.6
			c0.2-0.2,0.4-0.4,0.5-0.6c0.2-0.2,0.4-0.4,0.5-0.7c0.1-0.1,0.1-0.2,0.2-0.3c0.1-0.1,0.1-0.2,0.2-0.3c0,0,0,0,0,0
			c0.1-0.1,0.2-0.2,0.4-0.3c0.4-0.4,0.9-0.8,1.3-1.3c0.4-0.4,0.8-0.9,1.1-1.4c0.3-0.4,0.6-0.8,0.7-1.1c0.2-0.3,0.3-0.5,0.3-0.5
			c0.3-0.6,0.5-1.1,0.7-1.7l0.1-0.2c0.1-0.3,0.2-0.5,0.2-0.8c0.1-0.5,0.2-1.1,0.3-1.6c0.1-1.1,0.1-2.2-0.1-3.3
			c0-0.1-0.1-0.3-0.1-0.4l-0.1-0.4C-33.9,34.9-34,34.6-34,34.3z M-71,34.5c-0.5-1.2-0.4-4.5-0.4-4.5l2.7,2.6
			C-69.7,32.9-70.5,33.6-71,34.5L-71,34.5z M-52.8,24.9l-0.6-3.5c0.9-0.1,3.6,2.5,3.6,2.5C-50.7,24.1-52.8,24.9-52.8,24.9
			L-52.8,24.9z"/>
		<path class="st2" d="M-34.6,32.9c-0.5-1-1-1.9-1.7-2.7c-1.2-1.6-2.7-3-4.3-4.2c-1.6-1.2-3.3-2.3-5.1-3.2c-0.4-0.2-0.8-0.4-1.3-0.6
			l-0.3-0.1l-0.4-0.5c-0.7-0.7-1.4-1.3-2.2-1.8c-0.8-0.5-1.6-1-2.5-1.5c-0.4-0.2-0.9-0.4-1.3-0.6c-0.2-0.1-0.4-0.2-0.7-0.3
			c-0.2-0.1-0.4-0.2-0.6-0.2l-0.3-0.1l-0.2,0l-0.1,0c0,0,0,0,0,0l0,0c-0.2,0.1-0.3,0.2-0.5,0.4l-0.2,0.2c-0.1,0.1-0.1,0.1-0.2,0.2
			c-0.1,0.1-0.1,0.1-0.2,0.2c0,0-0.1,0.1-0.1,0.1l-0.1,0.1c-0.1,0.1-0.1,0.2-0.2,0.3c-0.2,0.4-0.4,0.8-0.6,1.3
			c-0.3,0.8-0.5,1.6-0.7,2.5c-0.2,0.8-0.3,1.6-0.4,2.5l0,0.4l-0.6,0.1c-1.7,0.5-3.4,1.2-4.9,2.1c-0.2,0.1-0.4,0.2-0.6,0.4l-0.4,0.3
			l0,0l-0.3-0.2l-0.3-0.1l-0.6-0.3c-0.2-0.1-0.4-0.2-0.6-0.3l-0.3-0.1l-0.3-0.1c-0.8-0.4-1.7-0.6-2.5-0.8c-0.5-0.1-0.9-0.2-1.4-0.2
			l-0.3,0c-0.1,0-0.2,0-0.3,0c-0.2,0-0.4,0-0.6,0.1c-0.2,0-0.4,0.1-0.6,0.1l0,0c0,0,0,0,0,0l0,0.1l-0.1,0.1l-0.1,0.3l-0.2,0.5
			c-0.1,0.2-0.1,0.3-0.1,0.5c0,0.2-0.1,0.4-0.1,0.6l-0.1,0.6c0,0.2-0.1,0.4-0.1,0.6c-0.1,0.8-0.1,1.6-0.1,2.5c0,0.8,0,1.6,0.1,2.4
			c0,0.4,0,0.8,0.1,1.2l0.1,0.6l0,0l0,0l0,0l0,0.3c-0.2,1.6-0.3,3.2-0.4,4.8l0,0.1l0,0.1c0,0.9-0.1,1.7-0.1,2.6c0,0.2,0,0.4,0,0.7
			l0,0.3l0,0.3c0,0.5,0.1,0.9,0.2,1.4l0.1,0.2c0,0.1,0,0.1,0.1,0.2l0,0.1l0,0.1L-74,48c0.1,0.2,0.1,0.4,0.2,0.6
			c0.1,0.2,0.2,0.4,0.2,0.6l0.3,0.6c0.1,0.2,0.2,0.4,0.3,0.6c0.1,0.2,0.2,0.4,0.4,0.6c0.1,0.2,0.3,0.4,0.4,0.6
			c1.1,1.5,2.6,2.7,4.3,3.5c1.7,0.8,3.5,1.3,5.3,1.6c1.2,0.2,2.4,0.2,3.6,0.2c0,0,0.1,0,0.1,0c0.9,0,1.7-0.1,2.6-0.2
			c1.9-0.2,3.7-0.5,5.5-1c0.4-0.1,0.9-0.3,1.4-0.4c0.2-0.1,0.5-0.1,0.7-0.2l0.3-0.1l0.3-0.1c0.9-0.3,1.8-0.7,2.6-1.1l0.8-0.4
			l0.8-0.4c0,0,0.1,0,0.2-0.1c0.1-0.1,0.3-0.2,0.6-0.4c0.1-0.1,0.2-0.2,0.4-0.3c0.1-0.1,0.3-0.2,0.4-0.3c0.2-0.1,0.3-0.2,0.4-0.3
			l0.4-0.3l0.4-0.3c0.1-0.1,0.3-0.2,0.4-0.4c0.2-0.2,0.5-0.4,0.6-0.6c0.2-0.2,0.4-0.4,0.5-0.6c0.2-0.2,0.4-0.4,0.5-0.7
			c0.1-0.1,0.1-0.2,0.2-0.3c0.1-0.1,0.1-0.2,0.2-0.3c0,0,0,0,0,0c0.1-0.1,0.2-0.2,0.4-0.3c0.4-0.4,0.9-0.8,1.3-1.3
			c0.4-0.4,0.8-0.9,1.1-1.4c0.3-0.4,0.6-0.8,0.7-1.1c0.2-0.3,0.3-0.5,0.3-0.5c0.3-0.6,0.5-1.1,0.7-1.7l0.1-0.2
			c0.1-0.3,0.2-0.5,0.2-0.8c0.1-0.5,0.2-1.1,0.3-1.6c0.1-1.1,0.1-2.2-0.1-3.3c0-0.1-0.1-0.3-0.1-0.4l-0.1-0.4
			c-0.1-0.3-0.2-0.5-0.2-0.8C-34.2,33.9-34.4,33.3-34.6,32.9L-34.6,32.9z M-35.8,36c0,0.1,0.1,0.2,0.1,0.3c0.2,0.9,0.3,1.8,0.1,2.7
			c0,0.5-0.1,0.9-0.2,1.4c-0.1,0.2-0.1,0.5-0.2,0.7l0,0.1c-0.1,0.2-0.1,0.4-0.2,0.6l-0.1,0.3l-0.1,0.3c0,0,0,0.1-0.1,0.2
			c-0.1,0.1-0.1,0.3-0.2,0.6c-0.2,0.4-0.5,1-0.8,1.6C-38.3,46-39.1,47-39,47c-0.3,0.5-0.6,0.9-0.9,1.3l-0.3,0.3
			c-0.2,0.2-0.4,0.3-0.7,0.5l-0.2,0.1l-0.2,0.1l-0.4,0.2c-0.1,0.1-0.2,0.2-0.4,0.2c-0.1,0.1-0.3,0.2-0.4,0.2
			c-0.2,0.1-0.4,0.3-0.7,0.4c-0.2,0.1-0.4,0.2-0.6,0.3s-0.4,0.2-0.5,0.3c-0.1,0.1-0.3,0.1-0.3,0.2c0,0-0.1,0-0.1,0.1l-0.8,0.4
			l-0.8,0.4c-3.2,1.5-6.7,2.4-10.2,2.7c-1.1,0.1-2.2,0.2-3.3,0.2c0,0,0,0,0,0c-0.8,0-1.6-0.1-2.4-0.2c-1.6-0.2-3.2-0.7-4.7-1.4
			c-1.4-0.7-2.7-1.7-3.6-2.9c-0.1-0.1-0.2-0.3-0.3-0.5c-0.1-0.2-0.2-0.3-0.3-0.5l-0.3-0.5l-0.2-0.5c-0.1-0.2-0.1-0.4-0.2-0.5
			c-0.1-0.2-0.1-0.4-0.2-0.6l-0.1-0.6l0-0.2l0,0l0,0l0-0.1c0,0,0,0,0-0.1c0,0,0,0,0-0.1l0-0.1c-0.1-0.4-0.1-0.7-0.1-1.1l0-0.3l0-0.3
			c0-0.2,0-0.4,0-0.6c0-0.8,0-1.6,0-2.5l0-0.1l0-0.1c0.1-1.6,0.2-3.1,0.4-4.7l0-0.3l0-0.3c0-0.1,0-0.2,0-0.2l0-0.6
			c0-0.4-0.1-0.8-0.1-1.2c0-0.8-0.1-1.6,0-2.3c0-0.8,0-1.5,0.1-2.3c0-0.2,0-0.4,0.1-0.6l0.1-0.6c0-0.2,0.1-0.4,0.1-0.5l0-0.1l0.1,0
			c0.4,0,0.7,0.1,1.1,0.2c0.7,0.2,1.5,0.4,2.2,0.7l0.3,0.1l0.3,0.1l0.5,0.3l0.5,0.3l0.3,0.1l0.3,0.1l1,0.6l0.1,0.1l0.1,0l0.1,0
			l0.3-0.2c0.2-0.1,0.3-0.3,0.5-0.4l0.3-0.2l0.1-0.1l0.3-0.2c0.2-0.1,0.3-0.2,0.5-0.3c1.3-0.8,2.8-1.5,4.3-1.9l0.3-0.1l0.2-0.1l0,0
			c0,0,0.1,0,0,0l0,0l1.2-0.2l0.2,0l0,0l0-0.1l0-0.3c0-0.2,0-0.4,0-0.6l0-0.3l0-0.3l0-0.3c0.1-0.8,0.2-1.5,0.4-2.3
			c0.1-0.7,0.3-1.5,0.6-2.2c0.1-0.3,0.3-0.6,0.4-0.9c0-0.1,0.1-0.1,0.1-0.2l0,0c0.2,0.1,0.4,0.1,0.6,0.2c0.4,0.2,0.8,0.4,1.2,0.5
			c0.8,0.4,1.5,0.8,2.2,1.3c0.7,0.5,1.3,1,2,1.6l0.5,0.5l0.1,0.1l0.1,0.1c0,0,0,0.1,0.1,0l0.3,0.1l0.3,0.1c0.4,0.2,0.8,0.4,1.2,0.6
			c1.7,0.8,3.3,1.8,4.8,3c1.5,1.1,2.8,2.4,3.9,3.9c0.6,0.8,1.1,1.6,1.5,2.4c0.2,0.4,0.4,0.8,0.5,1.3c0.1,0.2,0.1,0.4,0.2,0.7
			L-35.8,36z"/>
		<path class="st2" d="M-68.7,32.6l-2.7-2.6c0,0-0.1,3.3,0.4,4.5C-70.5,33.6-69.7,32.9-68.7,32.6L-68.7,32.6z"/>
		<path class="st2" d="M-53.4,21.5l0.6,3.5c0,0,2.1-0.9,3-1C-49.8,23.9-52.4,21.3-53.4,21.5z"/>
		<path class="st3" d="M-64.3,37.3l0.6,1.1l3.3-1.8l-0.6-1.1L-64.3,37.3z M-63.8,43.4l0.6,1.1l7.7-4.1l-0.6-1.1L-63.8,43.4z
			 M-67,36.1l0.6,1l2.4-1.3l-0.6-1L-67,36.1z M-65,35.1l0.1,0.2c0.2,1.5-0.4,3.4-1.4,4.7c0.4,0.1,1,0.3,1.3,0.5
			c1.2-1.6,1.8-3.6,1.5-5.7l-1.1,0l-0.2,0.2L-65,35.1z M-62.8,33.5l-0.9,0.9c1.7,1.4,3.6,2.2,5.7,2.1c0-0.4,0.1-1.1,0.3-1.5
			C-59.6,35.2-61.5,34.6-62.8,33.5z M-66.6,38.2c0.5,0,1.1,0.2,1.4,0.3l0.3-1.2c-0.4-0.1-1-0.2-1.4-0.2L-66.6,38.2z M-61.6,33
			c-0.1,0.6-0.4,1.4-0.7,1.9l1.1,0.2c0.3-0.5,0.6-1.2,0.9-1.9L-61.6,33z M-60.1,33.5c-0.1,0.6-0.5,1.5-0.8,2l1.1,0.2
			c0.3-0.5,0.7-1.3,1-2L-60.1,33.5z M-62.7,39.6l2.7-1.5l0.3,0.6l-2.7,1.5L-62.7,39.6z M-64.5,39.3l1.4,2.6l5.4-2.9l-1.4-2.6
			L-64.5,39.3z M-62.6,41.7c0.4,0.2,0.8,0.6,1,0.8l1.1-1c-0.2-0.2-0.6-0.6-1-0.7L-62.6,41.7z M-59.6,39.7c0.1,0.4,0.1,0.9,0.1,1.3
			l1.3-0.4c0-0.3,0-0.8,0-1.3L-59.6,39.7z"/>
		<path class="st3" d="M-49.5,31.6c0,0.5-0.1,1.2-0.2,1.6l1.1,0.1c0.2-0.4,0.3-1,0.5-1.6L-49.5,31.6z M-53.1,34.4
			c0.5,0.2,1.1,0.5,1.5,0.7L-51,34c-0.3-0.2-1-0.5-1.5-0.6L-53.1,34.4z M-55,29.6l0.6,1.1l2.6-1.4l1.2,2.2l1.2-0.6l-1.7-3.2
			L-55,29.6z M-54.1,30.9l0.5,1l3-1.6l-0.5-1L-54.1,30.9z M-54,32.5l0.6,1.1l4.8-2.6l-0.6-1.1L-54,32.5z M-52,32.1l2,3.8
			c0,0.1,0,0.1-0.1,0.2c-0.1,0-0.3,0.2-0.5,0.3c0.3,0.3,0.7,0.6,0.9,1c0.5-0.3,0.9-0.5,1.1-0.8c0.2-0.3,0.1-0.7-0.2-1.2l-2.1-3.8
			L-52,32.1z M-52.2,36.6l1.1,0.7c0.3-0.6,0.7-1.3,1-2l-0.9-0.8C-51.4,35.4-51.9,36.1-52.2,36.6z M-50.4,32.3l-0.4,1
			c0.8,0.8,2.3,2,3.7,2.1c0-0.4,0.1-1.1,0.3-1.5C-48.2,34-49.6,33.1-50.4,32.3z M-57.3,33.4l0.6,1.1l2.7-1.4l-0.6-1.1L-57.3,33.4z
			 M-56.9,35.2l0.6,1.1l3.3-1.7l-0.6-1.1L-56.9,35.2z M-56.1,36.7c0.4,0.4,0.8,1,1.1,1.4l0.7-0.7c-0.3-0.4-0.7-0.9-1.1-1.3
			L-56.1,36.7z M-55.2,38.6l0.9,1c0.8-0.7,1.9-1.5,2.8-2.3l-0.7-1C-53.3,37.2-54.4,38.1-55.2,38.6z M-53.7,35.1
			c0.2,0.4,0.4,1.1,0.5,1.5l0.9-0.2c-0.1-0.4-0.2-1-0.3-1.6L-53.7,35.1z M-56.4,33.5l2.7,5l1-0.8l-2.6-4.8L-56.4,33.5z M-57.9,30.8
			c0.1,0.8,0,1.9-0.4,2.9c0.3,0,0.9,0.3,1.2,0.4c0.5-1.3,0.5-2.5,0.5-3.3l-0.2-0.3l-0.4,0.2l-0.1-0.2L-57.9,30.8z M-57.7,30.7
			l0.5,0.9l0.2-0.1c0.7,0.1,1.7,0.6,2.2,0.9l0.3-1.4c-0.6-0.3-1.6-0.6-2.3-0.7L-57.7,30.7z"/>
		<path class="st3" d="M-62,47l0.7,1.3l7.9-4.2l-0.7-1.3L-62,47z M-56,47.9c1.4,0.3,3.3,0.7,4.2,1.1l0.6-1.6c-1-0.4-3-0.7-4.3-0.9
			L-56,47.9z M-57.9,45.4c0.1,1.9-0.5,4.5-1.9,6.4c0.4,0.1,1.1,0.5,1.5,0.7c1.5-2.2,2.1-4.9,2.1-7.3L-57.9,45.4z M-57.3,48.1l2.7,5
			l1.4-0.8l-3.5-6.5L-57.3,48.1z"/>
		<path class="st3" d="M-51,46.5l0.6,1l8.3-4.4l-0.6-1L-51,46.5z M-53.3,41.9l0.6,1.1l7.9-4.2l-0.6-1.1L-53.3,41.9z M-48.5,44.1
			c0,1.2-0.2,2.7-0.4,3.7l1.5-0.3c0.1-1,0.3-2.5,0.3-3.7L-48.5,44.1z M-45.3,44c0.2,2.1-1.2,3.4-4.1,5c0.3,0.2,0.8,0.5,1.1,0.9
			c3.2-2,4.7-3.5,4.4-6.2L-45.3,44z M-48.1,47.6c2.3-0.6,4.7-1,6.2-1.2l0.2-1.5c-1.6,0.2-4.1,0.8-6.3,1.4L-48.1,47.6z M-50.7,41.1
			l1.6,3l1.2-0.7l-1.6-3L-50.7,41.1z M-48.8,40l1.6,3l1.2-0.7l-1.6-3L-48.8,40z M-50.3,43.5l4.8-2.5l0.3,0.6l-4.8,2.5L-50.3,43.5z
			 M-52.1,43.2l1.4,2.6l7.3-3.9l-1.4-2.6L-52.1,43.2z"/>
	</g>
</g>
<g>
	<path class="st4" d="M39.8,13.9c0,0-3.8-12.1-7-11.3c0,0-3.6-0.4-8.3,7.9c0,0-5,0.9-9.4,4.3c0,0-7.3-2.6-11.2,0.4
		c0,0-1.7,1.8,0.4,6.8l3.1,6.2c0,0-1.2,10.5,9.5,15.1c0,0,7.7,3.9,18.1-1.4c0,0,12.8-6.7,9.9-19.5C45,22.1,44.2,16.9,39.8,13.9z"/>
	<path class="st5" d="M38.8,14.8c0,0-3.2-11.6-6.6-10.9c0,0-3.6,1.2-7.1,7.9c0,0-4.5,0.2-9.7,4.2c0,0-7.8-2.1-10.2-0.1
		c0,0-1.2,0.8-0.1,3.8c0,0,2.8,6.8,4,8c0,0-1.6,10.5,9.9,14.8c0,0,10.6,4.1,20.3-5.3c0,0,10.6-9.6,1.9-20.7
		C40.8,16.4,39.7,14.9,38.8,14.8z"/>
	<path class="st4" d="M34.6,10.7c0,0-1.2-5.2-2.9-3.9c0,0-0.9,0.6-1.9,2.6c0,0-0.2,0.7,0.4,0.8c0,0,3.1,0.3,3.6,0.8
		C34,10.8,34.6,11.1,34.6,10.7z"/>
	<path class="st4" d="M8.7,22.1c0,0-3.1-4.2-0.9-4.7c0,0,1-0.3,3.1,0.3c0,0,0.7,0.2,0.4,0.8c0,0-1.9,2.6-1.9,3.1
		C9.4,21.5,9.4,22.2,8.7,22.1z"/>
</g>
<g>
	<path class="st4" d="M-38.7,0.6l-3.1-7.1l1.5-0.7l3.7,2.7c0.1,0.1,0.2,0.2,0.4,0.4c0.2,0.2,0.4,0.4,0.7,0.7
		c-0.2-0.3-0.3-0.5-0.4-0.8c-0.1-0.2-0.2-0.4-0.3-0.6l-1.5-3.5l1.5-0.7l3.1,7.1l-1.5,0.7l-3.8-2.7c-0.1-0.1-0.2-0.2-0.4-0.4
		c-0.2-0.2-0.4-0.4-0.7-0.7c0.2,0.3,0.3,0.5,0.4,0.8c0.1,0.2,0.2,0.4,0.3,0.6l1.5,3.5L-38.7,0.6z"/>
	<path class="st4" d="M-27.7-8.5c0.2,0.5,0.4,1,0.4,1.5c0,0.5,0,1-0.1,1.5C-27.5-5-27.7-4.6-28-4.2c-0.3,0.4-0.6,0.6-1,0.8
		c-0.4,0.2-0.8,0.3-1.3,0.2c-0.5,0-0.9-0.1-1.3-0.4c-0.4-0.2-0.8-0.5-1.2-0.9c-0.3-0.4-0.6-0.8-0.9-1.3c-0.2-0.5-0.4-1-0.4-1.5
		c0-0.5,0-1,0.1-1.5c0.1-0.5,0.3-0.9,0.6-1.2c0.3-0.4,0.6-0.6,1-0.8c0.4-0.2,0.8-0.3,1.3-0.2c0.5,0,0.9,0.1,1.3,0.4
		c0.4,0.2,0.8,0.5,1.2,0.9C-28.2-9.4-27.9-9-27.7-8.5z M-29.8-5.1c0.4-0.2,0.7-0.5,0.8-1.1c0.1-0.5,0-1.1-0.2-1.7
		c-0.3-0.6-0.6-1-1.1-1.3c-0.5-0.3-0.9-0.3-1.3-0.1C-32-9-32.3-8.7-32.4-8.2c-0.1,0.5,0,1.1,0.2,1.7c0.3,0.6,0.6,1,1.1,1.3
		C-30.6-4.9-30.2-4.9-29.8-5.1z"/>
	<path class="st4" d="M-41.8,11.9l-3.1-7.1l1.5-0.7l2.4,5.4l1.9-0.8l0.7,1.7L-41.8,11.9z"/>
	<path class="st4" d="M-33.5,4c0.2,0.5,0.4,1,0.4,1.5c0,0.5,0,1-0.1,1.5c-0.1,0.5-0.3,0.9-0.6,1.2c-0.3,0.4-0.6,0.6-1,0.8
		c-0.4,0.2-0.8,0.3-1.3,0.2c-0.5,0-0.9-0.1-1.3-0.4c-0.4-0.2-0.8-0.5-1.2-0.9c-0.3-0.4-0.6-0.8-0.9-1.3c-0.2-0.5-0.4-1-0.4-1.5
		c0-0.5,0-1,0.1-1.5c0.1-0.5,0.3-0.9,0.6-1.2c0.3-0.4,0.6-0.6,1-0.8c0.4-0.2,0.8-0.3,1.3-0.2c0.5,0,0.9,0.1,1.3,0.4
		c0.4,0.2,0.8,0.5,1.2,0.9C-34,3-33.7,3.5-33.5,4z M-35.6,7.4c0.4-0.2,0.7-0.5,0.8-1.1c0.1-0.5,0-1.1-0.2-1.7
		c-0.3-0.6-0.6-1-1.1-1.3C-36.6,3.1-37,3-37.4,3.2c-0.4,0.2-0.7,0.5-0.8,1.1c-0.1,0.5,0,1.1,0.2,1.7c0.3,0.6,0.6,1,1.1,1.3
		C-36.5,7.5-36,7.6-35.6,7.4z"/>
	<path class="st4" d="M-29.4,3.3l-0.7-1.5l3-1.3c0,0,0,0.1,0.1,0.2c0,0.1,0.1,0.1,0.1,0.3c0.5,1.2,0.7,2.3,0.5,3.2
		c-0.2,0.9-0.8,1.6-1.7,2c-0.5,0.2-0.9,0.3-1.3,0.3c-0.4,0-0.9-0.1-1.3-0.4c-0.4-0.2-0.8-0.5-1.2-0.9c-0.4-0.4-0.6-0.9-0.9-1.4
		c-0.2-0.5-0.4-1-0.4-1.6c-0.1-0.5,0-1,0.1-1.5c0.1-0.5,0.3-0.9,0.6-1.2c0.3-0.3,0.6-0.6,1.1-0.8c0.6-0.2,1.1-0.3,1.7-0.2
		c0.5,0.1,1.1,0.3,1.6,0.7l-1,1.4c-0.3-0.2-0.6-0.3-0.8-0.4s-0.5,0-0.8,0.1c-0.5,0.2-0.7,0.6-0.8,1.1c-0.1,0.5,0,1.1,0.3,1.8
		c0.3,0.7,0.7,1.1,1.1,1.4c0.4,0.3,0.9,0.3,1.3,0.1c0.4-0.2,0.7-0.4,0.8-0.8c0.2-0.4,0.2-0.7,0-1.2L-29.4,3.3z"/>
	<path class="st4" d="M-24.2,4.1L-27.4-3l1.6-0.7l3.1,7.1L-24.2,4.1z"/>
	<path class="st4" d="M-21.4,2.9l-3.1-7.1l1.5-0.7l3.7,2.7c0.1,0.1,0.2,0.2,0.4,0.4c0.2,0.2,0.4,0.4,0.7,0.7
		c-0.2-0.3-0.3-0.5-0.4-0.8c-0.1-0.2-0.2-0.4-0.3-0.6L-20.5-6l1.5-0.7l3.1,7.1l-1.5,0.7l-3.8-2.7c-0.1-0.1-0.2-0.2-0.4-0.4
		c-0.2-0.2-0.4-0.4-0.7-0.7c0.2,0.3,0.3,0.5,0.4,0.8c0.1,0.2,0.2,0.4,0.3,0.6l1.5,3.5L-21.4,2.9z"/>
</g>
<g>
	<path class="st6" d="M-39.5,0.3l-3.1-7.1l1.5-0.7l3.7,2.7c0.1,0.1,0.2,0.2,0.4,0.4c0.2,0.2,0.4,0.4,0.7,0.7
		c-0.2-0.3-0.3-0.5-0.4-0.8C-36.9-4.7-37-4.9-37-5l-1.5-3.5l1.5-0.7l3.1,7.1l-1.5,0.7l-3.8-2.7c-0.1-0.1-0.2-0.2-0.4-0.4
		c-0.2-0.2-0.4-0.4-0.7-0.7c0.2,0.3,0.3,0.5,0.4,0.8c0.1,0.2,0.2,0.4,0.3,0.6l1.5,3.5L-39.5,0.3z"/>
	<path class="st6" d="M-28.5-8.7c0.2,0.5,0.4,1,0.4,1.5c0,0.5,0,1-0.1,1.5c-0.1,0.5-0.3,0.9-0.6,1.2c-0.3,0.4-0.6,0.6-1,0.8
		c-0.4,0.2-0.8,0.3-1.3,0.2c-0.5,0-0.9-0.1-1.3-0.4c-0.4-0.2-0.8-0.5-1.2-0.9c-0.3-0.4-0.6-0.8-0.9-1.3c-0.2-0.5-0.4-1-0.4-1.5
		s0-1,0.1-1.5c0.1-0.5,0.3-0.9,0.6-1.2c0.3-0.4,0.6-0.6,1-0.8c0.4-0.2,0.8-0.3,1.3-0.2c0.5,0,0.9,0.1,1.3,0.4
		c0.4,0.2,0.8,0.5,1.2,0.9C-29-9.7-28.7-9.3-28.5-8.7z M-30.6-5.3c0.4-0.2,0.7-0.5,0.8-1.1c0.1-0.5,0-1.1-0.2-1.7
		c-0.3-0.6-0.6-1-1.1-1.3c-0.5-0.3-0.9-0.3-1.3-0.1c-0.4,0.2-0.7,0.5-0.8,1.1c-0.1,0.5,0,1.1,0.2,1.7c0.3,0.6,0.6,1,1.1,1.3
		C-31.5-5.2-31-5.1-30.6-5.3z"/>
	<path class="st6" d="M-42.7,11.6l-3.1-7.1l1.5-0.7l2.4,5.4l1.9-0.8l0.7,1.7L-42.7,11.6z"/>
	<path class="st6" d="M-34.3,3.7c0.2,0.5,0.4,1,0.4,1.5c0,0.5,0,1-0.1,1.5c-0.1,0.5-0.3,0.9-0.6,1.2c-0.3,0.4-0.6,0.6-1,0.8
		C-36.1,8.9-36.5,9-37,9c-0.5,0-0.9-0.1-1.3-0.4c-0.4-0.2-0.8-0.5-1.2-0.9c-0.3-0.4-0.6-0.8-0.9-1.3c-0.2-0.5-0.4-1-0.4-1.5
		s0-1,0.1-1.5c0.1-0.5,0.3-0.9,0.6-1.2c0.3-0.4,0.6-0.6,1-0.8c0.4-0.2,0.8-0.3,1.3-0.2c0.5,0,0.9,0.1,1.3,0.4s0.8,0.5,1.2,0.9
		C-34.8,2.8-34.6,3.2-34.3,3.7z M-36.4,7.1c0.4-0.2,0.7-0.5,0.8-1.1c0.1-0.5,0-1.1-0.2-1.7c-0.3-0.6-0.6-1-1.1-1.3
		c-0.5-0.3-0.9-0.3-1.3-0.1C-38.7,3.1-39,3.5-39.1,4c-0.1,0.5,0,1.1,0.2,1.7c0.3,0.6,0.6,1,1.1,1.3C-37.3,7.3-36.9,7.3-36.4,7.1z"/>
	<path class="st6" d="M-30.3,3l-0.7-1.5l3-1.3c0,0,0,0.1,0.1,0.2c0,0.1,0.1,0.1,0.1,0.3c0.5,1.2,0.7,2.3,0.5,3.2
		c-0.2,0.9-0.8,1.6-1.7,2C-29.4,5.9-29.8,6-30.3,6c-0.4,0-0.9-0.1-1.3-0.4c-0.4-0.2-0.8-0.5-1.2-0.9c-0.4-0.4-0.6-0.8-0.9-1.4
		c-0.2-0.5-0.4-1-0.4-1.6c-0.1-0.5,0-1,0.1-1.5c0.1-0.5,0.3-0.9,0.6-1.2c0.3-0.3,0.6-0.6,1.1-0.8c0.6-0.2,1.1-0.3,1.7-0.2
		c0.5,0.1,1.1,0.3,1.6,0.7l-1,1.4c-0.3-0.2-0.6-0.3-0.8-0.4c-0.3,0-0.5,0-0.8,0.1C-32,0.2-32.2,0.5-32.3,1c-0.1,0.5,0,1.1,0.3,1.8
		c0.3,0.7,0.7,1.1,1.1,1.4c0.4,0.3,0.9,0.3,1.3,0.1c0.4-0.2,0.7-0.4,0.8-0.8c0.2-0.4,0.2-0.7,0-1.2L-30.3,3z"/>
	<path class="st6" d="M-25.1,3.8l-3.1-7.1l1.6-0.7l3.1,7.1L-25.1,3.8z"/>
	<path class="st6" d="M-22.3,2.6l-3.1-7.1l1.5-0.7l3.7,2.7c0.1,0.1,0.2,0.2,0.4,0.4c0.2,0.2,0.4,0.4,0.7,0.7
		c-0.2-0.3-0.3-0.5-0.4-0.8c-0.1-0.2-0.2-0.4-0.3-0.6l-1.5-3.5l1.5-0.7l3.1,7.1l-1.5,0.7L-22-1.9c-0.1-0.1-0.2-0.2-0.4-0.4
		c-0.2-0.2-0.4-0.4-0.7-0.7c0.2,0.3,0.3,0.5,0.4,0.8c0.1,0.2,0.2,0.4,0.3,0.6l1.5,3.5L-22.3,2.6z"/>
</g>
<text transform="matrix(0.731 -0.3232 0.4044 0.9146 -3.2267 -15.6819)"><tspan x="0" y="0" class="st4" style="font-family:'FuturaBT-Bold'; font-size:12px;">NO</tspan><tspan x="-10.4" y="10" class="st4" style="font-family:'FuturaBT-Bold'; font-size:12px;">LOGIN</tspan></text>
<text transform="matrix(0.731 -0.3232 0.4044 0.9146 -4.162 -15.9693)"><tspan x="0" y="0" class="st6" style="font-family:'FuturaBT-Bold'; font-size:12px;">NO</tspan><tspan x="-10.4" y="10" class="st6" style="font-family:'FuturaBT-Bold'; font-size:12px;">LOGIN</tspan></text>
<text transform="matrix(0.739 -0.3267 0.4044 0.9146 47.058 -20.3011)"><tspan x="0" y="0" class="st4" style="font-family:'FuturaBT-Bold'; font-size:12px;">PLAY</tspan><tspan x="-0.9" y="11" class="st4" style="font-family:'FuturaBT-Bold'; font-size:12px;">NOW</tspan></text>
<text transform="matrix(0.739 -0.3267 0.4044 0.9146 46.1148 -20.5856)"><tspan x="0" y="0" class="st6" style="font-family:'FuturaBT-Bold'; font-size:12px;">PLAY</tspan><tspan x="-0.9" y="11" class="st6" style="font-family:'FuturaBT-Bold'; font-size:12px;">NOW</tspan></text>
<g>
	<g>
		<path class="st4" d="M18.5,31.4l-1.5,0.8l-3.8-7.1l1.6-0.9c0.6-0.3,1.1-0.6,1.4-0.6c0.3-0.1,0.6-0.1,0.9,0
			c0.3,0.1,0.6,0.3,0.9,0.5c0.3,0.3,0.5,0.6,0.8,1c0.2,0.4,0.4,0.8,0.4,1.2c0.1,0.4,0,0.7-0.1,1.1c-0.1,0.2-0.2,0.5-0.4,0.6
			c-0.2,0.2-0.5,0.4-1,0.7L17.6,29l-0.3,0.2L18.5,31.4z M16.4,27.6l0.3-0.2c0.4-0.2,0.6-0.4,0.7-0.6c0.1-0.2,0-0.5-0.1-0.8
			c-0.2-0.3-0.3-0.5-0.6-0.5c-0.2,0-0.5,0-0.9,0.2l-0.3,0.2L16.4,27.6z"/>
		<path class="st4" d="M22.6,29.3l-3.8-7.1l1.6-0.8l2.9,5.4l1.9-1.1l0.9,1.7L22.6,29.3z"/>
		<path class="st4" d="M26.5,27.1L24.7,19l2-1.1l5.8,6l-1.5,0.8l-1-1.1l-2.2,1.2l0.4,1.4L26.5,27.1z M27.3,23.3l1.5-0.8l-1.8-2
			c-0.1-0.1-0.1-0.2-0.3-0.3c-0.1-0.1-0.3-0.3-0.5-0.5c0.1,0.2,0.1,0.4,0.2,0.6c0.1,0.2,0.1,0.3,0.1,0.5L27.3,23.3z"/>
		<path class="st4" d="M34.1,23l-1.8-3.2L28.3,17l1.8-1l1.8,1.4c0,0,0,0,0.1,0c0.2,0.1,0.3,0.3,0.5,0.5c-0.1-0.2-0.1-0.4-0.1-0.6
			c0,0,0-0.1,0-0.1L32,15l1.8-1l0.1,4.9l1.8,3.2L34.1,23z"/>
		<path class="st4" d="M21.3,41.7l-3.8-7.1l1.5-0.8l4.1,2.5c0.1,0.1,0.2,0.2,0.4,0.3c0.2,0.2,0.5,0.4,0.7,0.6
			c-0.2-0.3-0.4-0.5-0.5-0.7s-0.3-0.4-0.4-0.6l-1.9-3.5l1.5-0.8l3.8,7.1l-1.5,0.8L21.2,37c-0.1-0.1-0.2-0.2-0.5-0.3
			c-0.2-0.2-0.5-0.4-0.7-0.6c0.2,0.3,0.4,0.5,0.5,0.7c0.1,0.2,0.3,0.4,0.4,0.6l1.9,3.5L21.3,41.7z"/>
		<path class="st4" d="M32.5,31.1c0.3,0.5,0.5,1,0.6,1.6c0.1,0.5,0.1,1,0,1.6c-0.1,0.5-0.3,1-0.6,1.3c-0.3,0.4-0.6,0.7-1,0.9
			c-0.4,0.2-0.9,0.3-1.3,0.4c-0.5,0-1-0.1-1.4-0.3c-0.5-0.2-0.9-0.5-1.3-0.8c-0.4-0.4-0.7-0.8-1-1.3c-0.3-0.5-0.5-1-0.5-1.6
			c-0.1-0.5-0.1-1,0-1.6c0.1-0.5,0.3-0.9,0.5-1.3c0.3-0.4,0.6-0.7,1-0.9c0.4-0.2,0.8-0.3,1.3-0.4c0.5,0,1,0.1,1.4,0.3
			c0.5,0.2,0.9,0.5,1.3,0.8C31.8,30.1,32.2,30.6,32.5,31.1z M30.5,34.8c0.4-0.2,0.7-0.6,0.8-1.2c0.1-0.5-0.1-1.1-0.4-1.7
			c-0.3-0.6-0.7-1-1.2-1.2c-0.5-0.2-1-0.2-1.4,0c-0.4,0.2-0.7,0.6-0.7,1.2c-0.1,0.5,0.1,1.1,0.4,1.7c0.3,0.6,0.7,1,1.2,1.3
			C29.6,35,30.1,35,30.5,34.8z"/>
		<path class="st4" d="M35.8,24.7l2.5,3c0.1,0.1,0.2,0.3,0.4,0.4s0.3,0.3,0.4,0.5c-0.1-0.3-0.2-0.5-0.2-0.7
			c-0.1-0.2-0.1-0.3-0.1-0.5l-1.2-3.7l1.6-0.9l2.2,7.9l-1.4,0.8l-2.3-2.6c-0.1-0.1-0.2-0.3-0.5-0.6c-0.1-0.1-0.2-0.2-0.2-0.3
			c0,0.1,0.1,0.2,0.1,0.3c0.1,0.3,0.2,0.6,0.2,0.7l0.9,3.4l-1.4,0.8l-5.5-6.2l1.6-0.9l2.5,3c0.1,0.2,0.3,0.3,0.4,0.5
			c0.1,0.2,0.3,0.3,0.4,0.5c-0.1-0.1-0.1-0.3-0.2-0.5c-0.1-0.2-0.1-0.4-0.2-0.7l-1.1-3.8L35.8,24.7z"/>
	</g>
	<g>
		<path class="st6" d="M17.6,31.2L16.1,32l-3.8-7.1l1.6-0.9c0.6-0.3,1.1-0.6,1.4-0.6c0.3-0.1,0.6,0,0.9,0c0.3,0.1,0.6,0.3,0.9,0.5
			c0.3,0.3,0.5,0.6,0.8,1c0.2,0.4,0.4,0.8,0.4,1.2c0.1,0.4,0,0.7-0.1,1.1c-0.1,0.2-0.2,0.5-0.4,0.6c-0.2,0.2-0.5,0.4-1,0.7l-0.3,0.1
			l-0.3,0.2L17.6,31.2z M15.5,27.3l0.3-0.2c0.4-0.2,0.6-0.4,0.7-0.6c0.1-0.2,0-0.5-0.1-0.8c-0.2-0.3-0.3-0.5-0.6-0.5
			c-0.2,0-0.5,0-0.9,0.2l-0.3,0.2L15.5,27.3z"/>
		<path class="st6" d="M21.6,29L17.7,22l1.6-0.8l2.9,5.4l1.9-1.1l0.9,1.7L21.6,29z"/>
		<path class="st6" d="M25.6,26.9l-1.9-8.1l2-1.1l5.8,6l-1.5,0.8l-1-1.1l-2.2,1.2l0.4,1.4L25.6,26.9z M26.3,23l1.5-0.8l-1.8-2
			c-0.1-0.1-0.1-0.2-0.3-0.3c-0.1-0.1-0.3-0.3-0.5-0.5c0.1,0.2,0.1,0.4,0.2,0.6c0.1,0.2,0.1,0.3,0.1,0.5L26.3,23z"/>
		<path class="st6" d="M33.1,22.8l-1.8-3.2l-4.1-2.8l1.8-1l1.8,1.4c0,0,0,0,0.1,0c0.2,0.1,0.3,0.3,0.5,0.5c-0.1-0.2-0.1-0.4-0.1-0.6
			c0,0,0-0.1,0-0.1L31,14.8l1.8-1l0.1,4.9l1.8,3.2L33.1,22.8z"/>
		<path class="st6" d="M20.3,41.4l-3.8-7.1l1.5-0.8l4.1,2.5c0.1,0.1,0.2,0.2,0.4,0.3c0.2,0.2,0.5,0.4,0.7,0.6
			c-0.2-0.3-0.4-0.5-0.5-0.7c-0.1-0.2-0.3-0.4-0.4-0.6l-1.9-3.5l1.5-0.8l3.8,7.1l-1.5,0.8l-4.1-2.5c-0.1,0-0.2-0.2-0.5-0.3
			s-0.5-0.4-0.7-0.6c0.2,0.3,0.4,0.5,0.5,0.8s0.3,0.4,0.4,0.6l1.9,3.5L20.3,41.4z"/>
		<path class="st6" d="M31.5,30.8c0.3,0.5,0.5,1,0.5,1.6c0.1,0.5,0.1,1,0,1.6c-0.1,0.5-0.3,1-0.6,1.3c-0.3,0.4-0.6,0.7-1,0.9
			c-0.4,0.2-0.9,0.3-1.3,0.4c-0.5,0-0.9-0.1-1.4-0.3c-0.5-0.2-0.9-0.5-1.3-0.8c-0.4-0.4-0.7-0.8-1-1.3c-0.3-0.5-0.5-1-0.5-1.6
			c-0.1-0.5-0.1-1,0-1.6c0.1-0.5,0.3-0.9,0.5-1.3c0.3-0.4,0.6-0.7,1-0.9c0.4-0.2,0.8-0.3,1.3-0.4c0.5,0,1,0.1,1.4,0.3
			c0.5,0.2,0.9,0.5,1.3,0.8C30.9,29.9,31.2,30.3,31.5,30.8z M29.6,34.6c0.4-0.2,0.7-0.6,0.8-1.2c0.1-0.5-0.1-1.1-0.4-1.7
			c-0.3-0.6-0.7-1-1.2-1.2c-0.5-0.2-1-0.2-1.4,0c-0.4,0.2-0.7,0.6-0.7,1.2c-0.1,0.5,0.1,1.1,0.4,1.7c0.3,0.6,0.7,1,1.2,1.3
			C28.7,34.8,29.1,34.8,29.6,34.6z"/>
		<path class="st6" d="M34.8,24.4l2.5,3c0.1,0.1,0.2,0.3,0.4,0.4c0.1,0.1,0.3,0.3,0.4,0.5c-0.1-0.3-0.2-0.5-0.2-0.7
			c-0.1-0.2-0.1-0.3-0.1-0.5l-1.2-3.7l1.6-0.9l2.2,7.9l-1.4,0.8l-2.3-2.6c-0.1-0.1-0.2-0.3-0.5-0.6c-0.1-0.1-0.2-0.2-0.2-0.3
			c0,0.1,0.1,0.2,0.1,0.3c0.1,0.3,0.2,0.6,0.2,0.7l0.9,3.4l-1.4,0.8l-5.5-6.2l1.6-0.9l2.5,3c0.1,0.2,0.3,0.3,0.4,0.5
			c0.1,0.2,0.2,0.3,0.4,0.5c-0.1-0.1-0.1-0.3-0.2-0.5c-0.1-0.2-0.1-0.4-0.2-0.7l-1.1-3.8L34.8,24.4z"/>
	</g>
</g>
<g>
	<text transform="matrix(0.731 -0.3232 0.4044 0.9146 71.3409 10.8493)"><tspan x="0" y="0" class="st4" style="font-family:'FuturaBT-Bold'; font-size:12px;">Play</tspan><tspan x="-0.8" y="10" class="st4" style="font-family:'FuturaBT-Bold'; font-size:12px;">Now</tspan></text>
	<text transform="matrix(0.731 -0.3232 0.4044 0.9146 70.4056 10.562)"><tspan x="0" y="0" class="st6" style="font-family:'FuturaBT-Bold'; font-size:12px;">Play</tspan><tspan x="-0.8" y="10" class="st6" style="font-family:'FuturaBT-Bold'; font-size:12px;">Now</tspan></text>
</g>
<g>
	<g>
		<path class="st4" d="M79,52.7l-1.7,1.1l-5.2-8.4l1.9-1.2c0.7-0.5,1.3-0.7,1.7-0.8c0.4-0.1,0.7-0.1,1.1,0c0.4,0.1,0.8,0.3,1.2,0.6
			c0.4,0.3,0.7,0.7,1,1.2c0.3,0.5,0.5,1,0.6,1.4c0.1,0.5,0.1,0.9,0,1.3c-0.1,0.3-0.2,0.6-0.4,0.8c-0.2,0.2-0.6,0.5-1.2,0.9l-0.3,0.2
			L77.3,50L79,52.7z M76.1,48.1l0.3-0.2c0.4-0.3,0.7-0.5,0.8-0.8c0.1-0.3,0-0.6-0.2-0.9c-0.2-0.4-0.5-0.5-0.7-0.6
			c-0.3,0-0.6,0.1-1,0.3l-0.4,0.2L76.1,48.1z"/>
		<path class="st4" d="M83.1,50.2l-5.5-8.8l1.6-1l5.5,8.8L83.1,50.2z"/>
		<path class="st4" d="M87.4,39.5l3.6,5.8l-1.5,0.9l-0.6-0.9c0,0.5,0,1-0.2,1.3c-0.2,0.4-0.4,0.6-0.8,0.9c-0.6,0.4-1.3,0.4-2,0.1
			c-0.7-0.3-1.4-1-2-1.9c-0.6-0.9-0.9-1.8-0.8-2.6c0-0.8,0.4-1.4,1-1.8c0.3-0.2,0.7-0.3,1.1-0.3c0.4,0,0.8,0.2,1.2,0.5l-0.6-0.9
			L87.4,39.5z M87.7,43.3c-0.3-0.4-0.6-0.7-0.9-0.9c-0.4-0.1-0.7-0.1-1,0.1c-0.3,0.2-0.5,0.5-0.5,0.9c0,0.4,0.1,0.8,0.4,1.2
			c0.3,0.4,0.6,0.7,0.9,0.9c0.4,0.1,0.7,0.1,1-0.1c0.3-0.2,0.5-0.5,0.5-0.9C88.1,44.2,88,43.8,87.7,43.3z"/>
		<path class="st4" d="M93.5,47.2L92.7,43l-4.9-3.7l1.8-1.1l1.9,1.7c0.2,0.1,0.3,0.3,0.4,0.4c0.1,0.1,0.2,0.3,0.3,0.4
			c-0.1-0.1-0.1-0.3-0.2-0.5c-0.1-0.2-0.1-0.4-0.2-0.6l-0.6-2.5L93,36l2.3,10.1L93.5,47.2z"/>
		<path class="st4" d="M82.7,63.9l-5.2-8.4l1.8-1.1l5.2,2.7c0.1,0.1,0.3,0.2,0.6,0.4c0.3,0.2,0.6,0.4,1,0.7
			c-0.3-0.3-0.5-0.6-0.7-0.9c-0.2-0.3-0.3-0.5-0.5-0.7l-2.6-4.1l1.7-1.1l5.2,8.4L87.4,61l-5.2-2.8c-0.1-0.1-0.3-0.2-0.6-0.4
			c-0.3-0.2-0.6-0.4-0.9-0.7c0.3,0.3,0.5,0.6,0.7,0.9c0.2,0.3,0.3,0.5,0.5,0.7l2.6,4.1L82.7,63.9z"/>
		<path class="st4" d="M93.6,53.2c0.3,0.4,0.4,0.8,0.5,1.3c0.1,0.5,0.1,0.9,0.1,1.4c-0.1,0.5-0.2,0.8-0.4,1.2
			c-0.2,0.3-0.5,0.6-0.8,0.8c-0.4,0.2-0.7,0.3-1.1,0.4c-0.4,0-0.8,0-1.2-0.2c-0.4-0.1-0.8-0.4-1.2-0.7c-0.4-0.3-0.7-0.7-0.9-1.1
			c-0.3-0.4-0.4-0.9-0.6-1.3c-0.1-0.5-0.1-0.9-0.1-1.4c0.1-0.4,0.2-0.8,0.4-1.2c0.2-0.3,0.5-0.6,0.9-0.8c0.4-0.2,0.7-0.4,1.1-0.4
			c0.4,0,0.8,0,1.2,0.1c0.4,0.1,0.8,0.4,1.2,0.7C93,52.4,93.4,52.8,93.6,53.2z M92,54.2c-0.3-0.4-0.6-0.7-0.9-0.9
			c-0.3-0.1-0.6-0.1-0.9,0.1c-0.3,0.2-0.5,0.5-0.5,0.8c0,0.4,0.1,0.7,0.4,1.2c0.3,0.4,0.6,0.7,0.9,0.9c0.3,0.1,0.6,0.1,0.9-0.1
			c0.3-0.2,0.5-0.5,0.5-0.8C92.4,55,92.3,54.6,92,54.2z"/>
		<path class="st4" d="M96.4,47.4l2.3,2.1l0,0c0.3,0.3,0.6,0.5,0.7,0.7c-0.1-0.1-0.1-0.3-0.2-0.4c-0.1-0.2-0.1-0.3-0.2-0.6l-0.9-3
			l1.7-1l1.6,7l-1.1,0.7L98,50.8c-0.1-0.1-0.3-0.3-0.4-0.4c-0.1-0.1-0.2-0.3-0.4-0.4c0.1,0.2,0.2,0.6,0.4,1l0,0l0.9,3l-1.1,0.7
			L92,50.2l1.7-1l2.3,2.1c0.2,0.2,0.3,0.3,0.4,0.4c0.1,0.1,0.2,0.2,0.3,0.4c-0.1-0.2-0.2-0.5-0.3-0.9c0-0.1,0-0.1,0-0.1l-0.9-3
			L96.4,47.4z"/>
	</g>
	<g>
		<path class="st6" d="M77.9,52.5l-1.7,1.1L71,45.2l1.9-1.2c0.7-0.5,1.3-0.7,1.7-0.8c0.4-0.1,0.7-0.1,1.1,0c0.4,0.1,0.8,0.3,1.2,0.6
			c0.4,0.3,0.7,0.7,1,1.2c0.3,0.5,0.5,1,0.6,1.4c0.1,0.5,0.1,0.9,0,1.3c-0.1,0.3-0.2,0.6-0.4,0.8c-0.2,0.2-0.6,0.5-1.2,0.9l-0.3,0.2
			l-0.3,0.2L77.9,52.5z M75,48l0.3-0.2c0.4-0.3,0.7-0.5,0.8-0.8c0.1-0.3,0-0.6-0.2-0.9c-0.2-0.4-0.5-0.5-0.7-0.6
			c-0.3,0-0.6,0.1-1,0.3L73.8,46L75,48z"/>
		<path class="st6" d="M82,50l-5.5-8.8l1.6-1l5.5,8.8L82,50z"/>
		<path class="st6" d="M86.2,39.4l3.6,5.8l-1.5,0.9l-0.6-0.9c0,0.5,0,1-0.2,1.3c-0.2,0.4-0.4,0.6-0.8,0.9c-0.6,0.4-1.3,0.4-2,0.1
			c-0.7-0.3-1.4-1-2-1.9c-0.6-0.9-0.9-1.8-0.8-2.6c0-0.8,0.4-1.4,1-1.8c0.3-0.2,0.7-0.3,1.1-0.3c0.4,0,0.8,0.2,1.2,0.5l-0.6-0.9
			L86.2,39.4z M86.6,43.1c-0.3-0.4-0.6-0.7-0.9-0.9c-0.4-0.1-0.7-0.1-1,0.1c-0.3,0.2-0.5,0.5-0.5,0.9c0,0.4,0.1,0.8,0.4,1.2
			c0.3,0.4,0.6,0.7,0.9,0.9c0.4,0.1,0.7,0.1,1-0.1c0.3-0.2,0.5-0.5,0.5-0.9C87,44,86.9,43.6,86.6,43.1z"/>
		<path class="st6" d="M92.4,47.1l-0.8-4.2l-4.9-3.7l1.8-1.1l1.9,1.7c0.2,0.1,0.3,0.3,0.4,0.4c0.1,0.1,0.2,0.3,0.3,0.4
			c-0.1-0.1-0.1-0.3-0.2-0.5c-0.1-0.2-0.1-0.4-0.2-0.6l-0.6-2.5l1.7-1.1l2.3,10.1L92.4,47.1z"/>
		<path class="st6" d="M81.5,63.8l-5.2-8.4l1.8-1.1l5.2,2.7c0.1,0.1,0.3,0.2,0.6,0.4c0.3,0.2,0.6,0.4,1,0.7
			c-0.3-0.3-0.5-0.6-0.7-0.9c-0.2-0.3-0.3-0.5-0.5-0.7l-2.6-4.1l1.7-1.1l5.2,8.4l-1.7,1.1L81.1,58c-0.1-0.1-0.3-0.2-0.6-0.4
			c-0.3-0.2-0.6-0.4-0.9-0.7c0.3,0.3,0.5,0.6,0.7,0.9c0.2,0.3,0.3,0.5,0.5,0.7l2.6,4.1L81.5,63.8z"/>
		<path class="st6" d="M92.5,53c0.3,0.4,0.4,0.8,0.5,1.3c0.1,0.5,0.1,0.9,0.1,1.4c-0.1,0.5-0.2,0.8-0.4,1.2
			c-0.2,0.3-0.5,0.6-0.8,0.8c-0.4,0.2-0.7,0.3-1.1,0.4c-0.4,0-0.8,0-1.2-0.2c-0.4-0.1-0.8-0.4-1.2-0.7c-0.4-0.3-0.7-0.7-0.9-1.1
			c-0.3-0.4-0.4-0.9-0.6-1.3c-0.1-0.5-0.1-0.9-0.1-1.4c0.1-0.4,0.2-0.8,0.4-1.2c0.2-0.3,0.5-0.6,0.9-0.8c0.4-0.2,0.7-0.4,1.1-0.4
			c0.4,0,0.8,0,1.2,0.1c0.4,0.1,0.8,0.4,1.2,0.7C91.9,52.2,92.2,52.6,92.5,53z M90.9,54c-0.3-0.4-0.6-0.7-0.9-0.9
			c-0.3-0.1-0.6-0.1-0.9,0.1c-0.3,0.2-0.5,0.5-0.5,0.8c0,0.4,0.1,0.7,0.4,1.2c0.3,0.4,0.6,0.7,0.9,0.9c0.3,0.1,0.6,0.1,0.9-0.1
			c0.3-0.2,0.5-0.5,0.5-0.8C91.3,54.8,91.2,54.4,90.9,54z"/>
		<path class="st6" d="M95.3,47.2l2.3,2.1l0,0c0.3,0.3,0.6,0.5,0.7,0.7c-0.1-0.1-0.1-0.3-0.2-0.4c-0.1-0.2-0.1-0.3-0.2-0.6l-0.9-3
			l1.7-1l1.6,7l-1.1,0.7l-2.3-2.2c-0.1-0.1-0.3-0.3-0.4-0.4c-0.1-0.1-0.2-0.3-0.4-0.4c0.1,0.2,0.2,0.6,0.4,1l0,0l0.9,3l-1.1,0.7
			L90.9,50l1.7-1l2.3,2.1c0.2,0.2,0.3,0.3,0.4,0.4c0.1,0.1,0.2,0.2,0.3,0.4c-0.1-0.2-0.2-0.5-0.3-0.9c0-0.1,0-0.1,0-0.1l-0.9-3
			L95.3,47.2z"/>
	</g>
</g>
</svg>
