<svg width="46" height="40" viewBox="0 0 46 40" fill="none" xmlns="http://www.w3.org/2000/svg">
<path fill-rule="evenodd" clip-rule="evenodd" d="M7.88597 39.9367H26.3851L26.3912 39.9427C30.7414 39.9427 34.2771 36.401 34.2771 32.0568V29.939H41.3124V17.8055C43.9341 17.2479 45.91 14.9119 45.91 12.1276C45.91 8.92978 43.3035 6.32325 40.1056 6.32325C36.9078 6.32325 34.3013 8.92978 34.3013 12.1276C34.3013 14.9125 36.2735 17.2489 38.8989 17.8059V27.5255H34.2771V7.88597C34.2771 3.53572 30.7354 0 26.3912 0H7.88597C3.53572 0 0 3.53572 0 7.88597V7.92822V27.8694V32.0507C0 36.401 3.54175 39.9367 7.88597 39.9367ZM10.6192 7.92818H21.2384H23.6519H31.8637V7.88597C31.8637 4.86915 29.408 2.41346 26.3912 2.41346H7.88597C4.86915 2.41346 2.41346 4.86915 2.41346 7.88597V7.92822H10.6192V7.92818ZM23.6519 25.4559V10.3417H31.8576V25.4559H23.6519ZM21.2384 10.3417H13.0327L13.0327 25.4559H21.2384L21.2384 10.3417ZM2.41346 10.3417H10.6192V25.456H2.41346V10.3417ZM31.8637 27.8694H13.0327H2.41346V32.0568C2.41346 35.0736 4.86915 37.5293 7.88597 37.5293H26.3912C29.408 37.5293 31.8637 35.0736 31.8637 32.0568V27.8694ZM3.31247 14.5652C3.14353 14.5652 2.99872 14.71 2.99872 14.885V17.4975C2.99872 17.6725 3.14353 17.8173 3.31247 17.8173C3.48141 17.8173 3.62622 17.6786 3.62622 17.4975V17.3105L3.72879 17.2622H3.74689C3.946 17.1838 4.13908 17.1416 4.33216 17.1536H4.33819C4.49507 17.1597 4.64591 17.2079 4.79072 17.3045C5.10446 17.5156 5.8647 17.3889 6.51634 17.2381C6.46547 17.2974 6.41536 17.3568 6.36546 17.4159L6.36544 17.4159L6.36532 17.416C6.27321 17.5251 6.18185 17.6333 6.08795 17.7389C5.54492 18.3604 5.00793 18.9879 4.5735 19.7059C4.4106 19.9774 4.27786 20.3273 4.18735 20.7014C4.07271 21.1358 4.00634 21.6065 3.97617 22.0167C3.96411 22.1917 4.09685 22.3486 4.26579 22.3607H6.76975C6.93869 22.3607 7.0835 22.2159 7.0835 22.0348V21.9805C7.01713 21.3349 7.0473 20.6169 7.16797 19.9351C7.28864 19.2835 7.48775 18.662 7.77737 18.1552C8.06095 17.6423 8.39884 17.1114 8.76085 16.5865C9.09874 16.0977 9.46076 15.6271 9.82881 15.1987C9.94345 15.072 9.93138 14.8789 9.81674 14.7583L9.38835 14.3238C9.26768 14.1911 9.06857 14.1911 8.9479 14.3238L8.9298 14.3359L8.08509 15.1746L7.97045 15.0539C7.25848 14.3118 6.61891 13.992 5.94917 14.0041C5.29151 14.0161 4.64591 14.3419 3.8917 14.897L3.62622 15.0901V14.885C3.62622 14.71 3.48141 14.5652 3.31247 14.5652ZM13.6541 14.885C13.6541 14.71 13.7989 14.5652 13.9679 14.5652C14.1368 14.5652 14.2816 14.71 14.2816 14.885V15.0901L14.5471 14.897C15.3013 14.3419 15.9469 14.0161 16.6046 14.0041C17.2743 13.992 17.9139 14.3118 18.6259 15.0539L18.7405 15.1746L19.5852 14.3359L19.6033 14.3238C19.724 14.1911 19.9231 14.1911 20.0438 14.3238L20.4722 14.7583C20.5868 14.8789 20.5989 15.072 20.4842 15.1987C20.1162 15.6271 19.7542 16.0977 19.4163 16.5865C19.0543 17.1114 18.7164 17.6423 18.4328 18.1552C18.1432 18.662 17.9441 19.2835 17.8234 19.9351C17.7027 20.6169 17.6726 21.3349 17.7389 21.9805V22.0348C17.7389 22.2159 17.5941 22.3607 17.4252 22.3607H14.9212C14.7523 22.3486 14.6195 22.1917 14.6316 22.0167C14.6618 21.6065 14.7281 21.1358 14.8428 20.7014C14.9333 20.3273 15.066 19.9774 15.2289 19.7059C15.6633 18.9879 16.2003 18.3604 16.7434 17.7389C16.8372 17.6333 16.9286 17.5251 17.0207 17.4161L17.0207 17.416L17.0209 17.4158C17.0708 17.3567 17.1209 17.2974 17.1718 17.2381C16.5201 17.3889 15.7599 17.5156 15.4461 17.3045C15.3013 17.2079 15.1505 17.1597 14.9936 17.1536H14.9876C14.7945 17.1416 14.6014 17.1838 14.4023 17.2622H14.3842L14.2816 17.3105V17.4975C14.2816 17.6786 14.1368 17.8173 13.9679 17.8173C13.7989 17.8173 13.6541 17.6725 13.6541 17.4975V14.885ZM24.6173 14.5652C24.4483 14.5652 24.3035 14.71 24.3035 14.885V17.4975C24.3035 17.6725 24.4483 17.8173 24.6173 17.8173C24.7862 17.8173 24.931 17.6786 24.931 17.4975V17.3105L25.0336 17.2622H25.0517C25.2508 17.1838 25.4439 17.1416 25.637 17.1536H25.643C25.7999 17.1597 25.9507 17.2079 26.0955 17.3045C26.4093 17.5156 27.1695 17.3889 27.8211 17.2381C27.7703 17.2974 27.7202 17.3567 27.6703 17.4158L27.6701 17.416L27.67 17.4161C27.578 17.5251 27.4866 17.6333 27.3927 17.7389C26.8497 18.3604 26.3127 18.9879 25.8783 19.7059C25.7154 19.9774 25.5827 20.3273 25.4922 20.7014C25.3775 21.1358 25.3111 21.6065 25.281 22.0167C25.2689 22.1917 25.4016 22.3486 25.5706 22.3607H28.0746C28.2435 22.3607 28.3883 22.2159 28.3883 22.0348V21.9805C28.3219 21.3349 28.3521 20.6169 28.4728 19.9351C28.5934 19.2835 28.7926 18.662 29.0822 18.1552C29.3658 17.6423 29.7036 17.1114 30.0657 16.5865C30.4035 16.0977 30.7656 15.6271 31.1336 15.1987C31.2482 15.072 31.2362 14.8789 31.1215 14.7583L30.6932 14.3238C30.5725 14.1911 30.3734 14.1911 30.2527 14.3238L30.2346 14.3359L29.3899 15.1746L29.2752 15.0539C28.5633 14.3118 27.9237 13.992 27.254 14.0041C26.5963 14.0161 25.9507 14.3419 25.1965 14.897L24.931 15.0901V14.885C24.931 14.71 24.7862 14.5652 24.6173 14.5652ZM36.7147 12.1216C36.7147 10.2512 38.2352 8.73067 40.1056 8.73067C41.9761 8.73067 43.4966 10.2512 43.4966 12.1216C43.4966 13.992 41.9761 15.5125 40.1056 15.5125C38.2352 15.5125 36.7147 13.992 36.7147 12.1216Z" fill="url(#paint0_linear_10_21)"/>
<defs>
<linearGradient id="paint0_linear_10_21" x1="40.1056" y1="0" x2="40.1056" y2="39.8221" gradientUnits="userSpaceOnUse">
<stop stop-color="#FF0000"/>
<stop offset="0.507576" stop-color="#FF0000"/>
<stop offset="0.511364" stop-color="#FF9900"/>
<stop offset="1" stop-color="#FF4D00"/>
</linearGradient>
</defs>
</svg>
