<?xml version="1.0" encoding="utf-8"?>
<!-- Generator: Adobe Illustrator 26.0.3, SVG Export Plug-In . SVG Version: 6.00 Build 0)  -->
<svg version="1.1" id="圖層_1" xmlns="http://www.w3.org/2000/svg" xmlns:xlink="http://www.w3.org/1999/xlink" x="0px" y="0px"
	 viewBox="0 0 46 40" style="enable-background:new 0 0 46 40;" xml:space="preserve">
<style type="text/css">
	.st0{fill-rule:evenodd;clip-rule:evenodd;fill:url(#SVGID_1_);}
</style>
<linearGradient id="SVGID_1_" gradientUnits="userSpaceOnUse" x1="23" y1="18.1765" x2="23" y2="7.5882" gradientTransform="matrix(1 0 0 -1 0 36)">
	<stop  offset="0" style="stop-color:#FF0101"/>
	<stop  offset="0.5207" style="stop-color:#FF2901"/>
	<stop  offset="0.5208" style="stop-color:#FF9901"/>
	<stop  offset="1" style="stop-color:#FF5301"/>
</linearGradient>
<path class="st0" d="M12.1,35l3.9-1.2v0c0.7,0.9,1.6,1.7,2.7,2.2l-5.7,1.7c-0.4,0.1-0.9,0.2-1.4,0.2c-0.8,0-1.6-0.2-2.3-0.6
	c-1.1-0.6-2-1.6-2.3-2.8L0.4,12.8c-0.8-2.5,0.7-5.2,3.2-5.9l12.5-3.7c2.5-0.8,5.2,0.7,6,3.2l0.4,1.4l-1.6,4.5l-1.5-5.1
	c-0.2-0.8-1-1.4-1.8-1.4c-0.2,0-0.4,0-0.5,0.1L4.5,9.6C3.5,10,2.9,11,3.2,12l6.6,21.7c0.1,0.5,0.5,0.9,0.9,1.1
	C11.1,35.1,11.6,35.1,12.1,35z M32.2,38.7c0.5,0.2,1,0.3,1.5,0.3v0c1.8,0,3.6-1.1,4.2-2.9l7.6-20.8c0.4-1.1,0.3-2.3-0.2-3.4
	c-0.5-1.1-1.4-1.9-2.5-2.3l-12-4.3C29.6,5,28.4,5,27.4,5.5C26.3,6,25.4,6.9,25,8l-7.6,20.8c-0.4,1.1-0.3,2.3,0.2,3.4
	c0.5,1.1,1.4,1.9,2.5,2.3L32.2,38.7z M35.7,35.3c-0.4,1.1-1.6,1.6-2.7,1.3l-12-4.3c-0.5-0.2-1-0.6-1.2-1.1c-0.2-0.5-0.3-1.1-0.1-1.6
	l7.6-20.8c0.2-0.5,0.6-0.9,1.1-1.2c0.5-0.2,1.1-0.3,1.6-0.1l12,4.3c0.5,0.2,1,0.6,1.2,1.1c0.2,0.5,0.3,1.1,0.1,1.6L35.7,35.3z
	 M15,24.1l-4.7-2.2c-0.5-0.2-0.9-0.6-1.2-1c-0.3-0.4-0.4-0.8-0.4-1.3c0-0.4,0.1-0.9,0.4-1.3c0.2-0.4,0.5-0.7,0.9-1
	c0.4-0.3,1-0.5,1.5-0.5c0.5,0,0.9,0.1,1.4,0.2c0.3-0.4,0.6-0.7,1-0.9c0.4-0.3,0.9-0.4,1.5-0.4c0.5,0,1,0.1,1.4,0.3
	c0.4,0.2,0.8,0.5,1.1,0.9c0.3,0.4,0.5,0.9,0.5,1.3c0,0.5-0.1,1-0.3,1.4l0,0L15.5,24C15.4,24.2,15.2,24.2,15,24.1L15,24.1z M32,17.9
	l-3.8,2.2l0,0c-0.2,0.1-0.4,0.3-0.6,0.5c-0.2,0.2-0.3,0.4-0.5,0.6v0c-0.1,0.2-0.2,0.5-0.3,0.7c-0.1,0.3-0.1,0.5-0.1,0.8
	c0,0.2,0,0.5,0.1,0.7c0.1,0.2,0.1,0.5,0.2,0.7c0.1,0.2,0.2,0.4,0.4,0.6c0.1,0.2,0.3,0.3,0.5,0.5c0.2,0.2,0.4,0.3,0.7,0.4
	c0.2,0.1,0.5,0.2,0.7,0.2c0,0,0.1,0,0.1,0c0.1,0,0.1,0,0.2,0c-0.1,0.1-0.2,0.2-0.2,0.2c-0.3,0.3-0.7,0.4-1.1,0.5
	c-0.2,0-0.3,0.2-0.3,0.4c0,0.2,0.1,0.3,0.3,0.3l3,1.1c0.2,0.1,0.4,0,0.4-0.3c0-0.2,0-0.4-0.1-0.5c-0.3-0.3-0.5-0.7-0.6-1
	c0-0.1-0.1-0.2-0.1-0.3c0.1,0.1,0.1,0.1,0.2,0.2c0.2,0.1,0.4,0.3,0.7,0.3c0.2,0.1,0.5,0.1,0.7,0.1c0.2,0,0.4,0,0.7-0.1l0,0
	c0.2-0.1,0.4-0.1,0.6-0.3c0.2-0.1,0.4-0.3,0.6-0.4c0.2-0.1,0.3-0.3,0.4-0.5l0-0.1c0.1-0.2,0.3-0.5,0.3-0.7c0.1-0.3,0.1-0.5,0.1-0.8
	c0-0.3,0-0.5-0.1-0.8v0C35,23,35,22.7,34.8,22.5l0,0l-2-4.2c-0.1-0.2-0.2-0.3-0.4-0.4C32.3,17.8,32.2,17.8,32,17.9
	C32,17.9,32,17.9,32,17.9z"/>
</svg>
