<svg width="137" height="191" viewBox="0 0 137 191" fill="none" xmlns="http://www.w3.org/2000/svg">
<g filter="url(#filter0_d_2871_10256)">
<path d="M75.2456 67.2944C88.8787 67.2944 100.04 71.9212 108.728 81.1748C117.487 90.4284 121.867 102.26 121.867 116.67C121.867 131.01 117.593 143.654 109.046 154.603C100.499 165.552 87.2188 171.026 69.2061 171.026C49.8512 171.026 35.5824 162.938 26.3994 146.762C19.265 134.118 15.6978 117.801 15.6978 97.8101C15.6978 86.0841 16.1922 76.548 17.1812 69.2017C18.9471 56.1336 22.373 45.2554 27.459 36.5669C31.8385 29.1499 37.5602 23.181 44.624 18.6602C51.7585 14.1393 60.2703 11.8789 70.1597 11.8789C84.4286 11.8789 95.8013 15.5521 104.278 22.8984C112.754 30.1742 117.522 39.8869 118.582 52.0366H88.4902C88.4902 49.5643 87.5366 46.8447 85.6294 43.8779C82.38 39.0745 77.4707 36.6729 70.9014 36.6729C61.0827 36.6729 54.0895 42.1826 49.9219 53.2021C47.6615 59.277 46.1074 68.248 45.2598 80.1152C49.0036 75.665 53.3478 72.4157 58.2925 70.3672C63.2371 68.3187 68.8882 67.2944 75.2456 67.2944ZM54.9019 96.1147C48.9683 100.706 46.0015 108.123 46.0015 118.366C46.0015 126.63 48.2266 133.376 52.6768 138.604C57.127 143.831 62.778 146.444 69.6299 146.444C76.3405 146.444 81.603 143.937 85.4175 138.921C89.3026 133.835 91.2451 127.266 91.2451 119.213C91.2451 110.242 89.0553 103.39 84.6758 98.6577C80.2962 93.8543 74.9277 91.4526 68.5703 91.4526C63.4137 91.4526 58.8576 93.0067 54.9019 96.1147Z" fill="#F5F5F5"/>
</g>
<g filter="url(#filter1_d_2871_10256)">
<path fill-rule="evenodd" clip-rule="evenodd" d="M88.4902 52.0366C88.4902 49.5643 87.5366 46.8447 85.6294 43.8779C82.38 39.0745 77.4707 36.6729 70.9014 36.6729C61.0827 36.6729 54.0895 42.1826 49.9219 53.2021C47.9803 58.4201 46.5599 65.7748 45.6606 75.2662C45.513 76.8249 45.3793 78.4413 45.2598 80.1152C46.3079 78.8693 47.4031 77.7176 48.5454 76.6599C51.4831 73.9398 54.7322 71.8422 58.2925 70.3672C63.2371 68.3187 68.8882 67.2944 75.2456 67.2944C88.8787 67.2944 100.04 71.9212 108.728 81.1748C117.487 90.4284 121.867 102.26 121.867 116.67C121.867 131.01 117.593 143.654 109.046 154.603C100.499 165.552 87.2188 171.026 69.2061 171.026C49.8512 171.026 35.5824 162.938 26.3994 146.762C19.265 134.118 15.6978 117.801 15.6978 97.8101C15.6978 86.0841 16.1922 76.548 17.1812 69.2017C18.9471 56.1336 22.373 45.2554 27.459 36.5669C31.8385 29.1499 37.5602 23.181 44.624 18.6602C51.7585 14.1393 60.2703 11.8789 70.1597 11.8789C84.4286 11.8789 95.8013 15.5521 104.278 22.8984C112.045 29.5651 116.698 38.2778 118.238 49.0366C118.379 50.0195 118.493 51.0195 118.582 52.0366H88.4902ZM106.237 20.6265C97.0803 12.6934 84.9454 8.87891 70.1597 8.87891C59.8006 8.87891 50.7102 11.252 43.0183 16.1261L43.0069 16.1333C35.536 20.9147 29.4877 27.231 24.8757 35.0415L24.8699 35.0514C19.532 44.1703 16.0116 55.4547 14.2082 68.7999L14.208 68.8014C13.194 76.3337 12.6978 86.0176 12.6978 97.8101C12.6978 118.131 16.3205 135.004 23.7866 148.236L23.7905 148.243C33.5326 165.404 48.8257 174.026 69.2061 174.026C87.8445 174.026 102.134 168.333 111.411 156.449C120.384 144.955 124.867 131.656 124.867 116.67C124.867 101.604 120.265 89.0013 110.911 79.1171C101.611 69.2142 89.6366 64.2944 75.2456 64.2944C68.5668 64.2944 62.5145 65.3708 57.1443 67.5956C54.2193 68.8074 51.4974 70.3987 48.979 72.3577C49.8642 64.5663 51.1306 58.5591 52.7308 54.2556C54.682 49.0996 57.1995 45.4856 60.1491 43.1617C63.0616 40.867 66.5921 39.6729 70.9014 39.6729C76.6149 39.6729 80.515 41.6903 83.1251 45.5301C84.8334 48.1959 85.4902 50.342 85.4902 52.0366V55.0366H121.855L121.571 51.776C120.45 38.926 115.363 28.4618 106.237 20.6265ZM56.7466 98.4806L56.7378 98.4874C51.7841 102.321 49.0015 108.689 49.0015 118.366C49.0015 126.069 51.0625 132.08 54.9611 136.659C58.8425 141.218 63.6592 143.444 69.6299 143.444C75.4741 143.444 79.824 141.32 83.0296 137.105L83.0335 137.1C86.4256 132.66 88.2451 126.78 88.2451 119.213C88.2451 110.701 86.169 104.688 82.4739 100.695L82.4664 100.687L82.4589 100.679C78.6333 96.4831 74.0627 94.4526 68.5703 94.4526C64.0677 94.4526 60.1684 95.792 56.7553 98.4737L56.7466 98.4806ZM46.0015 118.366C46.0015 108.123 48.9683 100.706 54.9019 96.1147C58.8576 93.0067 63.4137 91.4526 68.5703 91.4526C74.9277 91.4526 80.2962 93.8543 84.6758 98.6577C89.0553 103.39 91.2451 110.242 91.2451 119.213C91.2451 127.266 89.3026 133.835 85.4175 138.921C81.603 143.937 76.3405 146.444 69.6299 146.444C62.778 146.444 57.127 143.831 52.6768 138.604C48.2266 133.376 46.0015 126.63 46.0015 118.366Z" fill="#BCBCBC"/>
</g>
<defs>
<filter id="filter0_d_2871_10256" x="3.69775" y="3.87891" width="130.169" height="183.147" filterUnits="userSpaceOnUse" color-interpolation-filters="sRGB">
<feFlood flood-opacity="0" result="BackgroundImageFix"/>
<feColorMatrix in="SourceAlpha" type="matrix" values="0 0 0 0 0 0 0 0 0 0 0 0 0 0 0 0 0 0 127 0" result="hardAlpha"/>
<feOffset dy="4"/>
<feGaussianBlur stdDeviation="6"/>
<feComposite in2="hardAlpha" operator="out"/>
<feColorMatrix type="matrix" values="0 0 0 0 0 0 0 0 0 0 0 0 0 0 0 0 0 0 0.25 0"/>
<feBlend mode="normal" in2="BackgroundImageFix" result="effect1_dropShadow_2871_10256"/>
<feBlend mode="normal" in="SourceGraphic" in2="effect1_dropShadow_2871_10256" result="shape"/>
</filter>
<filter id="filter1_d_2871_10256" x="0.697754" y="0.878906" width="136.169" height="189.147" filterUnits="userSpaceOnUse" color-interpolation-filters="sRGB">
<feFlood flood-opacity="0" result="BackgroundImageFix"/>
<feColorMatrix in="SourceAlpha" type="matrix" values="0 0 0 0 0 0 0 0 0 0 0 0 0 0 0 0 0 0 127 0" result="hardAlpha"/>
<feOffset dy="4"/>
<feGaussianBlur stdDeviation="6"/>
<feComposite in2="hardAlpha" operator="out"/>
<feColorMatrix type="matrix" values="0 0 0 0 0 0 0 0 0 0 0 0 0 0 0 0 0 0 0.25 0"/>
<feBlend mode="normal" in2="BackgroundImageFix" result="effect1_dropShadow_2871_10256"/>
<feBlend mode="normal" in="SourceGraphic" in2="effect1_dropShadow_2871_10256" result="shape"/>
</filter>
</defs>
</svg>
