<svg width="137" height="190" viewBox="0 0 137 190" fill="none" xmlns="http://www.w3.org/2000/svg">
<g filter="url(#filter0_d_2871_10257)">
<path d="M28.5103 156.358C19.6805 147.316 15.2656 136.332 15.2656 123.405C15.2656 114.787 17.2082 106.982 21.0933 99.9888C25.049 92.9956 30.806 87.7331 38.3643 84.2012C30.9473 79.2565 26.1086 73.9233 23.8481 68.2017C21.6584 62.4093 20.5635 57.0055 20.5635 51.9902C20.5635 40.8294 24.7664 31.3286 33.1724 23.4878C41.5783 15.5763 53.4455 11.6206 68.7739 11.6206C84.1024 11.6206 95.9696 15.5763 104.375 23.4878C112.781 31.3286 116.984 40.8294 116.984 51.9902C116.984 57.0055 115.854 62.4093 113.594 68.2017C111.404 73.9233 106.601 78.9033 99.1836 83.1416C106.742 87.3799 112.428 92.9956 116.243 99.9888C120.057 106.982 121.964 114.787 121.964 123.405C121.964 136.332 117.161 147.352 107.554 156.464C98.0181 165.506 84.6675 170.026 67.5024 170.026C50.3374 170.026 37.34 165.47 28.5103 156.358ZM46.6289 121.392C46.6289 128.95 48.5715 134.813 52.4565 138.981C56.4123 143.149 61.8514 145.232 68.7739 145.232C75.6965 145.232 81.1003 143.149 84.9854 138.981C88.9411 134.813 90.9189 128.95 90.9189 121.392C90.9189 113.551 88.9058 107.618 84.8794 103.591C80.9237 99.4943 75.5552 97.4458 68.7739 97.4458C61.9927 97.4458 56.5889 99.4943 52.5625 103.591C48.6068 107.618 46.6289 113.551 46.6289 121.392ZM54.5757 69.0493C57.9663 72.5812 62.6991 74.3472 68.7739 74.3472C74.9194 74.3472 79.6522 72.5812 82.9722 69.0493C86.3628 65.5174 88.0581 60.9613 88.0581 55.3809C88.0581 49.306 86.3628 44.5732 82.9722 41.1826C79.6522 37.7214 74.9194 35.9907 68.7739 35.9907C62.6991 35.9907 57.931 37.7214 54.4697 41.1826C51.0791 44.5732 49.3838 49.306 49.3838 55.3809C49.3838 60.9613 51.1144 65.5174 54.5757 69.0493Z" fill="#F5F5F5"/>
</g>
<g filter="url(#filter1_d_2871_10257)">
<path fill-rule="evenodd" clip-rule="evenodd" d="M18.4764 98.5218L18.4821 98.5117C21.9525 92.3764 26.7155 87.4752 32.7186 83.8226C27.1271 79.4326 23.1552 74.6126 21.058 69.3039L21.0498 69.2833L21.042 69.2625C18.7531 63.208 17.5635 57.4419 17.5635 51.9902C17.5635 39.972 22.1308 29.6868 31.1211 21.2986C40.2456 12.7136 52.941 8.62061 68.7739 8.62061C84.6069 8.62061 97.3022 12.7136 106.427 21.2986C115.417 29.6868 119.984 39.972 119.984 51.9902C119.984 57.4535 118.754 63.2269 116.392 69.283C114.347 74.6193 110.396 79.2055 104.824 83.1203C110.81 87.2455 115.514 92.3881 118.876 98.5522C122.951 106.022 124.964 114.328 124.964 123.405C124.964 137.178 119.806 148.977 109.619 158.64L109.618 158.641C99.3706 168.357 85.1928 173.026 67.5024 173.026C49.8237 173.026 35.9317 168.325 26.3598 158.45C16.9717 148.834 12.2656 137.093 12.2656 123.405C12.2656 114.318 14.3191 106.005 18.4708 98.5318L18.4764 98.5218ZM28.5103 156.358C19.6805 147.316 15.2656 136.332 15.2656 123.405C15.2656 114.787 17.2082 106.982 21.0933 99.9888C24.5026 93.9615 29.25 89.2198 35.3354 85.7637C36.3107 85.2099 37.3203 84.689 38.3643 84.2012C37.3883 83.5505 36.457 82.8932 35.5703 82.2291C29.7185 77.8462 25.8111 73.1704 23.8481 68.2017C21.6584 62.4093 20.5635 57.0055 20.5635 51.9902C20.5635 40.8294 24.7664 31.3286 33.1724 23.4878C41.5783 15.5763 53.4455 11.6206 68.7739 11.6206C84.1024 11.6206 95.9696 15.5763 104.375 23.4878C112.781 31.3286 116.984 40.8294 116.984 51.9902C116.984 57.0055 115.854 62.4093 113.594 68.2017C111.704 73.1394 107.868 77.5247 102.085 81.3576C101.167 81.9662 100.2 82.5609 99.1836 83.1416C100.188 83.7048 101.159 84.2924 102.098 84.9043C108.22 88.8968 112.935 93.9249 116.243 99.9888C120.057 106.982 121.964 114.787 121.964 123.405C121.964 136.332 117.161 147.352 107.554 156.464C98.0181 165.506 84.6675 170.026 67.5024 170.026C50.3374 170.026 37.34 165.47 28.5103 156.358ZM82.7395 105.694L82.7212 105.675C79.4374 102.274 74.9088 100.446 68.7739 100.446C62.6407 100.446 58.0634 102.274 54.7022 105.694C51.4828 108.971 49.6289 114.027 49.6289 121.392C49.6289 128.438 51.4305 133.475 54.6415 136.925C57.9163 140.37 62.4984 142.232 68.7739 142.232C75.0572 142.232 79.5927 140.366 82.7909 136.935L82.8001 136.925L82.8094 136.916C86.0861 133.463 87.9189 128.431 87.9189 121.392C87.9189 114.041 86.037 108.992 82.7581 105.713L82.7395 105.694ZM56.7291 66.9606L56.7398 66.9717C59.4344 69.7785 63.3063 71.3472 68.7739 71.3472C74.327 71.3472 78.1765 69.7709 80.7863 66.9946L80.7971 66.9831L80.808 66.9717C83.5864 64.0776 85.0581 60.3038 85.0581 55.3809C85.0581 49.8783 83.5385 45.9916 80.8508 43.3039L80.8288 43.2818L80.8071 43.2593C78.2013 40.5426 74.3446 38.9907 68.7739 38.9907C63.2916 38.9907 59.3608 40.5342 56.591 43.3039C53.9034 45.9916 52.3838 49.8783 52.3838 55.3809C52.3838 60.2858 53.8789 64.0521 56.7183 66.9495L56.7291 66.9606ZM52.4565 138.981C48.5715 134.813 46.6289 128.95 46.6289 121.392C46.6289 113.551 48.6068 107.618 52.5625 103.591C56.5889 99.4943 61.9927 97.4458 68.7739 97.4458C75.5552 97.4458 80.9237 99.4943 84.8794 103.591C88.9058 107.618 90.9189 113.551 90.9189 121.392C90.9189 128.95 88.9411 134.813 84.9854 138.981C81.1003 143.149 75.6964 145.232 68.7739 145.232C61.8514 145.232 56.4123 143.149 52.4565 138.981ZM68.7739 74.3472C62.6991 74.3472 57.9663 72.5812 54.5757 69.0493C51.1144 65.5174 49.3838 60.9613 49.3838 55.3809C49.3838 49.306 51.0791 44.5732 54.4697 41.1826C57.931 37.7214 62.6991 35.9907 68.7739 35.9907C74.9194 35.9907 79.6522 37.7214 82.9722 41.1826C86.3628 44.5732 88.0581 49.306 88.0581 55.3809C88.0581 60.9613 86.3628 65.5174 82.9722 69.0493C79.6522 72.5812 74.9194 74.3472 68.7739 74.3472Z" fill="#BCBCBC"/>
</g>
<defs>
<filter id="filter0_d_2871_10257" x="3.26562" y="3.62061" width="130.699" height="182.406" filterUnits="userSpaceOnUse" color-interpolation-filters="sRGB">
<feFlood flood-opacity="0" result="BackgroundImageFix"/>
<feColorMatrix in="SourceAlpha" type="matrix" values="0 0 0 0 0 0 0 0 0 0 0 0 0 0 0 0 0 0 127 0" result="hardAlpha"/>
<feOffset dy="4"/>
<feGaussianBlur stdDeviation="6"/>
<feComposite in2="hardAlpha" operator="out"/>
<feColorMatrix type="matrix" values="0 0 0 0 0 0 0 0 0 0 0 0 0 0 0 0 0 0 0.25 0"/>
<feBlend mode="normal" in2="BackgroundImageFix" result="effect1_dropShadow_2871_10257"/>
<feBlend mode="normal" in="SourceGraphic" in2="effect1_dropShadow_2871_10257" result="shape"/>
</filter>
<filter id="filter1_d_2871_10257" x="0.265625" y="0.620605" width="136.699" height="188.406" filterUnits="userSpaceOnUse" color-interpolation-filters="sRGB">
<feFlood flood-opacity="0" result="BackgroundImageFix"/>
<feColorMatrix in="SourceAlpha" type="matrix" values="0 0 0 0 0 0 0 0 0 0 0 0 0 0 0 0 0 0 127 0" result="hardAlpha"/>
<feOffset dy="4"/>
<feGaussianBlur stdDeviation="6"/>
<feComposite in2="hardAlpha" operator="out"/>
<feColorMatrix type="matrix" values="0 0 0 0 0 0 0 0 0 0 0 0 0 0 0 0 0 0 0.25 0"/>
<feBlend mode="normal" in2="BackgroundImageFix" result="effect1_dropShadow_2871_10257"/>
<feBlend mode="normal" in="SourceGraphic" in2="effect1_dropShadow_2871_10257" result="shape"/>
</filter>
</defs>
</svg>
