<svg width="136" height="185" viewBox="0 0 136 185" fill="none" xmlns="http://www.w3.org/2000/svg">
<g filter="url(#filter0_d_2861_10309)">
<path d="M83.9087 43.6196C80.3062 39.3107 75.1496 37.1562 68.439 37.1562C59.256 37.1562 53.0046 40.5822 49.6846 47.4341C47.7773 51.3898 46.6471 57.6766 46.2939 66.2944H16.9438C17.4383 53.2264 19.8047 42.666 24.043 34.6133C32.0957 19.2848 46.3999 11.6206 66.9556 11.6206C83.2023 11.6206 96.1291 16.1414 105.736 25.1831C115.343 34.1541 120.146 46.0566 120.146 60.8906C120.146 72.2633 116.755 82.3646 109.974 91.1943C105.524 97.0573 98.2129 103.591 88.041 110.796L75.9619 119.379C68.4036 124.747 63.2118 128.632 60.3862 131.034C57.6313 133.436 55.3003 136.226 53.3931 139.405H120.464V166H15.2485C15.5311 154.98 17.8975 144.915 22.3477 135.802C26.6566 125.56 36.8285 114.717 52.8633 103.273C66.779 93.3135 75.7853 86.179 79.8823 81.8701C86.1691 75.1595 89.3125 67.8132 89.3125 59.8311C89.3125 53.3324 87.5112 47.9285 83.9087 43.6196Z" fill="#F5F5F5"/>
</g>
<g filter="url(#filter1_d_2861_10309)">
<path fill-rule="evenodd" clip-rule="evenodd" d="M15.3784 163C15.9815 153.147 18.3046 144.081 22.3477 135.802C26.6566 125.56 36.8285 114.717 52.8633 103.273C66.779 93.3135 75.7853 86.179 79.8824 81.8701C86.1691 75.1595 89.3125 67.8131 89.3125 59.8311C89.3125 53.3324 87.5113 47.9286 83.9087 43.6196C80.3062 39.3107 75.1496 37.1562 68.439 37.1562C59.2561 37.1562 53.0046 40.5822 49.6846 47.4341C47.7774 51.3898 46.6472 57.6766 46.294 66.2944H16.9439C16.9823 65.2793 17.032 64.2793 17.093 63.2944C17.8173 51.6009 20.1339 42.0405 24.043 34.6133C32.0957 19.2848 46.3999 11.6206 66.9556 11.6206C83.2023 11.6206 96.1291 16.1414 105.736 25.1831C115.343 34.1541 120.146 46.0566 120.146 60.8906C120.146 72.2633 116.755 82.3646 109.974 91.1943C105.524 97.0573 98.2129 103.591 88.041 110.796L75.9619 119.379C68.4037 124.747 63.2118 128.632 60.3863 131.034C58.5342 132.649 56.8737 134.439 55.4048 136.405C54.6887 137.363 54.0181 138.363 53.3931 139.405H120.464V166H15.2486C15.2744 164.992 15.3177 163.992 15.3784 163ZM59.2544 136.405H123.464V169H12.1707L12.2495 165.923C12.5414 154.541 14.9842 144.072 19.6155 134.561C24.267 123.571 34.9736 112.355 51.1173 100.834C65.0563 90.8572 73.827 83.8821 77.7008 79.8108C83.5464 73.5679 86.3125 66.9324 86.3125 59.8311C86.3125 53.9193 84.689 49.23 81.6072 45.5439C78.6868 42.0509 74.4521 40.1562 68.439 40.1562C64.21 40.1562 60.8794 40.9457 58.3049 42.3566C55.7646 43.7487 53.7933 45.8356 52.3856 48.7397C50.7568 52.1197 49.6408 57.8924 49.2915 66.4173L49.1735 69.2944H13.8282L13.946 66.181C14.4506 52.8465 16.8703 41.8002 21.3882 33.216C30.067 16.6977 45.5378 8.62061 66.9556 8.62061C83.7778 8.62061 97.5021 13.3166 107.787 22.9938C118.08 32.6075 123.146 45.345 123.146 60.8906C123.146 72.9061 119.548 83.6509 112.358 93.0153C107.639 99.2306 100.046 105.969 89.7769 113.243C89.7763 113.244 89.7757 113.244 89.7751 113.244L77.6996 121.824C70.1521 127.185 65.0624 130.999 62.3441 133.307C61.2399 134.271 60.2101 135.303 59.2544 136.405Z" fill="#BCBCBC"/>
</g>
<defs>
<filter id="filter0_d_2861_10309" x="3.24854" y="3.62061" width="129.215" height="178.379" filterUnits="userSpaceOnUse" color-interpolation-filters="sRGB">
<feFlood flood-opacity="0" result="BackgroundImageFix"/>
<feColorMatrix in="SourceAlpha" type="matrix" values="0 0 0 0 0 0 0 0 0 0 0 0 0 0 0 0 0 0 127 0" result="hardAlpha"/>
<feOffset dy="4"/>
<feGaussianBlur stdDeviation="6"/>
<feComposite in2="hardAlpha" operator="out"/>
<feColorMatrix type="matrix" values="0 0 0 0 0 0 0 0 0 0 0 0 0 0 0 0 0 0 0.25 0"/>
<feBlend mode="normal" in2="BackgroundImageFix" result="effect1_dropShadow_2861_10309"/>
<feBlend mode="normal" in="SourceGraphic" in2="effect1_dropShadow_2861_10309" result="shape"/>
</filter>
<filter id="filter1_d_2861_10309" x="0.170654" y="0.620605" width="135.293" height="184.379" filterUnits="userSpaceOnUse" color-interpolation-filters="sRGB">
<feFlood flood-opacity="0" result="BackgroundImageFix"/>
<feColorMatrix in="SourceAlpha" type="matrix" values="0 0 0 0 0 0 0 0 0 0 0 0 0 0 0 0 0 0 127 0" result="hardAlpha"/>
<feOffset dy="4"/>
<feGaussianBlur stdDeviation="6"/>
<feComposite in2="hardAlpha" operator="out"/>
<feColorMatrix type="matrix" values="0 0 0 0 0 0 0 0 0 0 0 0 0 0 0 0 0 0 0.25 0"/>
<feBlend mode="normal" in2="BackgroundImageFix" result="effect1_dropShadow_2861_10309"/>
<feBlend mode="normal" in="SourceGraphic" in2="effect1_dropShadow_2861_10309" result="shape"/>
</filter>
</defs>
</svg>
