<svg width="138" height="187" viewBox="0 0 138 187" fill="none" xmlns="http://www.w3.org/2000/svg">
<g filter="url(#filter0_d_2871_10255)">
<path d="M67.9556 86.7109C64.2824 86.7109 61.1037 87.1701 58.4194 88.0884C53.6867 89.7837 50.1195 92.9271 47.7178 97.5186L20.5928 96.2471L31.4004 11.3755H116.06V37.0171H53.2275L47.7178 70.6055C52.3799 67.568 56.0177 65.5549 58.6313 64.5659C63.0109 62.9412 68.3441 62.1289 74.6309 62.1289C87.3457 62.1289 98.4359 66.4025 107.901 74.9497C117.367 83.4969 122.1 95.9292 122.1 112.247C122.1 126.445 117.543 139.124 108.431 150.285C99.3188 161.446 85.6857 167.026 67.5317 167.026C52.9097 167.026 40.9012 163.106 31.5063 155.265C22.1115 147.424 16.8843 136.299 15.8247 121.889H45.9165C47.1173 128.458 49.4131 133.544 52.8037 137.146C56.1943 140.678 61.139 142.444 67.6377 142.444C75.1253 142.444 80.8117 139.831 84.6968 134.604C88.6525 129.306 90.6304 122.666 90.6304 114.684C90.6304 106.843 88.7938 100.238 85.1206 94.8696C81.4474 89.4305 75.7257 86.7109 67.9556 86.7109Z" fill="#F5F5F5"/>
</g>
<g filter="url(#filter1_d_2871_10255)">
<path fill-rule="evenodd" clip-rule="evenodd" d="M45.9167 121.889C47.1175 128.458 49.4133 133.544 52.8039 137.146C56.1945 140.678 61.1392 142.444 67.6379 142.444C75.1255 142.444 80.8119 139.831 84.6969 134.604C88.6527 129.306 90.6305 122.666 90.6305 114.684C90.6305 106.843 88.794 100.238 85.1208 94.8696C81.4476 89.4305 75.7259 86.7109 67.9557 86.7109C64.2826 86.7109 61.1039 87.1701 58.4196 88.0884C53.6869 89.7837 50.1196 92.9271 47.7179 97.5186L20.5929 96.2471L31.4006 11.3755H116.06V37.0171H53.2277L47.7179 70.6055C48.9159 69.825 50.0462 69.1122 51.1088 68.4669C54.1819 66.6011 56.6895 65.3007 58.6315 64.5659C63.0111 62.9412 68.3442 62.1289 74.631 62.1289C87.3459 62.1289 98.436 66.4025 107.902 74.9497C117.367 83.4969 122.1 95.9292 122.1 112.247C122.1 126.445 117.544 139.124 108.431 150.285C99.319 161.446 85.6859 167.026 67.5319 167.026C52.9098 167.026 40.9014 163.106 31.5065 155.265C22.7743 147.977 17.6425 137.852 16.1113 124.889C15.9951 123.905 15.8996 122.905 15.8249 121.889H45.9167ZM51.741 64.6132C53.9697 63.3451 55.918 62.3851 57.5698 61.7601L57.579 61.7566L57.5881 61.7532C62.395 59.97 68.1035 59.1289 74.631 59.1289C88.0912 59.1289 99.8971 63.6798 109.912 72.7231C120.173 81.989 125.1 95.3331 125.1 112.247C125.1 127.147 120.298 140.495 110.755 152.182C100.929 164.217 86.3316 170.026 67.5319 170.026C52.3502 170.026 39.6189 165.943 29.5843 157.568C19.4531 149.113 13.9405 137.171 12.833 122.109L12.5962 118.889H48.418L48.8678 121.349C49.9987 127.536 52.1054 132.022 54.9783 135.08C57.6358 137.841 61.6852 139.444 67.6379 139.444C74.3387 139.444 79.0602 137.158 82.2892 132.814L82.2931 132.809C85.7869 128.13 87.6305 122.156 87.6305 114.684C87.6305 107.321 85.9117 101.338 82.6449 96.5637L82.6397 96.5562L82.6346 96.5486C79.6278 92.0962 74.9402 89.7109 67.9557 89.7109C64.5309 89.7109 61.7024 90.1392 59.411 90.9199C55.4216 92.3542 52.437 94.9694 50.3762 98.909L49.4892 100.605L17.2065 99.0916L28.7584 8.37549H119.06V40.0171H55.7757L51.741 64.6132Z" fill="#BCBCBC"/>
</g>
<defs>
<filter id="filter0_d_2871_10255" x="3.82471" y="3.37549" width="130.275" height="179.651" filterUnits="userSpaceOnUse" color-interpolation-filters="sRGB">
<feFlood flood-opacity="0" result="BackgroundImageFix"/>
<feColorMatrix in="SourceAlpha" type="matrix" values="0 0 0 0 0 0 0 0 0 0 0 0 0 0 0 0 0 0 127 0" result="hardAlpha"/>
<feOffset dy="4"/>
<feGaussianBlur stdDeviation="6"/>
<feComposite in2="hardAlpha" operator="out"/>
<feColorMatrix type="matrix" values="0 0 0 0 0 0 0 0 0 0 0 0 0 0 0 0 0 0 0.25 0"/>
<feBlend mode="normal" in2="BackgroundImageFix" result="effect1_dropShadow_2871_10255"/>
<feBlend mode="normal" in="SourceGraphic" in2="effect1_dropShadow_2871_10255" result="shape"/>
</filter>
<filter id="filter1_d_2871_10255" x="0.596191" y="0.375488" width="136.503" height="185.651" filterUnits="userSpaceOnUse" color-interpolation-filters="sRGB">
<feFlood flood-opacity="0" result="BackgroundImageFix"/>
<feColorMatrix in="SourceAlpha" type="matrix" values="0 0 0 0 0 0 0 0 0 0 0 0 0 0 0 0 0 0 127 0" result="hardAlpha"/>
<feOffset dy="4"/>
<feGaussianBlur stdDeviation="6"/>
<feComposite in2="hardAlpha" operator="out"/>
<feColorMatrix type="matrix" values="0 0 0 0 0 0 0 0 0 0 0 0 0 0 0 0 0 0 0.25 0"/>
<feBlend mode="normal" in2="BackgroundImageFix" result="effect1_dropShadow_2871_10255"/>
<feBlend mode="normal" in="SourceGraphic" in2="effect1_dropShadow_2871_10255" result="shape"/>
</filter>
</defs>
</svg>
