<svg width="136" height="189" viewBox="0 0 136 189" fill="none" xmlns="http://www.w3.org/2000/svg">
<g filter="url(#filter0_d_2873_10277)">
<path d="M67.9785 169.512C48.4118 169.512 34.6727 162.66 26.7612 148.956C18.9204 135.252 15 115.721 15 90.3618C15 65.0028 18.9204 45.436 26.7612 31.6616C34.6727 17.8872 48.4118 11 67.9785 11C87.5452 11 101.284 17.8872 109.196 31.6616C117.037 45.436 120.957 65.0028 120.957 90.3618C120.957 115.721 117.001 135.252 109.09 148.956C101.249 162.66 87.5452 169.512 67.9785 169.512ZM85.6733 130.837C88.4282 121.513 89.8057 108.021 89.8057 90.3618C89.8057 71.8547 88.3929 58.1509 85.5674 49.2505C82.8125 40.3501 76.9495 35.8999 67.9785 35.8999C59.0075 35.8999 53.0739 40.3501 50.1777 49.2505C47.2816 58.1509 45.8335 71.8547 45.8335 90.3618C45.8335 108.021 47.2816 121.549 50.1777 130.943C53.0739 140.268 59.0075 144.93 67.9785 144.93C76.9495 144.93 82.8478 140.232 85.6733 130.837Z" fill="#F5F5F5"/>
</g>
<g filter="url(#filter1_d_2873_10277)">
<path fill-rule="evenodd" clip-rule="evenodd" d="M24.1631 150.456L24.1573 150.446C15.9448 136.093 12 115.958 12 90.3618C12 64.7637 15.9454 44.5981 24.154 30.1775L24.1598 30.1674C32.7372 15.2335 47.6293 8 67.9785 8C88.3277 8 103.22 15.2335 111.797 30.1675L111.803 30.1775C120.012 44.5981 123.957 64.7637 123.957 90.3618C123.957 115.958 119.977 136.095 111.691 150.45C103.181 165.32 88.3178 172.512 67.9785 172.512C47.6364 172.512 32.7438 165.319 24.1631 150.456ZM109.09 148.956C117.001 135.252 120.957 115.721 120.957 90.3618C120.957 65.0028 117.037 45.436 109.196 31.6616C101.284 17.8872 87.5452 11 67.9785 11C48.4118 11 34.6727 17.8872 26.7612 31.6616C18.9204 45.436 15 65.0028 15 90.3618C15 115.721 18.9204 135.252 26.7612 148.956C34.6727 162.66 48.4118 169.512 67.9785 169.512C87.5452 169.512 101.249 162.66 109.09 148.956ZM82.7047 50.1479L82.7015 50.1375C81.4598 46.1258 79.6042 43.3835 77.2902 41.6271C74.9865 39.8785 71.9559 38.8999 67.9785 38.8999C64.0026 38.8999 60.946 39.8781 58.6 41.6376C56.243 43.4053 54.3378 46.1613 53.0305 50.1788C50.2864 58.612 48.8335 71.9248 48.8335 90.3618C48.8335 107.919 50.2803 121.091 53.0441 130.058C54.3644 134.306 56.2887 137.216 58.6535 139.074C60.9968 140.915 64.0335 141.93 67.9785 141.93C71.9189 141.93 74.9395 140.909 77.2616 139.06C79.6066 137.192 81.5093 134.263 82.7987 129.979C85.4294 121.07 86.8057 107.922 86.8057 90.3618C86.8057 71.9225 85.3882 58.6008 82.708 50.1582L82.7047 50.1479ZM85.6733 130.837C82.8478 140.232 76.9495 144.93 67.9785 144.93C59.0075 144.93 53.0739 140.268 50.1777 130.943C47.2816 121.549 45.8335 108.021 45.8335 90.3618C45.8335 71.8547 47.2816 58.1509 50.1777 49.2505C53.0739 40.3501 59.0075 35.8999 67.9785 35.8999C76.9495 35.8999 82.8125 40.3501 85.5674 49.2505C88.3929 58.1509 89.8057 71.8547 89.8057 90.3618C89.8057 108.021 88.4282 121.513 85.6733 130.837Z" fill="#BCBCBC"/>
</g>
<defs>
<filter id="filter0_d_2873_10277" x="3" y="3" width="129.957" height="182.512" filterUnits="userSpaceOnUse" color-interpolation-filters="sRGB">
<feFlood flood-opacity="0" result="BackgroundImageFix"/>
<feColorMatrix in="SourceAlpha" type="matrix" values="0 0 0 0 0 0 0 0 0 0 0 0 0 0 0 0 0 0 127 0" result="hardAlpha"/>
<feOffset dy="4"/>
<feGaussianBlur stdDeviation="6"/>
<feComposite in2="hardAlpha" operator="out"/>
<feColorMatrix type="matrix" values="0 0 0 0 0 0 0 0 0 0 0 0 0 0 0 0 0 0 0.25 0"/>
<feBlend mode="normal" in2="BackgroundImageFix" result="effect1_dropShadow_2873_10277"/>
<feBlend mode="normal" in="SourceGraphic" in2="effect1_dropShadow_2873_10277" result="shape"/>
</filter>
<filter id="filter1_d_2873_10277" x="0" y="0" width="135.957" height="188.512" filterUnits="userSpaceOnUse" color-interpolation-filters="sRGB">
<feFlood flood-opacity="0" result="BackgroundImageFix"/>
<feColorMatrix in="SourceAlpha" type="matrix" values="0 0 0 0 0 0 0 0 0 0 0 0 0 0 0 0 0 0 127 0" result="hardAlpha"/>
<feOffset dy="4"/>
<feGaussianBlur stdDeviation="6"/>
<feComposite in2="hardAlpha" operator="out"/>
<feColorMatrix type="matrix" values="0 0 0 0 0 0 0 0 0 0 0 0 0 0 0 0 0 0 0.25 0"/>
<feBlend mode="normal" in2="BackgroundImageFix" result="effect1_dropShadow_2873_10277"/>
<feBlend mode="normal" in="SourceGraphic" in2="effect1_dropShadow_2873_10277" result="shape"/>
</filter>
</defs>
</svg>
