<svg width="138" height="189" viewBox="0 0 138 189" fill="none" xmlns="http://www.w3.org/2000/svg">
<g filter="url(#filter0_d_2871_10254)">
<path d="M51.8164 42.9839C48.4258 47.5047 46.8011 53.5443 46.9424 61.1025H18.7578C19.0404 53.4736 20.3472 46.2332 22.6782 39.3813C25.1506 33.3771 29.0356 27.832 34.3335 22.7461C38.2892 19.1436 42.9867 16.3887 48.4258 14.4814C53.8649 12.5742 60.5402 11.6206 68.4517 11.6206C83.1444 11.6206 94.9762 15.4351 103.947 23.064C112.989 30.6222 117.51 40.7941 117.51 53.5796C117.51 62.6213 114.826 70.2502 109.457 76.4663C106.066 80.3514 102.535 83.0003 98.8613 84.4131C101.616 84.4131 105.572 86.7795 110.729 91.5122C118.428 98.6466 122.278 108.395 122.278 120.756C122.278 133.754 117.757 145.197 108.715 155.086C99.7443 164.905 86.429 169.814 68.7695 169.814C47.013 169.814 31.8965 162.715 23.4199 148.517C18.9697 140.959 16.4974 131.069 16.0029 118.849H45.6709C45.6709 124.995 46.6598 130.081 48.6377 134.107C52.3109 141.524 58.9862 145.232 68.6636 145.232C74.5972 145.232 79.7537 143.219 84.1333 139.193C88.5835 135.096 90.8086 129.233 90.8086 121.604C90.8086 111.503 86.7116 104.757 78.5176 101.366C73.8555 99.459 66.5091 98.5054 56.4785 98.5054V76.8901C66.2972 76.7489 73.1491 75.7952 77.0342 74.0293C83.7448 71.0625 87.1001 65.0583 87.1001 56.0166C87.1001 50.1536 85.3695 45.3856 81.9082 41.7124C78.5176 38.0392 73.7142 36.2026 67.498 36.2026C60.3636 36.2026 55.1364 38.4631 51.8164 42.9839Z" fill="#F5F5F5"/>
</g>
<g filter="url(#filter1_d_2871_10254)">
<path fill-rule="evenodd" clip-rule="evenodd" d="M54.2253 44.7718L54.2162 44.7839C51.3434 48.6144 49.8087 53.9315 49.9417 61.0465L49.9988 64.1025H15.6445L15.7597 60.9915C16.0524 53.0874 17.408 45.5576 19.8379 38.4151L19.8682 38.3261L19.904 38.2391C22.5545 31.8021 26.6966 25.9187 32.2557 20.5819L32.2842 20.5546L32.3133 20.5281C36.5893 16.6339 41.6434 13.6805 47.4329 11.6504C53.2853 9.59829 60.3189 8.62061 68.4515 8.62061C83.6692 8.62061 96.2445 12.5801 105.881 20.7704C115.661 28.9507 120.51 39.9957 120.51 53.5796C120.51 63.2632 117.615 71.6098 111.727 78.4272L111.722 78.4331L111.717 78.4389C109.857 80.5706 107.917 82.3991 105.893 83.8945C107.988 85.2058 110.28 87.0283 112.757 89.302L112.762 89.3068L112.767 89.3117C121.189 97.1152 125.278 107.721 125.278 120.756C125.278 134.528 120.459 146.687 110.929 157.111C101.22 167.737 86.9811 172.814 68.7693 172.814C46.3357 172.814 30.0314 165.444 20.8439 150.055L20.8392 150.047L20.8346 150.039C16.0543 141.92 13.5122 131.5 13.0052 118.97L12.8789 115.849H48.6707V118.849C48.6707 124.694 49.6141 129.288 51.3278 132.779C52.918 135.989 55.0962 138.295 57.8558 139.829C60.644 141.378 64.2009 142.232 68.6634 142.232C73.842 142.232 78.274 140.504 82.1012 136.986C85.7812 133.598 87.8084 128.628 87.8084 121.604C87.8084 116.951 86.8654 113.315 85.1715 110.526C83.4955 107.766 80.9567 105.623 77.3761 104.141C73.2786 102.466 66.424 101.505 56.4783 101.505H53.4783V73.933L56.4352 73.8904C66.2418 73.7493 72.5295 72.7814 75.7926 71.2982L75.8067 71.2918L75.8209 71.2855C78.6235 70.0465 80.6262 68.2327 81.9646 65.8376C83.3258 63.4017 84.0999 60.1812 84.0999 56.0166C84.0999 50.786 82.5771 46.7969 79.7247 43.7698L79.7141 43.7586L79.7036 43.7472C77.0139 40.8334 73.0952 39.2026 67.4979 39.2026C61.0309 39.2026 56.838 41.214 54.2342 44.7596L54.2253 44.7718ZM78.5174 101.366C86.7114 104.757 90.8084 111.503 90.8084 121.604C90.8084 129.233 88.5833 135.096 84.1331 139.193C79.7536 143.219 74.597 145.232 68.6634 145.232C58.986 145.232 52.3107 141.524 48.6375 134.107C46.6596 130.081 45.6707 124.995 45.6707 118.849H16.0027C16.0439 119.865 16.0987 120.865 16.1671 121.849C16.922 132.698 19.3396 141.587 23.4197 148.517C31.8963 162.715 47.0128 169.814 68.7693 169.814C86.4289 169.814 99.7441 164.905 108.715 155.086C117.757 145.197 122.278 133.754 122.278 120.756C122.278 108.395 118.428 98.6467 110.728 91.5122C107.789 88.8142 105.239 86.8853 103.08 85.7253C101.452 84.8505 100.046 84.4131 98.8611 84.4131C100.23 83.8868 101.578 83.1889 102.908 82.3194C105.146 80.8551 107.329 78.904 109.457 76.4663C114.825 70.2502 117.51 62.6213 117.51 53.5796C117.51 40.7941 112.989 30.6222 103.947 23.064C94.9761 15.4351 83.1442 11.6206 68.4515 11.6206C60.54 11.6206 53.8647 12.5742 48.4256 14.4814C42.9865 16.3887 38.289 19.1436 34.3333 22.7461C29.0355 27.832 25.1504 33.3771 22.678 39.3813C20.6546 45.329 19.4029 51.5694 18.923 58.1025C18.85 59.0958 18.7949 60.0958 18.7576 61.1025H46.9422C46.9309 60.4979 46.9309 59.9029 46.9422 59.3177C47.0722 52.5877 48.6968 47.1431 51.8162 42.9839C55.1362 38.4631 60.3634 36.2026 67.4979 36.2026C73.714 36.2026 78.5174 38.0392 81.908 41.7124C85.3693 45.3856 87.0999 50.1536 87.0999 56.0166C87.0999 65.0583 83.7446 71.0625 77.034 74.0293C73.1489 75.7952 66.297 76.7489 56.4783 76.8901V98.5054C66.5089 98.5054 73.8553 99.459 78.5174 101.366Z" fill="#BCBCBC"/>
</g>
<defs>
<filter id="filter0_d_2871_10254" x="4.00293" y="3.62061" width="130.275" height="182.194" filterUnits="userSpaceOnUse" color-interpolation-filters="sRGB">
<feFlood flood-opacity="0" result="BackgroundImageFix"/>
<feColorMatrix in="SourceAlpha" type="matrix" values="0 0 0 0 0 0 0 0 0 0 0 0 0 0 0 0 0 0 127 0" result="hardAlpha"/>
<feOffset dy="4"/>
<feGaussianBlur stdDeviation="6"/>
<feComposite in2="hardAlpha" operator="out"/>
<feColorMatrix type="matrix" values="0 0 0 0 0 0 0 0 0 0 0 0 0 0 0 0 0 0 0.25 0"/>
<feBlend mode="normal" in2="BackgroundImageFix" result="effect1_dropShadow_2871_10254"/>
<feBlend mode="normal" in="SourceGraphic" in2="effect1_dropShadow_2871_10254" result="shape"/>
</filter>
<filter id="filter1_d_2871_10254" x="0.878906" y="0.620605" width="136.399" height="188.194" filterUnits="userSpaceOnUse" color-interpolation-filters="sRGB">
<feFlood flood-opacity="0" result="BackgroundImageFix"/>
<feColorMatrix in="SourceAlpha" type="matrix" values="0 0 0 0 0 0 0 0 0 0 0 0 0 0 0 0 0 0 127 0" result="hardAlpha"/>
<feOffset dy="4"/>
<feGaussianBlur stdDeviation="6"/>
<feComposite in2="hardAlpha" operator="out"/>
<feColorMatrix type="matrix" values="0 0 0 0 0 0 0 0 0 0 0 0 0 0 0 0 0 0 0.25 0"/>
<feBlend mode="normal" in2="BackgroundImageFix" result="effect1_dropShadow_2871_10254"/>
<feBlend mode="normal" in="SourceGraphic" in2="effect1_dropShadow_2871_10254" result="shape"/>
</filter>
</defs>
</svg>
