<svg width="138" height="190" viewBox="0 0 138 190" fill="none" xmlns="http://www.w3.org/2000/svg">
<g filter="url(#filter0_d_2871_10258)">
<path d="M65.7266 170.45C54.2126 170.45 43.8641 167.06 34.6812 160.278C25.4982 153.426 20.2357 143.466 18.8936 130.398H48.9854C49.6917 134.919 51.599 138.592 54.707 141.418C57.8151 144.243 61.9474 145.656 67.104 145.656C77.064 145.656 84.0571 140.146 88.0835 129.127C90.2733 123.052 91.6507 114.187 92.2158 102.532C89.4609 105.993 86.5295 108.642 83.4214 110.479C77.7703 113.869 70.8125 115.564 62.5479 115.564C50.3275 115.564 39.4845 111.361 30.019 102.956C20.5535 94.479 15.8208 82.2939 15.8208 66.4004C15.8208 49.9417 20.5535 36.6265 30.019 26.4546C39.5552 16.2121 51.9168 11.0908 67.104 11.0908C90.4852 11.0908 106.52 21.4393 115.208 42.1362C120.153 53.8621 122.625 69.2965 122.625 88.4395C122.625 107.017 120.259 122.522 115.526 134.955C106.485 158.618 89.8848 170.45 65.7266 170.45ZM55.1309 40.6528C49.3385 45.1737 46.4424 52.8379 46.4424 63.6455C46.4424 72.7578 48.279 79.6097 51.9521 84.2012C55.696 88.722 61.4176 90.9824 69.1172 90.9824C73.2848 90.9824 77.2052 89.7816 80.8784 87.3799C87.7303 83.0003 91.1562 75.4067 91.1562 64.5991C91.1562 55.9106 89.1077 49.0234 85.0107 43.9375C80.9844 38.8516 75.4393 36.3086 68.3755 36.3086C63.2189 36.3086 58.804 37.7567 55.1309 40.6528Z" fill="#F5F5F5"/>
</g>
<g filter="url(#filter1_d_2871_10258)">
<path fill-rule="evenodd" clip-rule="evenodd" d="M32.893 162.687L32.8871 162.683C22.93 155.253 17.3233 144.473 15.9093 130.705L15.5697 127.398H51.553L51.9494 129.935C52.5602 133.844 54.1698 136.875 56.725 139.198C59.162 141.414 62.5158 142.656 67.104 142.656C71.4949 142.656 75.0575 141.456 77.9622 139.167C80.902 136.851 83.3822 133.249 85.2634 128.104C86.7923 123.86 87.9392 118.006 88.6531 110.465C87.4583 111.44 86.2263 112.305 84.9562 113.056C78.7358 116.786 71.2154 118.564 62.5479 118.564C49.5648 118.564 38.0199 114.073 28.027 105.199L28.0177 105.19C17.7634 96.0075 12.8208 82.9169 12.8208 66.4004C12.8208 49.3321 17.7476 35.238 27.8228 24.4109C37.9783 13.5032 51.1632 8.09082 67.104 8.09082C79.2411 8.09082 89.6914 10.7804 98.2928 16.3315C106.902 21.888 113.438 30.1687 117.974 40.9733C123.131 53.2054 125.625 69.0804 125.625 88.4395C125.625 107.248 123.233 123.143 118.33 136.022L118.329 136.025C113.648 148.275 106.923 157.685 98.0364 164.019C89.1394 170.361 78.3113 173.45 65.7266 173.45C53.577 173.45 42.6028 169.857 32.899 162.692L32.893 162.687ZM115.208 42.1362C106.52 21.4393 90.4852 11.0908 67.104 11.0908C51.9168 11.0908 39.5552 16.2121 30.019 26.4546C20.5535 36.6265 15.8208 49.9417 15.8208 66.4004C15.8208 82.2939 20.5535 94.479 30.019 102.956C39.4845 111.361 50.3275 115.564 62.5479 115.564C70.8125 115.564 77.7703 113.869 83.4214 110.479C85.3501 109.339 87.2108 107.886 89.0035 106.121C90.0997 105.042 91.1705 103.845 92.2158 102.532C92.1337 104.226 92.0344 105.861 91.9179 107.437C91.2331 116.705 89.955 123.935 88.0835 129.127C84.0571 140.146 77.064 145.656 67.104 145.656C61.9474 145.656 57.8151 144.243 54.707 141.418C51.599 138.592 49.6917 134.919 48.9854 130.398H18.8936C18.9982 131.417 19.1267 132.417 19.279 133.398C21.0801 145.001 26.2142 153.961 34.6812 160.278C43.8641 167.06 54.2126 170.45 65.7266 170.45C89.8848 170.45 106.485 158.618 115.526 134.955C120.259 122.522 122.625 107.017 122.625 88.4395C122.625 69.2965 120.153 53.8621 115.208 42.1362ZM56.9825 43.0132L56.9767 43.0178C52.2068 46.7406 49.4424 53.3105 49.4424 63.6455C49.4424 72.4155 51.2192 78.4693 54.2788 82.3072C57.2871 85.9268 62.0253 87.9824 69.1172 87.9824C72.67 87.9824 76.0243 86.9693 79.2367 84.869L79.2497 84.8605L79.2627 84.8521C84.9767 81.1999 88.1562 74.7598 88.1562 64.5991C88.1562 56.3685 86.2185 50.219 82.6745 45.8195L82.6665 45.8096L82.6586 45.7996C79.2568 41.5026 74.616 39.3086 68.3755 39.3086C63.8196 39.3086 60.0775 40.5729 56.9883 43.0086L56.9825 43.0132ZM51.9521 84.2012C48.279 79.6097 46.4424 72.7578 46.4424 63.6455C46.4424 52.8379 49.3385 45.1737 55.1309 40.6528C58.804 37.7567 63.2189 36.3086 68.3755 36.3086C75.4393 36.3086 80.9844 38.8516 85.0107 43.9375C89.1077 49.0234 91.1562 55.9106 91.1562 64.5991C91.1562 75.4067 87.7303 83.0003 80.8784 87.3799C77.2052 89.7816 73.2848 90.9824 69.1172 90.9824C61.4176 90.9824 55.696 88.722 51.9521 84.2012Z" fill="#BCBCBC"/>
</g>
<defs>
<filter id="filter0_d_2871_10258" x="3.8208" y="3.09082" width="130.805" height="183.359" filterUnits="userSpaceOnUse" color-interpolation-filters="sRGB">
<feFlood flood-opacity="0" result="BackgroundImageFix"/>
<feColorMatrix in="SourceAlpha" type="matrix" values="0 0 0 0 0 0 0 0 0 0 0 0 0 0 0 0 0 0 127 0" result="hardAlpha"/>
<feOffset dy="4"/>
<feGaussianBlur stdDeviation="6"/>
<feComposite in2="hardAlpha" operator="out"/>
<feColorMatrix type="matrix" values="0 0 0 0 0 0 0 0 0 0 0 0 0 0 0 0 0 0 0.25 0"/>
<feBlend mode="normal" in2="BackgroundImageFix" result="effect1_dropShadow_2871_10258"/>
<feBlend mode="normal" in="SourceGraphic" in2="effect1_dropShadow_2871_10258" result="shape"/>
</filter>
<filter id="filter1_d_2871_10258" x="0.820801" y="0.0908203" width="136.805" height="189.359" filterUnits="userSpaceOnUse" color-interpolation-filters="sRGB">
<feFlood flood-opacity="0" result="BackgroundImageFix"/>
<feColorMatrix in="SourceAlpha" type="matrix" values="0 0 0 0 0 0 0 0 0 0 0 0 0 0 0 0 0 0 127 0" result="hardAlpha"/>
<feOffset dy="4"/>
<feGaussianBlur stdDeviation="6"/>
<feComposite in2="hardAlpha" operator="out"/>
<feColorMatrix type="matrix" values="0 0 0 0 0 0 0 0 0 0 0 0 0 0 0 0 0 0 0.25 0"/>
<feBlend mode="normal" in2="BackgroundImageFix" result="effect1_dropShadow_2871_10258"/>
<feBlend mode="normal" in="SourceGraphic" in2="effect1_dropShadow_2871_10258" result="shape"/>
</filter>
</defs>
</svg>
