<svg width="212" height="189" viewBox="0 0 212 189" fill="none" xmlns="http://www.w3.org/2000/svg">
<g filter="url(#filter0_d_2873_10266)">
<path d="M143.979 169.512C124.412 169.512 110.673 162.66 102.761 148.956C94.9204 135.252 91 115.721 91 90.3618C91 65.0028 94.9204 45.436 102.761 31.6616C110.673 17.8872 124.412 11 143.979 11C163.545 11 177.284 17.8872 185.196 31.6616C193.037 45.436 196.957 65.0028 196.957 90.3618C196.957 115.721 193.001 135.252 185.09 148.956C177.249 162.66 163.545 169.512 143.979 169.512ZM161.673 130.837C164.428 121.513 165.806 108.021 165.806 90.3618C165.806 71.8547 164.393 58.1509 161.567 49.2505C158.812 40.3501 152.95 35.8999 143.979 35.8999C135.007 35.8999 129.074 40.3501 126.178 49.2505C123.282 58.1509 121.833 71.8547 121.833 90.3618C121.833 108.021 123.282 121.549 126.178 130.943C129.074 140.268 135.007 144.93 143.979 144.93C152.95 144.93 158.848 140.232 161.673 130.837Z" fill="#F5F5F5"/>
</g>
<g filter="url(#filter1_d_2873_10266)">
<path fill-rule="evenodd" clip-rule="evenodd" d="M100.163 150.456L100.157 150.446C91.9448 136.093 88 115.958 88 90.3618C88 64.7637 91.9454 44.5981 100.154 30.1775L100.16 30.1674C108.737 15.2335 123.629 8 143.979 8C164.328 8 179.22 15.2335 187.797 30.1675L187.803 30.1775C196.012 44.5981 199.957 64.7637 199.957 90.3618C199.957 115.958 195.977 136.095 187.691 150.45C179.181 165.32 164.318 172.512 143.979 172.512C123.636 172.512 108.744 165.319 100.163 150.456ZM185.09 148.956C193.001 135.252 196.957 115.721 196.957 90.3618C196.957 65.0028 193.037 45.436 185.196 31.6616C177.284 17.8872 163.545 11 143.979 11C124.412 11 110.673 17.8872 102.761 31.6616C94.9204 45.436 91 65.0028 91 90.3618C91 115.721 94.9204 135.252 102.761 148.956C110.673 162.66 124.412 169.512 143.979 169.512C163.545 169.512 177.249 162.66 185.09 148.956ZM158.705 50.1479L158.702 50.1375C157.46 46.1258 155.604 43.3835 153.29 41.6271C150.986 39.8785 147.956 38.8999 143.979 38.8999C140.003 38.8999 136.946 39.8781 134.6 41.6376C132.243 43.4053 130.338 46.1613 129.031 50.1788C126.286 58.612 124.833 71.9248 124.833 90.3618C124.833 107.919 126.28 121.091 129.044 130.058C130.364 134.306 132.289 137.216 134.654 139.074C136.997 140.915 140.034 141.93 143.979 141.93C147.919 141.93 150.94 140.909 153.262 139.06C155.607 137.192 157.509 134.263 158.799 129.979C161.429 121.07 162.806 107.922 162.806 90.3618C162.806 71.9225 161.388 58.6008 158.708 50.1582L158.705 50.1479ZM161.673 130.837C158.848 140.232 152.95 144.93 143.979 144.93C135.007 144.93 129.074 140.268 126.178 130.943C123.282 121.549 121.833 108.021 121.833 90.3618C121.833 71.8547 123.282 58.1509 126.178 49.2505C129.074 40.3501 135.007 35.8999 143.979 35.8999C152.95 35.8999 158.812 40.3501 161.567 49.2505C164.393 58.1509 165.806 71.8547 165.806 90.3618C165.806 108.021 164.428 121.513 161.673 130.837Z" fill="#BCBCBC"/>
</g>
<g filter="url(#filter2_d_2873_10266)">
<path d="M82.0708 166.638H51.1313V60.6807H15V40.125C24.5361 39.7012 31.2114 39.0654 35.0259 38.2178C41.1007 36.8757 46.0454 34.1914 49.8599 30.165C52.4735 27.4102 54.4513 23.737 55.7935 19.1455C56.5705 16.3906 56.959 14.3421 56.959 13H82.0708V166.638Z" fill="#F5F5F5"/>
</g>
<g filter="url(#filter3_d_2873_10266)">
<path fill-rule="evenodd" clip-rule="evenodd" d="M85.0708 169.638H48.1313V63.6807H12V37.2554L14.8668 37.128C24.4062 36.704 30.8442 36.0739 34.3751 35.2892L34.3787 35.2884C39.9422 34.0593 44.3289 31.6412 47.682 28.1018L47.6835 28.1003C49.8923 25.772 51.668 22.5603 52.9101 18.3171C53.674 15.6061 53.959 13.9 53.959 13V10H85.0708V169.638ZM55.7935 19.1455C54.4513 23.737 52.4735 27.4102 49.8599 30.165C46.0454 34.1914 41.1007 36.8756 35.0259 38.2178C31.2114 39.0654 24.5361 39.7012 15 40.125V60.6807H51.1313V166.638H82.0708V13H56.959C56.959 14.3421 56.5705 16.3906 55.7935 19.1455Z" fill="#BCBCBC"/>
</g>
<defs>
<filter id="filter0_d_2873_10266" x="79" y="3" width="129.957" height="182.512" filterUnits="userSpaceOnUse" color-interpolation-filters="sRGB">
<feFlood flood-opacity="0" result="BackgroundImageFix"/>
<feColorMatrix in="SourceAlpha" type="matrix" values="0 0 0 0 0 0 0 0 0 0 0 0 0 0 0 0 0 0 127 0" result="hardAlpha"/>
<feOffset dy="4"/>
<feGaussianBlur stdDeviation="6"/>
<feComposite in2="hardAlpha" operator="out"/>
<feColorMatrix type="matrix" values="0 0 0 0 0 0 0 0 0 0 0 0 0 0 0 0 0 0 0.25 0"/>
<feBlend mode="normal" in2="BackgroundImageFix" result="effect1_dropShadow_2873_10266"/>
<feBlend mode="normal" in="SourceGraphic" in2="effect1_dropShadow_2873_10266" result="shape"/>
</filter>
<filter id="filter1_d_2873_10266" x="76" y="0" width="135.957" height="188.512" filterUnits="userSpaceOnUse" color-interpolation-filters="sRGB">
<feFlood flood-opacity="0" result="BackgroundImageFix"/>
<feColorMatrix in="SourceAlpha" type="matrix" values="0 0 0 0 0 0 0 0 0 0 0 0 0 0 0 0 0 0 127 0" result="hardAlpha"/>
<feOffset dy="4"/>
<feGaussianBlur stdDeviation="6"/>
<feComposite in2="hardAlpha" operator="out"/>
<feColorMatrix type="matrix" values="0 0 0 0 0 0 0 0 0 0 0 0 0 0 0 0 0 0 0.25 0"/>
<feBlend mode="normal" in2="BackgroundImageFix" result="effect1_dropShadow_2873_10266"/>
<feBlend mode="normal" in="SourceGraphic" in2="effect1_dropShadow_2873_10266" result="shape"/>
</filter>
<filter id="filter2_d_2873_10266" x="3" y="5" width="91.0708" height="177.638" filterUnits="userSpaceOnUse" color-interpolation-filters="sRGB">
<feFlood flood-opacity="0" result="BackgroundImageFix"/>
<feColorMatrix in="SourceAlpha" type="matrix" values="0 0 0 0 0 0 0 0 0 0 0 0 0 0 0 0 0 0 127 0" result="hardAlpha"/>
<feOffset dy="4"/>
<feGaussianBlur stdDeviation="6"/>
<feComposite in2="hardAlpha" operator="out"/>
<feColorMatrix type="matrix" values="0 0 0 0 0 0 0 0 0 0 0 0 0 0 0 0 0 0 0.25 0"/>
<feBlend mode="normal" in2="BackgroundImageFix" result="effect1_dropShadow_2873_10266"/>
<feBlend mode="normal" in="SourceGraphic" in2="effect1_dropShadow_2873_10266" result="shape"/>
</filter>
<filter id="filter3_d_2873_10266" x="0" y="2" width="97.0708" height="183.638" filterUnits="userSpaceOnUse" color-interpolation-filters="sRGB">
<feFlood flood-opacity="0" result="BackgroundImageFix"/>
<feColorMatrix in="SourceAlpha" type="matrix" values="0 0 0 0 0 0 0 0 0 0 0 0 0 0 0 0 0 0 127 0" result="hardAlpha"/>
<feOffset dy="4"/>
<feGaussianBlur stdDeviation="6"/>
<feComposite in2="hardAlpha" operator="out"/>
<feColorMatrix type="matrix" values="0 0 0 0 0 0 0 0 0 0 0 0 0 0 0 0 0 0 0.25 0"/>
<feBlend mode="normal" in2="BackgroundImageFix" result="effect1_dropShadow_2873_10266"/>
<feBlend mode="normal" in="SourceGraphic" in2="effect1_dropShadow_2873_10266" result="shape"/>
</filter>
</defs>
</svg>
