<svg id="圖層_1_拷貝" data-name="圖層 1 拷貝" xmlns="http://www.w3.org/2000/svg" xmlns:xlink="http://www.w3.org/1999/xlink" viewBox="0 0 2324.41 793.7"><defs><style>.cls-1{fill:#fff;}.cls-2{fill:url(#未命名漸層_5);}.cls-3{fill:url(#未命名漸層_5-2);}.cls-4{fill:url(#未命名漸層_2);}</style><linearGradient id="未命名漸層_5" x1="118.97" y1="12.57" x2="2162.98" y2="150.58" gradientUnits="userSpaceOnUse"><stop offset="0.13" stop-color="#3fc3ff" stop-opacity="0"/><stop offset="0.51" stop-color="#00afff"/></linearGradient><linearGradient id="未命名漸層_5-2" x1="99.09" y1="307.08" x2="2143.09" y2="445.08" xlink:href="#未命名漸層_5"/><linearGradient id="未命名漸層_2" x1="93.38" y1="445.23" x2="2341.24" y2="225.81" gradientUnits="userSpaceOnUse"><stop offset="0" stop-color="#01afff"/><stop offset="0.72" stop-color="#007cb5"/></linearGradient></defs><polygon class="cls-1" points="2324.41 0 2324.41 0 2324.41 0 2324.41 0"/><path class="cls-2" d="M0,0S.44,3.26,1.29,9.26V0Z"/><path class="cls-1" d="M242.58,751.39C255,765.32,305.34,784.08,317.24,777c399.49-239,945,8.67,1326.33-17.27C1947.08,739,2084.2,563.56,2132,486.51c1.46-2.36,87.44-133.82,130.23-265.66,39.93-123,61.78-215.17,62.14-220.62V0h-75.16s-4,78.83-59.34,256.29-106.68,243.33-108.38,246.18C2032.23,585,1866.9,741.85,1576,741.85c-337.43,0-796.42-285.07-1174.88-122-25.23,10.87-88.55,50.23-133.23,11.68-40.4-34.86-64.94-140.09-125-296.26C79.91,171.46,47.91,0,47.91,0H1.29V9.26c7.39,52,45.74,310.61,96,440.92C183.7,674.55,203.23,707.39,242.58,751.39Z"/><path class="cls-1" d="M2324.41,0h-75.16s-4,78.83-59.34,256.29-106.68,243.33-108.38,246.18C2032.23,585,1866.9,741.85,1576,741.85c-337.43,0-796.42-285.07-1174.88-122-25.23,10.87-88.55,50.23-133.23,11.68-40.4-34.86-64.94-140.09-125-296.26C79.91,171.46,47.91,0,47.91,0H1.29V793.7H2324.41V0Z"/><path class="cls-3" d="M2324.41,0h-75.16s-4,78.83-59.34,256.29-106.68,243.33-108.38,246.18C2032.23,585,1866.9,741.85,1576,741.85c-337.43,0-796.42-285.07-1174.88-122-25.23,10.87-77.55,15.29-122.23-23.27-40.4-34.86-75.94-105.14-136-261.31C79.91,171.46,47.91,0,47.91,0H0S41.25,304.85,97.25,450.18c86.45,224.37,106,257.21,145.33,301.21C255,765.32,305.34,784.08,317.24,777c399.49-239,945,8.67,1326.33-17.27C1947.08,739,2084.2,563.56,2132,486.51c1.46-2.36,87.44-133.82,130.23-265.66C2303,95.52,2324.87,2.22,2324.41,0Z"/><path class="cls-4" d="M2249.25,0s-4,78.83-59.34,256.29-106.68,243.33-108.38,246.18C2032.23,585,1866.9,741.85,1576,741.85c-337.43,0-762.08-316.37-1142.11-157-62,26-120,90.28-169,22C233.8,563.5,203,491.43,142.91,335.26,79.91,171.46,47.91,0,47.91,0H1.29s36.9,191.44,119.62,390.83c95.54,230.31,101,234.34,135.34,285.12s78.33,40.22,79.22,39.76C722,513.31,1225.75,760,1585.84,751.15c288.34-7.09,450.26-133.9,499.43-201.25,2.45-3.35,78.75-108,122.64-250.38,57.64-187,79-299.52,79-299.52Z"/></svg>