<svg width="308" height="114" viewBox="0 0 308 114" fill="none" xmlns="http://www.w3.org/2000/svg">
<g clip-path="url(#clip0_2553_10305)">
<path d="M290.02 67.96L278.93 -0.0400391L2.49023 45.1L0.0302734 45.4999L11.1304 113.5L287.56 68.3599L290.02 67.96ZM15.2502 107.76L5.77026 49.67L274.77 5.73999L284.25 63.83L15.2502 107.76Z" fill="#F29600"/>
<path d="M8.62988 51.7599L17.2998 104.85L281.37 61.73L272.7 8.63989L8.62988 51.7599ZM18.9497 102.56L10.9497 53.4199L271.02 10.9399L279.02 60.08L18.9497 102.56Z" fill="#F29600"/>
<path d="M45.0796 78.42C44.9509 78.3272 44.8051 78.2609 44.6506 78.2249C44.4962 78.1889 44.3359 78.1838 44.1795 78.21C43.8082 78.3054 43.4869 78.5375 43.2795 78.8599C42.5658 79.845 41.6441 80.661 40.5796 81.2499C39.5858 81.8096 38.5035 82.1952 37.3796 82.3899C36.5647 82.5538 35.7247 82.5497 34.9114 82.3777C34.0981 82.2058 33.3283 81.8696 32.6494 81.3899C31.9923 80.9258 31.4382 80.3311 31.0217 79.6427C30.6053 78.9544 30.3356 78.1874 30.2295 77.3899C29.9621 75.8051 30.2708 74.177 31.0996 72.8C31.5577 72.0696 32.179 71.4555 32.9148 71.006C33.6506 70.5566 34.4806 70.2841 35.3396 70.21C36.6804 69.9107 38.0818 70.0473 39.3396 70.6C39.7371 70.7516 40.0977 70.986 40.3977 71.2878C40.6977 71.5895 40.9303 71.9516 41.0796 72.35C41.1434 72.7115 41.3351 73.038 41.6196 73.2699C41.7481 73.3632 41.8938 73.4298 42.0483 73.4659C42.2029 73.5019 42.3631 73.5068 42.5195 73.48C42.6897 73.4544 42.8525 73.3929 42.9973 73.2998C43.1421 73.2068 43.2656 73.0842 43.3596 72.94C43.5407 72.5855 43.597 72.1804 43.5195 71.79L42.9795 68.4999C42.9359 68.1137 42.7506 67.7574 42.4595 67.4999C42.3198 67.3907 42.1579 67.3135 41.9851 67.2737C41.8123 67.234 41.6328 67.2327 41.4595 67.2699C41.2929 67.2909 41.1332 67.3484 40.9915 67.4383C40.8497 67.5282 40.7296 67.6483 40.6397 67.79C40.517 67.9889 40.4479 68.2164 40.4395 68.45C38.7458 67.6707 36.852 67.4365 35.0195 67.78C33.8692 67.937 32.7629 68.327 31.7683 68.9261C30.7738 69.5251 29.912 70.3207 29.2354 71.2641C28.5587 72.2075 28.0813 73.2789 27.8328 74.413C27.5842 75.5471 27.5695 76.7199 27.7896 77.8599C27.9396 78.9842 28.3188 80.0657 28.9036 81.0375C29.4884 82.0094 30.2664 82.8509 31.1895 83.5099C32.6019 84.5236 34.3012 85.0596 36.0396 85.04C36.5992 85.0418 37.1579 84.995 37.7095 84.8999C40.0455 84.5459 42.2221 83.5011 43.9595 81.8999C45.1695 80.7999 45.6796 79.97 45.5596 79.28C45.5489 79.1098 45.5003 78.9443 45.4172 78.7955C45.3342 78.6466 45.2188 78.5183 45.0796 78.42V78.42Z" fill="#F29600"/>
<path d="M62.4001 65.78C60.508 64.444 58.1667 63.9049 55.8808 64.2791C53.595 64.6532 51.5477 65.9105 50.1802 67.78C49.5134 68.7028 49.0361 69.7485 48.7756 70.8567C48.5152 71.9649 48.4766 73.1137 48.6626 74.2368C48.8485 75.36 49.2551 76.4351 49.8589 77.4003C50.4626 78.3654 51.2516 79.2014 52.1802 79.86C53.6291 80.9262 55.3812 81.5008 57.1802 81.5C57.6961 81.496 58.2109 81.4526 58.7202 81.37C59.8552 81.1989 60.944 80.8008 61.9216 80.1995C62.8993 79.5981 63.7456 78.8058 64.4101 77.87C65.0801 76.9466 65.56 75.8996 65.8223 74.7893C66.0845 73.6791 66.1238 72.5277 65.9377 71.4022C65.7517 70.2767 65.344 69.1994 64.7385 68.2325C64.133 67.2657 63.3416 66.4287 62.4101 65.77L62.4001 65.78ZM62.4001 76.4301C61.421 77.7724 59.9521 78.6743 58.312 78.9402C56.6719 79.206 54.9934 78.8144 53.6404 77.8501C52.9764 77.3834 52.412 76.7888 51.9807 76.1013C51.5494 75.4138 51.2595 74.6472 51.1282 73.8463C50.9968 73.0454 51.0268 72.2264 51.2161 71.4371C51.4053 70.6479 51.75 69.9043 52.2302 69.25C52.7025 68.5727 53.3096 68.0003 54.0134 67.5684C54.7172 67.1365 55.5025 66.8544 56.3203 66.74C56.6939 66.6778 57.0715 66.6444 57.4502 66.64C58.7245 66.6442 59.9644 67.054 60.9902 67.8101C61.6632 68.2662 62.2339 68.8574 62.666 69.546C63.0981 70.2347 63.3822 71.0057 63.5002 71.8101V71.8101C63.6431 72.6155 63.6155 73.4419 63.4192 74.236C63.2228 75.03 62.8621 75.774 62.3603 76.42L62.4001 76.4301Z" fill="#F29600"/>
<path d="M90.0804 73.49C89.7361 73.2992 89.3324 73.2457 88.9503 73.3401L88.2203 73.4601L86.6304 63.77C86.4188 62.5632 85.7441 61.4867 84.7503 60.77C84.3204 60.4366 83.8233 60.2004 83.2933 60.0779C82.7633 59.9553 82.2129 59.9492 81.6803 60.06C80.8853 60.1893 80.1414 60.5354 79.5304 61.06C78.9841 61.5334 78.5123 62.0863 78.1304 62.7C77.7289 62.2236 77.2356 61.8326 76.6803 61.55C75.9397 61.1977 75.1077 61.0858 74.3004 61.2301C73.1122 61.4765 72.0495 62.1354 71.3004 63.0901L71.1702 62.28L67.9903 62.8C67.6052 62.8401 67.2488 63.0218 66.9903 63.31C66.8811 63.4498 66.8032 63.6114 66.7618 63.7839C66.7204 63.9564 66.7165 64.1359 66.7503 64.31C66.7742 64.4796 66.8338 64.6422 66.9251 64.787C67.0165 64.9318 67.1376 65.0555 67.2804 65.15C67.6273 65.3429 68.0336 65.4 68.4202 65.31L69.1602 65.19L70.9703 76.29L70.2303 76.41C69.8474 76.4501 69.4921 76.6278 69.2303 76.91C69.1174 77.0478 69.0372 77.2094 68.9957 77.3825C68.9541 77.5557 68.9523 77.736 68.9903 77.91C69.0163 78.0762 69.077 78.2351 69.1683 78.3763C69.2596 78.5176 69.3795 78.6382 69.5203 78.7301C69.7395 78.8642 69.9936 78.9302 70.2503 78.92H70.6502L74.5704 78.28C74.9569 78.2374 75.3135 78.0519 75.5704 77.76C75.6739 77.6258 75.7485 77.4717 75.7896 77.3072C75.8307 77.1428 75.8373 76.9716 75.8092 76.8044C75.781 76.6373 75.7185 76.4778 75.6258 76.3359C75.5331 76.194 75.4121 76.073 75.2703 75.9801C74.9246 75.7939 74.5228 75.7406 74.1405 75.8301L73.4102 75.95L71.9303 66.95C72.3225 66.0191 72.878 65.1656 73.5704 64.43C73.9059 64.1097 74.3255 63.8912 74.7804 63.8C75.0075 63.7744 75.2373 63.7978 75.4547 63.8685C75.672 63.9392 75.8718 64.0557 76.0404 64.2101C76.4973 64.581 76.7915 65.1156 76.8604 65.7L78.8004 77.5901L81.9903 77.07C82.3786 77.0333 82.7373 76.8468 82.9903 76.55C83.0952 76.4196 83.1711 76.2682 83.2125 76.1061C83.2539 75.9439 83.2599 75.7747 83.2303 75.61C83.2078 75.4401 83.1477 75.2775 83.0543 75.1339C82.9609 74.9903 82.8364 74.8694 82.6903 74.78C82.3494 74.5899 81.9492 74.5363 81.5704 74.63L80.8504 74.75L79.3704 65.75C79.7064 64.8735 80.2013 64.0666 80.8304 63.37C81.1865 62.9969 81.6461 62.7392 82.1502 62.63C82.3792 62.5946 82.6133 62.6093 82.836 62.6732C83.0587 62.7371 83.2649 62.8486 83.4403 63C83.8792 63.3517 84.1629 63.8616 84.2303 64.42L86.2303 76.42L89.4102 75.9C89.7979 75.8612 90.1559 75.6751 90.4102 75.38C90.5129 75.2483 90.5874 75.0969 90.6287 74.9352C90.67 74.7734 90.6772 74.6048 90.6502 74.44C90.6402 74.2471 90.5831 74.0597 90.4837 73.894C90.3843 73.7284 90.2459 73.5896 90.0804 73.49V73.49Z" fill="#F29600"/>
<path d="M108.47 70.48C108.119 70.2983 107.714 70.2486 107.33 70.34L102.1 71.1899L99.8799 57.6299L93.6797 58.6299C93.2949 58.6779 92.94 58.8625 92.6797 59.1499C92.5698 59.2892 92.4922 59.4512 92.4524 59.6241C92.4126 59.7971 92.4117 59.9766 92.4497 60.1499C92.4729 60.3182 92.5335 60.4792 92.6269 60.6211C92.7204 60.763 92.8443 60.8822 92.9897 60.97C93.3351 61.1677 93.7434 61.2249 94.1299 61.1299L97.8899 60.5199L99.6997 71.6199L94.4697 72.48C94.0875 72.5147 93.7314 72.6892 93.4697 72.97C93.3557 73.1072 93.2742 73.2683 93.231 73.4414C93.1877 73.6145 93.1838 73.7952 93.2197 73.97C93.2463 74.136 93.3072 74.2946 93.3984 74.4358C93.4897 74.577 93.6093 74.6976 93.7498 74.7899C93.9721 74.9254 94.2297 74.9916 94.4897 74.98H94.8899L107.8 72.8699C108.186 72.8263 108.542 72.6411 108.8 72.35C108.903 72.2158 108.978 72.0615 109.019 71.8971C109.06 71.7327 109.067 71.5615 109.039 71.3944C109.01 71.2273 108.948 71.0678 108.855 70.9259C108.762 70.784 108.642 70.6628 108.5 70.5699L108.47 70.48Z" fill="#F29600"/>
<path d="M98.6316 50.0114L95.4932 50.5237L96.268 55.2709L99.4064 54.7587L98.6316 50.0114Z" fill="#F29600"/>
<path d="M130.92 66.8199C130.576 66.6291 130.172 66.5755 129.79 66.6699L129.05 66.7899L127.64 58.1098C127.465 57.1324 127.006 56.2282 126.32 55.5098C125.712 54.8008 124.935 54.2573 124.06 53.9299C123.014 53.6092 121.909 53.5228 120.826 53.6766C119.742 53.8304 118.706 54.2207 117.79 54.8199C117.108 55.3267 116.496 55.9219 115.97 56.5899L115.72 55.0399L112.53 55.5599C112.146 55.6035 111.791 55.7847 111.53 56.0699C111.427 56.2049 111.353 56.3593 111.312 56.5239C111.271 56.6885 111.263 56.8597 111.291 57.0272C111.318 57.1946 111.379 57.3548 111.47 57.498C111.561 57.6412 111.68 57.7642 111.82 57.8598C112.167 58.0527 112.573 58.1098 112.96 58.0199L113.7 57.8999L115.51 69.0098L114.35 69.1899C113.968 69.2326 113.614 69.4098 113.35 69.6899C113.247 69.8249 113.173 69.9793 113.132 70.1439C113.091 70.3085 113.083 70.4797 113.111 70.6472C113.138 70.8146 113.199 70.9748 113.29 71.118C113.381 71.2612 113.5 71.3843 113.64 71.4799C113.859 71.614 114.113 71.6801 114.37 71.6699H114.77L119.53 70.8898C119.915 70.848 120.27 70.6665 120.53 70.3798C120.644 70.2424 120.724 70.081 120.766 69.9077C120.807 69.7344 120.809 69.5538 120.77 69.3798C120.748 69.21 120.687 69.0474 120.594 68.9038C120.501 68.7602 120.376 68.6393 120.23 68.5499C119.889 68.3588 119.489 68.3051 119.11 68.3999L117.95 68.5899L116.57 60.1198C117.189 58.9798 117.974 57.9384 118.9 57.0299C119.539 56.5522 120.289 56.2459 121.08 56.1398C122.052 55.9263 123.07 56.1061 123.91 56.6398C124.272 56.8694 124.58 57.1754 124.812 57.5365C125.043 57.8975 125.193 58.3049 125.25 58.7299L126.63 67.1699L125.91 67.2899C125.527 67.3309 125.172 67.5084 124.91 67.7899C124.796 67.9273 124.716 68.0887 124.674 68.262C124.633 68.4353 124.631 68.6159 124.67 68.7899C124.691 68.9575 124.75 69.1182 124.842 69.2601C124.934 69.402 125.056 69.5215 125.2 69.6098C125.548 69.8101 125.961 69.8675 126.35 69.7699L130.25 69.1298C130.636 69.0947 130.995 68.912 131.25 68.6198C131.359 68.48 131.437 68.3185 131.479 68.1459C131.52 67.9734 131.524 67.794 131.49 67.6198C131.458 67.4534 131.391 67.2958 131.292 67.1578C131.194 67.0197 131.067 66.9045 130.92 66.8199V66.8199Z" fill="#F29600"/>
<path d="M149.57 49.5101L145.66 50.1501L145.96 51.9701C145.119 51.3463 144.161 50.8981 143.143 50.6525C142.125 50.4069 141.068 50.3689 140.034 50.5406C139.001 50.7123 138.014 51.0903 137.13 51.652C136.246 52.2138 135.484 52.9477 134.89 53.8101C134.263 54.6788 133.817 55.6646 133.578 56.709C133.339 57.7535 133.313 58.8352 133.5 59.8901C133.66 60.9512 134.03 61.9699 134.588 62.8867C135.146 63.8034 135.881 64.6001 136.75 65.2302C137.583 65.8692 138.538 66.3295 139.557 66.5825C140.575 66.8354 141.635 66.8754 142.67 66.7001C143.709 66.5488 144.706 66.1814 145.594 65.6216C146.483 65.0619 147.245 64.3222 147.83 63.4501L148.33 66.4501C148.445 67.0035 148.425 67.5764 148.27 68.12C148.025 68.8819 147.591 69.5697 147.01 70.12C146.463 70.6069 145.785 70.9232 145.06 71.0301L140.88 71.7001C140.495 71.7402 140.139 71.9219 139.88 72.2101C139.773 72.3509 139.696 72.5125 139.654 72.6847C139.613 72.857 139.608 73.0359 139.64 73.2101C139.667 73.3785 139.729 73.5393 139.822 73.6823C139.915 73.8253 140.037 73.9472 140.18 74.0401C140.398 74.1662 140.648 74.2286 140.9 74.2201H141.31L145.44 73.5401C146.237 73.4443 147.007 73.1856 147.7 72.7801C148.334 72.3463 148.903 71.8244 149.39 71.2302C149.923 70.6489 150.337 69.9696 150.61 69.2302C150.944 68.2667 151.023 67.2333 150.84 66.2302L148.54 52.1701L150.01 51.9301C150.395 51.891 150.752 51.7091 151.01 51.4201C151.124 51.2831 151.205 51.1216 151.247 50.9482C151.289 50.7747 151.29 50.594 151.25 50.4201C151.226 50.2506 151.167 50.088 151.075 49.9432C150.984 49.7984 150.863 49.6747 150.72 49.5801C150.359 49.4139 149.949 49.3888 149.57 49.5101V49.5101ZM145.93 61.9701C145.52 62.5742 144.989 63.0868 144.372 63.4758C143.754 63.8647 143.062 64.1216 142.34 64.2302C141.623 64.3589 140.887 64.3363 140.179 64.1641C139.472 63.9919 138.808 63.6739 138.23 63.2302C137.018 62.3257 136.205 60.9856 135.962 59.493C135.72 58.0003 136.067 56.4718 136.93 55.2302C137.337 54.6256 137.866 54.1123 138.482 53.7232C139.099 53.3341 139.789 53.0777 140.51 52.9701C140.821 52.9222 141.135 52.8987 141.45 52.9001C142.598 52.903 143.714 53.2785 144.63 53.9701C145.846 54.8715 146.663 56.2118 146.905 57.706C147.148 59.2001 146.798 60.7301 145.93 61.9701V61.9701Z" fill="#F29600"/>
<path d="M191.86 50.8798C190.943 50.0785 189.814 49.5578 188.61 49.3798C187.032 49.1996 185.441 49.1796 183.86 49.3199C182.759 49.4498 181.643 49.3752 180.57 49.0999C179.81 48.8199 179.39 48.4198 179.31 47.8698C179.288 47.5872 179.335 47.3036 179.449 47.0438C179.562 46.784 179.737 46.5559 179.959 46.3798C180.965 45.491 182.224 44.9417 183.56 44.8099C184.854 44.5341 186.201 44.649 187.429 45.1398C187.708 45.255 187.958 45.4318 188.158 45.6569C188.359 45.8821 188.507 46.1497 188.59 46.4399C188.664 46.8125 188.87 47.1459 189.169 47.3798C189.447 47.5697 189.789 47.6417 190.12 47.5799C190.3 47.5532 190.473 47.4897 190.628 47.3934C190.783 47.297 190.916 47.1699 191.02 47.0198C191.227 46.6487 191.287 46.2135 191.189 45.7999L190.75 43.1298C190.718 42.7022 190.521 42.3037 190.199 42.0198C190.056 41.9082 189.892 41.8274 189.716 41.7824C189.54 41.7374 189.356 41.7291 189.177 41.7582C188.998 41.7873 188.826 41.8531 188.674 41.9515C188.521 42.0498 188.39 42.1787 188.29 42.3299C188.233 42.418 188.186 42.5118 188.149 42.6098C186.52 42.005 184.756 41.8597 183.05 42.1899C181.306 42.4352 179.662 43.1468 178.29 44.2498C177.678 44.7031 177.203 45.3163 176.917 46.022C176.631 46.7277 176.546 47.4986 176.669 48.2498C176.808 49.113 177.227 49.9068 177.86 50.5098C178.543 51.1608 179.401 51.5986 180.33 51.7698C181.796 51.9907 183.284 52.0276 184.76 51.8798C186.236 51.7277 187.727 51.867 189.149 52.2899C189.536 52.3953 189.887 52.6065 190.16 52.8997C190.434 53.1929 190.621 53.5566 190.699 53.9499C190.712 54.3657 190.628 54.7789 190.455 55.157C190.281 55.5352 190.023 55.8681 189.699 56.1298C188.583 57.1138 187.182 57.7164 185.699 57.8499C184.589 58.0608 183.45 58.0608 182.34 57.8499C181.576 57.7056 180.865 57.3604 180.28 56.8499C180 56.5575 179.825 56.1816 179.78 55.7799C179.722 55.4109 179.525 55.0782 179.23 54.8499C179.087 54.7468 178.924 54.6732 178.753 54.6337C178.581 54.5942 178.403 54.5895 178.23 54.6198C178.047 54.6458 177.871 54.7111 177.716 54.8112C177.561 54.9113 177.429 55.044 177.33 55.1999C177.129 55.5662 177.075 55.9953 177.179 56.3998L177.699 59.6098C177.735 60.0334 177.932 60.4272 178.25 60.7099C178.475 60.8871 178.753 60.9823 179.04 60.9799H179.26C179.522 60.942 179.767 60.8231 179.959 60.6398C180.145 60.473 180.274 60.2529 180.33 60.0098C180.33 60.0098 180.33 60.0099 180.33 59.9499C182.19 60.6779 184.219 60.8617 186.179 60.4799C188.312 60.2707 190.309 59.3393 191.84 57.8399C192.397 57.2877 192.819 56.6139 193.072 55.8713C193.325 55.1287 193.403 54.3376 193.3 53.5599C193.136 52.5296 192.628 51.585 191.86 50.8798V50.8798Z" fill="#F29600"/>
<path d="M211.65 41.42C209.76 40.0789 207.417 39.5368 205.13 39.9111C202.842 40.2855 200.794 41.5462 199.43 43.42C198.504 44.7125 197.951 46.2349 197.832 47.8205C197.713 49.4062 198.032 50.994 198.755 52.4104C199.477 53.8268 200.576 55.0173 201.929 55.8514C203.283 56.6856 204.84 57.1313 206.43 57.14C206.946 57.1391 207.461 57.099 207.97 57.02C209.105 56.8478 210.193 56.4493 211.171 55.848C212.148 55.2467 212.995 54.455 213.66 53.52C214.331 52.5971 214.812 51.55 215.075 50.4396C215.338 49.3291 215.378 48.1775 215.192 47.0516C215.006 45.9257 214.598 44.848 213.991 43.8812C213.385 42.9144 212.593 42.0778 211.66 41.42H211.65ZM211.65 52.0701C210.671 53.4124 209.202 54.3143 207.562 54.5802C205.922 54.846 204.243 54.4542 202.89 53.49C202.226 53.0224 201.661 52.427 201.23 51.7386C200.798 51.0503 200.509 50.2828 200.377 49.4811C200.246 48.6793 200.276 47.8595 200.465 47.0694C200.655 46.2794 201 45.5351 201.48 44.88C201.953 44.2046 202.561 43.634 203.265 43.2038C203.968 42.7737 204.753 42.4932 205.57 42.38C205.943 42.3124 206.321 42.279 206.7 42.28C207.973 42.2813 209.213 42.6876 210.24 43.4401C210.911 43.898 211.481 44.4897 211.913 45.178C212.345 45.8663 212.63 46.6364 212.75 47.4401V47.4401C212.895 48.247 212.868 49.0753 212.671 49.8712C212.475 50.6671 212.113 51.4128 211.61 52.06L211.65 52.0701Z" fill="#F29600"/>
<path d="M233.019 37.93C231.129 36.5889 228.786 36.0468 226.499 36.4211C224.212 36.7955 222.164 38.0562 220.8 39.93C219.873 41.2226 219.32 42.7449 219.201 44.3306C219.082 45.9162 219.401 47.504 220.124 48.9204C220.847 50.3368 221.945 51.5273 223.299 52.3614C224.652 53.1956 226.209 53.6413 227.8 53.65C228.316 53.6509 228.831 53.6074 229.34 53.52C230.474 53.3518 231.563 52.9559 232.541 52.3562C233.519 51.7564 234.365 50.9652 235.029 50.03C235.701 49.1071 236.182 48.06 236.445 46.9496C236.708 45.8391 236.747 44.6875 236.561 43.5616C236.375 42.4357 235.967 41.358 235.361 40.3912C234.755 39.4244 233.962 38.5878 233.029 37.93H233.019ZM233.019 48.5801C232.036 49.9159 230.567 50.8128 228.929 51.0782C227.292 51.3437 225.615 50.9566 224.259 50C223.596 49.5315 223.033 48.9357 222.602 48.2473C222.172 47.5589 221.882 46.7917 221.751 45.9903C221.62 45.189 221.649 44.3696 221.838 43.5798C222.026 42.79 222.37 42.0456 222.85 41.39C223.323 40.7146 223.93 40.144 224.634 39.7139C225.338 39.2837 226.122 39.0032 226.939 38.89C227.312 38.8224 227.691 38.789 228.07 38.79C229.343 38.7913 230.583 39.1976 231.61 39.9501C232.273 40.4204 232.837 41.018 233.268 41.7081C233.699 42.3982 233.989 43.1671 234.12 43.9701C234.251 44.7731 234.221 45.5941 234.032 46.3855C233.844 47.1769 233.499 47.9229 233.019 48.5801V48.5801Z" fill="#F29600"/>
<path d="M258.84 45.9301C258.499 45.74 258.098 45.6863 257.719 45.78L256.979 45.9L255.559 37.2201C255.39 36.2427 254.934 35.3375 254.249 34.62C253.64 33.9132 252.863 33.3701 251.989 33.04C250.895 32.6861 249.731 32.6072 248.6 32.8101C247.567 32.9599 246.582 33.3429 245.719 33.9301C245.032 34.4311 244.419 35.027 243.899 35.7001L243.64 34.15L240.459 34.6701C240.075 34.7119 239.719 34.8934 239.459 35.1801C239.346 35.3175 239.265 35.4789 239.224 35.6522C239.182 35.8255 239.181 36.0061 239.219 36.1801C239.243 36.3496 239.303 36.5122 239.394 36.657C239.486 36.8018 239.607 36.9255 239.749 37.02C240.091 37.2191 240.496 37.2766 240.88 37.1801L241.62 37.0601L243.439 48.1701L242.279 48.3501C241.897 48.3902 241.541 48.5679 241.279 48.8501C241.176 48.9844 241.101 49.1383 241.059 49.3025C241.017 49.4667 241.009 49.6376 241.036 49.8051C241.062 49.9725 241.122 50.1328 241.212 50.2764C241.302 50.4199 241.42 50.5436 241.559 50.64C241.783 50.7728 242.04 50.8388 242.299 50.8301H242.699L247.449 50.0501C247.837 50.0113 248.195 49.8251 248.449 49.53C248.552 49.3984 248.627 49.247 248.668 49.0852C248.709 48.9234 248.716 48.7549 248.689 48.5901C248.665 48.4209 248.604 48.2589 248.511 48.1156C248.417 47.9723 248.294 47.851 248.149 47.76C247.808 47.5699 247.408 47.5163 247.029 47.61L245.87 47.8001L244.489 39.3301C245.105 38.1879 245.891 37.1459 246.819 36.24C247.458 35.7608 248.208 35.4544 248.999 35.3501C249.971 35.1358 250.987 35.3118 251.83 35.8401C252.19 36.0737 252.497 36.3821 252.728 36.7444C252.959 37.1067 253.109 37.5145 253.169 37.9401L254.549 46.38L253.819 46.5C253.437 46.541 253.082 46.7185 252.819 47C252.704 47.1361 252.621 47.2972 252.577 47.4707C252.534 47.6442 252.531 47.8253 252.569 48C252.595 48.1664 252.655 48.3256 252.747 48.4669C252.838 48.6083 252.958 48.7286 253.1 48.8201C253.448 49.0204 253.86 49.0778 254.249 48.9801L258.159 48.3401C258.546 48.307 258.905 48.124 259.159 47.8301C259.274 47.6931 259.355 47.5316 259.396 47.3582C259.438 47.1847 259.439 47.004 259.399 46.8301C259.385 46.6462 259.327 46.4683 259.229 46.3117C259.132 46.155 258.998 46.0242 258.84 45.9301V45.9301Z" fill="#F29600"/>
<path d="M182.66 110.04C183.05 109.62 183.94 108.83 185.32 107.67C186.575 106.646 187.764 105.544 188.88 104.37C189.508 103.688 190.024 102.912 190.41 102.07C190.713 101.373 190.87 100.62 190.87 99.8599C190.886 99.1631 190.754 98.471 190.481 97.8295C190.209 97.188 189.803 96.6119 189.29 96.1399C188.121 95.0951 186.585 94.5557 185.02 94.6399C183.474 94.5621 181.954 95.057 180.75 96.0299C179.63 97.086 178.972 98.5416 178.92 100.08L181.29 100.32C181.263 99.8148 181.337 99.3093 181.509 98.8335C181.681 98.3577 181.946 97.9212 182.29 97.5499C182.643 97.2124 183.06 96.9498 183.518 96.778C183.975 96.6061 184.462 96.5286 184.95 96.5499C185.417 96.5307 185.884 96.6037 186.323 96.765C186.762 96.9263 187.166 97.1726 187.51 97.4899C187.83 97.7847 188.085 98.1437 188.257 98.5435C188.429 98.9432 188.515 99.3747 188.51 99.8099C188.455 100.825 188.077 101.796 187.43 102.58C186.209 104.066 184.824 105.408 183.3 106.58C182.218 107.436 181.214 108.387 180.3 109.42C179.651 110.158 179.137 111.004 178.78 111.92C178.59 112.432 178.498 112.974 178.51 113.52H190.93V111.31H181.72C181.985 110.853 182.3 110.427 182.66 110.04Z" fill="#F29600"/>
<path d="M204.019 97.0099C203.55 96.2716 202.899 95.6658 202.13 95.2499C201.31 94.8319 200.399 94.6224 199.479 94.6399C198.25 94.5936 197.045 94.9872 196.079 95.7499C195.129 96.5817 194.435 97.6675 194.079 98.8799C193.575 100.62 193.345 102.429 193.399 104.24C193.399 107.767 194.019 110.31 195.259 111.87C196.2 112.946 197.51 113.629 198.931 113.785C200.351 113.941 201.778 113.557 202.929 112.71C203.881 111.875 204.575 110.786 204.929 109.57C205.429 107.839 205.655 106.041 205.6 104.24C205.637 102.748 205.496 101.258 205.179 99.7999C204.945 98.8135 204.554 97.8713 204.019 97.0099V97.0099ZM202.149 110.39C201.877 110.857 201.488 111.244 201.019 111.514C200.551 111.783 200.02 111.925 199.479 111.925C198.939 111.925 198.408 111.783 197.94 111.514C197.471 111.244 197.081 110.857 196.809 110.39C196.089 109.37 195.729 107.32 195.729 104.24C195.729 101.16 196.129 99.0399 196.919 97.8999C197.196 97.4801 197.573 97.1365 198.017 96.9006C198.461 96.6648 198.957 96.5442 199.459 96.5499C200 96.5576 200.531 96.7019 201.001 96.9694C201.471 97.2369 201.866 97.6189 202.149 98.08C202.869 99.08 203.229 101.15 203.229 104.24C203.229 107.33 202.879 109.36 202.159 110.42L202.149 110.39Z" fill="#F29600"/>
<path d="M211.84 110.04C212.226 109.62 213.116 108.83 214.509 107.67C215.762 106.647 216.948 105.544 218.06 104.37C218.687 103.689 219.204 102.912 219.59 102.07C219.893 101.373 220.049 100.62 220.05 99.86C220.065 99.1643 219.933 98.4731 219.663 97.8319C219.392 97.1908 218.989 96.6142 218.479 96.14C217.304 95.0993 215.767 94.5608 214.199 94.64C212.654 94.5622 211.133 95.0571 209.929 96.0301C208.809 97.0861 208.152 98.5417 208.1 100.08L210.469 100.32C210.445 99.8152 210.52 99.3104 210.692 98.8349C210.864 98.3594 211.128 97.9227 211.469 97.5501C211.825 97.2128 212.244 96.9504 212.703 96.7786C213.162 96.6068 213.65 96.5291 214.14 96.5501C214.606 96.5316 215.07 96.6051 215.508 96.7664C215.946 96.9277 216.347 97.1735 216.689 97.49C217.011 97.7837 217.267 98.1424 217.439 98.5424C217.612 98.9424 217.697 99.3746 217.689 99.8101C217.635 100.823 217.26 101.793 216.62 102.58C215.392 104.063 214.004 105.405 212.479 106.58C211.398 107.436 210.394 108.387 209.479 109.42C208.835 110.161 208.32 111.006 207.959 111.92C207.77 112.432 207.678 112.974 207.689 113.52H220.11V111.31H210.899C211.165 110.853 211.48 110.427 211.84 110.04Z" fill="#F29600"/>
<path d="M226.43 110.04C226.823 109.62 227.713 108.83 229.1 107.67C230.352 106.647 231.538 105.544 232.65 104.37C233.277 103.689 233.794 102.912 234.18 102.07C234.483 101.373 234.64 100.62 234.64 99.86C234.656 99.1643 234.524 98.4731 234.253 97.8319C233.983 97.1908 233.579 96.6142 233.07 96.14C231.894 95.0993 230.358 94.5608 228.79 94.64C227.244 94.5622 225.724 95.0571 224.52 96.0301C223.4 97.0861 222.742 98.5417 222.69 100.08L225.06 100.32C225.035 99.8152 225.111 99.3104 225.282 98.8349C225.454 98.3594 225.718 97.9227 226.06 97.5501C226.415 97.2128 226.834 96.9504 227.293 96.7786C227.752 96.6068 228.24 96.5291 228.73 96.5501C229.196 96.5316 229.661 96.6051 230.098 96.7664C230.536 96.9277 230.937 97.1735 231.28 97.49C231.602 97.7837 231.857 98.1424 232.03 98.5424C232.202 98.9424 232.287 99.3746 232.28 99.8101C232.225 100.823 231.85 101.793 231.21 102.58C229.982 104.063 228.594 105.405 227.07 106.58C225.988 107.436 224.984 108.387 224.07 109.42C223.425 110.161 222.911 111.006 222.55 111.92C222.359 112.431 222.27 112.975 222.29 113.52H234.7V111.31H225.49C225.755 110.853 226.07 110.427 226.43 110.04Z" fill="#F29600"/>
<path d="M236.06 113.83H237.91L243.34 94.3999H241.5L236.06 113.83Z" fill="#F29600"/>
<path d="M255.09 97.0099C254.624 96.272 253.976 95.666 253.209 95.2499C252.386 94.8318 251.473 94.6224 250.549 94.6399C249.32 94.5953 248.115 94.9887 247.149 95.7499C246.195 96.5787 245.501 97.6656 245.149 98.8799C244.636 100.619 244.403 102.428 244.459 104.24C244.459 107.767 245.079 110.31 246.319 111.87C246.819 112.518 247.466 113.038 248.207 113.386C248.948 113.734 249.761 113.9 250.58 113.87C251.815 113.917 253.027 113.524 253.999 112.76C254.952 111.925 255.646 110.836 255.999 109.62C256.503 107.89 256.732 106.091 256.679 104.29C256.717 102.798 256.576 101.308 256.259 99.85C256.023 98.8471 255.628 97.8882 255.09 97.0099ZM253.229 110.39C252.947 110.85 252.554 111.231 252.085 111.498C251.617 111.765 251.089 111.911 250.549 111.92C250.011 111.913 249.483 111.768 249.016 111.501C248.549 111.233 248.158 110.851 247.88 110.39C247.16 109.37 246.799 107.32 246.799 104.24C246.799 101.16 247.199 99.0399 247.989 97.8999C248.266 97.4801 248.643 97.1365 249.087 96.9006C249.531 96.6647 250.027 96.5442 250.529 96.5499C251.072 96.5577 251.603 96.702 252.075 96.9693C252.547 97.2367 252.944 97.6187 253.229 98.0799C253.949 99.0799 254.309 101.15 254.309 104.24C254.309 107.33 253.949 109.36 253.229 110.42V110.39Z" fill="#F29600"/>
<path d="M259.18 97.1799H268.37C267.084 98.6855 265.973 100.333 265.06 102.09C264.033 104.011 263.23 106.045 262.67 108.15C262.174 109.894 261.882 111.689 261.8 113.5H264.17C264.275 111.752 264.574 110.022 265.06 108.34C265.712 106.072 266.625 103.888 267.78 101.83C268.753 100.002 269.945 98.2998 271.33 96.7599V94.96H259.18V97.1799Z" fill="#F29600"/>
<path d="M272.53 113.83H274.38L279.82 94.3999H277.97L272.53 113.83Z" fill="#F29600"/>
<path d="M291.56 97.0099C291.098 96.2691 290.449 95.6623 289.68 95.2499C288.86 94.8331 287.95 94.6236 287.03 94.6399C285.801 94.5936 284.595 94.9872 283.63 95.7499C282.676 96.5791 281.982 97.6659 281.63 98.8799C281.117 100.619 280.884 102.428 280.94 104.24C280.94 107.767 281.56 110.31 282.8 111.87C283.742 112.947 285.054 113.63 286.476 113.786C287.898 113.942 289.327 113.558 290.48 112.71C291.432 111.875 292.126 110.786 292.48 109.57C292.983 107.84 293.213 106.041 293.16 104.24C293.197 102.748 293.056 101.258 292.74 99.7999C292.5 98.8123 292.101 97.8701 291.56 97.0099V97.0099ZM289.7 110.39C289.427 110.857 289.036 111.244 288.567 111.513C288.097 111.782 287.566 111.923 287.025 111.923C286.484 111.923 285.953 111.782 285.483 111.513C285.014 111.244 284.623 110.857 284.35 110.39C283.63 109.37 283.27 107.32 283.27 104.24C283.27 101.16 283.67 99.0399 284.46 97.8999C284.736 97.4801 285.114 97.1365 285.558 96.9006C286.001 96.6648 286.497 96.5442 287 96.5499C287.543 96.5559 288.075 96.6994 288.547 96.9669C289.019 97.2345 289.416 97.6175 289.7 98.08C290.42 99.08 290.78 101.15 290.78 104.24C290.78 107.33 290.42 109.36 289.7 110.42V110.39Z" fill="#F29600"/>
<path d="M306.939 105.14C306.286 104.262 305.362 103.622 304.31 103.32C305.139 103.043 305.865 102.519 306.39 101.82C306.853 101.155 307.091 100.36 307.07 99.5499C307.08 98.8977 306.952 98.2506 306.695 97.651C306.439 97.0514 306.059 96.5127 305.58 96.0699C304.471 95.1547 303.078 94.6541 301.64 94.6541C300.202 94.6541 298.808 95.1547 297.699 96.0699C297.222 96.5074 296.844 97.0412 296.589 97.636C296.334 98.2307 296.208 98.8728 296.219 99.5199C296.196 100.352 296.442 101.169 296.919 101.85C297.456 102.555 298.196 103.078 299.039 103.35C297.993 103.59 297.061 104.184 296.399 105.03C295.761 105.923 295.434 107.002 295.469 108.1C295.451 108.864 295.592 109.624 295.885 110.33C296.178 111.036 296.615 111.673 297.169 112.2C298.425 113.269 300.02 113.857 301.669 113.857C303.319 113.857 304.914 113.269 306.169 112.2C306.714 111.687 307.146 111.067 307.439 110.378C307.732 109.69 307.878 108.948 307.87 108.2C307.903 107.106 307.576 106.031 306.939 105.14ZM298.58 99.4099C298.577 99.0344 298.654 98.6625 298.804 98.3181C298.953 97.9737 299.173 97.6644 299.449 97.4099C299.738 97.1282 300.081 96.9077 300.458 96.7616C300.834 96.6155 301.236 96.547 301.64 96.5599C302.044 96.5483 302.446 96.6184 302.822 96.7662C303.199 96.914 303.541 97.1364 303.83 97.4199C304.113 97.698 304.337 98.0314 304.487 98.3995C304.636 98.7677 304.709 99.1627 304.699 99.5599C304.708 99.9419 304.637 100.321 304.49 100.674C304.344 101.027 304.126 101.346 303.85 101.61C303.561 101.889 303.219 102.107 302.845 102.251C302.47 102.395 302.07 102.463 301.669 102.45C301.26 102.47 300.851 102.405 300.467 102.261C300.084 102.116 299.734 101.895 299.439 101.61C299.156 101.322 298.934 100.979 298.786 100.603C298.638 100.226 298.568 99.8241 298.58 99.4199V99.4099ZM304.409 110.86C304.05 111.212 303.623 111.488 303.153 111.67C302.684 111.852 302.182 111.937 301.679 111.92C300.98 111.931 300.291 111.758 299.679 111.42C299.078 111.101 298.592 110.6 298.289 109.99C297.979 109.401 297.817 108.746 297.82 108.08C297.806 107.582 297.894 107.087 298.078 106.625C298.262 106.162 298.538 105.742 298.89 105.391C299.242 105.039 299.662 104.762 300.124 104.578C300.587 104.394 301.082 104.306 301.58 104.32C302.092 104.305 302.601 104.393 303.079 104.578C303.556 104.764 303.992 105.043 304.36 105.4C304.725 105.759 305.011 106.189 305.202 106.664C305.393 107.139 305.484 107.648 305.469 108.16C305.488 108.659 305.403 109.156 305.221 109.62C305.039 110.085 304.762 110.507 304.409 110.86V110.86Z" fill="#F29600"/>
</g>
<defs>
<clipPath id="clip0_2553_10305">
<rect width="307.85" height="113.83" fill="white"/>
</clipPath>
</defs>
</svg>
