<svg width="45" height="45" viewBox="0 0 45 45" fill="none" xmlns="http://www.w3.org/2000/svg">
<path fill-rule="evenodd" clip-rule="evenodd" d="M11.2983 35.5098L10.7019 35.3779C10.5571 35.3479 10.4209 35.3119 10.2934 35.2699C10.1659 35.2259 10.0535 35.175 9.9563 35.117C9.85905 35.057 9.78233 34.9861 9.72614 34.9041C9.67212 34.8222 9.64726 34.7262 9.65159 34.6163C9.65159 34.4844 9.69265 34.3664 9.77477 34.2625C9.85905 34.1586 9.98007 34.0776 10.1378 34.0196C10.2956 33.9597 10.489 33.9297 10.7181 33.9297C11.0552 33.9297 11.3221 33.9967 11.5188 34.1306C11.7154 34.2645 11.8267 34.4524 11.8527 34.6943H13.1979C13.1924 34.3805 13.1137 34.099 12.9618 33.8499C12.9366 33.8087 12.9094 33.7683 12.8803 33.7288C12.675 33.451 12.3875 33.2341 12.018 33.0782C11.6506 32.9223 11.2205 32.8443 10.7278 32.8443C10.2437 32.8443 9.81151 32.9223 9.43115 33.0782C9.0508 33.2341 8.75149 33.451 8.53322 33.7288C8.31711 34.0066 8.21014 34.3315 8.2123 34.7032C8.21014 35.157 8.37114 35.5178 8.6953 35.7856C8.95767 36.0024 9.29719 36.1727 9.71387 36.2965C9.81201 36.3257 9.91443 36.3523 10.0211 36.3763L10.744 36.5442C10.9861 36.5982 11.1903 36.6581 11.3567 36.7241C11.5253 36.79 11.6528 36.87 11.7392 36.9639C11.8278 37.0579 11.8721 37.1738 11.8721 37.3117C11.8721 37.4597 11.8235 37.5906 11.7262 37.7045C11.629 37.8185 11.4918 37.9074 11.3145 37.9714C11.1395 38.0353 10.9331 38.0673 10.6954 38.0673C10.4534 38.0673 10.2362 38.0333 10.0438 37.9654C9.85365 37.8954 9.70129 37.7925 9.58675 37.6565C9.47438 37.5186 9.41062 37.3467 9.3955 37.1408H8.03725C8.04503 37.4591 8.10723 37.7406 8.22383 37.9852C8.26907 38.0801 8.32249 38.1694 8.3841 38.2532C8.6067 38.551 8.91573 38.7759 9.31121 38.9278C9.70885 39.0797 10.1757 39.1557 10.7116 39.1557C11.2519 39.1557 11.7133 39.0807 12.0958 38.9308C12.4805 38.7789 12.7744 38.566 12.9775 38.2922C13.1828 38.0163 13.2865 37.6905 13.2887 37.3147C13.2865 37.0589 13.2358 36.832 13.1363 36.6341C13.0391 36.4362 12.9019 36.2643 12.7247 36.1184C12.5475 35.9725 12.3378 35.8496 12.0958 35.7496C11.8906 35.6649 11.6683 35.5946 11.429 35.5386C11.386 35.5285 11.3424 35.5189 11.2983 35.5098ZM13.32 39.2033C13.0686 39.4137 12.7759 39.5803 12.4542 39.7073L12.4519 39.7082C11.9284 39.9134 11.3391 40 10.7116 40C10.0845 40 9.49441 39.9113 8.96272 39.7082L8.9611 39.7076C8.4195 39.4995 7.96482 39.177 7.63321 38.7333L7.62922 38.728C7.29006 38.2667 7.13855 37.7286 7.12464 37.1599L7.10352 36.2965H7.95396C7.50274 35.8621 7.29752 35.3065 7.29944 34.7037C7.29717 34.1712 7.45442 33.67 7.79221 33.2357L7.79473 33.2325C8.11848 32.8204 8.55206 32.515 9.06129 32.3063C9.57563 32.0954 10.137 32 10.7278 32C11.3234 32 11.888 32.0942 12.3977 32.3104C12.7471 32.4579 13.0585 32.6531 13.32 32.8992V32.084H16.5493V37.154H18.259C18.167 36.7882 18.1241 36.4014 18.1241 35.9985C18.1241 35.2247 18.2815 34.5105 18.6409 33.8905C18.9885 33.2908 19.477 32.8123 20.1057 32.4823C20.7248 32.1554 21.4125 32 22.1457 32C22.8755 32 23.5605 32.1558 24.1783 32.4819C24.4136 32.6049 24.6293 32.7485 24.8254 32.9115V32.084H32.1035V34.843H30.071V39.9131H26.8579V34.843H26.032C26.1243 35.2087 26.1673 35.5955 26.1673 35.9985C26.1673 36.7728 26.0086 37.4875 25.6465 38.1077C25.2983 38.7078 24.8087 39.1865 24.1789 39.5178L24.1777 39.5184C23.5598 39.8424 22.8751 39.997 22.1457 39.997C21.4119 39.997 20.7238 39.8413 20.1044 39.514C19.844 39.3764 19.6077 39.2135 19.3955 39.0271V39.9131H13.32V39.2033ZM19.3955 37.6144C19.4116 37.6448 19.4282 37.6749 19.4454 37.7045C19.7177 38.1743 20.0883 38.533 20.5573 38.7809C21.0262 39.0288 21.5557 39.1527 22.1457 39.1527C22.7313 39.1527 23.2586 39.0298 23.7276 38.7839C24.1987 38.536 24.5704 38.1772 24.8427 37.7075C25.1172 37.2378 25.2544 36.6681 25.2544 35.9985C25.2544 35.573 25.199 35.1878 25.0881 34.843C25.0246 34.6452 24.9428 34.4607 24.8427 34.2895C24.837 34.2796 24.8312 34.2697 24.8254 34.2599C24.5547 33.8047 24.1888 33.4568 23.7276 33.2161C23.2586 32.9682 22.7313 32.8443 22.1457 32.8443C21.5557 32.8443 21.0262 32.9682 20.5573 33.2161C20.0883 33.462 19.7177 33.8198 19.4454 34.2895C19.1731 34.7592 19.0369 35.3289 19.0369 35.9985C19.0369 36.4238 19.0922 36.809 19.2027 37.154C19.2547 37.3164 19.319 37.4698 19.3955 37.6144ZM23.6206 37.0959C23.7611 36.798 23.8313 36.4323 23.8313 35.9985C23.8313 35.5648 23.7611 35.199 23.6206 34.9011C23.4823 34.6033 23.2867 34.3774 23.0339 34.2235C22.781 34.0696 22.485 33.9927 22.1457 33.9927C21.8064 33.9927 21.5103 34.0696 21.2575 34.2235C21.0046 34.3774 20.808 34.6033 20.6675 34.9011C20.5292 35.199 20.46 35.5648 20.46 35.9985C20.46 36.4323 20.5292 36.798 20.6675 37.0959C20.808 37.3937 21.0046 37.6196 21.2575 37.7735C21.5103 37.9274 21.8064 38.0043 22.1457 38.0043C22.485 38.0043 22.781 37.9274 23.0339 37.7735C23.2867 37.6196 23.4823 37.3937 23.6206 37.0959ZM21.5052 36.7605C21.5863 36.9315 21.6771 37.0182 21.7593 37.0682C21.8455 37.1207 21.9624 37.16 22.1457 37.16C22.3289 37.16 22.4458 37.1207 22.5321 37.0682C22.6132 37.0188 22.7027 36.9332 22.7819 36.7627L22.7839 36.7583C22.8604 36.5962 22.9185 36.3529 22.9185 35.9985C22.9185 35.6441 22.8604 35.4008 22.7839 35.2387L22.7819 35.2344C22.7027 35.0638 22.6132 34.9782 22.5321 34.9288C22.4458 34.8763 22.3289 34.837 22.1457 34.837C21.9624 34.837 21.8455 34.8763 21.7593 34.9288C21.6771 34.9788 21.5863 35.0655 21.5052 35.2365C21.4298 35.3999 21.3729 35.6443 21.3729 35.9985C21.3729 36.3528 21.4298 36.5971 21.5052 36.7605ZM27.7707 33.9987V39.0687H29.1582V33.9987H31.1907V32.9283H25.7382V33.9987H27.7707ZM15.6365 37.9984V32.9283H14.2328V39.0687H18.4826V37.9984H15.6365Z" fill="#454545"/>
<path fill-rule="evenodd" clip-rule="evenodd" d="M32.8252 32C32.9444 31.5454 33.008 31.0696 33.0087 30.5799V12.8007C33.0087 9.60076 30.3213 7 27.025 7H12.9837C9.68282 7 7 9.60076 7 12.8007V30.5799C7 31.0696 7.06302 31.5454 7.18162 32H9.0982C8.92572 31.5582 8.83127 31.0795 8.83127 30.5799V12.8007C8.83127 10.5816 10.6946 8.77526 12.9837 8.77526H27.025C29.3141 8.77526 31.1774 10.5816 31.1774 12.8007V30.5799C31.1774 31.0795 31.083 31.5582 30.9105 32H32.8252Z" fill="#454545"/>
<path d="M33.0041 27.4999H7V12.8318H33.0041V27.4999ZM8.83128 25.7246H31.1728V14.607H8.83128V25.7246Z" fill="#454545"/>
<path d="M16.8889 27.4999H7V12.8318H16.8889V27.4999ZM8.83127 25.7246H15.0576V14.607H8.83127V25.7246Z" fill="#454545"/>
<path d="M33.0042 27.4999H23.1152V12.8318H33.0042V27.4999ZM24.9465 25.7246H31.1729V14.607H24.9465V25.7246Z" fill="#454545"/>
<path d="M24.9465 27.4999H15.0576V12.8318H24.9465V27.4999ZM16.8889 25.7246H23.1152V14.607H16.8889V25.7246Z" fill="#454545"/>
<path d="M9.27539 17.949C9.27539 17.8203 9.38527 17.7138 9.51346 17.7138C9.64622 17.7138 9.75152 17.8203 9.75152 17.949V18.0999L9.95296 17.9579C10.5252 17.5496 11.0151 17.3099 11.5141 17.301C12.0223 17.2921 12.5076 17.5274 13.0478 18.0733L13.1348 18.162L13.7758 17.5451L13.7895 17.5362C13.8811 17.4386 14.0321 17.4386 14.1237 17.5362L14.4488 17.8558V17.8602C14.5357 17.9446 14.5449 18.0866 14.4579 18.1842C14.1786 18.4993 13.904 18.8455 13.6476 19.205C13.3729 19.5911 13.1165 19.9817 12.9013 20.3589C12.6816 20.7317 12.5305 21.1888 12.4389 21.6682C12.3474 22.1697 12.3245 22.6978 12.3748 23.1727C12.3794 23.1905 12.3794 23.1993 12.3794 23.2126C12.3794 23.3458 12.2695 23.4523 12.1413 23.4523H10.2551H10.2368C10.1086 23.4434 10.0079 23.328 10.0171 23.1993C10.04 22.8975 10.0903 22.5514 10.1773 22.2318C10.246 21.9567 10.3467 21.6992 10.4703 21.4995C10.7999 20.9714 11.2074 20.5098 11.6194 20.0527C11.7293 19.9329 11.8346 19.8086 11.9445 19.6843C11.45 19.7953 10.8732 19.8885 10.6351 19.7331C10.5252 19.6621 10.4108 19.6266 10.2918 19.6222H10.2826C10.1361 19.6133 9.98959 19.6444 9.83851 19.7021L9.82477 19.7065L9.75152 19.7376V19.8707C9.75152 20.0039 9.64165 20.1059 9.51346 20.1059C9.38527 20.1059 9.27539 19.9994 9.27539 19.8707V17.949Z" fill="#454545"/>
<path d="M17.3604 17.949C17.3604 17.8203 17.4702 17.7138 17.5984 17.7138C17.7312 17.7138 17.8365 17.8203 17.8365 17.949V18.0999L18.0379 17.9579C18.6102 17.5496 19.1001 17.3099 19.5991 17.301C20.1073 17.2921 20.5926 17.5274 21.1328 18.0733L21.2198 18.162L21.8607 17.5451L21.8745 17.5362C21.966 17.4386 22.1171 17.4386 22.2087 17.5362L22.5337 17.8558V17.8602C22.6207 17.9446 22.6299 18.0866 22.5429 18.1842C22.2636 18.4993 21.9889 18.8455 21.7325 19.205C21.4578 19.5911 21.2015 19.9817 20.9863 20.3589C20.7665 20.7317 20.6155 21.1888 20.5239 21.6682C20.4323 22.1697 20.4094 22.6978 20.4598 23.1727C20.4644 23.1905 20.4644 23.1993 20.4644 23.2126C20.4644 23.3458 20.3545 23.4523 20.2263 23.4523H18.3447H18.3264C18.1982 23.4434 18.0974 23.328 18.1066 23.1993C18.1295 22.8975 18.1798 22.5514 18.2668 22.2318C18.3355 21.9567 18.4362 21.6992 18.5598 21.4995C18.8895 20.9714 19.2969 20.5098 19.709 20.0527C19.8188 19.9329 19.9241 19.8086 20.034 19.6843C19.5396 19.7953 18.9627 19.8885 18.7247 19.7331C18.6148 19.6621 18.5003 19.6266 18.3813 19.6222H18.3767C18.2302 19.6133 18.0837 19.6444 17.9326 19.7021L17.9189 19.7065L17.8411 19.7376V19.8707C17.8411 20.0039 17.7312 20.1059 17.603 20.1059C17.4748 20.1059 17.3649 19.9994 17.3649 19.8707V17.949H17.3604Z" fill="#454545"/>
<path d="M25.4414 17.949C25.4414 17.8203 25.5513 17.7138 25.6795 17.7138C25.8122 17.7138 25.9175 17.8203 25.9175 17.949V18.0999L26.119 17.9579C26.6913 17.5496 27.1811 17.3099 27.6801 17.301C28.1883 17.2921 28.6736 17.5274 29.2138 18.0733L29.3008 18.162L29.9418 17.5451L29.9555 17.5362C30.0471 17.4386 30.1982 17.4386 30.2897 17.5362L30.6148 17.8558V17.8602C30.7018 17.9446 30.7109 18.0866 30.6239 18.1842C30.3447 18.4993 30.07 18.8455 29.8136 19.205C29.5389 19.5911 29.2825 19.9817 29.0673 20.3589C28.8476 20.7317 28.6965 21.1888 28.6049 21.6682C28.5134 22.1697 28.4905 22.6978 28.5408 23.1727C28.5454 23.1905 28.5454 23.1993 28.5454 23.2126C28.5454 23.3458 28.4355 23.4523 28.3074 23.4523H26.4257H26.4074C26.2792 23.4434 26.1785 23.328 26.1877 23.1993C26.2105 22.8975 26.2609 22.5514 26.3479 22.2318C26.4166 21.9567 26.5173 21.6992 26.6409 21.4995C26.9705 20.9714 27.378 20.5098 27.79 20.0527C27.8999 19.9329 28.0052 19.8086 28.1151 19.6843C27.6206 19.7953 27.0438 19.8885 26.8057 19.7331C26.6958 19.6621 26.5814 19.6266 26.4623 19.6222H26.4578C26.3113 19.6133 26.1648 19.6444 26.0137 19.7021L25.9999 19.7065L25.9221 19.7376V19.8707C25.9221 20.0039 25.8122 20.1059 25.6841 20.1059C25.5559 20.1059 25.446 19.9994 25.446 19.8707V17.949H25.4414Z" fill="#454545"/>
<path d="M38.3472 29.0221H32.0889V27.2468H36.516V19.4978H38.3472V29.0221Z" fill="#454545"/>
<path d="M37.4316 20.1901C35.0005 20.1901 33.0273 18.2728 33.0273 15.9206C33.0273 13.5684 35.0051 11.6511 37.4316 11.6511C39.858 11.6511 41.8358 13.5684 41.8358 15.9206C41.8358 18.2728 39.8626 20.1901 37.4316 20.1901ZM37.4316 13.4219C36.0123 13.4219 34.8586 14.5404 34.8586 15.9162C34.8586 17.292 36.0123 18.4104 37.4316 18.4104C38.8508 18.4104 40.0045 17.292 40.0045 15.9162C40.0045 14.5404 38.8508 13.4219 37.4316 13.4219Z" fill="#454545"/>
</svg>
