<svg width="45" height="45" viewBox="0 0 45 45" fill="none" xmlns="http://www.w3.org/2000/svg">
<path d="M27.0904 19.2135C26.6799 19.2135 26.3486 19.5454 26.3486 19.9566V23.6821C26.3486 24.0932 26.6799 24.4252 27.0904 24.4252C27.5008 24.4252 27.8321 24.0932 27.8321 23.6821V19.9566C27.8321 19.5454 27.5008 19.2135 27.0904 19.2135Z" fill="#454545"/>
<path d="M23.7135 23.8604C23.3673 23.8604 23.0805 24.0981 22.9964 24.4152C22.8926 24.4697 22.6701 24.544 22.3536 24.544C22.0371 24.544 21.8146 24.4697 21.7107 24.4152C21.6267 24.0981 21.3399 23.8604 20.9937 23.8604C20.5833 23.8604 20.252 24.1923 20.252 24.6035C20.252 25.4308 21.1371 26.0302 22.3536 26.0302C23.57 26.0302 24.4552 25.4308 24.4552 24.6035C24.4552 24.1923 24.1189 23.8604 23.7135 23.8604Z" fill="#454545"/>
<path d="M38.3304 20.4817C38.3304 18.7429 37.2029 17.2665 35.6403 16.7464C35.7639 15.4137 35.5068 11.931 30.5074 8.49786C30.5025 8.49786 30.5025 8.4929 30.4975 8.4929C30.4926 8.4929 30.4926 8.48795 30.4876 8.483C30.181 8.28483 22.9663 3.7271 16.6614 7.47237C16.2164 7.61604 14.4807 8.24025 12.7203 9.88995C11.3406 11.183 9.74831 13.3281 8.98678 16.6621C7.27086 17.0882 6 18.6339 6 20.4817C6 22.1364 7.02361 23.5532 8.4725 24.1378C8.46261 30.0332 9.12524 33.4663 12.6757 35.1656V37.8556V39H13.818H17.2746H17.324H18.4169H18.4663H19.4553H20.5976V38.9356V37.8507V36.3149V35.3637V35.2547L20.6372 35.3637L21.3789 37.4444L21.6608 38.2321L21.9081 38.9306L21.9328 38.995H22.7388H23.797H24.6031L24.6278 38.9306L24.8751 38.2321L26.0075 35.0714V36.1663V37.4444V37.8457V38.9306V38.995H27.1498H30.8832H32.0255V37.8507V37.0233V35.8789H31.7486V35.6857V34.9129H31.9316V34.7346C32.4112 34.4869 32.8563 34.2144 33.2568 33.9171C34.6563 32.8619 35.4623 31.5293 35.6551 29.9539C35.7244 29.3792 35.7887 28.8789 35.848 28.428C36.12 26.3077 36.2387 25.3268 36.204 23.9793C37.465 23.3204 38.3304 22.0026 38.3304 20.4817ZM34.1766 16.459C27.8915 17.4053 25.424 14.8886 24.702 13.878C26.6404 11.713 29.0931 10.4002 30.008 9.95931C33.9293 12.7831 34.231 15.4335 34.1766 16.459ZM8.48733 22.4534C7.88404 22.0076 7.4835 21.2892 7.4835 20.4817C7.4835 19.59 7.96811 18.8122 8.68019 18.3812C9.04612 18.1583 9.47139 18.0245 9.93127 18.0245C10.0796 18.0245 10.1686 18.0394 10.223 18.0493C10.228 18.0493 10.2379 18.0493 10.2379 18.0542C10.2527 18.2276 10.1835 18.6091 10.134 18.9014C10.1192 18.9806 10.1043 19.0698 10.0895 19.159C10.0252 19.5504 9.956 20.0061 9.956 20.4867C9.956 20.7146 9.97083 20.9325 9.99556 21.1456C10.0302 21.4824 10.0846 21.7995 10.134 22.072C10.1835 22.3593 10.2527 22.7457 10.2379 22.9191C10.1884 22.929 10.0994 22.9439 9.96094 22.9439C9.95105 22.9439 9.94611 22.9439 9.93127 22.9439C9.39227 22.934 8.89777 22.7507 8.48733 22.4534ZM17.2746 37.4494V37.8507H15.6032H13.823V35.6114V34.036V32.9759H14.812V34.358V35.8938V37.0233H15.6477H17.1411H17.2795V37.4494H17.2746ZM17.324 31.7918V32.7678V32.9362V35.8789H17.2746H15.9543V34.6157V32.9759V31.8315H14.812H13.823H12.6757V32.9759V33.4515C10.4505 32.0049 9.95105 29.3346 9.95105 24.4202C10.6186 24.4152 11.0884 24.2419 11.395 23.8753C11.8697 23.3105 11.7362 22.5773 11.6027 21.7995C11.5285 21.3735 11.4494 20.9325 11.4494 20.4768C11.4494 20.021 11.5285 19.5801 11.6027 19.154C11.7411 18.3763 11.8697 17.6431 11.395 17.0783C11.1873 16.8306 10.8955 16.677 10.5197 16.5977C12.1021 10.3705 16.9186 8.93382 17.1559 8.86941C17.2202 8.8496 17.2845 8.82483 17.3438 8.79015C21.468 6.2933 26.2695 8.02227 28.4701 9.07748C26.6404 10.0832 23.3965 12.2431 21.6855 15.6515C20.9883 17.0436 19.4356 17.8808 17.7938 18.7676C15.2966 20.1151 12.3296 21.7202 12.0181 25.847C12.0131 25.9114 12.0082 25.9807 12.0082 26.0501C11.9488 27.1846 12.0774 28.4974 12.473 30.048C12.5571 30.3849 12.8587 30.6078 13.19 30.6078C13.2494 30.6078 13.3137 30.6029 13.373 30.5831C13.7686 30.484 14.0109 30.0777 13.9071 29.6814C13.7933 29.2306 13.7093 28.8145 13.64 28.4082C15.0296 29.8994 16.7801 31.0091 18.7086 31.6333C18.6246 31.6829 18.5504 31.7423 18.4713 31.7918H18.4614H17.324ZM19.4553 37.8556H18.4663V37.4543V33.714V32.9362H19.4553V37.8556ZM24.5882 35.6461L23.9454 37.4494L23.802 37.8507H22.7438L22.6004 37.4494L21.8734 35.4083L21.3295 33.9072L20.9833 32.9313H22.0564L22.3927 33.9171L22.8971 35.3885L23.2976 36.5676L23.6981 35.3538L24.2025 33.823L24.4992 32.9263H24.9294H25.5525L24.5882 35.6461ZM23.0355 32.2575C23.0553 32.2575 23.08 32.2625 23.0998 32.2625C23.2432 32.2625 23.3817 32.2724 23.5152 32.2773L23.4163 32.5696L23.2828 32.9759L23.1394 32.5548L23.0355 32.2575ZM22.3482 30.7267C18.768 30.7267 15.4054 28.8442 13.5065 25.8073C13.7241 23.5632 14.9158 22.29 16.429 21.2793V23.6821C16.429 24.0932 16.7603 24.4252 17.1707 24.4252C17.5812 24.4252 17.9125 24.0932 17.9125 23.6821V20.3975C18.1054 20.2935 18.3032 20.1845 18.496 20.0804C20.2663 19.1243 22.096 18.1385 23.0058 16.3253C23.2234 15.8893 23.4756 15.4732 23.7476 15.0768C24.8108 16.3649 27.3624 18.4407 32.5991 18.1236C32.5991 18.4506 32.6585 18.8023 32.7228 19.159C32.7376 19.2333 32.7475 19.3076 32.7623 19.3819V20.2885C32.7673 26.0451 28.0942 30.7267 22.3482 30.7267ZM30.8783 37.8556H29.0832H27.1448V37.4543V35.1111V32.9412H27.6739H30.7843V33.6447V33.7735H30.4827H28.1931H28.1338V34.8634H30.5964V35.3241V35.6907H29.4788H28.1289V37.0283H29.0437H30.8684V37.8556H30.8783ZM34.3744 28.2398C34.3151 28.6906 34.2508 29.1959 34.1815 29.7706C34.0381 30.9447 33.4398 31.9157 32.3618 32.7282C32.2233 32.8322 32.0799 32.9313 31.9266 33.0254V32.9313V31.7869H30.7843H27.1745H27.1448H26.5069C26.4031 31.7126 26.3042 31.6333 26.1954 31.5689C29.6173 30.3948 32.342 27.6998 33.5585 24.2964C33.7958 24.3806 34.0678 24.4252 34.3942 24.4252C34.503 24.4252 34.6118 24.4152 34.7205 24.4103C34.7255 25.4903 34.6068 26.4216 34.3744 28.2398ZM36.0903 22.2454C35.7095 22.612 35.2101 22.8498 34.6563 22.9092C34.5673 22.9191 34.4832 22.934 34.3892 22.934C34.231 22.934 34.1321 22.9191 34.0826 22.9043C34.0678 22.7309 34.137 22.3494 34.1865 22.0571C34.2656 21.6162 34.3645 21.0614 34.3645 20.4718C34.3645 20.0309 34.3101 19.6148 34.2508 19.2432V18.7131V18.0196C34.2903 18.0146 34.3348 18.0146 34.3892 18.0146C34.8738 18.0146 35.3288 18.1632 35.7095 18.406C36.387 18.8419 36.8419 19.6049 36.8419 20.4718C36.8469 21.1753 36.5551 21.7995 36.0903 22.2454Z" fill="#454545"/>
</svg>
