<svg width="45" height="45" viewBox="0 0 45 45" fill="none" xmlns="http://www.w3.org/2000/svg">
<path d="M31.3079 24.5103C32.5216 22.7192 33.2312 20.5561 33.2312 18.2315C33.2312 12.0407 28.1905 7 21.9998 7C15.8041 7 10.7683 12.0407 10.7683 18.2315C10.7683 20.6588 11.5464 22.9051 12.858 24.7452L7 33.1921L12.4616 32.2035L13.4501 37.6651L19.3522 29.1497C20.1988 29.3553 21.0846 29.4678 21.9998 29.4678C23.0128 29.4678 23.9916 29.3308 24.9263 29.0812L30.8773 37.67L31.8659 32.2084L37.3274 33.197L31.3079 24.5103ZM20.2624 27.8333C20.0226 27.7892 19.7828 27.7354 19.5528 27.6767C19.5235 27.6669 19.4941 27.662 19.4647 27.6522C19.2249 27.5886 18.99 27.5152 18.76 27.432C17.1744 26.8741 15.7796 25.9198 14.6883 24.6816C14.5268 24.4957 14.3702 24.3048 14.2185 24.109C14.2038 24.0895 14.1891 24.0748 14.1793 24.0552C14.0325 23.8594 13.8906 23.6539 13.7585 23.4484C12.7993 21.9361 12.2414 20.1548 12.2414 18.2315C12.2365 12.8384 16.6067 8.46817 21.9998 8.46817C27.3928 8.46817 31.7631 12.8384 31.7631 18.2315C31.7631 20.0471 31.259 21.7404 30.3977 23.1939C30.2655 23.4141 30.1285 23.6294 29.9817 23.8399C29.9474 23.8888 29.9083 23.9377 29.874 23.9867C29.7517 24.1531 29.6342 24.3195 29.5021 24.4761C29.3455 24.6669 29.1742 24.848 29.0029 25.0242C28.9295 25.1025 28.8512 25.1759 28.7729 25.2542C28.6555 25.3717 28.5282 25.4793 28.4059 25.587C28.2591 25.7142 28.1024 25.8415 27.9458 25.9589C27.848 26.0372 27.7452 26.1106 27.6424 26.184C27.5054 26.277 27.3684 26.37 27.2313 26.4581C27.1775 26.4924 27.1237 26.5217 27.0698 26.556C26.7566 26.7468 26.4336 26.923 26.096 27.0747C26.0911 27.0747 26.0862 27.0796 26.0813 27.0796C25.8904 27.1677 25.6995 27.246 25.5087 27.3243C25.034 27.5103 24.5397 27.662 24.0307 27.7697C23.375 27.9067 22.6996 27.985 21.9998 27.985C21.4076 27.9997 20.8301 27.9361 20.2624 27.8333Z" fill="#454545"/>
<path d="M29.4919 18.2314C29.4919 14.101 26.1298 10.7389 21.9994 10.7389C17.8689 10.7389 14.5068 14.101 14.5068 18.2314C14.5068 22.3619 17.8689 25.724 21.9994 25.724C26.1298 25.724 29.4919 22.3619 29.4919 18.2314Z" fill="#454545"/>
<line x1="18" y1="17.8" x2="26" y2="17.8" stroke="white" stroke-width="2"/>
<line x1="21.7998" y1="22" x2="21.7998" y2="14" stroke="white" stroke-width="2"/>
<path d="M15.4482 39.0771H15.8041L15.9207 38.7409L16.2783 37.709H17.8743L18.2311 38.7406L18.3475 39.0771H18.7036H20.1519H20.4212H20.8681H20.9212H25.0131H25.4081H25.5131H25.9081H30H30.5V38.5771V37.5313V37.0313H30H27.7596V32.5771V32.0771H27.2596H25.9081H25.4081V32.5771V37.0313H25.0131H22.7727V32.5771V32.0771H22.2727H20.9212H20.4212V32.5771V37.8603L18.4177 32.4048L18.2973 32.0771H17.9483H16.2067H15.8578L15.7374 32.4046L13.5307 38.4046L13.2834 39.0771H14H15.4482ZM17.0771 35.4043L17.1858 35.7188H16.9681L17.0771 35.4043Z" stroke="#454545"/>
</svg>
