<svg width="61" height="45" viewBox="0 0 61 45" fill="none" xmlns="http://www.w3.org/2000/svg">
<g clip-path="url(#clip0_2317_10202)">
<path d="M46.0269 36.708C47.3939 36.708 48.502 35.5993 48.502 34.2318C48.502 32.8642 47.3939 31.7556 46.0269 31.7556C44.6599 31.7556 43.5518 32.8642 43.5518 34.2318C43.5518 35.5993 44.6599 36.708 46.0269 36.708Z" fill="#EBC481"/>
<path d="M44.2661 34.1231C44.2661 34.1231 44.2661 34.1574 44.2318 34.186C44.0948 34.3419 43.9276 34.4684 43.7402 34.5577C43.523 34.6378 43.2143 34.6492 42.8999 34.1803C42.8745 34.1354 42.8553 34.0873 42.8428 34.0373C42.8728 33.5062 43.0351 32.991 43.3149 32.5386C43.5947 32.0862 43.9831 31.711 44.4447 31.447C44.9064 31.1831 45.4267 31.0389 45.9584 31.0274C46.49 31.0159 47.0161 31.1375 47.4888 31.3812C47.9614 31.6249 48.3657 31.983 48.6647 32.4229C48.9638 32.8627 49.1482 33.3705 49.2011 33.8998C49.2541 34.4291 49.1739 34.9633 48.9679 35.4537C48.762 35.9442 48.4367 36.3753 48.0217 36.708C47.8971 36.8005 47.7652 36.8827 47.6273 36.9538C47.2838 37.1261 46.9119 37.2346 46.5298 37.2741C46.0423 37.3205 45.5509 37.2438 45.1007 37.0511C44.6597 36.8609 44.2756 36.5594 43.986 36.1761C43.6756 35.7993 43.5059 35.3262 43.5058 34.8379C43.5058 34.5749 43.5973 34.512 43.6716 34.5635C43.7459 34.6149 44.0432 35.2611 44.5862 35.6614C44.9763 35.9609 45.455 36.1219 45.9467 36.1189C46.2848 36.1022 46.6124 35.9956 46.8956 35.8101C47.2371 35.5673 47.5075 35.2376 47.6787 34.8551C47.7599 34.6187 47.79 34.3676 47.7671 34.1186C47.7441 33.8697 47.6686 33.6285 47.5456 33.4109C47.4225 33.1933 47.2547 33.0042 47.0532 32.8563C46.8517 32.7084 46.6211 32.605 46.3767 32.5528C46.1323 32.5006 45.8797 32.5009 45.6354 32.5537C45.3911 32.6065 45.1608 32.7105 44.9597 32.859C44.7586 33.0074 44.5912 33.1968 44.4687 33.4147C44.3462 33.6326 44.2713 33.8741 44.249 34.1231H44.2661Z" fill="#1B1B1B"/>
<path d="M41.8139 26.3915C41.8139 35.5413 32.2335 42.5581 21.2355 43.6332C7.37931 44.9885 1.19434 36.199 1.19434 27.0491C1.19434 17.8993 10.1688 10.4651 21.2355 10.4651C32.3021 10.4651 41.8139 17.2417 41.8139 26.3915Z" fill="white"/>
<path d="M13.6903 43.6333C13.6903 43.6333 4.57859 41.1399 7.5396 32.6878C7.5396 32.6878 8.68284 30.549 11.8211 30.0057C14.9593 29.4624 16.4512 25.9169 16.4512 25.9169C16.4512 25.9169 17.0229 23.4636 19.3094 23.6295C21.5959 23.7953 21.4529 22.5429 21.4529 22.5429C21.4529 22.5429 21.9159 20.9188 23.7851 21.5364C25.6544 22.154 29.4328 22.3828 31.9194 20.3927C34.4059 18.4026 37.8757 20.1182 37.8757 20.1182C37.8757 20.1182 45.3068 25.8368 38.5331 35.4099C38.5331 35.4099 42.8545 31.4868 43.0489 26.3057C43.2432 21.1247 41.5398 15.2402 31.5764 8.42927L28.6497 6.95388L24.0767 2.01297L20.687 1.54407L19.2522 6.25622L18.006 10.1506C17.1054 10.0065 16.1836 10.0718 15.3122 10.3416C14.4409 10.6113 13.6434 11.0782 12.9815 11.706C10.8436 13.8505 10.5292 13.1071 10.5292 13.1071C10.5292 13.1071 6.43066 10.3507 5.29312 10.2878C4.15559 10.2249 2.24064 10.0305 2.24064 10.0305L1.96627 20.427C1.96627 20.427 0.251395 30.8063 1.96627 34.7236C3.68114 38.6408 6.64216 43.2901 13.6903 43.6333Z" fill="#EBC481"/>
<path d="M16.3769 42.7983C16.4265 42.7993 16.4738 42.8199 16.5084 42.8555C16.7786 43.0529 16.9789 43.3314 17.08 43.6504C17.1886 43.9993 17.08 44.451 16.4683 44.9142C16.4112 44.9541 16.3473 44.9832 16.2797 45C15.0017 44.9503 13.7302 44.7934 12.4784 44.5311C10.4887 44.1298 8.57869 43.4033 6.82506 42.3808C5.03182 41.327 3.50443 39.8754 2.36067 38.1376C2.21336 37.9241 2.07786 37.7026 1.95481 37.4743C1.8183 37.2536 1.69613 37.0244 1.58899 36.7881C1.47467 36.5593 1.36033 36.3248 1.25744 36.0903L0.977352 35.3698C0.881751 35.1306 0.799693 34.8863 0.731558 34.6378C0.662963 34.3919 0.5715 34.1517 0.514338 33.9001L0.348545 33.1567L0.308562 32.9966L0.268544 32.8879C0.268544 32.8078 0.217101 32.7107 0.199952 32.642L0.154212 32.419C0.0641508 31.8973 0.010652 31.3699 -0.00585938 30.8407V30.4632V30.0915C-0.00585938 29.8399 -0.00585938 29.594 -0.00585938 29.3481C-0.00585938 28.3645 0.0627355 27.3923 0.137047 26.4258V26.3172V26.2142C0.285669 24.3957 0.497174 22.5886 0.748689 20.793L0.794428 20.4556V20.3927V20.3355L0.760132 19.6435C0.760132 19.186 0.760134 18.7286 0.725836 18.2654C0.725836 17.3504 0.725836 16.4296 0.725836 15.5089C0.725836 14.5882 0.834453 13.6618 0.948778 12.7297C0.948778 12.4952 1.00592 12.2665 1.04022 12.032L1.16028 11.3286C1.20601 11.0942 1.26314 10.854 1.31459 10.6195C1.35013 10.4374 1.40377 10.2592 1.47466 10.0877L1.6976 9.51581L1.8119 9.21843L1.86908 9.06974V9.00112V8.96112H2.00627C2.21205 8.92681 2.40641 8.88103 2.61791 8.86388C2.83274 8.84355 3.04902 8.84355 3.26385 8.86388C3.3762 8.85818 3.48874 8.85818 3.60109 8.86388H3.86977C4.37521 8.93398 4.87415 9.04495 5.3617 9.19561C6.286 9.49067 7.1799 9.87367 8.03117 10.3393L8.35128 10.4994L8.65998 10.6767L9.27162 11.0313L9.84325 11.4087L10.1405 11.5974L10.4263 11.7918L10.4606 11.8204L10.9007 11.5402C11.1065 11.4144 11.3066 11.2886 11.5124 11.1742C13.1622 10.1937 14.9562 9.47953 16.8285 9.05829L17.4801 8.94395L17.5316 8.54367C17.6573 7.62869 17.8174 6.71368 18.0232 5.7987C18.2251 4.86229 18.4984 3.94275 18.8406 3.04806C19.0299 2.57009 19.2594 2.10902 19.5266 1.66985C19.6009 1.55548 19.6694 1.44112 19.7552 1.32675L19.8181 1.24095L19.9153 1.11516L20.1382 0.874952C20.2105 0.791228 20.2889 0.712848 20.3726 0.640468L20.6241 0.440329C20.7898 0.303082 20.967 0.177305 21.1385 0.0457764H21.1785C21.1785 0.0457764 21.1785 0.0457764 21.2185 0.0457764L21.3043 0.0800519L21.4758 0.142949L21.8187 0.285915C22.0417 0.371694 22.276 0.474641 22.5047 0.583295L23.2135 0.932124C23.6822 1.17231 24.1396 1.43536 24.5911 1.70985C25.4915 2.25504 26.3511 2.86475 27.1634 3.53413C27.9835 4.21157 28.7481 4.95355 29.4499 5.75297L29.913 6.32484L30.2445 6.50208C30.7075 6.7537 31.1534 7.01675 31.5935 7.28553C33.4893 8.43536 35.2747 9.75821 36.9268 11.2371C38.6038 12.7299 40.0813 14.4328 41.3226 16.3038C41.9828 17.3148 42.5437 18.3873 42.9974 19.5063C43.2197 20.0671 43.4105 20.6398 43.5691 21.2219C43.6377 21.5192 43.7291 21.7938 43.7863 22.1197L43.8663 22.5772C43.8663 22.7259 43.9235 22.8803 43.9406 23.0347C44.1092 24.2603 44.1092 25.5033 43.9406 26.7289C43.8548 27.3366 43.7307 27.9383 43.5691 28.5303C43.489 28.8277 43.3976 29.1022 43.3061 29.411L43.2432 29.5768C43.0186 30.2195 42.7591 30.8496 42.4658 31.464L42.1571 31.9729C41.9628 32.2875 41.677 32.7221 41.3226 33.2025C40.9682 33.6828 40.5452 34.1918 40.0936 34.6836C39.6524 35.1613 39.1828 35.6119 38.6874 36.0332C38.1718 36.5129 37.5952 36.9224 36.9725 37.2512C36.6181 37.4171 36.4638 37.3885 36.4809 37.2512C36.4809 36.9596 37.1097 36.1647 37.8014 35.1811C37.6985 35.2554 38.5902 34.1289 39.3162 32.8936C39.682 32.2703 40.0021 31.6184 40.2308 31.1266L40.488 30.5547L40.5737 30.326L40.7338 29.9771L40.8767 29.6283C40.9796 29.3938 41.0596 29.1537 41.1454 28.9192L41.1968 28.7762C41.2768 28.5246 41.3569 28.273 41.4255 28.0213C41.5609 27.5172 41.6659 27.0055 41.7399 26.4888C41.8799 25.4604 41.8799 24.4177 41.7399 23.3892C41.7277 23.2602 41.7067 23.1322 41.677 23.0061L41.6084 22.623C41.5627 22.3656 41.4826 22.1197 41.4255 21.8681C41.286 21.3589 41.1161 20.8586 40.9167 20.3698C40.5136 19.3834 40.0179 18.4375 39.4362 17.5448C38.3071 15.835 36.9622 14.2781 35.4348 12.9127C33.8868 11.5249 32.2145 10.2824 30.4388 9.20126C30.0197 8.94964 29.6024 8.70952 29.187 8.48077L28.8554 8.30919L28.5182 8.1376C28.4919 8.12275 28.4702 8.10101 28.4553 8.0747L28.3924 8.00036L28.2724 7.85167L27.7808 7.2798C27.1558 6.57649 26.4774 5.92266 25.7515 5.32407C25.02 4.71626 24.2443 4.16383 23.4307 3.67138C23.0249 3.43119 22.6133 3.19103 22.1903 2.97372C21.9807 2.86316 21.7692 2.7602 21.5558 2.66489L21.5215 2.71061C21.4693 2.77994 21.4216 2.85252 21.3786 2.92793C21.1785 3.25707 21.0082 3.60351 20.8699 3.96303C20.5693 4.74813 20.3285 5.55484 20.1496 6.37628C19.961 7.21692 19.8124 8.09187 19.6923 8.93822L19.6523 9.26423L19.6123 9.55581L19.578 9.88181C19.578 10.1048 19.538 10.3336 19.5151 10.5623L19.4865 10.8997V10.9855V11.0255H19.3151L17.9717 11.1628H17.9089H17.8574H17.8174H17.7431H17.5945L17.2972 11.2142C15.6572 11.5908 14.0856 12.2197 12.6385 13.0785L12.0668 13.4102L11.7982 13.5818L11.6553 13.6733L11.3809 13.8562C11.1923 13.9821 11.0094 14.1251 10.8093 14.2566L10.5349 14.4625L10.4663 14.5082L10.392 14.4625L10.2548 14.3652L9.18014 13.6218L8.9115 13.4388L8.63709 13.2673L8.06547 12.9241C7.88255 12.8097 7.69391 12.7068 7.49385 12.6039L7.21376 12.4438L6.93366 12.2951C6.20449 11.9013 5.43871 11.5796 4.64717 11.3344C4.27372 11.2176 3.89137 11.1315 3.50392 11.077H3.44105V11.1857C3.39532 11.3858 3.34389 11.586 3.30959 11.7918L3.20098 12.4151C3.16668 12.6267 3.1438 12.8384 3.11522 13.05C3.01233 13.9078 2.94374 14.7655 2.90944 15.6519C2.87515 16.5383 2.86944 17.4075 2.88087 18.2882C2.88087 18.7285 2.88087 19.1689 2.91517 19.6035L2.94946 20.2612C2.94946 20.2898 2.94946 20.4327 2.94946 20.5414L2.91517 20.8159L2.86943 21.1475C2.61791 22.9089 2.41784 24.6816 2.2978 26.443V26.5459V26.6431C2.22921 27.5753 2.17205 28.5074 2.16062 29.4281C2.16062 29.6568 2.16062 29.8856 2.16062 30.1144V30.4575V30.7891C2.17047 31.213 2.21249 31.6355 2.28636 32.053V32.1788C2.28636 32.2245 2.28635 32.2417 2.31493 32.276V32.2245V32.2589C2.31493 32.2589 2.31493 32.2588 2.31493 32.2931V32.3561V32.4418V32.4819V32.5391L2.36067 32.7278L2.5093 33.374C2.55503 33.5913 2.63506 33.7971 2.69222 34.0087C2.74875 34.2203 2.81745 34.4285 2.898 34.6321L3.13807 35.244L3.41816 35.8158C3.50972 36.0124 3.61282 36.2033 3.72686 36.3877C3.82634 36.5857 3.93899 36.7767 4.0641 36.9596C5.02631 38.416 6.30903 39.6327 7.81395 40.5166C9.35956 41.4131 11.0414 42.0506 12.7928 42.4037C13.9735 42.641 15.1729 42.773 16.3769 42.7983Z" fill="#231815"/>
<path d="M3.88136 13.6904C3.88136 13.6904 3.64698 17.4247 4.19003 18.8372C4.72595 17.8638 5.61995 17.1376 6.6823 16.8128L3.88136 13.6904Z" fill="#ED7A49"/>
<path d="M23.8887 9.24702C24.9474 8.83575 26.0419 8.52369 27.1583 8.31488C27.1583 8.31488 24.4317 5.19819 23.4199 5.27825L23.8887 9.24702Z" fill="#ED7A49"/>
<path d="M12.4723 22.9203C13.1037 22.9203 13.6156 22.4082 13.6156 21.7765C13.6156 21.1449 13.1037 20.6328 12.4723 20.6328C11.841 20.6328 11.3291 21.1449 11.3291 21.7765C11.3291 22.4082 11.841 22.9203 12.4723 22.9203Z" fill="white"/>
<path d="M23.6999 17.6592C24.3313 17.6592 24.8431 17.1471 24.8431 16.5154C24.8431 15.8838 24.3313 15.3717 23.6999 15.3717C23.0685 15.3717 22.5566 15.8838 22.5566 16.5154C22.5566 17.1471 23.0685 17.6592 23.6999 17.6592Z" fill="white"/>
<path d="M10.2638 33.186C11.8119 32.4793 12.7236 31.1539 12.3002 30.2259C11.8769 29.2978 10.2787 29.1184 8.73071 29.8252C7.18267 30.5319 6.27092 31.8572 6.69428 32.7853C7.11763 33.7133 8.71579 33.8928 10.2638 33.186Z" fill="#E58A4C"/>
<path d="M34.0793 22.3152C35.6273 21.6084 36.539 20.2831 36.1157 19.3551C35.6923 18.427 34.0942 18.2476 32.5461 18.9543C30.9981 19.6611 30.0864 20.9864 30.5097 21.9145C30.9331 22.8425 32.5312 23.0219 34.0793 22.3152Z" fill="#E58A4C"/>
<path d="M15.3933 44.9314C15.3376 44.9303 15.2843 44.9077 15.2447 44.8685C14.9565 44.6689 14.7527 44.3693 14.6731 44.0278C14.6217 43.6618 14.7817 43.2501 15.3648 42.8098C15.4172 42.7775 15.4727 42.7507 15.5305 42.7297C16.7072 42.7926 17.8865 42.7926 19.0632 42.7297C22.8291 42.5874 26.5405 41.7821 30.0269 40.3508L30.913 39.9504L31.7818 39.5101L31.9076 39.4529L32.2677 39.2871L32.805 39.0355L33.4738 38.6866C33.7196 38.5723 33.9654 38.4179 34.2284 38.2692L34.6228 38.0462L35.0172 37.8002L35.4116 37.5544L35.6117 37.4286L35.8003 37.297L36.5492 36.7937C36.9264 36.4907 37.258 36.2505 37.5266 36.0504C37.7273 35.8859 37.9372 35.7331 38.1554 35.5928C38.4927 35.3927 38.6413 35.387 38.6527 35.5357C38.6072 35.8383 38.4917 36.1261 38.3155 36.3763L38.1268 36.6851C38.0506 36.7919 37.9706 36.9005 37.8868 37.0111C37.721 37.2398 37.5324 37.4857 37.3152 37.7259C37.143 37.9516 36.9517 38.1621 36.7435 38.355C36.5492 38.5609 36.2977 38.7781 36.029 39.0297C35.8918 39.1498 35.7546 39.2814 35.6117 39.4015L35.1544 39.7732L34.6914 40.1392L34.2284 40.4766L33.7882 40.7911L33.3824 41.0542L32.7707 41.443L32.5307 41.5802C32.262 41.7175 31.9876 41.8605 31.7132 41.992L30.8844 42.3638C29.9511 42.7636 28.997 43.113 28.0263 43.4102L27.6661 43.5246L27.3003 43.6276L26.5743 43.8277C26.0827 43.9421 25.5968 44.0679 25.1052 44.1651C23.1433 44.5776 21.1515 44.8319 19.1489 44.9257C17.898 44.9932 16.6444 44.9951 15.3933 44.9314Z" fill="#C30D23"/>
<path d="M14.2273 25.2764C14.999 26.4659 14.1358 27.2493 12.9469 28.0271C11.7579 28.8048 10.6889 29.2794 9.91726 28.09C9.73259 27.8068 9.60545 27.4901 9.54314 27.1578C9.48083 26.8256 9.48456 26.4843 9.5541 26.1535C9.62363 25.8227 9.75762 25.5088 9.94841 25.2297C10.1392 24.9507 10.3831 24.712 10.6661 24.5273C10.9491 24.3425 11.2657 24.2154 11.5978 24.153C11.9299 24.0907 12.2711 24.0944 12.6018 24.164C12.9325 24.2335 13.2462 24.3676 13.5251 24.5585C13.804 24.7493 14.0426 24.9933 14.2273 25.2764Z" fill="#231815"/>
<path d="M13.9132 24.653C14.0675 24.7445 14.0618 25.0305 13.9132 25.2878C13.9069 25.3504 13.8849 25.4103 13.8492 25.4621C13.8135 25.5139 13.7653 25.5558 13.709 25.5838C13.6528 25.6118 13.5903 25.6251 13.5275 25.6224C13.4647 25.6197 13.4036 25.6011 13.3499 25.5684C13.2963 25.5356 13.2518 25.4898 13.2206 25.4352C13.1895 25.3805 13.1727 25.3189 13.1719 25.256C13.1711 25.1932 13.1862 25.131 13.2158 25.0756C13.2455 25.0201 13.2888 24.9731 13.3415 24.939C13.513 24.6816 13.7645 24.5558 13.9132 24.653Z" fill="#F7F7F7"/>
<path d="M29.8678 18.5055C30.285 19.8608 29.239 20.3755 27.8842 20.7929C26.5295 21.2104 25.3691 21.3648 24.9518 20.0267C24.852 19.7037 24.8167 19.3643 24.848 19.0277C24.8793 18.6912 24.9765 18.3641 25.1341 18.0651C25.2918 17.7662 25.5067 17.5012 25.7667 17.2853C26.0267 17.0695 26.3267 16.907 26.6495 16.8071C26.9723 16.7072 27.3116 16.6719 27.648 16.7032C27.9844 16.7345 28.3114 16.8318 28.6102 16.9895C28.9091 17.1472 29.1739 17.3622 29.3897 17.6224C29.6055 17.8825 29.7679 18.1826 29.8678 18.5055Z" fill="#231815"/>
<path d="M29.7415 17.8135C29.8616 17.9508 29.7758 18.2195 29.5529 18.4197C29.5313 18.4805 29.4944 18.5348 29.4455 18.577C29.3967 18.6192 29.3378 18.6479 29.2745 18.6604C29.2112 18.6729 29.1458 18.6687 29.0846 18.6482C29.0234 18.6277 28.9686 18.5916 28.9256 18.5435C28.8826 18.4953 28.8529 18.4368 28.8393 18.3737C28.8258 18.3107 28.8289 18.2451 28.8483 18.1836C28.8678 18.1221 28.9029 18.0667 28.9503 18.0228C28.9976 17.979 29.0556 17.9482 29.1184 17.9336C29.3414 17.7392 29.6215 17.682 29.7415 17.8135Z" fill="#F7F7F7"/>
<path d="M21.4045 26.197C22.7636 25.6675 23.5505 24.4294 23.1621 23.4317C22.7737 22.434 21.357 22.0546 19.9979 22.5841C18.6389 23.1137 17.852 24.3517 18.2404 25.3494C18.6288 26.3471 20.0454 26.7266 21.4045 26.197Z" fill="#231815"/>
<path d="M24.6198 27.8155L24.0825 27.6497C22.6191 28.7419 22.5505 32.4076 22.5734 33.6142C22.9158 33.8539 23.3199 33.99 23.7375 34.0062C24.1551 34.0224 24.5685 33.9182 24.9285 33.7058C27.9581 32.1903 24.6198 27.8155 24.6198 27.8155Z" fill="#DB2F0E"/>
<path d="M24.0828 27.6496L22.3679 27.1464H22.3222L20.6816 30.5375C20.6816 30.5375 21.2533 32.7106 22.5451 33.6142C22.5509 32.4075 22.6195 28.7419 24.0828 27.6496Z" fill="#BC0000"/>
<path d="M20.4068 25.9227C20.4068 25.9227 20.4068 25.9226 20.4068 25.8597C20.5359 25.6173 20.7343 25.4187 20.9765 25.2894C21.2188 25.1601 21.4941 25.1058 21.7673 25.1335C21.7956 25.1277 21.8247 25.1277 21.853 25.1335C21.853 25.1335 22.0931 25.591 22.4246 26.2257L22.6933 26.7347L22.8477 27.0321L22.9963 27.3237L23.1335 27.6154L23.1678 27.6897C23.1695 27.7145 23.1695 27.7393 23.1678 27.7641L23.1106 27.9185C23.0706 28.0214 23.0249 28.1243 22.9791 28.2273L22.9105 28.3817L22.8534 28.5075L22.7676 28.6791C22.6501 28.9107 22.5204 29.136 22.3789 29.3539C22.0941 29.8124 21.7457 30.2282 21.3443 30.5891C20.9403 30.9489 20.4531 31.2024 19.9267 31.3268C19.8078 31.3516 19.6875 31.3687 19.5665 31.3782H19.2521C19.0952 31.3715 18.9387 31.3562 18.7834 31.3325C18.6483 31.3124 18.5147 31.2838 18.3833 31.2467C18.3833 31.2467 18.2918 31.2124 18.1375 31.1381C17.9308 31.0294 17.7387 30.8948 17.5658 30.7378C17.3122 30.5106 17.1262 30.2177 17.0285 29.8914C16.9423 29.5906 16.9423 29.2715 17.0285 28.9707C17.0718 28.7973 17.1412 28.6315 17.2343 28.4789C17.2887 28.3827 17.3604 28.2974 17.4458 28.2273C17.5716 28.1243 17.663 28.1244 17.7259 28.1873C17.7888 28.2502 17.8517 28.6962 17.9431 29.0279C17.9698 29.0913 17.9927 29.1562 18.0117 29.2223C18.059 29.3427 18.1456 29.4435 18.2575 29.5082C18.385 29.5804 18.5244 29.6288 18.6691 29.6512C18.749 29.6571 18.8293 29.6571 18.9092 29.6512C18.9845 29.6707 19.0608 29.6861 19.1378 29.697C19.3101 29.7252 19.4858 29.7252 19.658 29.697C19.9092 29.6178 20.1383 29.4807 20.3268 29.2966C20.605 29.038 20.8455 28.7416 21.0413 28.416C21.1499 28.2445 21.2471 28.0672 21.3443 27.8842L21.4072 27.7412L21.0013 26.9635L20.4068 25.9227Z" fill="#231815"/>
<path d="M22.3051 28.6047C22.3051 28.6047 22.3051 28.6047 22.2708 28.5533C22.2091 28.3513 22.1973 28.1374 22.2365 27.9299C22.3053 27.6107 22.4461 27.3115 22.6481 27.055C22.6664 27.0348 22.6876 27.0174 22.711 27.0035L22.9625 27.0664C23.1168 27.0664 23.3341 27.1407 23.597 27.1808C24.1954 27.2757 24.8049 27.2757 25.4033 27.1808C25.6608 27.1439 25.9079 27.0544 26.1293 26.9177C26.2805 26.8227 26.4031 26.6882 26.4837 26.5288C26.5406 26.4291 26.5739 26.3176 26.5809 26.2029C26.5847 26.1687 26.5847 26.1341 26.5809 26.0999V26.0313C26.592 25.9574 26.592 25.8822 26.5809 25.8083C26.5068 25.52 26.3788 25.2483 26.2036 25.0077C25.8606 24.5788 25.7463 24.3672 25.8663 24.2356C26.0047 24.172 26.1563 24.1425 26.3085 24.1494C26.4606 24.1564 26.6089 24.1997 26.7409 24.2757C27.0693 24.3931 27.3637 24.5895 27.5984 24.8476C27.8059 25.0602 27.9708 25.3106 28.0842 25.5852C28.1292 25.6838 28.1618 25.7875 28.1814 25.8941L28.21 26.0141C28.2123 26.0503 28.2123 26.0866 28.21 26.1228C28.21 26.1915 28.21 26.2944 28.21 26.4202C28.1697 26.7501 28.0648 27.0687 27.9013 27.358C27.6792 27.7634 27.3538 28.1028 26.9581 28.3417C26.5538 28.5815 26.1077 28.7426 25.6434 28.8163C24.8857 28.9335 24.1146 28.9335 23.3569 28.8163C23.0029 28.764 22.6518 28.6934 22.3051 28.6047Z" fill="#231815"/>
<path d="M48.2109 27.2722C54.0482 27.2722 58.7803 22.5381 58.7803 16.6984C58.7803 10.8587 54.0482 6.12463 48.2109 6.12463C42.3736 6.12463 37.6416 10.8587 37.6416 16.6984C37.6416 22.5381 42.3736 27.2722 48.2109 27.2722Z" fill="#45D9FF"/>
<path d="M43.8889 36.4907C43.8223 36.4962 43.7554 36.4962 43.6888 36.4907C43.5047 36.4641 43.3277 36.4013 43.1678 36.3061C43.008 36.2108 42.8686 36.0849 42.7576 35.9356C42.6466 35.7863 42.5661 35.6165 42.5209 35.4359C42.4757 35.2554 42.4666 35.0677 42.4941 34.8837L43.4087 28.6333C41.6116 28.0524 39.9734 27.0632 38.6223 25.7431C37.2712 24.4231 36.2439 22.808 35.621 21.0244C34.9981 19.2407 34.7965 17.337 35.0319 15.4624C35.2674 13.5878 35.9334 11.7932 36.978 10.2192C37.7496 9.05216 38.7164 8.02691 39.8361 7.18835C40.0819 7.00535 40.3391 6.83378 40.5906 6.67365C42.5439 5.43253 44.8103 4.77391 47.1243 4.77503C47.9558 4.77933 48.7848 4.86556 49.5994 5.03241C52.5612 5.64314 55.1912 7.33115 56.9806 9.7699C58.7701 12.2087 59.5918 15.2247 59.2866 18.2346C58.9815 21.2444 57.5713 24.0341 55.3288 26.0638C53.0864 28.0934 50.1711 29.2188 47.1471 29.2222C46.8213 29.2222 46.4955 29.2223 46.1697 29.1822L45.2722 35.2954C45.2216 35.6309 45.0525 35.9371 44.7956 36.1585C44.5386 36.3798 44.2108 36.5018 43.8717 36.5021L43.8889 36.4907ZM47.1357 7.59435C45.2101 7.59485 43.3323 8.1944 41.7624 9.30994L41.5395 9.45863C40.6631 10.1147 39.9069 10.9176 39.3045 11.8319C38.1836 13.5287 37.6426 15.5431 37.7626 17.5734C37.8825 19.6037 38.657 21.5404 39.9698 23.0933C41.2827 24.6462 43.0632 25.7316 45.0446 26.1868C47.026 26.6421 49.1015 26.4427 50.96 25.6185C52.8186 24.7943 54.3601 23.3897 55.3535 21.6152C56.3469 19.8407 56.7388 17.792 56.4702 15.7759C56.2017 13.7599 55.2874 11.8853 53.8642 10.4329C52.441 8.98059 50.5856 8.02875 48.5762 7.72014C48.3132 7.68011 48.0389 7.64578 47.7531 7.62862L47.1357 7.59435Z" fill="white"/>
<path d="M47.1645 5.62146C47.9328 5.62579 48.6987 5.7062 49.451 5.8616C52.4149 6.39244 55.0466 8.07941 56.7671 10.5514C58.4877 13.0234 59.1562 16.078 58.6256 19.0431C58.095 22.0082 56.4087 24.641 53.9377 26.3623C51.4668 28.0836 48.4135 28.7523 45.4497 28.2215L44.4322 35.1582C44.409 35.2925 44.3387 35.4141 44.234 35.5011C44.1292 35.5881 43.9967 35.6349 43.8605 35.6329H43.7805C43.637 35.6076 43.5084 35.5284 43.4213 35.4115C43.3342 35.2945 43.295 35.1487 43.3118 35.0038L44.3407 28.0099C42.2574 27.4831 40.3661 26.3762 38.8862 24.8176C37.4063 23.259 36.3984 21.3125 35.9796 19.2041C35.5607 17.0956 35.7479 14.9115 36.5196 12.9052C37.2913 10.8989 38.6157 9.15258 40.3393 7.86885C40.568 7.69729 40.8023 7.54291 41.0424 7.39423C42.8544 6.23898 44.9587 5.62583 47.1074 5.62712L47.1645 5.62146ZM47.1074 3.91153C44.6336 3.91161 42.2109 4.61575 40.1221 5.94167C39.8134 6.14182 39.5505 6.31338 39.3162 6.51354C36.8974 8.3135 35.1764 10.896 34.4459 13.822C33.6632 16.9232 34.0458 20.204 35.521 23.0418C36.9962 25.8795 39.4613 28.0767 42.4486 29.2165L41.6312 34.7751C41.5493 35.3704 41.7048 35.9741 42.0642 36.4556C42.4236 36.9372 42.958 37.2579 43.5519 37.3485C43.6603 37.357 43.7693 37.357 43.8777 37.3485C44.4214 37.3453 44.9462 37.1484 45.3579 36.7932C45.7696 36.4379 46.0413 35.9474 46.1242 35.4099L46.9073 30.0629H47.1645C50.4012 30.0597 53.5215 28.8555 55.9218 26.6832C58.322 24.511 59.8315 21.5252 60.158 18.3037C60.4844 15.0822 59.6048 11.8541 57.6892 9.24406C55.7737 6.63404 52.9584 4.8277 49.7883 4.17463C48.9305 3.9982 48.0574 3.90628 47.1817 3.90015L47.1074 3.91153Z" fill="#231815"/>
<path d="M39.1502 41.8833C42.7302 41.8833 45.6324 38.9799 45.6324 35.3984C45.6324 31.8169 42.7302 28.9135 39.1502 28.9135C35.5702 28.9135 32.668 31.8169 32.668 35.3984C32.668 38.9799 35.5702 41.8833 39.1502 41.8833Z" fill="#EBC481"/>
<path d="M45.1069 36.0388C45.2331 35.8456 45.3403 35.6408 45.427 35.427C45.7186 35.3583 45.6042 35.3011 45.9586 35.8501C46.1889 37.0208 46.0008 38.2353 45.427 39.2813C44.8131 40.2806 43.9695 41.1187 42.9665 41.726C41.9634 42.3333 40.8299 42.6922 39.6603 42.7727C38.4906 42.8533 37.3186 42.6532 36.2418 42.1892C35.165 41.7252 34.2146 41.0106 33.4696 40.105C32.7246 39.1993 32.2065 38.1287 31.9586 36.9823C31.7106 35.836 31.7398 34.6469 32.0439 33.5141C32.348 32.3813 32.9181 31.3376 33.7068 30.4697C34.4955 29.6018 35.48 28.9349 36.5783 28.5245C38.0446 27.9798 39.6461 27.9158 41.1513 28.3416C41.2393 28.3574 41.3255 28.3823 41.4085 28.4159L41.5228 28.4559L41.7572 28.5417C41.9124 28.5927 42.0634 28.6558 42.2088 28.7304L42.6546 28.9477L43.0776 29.1993C43.2187 29.2961 43.3525 29.4031 43.4778 29.5196C44.6688 30.5055 45.4776 31.8771 45.7643 33.3968C45.83 33.7493 45.8588 34.1077 45.85 34.4662C45.8513 34.686 45.8244 34.9051 45.77 35.1181C45.6957 35.4327 45.5985 35.507 45.5128 35.4212C45.3764 35.2299 45.2828 35.0115 45.2384 34.7808C45.1812 34.6206 45.1183 34.4376 45.0555 34.2432L44.8097 33.6313C44.7001 33.464 44.6081 33.2857 44.5353 33.0994C44.2998 32.6634 44.0139 32.2565 43.6835 31.8871C43.3465 31.5178 42.962 31.1948 42.5403 30.9264C42.4053 30.8345 42.264 30.7522 42.1173 30.6805L41.9573 30.5947C41.7441 30.4709 41.5247 30.3583 41.2999 30.2573L40.9569 30.1315L40.8712 30.1029L40.6882 30.0514L40.2652 29.9427C39.7 29.8377 39.123 29.8108 38.5504 29.8627C37.0886 30.0242 35.7491 30.755 34.8216 31.8969C33.8942 33.0387 33.4533 34.4999 33.5944 35.9645C33.6567 36.5424 33.801 37.1086 34.0231 37.6458C34.2604 38.1781 34.5764 38.6716 34.9606 39.1097C35.7292 39.9918 36.7581 40.6065 37.8987 40.8653C39.0391 41.1353 40.2356 41.0372 41.3168 40.5853C42.3981 40.1333 43.3086 39.3506 43.9179 38.3492C44.3524 37.6058 45.0612 36.0388 45.1069 36.0388Z" fill="#1B1B1B"/>
<path d="M52.6076 13.3136L44.8995 10.6086C42.3435 9.71165 39.5447 11.0574 38.6481 13.6145L38.5629 13.8573C37.6663 16.4144 39.0115 19.2145 41.5675 20.1114L49.2755 22.8164C51.8315 23.7134 54.6304 22.3677 55.527 19.8106L55.6122 19.5677C56.5088 17.0106 55.1636 14.2106 52.6076 13.3136Z" fill="#036EB7"/>
<path d="M50.8742 23.6295C50.2431 23.6295 49.6167 23.5212 49.0222 23.3092L41.5568 20.6958C40.8602 20.4514 40.2185 20.072 39.6684 19.5795C39.1183 19.087 38.6706 18.4908 38.3508 17.8252C38.031 17.1595 37.8454 16.4374 37.8045 15.7C37.7637 14.9626 37.8684 14.2244 38.1127 13.5275C38.3571 12.8306 38.7362 12.1886 39.2285 11.6383C39.7209 11.0879 40.3167 10.64 40.9821 10.3201C41.6475 10.0001 42.3693 9.81449 43.1064 9.77363C43.8435 9.73277 44.5814 9.83753 45.278 10.082L52.7092 12.7011C53.9631 13.1393 55.0212 14.0078 55.696 15.1523C56.3707 16.2968 56.6184 17.6435 56.395 18.9533C56.1717 20.2632 55.4917 21.4515 54.4759 22.3075C53.46 23.1635 52.1739 23.6319 50.8457 23.6295H50.8742ZM43.4431 10.9398C42.7745 10.9418 42.1146 11.0922 41.511 11.3801C40.7188 11.7613 40.0573 12.3689 39.6101 13.126C39.1629 13.8831 38.95 14.7559 38.9983 15.6341C39.0466 16.5122 39.354 17.3563 39.8816 18.0597C40.4092 18.7632 41.1334 19.2944 41.9626 19.5864L49.3937 22.2055C50.5073 22.5961 51.7303 22.5281 52.7937 22.0165C53.8571 21.5049 54.6739 20.5917 55.0642 19.4777C55.4546 18.3637 55.3867 17.1402 54.8753 16.0763C54.364 15.0124 53.4511 14.1954 52.3376 13.8048L44.8779 11.1857C44.411 11.0235 43.9203 10.9403 43.426 10.9398H43.4431Z" fill="white"/>
<path d="M44.3921 16.9043C44.2596 16.9032 44.1282 16.88 44.0033 16.8357L40.8022 15.6919C40.5269 15.5749 40.3063 15.3575 40.1854 15.0837C40.0645 14.8099 40.0523 14.5004 40.1513 14.2179C40.2502 13.9355 40.4529 13.7013 40.7182 13.5629C40.9835 13.4246 41.2915 13.3925 41.5796 13.4731L44.7808 14.6168C45.0487 14.7035 45.2765 14.8838 45.4224 15.1247C45.5684 15.3656 45.6227 15.651 45.5755 15.9287C45.5283 16.2065 45.3827 16.4579 45.1654 16.6371C44.9481 16.8162 44.6736 16.9111 44.3921 16.9043Z" fill="white"/>
<path d="M42.2313 17.9451C42.0439 17.9434 41.8596 17.8972 41.6935 17.8103C41.5275 17.7235 41.3845 17.5984 41.2762 17.4454C41.1679 17.2924 41.0975 17.1159 41.0707 16.9304C41.044 16.7448 41.0617 16.5555 41.1223 16.3782L42.2656 13.1757C42.3166 13.0304 42.3958 12.8966 42.4985 12.7819C42.6013 12.6672 42.7256 12.5738 42.8644 12.5072C43.0032 12.4406 43.1538 12.4019 43.3075 12.3935C43.4612 12.3851 43.6151 12.407 43.7603 12.4581C43.9056 12.5091 44.0394 12.5883 44.154 12.6911C44.2687 12.7939 44.362 12.9183 44.4287 13.0571C44.4953 13.196 44.5339 13.3466 44.5423 13.5004C44.5507 13.6542 44.5288 13.8082 44.4777 13.9535L43.3345 17.1559C43.2544 17.3852 43.1054 17.584 42.9079 17.7253C42.7104 17.8666 42.474 17.9434 42.2313 17.9451Z" fill="white"/>
<path d="M48.9306 18.191C49.3189 18.191 49.6337 17.876 49.6337 17.4876C49.6337 17.0991 49.3189 16.7842 48.9306 16.7842C48.5423 16.7842 48.2275 17.0991 48.2275 17.4876C48.2275 17.876 48.5423 18.191 48.9306 18.191Z" fill="white"/>
<path d="M52.0117 16.7099C52.4 16.7099 52.7148 16.395 52.7148 16.0065C52.7148 15.618 52.4 15.3031 52.0117 15.3031C51.6234 15.3031 51.3086 15.618 51.3086 16.0065C51.3086 16.395 51.6234 16.7099 52.0117 16.7099Z" fill="white"/>
<path d="M50.2226 20.8787C50.6109 20.8787 50.9257 20.5638 50.9257 20.1753C50.9257 19.7868 50.6109 19.4719 50.2226 19.4719C49.8343 19.4719 49.5195 19.7868 49.5195 20.1753C49.5195 20.5638 49.8343 20.8787 50.2226 20.8787Z" fill="white"/>
<path d="M53.2978 19.3976C53.6861 19.3976 54.0009 19.0827 54.0009 18.6942C54.0009 18.3058 53.6861 17.9908 53.2978 17.9908C52.9095 17.9908 52.5947 18.3058 52.5947 18.6942C52.5947 19.0827 52.9095 19.3976 53.2978 19.3976Z" fill="white"/>
<path d="M43.4324 10.3507C43.9954 10.3509 44.5541 10.4476 45.0844 10.6366L52.5155 13.2501C53.7627 13.7017 54.7815 14.6273 55.3505 15.8258C55.9196 17.0244 55.993 18.3992 55.5549 19.6516C55.1168 20.9041 54.2024 21.933 53.0105 22.515C51.8185 23.097 50.4452 23.1851 49.1887 22.7602L41.7233 20.141C40.6015 19.7459 39.6558 18.9664 39.0534 17.9406C38.4511 16.9147 38.2311 15.7087 38.4324 14.5361C38.6336 13.3636 39.2432 12.3 40.1531 11.534C41.0631 10.7679 42.2146 10.3487 43.4039 10.3507H43.4324ZM43.4039 9.77881C42.238 9.77737 41.1004 10.1381 40.1482 10.8111C39.1959 11.4841 38.476 12.4362 38.0878 13.536C37.5968 14.9422 37.6819 16.4855 38.3245 17.8291C38.9671 19.1727 40.115 20.2074 41.5175 20.7071L48.9829 23.3206C49.5755 23.5321 50.2 23.6404 50.8292 23.6408C51.7808 23.6434 52.7175 23.404 53.5511 22.945C54.3848 22.486 55.0882 21.8226 55.5951 21.0169C56.1021 20.2113 56.396 19.29 56.4492 18.3395C56.5025 17.389 56.3134 16.4405 55.8996 15.5832C55.5814 14.9187 55.1346 14.3238 54.5851 13.833C54.0357 13.3422 53.3944 12.9653 52.6985 12.7239L45.2674 10.1048C44.6744 9.89512 44.0499 9.78871 43.421 9.79026L43.4039 9.77881Z" fill="black"/>
<path d="M43.4258 9.76178C44.0568 9.76364 44.6829 9.87187 45.2779 10.082L52.709 12.7011C53.9629 13.1393 55.0211 14.0078 55.6958 15.1523C56.3706 16.2969 56.6182 17.6435 56.3949 18.9534C56.1715 20.2632 55.4916 21.4515 54.4757 22.3075C53.4599 23.1636 52.1737 23.6319 50.8455 23.6295C50.2144 23.6295 49.588 23.5212 48.9935 23.3092L41.528 20.6958C40.4788 20.3279 39.5621 19.6569 38.8942 18.7676C38.2263 17.8783 37.8371 16.8108 37.7759 15.7002C37.7147 14.5895 37.9843 13.4857 38.5504 12.5283C39.1166 11.571 39.9539 10.8032 40.9564 10.3222C41.7169 9.95106 42.5511 9.75562 43.3972 9.75034L43.4258 9.76178ZM43.3972 9.17847C41.933 9.1794 40.5163 9.69804 39.3973 10.6428C38.2783 11.5876 37.5292 12.8977 37.2823 14.3416C37.0354 15.7854 37.3065 17.2701 38.0479 18.5333C38.7892 19.7965 39.953 20.7569 41.3337 21.2448L48.7991 23.8639C49.4562 24.0965 50.1484 24.2145 50.8455 24.2127C52.3137 24.2184 53.7363 23.7029 54.8602 22.7579C55.9841 21.8128 56.7365 20.4995 56.9834 19.0516C57.2303 17.6038 56.9558 16.1152 56.2087 14.8508C55.4616 13.5863 54.2904 12.6281 52.9033 12.1464L45.4494 9.5273C44.792 9.29554 44.1 9.17758 43.403 9.17847H43.3972Z" fill="black"/>
</g>
<defs>
<clipPath id="clip0_2317_10202">
<rect width="60.2206" height="45" fill="white"/>
</clipPath>
</defs>
</svg>
