<svg width="45" height="45" viewBox="0 0 45 45" fill="none" xmlns="http://www.w3.org/2000/svg">
<path d="M15.9088 8H13.2725V10.6364H15.9088V8Z" fill="#454545"/>
<path d="M31.7272 8H29.0908V10.6364H31.7272V8Z" fill="#454545"/>
<path d="M34.3636 18.5454V15.9091H31.7273V13.2727H29.0909V10.6364H26.4545V13.2727H23.8182H21.1818H18.5455V10.6364H15.9091V13.2727H13.2727V15.9091H10.6364V18.5454H8V21.1818V23.8182V26.4545V29.0909H10.6364V26.4545V23.8182V21.1818H13.2727V23.8182V26.4545V29.0909H15.9091V26.4545H18.5455H21.1818V23.8182H23.8182V26.4545H26.4545H29.0909V29.0909H31.7273V26.4545V23.8182V21.1818H34.3636V23.8182V26.4545V29.0909H37V26.4545V23.8182V21.1818V18.5454H34.3636ZM15.9091 18.5454V15.9091H18.5455V18.5454V21.1818H15.9091V18.5454ZM26.4545 21.1818V18.5454V15.9091H29.0909V18.5454V21.1818H26.4545Z" fill="#454545"/>
<path d="M18.5455 31.7273H21.1819V29.0909H18.5455H15.9092V31.7273H18.5455Z" fill="#454545"/>
<path d="M23.8184 29.0909V31.7273H26.4547H29.0911V29.0909H26.4547H23.8184Z" fill="#454545"/>
<path d="M7 32.5989H6.5V33.0989V38.9011V39.4011H7H9.51123C10.0254 39.4011 10.4698 39.3591 10.8262 39.2601L10.8279 39.2597C11.2686 39.1356 11.653 38.9536 11.955 38.6954C12.2062 38.4813 12.4147 38.2263 12.5825 37.9351V38.9011V39.4011H13.0825H14.417H14.917V38.9011V37.8707C15.2264 38.3884 15.6703 38.7877 16.2325 39.0676L16.2344 39.0685C16.8298 39.362 17.511 39.5 18.2633 39.5C18.8634 39.5 19.4541 39.4009 20.0334 39.2044L20.0347 39.2039C20.5039 39.0434 20.9089 38.8534 21.2309 38.6246V38.9011V39.4011H21.7309H23.0654H23.5654V38.9011V34.5805H24.7751V38.9011V39.4011H25.2751H26.6096H26.752H27.1096H27.5208H28.9365H29.2707L29.3985 39.0923L29.8162 38.0831H31.7971L32.2431 39.1016L32.3742 39.4011H32.7011H33.8472H34.1528H34.3472H34.9304H39H39.5V38.9011V37.9235V37.4235H39H36.1817V33.1464V32.6464H35.6817H34.3472H33.8472V33.1464V37.0262L31.9613 32.8914L31.8278 32.5989H31.5063H30.0952H29.77L29.6382 32.8962L29.0663 34.1851V34.0805V33.0989V32.5989H28.5663H23.5654H23.3139H23.0654H22.8139H21.7309H21.2309V33.0989V33.9261C21.031 33.5707 20.7478 33.2725 20.3856 33.0368C19.8134 32.6598 19.0638 32.5 18.1912 32.5C17.5129 32.5 16.91 32.6029 16.4026 32.8334C15.7664 33.1203 15.2634 33.5428 14.917 34.1056V33.0989V32.5989H14.417H13.0825H12.5825V33.0989V34.068C12.4344 33.8104 12.2514 33.5793 12.033 33.3771C11.6919 33.0615 11.2847 32.8453 10.8221 32.7257L10.821 32.7254C10.4712 32.6358 10.0021 32.5989 9.43909 32.5989H7ZM19.1432 37.2678C19.0553 37.3083 18.9591 37.3469 18.8541 37.3832C18.6239 37.4613 18.399 37.4987 18.1776 37.4987C17.7222 37.4987 17.3989 37.3647 17.1585 37.1285C16.9376 36.9091 16.7841 36.542 16.7841 35.9327C16.7841 35.382 16.9299 35.0524 17.1411 34.8519C17.3737 34.6338 17.705 34.5013 18.1912 34.5013C18.5044 34.5013 18.7233 34.5686 18.8788 34.6698L18.8788 34.6698L18.8841 34.6732C19.0465 34.776 19.1475 34.9068 19.2037 35.0789L19.2728 35.2902H18.2137H17.7137V35.7902V36.7678V37.2678H18.2137H19.1432ZM21.0901 35.2902H20.5311L21.0855 35.1992L21.2309 35.1753V35.2902H21.0901ZM27.1096 38.5951V34.5805H28.5663H28.8908L27.1096 38.5951ZM10.0307 37.3797L10.0307 37.3797L10.0289 37.3801C9.92135 37.4041 9.69985 37.4235 9.33089 37.4235H8.83451V34.5805H8.93414C9.48484 34.5805 9.80174 34.6004 9.93248 34.6263L9.93248 34.6264L9.9362 34.6271C10.1196 34.662 10.243 34.7232 10.3282 34.7939C10.4104 34.862 10.4918 34.9706 10.558 35.1468C10.6169 35.3036 10.6613 35.5774 10.6613 36.004C10.6613 36.4266 10.6179 36.7184 10.5537 36.9048C10.4806 37.1142 10.4062 37.2015 10.3653 37.2336L10.3653 37.2336L10.3613 37.2368C10.2921 37.2924 10.1883 37.3451 10.0307 37.3797ZM8.83451 37.9235H8.33451V37.4235L8.83451 37.9235ZM30.6409 36.1055L30.7896 35.7469L30.9413 36.1055H30.6409Z" stroke="#454545"/>
</svg>
