<svg width="45" height="45" viewBox="0 0 45 45" fill="none" xmlns="http://www.w3.org/2000/svg">
<path fill-rule="evenodd" clip-rule="evenodd" d="M10.9362 32L5.48049 14.3594C5.2297 13.5425 5.7062 12.677 6.55387 12.429L16.9867 9.39976C17.1372 9.356 17.2927 9.33655 17.4431 9.33655C18.1303 9.33655 18.7673 9.7693 18.9729 10.4403L20.257 14.5976L21.6313 10.9022L21.2802 9.7693C20.6432 7.71738 18.4062 6.55042 16.2895 7.16307L5.85668 10.1923C3.74002 10.8098 2.53623 12.9785 3.16822 15.0304L8.41638 32H10.9362Z" fill="#454545"/>
<path d="M15.6773 24.2542L11.765 22.2996C11.3537 22.0954 11.0126 21.8085 10.7769 21.4535C10.5512 21.1229 10.4258 20.7242 10.4308 20.2817C10.4358 19.8927 10.5412 19.5086 10.7267 19.1682C10.9123 18.8279 11.1782 18.5264 11.5042 18.3027C11.8804 18.0402 12.3017 17.904 12.728 17.8846C13.1092 17.8651 13.4904 17.9332 13.8616 18.0791C14.0723 17.7533 14.3481 17.4859 14.6691 17.2817C15.0303 17.058 15.4466 16.9316 15.9231 16.9316C16.3193 16.9267 16.7206 17.0288 17.0717 17.199C17.4278 17.3692 17.7438 17.622 17.9796 17.9381C18.2454 18.293 18.3808 18.6869 18.4009 19.0904C18.426 19.5086 18.3156 19.9365 18.11 20.3303L18.0999 20.3498L16.0986 24.1278C16.0184 24.2688 15.8328 24.3272 15.6773 24.2542Z" fill="#454545"/>
<path d="M26.3257 20.8263L29.6512 19.144C29.6612 19.1391 29.6763 19.1342 29.6963 19.1245C29.8267 19.0759 29.9722 19.071 30.0926 19.1099C30.228 19.1537 30.3584 19.2461 30.4336 19.3871L32.154 22.5816L32.1741 22.6108C32.2744 22.7907 32.3497 22.9901 32.3998 23.1894L32.4048 23.204C32.45 23.4131 32.4751 23.6125 32.465 23.8167C32.455 24.0209 32.4149 24.2203 32.3446 24.4148C32.2744 24.6044 32.1791 24.7892 32.0537 24.9545C32.0437 24.9691 32.0337 24.9837 32.0236 24.9982C31.9133 25.1392 31.7879 25.2657 31.6525 25.3726C31.507 25.4942 31.3415 25.6012 31.1659 25.6887C31.0004 25.7714 30.8249 25.8297 30.6443 25.8783L30.6142 25.8881C30.4286 25.9318 30.238 25.9561 30.0374 25.9561C29.8167 25.9561 29.601 25.9269 29.3954 25.8735C29.1847 25.8151 28.9891 25.7276 28.8035 25.6206C28.7383 25.5769 28.6781 25.5331 28.6179 25.4845C28.633 25.572 28.653 25.6547 28.6882 25.7373C28.7985 26.0339 28.9841 26.3062 29.2399 26.525C29.3452 26.598 29.3954 26.7341 29.3552 26.8654C29.3051 27.0258 29.1295 27.1134 28.964 27.0599L26.3358 26.2576V26.2527C26.2154 26.2187 26.1301 26.1214 26.1151 25.995C26.1 25.8248 26.2254 25.679 26.3959 25.6644C26.742 25.6303 27.063 25.5088 27.3389 25.3192C27.4091 25.2705 27.4794 25.217 27.5446 25.1538C27.4643 25.1587 27.3891 25.1587 27.3088 25.1538C27.0931 25.149 26.8825 25.1052 26.6718 25.0323C26.4762 24.9642 26.2806 24.8718 26.095 24.7454C25.9345 24.6384 25.7941 24.512 25.6636 24.3759C25.5383 24.2348 25.4229 24.0744 25.3326 23.9091C25.2373 23.7437 25.1721 23.5638 25.1169 23.3791C25.0668 23.1992 25.0367 23.0144 25.0367 22.8296C25.0317 22.6157 25.0618 22.4066 25.1169 22.2121C25.1721 22.0127 25.2574 21.8328 25.3677 21.6675L25.3727 21.6529C25.4881 21.4827 25.6235 21.3272 25.784 21.1813C25.9495 21.0451 26.1351 20.9236 26.3257 20.8263Z" fill="#454545"/>
<path fill-rule="evenodd" clip-rule="evenodd" d="M35.2725 32L41.027 16.5134C41.3681 15.5895 41.3179 14.5879 40.8865 13.6932C40.4502 12.7985 39.6878 12.1227 38.7348 11.792L28.4875 8.21334C27.5345 7.8827 26.5013 7.93132 25.5784 8.34948C24.6555 8.77251 23.9583 9.51159 23.6172 10.4354L17.1418 27.8573C16.8007 28.7811 16.8509 29.7827 17.2823 30.6774C17.5381 31.202 17.9061 31.6513 18.3588 32H23.6926L20.1162 30.7504C19.6648 30.5948 19.3036 30.2738 19.098 29.8508C18.8973 29.4278 18.8723 28.9561 19.0328 28.5185L25.5031 11.0919C25.6636 10.6542 25.9947 10.3042 26.4311 10.1048C26.8674 9.9103 27.354 9.88113 27.8054 10.0416L38.0526 13.6203C38.504 13.7759 38.8652 14.0968 39.0708 14.5198C39.2715 14.9428 39.2965 15.4145 39.136 15.8521L33.1358 32H35.2725Z" fill="#454545"/>
<path d="M6.62109 38.9202V39.4202H7.12109H8.51686H9.01686V38.9202V37.5266H9.6902C10.2497 37.5266 10.7575 37.4356 11.1964 37.2321L10.986 36.7785L11.1953 37.2326C11.6302 37.0322 11.9828 36.7415 12.2296 36.3544L11.808 36.0856L12.2296 36.3544C12.2879 36.263 12.3389 36.1687 12.3828 36.0717C12.3927 36.7496 12.5445 37.3599 12.8608 37.8818C13.1801 38.4086 13.6186 38.8147 14.1685 39.0926C14.7129 39.3678 15.3182 39.5 15.9735 39.5C16.6246 39.5 17.2271 39.3688 17.7707 39.0962L17.7713 39.0959C18.3231 38.8182 18.763 38.4124 19.0826 37.8853C19.4126 37.3448 19.5648 36.7086 19.5648 36C19.5648 35.2914 19.4126 34.6552 19.0826 34.1146C18.763 33.5876 18.323 33.1826 17.771 32.9068C17.2274 32.6322 16.6247 32.5 15.9735 32.5C15.3185 32.5 14.7134 32.632 14.1692 32.907C13.6189 33.1831 13.1801 33.5885 12.8608 34.1154C12.7422 34.311 12.6468 34.5192 12.5732 34.7388C12.5321 34.3894 12.4213 34.0631 12.2353 33.7674C11.9945 33.3793 11.649 33.0859 11.2208 32.8824C10.7848 32.6734 10.2805 32.5798 9.72566 32.5798H7.12109H6.62109V33.0798V38.9202ZM9.46455 35.5371H9.01686V34.5894H9.45811C9.68301 34.5894 9.82851 34.624 9.91817 34.6655L9.91816 34.6656L9.92222 34.6674C10.018 34.7108 10.0641 34.7592 10.0907 34.8045L10.0906 34.8045L10.095 34.8116C10.1286 34.8668 10.154 34.9432 10.154 35.0589C10.154 35.1715 10.1291 35.2515 10.092 35.314L10.092 35.314L10.0907 35.3162C10.0628 35.3637 10.0141 35.4151 9.91515 35.4623C9.82843 35.5028 9.68624 35.5371 9.46455 35.5371ZM16.9904 35.1747L16.9904 35.1747L16.9918 35.1774C17.0888 35.3742 17.1497 35.6416 17.1497 36C17.1497 36.3584 17.0888 36.6258 16.9918 36.8226L16.9904 36.8253C16.8925 37.027 16.7637 37.1638 16.6052 37.2561C16.4416 37.3514 16.2368 37.4078 15.9735 37.4078C15.7103 37.4078 15.5055 37.3514 15.3419 37.2561C15.183 37.1636 15.0528 37.0262 14.9528 36.824C14.8573 36.6266 14.7973 36.3586 14.7973 36C14.7973 35.6414 14.8573 35.3734 14.9528 35.176C15.0528 34.9738 15.183 34.8364 15.3419 34.7439L15.0903 34.3118L15.3419 34.7439C15.5055 34.6486 15.7103 34.5922 15.9735 34.5922C16.2368 34.5922 16.4416 34.6486 16.6052 34.7439C16.7637 34.8362 16.8925 34.973 16.9904 35.1747ZM19.5988 38.9202V39.4202H20.0988H21.4945H21.9945V38.9202V37.4564L22.1416 37.2976L23.5901 39.221L23.7401 39.4202H23.9895H25.6593H25.8571H26.3571H26.6741H30.8184H31.3184V38.9202V37.9021V37.4021H30.8184H28.2529V37.0076H30.5767H31.0767V36.5076V35.4895V34.9895H30.5767H28.2529V34.5979H30.8055H31.3055V34.0979V33.0798V32.5798H30.8055H26.7838H26.3571H25.8571H25.6302H23.9573H23.7383L23.5898 32.7408L21.9945 34.4699V33.0798V32.5798H21.4945H20.0988H19.5988V33.0798V38.9202ZM25.8571 33.569V38.3571L23.8356 35.7268L25.8571 33.569ZM31.4152 38.9202V39.4202H31.9152H33.311H33.811V38.9202V37.3498H34.0477L35.1523 39.1787L35.2981 39.4202H35.5803H37.1211H38.0174L37.5466 38.6575L36.4289 36.847C36.6606 36.6919 36.8584 36.5005 37.0153 36.2701L37.0162 36.2688C37.2693 35.8947 37.3858 35.46 37.3858 34.9876C37.3858 34.5183 37.271 34.0852 37.0247 33.7086C36.7801 33.3296 36.4296 33.0491 35.999 32.8595C35.5668 32.6663 35.0684 32.5798 34.5198 32.5798H31.9152H31.4152V33.0798V38.9202ZM34.2587 35.3574H33.811V34.5894H34.2522C34.4817 34.5894 34.6359 34.62 34.7341 34.6592L34.7341 34.6593L34.7403 34.6617C34.8406 34.7001 34.8786 34.7415 34.896 34.7684L34.8959 34.7685L34.899 34.7732C34.9223 34.8083 34.9481 34.8706 34.9481 34.9876C34.9481 35.1023 34.9226 35.1589 34.9028 35.188L34.9028 35.188L34.8996 35.1927C34.8839 35.2163 34.8483 35.2552 34.7505 35.291C34.6473 35.3289 34.489 35.3574 34.2587 35.3574Z" stroke="#454545"/>
</svg>
