<?xml version="1.0" encoding="utf-8"?>
<!-- Generator: Adobe Illustrator 27.0.0, SVG Export Plug-In . SVG Version: 6.00 Build 0)  -->
<svg version="1.1" id="圖層_1" xmlns="http://www.w3.org/2000/svg" xmlns:xlink="http://www.w3.org/1999/xlink" x="0px" y="0px"
	 viewBox="0 0 104 35" style="enable-background:new 0 0 104 35;" xml:space="preserve">
<style type="text/css">
	.st0{fill:#351A03;}
	.st1{fill:#D2AC47;}
	.st2{fill:#EDC967;}
	.st3{fill:url(#SVGID_1_);}
	.st4{fill:url(#SVGID_00000066517163489399051040000012215552375667622535_);}
	.st5{fill:url(#SVGID_00000139267394629889345110000002932526573008231049_);}
	.st6{fill:url(#SVGID_00000034803238985727581180000012296445474059709339_);}
	.st7{fill:url(#SVGID_00000167369616381015431890000004530822425254820000_);}
	.st8{fill:#074368;}
	.st9{fill:#5EC1F7;}
	.st10{fill:url(#SVGID_00000042701970161554764020000010254558998276688005_);}
	.st11{fill:url(#SVGID_00000158726247813786727110000008767477359070601102_);}
	.st12{fill:url(#SVGID_00000007388651494625465530000007770689801218920114_);}
	.st13{fill:url(#SVGID_00000145017429100691878140000010686644821336381884_);}
	.st14{fill:url(#SVGID_00000016043701997633454260000015094475232855398047_);}
	.st15{fill:url(#SVGID_00000158000860258497610200000006052806810443480254_);}
	.st16{fill:url(#SVGID_00000051359436829063838700000012954804362635879870_);}
	.st17{fill:url(#SVGID_00000038392743876219560380000013605040340036511127_);}
	.st18{fill:url(#SVGID_00000003792760636929821460000012122773383769962394_);}
	.st19{fill:url(#SVGID_00000152972268240010593750000001234145516249944460_);}
	.st20{fill:url(#SVGID_00000008832781049408347500000012853840506037362343_);}
	.st21{fill:url(#SVGID_00000016765854742377342110000013762912664465949581_);}
	.st22{fill:url(#SVGID_00000078046318917959523820000007982289290621009825_);}
	.st23{fill:url(#SVGID_00000137853186746332762750000013312227674605925780_);}
	.st24{fill:url(#SVGID_00000016042910345637009900000010068444759254105487_);}
	.st25{fill:url(#SVGID_00000068665120806745781450000010582252885452274874_);}
	.st26{fill:url(#SVGID_00000008849199095881454600000004140504225194724241_);}
	.st27{fill:url(#SVGID_00000072238558124218462770000011922543582446408590_);}
	.st28{fill:url(#SVGID_00000067224567984697510740000006106639064224347794_);}
	.st29{fill:url(#SVGID_00000085967124289683297160000017931283587438990504_);}
	.st30{fill:#FF1815;}
	.st31{fill:#FFFFFF;}
</style>
<g>
	<g>
		<g>
			<path class="st0" d="M3.8,18.1c-0.4,0-0.8-0.1-1.1-0.4c-0.3-0.3-0.6-0.7-0.6-1.1L0.5,3.9c0-0.4,0-1,0.3-1.2
				C1,2.2,1.5,1.9,1.9,1.8l2.4-0.4c0.1,0,0.1,0,0.3,0c0.4,0,0.7,0.1,1,0.4C5.9,2.1,6,2.5,6.2,3.1l1,8.2l3.7-0.7c0.1,0,0.1,0,0.3,0
				c0.4,0,0.7,0.1,1,0.4c0.6,0.1,0.8,0.6,0.8,1.1l0.3,2.5c0,0.4,0,1-0.3,1.4s-0.7,0.7-1.1,0.8L4,18.2C4,18.1,3.8,18.1,3.8,18.1z"/>
			<path class="st0" d="M3.8,17.8c-0.3,0-0.7-0.1-0.8-0.4c-0.3-0.3-0.4-0.6-0.6-1L0.8,3.9c0-0.4,0-0.8,0.3-1.1
				c0.3-0.4,0.6-0.6,1-0.7l2.4-0.4c0.1,0,0.1,0,0.3,0c0.3,0,0.6,0.1,0.8,0.3c0.3,0.3,0.4,0.6,0.6,1l1.1,8.5l4-0.7c0.1,0,0.1,0,0.3,0
				c0.3,0,0.6,0.1,0.8,0.3c0.3,0.3,0.4,0.6,0.6,1l0.1,2.6c0,0.4,0,0.8-0.3,1.1c-0.3,0.4-0.6,0.6-1,0.7L3.8,17.8
				C4,17.8,3.8,17.8,3.8,17.8z"/>
			<path class="st0" d="M3.4,18.1c-0.3,0-0.6-0.1-0.8-0.3c-0.3-0.3-0.4-0.6-0.4-1L0.5,4.2c0-0.4,0-0.7,0.3-1.1
				c0.1-0.4,0.6-0.6,1-0.7l2.4-0.4c0.1,0,0.1,0,0.3,0c0.3,0,0.6,0.1,0.8,0.3c0.3,0.3,0.4,0.6,0.6,1l1.1,8.5L11,11c0.1,0,0.1,0,0.3,0
				c0,0.3,0.3,0.3,0.4,0.6c0.3,0.3,0.4,0.6,0.6,1l0.3,2.5c0,0.4,0,0.8-0.3,1.1c-0.3,0.3-0.6,0.6-0.8,0.6l-7.9,1.4
				C3.5,18.1,3.5,18.1,3.4,18.1z"/>
			<path class="st0" d="M12,12.5c0-0.3-0.1-0.6-0.4-0.8c-0.3-0.1-0.6-0.3-0.8-0.1l-4.4,0.7L5.2,3.5c0-0.3-0.1-0.6-0.4-0.8
				C4.5,2.5,4.4,2.4,4.1,2.4L1.7,2.8C1.3,2.9,1.2,3.1,0.9,3.3C0.8,3.6,0.8,3.9,0.8,4.2l1.7,12.5c0,0.3,0.1,0.6,0.4,0.8
				c0.3,0.1,0.6,0.3,0.8,0.3l7.9-1.4c0.3,0,0.6-0.3,0.7-0.4c0.1-0.3,0.3-0.6,0.1-1L12,12.5z"/>
			<path class="st0" d="M18.8,17.6c-0.3,0-0.6,0-0.8,0c-1-0.1-1.8-0.4-2.5-0.8s-1.4-1-1.9-1.7c-0.4-0.7-0.8-1.5-1.1-2.5
				c-0.1-1-0.3-1.9-0.1-2.9L13,2.2c0-0.6,0.3-1,0.6-1.2c0.3-0.3,0.7-0.4,1.1-0.4h0.1l2.4,0.3c0.4,0,0.8,0.3,1.1,0.7s0.4,0.8,0.3,1.4
				l-0.7,7.5c0,0.4,0,0.6,0,0.6c0,0.1,0.1,0.3,0.1,0.3l0.1,0.1c0.4,0,0.4,0,0.4,0l0,0h0.1c0,0,0.1,0,0.1-0.1c0,0,0.1,0,0.1-0.3
				c0,0,0.1-0.3,0.1-0.6l0.8-7.4c0-0.6,0.3-1,0.6-1.2c0.3-0.3,0.7-0.4,1.1-0.4h0.1l2.4,0.3c0.4,0,0.8,0.3,1.1,0.7
				c0.3,0.4,0.4,0.8,0.3,1.4l-0.7,7.5c-0.1,1-0.3,1.9-0.7,2.8c-0.4,0.8-0.8,1.5-1.5,2.2c-0.7,0.6-1.4,1-2.2,1.2
				C20.1,17.6,19.4,17.6,18.8,17.6z"/>
			<path class="st0" d="M18.8,17.4c-0.3,0-0.6,0-0.8,0c-0.8-0.1-1.7-0.4-2.4-0.8c-0.7-0.4-1.4-1-1.8-1.7c-0.6-0.6-0.8-1.4-1.1-2.4
				c-0.3-0.8-0.3-1.8-0.1-2.8l0.7-7.5c0-0.4,0.1-0.8,0.4-1.1s0.6-0.4,0.8-0.4h0.1l2.5,0.4c0.4,0,0.7,0.3,1,0.6s0.3,0.7,0.3,1.1
				l-0.7,7.5c0,0.4,0,0.6,0,0.7c0,0.3,0.1,0.3,0.1,0.4c0.1,0.1,0.1,0.1,0.3,0.1c0.3,0.1,0.4,0.1,0.4,0.1l0,0c0.1,0,0.1,0,0.3,0
				c0.1,0,0.1,0,0.3-0.1c0,0,0.1-0.1,0.3-0.3c0-0.1,0.1-0.3,0.1-0.7l0.7-7.5c0-0.4,0.1-0.8,0.6-1.1c0.3-0.3,0.6-0.4,0.8-0.4h0.1
				l2.4,0.4c0.4,0,0.7,0.3,1,0.6c0.3,0.3,0.3,0.7,0.3,1.1l-0.7,7.5c-0.1,1-0.3,1.9-0.7,2.8c-0.4,0.8-0.8,1.5-1.4,2.1
				c-0.6,0.6-1.2,1-2.1,1.2C19.9,17.4,19.4,17.4,18.8,17.4L18.8,17.4z"/>
			<path class="st0" d="M18.4,17.6c-0.3,0-0.6,0-0.7,0c-0.8-0.1-1.7-0.4-2.4-0.8c-0.7-0.4-1.2-1-1.8-1.7c-0.4-0.7-0.8-1.4-1.1-2.4
				c-0.3-0.8-0.3-1.8-0.1-2.8L13,2.5c0-0.4,0.1-0.7,0.4-1c0.3-0.3,0.6-0.4,0.8-0.4h0.1l2.4,0.4c0.4,0,0.7,0.3,1,0.6
				C18,2.4,18,2.8,18,3.2l-0.7,7.5c0,0.3,0,0.6,0,0.7c0,0.1,0.1,0.3,0.1,0.4c0.1,0.1,0.1,0.1,0.3,0.3s0.3,0.1,0.3,0.1s0,0,0.1,0
				s0.1,0,0.3,0c0.1,0,0.1,0,0.3-0.1c0,0,0.1-0.1,0.3-0.4c0-0.1,0.1-0.3,0.1-0.7l0.8-7.5c0-0.4,0.1-0.7,0.4-1
				c0.3-0.3,0.6-0.4,0.8-0.4h0.1l2.4,0.3c0.4,0,0.7,0.3,1,0.6s0.3,0.7,0.3,1.1l-0.7,7.5c-0.1,1-0.3,1.9-0.7,2.6
				c-0.4,0.8-0.8,1.5-1.4,2.1c-0.6,0.6-1.2,1-2.1,1.2C19.6,17.6,19.1,17.6,18.4,17.6L18.4,17.6z"/>
			<path class="st0" d="M24.4,3.1c-0.1-0.3-0.4-0.4-0.7-0.4l-2.4-0.3c-0.3,0-0.6,0-0.8,0.3s-0.4,0.6-0.4,0.8L19.4,11
				c0,0.4-0.1,0.7-0.1,0.8c-0.1,0.1-0.3,0.4-0.4,0.4c-0.1,0.1-0.3,0.1-0.4,0.1c-0.1,0-0.3,0-0.4,0s-0.3,0-0.4-0.1
				c-0.1,0-0.3-0.1-0.4-0.3c-0.1-0.1-0.1-0.3-0.3-0.6c0-0.3-0.1-0.6,0-0.8l0.7-7.5c0-0.3,0-0.7-0.3-0.8c-0.1-0.3-0.4-0.4-0.7-0.4
				l-2.2-0.3c-0.3,0-0.6,0-0.8,0.3c-0.1,0.3-0.3,0.6-0.4,0.8l-0.6,7.5c-0.1,1,0,1.9,0.1,2.6c0.1,0.8,0.6,1.5,1,2.2s1,1.1,1.7,1.5
				c0.7,0.4,1.4,0.7,2.2,0.7c0.8,0.1,1.7,0,2.4-0.1c0.7-0.3,1.4-0.6,1.9-1.1c0.6-0.6,1-1.1,1.4-1.9c0.3-0.8,0.6-1.7,0.7-2.6l0.7-7.5
				C24.6,3.6,24.5,3.3,24.4,3.1z"/>
			<path class="st0" d="M31.7,17.6c-0.7,0-1.4-0.1-1.9-0.3c-1-0.3-1.8-0.8-2.5-1.4c-0.7-0.7-1.4-1.5-1.8-2.4c-0.6-1-0.8-2.1-1-3.2
				s0-2.2,0.3-3.3C25.1,6,25.5,5,26,4.2s1.2-1.5,2.1-2.1c0.8-0.6,1.8-1,2.8-1.1c0.4,0,0.8-0.1,1.2-0.1c0.4,0,0.7,0,1.1,0.1
				c0.7,0.1,1.4,0.4,1.9,0.7c0.6,0.3,1.1,0.7,1.7,1.2c0.4,0.4,1,1,1.4,1.5c0.3,0.4,0.4,1,0.3,1.4c-0.3,0.6-0.6,1-0.8,1.2
				c0,0,0,0-2.2,1.4c-0.1,0.1-0.4,0.3-0.7,0.3c-0.1,0-0.1,0-0.3,0c-0.1,0-0.3,0-0.4-0.1c-0.3-0.1-0.7-0.4-0.8-0.7
				c-0.3-0.3-0.6-0.6-0.7-0.7c-0.3-0.1-0.4-0.1-0.7-0.1c-0.1,0-0.1,0-0.3,0c-0.1,0-0.4,0.1-0.6,0.3c-0.1,0.1-0.4,0.3-0.6,0.6
				c-0.1,0.3-0.3,0.4-0.3,0.7s-0.1,0.6,0,0.8c0,0.3,0.1,0.6,0.3,0.8c0.1,0.3,0.3,0.4,0.4,0.6c0.1,0.3,0.3,0.4,0.6,0.4
				c0.1,0,0.3,0.1,0.4,0.1H32c0.3,0,0.6-0.1,0.8-0.4c0.3-0.3,0.4-0.6,0.6-0.8c0.1-0.4,0.4-0.7,0.7-1c0.1-0.1,0.4-0.3,0.7-0.3
				c0.1,0,0.1,0,0.3,0s0.3,0,0.4,0c2.4,0.7,2.4,0.7,2.4,0.7c0.4,0.1,0.8,0.6,1,1s0.3,1,0,1.4l0,0c-0.3,0.7-0.6,1.4-1,1.9
				c-0.4,0.7-0.8,1.2-1.4,1.7c-0.6,0.4-1.1,0.8-1.8,1.2c-0.7,0.3-1.4,0.6-2.2,0.7C32.4,17.6,32,17.6,31.7,17.6z"/>
			<path class="st0" d="M31.7,17.4c-0.7,0-1.2-0.1-1.9-0.3c-0.8-0.3-1.7-0.8-2.5-1.4c-0.7-0.7-1.4-1.4-1.8-2.4s-0.8-1.9-0.8-3.1
				c-0.1-1.1,0-2.2,0.1-3.2c0.3-1,0.7-1.9,1.2-2.8s1.2-1.5,2.1-2.1c0.8-0.6,1.7-1,2.8-1.1C31.3,1.1,31.7,1,32,1c0.4,0,0.7,0,1.1,0.1
				c0.7,0.1,1.2,0.3,1.9,0.7c0.6,0.3,1.1,0.7,1.5,1.2c0.4,0.4,0.8,1,1.2,1.5c0.3,0.4,0.3,0.8,0.3,1.2c-0.1,0.4-0.3,0.8-0.6,1
				c0,0,0,0-2.2,1.4c-0.1,0.1-0.3,0.1-0.6,0.1h-0.1c-0.1,0-0.3,0-0.4,0c-0.3-0.1-0.6-0.3-0.8-0.6c-0.3-0.4-0.6-0.7-0.8-0.8
				c-0.1-0.1-0.4-0.1-0.7-0.1c-0.1,0-0.3,0-0.4,0c-0.3,0-0.4,0.1-0.7,0.3c-0.3,0.1-0.4,0.4-0.6,0.7c-0.1,0.3-0.3,0.6-0.3,0.8
				c-0.1,0.3-0.1,0.7,0,1c0,0.3,0.1,0.6,0.3,0.8s0.3,0.6,0.6,0.7c0.1,0.1,0.3,0.4,0.6,0.4c0.1,0,0.3,0.1,0.4,0.1c0.1,0,0.1,0,0.3,0
				c0.4,0,0.7-0.3,1-0.4c0.3-0.3,0.6-0.6,0.7-1s0.4-0.7,0.7-0.8c0.1-0.1,0.4-0.1,0.6-0.3h0.1c0.1,0,0.3,0,0.4,0
				c2.4,0.7,2.4,0.7,2.4,0.7c0.4,0.1,0.7,0.4,0.8,0.8c0.1,0.4,0.1,0.8,0,1.2l0,0c-0.3,0.7-0.6,1.2-1,1.9c-0.4,0.6-0.8,1.1-1.2,1.7
				c-0.6,0.4-1.1,0.8-1.7,1.1c-0.7,0.3-1.4,0.6-2.1,0.7C32.3,17.4,32,17.4,31.7,17.4L31.7,17.4z"/>
			<path class="st0" d="M31.3,17.6c-0.7,0-1.2-0.1-1.9-0.3c-0.8-0.3-1.7-0.7-2.4-1.4c-0.7-0.7-1.2-1.4-1.8-2.4
				c-0.4-1-0.8-1.9-0.8-3.1c-0.1-1.1,0-2.2,0.1-3.2c0.3-1,0.7-1.9,1.2-2.8c0.6-0.8,1.2-1.5,2.1-2.1s1.7-1,2.6-1.1
				c0.4,0.1,0.8,0.1,1.1,0.1c0.4,0,0.8,0,1.1,0c0.7,0.1,1.2,0.3,1.8,0.7c0.7,0.3,1.1,0.7,1.7,1.2c0.4,0.4,0.8,1,1.2,1.5
				c0.3,0.3,0.3,0.7,0.3,1.1c0,0.4-0.3,0.7-0.6,1c0,0,0,0-2.2,1.4c-0.1,0.1-0.3,0.1-0.6,0.1h-0.1c-0.1,0-0.3,0-0.4,0
				c-0.3-0.1-0.6-0.3-0.7-0.6c-0.3-0.4-0.6-0.7-0.8-0.8s-0.6-0.1-0.8-0.1c-0.1,0-0.3,0-0.4,0c-0.3,0-0.4,0.1-0.7,0.3
				c-0.3,0.1-0.4,0.4-0.6,0.7c-0.1,0.3-0.1,0.6-0.3,0.8s-0.1,0.7,0,1c0,0.3,0.1,0.7,0.3,1c0.1,0.3,0.3,0.6,0.6,0.7
				c0.1,0.1,0.4,0.3,0.7,0.4c0.1,0,0.3,0.1,0.6,0.1c0.1,0,0.1,0,0.3,0c0.4,0,0.7-0.3,1-0.6c0.3-0.3,0.6-0.6,0.7-1
				c0.1-0.3,0.3-0.6,0.6-0.7c0.1-0.1,0.3-0.1,0.6-0.1h0.1c0.1,0,0.3,0,0.4,0c2.4,0.7,2.4,0.7,2.4,0.7c0.3,0.1,0.6,0.4,0.8,0.7
				c0.1,0.4,0.1,0.8,0,1.1l0,0c-0.3,0.7-0.6,1.2-1,1.9c-0.4,0.6-0.8,1.1-1.2,1.7c-0.6,0.4-1.1,0.8-1.7,1.1c-0.6,0.3-1.2,0.6-2.1,0.7
				C32,17.6,31.7,17.6,31.3,17.6L31.3,17.6z"/>
			<path class="st0" d="M37.3,10.7L34.9,10c-0.1,0-0.3,0-0.4,0s-0.3,0.1-0.4,0.1c-0.3,0.1-0.4,0.4-0.4,0.6c-0.1,0.4-0.4,0.8-0.8,1.1
				c-0.3,0.3-0.7,0.6-1.2,0.6c-0.3,0-0.6,0-0.8-0.1c-0.3-0.1-0.6-0.3-0.8-0.6c-0.1-0.1-0.3-0.4-0.4-0.7c-0.1-0.3-0.3-0.7-0.3-1
				c0-0.4,0-0.7,0-1.1c0.1-0.4,0.3-0.7,0.4-1s0.4-0.6,0.7-0.7c0.3-0.1,0.6-0.3,0.8-0.3c0.6-0.1,1,0,1.2,0.1c0.4,0.1,0.7,0.6,1,1
				c0.1,0.3,0.4,0.4,0.6,0.4c0.1,0,0.3,0,0.4,0s0.3-0.1,0.4-0.1c0,0,2.1-1.4,2.2-1.4c0.3-0.1,0.4-0.4,0.4-0.8c0-0.3,0-0.7-0.1-1
				C36.9,4.6,36.5,4,36,3.6c-0.4-0.4-1-0.8-1.5-1.1c-0.6-0.3-1.1-0.6-1.8-0.6c-0.7-0.1-1.4-0.1-2.1,0c-1,0.1-1.8,0.4-2.6,1
				c-0.7,0.6-1.4,1.2-1.9,1.9c-0.6,0.8-1,1.7-1.1,2.6c-0.3,1-0.3,2.1-0.1,3.1c0,1.1,0.3,2.1,0.7,2.9c0.4,0.8,1,1.7,1.7,2.2
				c0.7,0.6,1.5,1.1,2.4,1.4c0.8,0.3,1.8,0.4,2.6,0.3c0.7-0.1,1.4-0.3,1.9-0.6s1.1-0.7,1.7-1.1c0.4-0.4,0.8-1,1.2-1.5
				c0.3-0.6,0.7-1.1,0.8-1.8l0,0c0.1-0.3,0.1-0.7,0-1C37.8,11,37.6,10.7,37.3,10.7z"/>
			<path class="st0" d="M40.2,18.1c-0.4,0-0.8-0.1-1.1-0.4c-0.3-0.3-0.6-0.7-0.6-1.2L37.3,3.7c0-0.4,0-1,0.3-1.2
				c0.3-0.4,0.7-0.7,1.1-0.8L41,1.4c0.1,0,0.1,0,0.3,0c0.4,0,0.8,0.1,1.1,0.4C42.7,2.1,43,2.5,43,3.1v0.1l0.6-1.1
				c0.1-0.3,0.4-0.6,0.7-0.8c0.3-0.3,0.6-0.4,1-0.4l3.1-0.4c0.1,0,0.1,0,0.1,0c0.6,0,1.1,0.4,1.4,1c0.1,0.6,0.1,1.1-0.1,1.5l-3.2,6
				c0.3,0.3,0.6,0.6,0.8,0.8c0.4,0.4,1,0.8,1.4,1.4l1.4,1.2c0.4,0.4,0.8,0.8,1.2,1.1l0,0c0.4,0.4,0.6,1,0.6,1.4
				c0,0.8-0.6,1.4-1.4,1.5l-3.3,0.4c-0.1,0-0.1,0-0.3,0c-0.3,0-0.4,0-0.7-0.1c-0.3-0.1-0.6-0.3-0.8-0.6L44.2,15v0.4
				c0,0.4,0,1-0.3,1.4c-0.3,0.4-0.7,0.7-1.1,0.7l-2.4,0.3C40.3,18.1,40.2,18.1,40.2,18.1z"/>
			<path class="st0" d="M40.2,17.8c-0.3,0-0.7-0.1-1-0.4c-0.3-0.3-0.4-0.6-0.4-1L37.6,3.7c0-0.4,0-0.8,0.3-1.1
				c0.3-0.4,0.6-0.6,1-0.7l2.4-0.3h0.1c0.3,0,0.7,0.1,0.8,0.4c0.3,0.3,0.4,0.7,0.6,1.1l0.1,1.1l1-2.1c0.1-0.3,0.3-0.4,0.6-0.7
				c0.3-0.1,0.6-0.3,0.8-0.3l3.1-0.4h0.1c0.6,0,1,0.3,1.1,0.8c0.1,0.4,0.1,1,0,1.4l-3.3,6.2c0.3,0.3,0.6,0.6,1,1
				c0.4,0.4,1,0.8,1.4,1.4l1.4,1.2c0.4,0.4,0.8,0.8,1.2,1.2l0,0c0.3,0.3,0.4,0.7,0.4,1.2c0,0.7-0.4,1.1-1.1,1.2L47,16.8
				c-0.1,0-0.1,0-0.3,0c-0.1,0-0.4,0-0.6-0.1c-0.3-0.1-0.6-0.3-0.7-0.4l-1.7-1.8l0.1,1.1c0,0.4,0,0.8-0.3,1.1
				c-0.3,0.3-0.6,0.6-1,0.6l-2.4,0.3C40.3,17.8,40.2,17.8,40.2,17.8z"/>
			<path class="st0" d="M39.8,18.1c-0.3,0-0.7-0.1-0.8-0.4c-0.3-0.3-0.4-0.6-0.4-1L37.3,4c0-0.4,0-0.7,0.3-1.1
				c0.3-0.3,0.6-0.6,1-0.6l2.2-0.1h0.1c0.3,0,0.6,0.1,0.8,0.3c0.3,0.3,0.4,0.6,0.4,1l0.1,1.4l1.2-2.2c0.1-0.3,0.3-0.4,0.6-0.7
				c0.3-0.1,0.6-0.3,0.7-0.3l3.1-0.4H48c0.4,0,0.8,0.3,1.1,0.8c0.1,0.4,0.1,0.8,0,1.2l-3.3,6.2c0.3,0.3,0.6,0.6,0.8,0.8
				c0.4,0.4,1,0.8,1.4,1.4l1.4,1.2c0.4,0.4,0.8,0.8,1.2,1.2l0,0c0.3,0.3,0.4,0.7,0.4,1.1c0,0.7-0.4,1.1-1,1.2l-3.3,0.4
				c0,0-0.1,0-0.3,0c-0.1,0-0.4,0-0.6-0.1c-0.3-0.1-0.6-0.3-0.7-0.4l-1.8-1.9l0.1,1.4c0,0.4,0,0.8-0.3,1.1s-0.6,0.6-0.8,0.6
				l-2.4,0.3C39.9,18.1,39.9,18.1,39.8,18.1z"/>
			<path class="st0" d="M50.3,14.4c-0.4-0.4-0.8-0.8-1.2-1.2l-1.2-1.2c-0.4-0.4-0.8-0.8-1.4-1.4c-0.4-0.4-0.8-0.7-1.1-1.1l3.5-6.4
				c0.1-0.3,0.1-0.7,0-1c-0.1-0.4-0.6-0.7-1-0.6l-2.9,0.4c-0.3,0-0.4,0.1-0.6,0.3C44.2,2.4,44,2.5,44,2.8l-1.8,3.1l-0.3-2.4
				c0-0.3-0.1-0.6-0.4-0.8c-0.3-0.1-0.6-0.3-0.8-0.3l-2.4,0.3c-0.3,0-0.6,0.3-0.7,0.4c-0.1,0.3-0.3,0.6-0.1,0.8l1.2,12.6
				c0,0.3,0.1,0.6,0.4,0.8c0.3,0.3,0.6,0.3,0.8,0.3l2.4-0.3c0.3,0,0.6-0.1,0.7-0.4c0.1-0.3,0.3-0.6,0.3-0.8L43,13.9l2.5,2.5
				c0.1,0.1,0.3,0.3,0.6,0.4c0.3,0.1,0.4,0.1,0.7,0.1l3.3-0.4c0.4,0,0.7-0.4,0.8-1C50.8,15.1,50.6,14.7,50.3,14.4
				C50.3,14.6,50.3,14.6,50.3,14.4z"/>
			<path class="st0" d="M55.6,17.5c-0.4,0-0.8-0.1-1.1-0.4c-0.3-0.3-0.6-0.7-0.6-1.2l-0.3-4.2c0,0,0,0,0-0.1l0,0
				c-0.7-1.1-1.4-2.4-2.2-3.5c-0.8-1.2-1.7-2.4-2.4-3.6c-0.3-0.4-0.3-1-0.3-1.4c0.1-0.7,0.7-1.2,1.4-1.4L53,1.4h0.1
				c0.3,0,0.6,0.1,0.8,0.3c0.3,0.1,0.6,0.4,0.8,0.7l1.1,1.8l0.8-2.1c0.1-0.3,0.4-0.6,0.7-0.8c0.3-0.3,0.7-0.4,1-0.4l2.9-0.3h0.1
				c0.6,0,1,0.3,1.2,0.7c0.1,0.3,0.4,1,0.1,1.8c0,0,0,0-3.3,7.9c0,0,0,0,0,0.1l0,0l0.3,4.2c0,0.4-0.1,1-0.4,1.4
				c-0.3,0.4-0.7,0.7-1.1,0.7l-2.4,0.3C55.8,17.5,55.6,17.5,55.6,17.5z"/>
			<path class="st0" d="M55.6,17.2c-0.3,0-0.7-0.1-1-0.4c-0.3-0.3-0.4-0.7-0.4-1.1L54,11.5c0,0,0,0,0-0.1v-0.1
				c-0.7-1.2-1.5-2.4-2.2-3.5c-0.7-1.1-1.5-2.4-2.2-3.6c-0.4-0.3-0.4-0.7-0.4-1.1c0.1-0.6,0.6-1,1.1-1.1L53,1.7h0.1
				c0.3,0,0.6,0,0.7,0.1c0.3,0.1,0.6,0.4,0.7,0.7l1.4,2.4l1-2.6c0.1-0.3,0.3-0.6,0.6-0.8C57.7,1.2,58,1.1,58.3,1l2.9-0.3h0.1
				c0.4,0,0.8,0.1,1,0.6c0.1,0.3,0.4,0.8,0.1,1.5c0,0,0,0-3.3,7.9v0.1c0,0.1,0,0.1,0,0.1l0.3,4.2c0,0.4-0.1,0.8-0.3,1.1
				c-0.3,0.3-0.6,0.6-1,0.6L55.6,17.2C55.8,17.2,55.6,17.2,55.6,17.2L55.6,17.2z"/>
			<path class="st0" d="M55.2,17.5c-0.3,0-0.6-0.1-0.8-0.4c-0.3-0.3-0.4-0.6-0.4-1l-0.3-4.2c0,0,0,0,0-0.1v-0.1
				c-0.7-1.2-1.5-2.4-2.2-3.5c-0.8-1.1-1.7-2.4-2.4-3.6c-0.3-0.4-0.3-0.7-0.1-1.1c0.1-0.6,0.6-1,1-1l2.8-0.3h0.1
				c0.3,0,0.4,0,0.7,0.1c0.3,0.1,0.6,0.4,0.7,0.7l1.5,2.5l1.1-2.8c0.1-0.3,0.3-0.6,0.6-0.7c0.1-0.4,0.4-0.6,0.7-0.6L61,1.2h0.1
				c0.4,0,0.7,0.1,1,0.6c0.1,0.3,0.4,0.7,0.1,1.4c0,0,0,0-3.3,7.9v0.1c0,0.1,0,0.1,0,0.1l0.3,4.2c0,0.4-0.1,0.8-0.3,1.1
				c-0.3,0.3-0.6,0.6-1,0.6L55.2,17.5C55.3,17.5,55.3,17.5,55.2,17.5L55.2,17.5z"/>
			<path class="st0" d="M58.4,11l3.3-7.9c0.3-0.6,0-1,0-1.2c-0.1-0.1-0.4-0.3-0.8-0.3L58,1.8c-0.3,0-0.4,0.1-0.7,0.3
				c-0.1,0.1-0.4,0.4-0.4,0.6L55.6,6l-1.8-3.1c-0.1-0.3-0.3-0.4-0.6-0.6s-0.4-0.1-0.7-0.1l-2.8,0.3c-0.4,0-0.7,0.3-0.8,0.8
				c0,0.3,0,0.7,0.1,1c0.7,1.2,1.5,2.5,2.2,3.6s1.5,2.4,2.2,3.5c0,0,0,0,0.1,0.1c0,0.1,0,0.3,0,0.3L54,16c0,0.3,0.1,0.6,0.4,0.8
				c0.3,0.3,0.4,0.3,0.8,0.3l2.4-0.3c0.3,0,0.6-0.1,0.7-0.4s0.3-0.6,0.3-0.8l-0.3-4.2v-0.1C58.4,11.1,58.4,11.1,58.4,11z"/>
		</g>
		<g>
			<path class="st1" d="M3.8,17.5c-0.3,0-0.7-0.1-0.8-0.4c-0.3-0.3-0.4-0.6-0.6-1L0.8,3.6c0-0.4,0-0.8,0.3-1.1
				c0.3-0.4,0.6-0.6,1-0.7l2.4-0.4c0.1,0,0.1,0,0.3,0c0.3,0,0.6,0.1,0.8,0.3c0.3,0.3,0.4,0.6,0.6,1l1,8.6l4-0.7c0.1,0,0.1,0,0.3,0
				c0.3,0,0.6,0.1,0.8,0.3c0.3,0.3,0.4,0.6,0.6,1l0.3,2.5c0,0.4,0,0.8-0.3,1.1c-0.3,0.4-0.6,0.6-1,0.7L3.8,17.5
				C4,17.5,3.8,17.5,3.8,17.5z"/>
			<path class="st1" d="M12,12.2c0-0.3-0.1-0.6-0.4-0.8c-0.3-0.1-0.6-0.3-0.8-0.1l-4.4,0.7L5.2,3.2c0-0.3-0.1-0.6-0.4-0.8
				S4.4,2.1,4.1,2.1L1.7,2.5C1.5,2.5,1.2,2.8,1,3.1C0.8,3.3,0.8,3.6,0.8,3.9l1.7,12.5c0,0.3,0.1,0.6,0.4,0.8
				c0.3,0.1,0.6,0.3,0.8,0.3l7.9-1.4c0.3,0,0.6-0.3,0.7-0.4c0.1-0.3,0.3-0.6,0.1-1L12,12.2z"/>
			<path class="st1" d="M18.8,17.1c-0.3,0-0.6,0-0.8,0c-0.8-0.1-1.7-0.4-2.4-0.8c-0.7-0.4-1.4-1-1.8-1.7c-0.6-0.7-0.8-1.4-1.1-2.4
				c-0.3-0.8-0.3-1.8-0.1-2.8l0.7-7.5c0-0.4,0.1-0.8,0.4-1.1s0.6-0.4,0.8-0.4h0.1l2.5,0.4c0.4,0,0.7,0.3,1,0.6s0.3,0.7,0.3,1.1
				L17.7,10c0,0.4,0,0.6,0,0.7c0,0.3,0.1,0.3,0.1,0.4c0.1,0.1,0.3,0.1,0.4,0.1c0.1,0.1,0.3,0.1,0.3,0.1l0,0c0.1,0,0.1,0,0.3,0
				c0.1,0,0.1,0,0.3-0.1c0,0,0.1-0.1,0.3-0.3c0-0.1,0.1-0.3,0.1-0.7l0.7-7.5c0-0.4,0.1-0.8,0.6-1.1c0.3-0.3,0.6-0.4,0.8-0.4h0.1
				l2.4,0.4c0.4,0,0.7,0.3,1,0.6c0.3,0.3,0.3,0.7,0.3,1.1l-0.7,7.5c-0.1,1-0.3,1.9-0.7,2.8c-0.4,0.8-0.8,1.5-1.4,2.1
				c-0.6,0.6-1.2,1-2.1,1.2C19.9,16.9,19.4,17.1,18.8,17.1L18.8,17.1z"/>
			<path class="st1" d="M24.4,2.8c-0.1-0.3-0.4-0.4-0.7-0.4l-2.4-0.3c-0.3,0-0.6,0-0.8,0.3s-0.4,0.6-0.4,0.8l-0.7,7.5
				c0,0.4-0.1,0.7-0.1,0.8c-0.1,0.1-0.3,0.4-0.4,0.4c-0.1,0.1-0.3,0.1-0.4,0.1c-0.1,0-0.3,0-0.4,0s-0.3,0-0.4-0.1
				c-0.1,0-0.3-0.1-0.4-0.3c0.1,0,0-0.3-0.1-0.4c0-0.3-0.1-0.6,0-0.8l0.7-7.5c0-0.3,0-0.7-0.3-0.8c-0.1-0.3-0.4-0.6-0.7-0.6
				l-2.4-0.3c-0.3,0-0.6,0-0.8,0.3c-0.1,0.3-0.3,0.6-0.4,0.8l-0.6,7.5c-0.1,1,0,1.9,0.1,2.6c0.1,0.8,0.6,1.5,1,2.2s1,1.1,1.7,1.5
				c0.7,0.4,1.4,0.7,2.2,0.7c0.8,0.1,1.7,0,2.4-0.1c0.7-0.3,1.4-0.6,1.9-1.1c0.6-0.6,1-1.1,1.4-1.9c0.3-0.8,0.6-1.7,0.7-2.6l0.7-7.5
				C24.6,3.3,24.5,3.1,24.4,2.8z"/>
			<path class="st1" d="M31.7,17.1c-0.7,0-1.2-0.1-1.9-0.3c-0.8-0.3-1.7-0.8-2.5-1.4c-0.7-0.7-1.4-1.4-1.8-2.4s-0.8-1.9-0.8-3.1
				c-0.1-1.1,0-2.2,0.1-3.2c0.3-1,0.7-1.9,1.2-2.8s1.2-1.5,2.1-2.1c0.8-0.6,1.7-1,2.8-1.1c0.4,0,0.8-0.1,1.1-0.1
				c0.4,0,0.7,0,1.1,0.1c0.7,0.1,1.2,0.3,1.9,0.7c0.6,0.3,1.1,0.7,1.5,1.2c0.4,0.4,0.8,1,1.2,1.5c0.3,0.4,0.3,0.8,0.3,1.2
				c-0.1,0.4-0.3,0.8-0.6,1c0,0,0,0-2.2,1.4c-0.1,0.1-0.3,0.1-0.6,0.1h-0.1c-0.1,0-0.3,0-0.4,0c-0.3-0.1-0.6-0.3-0.8-0.6
				c-0.3-0.4-0.6-0.7-0.8-0.8c-0.1-0.1-0.4-0.1-0.7-0.1c-0.1,0-0.3,0-0.4,0c-0.3,0-0.4,0.1-0.7,0.3c-0.3,0.1-0.4,0.4-0.6,0.7
				c-0.1,0.3-0.3,0.6-0.3,0.8c-0.1,0.3-0.1,0.7,0,1c0,0.3,0.1,0.6,0.3,0.8s0.3,0.6,0.6,0.7c0.1,0.1,0.3,0.3,0.6,0.4
				c0.1,0,0.3,0.1,0.4,0.1c0.1,0,0.1,0,0.3,0c0.4,0,0.7-0.3,1-0.4c0.3-0.3,0.6-0.6,0.7-1c0.1-0.3,0.3-0.6,0.6-0.8
				C34.4,9,34.6,9,34.8,8.9h0.1c0.1,0,0.3,0,0.4,0c2.4,0.7,2.4,0.7,2.4,0.7c0.4,0.1,0.7,0.4,0.8,0.8s0.1,0.8,0,1.2l0,0
				c-0.3,0.7-0.6,1.2-1,1.9c-0.4,0.6-0.8,1.1-1.2,1.7c-0.6,0.4-1.1,0.8-1.7,1.1c-0.7,0.3-1.4,0.6-2.1,0.7
				C32.3,17.1,32,17.1,31.7,17.1L31.7,17.1z"/>
			<path class="st1" d="M37.3,10.3l-2.4-0.7c-0.1,0-0.3,0-0.4,0s-0.3,0.1-0.4,0.1c-0.1,0.1-0.3,0.4-0.4,0.7
				c-0.1,0.4-0.4,0.8-0.8,1.1c-0.3,0.3-0.7,0.6-1.2,0.6c-0.3,0-0.6,0-0.8-0.1c-0.3-0.1-0.6-0.3-0.8-0.6c-0.1-0.1-0.3-0.4-0.4-0.7
				s-0.3-0.7-0.3-1c0-0.4,0-0.7,0-1.1c0.1-0.4,0.1-0.7,0.4-1c0.1-0.3,0.4-0.6,0.7-0.7c0.3-0.1,0.6-0.3,0.8-0.3c0.6-0.1,1,0,1.2,0.1
				c0.4,0.1,0.7,0.6,1,1c0.1,0.3,0.4,0.4,0.6,0.4c0.1,0,0.3,0,0.4,0s0.3-0.1,0.4-0.1c0,0,2.1-1.4,2.2-1.4c0.3-0.1,0.4-0.4,0.4-0.8
				c0-0.3,0-0.7-0.1-1c-0.4-0.6-0.8-1.1-1.2-1.5c-0.4-0.4-1-0.8-1.5-1.1c-0.6-0.3-1.1-0.6-1.8-0.6c-0.7-0.1-1.4-0.1-2.1,0
				c-1,0.1-1.8,0.4-2.5,1c-0.7,0.6-1.4,1.2-1.9,1.9c-0.6,0.8-1,1.7-1.1,2.6c-0.3,1-0.3,2.1-0.1,3.1c0.1,1.1,0.4,2.1,0.8,2.9
				c0.4,0.8,1,1.7,1.7,2.2c0.7,0.6,1.5,1.1,2.4,1.4c0.8,0.3,1.8,0.4,2.6,0.3c0.7-0.1,1.4-0.3,1.9-0.6s1.1-0.7,1.7-1.1
				c0.4-0.4,0.8-1,1.2-1.5c0.1-0.7,0.4-1.2,0.7-1.9l0,0c0.1-0.3,0.1-0.7,0-1C37.8,10.7,37.6,10.4,37.3,10.3z"/>
			<path class="st1" d="M40.2,17.5c-0.3,0-0.7-0.1-1-0.4c-0.3-0.3-0.4-0.6-0.4-1L37.6,3.5c0-0.4,0-0.8,0.3-1.1
				c0.3-0.4,0.6-0.6,1-0.7l2.4-0.3h0.1c0.3,0,0.7,0.1,0.8,0.4c0.3,0.3,0.4,0.7,0.6,1.1L42.8,4l1-2.1c0.1-0.3,0.3-0.4,0.6-0.7
				C44.6,1.1,44.9,1,45.2,1l3.1-0.4h0.1c0.6,0,1,0.3,1.1,0.8c0.1,0.4,0.1,1,0,1.4L46.2,9c0.3,0.3,0.6,0.6,1,1c0.4,0.4,1,0.8,1.4,1.4
				l1.4,1.2c0.4,0.4,0.8,0.8,1.2,1.2l0,0c0.3,0.3,0.4,0.7,0.4,1.2c0,0.7-0.4,1.1-1.1,1.2l-3.3,0.4c-0.1,0-0.1,0-0.3,0
				c-0.1,0-0.4,0-0.6-0.1c-0.3-0.1-0.6-0.3-0.7-0.4L44,14.4l0.1,1.1c0,0.4,0,0.8-0.3,1.1c-0.3,0.3-0.6,0.6-1,0.6l-2.4,0.3
				C40.3,17.5,40.2,17.5,40.2,17.5z"/>
			<path class="st1" d="M50.3,14.2c-0.4-0.4-0.8-0.8-1.2-1.2l-1.2-1.2c-0.4-0.4-0.8-0.8-1.4-1.4c-0.4-0.4-0.8-0.7-1.1-1.1l3.5-6.4
				c0.1-0.3,0.1-0.7,0-1c-0.1-0.4-0.6-0.7-1-0.6l-2.9,0.4c-0.3,0-0.4,0.1-0.6,0.3S44,2.2,44,2.5l-1.8,3.1l-0.3-2.4
				c0-0.3-0.1-0.6-0.4-0.8c-0.3-0.1-0.6-0.3-0.8-0.3l-2.4,0.3c-0.3,0-0.6,0.3-0.7,0.4c-0.1,0.3-0.3,0.6-0.1,0.8l1.2,12.6
				c0,0.3,0.1,0.6,0.4,0.8c0.3,0.3,0.6,0.3,0.8,0.3l2.4-0.3c0.3,0,0.6-0.1,0.7-0.4c0.1-0.3,0.3-0.6,0.3-0.8L43,13.6l2.5,2.5
				c0.1,0.1,0.3,0.3,0.6,0.4c0.3,0.1,0.4,0.1,0.7,0.1l3.3-0.4c0.4,0,0.7-0.4,0.8-1C50.8,14.9,50.6,14.4,50.3,14.2
				C50.3,14.3,50.3,14.2,50.3,14.2z"/>
			<path class="st1" d="M55.6,16.9c-0.3,0-0.7-0.1-1-0.4c-0.3-0.3-0.4-0.7-0.4-1.1L54,11.2c0,0,0,0,0-0.1V11
				c-0.7-1.2-1.5-2.4-2.2-3.5c-0.7-1.1-1.5-2.4-2.2-3.6c-0.4-0.3-0.4-0.7-0.4-1.1c0.1-0.6,0.6-1,1.1-1.1L53,1.4h0.1
				c0.3,0,0.6,0,0.7,0.1c0.3,0.1,0.6,0.4,0.7,0.7l1.4,2.4l1-2.6c0.1-0.3,0.3-0.6,0.6-0.8C57.7,1,58,0.8,58.3,0.7l2.9-0.3h0.1
				c0.4,0,0.8,0.1,1,0.6c0.1,0.3,0.4,0.8,0.1,1.5c0,0,0,0-3.3,7.9v0.1c0,0.1,0,0.1,0,0.1l0.3,4.2c0,0.4-0.1,0.8-0.3,1.1
				c-0.3,0.3-0.6,0.6-1,0.6L55.6,16.9C55.8,16.9,55.6,16.9,55.6,16.9L55.6,16.9z"/>
			<path class="st1" d="M58.4,10.7l3.3-7.9c0.3-0.6,0-1,0-1.2c-0.1-0.3-0.6-0.4-0.8-0.4l-2.8,0.4c-0.3,0-0.4,0.1-0.7,0.3
				C57.3,1.9,57,2.2,57,2.4l-1.2,3.3L54,2.6c-0.1-0.3-0.3-0.4-0.6-0.6c-0.3-0.1-0.4-0.1-0.7-0.1l-2.8,0.3c-0.4,0-0.7,0.3-0.8,0.8
				c0,0.3,0,0.7,0.1,1c0.7,1.2,1.5,2.5,2.2,3.6c0.7,1.1,1.5,2.4,2.2,3.5c0,0,0,0,0.1,0.1c0,0.1,0,0.3,0,0.3l0.3,4.2
				c0,0.3,0.1,0.6,0.4,0.8s0.4,0.3,0.8,0.3l2.4-0.3c0.3,0,0.6-0.1,0.7-0.4c0.1-0.3,0.3-0.6,0.3-0.8l-0.3-4.2V11
				C58.4,10.8,58.4,10.7,58.4,10.7z"/>
		</g>
		<g>
			<path class="st2" d="M4.1,17.1c-0.3,0-0.7-0.1-0.8-0.4c-0.3-0.3-0.4-0.6-0.6-1L1,3.2c0-0.4,0-0.8,0.3-1.1s0.6-0.6,1-0.6l2.4-0.4
				c0.1,0,0.1,0,0.3,0c0.3,0,0.6,0.1,0.8,0.3c0.3,0.3,0.4,0.6,0.6,1l1.1,8.5l4-0.7c0.1,0,0.1,0,0.3,0c0.3,0,0.6,0.1,0.8,0.3
				c0.3,0.3,0.4,0.7,0.6,1.1l0.3,2.5c0,0.4,0,0.8-0.3,1.1c-0.3,0.4-0.6,0.6-1,0.7l-7.9,1.4C4.2,17.1,4.2,17.1,4.1,17.1z"/>
			<path class="st2" d="M12.7,11.5c0-0.3-0.1-0.6-0.4-0.8c-0.3-0.1-0.6-0.3-0.8-0.1L7,11.2L5.9,2.5c0-0.3-0.1-0.6-0.4-0.8
				C5.3,1.4,5.1,1.4,4.8,1.4L2.4,1.8c-0.3,0-0.6,0.3-0.7,0.6C1.5,2.6,1.5,2.9,1.5,3.2l1.7,12.5c0,0.3,0.1,0.6,0.4,0.8
				c0.1,0.1,0.4,0.3,0.7,0.3l7.9-1.4c0.3,0,0.6-0.3,0.7-0.4c0.1-0.3,0.3-0.7,0.1-1L12.7,11.5z"/>
			<path class="st2" d="M19.1,16.8c-0.3,0-0.6,0-0.8,0c-0.8-0.1-1.7-0.4-2.4-0.8c-0.7-0.4-1.4-1-1.8-1.7c-0.4-0.7-0.8-1.5-1-2.4
				c-0.3-0.8-0.3-1.8-0.1-2.8l0.7-7.5c0-0.4,0.1-0.8,0.4-1.1s0.6-0.4,0.8-0.4h0.1l2.4,0.3c0.4,0,0.7,0.3,1,0.6s0.3,0.7,0.3,1.1
				L18,9.6c0,0.4,0,0.6,0,0.7c0,0.3,0.1,0.3,0.1,0.4c0.3,0.1,0.4,0.3,0.4,0.3c0.1,0.1,0.3,0.1,0.3,0.1l0,0c0.1,0,0.1,0,0.3,0
				s0.1,0,0.3-0.1c0,0,0.1-0.1,0.3-0.3c0-0.1,0.1-0.3,0.1-0.7l0.7-7.5c0-0.4,0.1-0.8,0.6-1.1C21.3,1.1,21.6,1,21.9,1H22l2.4,0.3
				c0.4,0,0.7,0.3,1,0.6c0.3,0.3,0.3,0.7,0.3,1.1l-0.7,7.5c-0.1,1-0.3,1.9-0.7,2.8c-0.4,0.8-0.8,1.5-1.4,2.1c-0.6,0.6-1.2,1-2.1,1.2
				C20.3,16.7,19.8,16.8,19.1,16.8L19.1,16.8z"/>
			<path class="st2" d="M25.1,2.1c-0.1-0.3-0.4-0.4-0.7-0.4L22,1.4c-0.3,0-0.6,0-0.8,0.3s-0.4,0.6-0.4,0.8L20.1,10
				c0,0.4-0.1,0.7-0.1,0.8s-0.1,0.3-0.3,0.4c-0.1,0.1-0.3,0.1-0.4,0.1c-0.1,0-0.3,0-0.4,0s-0.3,0-0.4-0.1c-0.1,0-0.3-0.1-0.4-0.3
				c-0.1-0.1-0.1-0.3-0.3-0.6c0-0.3-0.1-0.6,0-0.8l0.7-7.5c0-0.3,0-0.7-0.3-0.8C18,1,17.7,0.8,17.4,0.8l-2.4-0.3
				c-0.3,0-0.6,0-0.8,0.3C14.1,1.1,14,1.4,14,1.7l-0.7,7.5c-0.1,1,0,1.9,0.1,2.6c0.3,0.8,0.6,1.7,1.1,2.2c0.4,0.7,1,1.1,1.7,1.5
				c0.7,0.4,1.4,0.7,2.2,0.7c0.8,0.1,1.7,0,2.4-0.1c0.7-0.3,1.4-0.6,1.9-1.1c0.6-0.6,1-1.1,1.4-1.9c0.3-0.8,0.6-1.7,0.7-2.6l0.7-7.5
				C25.3,2.6,25.3,2.4,25.1,2.1z"/>
			<path class="st2" d="M32,16.8c-0.7,0-1.2-0.1-1.9-0.3c-0.8-0.3-1.7-0.8-2.5-1.4c-0.7-0.7-1.4-1.4-1.8-2.4s-0.8-1.9-0.8-3.1
				c-0.1-1.1,0-2.2,0.1-3.2c0.3-1,0.7-1.9,1.2-2.8c0.6-0.8,1.2-1.5,2.1-2.1s1.7-1,2.8-1.1c0.4,0,0.8-0.1,1.1-0.1
				c0.4,0,0.7,0,1.1,0.1c0.7,0.1,1.2,0.3,1.9,0.7c0.6,0.3,1.1,0.7,1.5,1.2c0.4,0.4,0.8,1,1.2,1.5c0.3,0.4,0.3,0.8,0.3,1.2
				c-0.1,0.4-0.3,0.8-0.6,1c0,0,0,0-2.2,1.4c-0.1,0.1-0.3,0.1-0.6,0.1h-0.1c-0.1,0-0.3,0-0.4,0c-0.3-0.1-0.6-0.4-0.7-0.7
				c-0.3-0.4-0.6-0.7-0.8-0.8c-0.1-0.1-0.4-0.1-0.7-0.1c-0.1,0-0.3,0-0.4,0c-0.3,0-0.4,0.1-0.7,0.3c-0.1,0.3-0.4,0.4-0.6,0.7
				c-0.1,0.3-0.3,0.6-0.3,0.8c-0.1,0.3-0.1,0.7,0,1c0,0.3,0.1,0.6,0.3,0.8c0.1,0.3,0.3,0.6,0.6,0.7c0.1,0.1,0.4,0.3,0.7,0.4
				c0.1,0,0.3,0.1,0.4,0.1s0.1,0,0.3,0c0.4,0,0.7-0.3,1-0.4c0.3-0.3,0.6-0.6,0.7-1c0.1-0.3,0.3-0.6,0.6-0.8c0.1-0.1,0.4-0.1,0.6-0.3
				h0.1c0.1,0,0.3,0,0.4,0c2.4,0.7,2.4,0.7,2.4,0.7c0.4,0.1,0.7,0.4,0.8,0.8c0.1,0.4,0.1,0.8,0,1.2l0,0c-0.3,0.7-0.6,1.2-1,1.9
				c-0.4,0.6-0.8,1.1-1.2,1.7c-0.6,0.4-1.1,0.8-1.7,1.1c-0.7,0.3-1.4,0.6-2.1,0.7C32.7,16.7,32.4,16.8,32,16.8L32,16.8z"/>
			<path class="st2" d="M38.1,9.6l-2.4-0.7c-0.1,0-0.3,0-0.4,0c-0.1,0-0.3,0.1-0.4,0.1c-0.3,0.1-0.4,0.4-0.4,0.6
				c-0.1,0.4-0.4,0.8-0.8,1.1c-0.4,0.4-0.8,0.6-1.2,0.7c-0.3,0-0.6,0-0.8-0.1c-0.3-0.1-0.6-0.3-0.8-0.6c-0.3-0.3-0.4-0.6-0.6-0.8
				c-0.1-0.3-0.3-0.7-0.3-1c0-0.4,0-0.7,0-1.1c0.1-0.4,0.1-0.7,0.4-1c0.1-0.3,0.4-0.6,0.7-0.7c0.3-0.1,0.6-0.3,0.8-0.3
				c0.6-0.1,1,0,1.2,0.1c0.4,0.1,0.7,0.6,1,1c0.1,0.3,0.4,0.4,0.6,0.4c0.1,0,0.3,0,0.4,0c0.1,0,0.3-0.1,0.4-0.1c0,0,2.1-1.4,2.2-1.4
				C38,5.7,38.1,5.4,38.1,5c0-0.3,0-0.7-0.1-1c-0.4-0.6-0.8-1.1-1.2-1.5c-0.6-0.3-1-0.7-1.5-1C34.6,1.2,34.1,1,33.4,1
				c-0.7-0.1-1.4-0.1-2.1,0c-1,0.1-1.8,0.4-2.5,1c-0.7,0.6-1.4,1.2-1.9,1.9c-0.6,0.8-1,1.7-1.1,2.6c-0.3,1-0.3,2.1-0.1,3.1
				c0.1,1.1,0.4,2.1,0.8,2.9c0.4,0.8,1,1.7,1.7,2.2c0.7,0.6,1.5,1.1,2.4,1.4c0.8,0.3,1.8,0.4,2.6,0.3c0.7-0.1,1.4-0.3,1.9-0.6
				c0.6-0.3,1.1-0.7,1.7-1.1c0.4-0.4,0.8-1,1.2-1.5c0.3-0.6,0.7-1.1,0.8-1.8l0,0c0.1-0.3,0.1-0.7,0-1C38.5,10,38.4,9.7,38.1,9.6z"/>
			<path class="st2" d="M40.5,17.1c-0.3,0-0.7-0.1-1-0.4c-0.3-0.3-0.4-0.6-0.4-1L37.8,3.1c0-0.4,0-0.8,0.3-1.1
				c0.3-0.4,0.6-0.6,1-0.7L41.5,1h0.1c0.3,0,0.7,0.1,0.8,0.4c0.3,0.3,0.4,0.7,0.6,1.1l0.1,1.1l1.1-2.1c0.1-0.3,0.3-0.4,0.6-0.7
				c0.3-0.1,0.6-0.3,0.8-0.3l2.9-0.4h0.1c0.6,0,1,0.3,1.1,0.8c0.1,0.4,0.1,1,0,1.4l-3.3,6.1c0.3,0.3,0.6,0.6,1,1
				c0.4,0.4,1,0.8,1.4,1.4l1.4,1.2c0.4,0.4,0.8,0.8,1.2,1.2l0,0c0.3,0.3,0.4,0.7,0.4,1.2c0,0.7-0.4,1.1-1.1,1.2l-3.3,0.4
				c-0.1,0-0.1,0-0.3,0c-0.1,0-0.4,0-0.6-0.1c-0.3-0.1-0.6-0.3-0.7-0.4l-1.7-1.8l0.1,1.1c0,0.4,0,0.8-0.3,1.1
				c-0.3,0.3-0.6,0.6-1,0.6l-2.4,0.4C40.6,17.1,40.6,17.1,40.5,17.1z"/>
			<path class="st2" d="M51,13.5c-0.4-0.4-0.8-0.8-1.2-1.2L48.5,11c-0.4-0.4-0.8-0.8-1.4-1.4c-0.4-0.4-0.8-0.7-1.1-1.1l3.5-6.4
				c0.1-0.3,0.1-0.7,0-1c-0.1-0.4-0.6-0.7-1-0.6L45.5,1c-0.3,0-0.4,0.1-0.6,0.3c-0.1,0.1-0.4,0.3-0.4,0.6L43,5l-0.3-2.4
				c0-0.3-0.1-0.6-0.4-0.8c-0.3-0.3-0.6-0.4-0.8-0.3l-2.4,0.3c-0.3,0-0.6,0.3-0.7,0.4c-0.1,0.3-0.3,0.6-0.1,0.8l1.2,12.6
				c0,0.3,0.1,0.6,0.4,0.8c0.3,0.3,0.6,0.3,0.8,0.3l2.4-0.3c0.3,0,0.6-0.1,0.7-0.4c0.1-0.3,0.3-0.6,0.3-0.8l-0.3-2.2l2.5,2.5
				c0.1,0.1,0.3,0.3,0.6,0.4c0.3,0.1,0.4,0.1,0.7,0.1l3.3-0.4c0.4,0,0.7-0.4,0.8-1C51.5,14.2,51.3,13.7,51,13.5L51,13.5z"/>
			<path class="st2" d="M56,16.7c-0.3,0-0.7-0.1-1-0.4c-0.3-0.3-0.4-0.7-0.4-1.1L54.4,11c0,0,0,0,0-0.1v-0.1
				c-0.7-1.2-1.5-2.4-2.2-3.5s-1.5-2.4-2.2-3.6c-0.3-0.4-0.3-0.8-0.3-1.2c0.1-0.6,0.6-1,1.1-1.1L53.5,1h0.1c0.3,0,0.6,0,0.7,0.1
				c0.3,0.1,0.6,0.4,0.7,0.7l1.4,2.4l1-2.6C57.6,1.2,57.7,1,58,0.7c0.3-0.1,0.6-0.3,0.8-0.4l2.8-0.1h0.1c0.4,0,0.8,0.1,1,0.6
				C63,1,63.1,1.5,62.8,2.2c0,0,0,0-3.3,7.9v0.1c0,0.1,0,0.1,0,0.1l0.3,4.2c0,0.4-0.1,0.8-0.3,1.1c-0.3,0.3-0.6,0.6-1,0.6L56,16.7
				L56,16.7L56,16.7z"/>
			<path class="st2" d="M59.1,10l3.3-7.9c0.3-0.6,0-1,0-1.2c-0.1-0.3-0.6-0.4-0.8-0.4l-2.8,0.4c-0.3,0-0.4,0.1-0.7,0.3
				c-0.1,0.1-0.4,0.4-0.4,0.6L56.5,5l-1.8-2.9c-0.1-0.3-0.3-0.4-0.6-0.6s-0.4-0.1-0.7-0.1l-2.8,0.3c-0.4,0-0.7,0.3-0.8,0.8
				c0,0.3,0,0.7,0.1,1c0.7,1.2,1.5,2.5,2.2,3.6s1.5,2.4,2.2,3.5c0,0,0,0,0.1,0.1c0,0.1,0,0.3,0,0.3l0.3,4.2c0,0.3,0.1,0.6,0.4,0.8
				c0.3,0.3,0.4,0.3,0.8,0.3l2.4-0.3c0.3,0,0.6-0.1,0.7-0.4c0.1-0.3,0.3-0.6,0.3-0.8l-0.3-4.2v-0.1C59.1,10.1,59.1,10,59.1,10z"/>
		</g>
		<g>
			
				<linearGradient id="SVGID_1_" gradientUnits="userSpaceOnUse" x1="7.2467" y1="34.9621" x2="7.2467" y2="19.5907" gradientTransform="matrix(1 0 0 -1 0 36)">
				<stop  offset="0" style="stop-color:#AE8625"/>
				<stop  offset="0.5335" style="stop-color:#D2AC47"/>
				<stop  offset="0.9078" style="stop-color:#F7EF8A"/>
			</linearGradient>
			<path class="st3" d="M12.7,11.1c0-0.3-0.1-0.6-0.4-0.8c-0.3-0.1-0.6-0.1-0.8-0.1L7,11L5.9,2.1c0-0.3-0.1-0.6-0.4-0.8
				C5.3,1.1,5.1,1,4.8,1.1L2.4,1.5c-0.3,0-0.6,0.1-0.7,0.4C1.5,2.2,1.5,2.5,1.5,2.8l1.7,12.5c0,0.3,0.1,0.6,0.4,0.8
				c0.3,0.1,0.6,0.3,0.8,0.3l7.9-1.4c0.3,0,0.6-0.3,0.7-0.4c0-0.3,0.1-0.6,0-1L12.7,11.1z"/>
			
				<linearGradient id="SVGID_00000071520459810990168760000016743959265556445100_" gradientUnits="userSpaceOnUse" x1="19.2702" y1="35.7913" x2="19.2702" y2="19.9732" gradientTransform="matrix(1 0 0 -1 0 36)">
				<stop  offset="0" style="stop-color:#AE8625"/>
				<stop  offset="0.5335" style="stop-color:#D2AC47"/>
				<stop  offset="0.9078" style="stop-color:#F7EF8A"/>
			</linearGradient>
			<path style="fill:url(#SVGID_00000071520459810990168760000016743959265556445100_);" d="M25.1,1.7c-0.1-0.3-0.4-0.4-0.7-0.4
				L22,1c-0.3,0-0.6,0-0.8,0.3s-0.4,0.6-0.4,0.8l-0.7,7.5c0,0.4-0.1,0.7-0.1,0.8c-0.1,0.1-0.3,0.4-0.4,0.4C19.4,11,19.2,11,19.1,11
				c-0.1,0-0.3,0-0.4,0s-0.3,0-0.4-0.1c-0.1,0-0.3-0.1-0.4-0.3c-0.1-0.1-0.1-0.3-0.3-0.6c0-0.3-0.1-0.6,0-0.8l0.7-7.5
				c0-0.3,0-0.7-0.3-0.8c-0.1-0.3-0.4-0.4-0.7-0.4l-2.4-0.3c-0.3,0-0.6,0-0.8,0.3C14.1,0.7,14,1,14,1.2l-0.7,7.5
				c-0.1,1,0,1.9,0.1,2.6c0.1,0.8,0.6,1.5,1,2.2s1,1.1,1.7,1.5c0.7,0.4,1.4,0.7,2.2,0.7c0.8,0.1,1.7,0,2.4-0.1
				c0.7-0.3,1.4-0.6,1.9-1.1s1-1.1,1.4-1.9c0.3-0.8,0.6-1.7,0.7-2.6l0.7-7.5C25.3,2.4,25.3,1.9,25.1,1.7z"/>
			
				<linearGradient id="SVGID_00000176042286947616887810000008797665520491775873_" gradientUnits="userSpaceOnUse" x1="32.083" y1="35.5563" x2="32.083" y2="19.9871" gradientTransform="matrix(1 0 0 -1 0 36)">
				<stop  offset="0" style="stop-color:#AE8625"/>
				<stop  offset="0.5335" style="stop-color:#D2AC47"/>
				<stop  offset="0.9078" style="stop-color:#F7EF8A"/>
			</linearGradient>
			<path style="fill:url(#SVGID_00000176042286947616887810000008797665520491775873_);" d="M38.1,9.3l-2.4-0.7c-0.1,0-0.3,0-0.4,0
				c-0.1,0-0.3,0.1-0.4,0.1c-0.3,0.1-0.4,0.4-0.4,0.6c-0.1,0.4-0.4,0.8-0.8,1.1C33.4,10.7,33,11,32.4,11c-0.3,0-0.6,0-0.8-0.1
				c-0.3-0.1-0.6-0.3-0.8-0.6c-0.3-0.3-0.4-0.6-0.6-0.8c-0.1-0.3-0.3-0.7-0.3-1c0-0.4,0-0.7,0-1.1c0.1-0.4,0.1-0.7,0.4-1
				c0.1-0.3,0.4-0.6,0.7-0.7c0.3-0.1,0.6-0.3,0.8-0.3c0.6-0.1,1,0,1.2,0.1c0.4,0.1,0.7,0.6,1,1c0.1,0.3,0.4,0.4,0.6,0.4
				c0.1,0,0.3,0,0.4,0s0.3-0.1,0.4-0.1c0,0,2.1-1.4,2.2-1.4C38,5.3,38.1,5,38.1,4.6c0-0.3,0-0.7-0.1-1c-0.4-0.6-0.8-1.1-1.2-1.5
				c-0.4-0.4-1-0.8-1.5-1.1s-1.1-0.6-1.8-0.6c-0.7-0.1-1.4-0.1-2.1,0c-1,0.1-1.8,0.4-2.5,1c-0.7,0.6-1.4,1.2-1.9,1.9
				c-0.6,0.8-1,1.7-1.1,2.6c-0.3,1-0.3,2.1-0.1,3.1c-0.1,1.2,0.1,2.2,0.6,3.2c0.4,0.8,1,1.7,1.7,2.2c0.7,0.6,1.5,1.1,2.4,1.4
				c0.8,0.3,1.8,0.4,2.6,0.3c0.7-0.1,1.4-0.3,1.9-0.6c0.6-0.3,1.1-0.7,1.7-1.1c0.4-0.4,0.8-1,1.2-1.5c0.3-0.6,0.7-1.1,0.8-1.8l0,0
				c0.1-0.3,0.1-0.7,0-1C38.5,9.6,38.4,9.3,38.1,9.3z"/>
			
				<linearGradient id="SVGID_00000114784404891020886150000009579412539773889207_" gradientUnits="userSpaceOnUse" x1="44.9642" y1="35.8611" x2="44.9642" y2="19.5735" gradientTransform="matrix(1 0 0 -1 0 36)">
				<stop  offset="0" style="stop-color:#AE8625"/>
				<stop  offset="0.5335" style="stop-color:#D2AC47"/>
				<stop  offset="0.9078" style="stop-color:#F7EF8A"/>
			</linearGradient>
			<path style="fill:url(#SVGID_00000114784404891020886150000009579412539773889207_);" d="M51,13.2c-0.4-0.4-0.8-0.8-1.2-1.2
				l-1.2-1.2c-0.4-0.4-0.8-0.8-1.4-1.4c-0.4-0.4-0.8-0.7-1.1-1.1l3.5-6.4c0.1-0.3,0.1-0.7,0-1c-0.1-0.6-0.6-0.7-1-0.7l-3.1,0.4
				c-0.3,0-0.4,0.1-0.6,0.3c-0.1,0.1-0.4,0.3-0.4,0.6L43,4.6l-0.3-2.4c0-0.3-0.1-0.6-0.4-0.8c-0.3-0.1-0.6-0.3-0.8-0.3l-2.4,0.3
				c-0.3,0-0.6,0.3-0.7,0.4c-0.1,0.3-0.3,0.6-0.1,0.8l1.2,12.6c0,0.3,0.1,0.6,0.4,0.8c0.3,0.3,0.6,0.3,0.8,0.3l2.4-0.3
				c0.3,0,0.6-0.1,0.7-0.4c0.1-0.3,0.3-0.6,0.3-0.8l-0.3-2.2l2.5,2.5c0.1,0.1,0.3,0.3,0.6,0.4c0.3,0.1,0.4,0.1,0.7,0.1l3.3-0.4
				c0.4,0,0.7-0.4,0.8-1C51.5,13.7,51.3,13.5,51,13.2L51,13.2z"/>
			
				<linearGradient id="SVGID_00000165232268998282250910000015911596237702440888_" gradientUnits="userSpaceOnUse" x1="56.1656" y1="35.8307" x2="56.1656" y2="20.0978" gradientTransform="matrix(1 0 0 -1 0 36)">
				<stop  offset="0" style="stop-color:#AE8625"/>
				<stop  offset="0.5335" style="stop-color:#D2AC47"/>
				<stop  offset="0.9078" style="stop-color:#F7EF8A"/>
			</linearGradient>
			<path style="fill:url(#SVGID_00000165232268998282250910000015911596237702440888_);" d="M59.1,9.6l3.3-7.9c0.3-0.6,0-1,0-1.2
				c-0.1-0.1-0.4-0.3-0.7-0.3l-2.9,0.3c-0.3,0-0.4,0.1-0.7,0.3c-0.1,0.1-0.4,0.4-0.4,0.6l-1.2,3.3l-1.8-2.9
				c-0.1-0.3-0.3-0.4-0.6-0.6C53.8,1,53.7,1,53.4,1l-2.8,0.3c-0.4,0-0.7,0.3-0.8,0.8c0,0.3,0,0.7,0.1,1c0.7,1.2,1.5,2.5,2.2,3.6
				s1.5,2.4,2.2,3.5c0,0,0,0,0.1,0.1c0,0.1,0,0.3,0,0.3l0.3,4.2c0,0.3,0.1,0.6,0.4,0.8c0.3,0.3,0.4,0.3,0.8,0.3l2.4-0.3
				c0.3,0,0.6-0.1,0.7-0.4c0.1-0.3,0.3-0.6,0.3-0.8l-0.3-4.2V10C59.1,9.7,59.1,9.7,59.1,9.6z"/>
		</g>
	</g>
	<g>
		<g>
			<path class="st0" d="M7.6,34.9c-0.3,0-0.4,0-0.6-0.1c-0.3-0.1-0.4-0.4-0.4-0.7L4.1,18.5c0-0.3,0-0.6,0.1-0.7
				c0.1-0.3,0.4-0.4,0.7-0.4l4.2-0.7c1.4-0.3,2.8-0.4,4.2-0.7h0.1c0.6,0,1,0.4,1,0.8l0.7,4c0,0.3,0,0.6-0.1,0.7
				c-0.1,0.3-0.4,0.4-0.7,0.4l-3.5,0.6l0.1,0.4l2.2-0.3h0.1c0.6,0,1,0.4,1,0.8l0.6,4c0,0.3,0,0.6-0.1,0.7c-0.1,0.3-0.4,0.4-0.7,0.4
				l-2.1,0.3l0.7,4.2c0.1,0.6-0.3,1.1-0.8,1.1l-4,0.7C7.7,34.9,7.7,34.9,7.6,34.9z"/>
			<path class="st0" d="M7.6,34.4c-0.1,0-0.3,0-0.3-0.1C7.1,34.2,7,34,7,33.9L4.5,18.3c0-0.1,0-0.3,0.1-0.4c0.1-0.1,0.3-0.3,0.4-0.3
				l4.2-0.7c1.4-0.3,2.8-0.4,4.2-0.7h0.1c0.3,0,0.6,0.1,0.6,0.4l0.7,4c0,0.1,0,0.3-0.1,0.4c-0.1,0.1-0.3,0.3-0.4,0.3l-3.9,0.7
				l0.1,1.2l2.6-0.4c0,0,0,0,0.1,0c0.3,0,0.6,0.3,0.6,0.6l0.6,4c0,0.1,0,0.3-0.1,0.4c-0.1,0.1-0.3,0.3-0.4,0.3l-2.5,0.4l0.7,4.6
				c0,0.3-0.1,0.7-0.6,0.7L7.6,34.4C7.7,34.4,7.6,34.4,7.6,34.4z"/>
			<path class="st0" d="M7.3,34.6c-0.1,0-0.3,0-0.4-0.1c-0.1-0.1-0.3-0.3-0.3-0.4L4.1,18.5c0-0.4,0.1-0.7,0.6-0.8l4.2-0.7
				c1.4-0.3,2.8-0.4,4.2-0.7h0.1c0.3,0,0.6,0.3,0.7,0.6l0.7,4c0,0.1,0,0.4-0.1,0.6c-0.1,0.1-0.3,0.3-0.4,0.3l-3.9,0.7l0.1,1.1
				l2.5-0.4c0,0,0,0,0.1,0c0.3,0,0.6,0.3,0.7,0.6l0.6,4c0,0.1,0,0.4-0.1,0.6c-0.1,0.1-0.3,0.3-0.4,0.3L11,28.9l0.7,4.4
				c0,0.4-0.1,0.7-0.6,0.8L7.3,34.6L7.3,34.6z"/>
			<path class="st0" d="M7.3,34.2H7.1L7,34L4.5,18.3c0-0.1,0.1-0.3,0.3-0.3L9,17.4c1.4-0.3,2.8-0.4,4.2-0.7l0,0
				c0.1,0,0.3,0.1,0.3,0.1l0.7,4V21L14,21.1l-4.3,0.7l0.3,1.9l2.9-0.4l0,0c0.1,0,0.3,0.1,0.3,0.3l0.6,4v0.1l-0.1,0.1l-2.9,0.4
				l0.8,4.9c0,0.1-0.1,0.3-0.3,0.3L7.3,34.2L7.3,34.2z"/>
			<path class="st0" d="M7.6,34.6c-0.1,0-0.3,0-0.4-0.1c-0.1-0.1-0.3-0.3-0.3-0.6L4.4,18.5c0-0.4,0.3-0.8,0.7-0.8l4.2-0.7
				c1.4-0.3,2.8-0.4,4.2-0.7h0.1c0.4,0,0.7,0.3,0.7,0.6l0.7,4c0,0.1,0,0.4-0.1,0.6c-0.1,0.1-0.3,0.3-0.6,0.3l-3.7,0.7l0.1,1l2.4-0.4
				h0.1c0.4,0,0.7,0.3,0.7,0.7l0.6,4c0,0.1,0,0.4-0.1,0.6c-0.1,0.1-0.3,0.3-0.6,0.3l-2.1,0.3l0.7,4.3c0,0.4-0.3,0.8-0.7,0.8
				L7.6,34.6C7.7,34.6,7.7,34.6,7.6,34.6z"/>
			<path class="st0" d="M7.6,34.2c-0.1,0-0.1,0-0.1,0c-0.1,0-0.1-0.1-0.1-0.3L4.8,18.3c0-0.1,0.1-0.4,0.3-0.4l4.2-0.7
				c1.4-0.3,2.8-0.4,4.2-0.7l0,0c0.1,0,0.3,0.1,0.3,0.3l0.7,4c0,0.1,0,0.1,0,0.3c0,0.1-0.1,0.1-0.3,0.1l-4.2,0.7l0.4,1.8l2.8-0.4
				l0,0c0.1,0,0.3,0.1,0.3,0.3l0.6,4c0,0.1,0,0.1,0,0.3c0,0.1-0.1,0.1-0.3,0.1l-2.8,0.4l0.7,4.7c0,0.1-0.1,0.4-0.3,0.4L7.6,34.2
				C7.7,34.2,7.6,34.2,7.6,34.2z"/>
			<path class="st0" d="M4.4,17.9L9,17.2c1.4-0.3,2.8-0.4,4.2-0.7l0.4-0.1l0.8,4.9l-4.4,0.8l0.3,1.7l3.2-0.4l0.7,4.9l-3.2,0.4l0.7,5
				l-4.7,0.7L4.4,17.9z"/>
			<path class="st0" d="M13.8,21l-4.4,0.8l0.4,2.5l3.2-0.4l0.6,4l-3.2,0.4l0.8,5.1L7.3,34L4.8,18.3c1.4-0.3,2.8-0.4,4.2-0.7
				s2.8-0.4,4.2-0.7L13.8,21z"/>
			<path class="st0" d="M18.5,34.7h-0.1l-3.5-0.6c-0.3,0-0.6-0.1-0.7-0.4c-0.1-0.3-0.3-0.4-0.1-0.7l2.2-14.6c0-0.4,0.4-0.8,0.8-0.8
				l4.7-0.6H22c0.4,0,0.8,0.3,1,0.7l4.4,13.5c0.1,0.3,0,0.6,0,0.8c-0.1,0.3-0.3,0.4-0.6,0.6l-3.3,0.8c-0.1,0-0.1,0-0.3,0
				c-0.4,0-0.8-0.3-1-0.7l-0.4-1.4l-1.9,0.3l-0.3,2.1C19.5,34.3,19.1,34.7,18.5,34.7z"/>
			<path class="st0" d="M18.5,34.3C18.5,34.3,18.4,34.3,18.5,34.3l-3.6-0.6c-0.1,0-0.3-0.1-0.4-0.3s-0.1-0.3-0.1-0.4l2.2-14.6
				c0-0.3,0.3-0.4,0.6-0.6l4.7-0.6l0,0c0.3,0,0.4,0.1,0.6,0.4l4.4,13.5c0,0.1,0,0.3,0,0.4c-0.1,0.1-0.1,0.3-0.3,0.3l-3.3,1.1h-0.1
				c-0.3,0-0.4-0.1-0.6-0.4L22,31l-2.6,0.3L19,33.6C19.1,34,18.8,34.3,18.5,34.3z M20.2,26.5h0.4l-0.3-0.8L20.2,26.5z"/>
			<path class="st0" d="M18.1,34.3L18.1,34.3l-3.6-0.6c-0.1,0-0.3-0.1-0.4-0.3C14,33.3,14,33.2,14,32.9l2.2-14.6
				c0-0.3,0.3-0.6,0.6-0.6l4.7-0.6c0,0,0,0,0.1,0c0.3,0,0.6,0.1,0.7,0.4l4.4,13.5c0,0.1,0,0.4,0,0.6c-0.1,0.1-0.3,0.3-0.4,0.3
				L23,33.1c0,0-0.1,0-0.3,0c-0.3,0-0.6-0.1-0.7-0.4L21.5,31L19,31.2l-0.4,2.4C18.8,34.2,18.5,34.3,18.1,34.3z M19.9,26.5h0.3
				l-0.1-0.4L19.9,26.5z"/>
			<path class="st0" d="M18.1,33.9L18.1,33.9l-3.5-0.6c0,0-0.1,0-0.1-0.1v-0.1l2.2-14.6c0-0.1,0.1-0.1,0.3-0.3l4.7-0.6l0,0
				c0.1,0,0.1,0,0.3,0.1l4.4,13.5v0.1l-0.1,0.1L23,32.6c0,0,0,0-0.1,0s-0.1,0-0.3-0.1L22,30.7l-3.2,0.4l-0.4,2.6
				C18.4,33.9,18.3,33.9,18.1,33.9z M19.5,26.9l1.2-0.1l-0.8-2.6L19.5,26.9z"/>
			<path class="st0" d="M18.5,34.4C18.5,34.4,18.4,34.4,18.5,34.4l-3.6-0.6c-0.1,0-0.4-0.1-0.6-0.3c0-0.1-0.1-0.4,0-0.6l2.2-14.6
				c0-0.3,0.3-0.6,0.7-0.7l4.7-0.6c0,0,0,0,0.1,0c0.3,0,0.6,0.1,0.7,0.6l4.4,13.5c0,0.1,0,0.4,0,0.6c-0.1,0.1-0.3,0.3-0.4,0.4
				l-3.3,1.1c-0.1,0-0.1,0-0.3,0c-0.3,0-0.6-0.1-0.7-0.6L22,31.2l-2.4,0.3l-0.4,2.2C19.2,34.2,19,34.4,18.5,34.4z M20.3,26.4
				L20.3,26.4L20.3,26.4L20.3,26.4z"/>
			<path class="st0" d="M18.5,34L18.5,34l-3.5-0.6c-0.1,0-0.1,0-0.3-0.1c0-0.1-0.1-0.1,0-0.3L17,18.5c0-0.1,0.1-0.3,0.3-0.3l4.7-0.6
				l0,0c0.1,0,0.3,0.1,0.3,0.3l4.4,13.5c0,0.1,0,0.1,0,0.3s-0.1,0.1-0.1,0.1l-3.3,1.1h-0.1c-0.1,0-0.3-0.1-0.3-0.3l-0.7-1.8
				l-3.1,0.3l-0.4,2.6C18.8,33.9,18.7,34,18.5,34z M19.9,26.8l1.1-0.1l-0.7-2.1L19.9,26.8z"/>
			<path class="st0" d="M14.2,33.5l2.4-15.3l5.4-0.6l4.7,14.2l-4,1.4L22,31l-2.9,0.3l-0.6,2.9L14.2,33.5z M19.6,26.8l0.8-0.1
				l-0.6-1.8L19.6,26.8z"/>
			<path class="st0" d="M14.8,33.2L17,18.6l4.7-0.6l4.4,13.5l-3.3,1.1l-0.7-2.1L18.5,31l-0.4,2.9L14.8,33.2z M21,26.9l-1.2-3.9
				l-0.6,4L21,26.9z"/>
			<path class="st0" d="M27.4,33.9c-0.3,0-0.4-0.1-0.7-0.3c-0.1-0.1-0.3-0.4-0.4-0.7l-1.2-12.6c0-0.3,0-0.6,0.3-0.7
				c0.1-0.1,0.4-0.3,0.7-0.4l3.5-0.4c0,0,0,0,0.1,0c0.3,0,0.6,0.1,0.8,0.4l2.8,3.6l-0.4-3.6c0-0.3,0-0.6,0.3-0.7
				c0.1-0.1,0.4-0.3,0.7-0.4l3.5-0.4c0,0,0,0,0.1,0c0.3,0,0.4,0.1,0.7,0.3c0.1,0.1,0.3,0.4,0.4,0.7l1.4,13.3c0,0.3,0,0.6-0.3,0.7
				c-0.1,0.3-0.4,0.3-0.7,0.4l-3.5,0.4c0,0,0,0-0.1,0c-0.3,0-0.6-0.1-0.7-0.4l-2.8-3.2l0.3,2.4c0,0.3,0,0.6-0.3,0.7
				c-0.4,0.4-0.6,0.6-0.8,0.6L27.4,33.9L27.4,33.9z"/>
			<path class="st0" d="M27.4,33.5c-0.1,0-0.3,0-0.4-0.1c-0.1-0.1-0.1-0.3-0.3-0.4l-1.2-12.5c0-0.1,0-0.3,0.1-0.4
				c0.1-0.1,0.3-0.1,0.4-0.3l3.5-0.4l0,0c0.1,0,0.4,0.1,0.4,0.3l3.6,4.7L33,19.2c0-0.1,0-0.3,0.1-0.4c0.1-0.1,0.3-0.1,0.4-0.3
				l3.5-0.4l0,0c0.1,0,0.3,0,0.4,0.1s0.1,0.3,0.3,0.4l1.4,13.3c0,0.1,0,0.3-0.1,0.4c-0.1,0.1-0.3,0.1-0.4,0.3l-3.3,0.6l0,0
				c-0.1,0-0.3-0.1-0.4-0.1l-3.6-4.2l0.4,3.7c0,0.1,0,0.3-0.1,0.4s-0.3,0.1-0.4,0.3L27.4,33.5L27.4,33.5z"/>
			<path class="st0" d="M27,33.6c-0.1,0-0.3,0-0.4-0.1c-0.1-0.1-0.3-0.3-0.3-0.4l-1.2-12.6c0-0.4,0.3-0.7,0.6-0.7l3.5-0.4l0,0
				c0.1,0,0.4,0.1,0.6,0.3l3.5,4.6l-0.6-4.9c0-0.1,0-0.4,0.1-0.6c0.1-0.1,0.3-0.3,0.4-0.3l3.5-0.4l0,0c0.1,0,0.3,0,0.4,0.1
				c0.1,0.1,0.3,0.3,0.3,0.4l1.4,13.3c0,0.1,0,0.4-0.1,0.6c-0.1,0.1-0.3,0.3-0.4,0.3l-3.5,0.4l0,0c-0.1,0-0.4-0.1-0.6-0.3l-3.5-4
				l0.4,3.5c0,0.1,0,0.4-0.1,0.6c-0.1,0.1-0.3,0.3-0.4,0.3L27,33.6C27.1,33.6,27,33.6,27,33.6z"/>
			<path class="st0" d="M27,33.2h-0.1l-0.1-0.1l-1.2-12.8c0-0.1,0.1-0.3,0.3-0.3l3.5-0.4l0,0c0.1,0,0.1,0,0.1,0.1l4.4,5.7l-0.7-6.2
				c0-0.1,0.1-0.3,0.3-0.3l3.5-0.4l0,0H37l0.1,0.1l1.4,13.3c0,0.1-0.1,0.3-0.3,0.3l-3.5,0.4l0,0c-0.1,0-0.1,0-0.1-0.1l-4.3-5
				l0.4,4.7c0,0.1-0.1,0.3-0.3,0.3L27,33.2L27,33.2z"/>
			<path class="st0" d="M27.4,33.6c-0.1,0-0.3,0-0.4-0.1c-0.1-0.1-0.3-0.3-0.3-0.6l-1.2-12.6c0-0.4,0.3-0.8,0.7-0.8l3.5-0.4
				c0,0,0,0,0.1,0c0.3,0,0.4,0.1,0.6,0.3l3.3,4.3L33.3,19c0-0.1,0-0.4,0.1-0.6c0.1-0.1,0.3-0.3,0.6-0.3l3.5-0.4c0,0,0,0,0.1,0
				s0.3,0,0.4,0.1c0.1,0.1,0.3,0.3,0.3,0.6l1.4,13.3c0,0.4-0.3,0.8-0.7,0.8l-3.7,0.7c0,0,0,0-0.1,0c-0.3,0-0.4-0.1-0.6-0.3l-3.2-3.7
				l0.3,3.2c0,0.4-0.3,0.8-0.7,0.8L27.4,33.6L27.4,33.6z"/>
			<path class="st0" d="M27.4,33.2c-0.1,0-0.1,0-0.3-0.1c0,0-0.1-0.1-0.1-0.3l-1.2-12.6c0-0.1,0.1-0.4,0.3-0.4l3.5-0.4l0,0
				c0.1,0,0.1,0,0.3,0.1l4.2,5.4l-0.6-6c0-0.1,0.1-0.4,0.3-0.4l3.5-0.4l0,0c0.1,0,0.1,0,0.3,0.1c0,0,0.1,0.1,0.1,0.3L39,31.8
				c0,0.1-0.1,0.4-0.3,0.4l-3.5,0.7l0,0c-0.1,0-0.1,0-0.3-0.1l-4.2-4.9l0.4,4.4c0,0.1-0.1,0.4-0.3,0.4L27.4,33.2L27.4,33.2z"/>
			<polygon class="st0" points="25.3,20 29.5,19.6 33.7,25 33,18.9 37.4,18.5 38.8,32.6 34.6,33.1 30.5,28.2 31,32.9 26.7,33.3 			
				"/>
			<path class="st0" d="M27,32.9l-1.2-12.6l3.5-0.4l5,6.4L33.5,19l3.5-0.4l1.4,13.3l-3.5,0.4l-4.9-5.6l0.6,5.6L27,32.9z"/>
			<path class="st0" d="M45.1,33.7L45.1,33.7l-3.6-0.3c-0.3,0-0.6-0.1-0.7-0.4c-0.1-0.1-0.3-0.4-0.3-0.7l0.8-10l-1.9-0.1
				c-0.6,0-1-0.6-1-1.1l0.3-3.5c0-0.6,0.4-1,1-1c0,0,0,0,0.1,0l9,0.7c0.3,0,0.6,0.1,0.7,0.4c0.1,0.1,0.3,0.4,0.3,0.7l-0.3,3.5
				c0,0.3-0.1,0.6-0.4,0.7c-0.1,0.1-0.4,0.3-0.7,0.3c0,0,0,0-0.1,0l-1.5-0.1l-0.8,9.9c0,0.3-0.1,0.6-0.4,0.7
				C45.5,33.6,45.3,33.7,45.1,33.7z"/>
			<path class="st0" d="M45.1,33.3L45.1,33.3l-3.6-0.3c-0.1,0-0.3-0.1-0.4-0.1c-0.1-0.1-0.1-0.3-0.1-0.4l0.8-10.4l-2.4-0.3
				c-0.3,0-0.6-0.3-0.6-0.7l0.3-3.5c0-0.3,0.3-0.6,0.6-0.6l0,0l9,0.7c0.1,0,0.3,0.1,0.4,0.1c0.1,0.1,0.1,0.3,0.1,0.4L49,21.8
				c0,0.1-0.1,0.3-0.1,0.4c-0.1,0.1-0.3,0.1-0.4,0.1l0,0l-1.9-0.1l-0.8,10.3c0,0.1-0.1,0.3-0.1,0.4C45.3,33.3,45.2,33.3,45.1,33.3z"
				/>
			<path class="st0" d="M44.6,33.3L44.6,33.3L41,33.1c-0.1,0-0.3-0.1-0.4-0.3s-0.1-0.3-0.1-0.6l0.8-10.3L39,21.8
				c-0.4,0-0.7-0.4-0.6-0.7l0.3-3.5c0-0.3,0.3-0.6,0.7-0.6l0,0l9,0.7c0.1,0,0.3,0.1,0.4,0.3c0.1,0.1,0.1,0.3,0.1,0.6l-0.3,3.5
				c0,0.1-0.1,0.3-0.3,0.4c-0.1,0.1-0.3,0.1-0.4,0.1l0,0l-1.8-0.1l-0.8,10.3c0,0.1-0.1,0.3-0.3,0.4C45.1,33.3,44.9,33.3,44.6,33.3z"
				/>
			<path class="st0" d="M44.6,32.9L44.6,32.9l-3.5-0.3c-0.1,0-0.3-0.1-0.3-0.3l0.8-10.7L39,21.4c-0.1,0-0.3-0.1-0.3-0.3l0.3-3.5
				c0-0.1,0.1-0.3,0.3-0.3l0,0l9,0.7c0,0,0.1,0,0.1,0.1v0.1l-0.3,3.5c0,0,0,0.1-0.1,0.1h-0.1l0,0l-2.2-0.1l-0.7,11
				c0,0,0,0.1-0.1,0.1C44.8,32.9,44.8,32.9,44.6,32.9z"/>
			<path class="st0" d="M45.1,33.5L45.1,33.5l-3.6-0.3c-0.1,0-0.4-0.1-0.6-0.3c-0.1-0.1-0.1-0.4-0.1-0.6l0.8-10.1l-2.2-0.3
				c-0.4,0-0.7-0.4-0.7-0.8l0.3-3.5c0-0.4,0.4-0.7,0.7-0.7l0,0l9,0.7c0.1,0,0.4,0.1,0.6,0.3c0.1,0.1,0.1,0.4,0.1,0.6l-0.3,3.5
				c0,0.1-0.1,0.4-0.3,0.6c-0.1,0.1-0.3,0.1-0.4,0.1l0,0l-1.8-0.1l-0.8,10.1c0,0.1-0.1,0.4-0.3,0.6C45.3,33.5,45.2,33.5,45.1,33.5z"
				/>
			<path class="st0" d="M45.1,33.1L45.1,33.1l-3.5-0.3c-0.1,0-0.3-0.1-0.3-0.4l0.8-10.6l-2.8-0.3c-0.1,0-0.3-0.1-0.3-0.4l0.3-3.5
				c0-0.1,0.1-0.3,0.3-0.3l0,0l9,0.7c0.1,0,0.1,0,0.3,0.1c0,0,0.1,0.1,0.1,0.3l-0.3,3.5c0,0.1,0,0.1-0.1,0.3c0,0-0.1,0.1-0.3,0.1
				l0,0l-2.2-0.1l-0.8,10.6c0,0.1,0,0.1-0.1,0.3C45.2,33.1,45.2,33.1,45.1,33.1z"/>
			<polygon class="st0" points="40.8,32.8 41.6,21.9 38.7,21.7 39,17.2 48.8,18.1 48.4,22.5 45.9,22.2 45.1,33.2 			"/>
			<path class="st0" d="M45.6,21.8l-0.8,11l-3.5-0.3l0.8-11l-2.9-0.3l0.3-3.5l9,0.7l-0.3,3.5L45.6,21.8z"/>
			<path class="st0" d="M50.9,33.9c-0.1,0-0.1,0-0.3,0l-3.3-1c-0.3-0.1-0.4-0.3-0.6-0.6c-0.1-0.3-0.1-0.6-0.1-0.8l4.3-14.2
				c0.1-0.4,0.6-0.7,1-0.7c0,0,0,0,4.9,0.1c0.4,0,0.8,0.4,1,0.8l2.5,14c0,0.3,0,0.6-0.1,0.7c-0.1,0.3-0.4,0.4-0.7,0.4l-3.5,0.7h-0.1
				c-0.4,0-0.8-0.3-1-0.8l-0.3-1.4h-2.1l-0.6,1.9C51.7,33.6,51.3,33.9,50.9,33.9z"/>
			<path class="st0" d="M50.9,33.5h-0.1l-3.3-1c-0.1,0-0.3-0.1-0.4-0.3c-0.1-0.1-0.1-0.3,0-0.4l4.3-14.2c0.1-0.3,0.3-0.4,0.6-0.4
				c0,0,0,0,4.9,0.1c0.3,0,0.6,0.3,0.6,0.4l2.5,14c0,0.1,0,0.3-0.1,0.4c-0.1,0.1-0.3,0.3-0.4,0.3l-3.5,0.6c0,0,0,0-0.1,0
				c-0.3,0-0.6-0.1-0.6-0.4l-0.3-1.8l-2.6-0.1l-0.7,2.4C51.3,33.3,51.2,33.5,50.9,33.5z M54,26.1l-0.1-0.8l-0.3,0.8H54z"/>
			<path class="st0" d="M50.5,33.6h-0.1l-3.3-1c-0.1,0-0.3-0.1-0.4-0.3c-0.1-0.1-0.1-0.3,0-0.6l4.3-14.2c0.1-0.3,0.3-0.4,0.7-0.4
				c0,0,0,0,4.9,0.1c0.3,0,0.6,0.3,0.7,0.6l2.5,14c0,0.1,0,0.4-0.1,0.6s-0.3,0.3-0.4,0.3l-3.5,0.6h-0.1c-0.3,0-0.6-0.3-0.7-0.6
				l-0.3-1.7H52l-0.7,2.2C51,33.5,50.8,33.6,50.5,33.6z M53.5,26.1l-0.1-0.4l-0.1,0.4H53.5z"/>
			<path class="st0" d="M50.5,33.2L50.5,33.2l-3.5-1c0,0-0.1,0-0.1-0.1v-0.1l4.3-14.2c0-0.1,0.1-0.1,0.3-0.1l4.9,0.1
				c0.1,0,0.3,0.1,0.3,0.1l2.5,14v0.1L59,32.2l-3.5,0.6l0,0c-0.1,0-0.3-0.1-0.3-0.1l-0.4-1.9l-3.2-0.1l-0.8,2.6
				C50.8,33.2,50.6,33.2,50.5,33.2z M54,26.5l-0.6-2.6l-0.8,2.6H54z"/>
			<path class="st0" d="M50.9,33.7c-0.1,0-0.1,0-0.3,0l-3.3-1c-0.1,0-0.4-0.1-0.4-0.4c-0.1-0.1-0.1-0.4,0-0.6l4.3-14.2
				c0.1-0.3,0.4-0.6,0.7-0.6c0,0,0,0,4.9,0.1c0.4,0,0.7,0.3,0.7,0.6l2.5,14c0,0.1,0,0.4-0.1,0.6c-0.1,0.1-0.3,0.3-0.6,0.3l-3.5,0.6
				h-0.1c-0.4,0-0.7-0.3-0.7-0.6L54.6,31h-2.4l-0.7,2.2C51.5,33.5,51.2,33.7,50.9,33.7z M53.7,26L53.7,26L53.7,26L53.7,26z"/>
			<path class="st0" d="M50.9,33.3C50.8,33.3,50.8,33.3,50.9,33.3l-3.5-1c-0.1,0-0.1-0.1-0.1-0.1c0-0.1,0-0.1,0-0.3l4.3-14.2
				c0-0.1,0.1-0.3,0.3-0.3l4.9,0.1c0.1,0,0.3,0.1,0.3,0.3l2.5,14c0,0.1,0,0.1,0,0.3c0,0.1-0.1,0.1-0.3,0.1l-3.5,0.6l0,0
				c-0.1,0-0.3-0.1-0.3-0.3l-0.4-1.9l-3.2-0.1l-0.7,2.5C51.2,33.2,51,33.3,50.9,33.3z M54.2,26.4l-0.4-2.2l-0.7,2.2H54.2z"/>
			<path class="st0" d="M46.6,32.2L51,17.4l5.4,0.1l2.6,14.7l-4.3,0.7l-0.1-2.2l-2.9-0.1l-1,2.9L46.6,32.2z M53.8,26.2l-0.3-1.8
				L53,26.2H53.8z"/>
			<path class="st0" d="M47.1,31.9l4.3-14.2l4.9,0.1l2.5,14l-3.5,0.6l-0.4-2.2l-3.6-0.1l-0.8,2.8L47.1,31.9z M54.4,26.8l-0.7-4
				l-1.2,3.9L54.4,26.8z"/>
		</g>
		<g>
			<path class="st8" d="M7.7,34.4c-0.1,0-0.3,0-0.4-0.1C7.1,34.2,7,34,7,33.9L4.5,18.3c0-0.1,0-0.4,0.1-0.6c0.1-0.1,0.3-0.3,0.4-0.3
				l4.2-0.7c1.4-0.3,2.8-0.4,4.2-0.7h0.1c0.4,0,0.7,0.3,0.7,0.6l0.7,4c0,0.1,0,0.4-0.1,0.6c-0.1,0.1-0.3,0.3-0.4,0.3l-3.7,0.7l0.1,1
				l2.5-0.4h0.1c0.4,0,0.7,0.3,0.7,0.6l0.6,4c0,0.1,0,0.4-0.1,0.6s-0.3,0.3-0.4,0.3l-2.5,0.4l0.7,4.4c0,0.4-0.1,0.8-0.6,0.8
				L7.7,34.4L7.7,34.4z"/>
			<path class="st8" d="M7.7,34.3c-0.1,0-0.3,0-0.3-0.1c-0.1-0.1-0.3-0.3-0.3-0.4L4.6,18.2c0-0.1,0-0.3,0.1-0.4
				c0.1-0.1,0.3-0.3,0.4-0.3l4.2-0.7c1.4-0.3,2.8-0.4,4.2-0.7h0.1c0.3,0,0.6,0.1,0.6,0.4l0.7,4c0,0.1,0,0.3-0.1,0.4
				c-0.1,0.1-0.3,0.3-0.4,0.3l-3.9,0.7l0.1,1.2l2.6-0.4c0,0,0,0,0.1,0c0.3,0,0.6,0.3,0.6,0.6l0.6,4c0,0.1,0,0.3-0.1,0.4
				c-0.1,0.1-0.3,0.3-0.4,0.3l-2.5,0.4l0.7,4.6c0,0.3-0.1,0.7-0.6,0.7L7.7,34.3L7.7,34.3z"/>
			<path class="st8" d="M7.3,34.2c-0.1,0-0.1,0-0.3-0.1c-0.1,0-0.1-0.1-0.1-0.3L4.5,18.2c0-0.1,0-0.1,0.1-0.3c0-0.1,0.1-0.1,0.3-0.1
				l4.2-0.7c1.4-0.3,2.8-0.4,4.2-0.7c0,0,0,0,0.1,0c0.1,0,0.4,0.1,0.4,0.3l0.7,4c0,0.1,0,0.3,0,0.3c0,0.1-0.1,0.1-0.3,0.1l-4.2,0.7
				l0.3,1.7l2.8-0.4l0,0c0.1,0,0.4,0.1,0.4,0.3l0.6,4c0,0.1,0,0.3-0.1,0.3c0,0.1-0.1,0.1-0.3,0.1l-2.8,0.4l0.7,4.9
				c0,0.1-0.1,0.4-0.3,0.4L7.3,34.2C7.4,34.2,7.3,34.2,7.3,34.2z"/>
			<path class="st8" d="M7.3,34H7.1L7,33.9L4.6,18.2c0-0.1,0.1-0.3,0.3-0.3l4.2-0.7c1.4-0.3,2.8-0.4,4.2-0.7l0,0
				c0.1,0,0.3,0.1,0.3,0.1l0.7,4v0.1L14.1,21l-4.3,0.7l0.3,2.1l2.9-0.4l0,0c0.1,0,0.3,0.1,0.3,0.3l0.6,4v0.1l-0.1,0.1l-2.9,0.4
				l0.8,4.9c0,0.1-0.1,0.3-0.3,0.3L7.3,34C7.4,34,7.3,34,7.3,34z"/>
			<path class="st8" d="M7.7,34.2c-0.1,0-0.1,0-0.3-0.1c-0.1-0.1-0.1-0.1-0.1-0.3L4.8,18.2c0-0.3,0.1-0.6,0.4-0.6l4.2-0.7
				c1.4-0.3,2.8-0.4,4.2-0.7c0,0,0,0,0.1,0c0.3,0,0.4,0.1,0.4,0.4l0.7,4c0,0.1,0,0.3-0.1,0.4c-0.1,0.1-0.3,0.1-0.3,0.1l-4,0.7
				l0.3,1.5l2.6-0.4c0,0,0,0,0.1,0c0.3,0,0.4,0.1,0.4,0.4l0.6,4c0,0.1,0,0.3-0.1,0.4c0,0-0.1,0-0.3,0.1l-2.6,0.4l0.7,4.6
				c0,0.3-0.1,0.6-0.4,0.6L7.7,34.2L7.7,34.2z"/>
			<path class="st8" d="M7.7,34c-0.1,0-0.1,0-0.1,0c-0.1,0-0.1-0.1-0.1-0.3L4.9,18.2c0-0.1,0.1-0.4,0.3-0.4l4.2-0.7
				c1.4-0.3,2.8-0.4,4.2-0.7l0,0c0.1,0,0.3,0.1,0.3,0.3l0.7,4c0,0.1,0,0.1,0,0.3c0,0.1-0.1,0.1-0.3,0.1l-4.2,0.7l0.3,1.8l2.8-0.4
				l0,0c0.1,0,0.3,0.1,0.3,0.3l0.6,4c0,0.1,0,0.1,0,0.3c0,0.1-0.1,0.1-0.3,0.1l-2.8,0.4l0.7,4.7c0,0.1-0.1,0.4-0.3,0.4L7.7,34
				L7.7,34z"/>
			<path class="st8" d="M7.3,33.9L7.3,33.9C7.3,33.7,7.1,33.7,7.3,33.9L4.8,18.2c0-0.1,0-0.1,0.1-0.1l4.2-0.7
				c1.4-0.3,2.8-0.4,4.2-0.7l0,0c0,0,0.1,0,0.1,0.1l0.7,4V21c0,0,0,0-0.1,0l-4.3,0.7l0.4,2.2l2.9-0.6l0,0c0,0,0.1,0,0.1,0.1l0.6,4
				v0.1c0,0,0,0-0.1,0l-3.1,0.4l0.8,5c0,0.1,0,0.1-0.1,0.1L7.3,33.9L7.3,33.9z"/>
			<path class="st8" d="M14,20.8l-4.4,0.8l0.4,2.5l3.1-0.7l0.6,4l-3.1,0.4l0.8,5.1l-3.9,0.6L4.8,18.2c1.4-0.3,2.8-0.4,4.2-0.7
				c1.4-0.3,2.8-0.4,4.2-0.7L14,20.8z"/>
			<path class="st8" d="M18.5,34.3L18.5,34.3l-3.6-0.6c-0.1,0-0.4-0.1-0.4-0.3c-0.1-0.1-0.1-0.4-0.1-0.6l2.2-14.6
				c0-0.3,0.3-0.6,0.7-0.6l4.7-0.6c0,0,0,0,0.1,0c0.3,0,0.6,0.1,0.7,0.6l4.4,13.5c0,0.1,0,0.4,0,0.6c-0.1,0.1-0.3,0.3-0.4,0.4
				l-3.3,1.1c-0.1,0-0.1,0-0.3,0c-0.3,0-0.6-0.1-0.7-0.6L22,31.2l-2.5,0.3l-0.4,2.4C19.2,34,19,34.3,18.5,34.3z M20.5,26.2
				L20.5,26.2L20.5,26.2L20.5,26.2z"/>
			<path class="st8" d="M18.5,34.2L18.5,34.2l-3.6-0.6c-0.1,0-0.3-0.1-0.4-0.3c-0.1-0.1-0.1-0.3-0.1-0.4l2.2-14.6
				c0-0.3,0.3-0.4,0.6-0.6l4.7-0.6l0,0c0.3,0,0.4,0.1,0.6,0.4l4.4,13.5c0,0.1,0,0.3,0,0.4c-0.1,0.1-0.1,0.3-0.3,0.3l-3.3,1.1h-0.1
				c-0.3,0-0.4-0.1-0.6-0.4L22,30.8l-2.6,0.3L19,33.5C19.1,33.9,19,34.2,18.5,34.2z M20.3,26.4h0.4l-0.3-0.8L20.3,26.4z"/>
			<path class="st8" d="M18.3,33.9L18.3,33.9l-3.5-0.6c-0.1,0-0.1-0.1-0.3-0.1c0-0.1-0.1-0.1-0.1-0.3l2.2-14.6
				c0-0.1,0.1-0.3,0.3-0.3l4.7-0.6l0,0c0.1,0,0.3,0.1,0.4,0.3l4.4,13.5c0,0.1,0,0.1,0,0.3s-0.1,0.1-0.3,0.1l-3.3,1.1h-0.1
				c-0.1,0-0.3-0.1-0.4-0.3L22,30.7L19.1,31l-0.4,2.5C18.7,33.7,18.4,33.9,18.3,33.9z M19.6,26.7l1-0.1l-0.6-1.8L19.6,26.7z"/>
			<path class="st8" d="M18.3,33.7L18.3,33.7l-3.5-0.6c0,0-0.1,0-0.1-0.1v-0.1l2.2-14.6c0-0.1,0.1-0.1,0.3-0.3l4.7-0.6l0,0
				c0.1,0,0.1,0,0.3,0.1l4.4,13.5v0.1l-0.1,0.1l-3.3,1.1c0,0,0,0-0.1,0s-0.1,0-0.3-0.1L22,30.4l-3.2,0.4l-0.3,2.8
				C18.5,33.7,18.4,33.7,18.3,33.7z M19.5,26.8l1.2-0.1L19.9,24L19.5,26.8z"/>
			<path class="st8" d="M18.5,34L18.5,34l-3.5-0.6c-0.1,0-0.3-0.1-0.3-0.1c-0.1-0.1-0.1-0.3-0.1-0.4l2.2-14.6c0-0.3,0.1-0.4,0.4-0.4
				l4.7-0.6l0,0c0.1,0,0.4,0.1,0.4,0.3l4.4,13.5c0,0.1,0,0.3,0,0.4c0,0.1-0.1,0.1-0.3,0.3l-3.3,1.1h-0.1c-0.1,0-0.4-0.1-0.4-0.3
				l-0.6-1.8l-2.8,0.3L19,33.6C19.1,33.9,18.8,34,18.5,34z M20.2,26.5l0.7-0.1L20.5,25L20.2,26.5z"/>
			<path class="st8" d="M18.5,33.9L18.5,33.9l-3.5-0.6c-0.1,0-0.1,0-0.3-0.1c0-0.1-0.1-0.1,0-0.3L17,18.3c0-0.1,0.1-0.3,0.3-0.3
				l4.7-0.6l0,0c0.1,0,0.3,0.1,0.3,0.3l4.4,13.5c0,0.1,0,0.1,0,0.3s-0.1,0.1-0.1,0.1l-3.3,1.1h-0.1c-0.1,0-0.3-0.1-0.3-0.3l-0.4-1.8
				L19.4,31L19,33.6C19,33.7,18.8,33.9,18.5,33.9z M19.9,26.7l1.1-0.1l-0.7-2.1L19.9,26.7z"/>
			<path class="st8" d="M18.3,33.6L18.3,33.6l-3.5-0.6c0,0,0,0-0.1,0c0,0,0,0,0-0.1l2.2-14.6c0,0,0-0.1,0.1-0.1l4.7-0.6l0,0
				c0,0,0.1,0,0.1,0.1l4.4,13.5v0.1c0,0,0,0-0.1,0l-3.3,1.1l0,0c0,0-0.1,0-0.1-0.1L22,30.3l-3.3,0.4L18.3,33.6
				C18.4,33.6,18.3,33.6,18.3,33.6z M19.4,26.9l1.5-0.1l-1-3.2L19.4,26.9z"/>
			<path class="st8" d="M14.8,33.1L17,18.5l4.7-0.6l4.4,13.5l-3.3,1.1l-0.7-2.1l-3.5,0.3l-0.4,2.8L14.8,33.1z M21.2,26.8l-1.2-3.7
				l-0.6,4L21.2,26.8z"/>
			<path class="st8" d="M27.4,33.5c-0.1,0-0.3,0-0.4-0.1c-0.1-0.1-0.3-0.3-0.3-0.6l-1.2-12.5c0-0.1,0-0.4,0.1-0.6
				c0.1-0.1,0.3-0.3,0.6-0.3l3.5-0.4c0,0,0,0,0.1,0c0.3,0,0.4,0.1,0.6,0.3l3.3,4.4l-0.4-4.6c0-0.1,0-0.4,0.1-0.6
				c0.1-0.1,0.3-0.3,0.6-0.3l3.5-0.4c0,0,0,0,0.1,0s0.3,0,0.4,0.1c0.1,0.1,0.3,0.3,0.3,0.6l1.4,13.3c0,0.1,0,0.4-0.1,0.6
				c-0.1,0.1-0.3,0.3-0.6,0.3l-3.5,0.4c0,0,0,0-0.1,0c-0.3,0-0.4-0.1-0.6-0.3L31.5,29l0.3,3.2c0,0.1,0,0.4-0.1,0.6
				c-0.1,0.1-0.3,0.3-0.6,0.3L27.4,33.5C27.6,33.5,27.4,33.5,27.4,33.5z"/>
			<path class="st8" d="M27.4,33.3c-0.1,0-0.3,0-0.4-0.1c-0.1-0.1-0.1-0.3-0.3-0.4l-1.2-12.6c0-0.1,0-0.3,0.1-0.4
				c0.1-0.1,0.3-0.1,0.4-0.3l3.5-0.4l0,0c0.1,0,0.4,0.1,0.4,0.3l3.6,4.7L33,18.9c0-0.1,0-0.3,0.1-0.4c0.1-0.1,0.3-0.1,0.4-0.3
				l3.5-0.4l0,0c0.1,0,0.3,0,0.4,0.1c0.1,0.1,0.1,0.3,0.3,0.4l1.4,13.3c0,0.1,0,0.3-0.1,0.4c-0.1,0.1-0.3,0.1-0.4,0.3l-3.5,0.4l0,0
				c-0.1,0-0.3-0.1-0.4-0.1L31,28.5l0.4,3.7c0,0.1,0,0.3-0.1,0.4c-0.1,0.1-0.3,0.1-0.4,0.3L27.4,33.3L27.4,33.3z"/>
			<path class="st8" d="M27.1,33.2c-0.1,0-0.1,0-0.3-0.1c-0.1,0-0.1-0.1-0.1-0.3l-1.2-12.6c0-0.3,0.1-0.4,0.4-0.4l3.5-0.4l0,0
				c0.1,0,0.3,0,0.3,0.1l4,5.3l-0.6-5.8c0-0.3,0.1-0.4,0.4-0.4l3.5-0.4l0,0c0.1,0,0.1,0,0.3,0.1c0.1,0,0.1,0.1,0.1,0.3l1.4,13.3
				c0,0.1,0,0.1-0.1,0.3c0,0.1-0.1,0.1-0.3,0.1l-3.5,0.4l0,0c-0.1,0-0.3,0-0.3-0.1l-4-4.7l0.4,4.3c0,0.1,0,0.1-0.1,0.3
				c0,0.1-0.1,0.1-0.3,0.1L27.1,33.2L27.1,33.2z"/>
			<path class="st8" d="M27.1,33.1H27l-0.1-0.1l-1.2-12.6c0-0.1,0.1-0.3,0.3-0.3l3.5-0.4l0,0c0.1,0,0.1,0,0.1,0.1l4.4,5.7l-0.7-6.2
				c0-0.1,0.1-0.3,0.3-0.3l3.5-0.4l0,0h0.1l0.1,0.1l1.4,13.3c0,0.1-0.1,0.3-0.3,0.3l-3.5,0.4l0,0c-0.1,0-0.1,0-0.1-0.1l-4.3-5
				l0.4,4.7c0,0.1-0.1,0.3-0.3,0.3L27.1,33.1L27.1,33.1z"/>
			<path class="st8" d="M27.4,33.2c-0.1,0-0.3,0-0.3-0.1C27,32.9,27,32.9,27,32.8l-1.2-12.6c0-0.3,0.1-0.6,0.4-0.6l3.5-0.4l0,0
				c0.1,0,0.3,0.1,0.4,0.1l3.9,5.1l-0.6-5.6c0-0.1,0-0.3,0.1-0.4c0.1-0.1,0.1-0.1,0.3-0.1l3.5-0.4l0,0c0.1,0,0.3,0,0.3,0.1
				c0.1,0.1,0.1,0.1,0.1,0.3l1.4,13.3c0,0.1,0,0.3-0.1,0.4c-0.1,0.1-0.1,0.1-0.3,0.1l-3.5,0.4l0,0c-0.1,0-0.3,0-0.4-0.1L31,28.3
				l0.4,4c0,0.3-0.1,0.6-0.4,0.6L27.4,33.2L27.4,33.2z"/>
			<path class="st8" d="M27.4,33.1c-0.1,0-0.1,0-0.3-0.1c0,0-0.1-0.1-0.1-0.3L25.8,20c0-0.1,0.1-0.4,0.3-0.4l3.5-0.4l0,0
				c0.1,0,0.1,0,0.3,0.1l4.2,5.4l-0.6-6c0-0.1,0.1-0.4,0.3-0.4l3.5-0.4l0,0c0.1,0,0.1,0,0.3,0.1c0,0,0.1,0.1,0.1,0.3L39,31.7
				c0,0.1-0.1,0.4-0.3,0.4l-3.5,0.4l0,0c-0.1,0-0.1,0-0.3-0.1l-4.2-4.9l0.4,4.4c0,0.1-0.1,0.4-0.3,0.4L27.4,33.1L27.4,33.1z"/>
			<path class="st8" d="M27.1,32.9C27,32.9,27,32.9,27.1,32.9C27,32.8,27,32.8,27.1,32.9l-1.4-12.6c0-0.1,0-0.1,0.1-0.1l3.5-0.4l0,0
				h0.1l4.6,6L33.4,19c0-0.1,0-0.1,0.1-0.1l3.5-0.4l0,0c0,0,0,0,0.1,0c0,0,0,0,0,0.1l1.4,13.3c0,0.1,0,0.1-0.1,0.1l-3.5,0.4l0,0
				h-0.1l-4.6-5.3l0.6,5.1c0,0.1,0,0.1-0.1,0.1L27.1,32.9L27.1,32.9z"/>
			<path class="st8" d="M27.1,32.8l-1.2-12.6l3.5-0.4l5,6.4l-0.7-7.2l3.5-0.4l1.4,13.3l-3.5,0.4l-4.9-5.6l0.6,5.6L27.1,32.8z"/>
			<path class="st8" d="M45.1,33.3L45.1,33.3l-3.6-0.3c-0.1,0-0.4-0.1-0.6-0.3c-0.1-0.1-0.1-0.3-0.1-0.6l0.8-10.3l-2.2-0.1
				c-0.4,0-0.7-0.4-0.7-0.8l0.3-3.5c0-0.4,0.4-0.7,0.7-0.7l0,0l9,0.7c0.1,0,0.4,0.1,0.6,0.3c0.1,0.1,0.1,0.3,0.1,0.6l-0.3,3.5
				c0,0.1-0.1,0.4-0.3,0.6c-0.1,0.1-0.3,0.1-0.4,0.1l0,0l-1.8-0.1l-0.8,10.1c0,0.1-0.1,0.4-0.3,0.6C45.5,33.2,45.3,33.3,45.1,33.3z"
				/>
			<path class="st8" d="M45.1,33.2L45.1,33.2l-3.6-0.3c-0.1,0-0.3-0.1-0.4-0.1c-0.1-0.1-0.1-0.3-0.1-0.4l0.8-10.4l-2.4-0.1
				c-0.3,0-0.6-0.3-0.6-0.7l0.3-3.5c0-0.3,0.3-0.6,0.6-0.6l0,0l9,0.7c0.1,0,0.3,0.1,0.4,0.1c0.1,0.1,0.1,0.3,0.1,0.4l-0.1,3.6
				c0,0.1-0.1,0.3-0.1,0.4c-0.1,0.1-0.3,0.1-0.4,0.1l0,0l-1.9-0.1l-0.8,10.3c0,0.1-0.1,0.3-0.1,0.4C45.3,33.2,45.2,33.2,45.1,33.2z"
				/>
			<path class="st8" d="M44.8,32.9L44.8,32.9l-3.6-0.3c-0.1,0-0.1,0-0.3-0.1c0-0.1-0.1-0.1-0.1-0.3l0.8-10.6L39,21.4
				c-0.3,0-0.4-0.3-0.4-0.4l0.3-3.5c0-0.1,0.1-0.4,0.4-0.4l0,0l9,0.7c0.1,0,0.1,0,0.3,0.1c0,0.1,0.1,0.1,0.1,0.3l-0.3,3.5
				c0,0.1,0,0.1-0.1,0.3c-0.1,0-0.1,0.1-0.3,0.1l0,0l-2.1-0.1l-0.8,10.6c0,0.1,0,0.1-0.1,0.3C44.9,32.9,44.9,32.9,44.8,32.9z"/>
			<path class="st8" d="M44.8,32.8L44.8,32.8l-3.5-0.3c-0.1,0-0.3-0.1-0.3-0.3l0.8-10.7l-2.8-0.3c-0.1,0-0.3-0.1-0.3-0.3l0.3-3.5
				c0-0.1,0.1-0.3,0.3-0.3l0,0l9,0.7c0,0,0.1,0,0.1,0.1v0.1l-0.3,3.5c0,0,0,0.1-0.1,0.1H48l0,0l-2.2-0.1l-0.8,10.7
				c0,0,0,0.1-0.1,0.1C44.9,32.8,44.8,32.8,44.8,32.8z"/>
			<path class="st8" d="M45.1,33.1L45.1,33.1l-3.6-0.3c-0.1,0-0.3,0-0.3-0.1C41,32.5,41,32.4,41,32.4l0.8-10.4l-2.5-0.3
				c-0.3,0-0.4-0.3-0.4-0.6l0.3-3.5c0-0.3,0.3-0.4,0.4-0.4l0,0l9,0.7c0.1,0,0.3,0.1,0.3,0.1c0.1,0.1,0.1,0.3,0.1,0.4l-0.3,3.5
				c0,0.1-0.1,0.3-0.1,0.3c0,0.1-0.1,0.1-0.1,0.1l0,0l-2.1-0.1l-0.8,10.4c0,0.1,0,0.3-0.1,0.3C45.3,33.1,45.2,33.1,45.1,33.1z"/>
			<path class="st8" d="M45.1,32.9L45.1,32.9l-3.5-0.3c-0.1,0-0.3-0.1-0.3-0.4l0.8-10.6l-2.6-0.3c-0.1,0-0.3-0.1-0.3-0.4l0.3-3.5
				c0-0.1,0.1-0.3,0.3-0.3l0,0l9,0.7c0.1,0,0.1,0,0.3,0.1c0,0,0.1,0.1,0.1,0.3L49,21.8c0,0.1,0,0.1-0.1,0.3c0,0-0.1,0.1-0.3,0.1l0,0
				l-2.2-0.1l-0.8,10.6c0,0.1,0,0.1-0.1,0.3C45.3,32.9,45.2,32.9,45.1,32.9z"/>
			<path class="st8" d="M44.8,32.8l-3.5-0.3c-0.1,0-0.1-0.1-0.1-0.1L42,21.5l-2.8-0.3c-0.1,0-0.1-0.1-0.1-0.1l0.3-3.5
				c0-0.1,0-0.1,0.1-0.1l0,0l9,0.7h0.1c0,0,0,0,0,0.1l-0.3,3.5v0.1c0,0,0,0-0.1,0l0,0l-2.4-0.1l-1,10.8
				C44.9,32.6,44.9,32.6,44.8,32.8L44.8,32.8L44.8,32.8z"/>
			<path class="st8" d="M45.6,21.7l-0.8,11l-3.5-0.3l0.8-11l-2.9-0.3l0.3-3.5l9,0.7l-0.3,3.5L45.6,21.7z"/>
			<path class="st8" d="M50.9,33.5c-0.1,0-0.1,0-0.3,0l-3.3-1c-0.1,0-0.3-0.1-0.4-0.4c-0.1-0.1-0.1-0.4,0-0.6l4.3-14.2
				c0.1-0.3,0.4-0.6,0.7-0.6c0,0,0,0,4.9,0.1c0.3,0,0.7,0.3,0.7,0.6l2.5,14c0,0.1,0,0.4-0.1,0.6c-0.1,0.1-0.3,0.3-0.4,0.3l-3.5,0.6
				h-0.1c-0.4,0-0.7-0.3-0.7-0.6l-0.3-1.7h-2.5l-0.7,2.2C51.6,33.3,51.2,33.5,50.9,33.5z M53.8,25.8L53.8,25.8L53.8,25.8L53.8,25.8z
				"/>
			<path class="st8" d="M50.9,33.3h-0.1l-3.3-1c-0.1,0-0.3-0.1-0.4-0.3c-0.1-0.1-0.1-0.3,0-0.4l4.3-14.2c0.1-0.3,0.3-0.4,0.6-0.4
				c0,0,0,0,4.9,0.1c0.3,0,0.6,0.3,0.6,0.4l2.5,14c0,0.1,0,0.3-0.1,0.4c-0.1,0.1-0.3,0.3-0.4,0.3l-3.5,0.6c0,0,0,0-0.1,0
				c-0.3,0-0.6-0.1-0.6-0.4l-0.1-1.8h-2.8l-0.7,2.4C51.5,33.2,51.2,33.3,50.9,33.3z M54,26l-0.1-0.8L53.5,26H54z"/>
			<path class="st8" d="M50.6,33.2C50.5,33.2,50.5,33.2,50.6,33.2l-3.5-1c-0.1,0-0.1-0.1-0.3-0.1c0-0.1,0-0.1,0-0.3l4.3-14.2
				c0-0.1,0.1-0.3,0.4-0.3c0,0,0,0,4.9,0.1c0.1,0,0.3,0.1,0.4,0.3l2.5,14c0,0.1,0,0.1,0,0.3c0,0.1-0.1,0.1-0.3,0.1l-3.5,0.6l0,0
				c-0.1,0-0.4-0.1-0.4-0.3l-0.6-1.9l-3.1-0.1l-0.7,2.5C50.9,33.1,50.8,33.2,50.6,33.2z M54,26.2l-0.4-1.9L53,26.2H54z"/>
			<path class="st8" d="M50.6,33.1C50.6,33.1,50.5,33.1,50.6,33.1l-3.5-1c0,0-0.1,0-0.1-0.1v-0.1l4.3-14.2c0-0.1,0.1-0.1,0.3-0.1
				l4.9,0.1c0.1,0,0.3,0.1,0.3,0.1l2.5,14v0.1l-0.1,0.1l-3.5,0.6l0,0c-0.1,0-0.3-0.1-0.3-0.1l-0.4-1.9l-3.2-0.1l-0.8,2.6
				C50.8,33.1,50.8,33.1,50.6,33.1z M54.1,26.4l-0.6-2.6l-0.8,2.6H54.1z"/>
			<path class="st8" d="M50.9,33.3C50.9,33.3,50.8,33.3,50.9,33.3l-3.5-1c-0.1,0-0.3-0.1-0.3-0.3c0-0.1-0.1-0.3,0-0.4l4.3-14.2
				c0-0.1,0.3-0.3,0.4-0.3c0,0,0,0,4.9,0.1c0.3,0,0.4,0.1,0.4,0.4l2.5,14c0,0.1,0,0.3-0.1,0.4c-0.1,0.1-0.1,0.1-0.3,0.1l-3.5,0.6
				c0,0,0,0-0.1,0c-0.3,0-0.4-0.1-0.4-0.4l-0.4-1.8l-2.9-0.1l-0.7,2.4C51.3,33.2,51.2,33.3,50.9,33.3z M54.1,26.1l-0.3-1.5L53.4,26
				L54.1,26.1z"/>
			<path class="st8" d="M50.9,33.2L50.9,33.2l-3.5-1.1c-0.1,0-0.1-0.1-0.1-0.1c0-0.1,0-0.1,0-0.3l4.3-14.2c0-0.1,0.1-0.3,0.3-0.3
				l4.9,0.1c0.1,0,0.3,0.1,0.3,0.3l2.5,14c0,0.1,0,0.1,0,0.3c0,0.1-0.1,0.1-0.3,0.1l-3.5,0.6l0,0c-0.1,0-0.3-0.1-0.3-0.3l-0.4-1.9
				L52,30.3l-0.7,2.5C51.2,33.1,51,33.2,50.9,33.2z M54.4,26.2L54,24l-0.7,2.2H54.4z"/>
			<path class="st8" d="M50.6,32.9L50.6,32.9l-3.3-1c0,0,0,0-0.1,0v-0.1l4.3-14.2l0.1-0.1l4.9,0.1c0,0,0.1,0,0.1,0.1l2.5,14v0.1
				c0,0,0,0-0.1,0l-3.5,0.6l0,0c0,0-0.1,0-0.1-0.1l-0.4-2.1l-3.3-0.1L50.6,32.9C50.8,32.9,50.6,32.9,50.6,32.9z M54.2,26.5l-0.6-3.2
				l-1,3.2H54.2z"/>
			<path class="st8" d="M47.3,31.8l4.3-14.2l4.9,0.1l2.4,14l-3.5,0.6l-0.4-2.2L51.3,30l-0.8,2.8L47.3,31.8z M54.4,26.7l-0.7-4
				l-1.2,3.9L54.4,26.7z"/>
		</g>
		<g>
			<path class="st9" d="M7.7,34.2c-0.1,0-0.3,0-0.3-0.1c-0.1-0.1-0.3-0.3-0.3-0.4L4.6,18.1c0-0.1,0-0.3,0.1-0.4
				c0.1-0.1,0.3-0.3,0.4-0.3l4.2-0.7c1.4-0.3,2.8-0.4,4.2-0.7h0.1c0.3,0,0.6,0.1,0.6,0.4l0.7,4c0,0.1,0,0.3-0.1,0.4
				c-0.1,0.1-0.3,0.3-0.4,0.3l-3.9,0.7l0.1,1.2l2.6-0.4c0,0,0,0,0.1,0c0.3,0,0.6,0.3,0.6,0.6l0.6,4c0,0.1,0,0.3-0.1,0.4
				c0,0.3-0.1,0.3-0.3,0.3l-2.5,0.4l0.7,4.6c0,0.3-0.1,0.7-0.6,0.7L7.7,34.2C7.8,34.2,7.7,34.2,7.7,34.2z"/>
			<path class="st9" d="M7.4,33.9H7.3l-0.1-0.1L4.6,18.1c0-0.1,0.1-0.3,0.3-0.3l4.2-0.7c1.4-0.3,2.8-0.4,4.2-0.7l0,0
				c0.1,0,0.3,0.1,0.3,0.1l0.7,4v0.1l-0.1,0.1l-4.3,0.7l0.3,1.9l2.9-0.3l0,0c0.1,0,0.3,0.1,0.3,0.3l0.6,4v0.1l-0.1,0.1l-2.9,0.4
				l0.8,4.7c0,0.1-0.1,0.3-0.3,0.3L7.4,33.9L7.4,33.9z"/>
			<path class="st9" d="M7.7,33.9c-0.1,0-0.1,0-0.1,0c-0.1-0.1-0.1-0.1-0.1-0.3L4.9,18.1c0-0.1,0.1-0.4,0.3-0.4l4.2-0.7
				c1.4-0.3,2.8-0.4,4.2-0.7l0,0c0.1,0,0.3,0.1,0.3,0.3l0.7,4c0,0.1,0,0.1,0,0.3c0,0.1-0.1,0.1-0.3,0.1l-4.2,0.7l0.3,1.8l2.8-0.4
				l0,0c0.1,0,0.3,0.1,0.3,0.3l0.6,4c0,0.1,0,0.1,0,0.3s-0.1,0.1-0.3,0.1l-2.8,0.4l0.7,4.7c0,0.1-0.1,0.4-0.3,0.4L7.7,33.9
				C7.8,33.9,7.7,33.9,7.7,33.9z"/>
			<path class="st9" d="M14,20.7l-4.4,0.8L9.9,24l3.1-0.7l0.6,4l-3.2,0.4l0.8,5.1l-3.7,0.7L4.9,18.1c1.4-0.3,2.8-0.4,4.2-0.7
				s2.8-0.4,4.2-0.7L14,20.7z"/>
			<path class="st9" d="M18.7,34C18.7,34,18.5,34,18.7,34l-3.6-0.6c-0.1,0-0.3-0.1-0.4-0.3c-0.1-0.1-0.1-0.3-0.1-0.4l2.4-14.6
				c0-0.3,0.3-0.4,0.6-0.6l4.7-0.6l0,0c0.3,0,0.4,0.1,0.6,0.4L27.1,31c0,0.1,0,0.3,0,0.4c-0.1,0.1-0.1,0.3-0.3,0.3l-3.3,1.1h-0.1
				c-0.3,0-0.4-0.1-0.6-0.4l-0.6-1.7L19.6,31l-0.4,2.5C19.2,33.7,19,34,18.7,34z M20.3,26.2h0.4l-0.3-0.8L20.3,26.2z"/>
			<path class="st9" d="M18.3,33.6L18.3,33.6l-3.5-0.6c0,0-0.1,0-0.1-0.1v-0.1l2.2-14.6c0-0.1,0.1-0.1,0.3-0.3l4.7-0.6l0,0
				c0.1,0,0.1,0,0.3,0.1L26.6,31v0.1l-0.1,0.1l-3.3,1.1c0,0,0,0-0.1,0s-0.1,0-0.3-0.1L22,30.3l-3.2,0.4l-0.3,2.8
				C18.5,33.6,18.4,33.6,18.3,33.6z M19.6,26.7l1.2-0.1L20.1,24L19.6,26.7z"/>
			<path class="st9" d="M18.7,33.7L18.7,33.7l-3.5-0.6c-0.1,0-0.1,0-0.3-0.1c0-0.1-0.1-0.1,0-0.3l2.2-14.6c0-0.1,0.1-0.3,0.3-0.3
				l4.7-0.6l0,0c0.1,0,0.3,0.1,0.3,0.3l4.4,13.5c0,0.1,0,0.1,0,0.3c0,0.1-0.1,0.1-0.1,0.1l-3.3,1.1h-0.1c-0.1,0-0.3-0.1-0.3-0.3
				l-0.7-1.8l-3.1,0.3L19,33.5C19,33.6,18.8,33.7,18.7,33.7z M20.1,26.5l1.1-0.1l-0.7-2.1L20.1,26.5z"/>
			<path class="st9" d="M14.9,32.9l2.2-14.7l4.7-0.6l4.4,13.5L23,32.2l-0.7-2.1l-3.6,0.4l-0.4,2.9L14.9,32.9z M21.2,26.7l-1.2-3.7
				l-0.6,4L21.2,26.7z"/>
			<path class="st9" d="M27.6,33.2c-0.1,0-0.3,0-0.4-0.1c-0.1-0.1-0.1-0.3-0.3-0.4L25.6,20c0-0.1,0-0.3,0.1-0.4
				c0.1-0.1,0.3-0.1,0.4-0.3l3.5-0.4l0,0c0.1,0,0.4,0.1,0.4,0.3l3.6,4.7l-0.6-5.1c0-0.1,0-0.3,0.1-0.4c0.1-0.1,0.3-0.1,0.4-0.3
				l3.5-0.4l0,0c0.1,0,0.3,0,0.4,0.1c0.1,0.1,0.1,0.3,0.3,0.4l1.4,13.3c0,0.1,0,0.3-0.1,0.4c-0.1,0.1-0.3,0.1-0.4,0.3l-3.5,0.4l0,0
				c-0.1,0-0.3-0.1-0.4-0.1l-3.6-4.2l0.4,3.7c0,0.1,0,0.3-0.1,0.4c-0.1,0.1-0.3,0.1-0.4,0.3L27.6,33.2L27.6,33.2z"/>
			<path class="st9" d="M27.1,32.9H27l-0.1-0.1l-1.2-12.6c0-0.1,0.1-0.3,0.3-0.3l3.5-0.4l0,0c0.1,0,0.1,0,0.1,0.1l4.4,5.7L33.3,19
				c0-0.1,0.1-0.3,0.3-0.3l3.5-0.4l0,0h0.1l0.1,0.1l1.4,13.3c0,0.1-0.1,0.3-0.3,0.3l-3.5,0.4l0,0c-0.1,0-0.1,0-0.1-0.1l-4.3-5
				l0.4,4.7c0,0.1-0.1,0.3-0.3,0.3L27.1,32.9L27.1,32.9z"/>
			<path class="st9" d="M27.6,32.9c-0.1,0-0.1,0-0.3-0.1c0,0-0.1-0.1-0.1-0.3l-1.2-12.6c0-0.1,0.1-0.4,0.3-0.4l3.5-0.4l0,0
				c0.1,0,0.1,0,0.3,0.1l4.2,5.4l-0.6-6c0-0.1,0.1-0.4,0.3-0.4l3.5-0.4l0,0c0.1,0,0.1,0,0.3,0.1c0,0,0.1,0.1,0.1,0.3l1.4,13.3
				c0,0.1-0.1,0.4-0.3,0.4l-3.5,0.4l0,0c-0.1,0-0.1,0-0.3-0.1l-4.2-4.9l0.4,4.4c0,0.1-0.1,0.4-0.3,0.4L27.6,32.9L27.6,32.9z"/>
			<path class="st9" d="M27.1,32.6L25.9,20l3.5-0.4l5,6.4l-0.7-7.2l3.5-0.4l1.4,13.3l-3.5,0.4l-4.9-5.6l0.6,5.6L27.1,32.6z"/>
			<path class="st9" d="M45.2,33.1L45.2,33.1l-3.6-0.3c-0.1,0-0.3-0.1-0.4-0.1C41,32.5,41,32.4,41,32.2l0.8-10.4l-2.4-0.1
				c-0.3,0-0.6-0.3-0.6-0.7l0.3-3.5c0-0.3,0.3-0.6,0.6-0.6l0,0l9,0.7c0.1,0,0.3,0.1,0.4,0.1c0.1,0.1,0.1,0.3,0.1,0.4l-0.3,3.6
				c0,0.1-0.1,0.3-0.1,0.4c-0.1,0.1-0.3,0.1-0.4,0.1l0,0l-1.9-0.1l-0.8,10.3c0,0.1-0.1,0.3-0.1,0.4C45.5,33.1,45.3,33.1,45.2,33.1z"
				/>
			<path class="st9" d="M44.8,32.6L44.8,32.6l-3.5-0.3c-0.1,0-0.3-0.1-0.3-0.3l0.8-10.7l-2.8-0.3c-0.1,0-0.3-0.1-0.3-0.3l0.3-3.5
				c0-0.1,0.1-0.3,0.3-0.3l0,0l9,0.7c0,0,0.1,0,0.1,0.1v0.1l-0.3,3.5c0,0,0,0.1-0.1,0.1H48l0,0l-2.2-0.1l-0.8,10.7
				c0,0,0,0.1-0.1,0.1C44.9,32.6,44.9,32.6,44.8,32.6z"/>
			<path class="st9" d="M45.2,32.8L45.2,32.8l-3.5-0.3c-0.1,0-0.3-0.1-0.3-0.4l0.8-10.6l-2.6-0.3c-0.1,0-0.3-0.1-0.3-0.4l0.3-3.5
				c0-0.1,0.1-0.3,0.3-0.3l0,0l9,0.7c0.1,0,0.1,0,0.3,0.1c0,0,0.1,0.1,0.1,0.3l-0.3,3.5c0,0.1,0,0.1-0.1,0.3c0,0-0.1,0.1-0.3,0.1
				l0,0l-2.4-0.1l-0.8,10.6c0,0.1,0,0.1-0.1,0.3C45.3,32.8,45.3,32.8,45.2,32.8z"/>
			<path class="st9" d="M45.8,21.5l-0.8,11l-3.5-0.3l0.8-11L39.2,21l0.3-3.5l9,0.7l-0.3,3.5L45.8,21.5z"/>
			<path class="st9" d="M51,33.2h-0.1l-3.3-1c-0.1,0-0.3-0.1-0.4-0.3c-0.1-0.1-0.1-0.3,0-0.4l4.3-14.2c0.1-0.3,0.3-0.4,0.6-0.4
				c0,0,0,0,4.9,0.1c0.3,0,0.6,0.3,0.6,0.4l2.5,14c0,0.1,0,0.3-0.1,0.4c-0.1,0.1-0.3,0.3-0.4,0.3l-3.5,0.6c0,0,0,0-0.1,0
				c-0.3,0-0.6-0.1-0.6-0.4l-0.3-1.8l-2.6-0.1l-0.7,2.4C51.5,33.1,51.3,33.2,51,33.2z M54.1,25.8L54,25l-0.3,0.8H54.1z"/>
			<path class="st9" d="M50.6,32.9L50.6,32.9l-3.5-1c0,0-0.1,0-0.1-0.1v-0.1l4.3-14.2c0-0.1,0.1-0.1,0.3-0.1l4.9,0.1
				c0.1,0,0.3,0.1,0.3,0.1l2.5,14v0.1l-0.1,0.1l-3.5,0.6l0,0c-0.1,0-0.3-0.1-0.3-0.1l-0.4-1.9l-3.2-0.1l-0.8,2.6
				C50.9,32.9,50.8,32.9,50.6,32.9z M54.1,26.2l-0.6-2.6l-0.8,2.6H54.1z"/>
			<path class="st9" d="M51,33.1C50.9,33.1,50.9,33.1,51,33.1l-3.5-1c-0.1,0-0.1-0.1-0.1-0.1c0-0.1,0-0.1,0-0.3l4.3-14.2
				c0-0.1,0.1-0.3,0.3-0.3l4.9,0.1c0.1,0,0.3,0.1,0.3,0.3l2.5,14c0,0.1,0,0.1,0,0.3c0,0.1-0.1,0.1-0.3,0.1l-3.5,0.6l0,0
				c-0.1,0-0.3-0.1-0.3-0.3l-0.4-1.9l-3.1-0.1l-0.7,2.5C51.3,32.9,51.2,33.1,51,33.1z M54.4,26.1L54,23.9l-0.7,2.2H54.4z"/>
			<path class="st9" d="M47.3,31.7l4.3-14.2l4.9,0.1l2.5,14l-3.5,0.6L55.1,30l-3.6-0.1l-0.8,2.8L47.3,31.7z M54.5,26.5l-0.7-4
				l-1.2,3.9L54.5,26.5z"/>
		</g>
		<g>
			
				<linearGradient id="SVGID_00000158712620437210901770000017406153576572593837_" gradientUnits="userSpaceOnUse" x1="10.1822" y1="2.5494" x2="10.4162" y2="20.3866" gradientTransform="matrix(0.9999 -1.311839e-02 -1.311839e-02 -0.9999 -0.3625 36.6053)">
				<stop  offset="0" style="stop-color:#2EAAFA"/>
				<stop  offset="1" style="stop-color:#1F2F98"/>
			</linearGradient>
			<path style="fill:url(#SVGID_00000158712620437210901770000017406153576572593837_);" d="M7.7,33.9c-0.1,0-0.1,0-0.3-0.1
				c-0.1-0.1-0.1-0.1-0.1-0.3L4.8,18.1c0-0.1,0-0.3,0.1-0.3c0.1-0.1,0.1-0.1,0.3-0.1l4.2-0.7c1.4-0.3,2.8-0.4,4.2-0.7c0,0,0,0,0.1,0
				c0.3,0,0.4,0.1,0.4,0.4l0.7,4c0,0.1,0,0.3-0.1,0.3c-0.1-0.1-0.3,0-0.3,0l-4.2,0.7l0.3,1.5l2.6-0.4c0,0,0,0,0.1,0
				c0.3,0,0.4,0.1,0.4,0.4l0.6,4c0,0.1,0,0.3-0.1,0.3c-0.1,0.1-0.1,0.1-0.3,0.1l-2.6,0.4l0.7,4.7c0,0.3-0.1,0.6-0.4,0.6L7.7,33.9
				L7.7,33.9z"/>
			
				<linearGradient id="SVGID_00000035520172844060438030000011767837781234644103_" gradientUnits="userSpaceOnUse" x1="10.2544" y1="2.7563" x2="10.4829" y2="20.1777" gradientTransform="matrix(0.9999 -1.311839e-02 -1.311839e-02 -0.9999 -0.3625 36.6053)">
				<stop  offset="0" style="stop-color:#2EAAFA"/>
				<stop  offset="1" style="stop-color:#1F2F98"/>
			</linearGradient>
			<path style="fill:url(#SVGID_00000035520172844060438030000011767837781234644103_);" d="M7.7,33.7H7.6l-0.1-0.1L5.1,17.9
				c0-0.1,0.1-0.3,0.3-0.3l4.2-0.7c1.4-0.3,2.8-0.4,4.2-0.7l0,0c0.1,0,0.3,0.1,0.3,0.1l0.7,4v0.1l-0.1,0.1l-4.3,0.7l0.3,1.9l2.9-0.4
				l0,0c0.1,0,0.3,0.1,0.3,0.3l0.6,4v0.1l-0.1,0.1l-2.9,0.4l0.8,4.9c0,0.1-0.1,0.3-0.3,0.3L7.7,33.7L7.7,33.7z"/>
			
				<linearGradient id="SVGID_00000154386610225593390330000016533324134266976180_" gradientUnits="userSpaceOnUse" x1="9.9772" y1="2.8053" x2="10.2046" y2="20.1362" gradientTransform="matrix(0.9999 -1.311839e-02 -1.311839e-02 -0.9999 -0.3625 36.6053)">
				<stop  offset="0" style="stop-color:#2EAAFA"/>
				<stop  offset="1" style="stop-color:#1F2F98"/>
			</linearGradient>
			<path style="fill:url(#SVGID_00000154386610225593390330000016533324134266976180_);" d="M7.7,33.6C7.6,33.6,7.6,33.6,7.7,33.6
				c-0.1,0-0.3,0-0.3-0.1L4.9,17.9c0-0.1,0-0.3,0.1-0.3l4.2-0.7c1.4-0.3,2.8-0.4,4.2-0.7l0,0c0.1,0,0.1,0.1,0.1,0.1l0.7,4v0.1
				l-0.1,0.1l-4.3,0.7l0.3,2.1l2.9-0.4l0,0c0.1,0,0.1,0.1,0.1,0.1l0.6,4v0.1l-0.1,0.1L11,27.9l0.8,4.9c0,0.1,0,0.3-0.1,0.3L7.7,33.6
				L7.7,33.6z"/>
			
				<linearGradient id="SVGID_00000039120723628956514440000016332521320455260582_" gradientUnits="userSpaceOnUse" x1="10.1188" y1="3.0012" x2="10.3406" y2="19.9162" gradientTransform="matrix(0.9999 -1.311839e-02 -1.311839e-02 -0.9999 -0.3625 36.6053)">
				<stop  offset="0" style="stop-color:#2EAAFA"/>
				<stop  offset="1" style="stop-color:#1F2F98"/>
			</linearGradient>
			<path style="fill:url(#SVGID_00000039120723628956514440000016332521320455260582_);" d="M14.2,20.6l-4.4,0.8l0.4,2.4l3.2-0.4
				l0.6,4l-3.2,0.4l0.8,5l-3.9,0.7L5.2,17.9c1.4-0.3,2.8-0.4,4.2-0.7s2.8-0.4,4.2-0.7L14.2,20.6z"/>
			
				<linearGradient id="SVGID_00000095309313035968027560000008591851228518074507_" gradientUnits="userSpaceOnUse" x1="21.1557" y1="2.5786" x2="21.3736" y2="19.19" gradientTransform="matrix(0.9999 -1.311839e-02 -1.311839e-02 -0.9999 -0.3625 36.6053)">
				<stop  offset="0" style="stop-color:#2EAAFA"/>
				<stop  offset="1" style="stop-color:#1F2F98"/>
			</linearGradient>
			<path style="fill:url(#SVGID_00000095309313035968027560000008591851228518074507_);" d="M18.5,33.7L18.5,33.7l-3.5-0.6
				c-0.1,0-0.3-0.1-0.3-0.1c-0.1-0.1-0.1-0.3-0.1-0.3l2.2-14.6c0-0.1,0.1-0.4,0.4-0.4l4.7-0.6l0,0c0.1,0,0.4,0.1,0.4,0.3L26.9,31
				c0,0.1,0,0.3,0,0.4s-0.1,0.1-0.3,0.3l-3.3,1.1h-0.1c-0.1,0-0.4-0.1-0.4-0.3l-0.6-1.8L19.2,31l-0.4,2.5
				C19,33.6,18.8,33.7,18.5,33.7z M20.1,26.2l0.7-0.1l-0.6-1.5L20.1,26.2z"/>
			
				<linearGradient id="SVGID_00000021807640599603012550000000062207823327725217_" gradientUnits="userSpaceOnUse" x1="21.3668" y1="2.7881" x2="21.5793" y2="18.9837" gradientTransform="matrix(0.9999 -1.311839e-02 -1.311839e-02 -0.9999 -0.3625 36.6053)">
				<stop  offset="0" style="stop-color:#2EAAFA"/>
				<stop  offset="1" style="stop-color:#1F2F98"/>
			</linearGradient>
			<path style="fill:url(#SVGID_00000021807640599603012550000000062207823327725217_);" d="M18.7,33.5L18.7,33.5l-3.5-0.6
				c0,0-0.1,0-0.1-0.1v-0.1l2.1-14.6c0-0.1,0.1-0.1,0.3-0.3l4.7-0.6l0,0c0.1,0,0.1,0,0.3,0.1l4.4,13.5V31l-0.1,0.1l-3.3,1.1
				c0,0,0,0-0.1,0c-0.1,0-0.1,0-0.3-0.1l-0.7-1.9l-2.9,0.6L19,33.3C19,33.5,18.8,33.5,18.7,33.5z M19.9,26.5l1.2-0.1l-0.8-2.5
				L19.9,26.5z"/>
			
				<linearGradient id="SVGID_00000050625111789541899390000014496475953073639843_" gradientUnits="userSpaceOnUse" x1="21.1591" y1="2.836" x2="21.3704" y2="18.9457" gradientTransform="matrix(0.9999 -1.311839e-02 -1.311839e-02 -0.9999 -0.3625 36.6053)">
				<stop  offset="0" style="stop-color:#2EAAFA"/>
				<stop  offset="1" style="stop-color:#1F2F98"/>
			</linearGradient>
			<path style="fill:url(#SVGID_00000050625111789541899390000014496475953073639843_);" d="M18.5,33.5L18.5,33.5l-3.5-0.6
				c0,0-0.1,0-0.1-0.1v-0.1l2.2-14.6c0-0.1,0.1-0.1,0.1-0.1l4.7-0.6l0,0c0.1,0,0.1,0,0.1,0.1L26.6,31v0.1c0,0,0,0.1-0.1,0.1
				l-3.3,1.1l0,0c-0.1,0-0.1,0-0.1-0.1l-0.7-1.9l-3.1,0.4l-0.4,2.6C18.8,33.5,18.7,33.5,18.5,33.5z M19.8,26.5l1.4-0.1l-1-2.8
				L19.8,26.5z"/>
			
				<linearGradient id="SVGID_00000018945148359317614830000008630301301292267436_" gradientUnits="userSpaceOnUse" x1="21.3007" y1="3.0422" x2="21.5066" y2="18.7352" gradientTransform="matrix(0.9999 -1.311839e-02 -1.311839e-02 -0.9999 -0.3625 36.6053)">
				<stop  offset="0" style="stop-color:#2EAAFA"/>
				<stop  offset="1" style="stop-color:#1F2F98"/>
			</linearGradient>
			<path style="fill:url(#SVGID_00000018945148359317614830000008630301301292267436_);" d="M15.2,32.8l2.2-14.6l4.7-0.6l4.4,13.5
				l-3.3,1.1L22.7,30l-3.6,0.4l-0.4,2.9L15.2,32.8z M21.6,26.7l-1.2-3.9l-0.6,4L21.6,26.7z"/>
			
				<linearGradient id="SVGID_00000133489612055267042760000003442573362687186877_" gradientUnits="userSpaceOnUse" x1="32.8318" y1="3.2198" x2="33.0279" y2="18.1682" gradientTransform="matrix(0.9999 -1.311839e-02 -1.311839e-02 -0.9999 -0.3625 36.6053)">
				<stop  offset="0" style="stop-color:#2EAAFA"/>
				<stop  offset="1" style="stop-color:#1F2F98"/>
			</linearGradient>
			<path style="fill:url(#SVGID_00000133489612055267042760000003442573362687186877_);" d="M27.4,32.9c-0.1,0-0.3,0-0.3-0.1
				C27,32.6,27,32.6,27,32.5l-1.2-12.6c0-0.3,0.1-0.4,0.4-0.6l3.5-0.4l0,0c0.1,0,0.3,0,0.4,0.1l3.9,5.1l-0.6-5.6
				c0-0.3,0.1-0.4,0.4-0.6l3.5-0.4l0,0c0.1,0,0.3,0,0.3,0.1c0.1,0.1,0.1,0.1,0.1,0.3l1.4,13.3c0,0.1,0,0.3-0.1,0.3
				c-0.1,0.1-0.1,0.1-0.3,0.1l-3.5,0.4l0,0c-0.1,0-0.3,0-0.4-0.1l-3.7-4l0.4,4.2c0,0.1,0,0.3-0.1,0.3c-0.1,0.1-0.1,0.1-0.3,0.1
				L27.4,32.9L27.4,32.9z"/>
			
				<linearGradient id="SVGID_00000106852613215072532230000015156152476860358565_" gradientUnits="userSpaceOnUse" x1="32.9734" y1="3.4259" x2="33.164" y2="17.9585" gradientTransform="matrix(0.9999 -1.311839e-02 -1.311839e-02 -0.9999 -0.3625 36.6053)">
				<stop  offset="0" style="stop-color:#2EAAFA"/>
				<stop  offset="1" style="stop-color:#1F2F98"/>
			</linearGradient>
			<path style="fill:url(#SVGID_00000106852613215072532230000015156152476860358565_);" d="M27.6,32.8h-0.1l-0.1-0.1L26,20
				c0-0.1,0.1-0.3,0.3-0.3l3.5-0.4l0,0c0.1,0,0.1,0,0.1,0.1l4.4,5.7l-0.7-6.2c0-0.1,0.1-0.3,0.3-0.3l3.5-0.4l0,0h0.1l0.1,0.1
				l1.4,13.3c0,0.1-0.1,0.3-0.3,0.3l-3.5,0.4l0,0c-0.1,0-0.1,0-0.1-0.1l-4.3-5l0.4,4.7c0,0.1-0.1,0.3-0.3,0.3L27.6,32.8L27.6,32.8z"
				/>
			
				<linearGradient id="SVGID_00000037693471414300146000000013258011494775180699_" gradientUnits="userSpaceOnUse" x1="32.835" y1="3.4731" x2="33.0246" y2="17.9151" gradientTransform="matrix(0.9999 -1.311839e-02 -1.311839e-02 -0.9999 -0.3625 36.6053)">
				<stop  offset="0" style="stop-color:#2EAAFA"/>
				<stop  offset="1" style="stop-color:#1F2F98"/>
			</linearGradient>
			<path style="fill:url(#SVGID_00000037693471414300146000000013258011494775180699_);" d="M27.4,32.6
				C27.4,32.6,27.3,32.6,27.4,32.6c-0.1-0.1-0.1-0.1-0.1-0.1L26,19.9c0-0.1,0.1-0.3,0.1-0.3l3.5-0.4l0,0c0,0,0.1,0,0.1,0.1l4.4,5.8
				l-0.7-6.4c0-0.1,0.1-0.3,0.1-0.3l3.5-0.4l0,0h0.1l0.1,0.1l1.4,13.3c0,0.1-0.1,0.3-0.1,0.3l-3.5,0.6l0,0c0,0-0.1,0-0.1-0.1
				l-4.4-5.1l0.6,4.9c0,0.1-0.1,0.3-0.1,0.3L27.4,32.6L27.4,32.6z"/>
			
				<linearGradient id="SVGID_00000066502330932001873240000007957357264160825234_" gradientUnits="userSpaceOnUse" x1="33.0461" y1="3.6727" x2="33.2301" y2="17.6989" gradientTransform="matrix(0.9999 -1.311839e-02 -1.311839e-02 -0.9999 -0.3625 36.6053)">
				<stop  offset="0" style="stop-color:#2EAAFA"/>
				<stop  offset="1" style="stop-color:#1F2F98"/>
			</linearGradient>
			<path style="fill:url(#SVGID_00000066502330932001873240000007957357264160825234_);" d="M27.6,32.5l-1.2-12.6l3.5-0.4l5,6.4
				l-0.7-7.2l3.5-0.4L39,31.5l-3.5,0.4l-4.9-5.6l0.6,5.6L27.6,32.5z"/>
			
				<linearGradient id="SVGID_00000031909841129981813070000003951925467147063947_" gradientUnits="userSpaceOnUse" x1="44.43" y1="3.2257" x2="44.6388" y2="19.1366" gradientTransform="matrix(0.9999 -1.311839e-02 -1.311839e-02 -0.9999 -0.3625 36.6053)">
				<stop  offset="0" style="stop-color:#2EAAFA"/>
				<stop  offset="1" style="stop-color:#1F2F98"/>
			</linearGradient>
			<path style="fill:url(#SVGID_00000031909841129981813070000003951925467147063947_);" d="M45.1,32.8L45.1,32.8l-3.6-0.3
				c-0.1,0-0.3,0-0.3-0.1C41,32.2,41,32.1,41,32.1l0.8-10.6l-2.5-0.3c-0.3,0-0.4-0.3-0.4-0.6l0.3-3.5c0-0.3,0.3-0.4,0.4-0.4l0,0
				l9,0.7c0.1,0,0.3,0,0.3,0.1c0.1,0.1,0.1,0.3,0.1,0.3l-0.3,3.5c0,0.1,0,0.3-0.1,0.3c-0.1,0.1-0.1,0.1-0.3,0.1l0,0l-2.1-0.1
				l-0.8,10.4c0,0.1,0,0.3-0.1,0.3C45.3,32.8,45.2,32.8,45.1,32.8z"/>
			
				<linearGradient id="SVGID_00000080182759257054413350000001457116442796957094_" gradientUnits="userSpaceOnUse" x1="44.5022" y1="3.4328" x2="44.7055" y2="18.9279" gradientTransform="matrix(0.9999 -1.311839e-02 -1.311839e-02 -0.9999 -0.3625 36.6053)">
				<stop  offset="0" style="stop-color:#2EAAFA"/>
				<stop  offset="1" style="stop-color:#1F2F98"/>
			</linearGradient>
			<path style="fill:url(#SVGID_00000080182759257054413350000001457116442796957094_);" d="M45.2,32.6L45.2,32.6l-3.5-0.3
				c-0.1,0-0.3-0.1-0.3-0.3l0.8-10.7l-2.8-0.3c-0.1,0-0.3-0.1-0.3-0.3l0.3-3.5c0-0.1,0.1-0.3,0.3-0.3l0,0l9,0.7c0,0,0.1,0,0.1,0.1
				v0.1l-0.3,3.5c0,0,0,0.1-0.1,0.1h-0.1l0,0h-2.1l-0.8,10.7c0,0,0,0.1-0.1,0.1C45.3,32.5,45.2,32.6,45.2,32.6z"/>
			
				<linearGradient id="SVGID_00000088118218007595039950000011472268616693173140_" gradientUnits="userSpaceOnUse" x1="44.5722" y1="3.477" x2="44.7744" y2="18.8923" gradientTransform="matrix(0.9999 -1.311839e-02 -1.311839e-02 -0.9999 -0.3625 36.6053)">
				<stop  offset="0" style="stop-color:#2EAAFA"/>
				<stop  offset="1" style="stop-color:#1F2F98"/>
			</linearGradient>
			<path style="fill:url(#SVGID_00000088118218007595039950000011472268616693173140_);" d="M45.1,32.5L45.1,32.5l-3.5-0.3
				c-0.1,0-0.1-0.1-0.1-0.3l0.8-10.7L39.5,21c-0.1,0-0.1-0.1-0.1-0.3l0.3-3.5c0-0.1,0.1-0.1,0.1-0.1l0,0l9,0.7c0,0,0.1,0,0.1,0.1
				v0.1l-0.3,3.5c0,0,0,0.1-0.1,0.1h-0.1l0,0l-2.2-0.1l-0.8,10.7C45.3,32.4,45.3,32.5,45.1,32.5C45.2,32.5,45.2,32.5,45.1,32.5z"/>
			
				<linearGradient id="SVGID_00000040573554659357048350000013673049984734980240_" gradientUnits="userSpaceOnUse" x1="44.7138" y1="3.6831" x2="44.9106" y2="18.6817" gradientTransform="matrix(0.9999 -1.311839e-02 -1.311839e-02 -0.9999 -0.3625 36.6053)">
				<stop  offset="0" style="stop-color:#2EAAFA"/>
				<stop  offset="1" style="stop-color:#1F2F98"/>
			</linearGradient>
			<path style="fill:url(#SVGID_00000040573554659357048350000013673049984734980240_);" d="M46,21.4l-0.8,11l-3.5-0.3l0.8-11
				l-2.9-0.3l0.3-3.5l9,0.7l-0.3,3.5L46,21.4z"/>
			
				<linearGradient id="SVGID_00000137093267071217162470000005743332657199586725_" gradientUnits="userSpaceOnUse" x1="53.7705" y1="2.8877" x2="53.9816" y2="18.9779" gradientTransform="matrix(0.9999 -1.311839e-02 -1.311839e-02 -0.9999 -0.3625 36.6053)">
				<stop  offset="0" style="stop-color:#2EAAFA"/>
				<stop  offset="1" style="stop-color:#1F2F98"/>
			</linearGradient>
			<path style="fill:url(#SVGID_00000137093267071217162470000005743332657199586725_);" d="M50.9,33.1L50.9,33.1l-3.5-1
				c-0.1,0-0.3-0.1-0.3-0.3c0-0.1-0.1-0.3,0-0.4l4.3-14.2c0-0.1,0.3-0.3,0.4-0.3c0,0,0,0,4.9,0.1c0.3,0,0.4,0.1,0.4,0.4l2.5,14
				c0,0.1,0,0.3-0.1,0.3c0,0.1-0.1,0.1-0.3,0.1l-3.5,0.6c0,0,0,0-0.1,0c-0.3,0-0.4-0.1-0.4-0.4l-0.4-1.8l-2.9-0.1l-0.7,2.4
				C51.3,32.9,51.2,33.1,50.9,33.1z M54.1,25.8l-0.3-1.5l-0.4,1.5H54.1z"/>
			
				<linearGradient id="SVGID_00000170244604785715965810000001727125423393925283_" gradientUnits="userSpaceOnUse" x1="53.943" y1="3.0935" x2="54.1485" y2="18.7678" gradientTransform="matrix(0.9999 -1.311839e-02 -1.311839e-02 -0.9999 -0.3625 36.6053)">
				<stop  offset="0" style="stop-color:#2EAAFA"/>
				<stop  offset="1" style="stop-color:#1F2F98"/>
			</linearGradient>
			<path style="fill:url(#SVGID_00000170244604785715965810000001727125423393925283_);" d="M51,32.8C50.9,32.8,50.9,32.8,51,32.8
				l-3.5-1c0,0-0.1,0-0.1-0.1v-0.1l4.3-14.2c0-0.1,0.1-0.1,0.3-0.1l4.9,0.1c0.1,0,0.3,0.1,0.3,0.1l2.5,14v0.1l-0.1,0.1L56,32.4l0,0
				c-0.1,0-0.3-0.1-0.3-0.1l-0.4-1.9l-3.2-0.1l-0.8,2.6C51.2,32.8,51,32.8,51,32.8z M54.5,26.1L54,23.5l-0.7,2.6H54.5z"/>
			
				<linearGradient id="SVGID_00000138562007403246211810000002345459441051764869_" gradientUnits="userSpaceOnUse" x1="53.6658" y1="3.1425" x2="53.8702" y2="18.7261" gradientTransform="matrix(0.9999 -1.311839e-02 -1.311839e-02 -0.9999 -0.3625 36.6053)">
				<stop  offset="0" style="stop-color:#2EAAFA"/>
				<stop  offset="1" style="stop-color:#1F2F98"/>
			</linearGradient>
			<path style="fill:url(#SVGID_00000138562007403246211810000002345459441051764869_);" d="M50.9,32.8L50.9,32.8l-3.5-1
				c0,0-0.1,0-0.1-0.1v-0.1l4.3-14.2c0-0.1,0.1-0.1,0.1-0.1l4.9,0.1c0.1,0,0.1,0.1,0.1,0.1l2.5,14v0.1l-0.1,0.1l-3.5,0.6l0,0
				c-0.1,0-0.1,0-0.1-0.1l-0.4-2.1L51.9,30L51,32.6C51,32.6,51,32.8,50.9,32.8z M54.5,26.1L54,23.2l-0.8,2.9H54.5z"/>
			
				<linearGradient id="SVGID_00000120528429036473026490000009409849439359542682_" gradientUnits="userSpaceOnUse" x1="53.8074" y1="3.3487" x2="54.0064" y2="18.5164" gradientTransform="matrix(0.9999 -1.311839e-02 -1.311839e-02 -0.9999 -0.3625 36.6053)">
				<stop  offset="0" style="stop-color:#2EAAFA"/>
				<stop  offset="1" style="stop-color:#1F2F98"/>
			</linearGradient>
			<path style="fill:url(#SVGID_00000120528429036473026490000009409849439359542682_);" d="M47.6,31.5l4.3-14.2l4.9,0.1l2.5,14
				l-3.3,0.6l-0.4-2.2h-3.6L51,32.6L47.6,31.5z M54.8,26.4l-0.7-4l-1.2,3.9L54.8,26.4z"/>
		</g>
	</g>
</g>
<g>
	<g>
		<path d="M102.3,14.2L74.8,2.5c-0.5-0.2-1-0.2-1.5,0l-9.8,3.9c-1,0.4-1.5,1.6-1.1,2.6l3.9,9.8c0.2,0.5,0.6,0.9,1.1,1.1l27.5,11.7
			c1,0.4,2.2,0,2.6-1l5.9-13.7C103.8,15.8,103.3,14.6,102.3,14.2z M66.9,11.2c-1.1-0.5-1.6-1.7-1.1-2.9c0.5-1.1,1.7-1.6,2.9-1.1
			c1.1,0.5,1.6,1.7,1.1,2.9C69.3,11.1,68,11.6,66.9,11.2z"/>
		<path class="st30" d="M102.3,13.2L74.8,1.5c-0.5-0.2-1-0.2-1.5,0l-9.8,3.9c-1,0.4-1.5,1.6-1.1,2.6l3.9,9.8
			c0.2,0.5,0.6,0.9,1.1,1.1l27.5,11.7c1,0.4,2.2,0,2.6-1l5.9-13.7C103.8,14.8,103.3,13.7,102.3,13.2z M66.8,10.7
			c-1.1-0.5-1.6-1.7-1.1-2.9c0.5-1.1,1.7-1.6,2.9-1.1c1.1,0.5,1.6,1.7,1.1,2.9C69.2,10.7,67.9,11.2,66.8,10.7z"/>
		<g>
			<path class="st31" d="M77.8,13.8l-2.9-1.2l-1.3,3l-1.5-0.6l3.1-7.2l4.7,2l-0.5,1.2l-3.2-1.4l-0.8,1.9l2.9,1.2L77.8,13.8z"/>
			<path class="st31" d="M81.5,15.7l-1.2-0.5l-1.1,2.7l-1.5-0.6l3.1-7.2l2.7,1.1c0.9,0.4,1.4,0.8,1.7,1.4c0.3,0.6,0.3,1.2,0,1.9
				c-0.2,0.5-0.5,0.9-0.8,1.1c-0.4,0.2-0.8,0.4-1.3,0.4l0.3,3.6l0,0.1L81.8,19L81.5,15.7z M80.9,14l1.2,0.5c0.4,0.2,0.7,0.2,1,0.1
				s0.5-0.3,0.6-0.7c0.1-0.3,0.2-0.7,0.1-0.9c-0.1-0.3-0.4-0.5-0.8-0.7l-1.2-0.5L80.9,14z"/>
			<path class="st31" d="M89.9,18.7l-2.9-1.2l-0.8,1.9l3.4,1.4l-0.5,1.2L84.2,20l3.1-7.2l4.8,2.1L91.6,16l-3.4-1.4l-0.7,1.7l2.9,1.2
				L89.9,18.7z"/>
			<path class="st31" d="M95.7,21.2L92.8,20L92,21.9l3.4,1.4l-0.5,1.2L90,22.5l3.1-7.2l4.8,2.1l-0.5,1.2L94,17.1l-0.7,1.7l2.9,1.2
				L95.7,21.2z"/>
		</g>
	</g>
	<path d="M62.4,8c0-0.1,0-0.1-0.1-0.2c-0.2-0.3-0.4-0.6-0.5-0.9C61.2,5.9,61,4.7,61,3.8c0-0.5,0.2-1.4,0.9-1.7
		c0.2-0.1,0.4-0.1,0.6-0.1c1.1,0,2.5,1.2,3.4,2.9c1,2.1,1,4.3-0.2,4.9c0,0,0,0,0,0c0.2,0.4,0.5,0.7,0.8,0.9c1.5-1,1.7-3.7,0.4-6.3v0
		c-1.4-2.7-3.8-4.2-5.6-3.3c-0.9,0.4-1.4,1.4-1.5,2.7c-0.1,1.2,0.2,2.5,0.8,3.8c0.7,1.4,1.7,2.4,2.7,3L62.4,8z"/>
</g>
</svg>
