<?xml version="1.0" encoding="utf-8"?>
<!-- Generator: Adobe Illustrator 25.0.1, SVG Export Plug-In . SVG Version: 6.00 Build 0)  -->
<svg version="1.1" id="圖層_1" xmlns="http://www.w3.org/2000/svg" xmlns:xlink="http://www.w3.org/1999/xlink" x="0px" y="0px"
	 viewBox="0 0 98 100.6" style="enable-background:new 0 0 98 100.6;" xml:space="preserve">
<style type="text/css">
	.st0{fill:#FFFFFF;}
	.st1{fill:#231815;}
	.st2{fill:#893B22;}
	.st3{fill:#642C17;}
	.st4{fill:#F9CCAD;}
	.st5{fill:#FFFFFF;stroke:#231815;stroke-width:3.7908;stroke-miterlimit:10;}
	.st6{fill:#E4B37F;}
	.st7{fill:#E27748;}
	.st8{fill:#F08B74;}
	.st9{fill:#B81C25;}
	.st10{fill:#F7F7F7;}
	.st11{fill:#040000;}
</style>
<path class="st0" d="M93.5,25.5L96,11.1l0.3-1.2c0.3-1.3-0.7-2.6-2-2.9l-1.2-0.3L55.2,0.3L53.9,0c-0.1,0-0.3,0-0.4,0
	c-1.2,0-2.2,0.9-2.5,2.1l-0.3,1.2l-0.3,1.8h-0.9l-1.3-0.3c-0.1,0-0.3,0-0.4,0c-1.2,0-2.2,0.9-2.5,2.1l-0.3,1.2l-1.4,8.4
	c-8,5.9-12.7,15.2-12.7,24.7c0,0.1,0,0.1,0,0.3c0,0,0,0,0,0.1c-0.5,1.2-0.9,2.5-1.2,4.1c-0.1,0.8-0.4,1.7-0.5,2.6
	c-1.4,0.4-2.8,0.8-4.2,1.4c-0.7-0.3-1.3-0.4-2-0.4c-0.1,0-0.1,0-0.3,0c-0.8,0-1.6,0.1-2.4,0.4l0,0c-0.1,0-0.3,0.1-0.4,0.3l0,0
	c-1.4-0.8-2.8-1.3-3.9-1.7c-0.8-0.3-1.6-0.4-2.4-0.5c0,0,0,0-0.1,0h-0.3c-0.3,0-0.5,0-0.8,0h-0.1h-0.1c-0.3,0-0.5,0-0.9,0
	c-0.3,0-0.5,0.1-0.8,0.1h-0.1h-0.1c-0.4,0.1-0.9,0.4-1.2,0.7c-0.3,0.3-0.4,0.5-0.5,0.8c0,0,0,0.1-0.1,0.1v0.1l-0.1,0.3l-0.1,0.4
	L8,51c-0.1,0.4-0.3,0.7-0.3,1v0.3l0,0c-0.1,0-0.4,0-0.5,0c0,0,0,0-0.1,0c-0.9,0-1.7,0.1-2.5,0.5c-0.9,0.4-1.8,1-2.5,1.8
	c0,0,0,0,0,0.1c-0.4,0.5-0.8,1.2-1.2,2.1c-0.1,0.3-0.1,0.4-0.3,0.7c0,0.1-0.1,0.3-0.1,0.5c0,0.1,0,0.3-0.1,0.4c0,0.1,0,0.1,0,0.3
	c-0.1,0.4-0.1,0.8-0.3,1.4c-0.1,1,0,2.5,0.1,3.4c0.1,0.5,0.3,0.9,0.4,1.4c0.1,0.3,0.3,0.5,0.3,0.8c0.1,0.3,0.4,0.9,0.8,1.6
	c0.5,0.9,1.4,1.8,2.2,2.6c0.5,0.4,0.9,0.7,1.3,0.9c0,0,0,0,0.1,0L5.5,71h0.1c0.1,0.1,0.4,0.1,0.5,0.3C6,72.1,6,72.7,5.9,73.4v0.1
	v0.1c-0.1,1.6-0.1,2.9-0.1,4.1c0,0.4,0,0.7,0,1v0.4v0.1v0.5c0,0.7,0.1,1.4,0.3,2.4v0.3c0.1,0,0.1,0.3,0.1,0.4v0.1l0,0l0.3,0.9
	c0.1,0.4,0.1,0.7,0.3,0.9V85v0.1c0.1,0.3,0.1,0.7,0.4,1l0.4,0.9c0,0,0,0.1,0.1,0.1l0.3,0.5l0.3,0.4c0.1,0.4,0.4,0.8,0.7,1l0,0.4
	c0.1,0.3,0.3,0.5,0.5,0.8c1.6,2.5,3.9,4.7,6.7,6.4c2.5,1.4,5.2,2.5,8.3,3.1c1.8,0.4,3.7,0.7,5.5,0.7c0,0,0,0,0.1,0s0.3,0,0.4,0h0.1
	c0.3,0,0.7,0,0.9,0c0.9,0,1.7,0,2.5-0.1c3-0.1,5.6-0.5,8.3-1c0.7-0.1,1.3-0.3,2-0.5c0.3,0,0.5-0.1,0.7-0.1l0.3-0.1l0.5-0.1l0.5-0.1
	c1.2-0.4,2.5-0.8,4.1-1.4l1.2-0.5l0,0c0.4-0.1,0.8-0.4,1.2-0.5c0,0,0.1,0,0.1-0.1c0,0,0.1,0,0.3-0.1H53l0.4-0.3l0.5-0.3
	c0,0,0,0,0.1,0c0,0,0.1-0.1,0.3-0.1c0.1,0,0.1-0.1,0.3-0.1c0,0,0,0,0.1,0l0.3-0.1c0.1-0.1,0.3-0.1,0.4-0.3c0.1-0.1,0.4-0.3,0.5-0.4
	l0,0c0.3-0.1,0.4-0.3,0.7-0.5l0,0c0.3-0.1,0.4-0.4,0.7-0.5c0.3-0.1,0.4-0.4,0.7-0.5l0.3-0.3c0.3-0.3,0.5-0.5,0.8-0.8
	c0.3-0.3,0.7-0.7,0.8-0.9l0,0c0.3-0.4,0.5-0.8,0.8-1c0.1-0.1,0.1-0.3,0.3-0.3l0.1-0.1c0,0,0-0.1,0.1-0.1v-0.1
	c0.1-0.1,0.1-0.1,0.3-0.3c0.7-0.7,1.4-1.3,2-2c0.7-0.7,1.3-1.4,1.8-2.2c0.5-0.7,0.9-1.3,1.2-1.8l0.4-0.7c0-0.1,0.1-0.1,0.1-0.3
	c0.1-0.3,0.3-0.5,0.4-0.9c0.1,0,0.3,0,0.5,0c0.1,0,0.4,0,0.5,0c7.9-1.6,13.4-9,16.1-13.7C92.9,60.7,98,51.3,98,41.3
	C98,35.7,96.4,30.4,93.5,25.5z"/>
<g>
	<g>
		<ellipse class="st1" cx="64.5" cy="41.3" rx="31" ry="29"/>
		<ellipse class="st0" cx="64.5" cy="41.3" rx="28.5" ry="26.7"/>
		<path class="st1" d="M83.4,63.2c0,0-6,12.8-15.7,14.8c0,0,3.4-8.4,2.4-9.8C70.2,68.2,82.5,66.1,83.4,63.2z"/>
		<path class="st0" d="M73.6,63.6c0,0-0.9,9.6-2.1,10.6c0,0,7.5-4.7,10.4-14L73.6,63.6z"/>
	</g>
	<g>
		<g>
			<path class="st1" d="M54.3,4.1l37.9,6.5l-7.6,44.2c-0.5,3.8-2.5,4.7-5,4.7c-0.1,0-0.3,0-0.4,0L41.3,53l7.6-44.2L50.5,9l0,0
				c1.3,0,2.4-0.5,3.1-1.2L54.3,4.1 M53.2,2.6l-0.1,1.2l-0.5,3.3c-0.7,0.4-1.3,0.7-2,0.7l-1.4-0.3L48,7.2l-0.3,1.2l-7.6,44.2
				l-0.3,1.2L41,54L79,60.6h0.1h0.1c0.1,0,0.3,0,0.4,0c3.5,0,5.6-2,6.3-5.8l7.6-44.2l0.3-1.2l-1.2-0.3L54.7,2.6L53.2,2.6L53.2,2.6z"
				/>
		</g>
		<g>
			
				<rect x="46.9" y="10.2" transform="matrix(0.1701 -0.9854 0.9854 0.1701 28.5699 92.8098)" class="st2" width="44.9" height="38.4"/>
			<path class="st1" d="M84.9,55.2h-0.3l-38.2-6.5v-0.3l7.7-44.6l38.4,6.5v0.3L84.9,55.2z M47.1,48l37.3,6.4l7.5-43.7L54.6,4.4
				L47.1,48z"/>
		</g>
		<g>
			<g>
				
					<rect x="42.2" y="15.5" transform="matrix(0.1701 -0.9854 0.9854 0.1701 19.5411 91.3866)" class="st2" width="43.7" height="37.3"/>
			</g>
			<g>
				<path class="st1" d="M50,10.2l35.4,6L78.2,58l-35.4-6L50,10.2 M48.9,8.8L41.3,53l37.9,6.5l7.6-44.2L48.9,8.8L48.9,8.8z"/>
			</g>
		</g>
		<g>
			<path class="st3" d="M92.2,10.6c0,0-1,4.8-5.4,4.7l-7.6,44.2c2.6,0.1,4.9-0.8,5.4-4.7L92.2,10.6z"/>
			<path class="st1" d="M79.6,59.9c-0.1,0-0.3,0-0.4,0h-0.4v-0.4L86.6,15h0.3c0,0,0,0,0.1,0c3.9,0,5-4.3,5-4.4l0.7,0.1l-7.7,44.1
				C84.2,59.3,81.7,59.9,79.6,59.9z M79.6,59.3L79.6,59.3c2.9,0,4.2-1.3,4.7-4.4l7.2-41.7c-0.8,1.3-2.2,2.5-4.3,2.6L79.6,59.3z"/>
		</g>
		<g>
			<path class="st4" d="M55.6,5.8c0,0-2,3.4-5.1,3.3l36.3,6.3c0,0,3.1,0.5,4.9-3.4L55.6,5.8z"/>
			<path class="st1" d="M87.2,15.7c-0.3,0-0.4,0-0.4,0L50.4,9.4V8.8c2.9,0,4.9-3.1,4.9-3.1l0.1-0.1h0.3l36.6,6.3l-0.1,0.4
				C90.6,15.3,88.1,15.7,87.2,15.7z M52.2,9l34.6,5.9c0.1,0,2.8,0.4,4.3-2.7l-35.4-6C55.3,6.7,54.2,8.4,52.2,9z"/>
		</g>
		<g>
			
				<rect x="72.7" y="-8.5" transform="matrix(0.1701 -0.9854 0.9854 0.1701 51.009 80.0647)" class="st1" width="0.7" height="36.6"/>
		</g>
		<g>
			<rect x="72" y="-7.8" transform="matrix(0.1701 -0.9854 0.9854 0.1701 49.5185 80.0927)" class="st1" width="0.7" height="37"/>
		</g>
		<g>
			<rect x="70.6" y="-7" transform="matrix(0.1701 -0.9854 0.9854 0.1701 47.4867 79.4729)" class="st1" width="0.7" height="37"/>
		</g>
		<g>
			<g>
				<g>
					<path class="st0" d="M57.8,34.8c-0.3-0.4-0.4-0.7-1.2-1.8c-0.9,0.3-1.7,0.4-2.8,0.3c-3.5-0.7-5.4-3.4-4.7-7.2
						c0.7-3.8,3.3-5.8,6.8-5.1c3.4,0.7,5.2,3.4,4.6,7.1c-0.3,1.7-0.9,2.7-2.1,3.9l0.4,0.5c0.3,0.4,0.5,0.7,0.8,0.9L57.8,34.8z
						 M56,28.4c0.3,0.3,0.1,0.4,0.9,1.3c0.4-0.5,0.7-1.2,0.8-2.1c0.4-2.4-0.4-3.9-2.2-4.2c-1.7-0.3-3,0.9-3.4,3.1
						c-0.3,1.3-0.1,2.5,0.5,3.3c0.4,0.5,0.9,0.9,1.7,1c0.3,0,0.5,0,0.8,0c-0.4-0.5-0.5-0.8-0.9-1.2L56,28.4z"/>
				</g>
			</g>
			<g>
				<g>
					<path class="st0" d="M74.8,44.1c0-0.7,0-1-0.1-1.6l-0.1-1.2l-3.9-0.7l-0.5,1c-0.3,0.5-0.4,0.9-0.7,1.4l-3.3-0.5
						c0.3-0.4,0.4-0.7,0.9-1.6l4.5-7.7c0.4-0.7,0.5-1,0.7-1.4l3.5,0.7c0,0.4,0,0.8,0.3,1.6l1.6,8.8c0.1,0.8,0.3,1.3,0.4,1.8
						L74.8,44.1z M73.7,34.5l-2,3.9l2.6,0.4L73.7,34.5z"/>
				</g>
			</g>
			<g>
				<g>
					<path class="st0" d="M66,37.2c-0.1-0.3-0.3-0.4-0.3-0.7c-0.4,0.1-0.7,0.3-0.9,0.3c-0.5,0.1-1.2,0.1-1.7,0c-0.9-0.1-1.7-0.5-2-1
						c-0.3-0.4-0.4-1-0.4-1.7c0.1-0.7,0.4-1.2,0.9-1.4c0.4-0.3,0.7-0.4,1.3-0.7l-0.4-0.1c-0.4-0.7-0.5-1-0.4-1.6
						c0.3-1.2,1.3-1.8,3-1.6c1.6,0.3,2.5,1.2,2.2,2.4c-0.1,0.9-0.8,1.4-2.1,1.8l0.9,1.4c0.7-0.5,0.9-0.9,1.3-1.6l1.3,1.2
						c-0.7,0.9-1,1.3-1.7,1.8l0.7,0.8c0.1,0.3,0.5,0.8,0.9,1.2L66,37.2z M63.6,33.4c-0.4,0.1-0.5,0.3-0.7,0.3
						c-0.3,0.3-0.4,0.4-0.4,0.7c-0.1,0.5,0.3,0.9,0.9,1c0.4,0.1,0.8,0,1.3-0.3L63.6,33.4z M64.7,31.5c0.7-0.1,0.9-0.4,0.9-0.7
						c0-0.4-0.3-0.7-0.7-0.8c-0.5-0.1-0.8,0.1-0.9,0.5c0,0.3,0,0.5,0.3,0.8l0.1,0.3L64.7,31.5z"/>
				</g>
			</g>
		</g>
	</g>
	<g>
		<g>
			<path class="st0" d="M63.7,73.5C63.7,85.7,51,95,36.3,96.4C18,98.1,9.7,86.5,9.7,74.4s11.9-22,26.6-22S63.7,61.4,63.7,73.5z"/>
			<path class="st5" d="M64,80.5"/>
			<path class="st6" d="M26.3,96.3c0,0-12.1-3.3-8.1-14.5c0,0,1.4-2.9,5.6-3.5s6.2-5.4,6.2-5.4s0.8-3.3,3.8-3s2.9-1.4,2.9-1.4
				s0.7-2.1,3.1-1.3c2.5,0.8,7.5,1.2,10.8-1.6c3.3-2.6,7.9-0.4,7.9-0.4s9.8,7.6,0.9,20.3c0,0,5.8-5.2,6-12
				c0.1-6.8-2.1-14.7-15.3-23.7l-3.9-2L40,41.2l-4.5-0.7l-1.8,6.3L32,51.9c0,0-3.8-0.8-6.7,2.1c-2.9,2.9-3.3,1.8-3.3,1.8
				s-5.4-3.5-6.8-3.7c-1.4-0.1-4.1-0.4-4.1-0.4l-0.4,13.9c0,0-2.2,13.7,0,19C13,89.9,17,95.9,26.3,96.3z"/>
			<g>
				<path class="st1" d="M29.9,95.2c0,0,0.1,0,0.1,0.1c0.3,0.3,0.7,0.5,0.8,1c0.1,0.4,0,1-0.8,1.7c0,0-0.1,0.1-0.3,0.1
					c-1.7,0-3.4-0.3-5-0.7c-2.6-0.5-5.1-1.4-7.5-2.9s-4.5-3.3-5.9-5.6c-0.3-0.3-0.4-0.5-0.5-0.9c-0.1-0.4-0.4-0.7-0.5-0.9
					c-0.1-0.3-0.3-0.7-0.4-0.9l-0.4-0.9c-0.1-0.3-0.3-0.7-0.3-0.9C9.2,84.3,9,83.9,9,83.6l-0.3-1v-0.3l0,0l0,0l0,0l0,0l0,0l0,0v-0.1
					c0-0.1-0.1-0.3-0.1-0.4v-0.3c-0.1-0.8-0.1-1.4-0.3-2.1v-0.5v-0.5c0-0.4,0-0.7,0-0.9c0-1.3,0.1-2.6,0.1-3.9v-0.1v-0.1
					c0.3-2.4,0.5-4.8,0.8-7.2v-0.4l0,0l0,0l0,0l0,0v-0.1l-0.1-0.9c0-0.7,0-1.2,0-1.8c0-1.2,0-2.5,0-3.7c0-1.2,0.1-2.5,0.3-3.7
					c0-0.3,0.1-0.7,0.1-0.9l0.1-0.9c0-0.3,0.1-0.7,0.3-0.9c0.1-0.1,0.1-0.5,0.3-0.8l0.3-0.8l0.1-0.4l0.1-0.3v-0.1l0,0l0,0
					c0.3,0,0.5-0.1,0.8-0.1c0.3,0,0.5,0,0.9,0c0.1,0,0.3,0,0.4,0h0.4c0.7,0.1,1.3,0.3,2,0.4c1.3,0.4,2.5,0.9,3.5,1.4l0.4,0.3
					l0.4,0.3c0.3,0.1,0.5,0.3,0.8,0.5l0.8,0.5l0.4,0.3l0.4,0.3l0,0l0,0l0.7-0.4c0.3-0.1,0.5-0.4,0.8-0.5c2.2-1.2,4.5-2.2,7.1-2.7
					l0.9-0.1l0,0l0,0l0.1-0.5c0.1-1.2,0.4-2.5,0.7-3.7c0.3-1.2,0.7-2.5,1-3.7c0.3-0.7,0.5-1.2,0.9-1.8c0.1-0.1,0.1-0.3,0.3-0.4
					l0.1-0.1l0.1-0.1c0.1-0.1,0.3-0.3,0.3-0.3c0.1-0.1,0.3-0.3,0.3-0.3l0.4-0.3c0.3-0.1,0.4-0.4,0.7-0.5l0,0l0,0h0.1l0.3,0.1L37,39
					c0.3,0.1,0.7,0.3,0.9,0.4c0.3,0.1,0.7,0.3,0.9,0.5c0.7,0.3,1.2,0.7,1.8,1c1.2,0.7,2.4,1.6,3.4,2.5c1,0.9,2.1,1.8,3,2.9l0.7,0.8
					l0,0l0.4,0.3c0.7,0.4,1.2,0.7,1.8,1c2.5,1.6,4.9,3.3,7.1,5.2c2.2,2,4.2,4.2,5.9,6.7c0.9,1.3,1.6,2.7,2.2,4.2
					c0.3,0.8,0.5,1.6,0.8,2.2c0.1,0.4,0.3,0.8,0.3,1.2l0.1,0.7c0,0.3,0.1,0.4,0.1,0.7c0.3,1.6,0.3,3.3,0,4.8
					c-0.1,0.8-0.3,1.6-0.5,2.4c-0.1,0.4-0.3,0.8-0.4,1.2l-0.1,0.3c-0.3,0.9-0.7,1.7-1,2.5c0,0-0.1,0.3-0.4,0.7c-0.3,0.4-0.7,1-1,1.6
					c-0.5,0.7-1,1.3-1.6,2c-0.7,0.7-1.3,1.3-1.8,1.8c-1,0.9-1.7,1.4-2.2,1.6c-0.5,0.3-0.7,0.1-0.7,0c0-0.4,0.8-1.4,1.7-2.7
					c-0.1,0.1,1-1.4,2-3c0.5-0.8,0.9-1.7,1.2-2.4c0.1-0.4,0.3-0.7,0.4-0.8c0.1-0.3,0.1-0.3,0.1-0.3l0.3-0.4l0.1-0.5
					c0.1-0.3,0.3-0.7,0.4-0.9l0.1-0.1c0.1-0.4,0.3-0.7,0.3-1c0.1-0.7,0.4-1.3,0.4-2.1c0.3-1.3,0.3-2.7,0-4.1c0-0.1,0-0.4-0.1-0.5
					l-0.1-0.5c0-0.4-0.1-0.7-0.3-1c-0.1-0.7-0.4-1.3-0.7-2c-0.5-1.3-1.2-2.5-2-3.8c-1.4-2.2-3.3-4.3-5.4-6.1c-2.1-1.8-4.3-3.5-6.7-5
					c-0.5-0.4-1-0.7-1.7-0.9l-0.4-0.3l-0.4-0.3c0,0,0,0-0.1-0.1l-0.1-0.1l-0.1-0.3l-0.7-0.8c-0.8-0.9-1.7-1.8-2.8-2.6
					c-0.9-0.8-2-1.6-3-2.2c-0.5-0.3-1-0.7-1.7-0.9c-0.3-0.1-0.5-0.3-0.8-0.4l0,0l0,0l0,0c0,0.1-0.1,0.1-0.1,0.3
					c-0.3,0.4-0.5,0.9-0.7,1.3c-0.4,1-0.7,2.1-0.9,3.1c-0.3,1.2-0.4,2.2-0.7,3.4v0.4v0.4V51c0,0.3,0,0.7-0.1,0.9v0.4v0.1l0,0l0,0
					l0,0h-0.3L32,52.6l0,0l0,0c0,0,0,0-0.1,0l0,0h-0.1h-0.3l-0.4,0.1c-2.1,0.4-4.2,1.3-6.2,2.5c-0.3,0.1-0.5,0.3-0.8,0.4l-0.4,0.3
					L23.6,56l-0.4,0.3c-0.3,0.1-0.5,0.4-0.8,0.5L22,57c0,0,0,0-0.1,0h-0.1l0.1,0.5l-1.4-0.9l-0.4-0.3l-0.3-0.3l-0.7-0.4
					c-0.3-0.1-0.5-0.3-0.8-0.4L18,55.1l-0.4-0.3c-1-0.5-2-0.9-3-1.3c-0.5-0.1-1-0.3-1.6-0.4h-0.1v0.1c0,0.3-0.1,0.5-0.1,0.8
					l-0.1,0.8c0,0.3-0.1,0.5-0.1,0.8c-0.1,1.2-0.3,2.2-0.3,3.4c0,1.2,0,2.4,0,3.5c0,0.5,0,1.2,0,1.7V65c0,0,0,0.3,0,0.4v0.4v0.4
					c-0.4,2.4-0.7,4.7-0.8,7.1v0.1v0.1c-0.1,1.2-0.1,2.5-0.1,3.7c0,0.3,0,0.7,0,0.9v0.4v0.4c0,0.7,0.1,1.2,0.1,1.7v0.1v0.1
					c0,0,0-0.1,0,0l0,0l0,0c0,0,0,0,0,0.1v0.1l0,0l0,0l0,0v0.3l0.3,0.9c0,0.3,0.1,0.5,0.3,0.8c0.1,0.3,0.1,0.5,0.3,0.8l0.3,0.8
					l0.4,0.8c0.1,0.3,0.3,0.5,0.4,0.8c0.1,0.3,0.3,0.5,0.4,0.8c1.3,2,3,3.5,5,4.7s4.3,2,6.6,2.5C26.9,95,28.4,95.1,29.9,95.2z"/>
			</g>
			<path class="st7" d="M13.4,56.6c0,0-0.3,5,0.4,6.8c0,0,0.9-2,3.3-2.7L13.4,56.6z"/>
			<path class="st7" d="M39.9,50.8c0,0,3-1.2,4.3-1.2c0,0-3.7-4.1-5-4.1L39.9,50.8z"/>
			<ellipse class="st0" cx="24.8" cy="67.4" rx="1.6" ry="1.6"/>
			<ellipse class="st0" cx="39.6" cy="60.4" rx="1.6" ry="1.6"/>
			<ellipse transform="matrix(0.9329 -0.36 0.36 0.9329 -23.0952 17.5828)" class="st1" cx="35.7" cy="70.8" rx="3.5" ry="2.6"/>
			<g>
				<path class="st1" d="M35.3,72.9L35.3,72.9c0.1-0.4,0.8-1,1.8-1h0.1c0,0,0.3,0.7,0.8,1.4c0.1,0.3,0.3,0.4,0.4,0.7
					c0,0.1,0.1,0.3,0.3,0.4c0,0.1,0.1,0.3,0.3,0.4c0,0.1,0.1,0.3,0.1,0.4v0.1c0,0,0,0,0,0.1l-0.1,0.3c0,0.1-0.1,0.3-0.1,0.4
					l-0.1,0.3l-0.1,0.1l-0.1,0.3c-0.1,0.3-0.3,0.7-0.5,0.9c-0.4,0.7-0.8,1.2-1.3,1.6c-0.5,0.5-1.2,0.8-1.8,0.9c-0.1,0-0.3,0-0.5,0.1
					c-0.1,0-0.1,0-0.3,0c0,0,0,0-0.1,0h-0.1c-0.3,0-0.4,0-0.7,0c-0.4,0-0.5-0.1-0.5-0.1s-0.1,0-0.3-0.1c-0.3-0.1-0.5-0.3-0.8-0.5
					s-0.7-0.7-0.7-1.2c-0.1-0.4-0.1-0.9,0-1.2s0.1-0.5,0.3-0.7c0.1-0.1,0.1-0.3,0.3-0.4s0.3-0.1,0.4,0c0.1,0.1,0.1,0.7,0.3,1.2
					c0,0,0,0.1,0.1,0.3c0,0.1,0.1,0.3,0.3,0.4s0.4,0.1,0.5,0.1s0.3,0,0.3,0s0.1,0,0.3,0c0.3,0,0.4,0,0.7,0s0.5-0.3,0.9-0.5
					c0.3-0.3,0.7-0.7,0.9-1.2c0.1-0.3,0.3-0.5,0.4-0.7c0,0,0-0.1,0.1-0.1c-0.3-0.4-0.4-0.8-0.5-1C35.5,73.5,35.3,72.9,35.3,72.9z"/>
			</g>
			<g>
				<path class="st1" d="M37.8,76.4L37.8,76.4c-0.1-0.3-0.1-0.5-0.1-0.9c0.1-0.4,0.3-0.8,0.5-1.2c0,0,0,0,0.1-0.1c0,0,0.1,0,0.4,0.1
					c0.3,0,0.5,0.1,0.8,0.1c0.7,0.1,1.6,0.1,2.4,0c0.4-0.1,0.8-0.3,0.9-0.4c0.1-0.1,0.4-0.3,0.5-0.5c0.1-0.3,0.1-0.4,0.1-0.4
					c0-0.1,0-0.1,0-0.1s0,0,0-0.1c0,0,0-0.1,0-0.3c0-0.3-0.3-0.7-0.5-1c-0.4-0.5-0.7-0.9-0.4-1c0.1-0.1,0.7-0.1,1.2,0
					c0,0,0.5,0.3,1.2,0.8c0.3,0.3,0.5,0.7,0.7,0.9c0,0.1,0.1,0.3,0.1,0.4s0,0.1,0,0.1s0,0,0,0.1c0,0.1,0,0.3,0,0.4
					c0,0.4-0.1,0.8-0.4,1.2c-0.3,0.5-0.7,0.9-1.3,1.3c-0.5,0.4-1.2,0.5-1.7,0.7c-1.2,0.3-2.2,0.1-3,0C38.4,76.5,37.8,76.4,37.8,76.4
					z"/>
			</g>
			
				<ellipse transform="matrix(0.9107 -0.4131 0.4131 0.9107 -31.2656 15.7575)" class="st8" cx="20.8" cy="80.2" rx="4.1" ry="2.5"/>
			
				<ellipse transform="matrix(0.9107 -0.4131 0.4131 0.9107 -22.4972 27.5355)" class="st8" cx="52.4" cy="65.8" rx="4.1" ry="2.5"/>
			<g>
				<path class="st9" d="M28.6,98c-0.1,0-0.1,0-0.3-0.1c-0.3-0.3-0.7-0.7-0.8-1.2c0-0.5,0.1-1,0.9-1.6c0,0,0.1-0.1,0.3-0.1
					c1.6,0.1,3.1,0.1,4.7,0c5-0.3,10-1.2,14.6-3.1l1.2-0.5l1.2-0.5c0,0,0,0,0.1-0.1s0.3-0.1,0.5-0.3c0.3-0.1,0.4-0.3,0.7-0.4
					c0.3-0.1,0.5-0.3,0.9-0.4c0.3-0.1,0.7-0.4,1-0.5c0.1-0.1,0.4-0.3,0.5-0.3c0.1-0.1,0.4-0.3,0.5-0.3l0.5-0.4l0.3-0.1
					c0.1,0,0.1-0.1,0.3-0.1c0.4-0.3,0.7-0.4,1-0.7c0.5-0.4,0.9-0.7,1.3-0.9c0.4-0.3,0.7-0.5,0.8-0.7c0.4-0.3,0.7-0.3,0.7-0.1
					s-0.1,0.5-0.4,1.2C59,86.9,59,87,58.9,87.1s-0.3,0.3-0.3,0.4c-0.3,0.3-0.5,0.7-0.8,0.9c0.1,0-0.3,0.3-0.8,0.8
					c-0.3,0.3-0.7,0.5-0.9,0.9c-0.1,0.1-0.4,0.4-0.5,0.5c-0.3,0.1-0.4,0.3-0.7,0.5c-0.3,0.1-0.4,0.4-0.7,0.5
					c-0.3,0.1-0.4,0.3-0.7,0.4s-0.4,0.3-0.5,0.4c-0.1,0.1-0.4,0.3-0.5,0.4c-0.4,0.3-0.7,0.4-0.8,0.5c-0.3,0.1-0.3,0.1-0.3,0.1
					c-0.4,0.1-0.7,0.4-1,0.5l-1,0.5c-1.2,0.5-2.5,1-3.8,1.4l-0.5,0.1l-0.5,0.1c-0.3,0.1-0.7,0.1-0.9,0.3c-0.7,0.1-1.3,0.3-2,0.4
					c-2.6,0.5-5.2,0.9-7.9,1C32,98.1,30.3,98.1,28.6,98z"/>
			</g>
			<g>
				<path class="st1" d="M27,72.1c1,1.6-0.1,2.6-1.7,3.7c-1.6,1-3,1.7-4.1,0.1c-1-1.6-0.5-3.7,1-4.7C23.9,70,26.1,70.4,27,72.1z"/>
				<path class="st10" d="M26.6,71.2c0.3,0.1,0.1,0.5,0,0.8c-0.3,0.4-0.8,0.4-0.8,0.4s-0.1-0.5,0-0.8C26.1,71.2,26.5,71,26.6,71.2z"
					/>
			</g>
			<g>
				<path class="st1" d="M47.9,63.1c0.5,1.8-0.8,2.5-2.6,3s-3.3,0.8-3.9-1c-0.7-1.8,0.4-3.7,2.2-4.3C45.4,60.2,47.3,61.2,47.9,63.1z
					"/>
				<path class="st10" d="M47.7,62.1c0.1,0.1,0,0.5-0.3,0.8c-0.3,0.3-0.8,0.1-0.8,0.1s0-0.5,0.3-0.8C47.1,62,47.5,62,47.7,62.1z"/>
			</g>
		</g>
		<g>
			<g>
				<g>
					<path class="st9" d="M18.5,61.1c0,0,5.9,0.7,5.4,4.2c-0.3,1.7-1.7,3.7-2.8,4.1c-1,0.4-2.2-0.5-2.9-0.8c0,0-1.7-1.4-1.7-5.5
						L18.5,61.1z"/>
				</g>
				<g>
					<g>
						<path class="st11" d="M18.5,61.1c1,0.4,2,0.9,2.8,1.4c0.8,0.5,1.6,1.2,1.7,2c0,0.1,0,0.1,0,0.3c0,0.1,0,0.3,0,0.4
							c0,0.4-0.1,0.8-0.5,1.4c-0.1,0.3-0.4,0.7-0.7,1c-0.3,0.4-0.5,0.5-0.5,0.5s0,0-0.1,0.1c-0.1,0.1-0.3,0.1-0.3,0.3
							c-0.1,0-0.1,0-0.3,0.1c-0.1,0-0.3,0-0.4,0c-0.4-0.1-0.7-0.3-1-0.5c-0.1,0-0.3-0.1-0.3-0.1c-0.1-0.1,0,0-0.1,0
							c0,0-0.1-0.1-0.1-0.3c-0.3-0.4-0.5-0.9-0.7-1.2c-0.4-1.2-0.7-2.1-0.8-3v-0.1v-0.1c0.1-0.3,0.3-0.4,0.4-0.7
							C17.8,62,18.1,61.6,18.5,61.1c-0.5,0.3-0.9,0.5-1.4,0.8c-0.3,0.1-0.4,0.3-0.7,0.4c-0.1,0.1-0.4,0.3-0.4,0.4c0,0.3,0,0.4,0,0.7
							c-0.1,1,0,2.2,0.5,3.7c0.1,0.4,0.4,0.9,0.8,1.6c0.1,0.1,0.1,0.3,0.5,0.7c0,0.1,0.1,0.1,0.3,0.1l0.1,0.1c0.1,0,0.1,0.1,0.3,0.1
							c0.4,0.1,0.8,0.5,1.4,0.7c0.3,0.1,0.5,0.1,0.9,0.1s0.8-0.1,1-0.3c0.3-0.1,0.4-0.3,0.5-0.4s0.3-0.1,0.3-0.1s0.4-0.3,0.7-0.8
							c0.4-0.4,0.7-0.9,0.8-1.3c0.4-0.8,0.5-1.4,0.7-2c0-0.3,0-0.5,0-0.8s0-0.4-0.1-0.5c-0.3-0.9-0.8-1.6-1.3-2
							c-0.5-0.4-1-0.7-1.6-0.8C20.7,61,19.7,61,18.5,61.1z"/>
					</g>
				</g>
			</g>
			<g>
				<g>
					<path class="st9" d="M12.7,62.1c0,0-5.2,2.6-3.5,5.8c0.8,1.6,2.9,2.9,3.9,2.9s1.8-1.3,2.4-1.8c0,0,1-2-0.3-5.8L12.7,62.1z"/>
				</g>
				<g>
					<g>
						<path class="st11" d="M12.7,62.1c-1.2,0.3-2.1,0.7-3,1.3c-0.4,0.4-0.9,0.8-1.2,1.3c-0.4,0.5-0.7,1.3-0.5,2.4
							c0,0.1,0,0.4,0.1,0.5c0.1,0.3,0.1,0.4,0.3,0.7c0.3,0.5,0.7,1,1.3,1.6c0.3,0.3,0.8,0.7,1.3,0.9s0.9,0.5,0.9,0.5s0.1,0,0.3,0.1
							c0.1,0,0.4,0.1,0.7,0.1c0.3,0,0.8,0,1-0.1c0.4-0.1,0.7-0.3,0.8-0.4c0.5-0.4,0.9-0.8,1.2-1.2c0-0.1,0.1-0.1,0.1-0.3l0.1-0.1
							c0.1,0,0.1-0.1,0.1-0.3c0.1-0.4,0.3-0.5,0.3-0.8c0.1-0.8,0.3-1.3,0.3-1.7c0-1.6-0.4-2.6-0.8-3.5c-0.1-0.1-0.1-0.4-0.3-0.5
							c-0.1,0-0.4,0-0.5-0.1c-0.3-0.1-0.5-0.1-0.8-0.1C13.9,62.3,13.4,62.1,12.7,62.1c0.5,0.4,0.9,0.7,1.3,1
							c0.3,0.1,0.4,0.3,0.7,0.4l0.1,0.1v0.1c0.1,0.9,0.3,2,0.3,3.1c0,0.3,0,0.8-0.1,1.3c0,0.1-0.1,0.4-0.1,0.3c0,0,0,0,0,0.1
							c-0.1,0.1-0.1,0.1-0.3,0.3c-0.3,0.3-0.5,0.7-0.9,0.9C13.5,70,13.4,70,13.4,70c-0.1,0-0.1,0-0.3,0c-0.1,0-0.3,0-0.4-0.1
							c-0.1-0.1-0.1,0-0.1,0s-0.3-0.1-0.7-0.4s-0.8-0.5-0.9-0.8c-0.5-0.5-0.8-0.9-0.9-1.2c0-0.1-0.1-0.3-0.1-0.4c0-0.1,0-0.1,0-0.3
							c-0.1-0.9,0.4-1.7,0.9-2.5C11.3,63.6,11.9,62.9,12.7,62.1z"/>
					</g>
				</g>
			</g>
			<g>
				<g>
					<path class="st9" d="M17.3,57.4c0,0,4.3-7.3,7.9-3c3.4,4.3,1.7,8.6,0.3,9.9c0,0-2.9,1.7-7.3-2.4L17.3,57.4z"/>
				</g>
				<g>
					<g>
						<path class="st11" d="M17.3,57.4c1.2-1,2.2-1.8,3.3-2.5c0.5-0.3,1-0.5,1.6-0.7c0.5-0.1,0.9-0.1,1.4,0.3
							c0.1,0.1,0.4,0.3,0.7,0.7c0.1,0.1,0.4,0.4,0.5,0.7c0.1,0.3,0.4,0.7,0.5,1c0.3,0.4,0.5,1.2,0.5,1.8c0,0.4,0.1,0.7,0.1,0.9
							s0,0.4,0,0.4s0,0.5-0.1,1c-0.1,0.5-0.4,1.3-0.7,1.7c-0.1,0.3-0.3,0.4-0.4,0.7c-0.1,0.1,0.1,0-0.3,0.1c-0.4,0.1-0.8,0.1-1,0.1
							c-0.7,0-1.2-0.3-1.6-0.4c-0.7-0.3-1.3-0.7-2-1c-0.3-0.1-0.5-0.4-0.8-0.5c-0.3-0.1-0.1,0-0.3-0.3C18.5,60,18,58.9,17.3,57.4
							c-0.1,1.6-0.1,2.9-0.1,4.2c0,0,0,0.3,0,0.4v0.4c0.3,0.3,0.4,0.4,0.7,0.7s0.5,0.5,0.9,0.8c0.7,0.5,1.4,1,2.4,1.4
							c0.5,0.3,1.2,0.4,2.4,0.5c0.5,0,1.2,0,2-0.3c0.1,0,0.1,0,0.3-0.1c0.1,0,0.3-0.1,0.4-0.1c0.1,0,0.3-0.1,0.4-0.3l0.3-0.3
							c0.3-0.3,0.5-0.7,0.7-1c0.4-0.7,0.8-1.6,0.9-2.4c0.1-0.8,0.1-1.4,0.1-1.4s0-0.1,0-0.5c0-0.3,0-0.8-0.1-1.2
							c-0.1-0.9-0.5-2-0.8-2.5c-0.3-0.5-0.5-0.9-0.8-1.3s-0.5-0.7-0.7-0.9c-0.4-0.5-0.9-0.9-1.3-1c-0.5-0.4-1.2-0.5-1.7-0.5
							c-0.7,0-1.2,0.1-1.6,0.3c-0.9,0.4-1.6,0.9-2.1,1.4C18.3,54.7,17.8,55.9,17.3,57.4z"/>
					</g>
				</g>
			</g>
			<g>
				<g>
					<path class="st9" d="M18.5,59.5c0,0,1.3-1,4.1-0.3"/>
				</g>
				<g>
					<g>
						<path class="st11" d="M18.5,59.5c0.5,0.4,0.7,0.7,0.8,0.5c0.1,0,0.4-0.1,0.7-0.1c0.3,0,0.5,0,0.5,0s0.3,0,0.5,0
							c0.3,0,0.7,0.1,0.8,0.1c0.3,0,0.4-0.3,0.8-0.8c0-0.7-0.1-0.9-0.4-1c-0.1,0-0.5-0.1-0.9-0.1c-0.4,0-0.8,0-0.8,0s-0.4,0-0.8,0
							c-0.4,0-0.9,0.3-1,0.3C18.3,58.5,18.3,58.9,18.5,59.5z"/>
					</g>
				</g>
			</g>
			<g>
				<g>
					<path class="st9" d="M12.6,58.2c0,0-6.7-5.4-8.4-0.1s1.4,8.6,3.1,9.4c0,0,3.3,0.7,6-4.7L12.6,58.2z"/>
				</g>
				<g>
					<g>
						<path class="st11" d="M12.6,58.2c-1-1.2-2-2.1-3.3-2.9c-0.7-0.4-1.4-0.7-2.4-0.7c-0.5,0-1,0.1-1.6,0.3c-0.5,0.3-1,0.7-1.4,1.2
							c-0.3,0.4-0.5,0.8-0.8,1.4c-0.1,0.3-0.3,0.7-0.4,1c-0.1,0.4-0.3,0.9-0.3,1.6c-0.1,0.7,0,1.7,0.1,2.6c0.1,0.4,0.3,0.9,0.3,1.2
							C3,64.2,3,64.4,3,64.4s0.3,0.7,0.7,1.3c0.4,0.7,1,1.4,1.7,2c0.4,0.3,0.8,0.5,1.2,0.8c0.1,0,0.3,0.1,0.4,0.1
							c0.1,0.1,0.3,0.1,0.4,0.1c0.1,0,0.4,0,0.4,0c0.1,0,0.3,0,0.3,0c0.8,0,1.3-0.3,1.8-0.5c1-0.4,1.6-0.9,2-1.3
							c0.8-0.7,1.3-1.4,1.7-2.1c0.3-0.4,0.4-0.7,0.5-1c0.1-0.3,0.3-0.5,0.4-0.8l-0.1-0.4c0-0.1-0.1-0.3-0.1-0.4
							C13.8,60.8,13.2,59.7,12.6,58.2c-0.1,1.6-0.1,2.9-0.1,4.2c0,0.3,0,0.1-0.1,0.3c-0.1,0.3-0.4,0.5-0.7,0.8
							c-0.4,0.5-0.9,1-1.4,1.6c-0.3,0.3-0.7,0.7-1.3,0.9c-0.3,0.1-0.7,0.3-1,0.3c-0.3,0,0,0-0.3,0c-0.1-0.1-0.4-0.3-0.7-0.4
							c-0.4-0.3-0.9-0.9-1.2-1.3c-0.3-0.5-0.5-0.9-0.5-0.9s0-0.1-0.1-0.4C5,62.9,5,62.7,4.8,62.4c0-0.7,0-1.4,0-2
							C4.8,60,5,59.7,5,59.3c0.1-0.4,0.1-0.7,0.3-0.9c0.1-0.4,0.3-0.7,0.4-0.8c0.4-0.4,0.7-0.7,1.3-0.7c0.5-0.1,1.2,0,1.7,0.1
							C9.9,57.3,11.1,57.6,12.6,58.2z"/>
					</g>
				</g>
			</g>
			<g>
				<g>
					<path class="st9" d="M17.6,62.7l-3,0.5c-1,0.1-2-0.5-2.1-1.4l-0.3-1.8c-0.1-1,0.5-2,1.4-2.1l3-0.5c1-0.1,2,0.5,2.1,1.4l0.3,1.8
						C19.1,61.6,18.5,62.5,17.6,62.7z"/>
				</g>
				<g>
					<g>
						<path class="st11" d="M17.6,62.7c-1.2-0.1-2.2-0.1-3.1-0.1c-0.4,0-0.7-0.1-0.8-0.4c-0.3-0.3-0.3-0.4-0.4-1.2
							c0-0.3-0.1-0.5-0.1-0.9c0-0.3,0-0.3,0-0.5c0-0.1,0.1-0.3,0.3-0.5c0-0.1,0.3-0.3,0.3-0.3h0.1c0,0,0,0,0.1,0
							c0.9-0.1,1.7-0.3,2.4-0.4c0.1,0,0.4,0,0.5-0.1c0.1,0,0.1,0,0.3,0c0.1,0,0.3,0,0.4,0.1c0.4,0.1,0.5,0.4,0.7,0.7
							c0.1,0.5,0.3,1,0.4,1.6c0.1,0.3,0.1,0.4,0.1,0.5c0,0.1,0,0.4,0,0.5C18.3,62,18.1,62.4,17.6,62.7c0.5,0,1.2-0.3,1.6-0.7
							c0.3-0.3,0.4-0.5,0.4-0.8c0.1-0.3,0-0.7,0-0.9c0-0.5,0-1-0.1-1.6c-0.1-0.8-0.7-1.7-1.6-2.1c-0.3-0.1-0.7-0.3-1-0.3
							c-0.1,0-0.4,0-0.7,0c-0.1,0-0.3,0-0.5,0.1c-0.7,0.1-1.4,0.3-2.4,0.4c-0.1,0-0.3,0-0.4,0.1c-0.3,0.1-0.5,0.3-0.5,0.3
							s-0.7,0.4-0.8,0.7c-0.4,0.4-0.5,0.9-0.7,1.3c0,0.4,0,0.9,0,1c0.5,0.4,0.5,0.7,0.5,0.9c0.1,0.4,0.1,0.7,0.3,1
							c0.1,0.4,0.4,0.8,0.8,1c0.7,0.5,1.4,0.7,2.1,0.5C15.6,63.6,16.4,63.2,17.6,62.7z"/>
					</g>
				</g>
			</g>
			<g>
				<g>
					<path class="st9" d="M14.8,61.4c0,0,1-1.3,0.3-4.1"/>
				</g>
				<g>
					<g>
						<path class="st11" d="M14.8,61.4c0.5,0.1,0.9,0.1,1-0.1c0.1-0.1,0.3-0.7,0.3-1c0.1-0.4,0.1-0.8,0.1-0.8s0-0.4,0-0.8
							s-0.1-0.8-0.1-0.9c0-0.3-0.4-0.4-1-0.4c-0.5,0.3-0.8,0.5-0.8,0.7s0,0.4,0.1,0.8c0,0.3,0,0.5,0,0.5s0,0.3,0,0.5
							s-0.1,0.5-0.1,0.7C14.1,60.7,14.4,60.8,14.8,61.4z"/>
					</g>
				</g>
			</g>
			<g>
				<g>
					<path class="st9" d="M12.2,60.6c0,0-1.6-0.4-3.9,1.2"/>
				</g>
				<g>
					<g>
						<path class="st11" d="M12.2,60.6c-0.1-0.7-0.3-0.9-0.5-0.9c-0.1,0-0.7,0-1,0.1C10.2,59.9,9.8,60,9.8,60s-0.3,0-0.7,0.1
							c-0.4,0.1-0.8,0.4-0.9,0.5c-0.3,0.1-0.1,0.5,0,1c0.5,0.4,0.8,0.5,0.9,0.4c0.1,0,0.4-0.3,0.7-0.4c0.3-0.1,0.5-0.3,0.5-0.3
							s0.3-0.1,0.5-0.1c0.3,0,0.5-0.1,0.7-0.1C11.8,61.4,11.9,61.1,12.2,60.6z"/>
					</g>
				</g>
			</g>
		</g>
	</g>
</g>
</svg>
