<svg width="258" height="163" viewBox="0 0 258 163" fill="none" xmlns="http://www.w3.org/2000/svg">
<mask id="mask0_1262_6978" style="mask-type:alpha" maskUnits="userSpaceOnUse" x="0" y="0" width="258" height="163">
<rect width="258" height="163" fill="#FFB6B6"/>
</mask>
<g mask="url(#mask0_1262_6978)">
<g opacity="0.9" filter="url(#filter0_d_1262_6978)">
<path d="M255.886 98.1145C255.947 97.5735 255.956 97.0211 255.964 96.4687L255.988 94.8114C256.005 93.7066 255.904 92.6318 255.921 91.527C255.784 89.336 255.53 87.1751 255.159 85.0444C254.418 80.7829 253.261 76.6533 251.742 72.6671C248.888 65.1225 244.86 58.1553 240.274 51.7323C235.634 45.2978 230.436 39.4076 224.702 33.9556C223.375 32.6712 222.038 31.4398 220.583 30.2386L219.611 29.3633L218.448 27.0613C216.623 23.7293 214.477 20.605 212.19 17.6167C209.84 14.67 207.339 11.9123 204.634 9.3322C203.255 8.03643 201.864 6.79362 200.41 5.59236C199.709 4.99743 198.955 4.39109 198.19 3.83771C197.478 3.29574 196.766 2.75377 196.042 2.26476L194.93 1.52554L194.395 1.18812L194.101 1.0137C194.101 1.0137 194.059 0.949328 194.007 0.937911L193.878 1.021C193.195 1.37204 192.47 1.65871 191.787 2.00976L190.742 2.50414C190.432 2.6589 190.1 2.91957 189.779 3.12728C189.458 3.33499 189.137 3.5427 188.805 3.80337C188.665 3.93941 188.537 4.0225 188.397 4.15854L188.118 4.43063C187.71 4.7858 187.419 5.11085 187.064 5.47744C185.719 6.84929 184.627 8.33119 183.652 9.78296C181.702 12.6865 180.163 15.7343 178.741 18.7521C177.319 21.7698 176.108 24.8331 174.992 27.9723L174.537 29.315L172.176 29.2477C165.122 29.1633 158.429 30.4869 152.074 32.5488C151.244 32.8126 150.466 33.0879 149.689 33.3631L147.889 34.0269L147.806 33.8981L146.951 32.9927L146.031 32.1289L144.257 30.3596C143.661 29.7875 143.055 29.2684 142.407 28.6849L141.487 27.8211L140.504 26.9988C137.93 24.835 135.152 22.8489 132.043 21.1234C130.52 20.2399 128.91 19.5038 127.119 18.8394L126.191 18.528C125.833 18.3951 125.464 18.3152 125.041 18.2239C124.302 18.064 123.521 17.8398 122.748 17.8389C121.998 17.732 121.277 17.7424 120.557 17.7529L120.398 17.7187C120.387 17.7716 120.323 17.8132 120.323 17.8132L120.213 18.0665L119.888 18.5505L119.291 19.5297L118.066 21.3709C117.613 21.9379 117.25 22.8569 117.14 23.1103C116.799 23.9234 116.418 24.6721 116.077 25.4852L115.131 27.83C114.802 28.5902 114.514 29.4147 114.238 30.1862C113.174 33.3368 112.216 36.5102 111.416 39.7179C110.616 42.9256 109.88 46.0917 109.25 49.2807C108.909 50.8694 108.62 52.4696 108.332 54.0698L107.914 56.5288L107.868 56.7406L107.857 56.7936L107.822 56.9525L107.414 58.0833C105.173 64.1384 103.132 70.2921 101.239 76.533L101.117 76.8394L101.038 77.2101C100.045 80.5424 99.1058 83.8861 98.3132 87.317C98.131 88.1644 97.9489 89.0117 97.7554 89.912L97.4709 91.236L97.2392 92.5714C96.9692 94.3419 96.6878 96.1653 96.6362 98.2047L96.6239 99.0334C96.6198 99.3096 96.6571 99.6502 96.653 99.9264L96.6903 100.267L96.682 100.819L96.7051 103.54C96.7342 104.433 96.816 105.337 96.8865 106.295C96.9684 107.199 96.9975 108.092 97.1849 109.02L97.6003 111.714C97.7992 112.588 98.0394 113.527 98.2383 114.401C98.4258 115.329 98.7416 116.173 98.9932 117.059C99.2977 117.956 99.5493 118.841 99.9179 119.697C102.516 126.632 106.926 132.851 112.265 137.829C117.604 142.808 123.797 146.641 130.3 149.543C134.489 151.391 138.746 152.922 143.146 154.039C143.252 154.062 143.433 153.991 143.55 153.96C146.706 154.698 149.874 155.383 153.076 155.91C160.072 157.034 167.212 157.747 174.341 157.737C176.099 157.785 177.891 157.673 179.713 157.679C180.603 157.65 181.505 157.568 182.395 157.539L183.742 157.442L185.089 157.345C188.684 157.07 192.231 156.507 195.747 155.826L198.935 155.13C199.988 154.859 201.041 154.588 202.094 154.317C202.094 154.317 202.445 154.226 203.041 154.023C203.637 153.819 204.479 153.502 205.449 153.103C205.928 152.929 206.471 152.714 207.068 152.511C207.623 152.243 208.23 151.986 208.838 151.729C209.445 151.473 210.064 151.163 210.725 150.918C211.344 150.609 211.963 150.299 212.582 149.99C213.201 149.68 213.82 149.371 214.439 149.061C215.058 148.752 215.636 148.378 216.202 148.057C217.334 147.415 218.35 146.803 219.184 146.263C220.864 145.13 221.838 144.454 221.657 144.526C222.578 143.838 223.394 143.128 224.145 142.459C224.542 142.157 224.897 141.79 225.229 141.53C225.52 141.205 225.864 140.891 226.102 140.555C226.113 140.502 226.113 140.502 226.166 140.513C226.721 140.245 227.287 139.924 227.917 139.562C229.797 138.527 231.828 137.304 233.788 135.899C235.736 134.546 237.601 133.066 239.18 131.633C240.747 130.254 242.08 128.935 243.005 127.972C243.931 127.008 244.448 126.399 244.448 126.399C245.907 124.498 247.324 122.532 248.552 120.415L248.889 119.878C249.422 118.94 249.955 118.002 250.446 117C251.418 115.049 252.337 113.086 253.068 110.972C254.559 106.861 255.545 102.53 255.886 98.1145ZM96.7544 100.225C96.7544 100.225 96.7958 100.29 96.7544 100.225V100.225ZM107.921 56.752C107.921 56.752 107.932 56.6991 107.921 56.752V56.752ZM245.745 108.28C245.147 110.035 244.338 111.745 243.487 113.39C243.083 114.244 242.584 115.023 242.126 115.866L241.865 116.309C241.366 117.087 240.932 117.825 240.38 118.592L239.643 119.707L238.853 120.811C238.853 120.811 238.679 121.106 238.366 121.537C238.041 122.021 237.576 122.641 237.013 123.462C235.857 124.985 234.259 127.022 232.525 128.92C229.099 132.779 225.142 136.024 225.568 135.839C223.903 137.419 222.335 138.798 221.218 139.886C220.727 140.113 220.236 140.339 219.681 140.607C218.711 141.007 217.742 141.407 216.719 141.795C216.473 141.909 216.228 142.022 215.983 142.135L215.205 142.41L213.651 142.961C213.119 143.123 212.628 143.349 212.096 143.511C211.564 143.673 211.032 143.835 210.552 144.009C209.541 144.344 208.582 144.691 207.658 144.879C206.722 145.12 205.839 145.373 205.073 145.595C204.266 145.753 203.564 145.934 202.979 146.084C202.394 146.235 201.938 146.303 201.64 146.404C201.341 146.506 201.172 146.525 201.172 146.525L197.832 147.41L194.474 148.125C181.449 150.628 167.862 150.351 154.632 148.155C150.469 147.476 146.35 146.586 142.383 145.506C142.331 145.495 142.267 145.536 142.214 145.525C139.314 144.621 136.501 143.569 133.723 142.358C127.883 139.71 122.425 136.313 117.817 132.047C113.273 127.739 109.62 122.626 107.439 116.834C107.142 116.161 106.921 115.392 106.688 114.677C106.455 113.961 106.18 113.181 106.064 112.436L105.558 110.165L105.168 107.864C104.999 107.107 105 106.331 104.896 105.533C104.844 104.746 104.728 104 104.74 103.172L104.702 100.78L104.68 100.11L104.65 99.9931L104.661 99.9401L104.643 99.7698L104.605 99.4292C104.617 99.3763 104.587 99.2589 104.598 99.206C104.609 99.153 104.609 99.153 104.609 99.153C104.609 99.153 104.598 99.206 104.609 99.153C104.632 99.0471 104.591 98.9827 104.572 98.8124L104.558 98.3659C104.578 96.9848 104.803 95.4262 105.08 93.879L105.278 92.7024L105.528 91.5373C105.699 90.743 105.869 89.9486 106.04 89.1542C106.776 85.9881 107.64 82.7388 108.598 79.5654L108.731 79.2061L108.863 78.8468C110.711 72.8177 112.718 66.8229 114.883 60.8623L115.292 59.7315L115.508 58.7252C115.588 58.3545 115.637 57.8665 115.66 57.7605L116.044 55.4605C116.321 53.9132 116.598 52.366 116.929 50.8302C117.536 47.7471 118.249 44.6869 119.003 41.6911C119.716 38.6309 120.629 35.6693 121.636 32.7835C121.901 32.0649 122.166 31.3463 122.431 30.6277L123.267 28.5363C123.532 27.8177 123.891 27.1749 124.197 26.5207L124.383 26.1728L124.594 26.2185C125.827 26.6514 127.131 27.266 128.36 27.9751C130.882 29.3517 133.26 31.1406 135.615 33.0354L136.504 33.7819L137.341 34.517C137.895 35.0248 138.449 35.5325 139.003 36.0402L140.642 37.6692L141.467 38.4573L142.28 39.2983L145.471 42.7039L145.761 43.1545L145.991 43.3705C146.055 43.329 146.172 43.2988 146.236 43.2573L147.335 42.7743C148.071 42.4347 148.818 42.0421 149.595 41.7669L150.682 41.3368L151.226 41.1218L152.301 40.7448C153.026 40.4581 153.739 40.2244 154.452 39.9907C160.211 38.1324 166.214 36.9366 172.008 36.9703L173.098 37.0397L173.649 37.048L173.924 37.0521L174.03 37.075C174.135 37.0978 174.252 37.0677 174.2 37.0562L174.252 37.0677L174.411 37.1019L179.159 37.63L179.751 37.7026L179.804 37.714C179.857 37.7254 179.857 37.7254 179.868 37.6725L179.903 37.5136L180.024 37.2072L180.38 36.065C180.603 35.282 180.879 34.5105 181.103 33.7275L181.448 32.6382L181.769 31.6548L182.167 30.5769C183.238 27.6496 184.403 24.798 185.663 22.0223C186.922 19.2465 188.382 16.5694 189.954 14.1384C190.767 12.9285 191.609 11.8361 192.47 10.9139C192.686 10.6833 192.901 10.4528 193.105 10.2752L193.245 10.1392L193.256 10.0862C193.915 10.6168 194.586 11.0944 195.234 11.6779C196.553 12.739 197.797 13.8946 199.04 15.0502C201.474 17.3499 203.798 19.9031 205.889 22.5165C207.968 25.1829 209.854 27.9739 211.442 30.8667L212.688 33.2974L212.997 33.9184L213.151 34.2288C213.192 34.2932 213.211 34.4635 213.316 34.4863L214.353 35.3201L215.389 36.1538C216.697 37.2678 217.94 38.4234 219.172 39.632C224.541 44.7279 229.468 50.3378 233.765 56.3102C238.062 62.2825 241.705 68.7233 244.296 75.4352C245.631 78.9936 246.667 82.6538 247.3 86.393C247.622 88.2361 247.827 90.1094 247.927 91.9598C247.945 92.9057 248.027 93.8102 247.992 94.7447L247.971 96.1258C247.985 96.5723 247.936 97.0604 247.898 97.4954C247.821 101.192 247.047 104.793 245.745 108.28Z" fill="white"/>
<path d="M123.522 35.5745C123.522 35.5745 119.93 48.4312 120.731 53.703C120.731 53.703 124.264 49.0912 130.903 48.5318L123.522 35.5745Z" fill="white"/>
<path d="M208.371 34.3591C208.371 34.3591 201.253 21.4588 197.659 20.9587L196.325 35.1349C196.325 35.1349 204.776 33.8589 208.371 34.3591Z" fill="white"/>
<path d="M145.891 70.1298C147.529 70.484 149.102 69.4322 149.447 67.8282C149.8 66.1851 148.752 64.6074 147.153 64.2616C145.515 63.9074 143.942 64.9592 143.597 66.5632C143.252 68.1671 144.292 69.784 145.891 70.1298Z" fill="white"/>
<path d="M189.73 59.5289C191.368 59.8831 192.941 58.8313 193.286 57.2274C193.639 55.5843 192.59 54.0066 190.991 53.6608C189.353 53.3066 187.781 54.3584 187.436 55.9623C187.083 57.6054 188.092 59.1747 189.73 59.5289Z" fill="white"/>
<path d="M198.808 96.8559C198.808 96.8559 198.789 96.6856 198.793 96.4094C198.797 96.1332 198.771 95.7396 198.704 95.2817C198.569 94.3659 198.152 93.2227 197.561 92.3744C196.401 90.5718 194.954 89.5938 195.025 89.7755C193.767 88.9491 192.552 88.6865 192.039 89.0188C191.514 89.4041 191.788 90.1839 192.62 91.9709C193.049 93.0612 193.39 94.2989 193.348 95.0102C193.321 95.3923 193.264 95.6571 193.177 95.8046C193.09 95.9521 193.067 96.058 193.067 96.058C193.067 96.058 193.045 96.1639 192.988 96.4287C192.942 96.6405 192.81 96.9998 192.379 97.4609C192.001 97.9334 191.541 98.2772 190.869 98.5753C190.197 98.8734 189.231 98.997 188.141 98.9276C186.003 98.853 183.608 98.169 181.881 97.463C181.018 97.1101 180.301 96.8443 179.755 96.5599C179.608 96.4727 179.502 96.4498 179.355 96.3626C179.265 96.0106 179.175 95.6586 179.032 95.2952C178.852 94.5912 178.66 93.9401 178.469 93.2891C178.289 92.5851 178.097 91.934 177.935 91.4003C181.412 89.8797 183.637 86.9803 183.184 83.9451C182.563 80.153 177.937 77.7673 172.84 78.6047C167.743 79.4422 164.075 83.1382 164.697 86.9303C165.202 89.9769 168.285 92.0845 172.148 92.3656C172.339 93.0166 172.55 93.8379 172.843 94.788C173.094 95.6738 173.365 96.7298 173.688 97.7972C173.601 97.9447 173.461 98.0807 173.374 98.2282C172.921 98.7952 172.415 99.3508 171.92 99.8534C170.919 100.912 169.794 101.777 168.778 102.388C167.763 103 166.827 103.241 166.159 103.263C165.492 103.285 164.869 103.095 164.353 102.928C163.836 102.761 163.595 102.598 163.595 102.598C163.595 102.598 163.225 102.518 162.773 102.309C162.309 102.153 161.774 101.816 161.45 101.524C161.126 101.232 160.889 100.793 160.821 100.335C160.754 99.8774 160.77 99.5482 160.705 99.5898C160.639 98.3562 160.924 97.0322 160.604 96.4642C160.438 96.2067 160.121 96.1382 159.619 96.4176C159.374 96.5308 159.042 96.7915 158.698 97.1051C158.343 97.4717 157.965 97.9442 157.647 98.6514C157.19 99.4946 156.845 100.584 156.953 101.882C157.019 103.116 157.584 104.346 158.175 105.194C158.819 106.054 159.467 106.637 159.938 107.016C160.409 107.395 160.703 107.57 160.703 107.57C160.703 107.57 161.197 107.843 162.008 108.184C162.419 108.329 162.924 108.549 163.61 108.697C163.716 108.72 163.768 108.731 163.874 108.754C163.98 108.777 164.032 108.789 164.138 108.811C164.296 108.846 164.508 108.891 164.719 108.937C165.1 108.964 165.575 109.067 166.02 109.052C167.842 109.058 169.789 108.482 171.476 107.572C173.175 106.609 174.655 105.377 175.989 104.058C176.623 103.42 177.269 102.728 177.809 102.014C178.367 102.245 179.019 102.552 179.736 102.818C181.779 103.593 184.573 104.474 187.738 104.66C189.326 104.726 191.024 104.539 192.684 104.011C194.303 103.419 195.738 102.399 196.697 101.277C197.581 100.248 198.16 99.0989 198.459 98.2214C198.603 97.8092 198.683 97.4385 198.739 97.1737C198.785 96.9618 198.808 96.8559 198.808 96.8559Z" fill="white"/>
<path d="M128.287 95.4061C122.379 96.6777 118.209 100.653 118.993 104.203C119.777 107.753 125.184 109.588 131.093 108.316C137.002 107.045 141.171 103.069 140.387 99.5189C139.615 95.9158 134.208 94.0815 128.287 95.4061Z" fill="white"/>
<path d="M219.157 75.4304C213.248 76.702 209.079 80.6774 209.863 84.2276C210.647 87.7777 216.054 89.612 221.963 88.3404C227.871 87.0688 232.041 83.0934 231.257 79.5432C230.473 75.9931 225.024 74.0944 219.157 75.4304Z" fill="white"/>
<path d="M149.836 81.0553C149.983 80.7171 149.981 80.3837 149.8 80.1965C149.646 80.0524 149.435 80.0067 149.158 80.0947C147.546 78.1555 144.808 77.3414 142.319 78.2829C139.182 79.4914 137.609 83.0354 138.814 86.1814C140.019 89.3274 142.721 88.765 145.858 87.5565C148.994 86.3481 151.39 84.9796 150.193 81.7983C150.098 81.5557 149.967 81.3055 149.836 81.0553Z" fill="white"/>
<path d="M206.638 68.744C206.882 68.464 206.986 68.1534 206.855 67.9032C206.745 67.7314 206.548 67.6149 206.287 67.6323C205.275 65.3049 202.872 63.7865 200.203 64.0231C196.853 64.3347 194.377 67.2766 194.645 70.6638C194.913 74.0511 197.682 74.2061 201.059 73.9375C204.436 73.6689 207.091 72.9852 206.823 69.5979C206.778 69.2923 206.725 69.0219 206.638 68.744Z" fill="white"/>
</g>
<mask id="mask1_1262_6978" style="mask-type:alpha" maskUnits="userSpaceOnUse" x="-6" y="18" width="121" height="146">
<path d="M-6 163.998V20.9977L107.151 18.4977L110.142 24.9977L107.151 39.4977L92.6959 91.4977C87.5118 122.698 105.157 142.498 114.628 148.498V163.998H-6Z" fill="#C4C4C4"/>
</mask>
<g mask="url(#mask1_1262_6978)">
<g filter="url(#filter1_d_1262_6978)">
<path d="M123.963 103.663C125.24 98.8984 125.89 93.9875 125.896 89.0547C125.899 84.1213 125.249 79.2092 123.963 74.4462C121.405 64.9807 116.431 56.3422 109.527 49.3778C109.398 49.2014 109.243 49.0459 109.066 48.9168C102.099 42.0154 93.4583 37.0424 83.9898 34.4857V34.4857C74.4183 31.909 64.3354 31.909 54.7638 34.4857V34.4857C45.296 37.0439 36.6552 42.0167 29.6877 48.9168C29.5907 48.9767 29.5013 49.0481 29.4216 49.1296C29.3471 49.2044 29.2816 49.2877 29.2266 49.3778C22.2841 56.2747 17.244 64.8494 14.5958 74.2689C14.5958 74.2689 14.5958 74.2689 14.5958 74.2689C13.3101 79.0319 12.6601 83.944 12.6628 88.8774C12.6691 93.8102 13.3189 98.7211 14.5958 103.486V103.486C17.126 113.026 22.0946 121.744 29.0138 128.785L29.2266 129.033L29.4926 129.246C33.1052 132.815 37.1788 135.886 41.6051 138.376L33.6956 159.473C33.5305 159.925 33.4766 160.41 33.5384 160.887C33.6002 161.363 33.776 161.819 34.0508 162.213C34.3256 162.608 34.6914 162.931 35.1172 163.154C35.5431 163.378 36.0166 163.496 36.4976 163.498H51.3943C52.0065 163.495 52.6032 163.305 53.1042 162.953C53.6051 162.601 53.9863 162.105 54.1964 161.53L56.1117 156.211C56.2534 156.272 56.4025 156.313 56.555 156.335C56.7307 156.37 56.9114 156.37 57.087 156.335C57.7944 156.352 58.4846 156.116 59.0326 155.668C59.5807 155.221 59.9503 154.592 60.0746 153.896C60.1989 153.199 60.0697 152.481 59.7104 151.872C59.351 151.263 58.7853 150.802 58.1156 150.573L60.1905 144.812C66.2031 145.804 72.3378 145.804 78.3504 144.812L80.4075 150.52C79.6982 150.697 79.0786 151.128 78.6667 151.732C78.2547 152.335 78.0791 153.069 78.1733 153.794C78.2674 154.519 78.6248 155.183 79.1774 155.662C79.73 156.14 80.4392 156.399 81.1701 156.388C81.3474 156.388 81.5248 156.388 81.7021 156.388C81.9465 156.339 82.1845 156.261 82.4115 156.158L84.3268 161.477C84.5369 162.051 84.918 162.548 85.419 162.9C85.9199 163.252 86.5166 163.442 87.1288 163.445H102.026C102.507 163.442 102.98 163.325 103.406 163.101C103.832 162.877 104.198 162.555 104.472 162.16C104.747 161.765 104.923 161.31 104.985 160.833C105.047 160.357 104.993 159.872 104.828 159.42L96.9358 138.376C101.363 135.88 105.437 132.803 109.048 129.228C109.225 129.099 109.38 128.943 109.509 128.767C116.413 121.803 121.387 113.164 123.945 103.699C123.945 103.699 123.963 103.681 123.963 103.663ZM93.9742 147.453L95.4816 151.478L97.7516 157.594H89.2392L84.2204 143.659L82.1987 138.075L72.0724 109.851C71.9455 109.513 71.7593 109.201 71.5227 108.929C71.2464 108.6 70.9016 108.337 70.5125 108.156C70.1235 107.975 69.6996 107.881 69.2704 107.881C68.8413 107.881 68.4174 107.975 68.0283 108.156C67.6393 108.337 67.2945 108.6 67.0182 108.929C66.7779 109.198 66.5913 109.511 66.4684 109.851L56.3422 137.986L54.3205 143.571L49.3017 157.594H40.7893L42.9706 151.761L44.6553 147.294L46.9785 141.089L49.0712 135.504L62.3009 100.259L62.762 99.036C62.9091 99.1408 63.0632 99.2356 63.2231 99.3196L63.4004 99.4437C65.1612 100.435 67.1436 100.965 69.164 100.986H69.3768C71.4002 100.97 73.3853 100.432 75.1405 99.426L75.3178 99.3196C75.4777 99.2356 75.6318 99.1408 75.7789 99.036L76.24 100.259L89.4697 135.504L91.5624 141.089L93.9742 147.453ZM18.6038 88.9483C18.6013 85.5428 18.94 82.1456 19.6146 78.8075L57.3176 88.9129V89.1256L19.6146 99.231C18.9353 95.8697 18.5966 92.4485 18.6038 89.0193V88.9483ZM70.8133 83.2042C71.8208 83.4646 72.7396 83.9913 73.4734 84.7289V84.7289C74.212 85.4619 74.7389 86.3807 74.9986 87.3882V87.3882C75.1412 87.8899 75.2129 88.4091 75.2114 88.9306V88.9306C75.2129 89.4522 75.1412 89.9713 74.9986 90.473C74.7391 91.43 74.2454 92.3073 73.5621 93.026V93.1323C72.8343 93.8814 71.9138 94.4151 70.902 94.6747V94.6747C69.893 94.9587 68.8252 94.9587 67.8162 94.6747V94.6747C66.8008 94.4114 65.8755 93.8784 65.1384 93.1323V93.1323V93.026C64.4551 92.3073 63.9614 91.43 63.7019 90.473C63.5593 89.9713 63.4876 89.4522 63.4891 88.9306V88.9306C63.4876 88.4091 63.5593 87.8899 63.7019 87.3882C63.8382 86.8877 64.0347 86.4054 64.2871 85.9522C64.5539 85.5053 64.8691 85.0891 65.227 84.7112C65.9608 83.9736 66.8797 83.4469 67.8872 83.1865V83.1865C68.8961 82.9025 69.964 82.9025 70.9729 83.1865L70.8133 83.2042ZM81.1878 88.842L118.926 78.8075C120.321 85.5439 120.321 92.4946 118.926 99.231L81.2233 89.1256V88.9129L81.1878 88.842ZM79.645 83.1333C79.5994 83.0772 79.5579 83.018 79.5208 82.956L107.115 55.4056C111.701 60.5522 115.178 66.5869 117.33 73.1343L79.645 83.1333ZM75.3178 78.7543L75.1405 78.6302L85.2312 40.9744C91.7836 43.1369 97.8204 46.625 102.965 51.2216L75.3178 78.7543ZM69.2704 38.3682C72.7019 38.3727 76.1242 38.7232 79.4853 39.4142L69.3768 77.1055H69.164L59.0555 39.4142C62.4167 38.7232 65.839 38.3727 69.2704 38.3682V38.3682ZM53.3096 40.9744L63.4004 78.6479L63.2231 78.772L35.5754 51.2216C40.7205 46.625 46.7573 43.1369 53.3096 40.9744V40.9744ZM31.4256 55.4056L59.0201 82.9737C59.0201 82.9737 59.0201 83.0978 58.9137 83.151L21.2107 73.0634C23.3721 66.5411 26.8487 60.5314 31.4256 55.4056V55.4056ZM57.8141 95.1711L57.1757 96.944L31.4256 122.633C26.8404 117.486 23.3633 111.452 21.2107 104.904L57.8141 95.1711ZM35.5754 126.852L52.0505 110.382L43.7332 132.774C40.8205 131.081 38.0873 129.097 35.5754 126.852V126.852ZM69.2704 139.653C66.8972 139.652 64.5269 139.487 62.1768 139.156L69.2704 119.655L76.3641 139.156C74.014 139.487 71.6437 139.652 69.2704 139.653V139.653ZM94.8077 132.774L86.4372 110.436L102.965 126.852C100.454 129.097 97.7203 131.081 94.8077 132.774V132.774ZM107.115 122.686L81.3652 96.9085L80.7267 95.1357L117.33 104.975C115.169 111.497 111.692 117.507 107.115 122.633V122.686ZM90.4274 26.9509C90.5685 26.587 90.7801 26.2546 91.0502 25.9727C91.3203 25.6909 91.6435 25.4652 92.0011 25.3087C92.3588 25.1521 92.7439 25.0678 93.1342 25.0606C93.5246 25.0534 93.9125 25.1235 94.2757 25.2667C94.9168 25.5228 95.4491 25.9936 95.7815 26.5986C96.1139 27.2036 96.2258 27.9052 96.098 28.5836C95.9703 29.2619 95.6108 29.8748 95.0811 30.3175C94.5514 30.7603 93.8843 31.0053 93.1939 31.0108C92.8165 31.0176 92.4419 30.9452 92.0944 30.7981C91.7255 30.6557 91.3889 30.4408 91.1044 30.1663C90.8199 29.8917 90.5932 29.563 90.4379 29.1995C90.2825 28.8359 90.2015 28.445 90.1997 28.0497C90.1979 27.6544 90.2753 27.2627 90.4274 26.8978V26.9509ZM54.3028 25.1781C54.201 24.4204 54.3946 23.6526 54.8435 23.0337C55.2924 22.4147 55.9621 21.992 56.7141 21.8531C57.4661 21.7141 58.2427 21.8695 58.8832 22.2872C59.5237 22.7048 59.9791 23.3526 60.155 24.0966C60.2947 24.8723 60.1212 25.6716 59.6724 26.3196C59.2237 26.9676 58.5363 27.4114 57.7609 27.5537C57.584 27.571 57.4058 27.571 57.2289 27.5537C56.5363 27.5465 55.8673 27.3011 55.3344 26.8588C54.8015 26.4164 54.4372 25.8042 54.3028 25.1249V25.1781ZM66.2911 23.5293C66.2864 23.1343 66.3599 22.7424 66.5073 22.3759C66.6547 22.0095 66.8731 21.6758 67.15 21.394C67.4269 21.1123 67.7568 20.888 68.1207 20.7342C68.4846 20.5804 68.8753 20.5 69.2704 20.4977H69.5719C70.3621 20.4977 71.1199 20.8115 71.6786 21.37C72.2374 21.9286 72.5513 22.6862 72.5513 23.4761C72.5513 24.266 72.2374 25.0236 71.6786 25.5822C71.1199 26.1407 70.3621 26.4545 69.5719 26.4545H69.2704C68.4803 26.4545 67.7225 26.1407 67.1637 25.5822C66.605 25.0236 66.2911 24.266 66.2911 23.4761V23.5293ZM78.705 24.1321C78.8126 23.5777 79.0757 23.0653 79.4635 22.6547C79.8513 22.244 80.3479 21.9521 80.8954 21.8129C81.4429 21.6737 82.0187 21.6929 82.5556 21.8684C83.0926 22.0439 83.5685 22.3683 83.928 22.804C84.2875 23.2396 84.5157 23.7684 84.586 24.3288C84.6563 24.8891 84.5658 25.4579 84.3251 25.9688C84.0843 26.4796 83.7032 26.9116 83.2263 27.2142C82.7493 27.5168 82.1961 27.6776 81.6312 27.6778H81.0637C80.6636 27.6107 80.2814 27.4626 79.9405 27.2425C79.5997 27.0225 79.3074 26.7352 79.0816 26.3982C78.8557 26.0612 78.7011 25.6817 78.6272 25.2829C78.5533 24.8841 78.5617 24.4744 78.6518 24.0789L78.705 24.1321ZM32.2237 34.8225C31.8174 34.1494 31.6938 33.343 31.8798 32.5791C32.0658 31.8153 32.5464 31.156 33.2168 30.7449C33.8882 30.3619 34.6823 30.2548 35.4313 30.4462C36.1803 30.6377 36.8255 31.1127 37.2307 31.7708C37.6358 32.429 37.7692 33.2189 37.6027 33.9736C37.4361 34.7283 36.9826 35.3887 36.338 35.8153C35.8763 36.1066 35.3411 36.2603 34.7951 36.2585C34.2788 36.2625 33.7703 36.1322 33.3195 35.8804C32.8687 35.6287 32.491 35.2641 32.2237 34.8225ZM125.382 61.3092C125.129 60.7797 125.039 60.1875 125.123 59.607C125.206 59.0264 125.459 58.4834 125.849 58.0459C126.24 57.6085 126.751 57.296 127.319 57.1478C127.886 56.9996 128.485 57.0222 129.04 57.2128C129.595 57.4034 130.081 57.7534 130.438 58.2191C130.794 58.6848 131.005 59.2453 131.045 59.8305C131.084 60.4156 130.949 60.9993 130.658 61.5084C130.367 62.0175 129.932 62.4292 129.407 62.6921C128.982 62.8789 128.523 62.9755 128.059 62.9757C127.501 62.9805 126.953 62.8264 126.478 62.5313C126.004 62.2362 125.624 61.8124 125.382 61.3092V61.3092ZM111.584 42.9423C111.153 42.5435 110.849 42.0261 110.711 41.4553C110.573 40.8844 110.607 40.2855 110.809 39.7338C111.01 39.1822 111.371 38.7024 111.844 38.3549C112.318 38.0073 112.884 37.8075 113.47 37.7805C114.057 37.7535 114.639 37.9005 115.142 38.2031C115.646 38.5057 116.049 38.9504 116.3 39.4812C116.552 40.012 116.64 40.6052 116.555 41.1864C116.47 41.7675 116.216 42.3105 115.823 42.7472C115.541 43.0535 115.198 43.2971 114.816 43.462C114.434 43.627 114.022 43.7096 113.606 43.7046C112.861 43.7106 112.14 43.4388 111.584 42.9423V42.9423ZM131.606 68.4362C131.981 68.3303 132.373 68.2992 132.76 68.3448C133.147 68.3903 133.521 68.5117 133.862 68.7018C134.202 68.892 134.501 69.1472 134.742 69.453C134.984 69.7587 135.162 70.109 135.268 70.4839C135.374 70.8587 135.405 71.2507 135.36 71.6376C135.314 72.0244 135.193 72.3985 135.003 72.7384C134.812 73.0784 134.557 73.3776 134.251 73.6189C133.945 73.8602 133.595 74.0389 133.22 74.1448C132.958 74.2342 132.681 74.2762 132.404 74.2689C131.76 74.2561 131.137 74.0375 130.627 73.6451C130.116 73.2527 129.745 72.7071 129.567 72.0883C129.456 71.7147 129.422 71.3227 129.465 70.9355C129.508 70.5483 129.628 70.1735 129.818 69.8333C130.008 69.4931 130.264 69.1943 130.571 68.9544C130.878 68.7145 131.23 68.5383 131.606 68.4362V68.4362ZM42.811 28.9543C42.6121 28.4024 42.5807 27.804 42.7206 27.2343C42.8606 26.6645 43.1658 26.1488 43.5979 25.7519C44.03 25.3549 44.5697 25.0943 45.1494 25.0028C45.729 24.9113 46.3228 24.993 46.8562 25.2376C47.3896 25.4822 47.8389 25.8788 48.1476 26.3777C48.4564 26.8766 48.6109 27.4556 48.5917 28.0419C48.5726 28.6283 48.3807 29.1959 48.0401 29.6736C47.6994 30.1513 47.2253 30.5178 46.677 30.7272C46.3419 30.874 45.9789 30.9466 45.613 30.9399C44.9993 30.9334 44.4022 30.7398 43.9015 30.385C43.4008 30.0302 43.0203 29.531 42.811 28.9543ZM119.37 51.4875C119.129 51.1783 118.953 50.8242 118.852 50.446C118.75 50.0678 118.725 49.6732 118.778 49.2852C118.83 48.8972 118.96 48.5236 119.159 48.1864C119.358 47.8492 119.623 47.555 119.937 47.3213C120.244 47.0414 120.607 46.829 121.001 46.6976C121.396 46.5662 121.813 46.5188 122.227 46.5585C122.641 46.5981 123.042 46.7239 123.404 46.9277C123.767 47.1315 124.082 47.4089 124.331 47.742C124.58 48.0751 124.756 48.4565 124.848 48.8617C124.94 49.2669 124.947 49.687 124.867 50.0949C124.787 50.5027 124.623 50.8894 124.385 51.23C124.147 51.5706 123.84 51.8576 123.484 52.0726C122.979 52.4709 122.353 52.6837 121.711 52.6753C121.25 52.6733 120.796 52.5651 120.383 52.3591C119.971 52.153 119.612 51.8548 119.334 51.4875H119.37ZM123.856 130.451C123.578 130.817 123.219 131.114 122.806 131.317C122.394 131.52 121.94 131.624 121.48 131.621C120.838 131.627 120.212 131.414 119.707 131.019C119.237 130.663 118.883 130.175 118.69 129.618C118.497 129.061 118.474 128.459 118.624 127.889C118.773 127.319 119.089 126.806 119.53 126.415C119.972 126.024 120.519 125.773 121.104 125.693C121.688 125.614 122.283 125.709 122.813 125.968C123.343 126.227 123.784 126.637 124.08 127.146C124.377 127.656 124.516 128.242 124.479 128.83C124.442 129.418 124.232 129.983 123.874 130.451H123.856ZM115.521 135.557C115.801 135.846 116.02 136.188 116.165 136.563C116.31 136.939 116.378 137.339 116.365 137.741C116.352 138.143 116.258 138.539 116.088 138.904C115.919 139.268 115.678 139.596 115.379 139.865C114.834 140.353 114.125 140.619 113.393 140.61C112.978 140.611 112.567 140.526 112.185 140.361C111.804 140.197 111.461 139.955 111.176 139.653C110.645 139.067 110.368 138.295 110.406 137.505C110.444 136.715 110.795 135.973 111.38 135.442C111.966 134.911 112.739 134.634 113.529 134.672C114.318 134.71 115.061 135.06 115.592 135.646L115.521 135.557ZM130.542 119.725C130.299 120.223 129.92 120.641 129.449 120.933C128.979 121.224 128.436 121.377 127.882 121.374C127.411 121.378 126.948 121.262 126.534 121.037C126.009 120.771 125.575 120.354 125.286 119.841C124.997 119.328 124.868 118.741 124.913 118.153C124.958 117.566 125.176 117.006 125.54 116.543C125.903 116.079 126.396 115.734 126.956 115.551C127.516 115.368 128.117 115.355 128.685 115.513C129.252 115.672 129.76 115.995 130.143 116.441C130.527 116.888 130.77 117.438 130.841 118.023C130.912 118.607 130.808 119.2 130.542 119.725V119.725ZM72.1079 154.562C72.115 154.956 72.0437 155.348 71.8982 155.714C71.7528 156.081 71.536 156.415 71.2605 156.697C70.9851 156.979 70.6563 157.203 70.2934 157.357C69.9305 157.511 69.5406 157.592 69.1463 157.594C68.3561 157.594 67.5983 157.28 67.0396 156.722C66.4808 156.163 66.167 155.406 66.167 154.616C66.167 153.826 66.4808 153.068 67.0396 152.51C67.5983 151.951 68.3561 151.637 69.1463 151.637C69.5329 151.635 69.9162 151.709 70.2742 151.854C70.6323 152 70.9581 152.215 71.2331 152.487C71.5082 152.758 71.727 153.081 71.8771 153.438C72.0271 153.794 72.1056 154.176 72.1079 154.562V154.562ZM101.458 31.8441C101.664 31.51 101.935 31.2203 102.255 30.9918C102.574 30.7633 102.936 30.6006 103.318 30.5132C103.701 30.4257 104.098 30.4153 104.485 30.4825C104.872 30.5496 105.241 30.6931 105.572 30.9044C106.24 31.3276 106.713 31.9972 106.889 32.7676C107.065 33.5379 106.93 34.3466 106.512 35.0175C106.24 35.444 105.865 35.7955 105.422 36.0401C104.979 36.2848 104.482 36.4147 103.976 36.4181C103.421 36.4127 102.879 36.2465 102.416 35.9394C102.082 35.7346 101.793 35.4658 101.564 35.1486C101.336 34.8314 101.172 34.472 101.083 34.0913C100.994 33.7105 100.981 33.3159 101.046 32.9302C101.11 32.5445 101.25 32.1753 101.458 31.8441V31.8441ZM19.2599 126.64C19.4979 126.95 19.6721 127.304 19.7724 127.682C19.8727 128.06 19.8972 128.454 19.8445 128.841C19.7917 129.228 19.6627 129.601 19.465 129.939C19.2673 130.276 19.0047 130.571 18.6924 130.806C18.3811 131.043 18.0258 131.216 17.6472 131.315C17.2686 131.414 16.8742 131.436 16.4866 131.382C16.0991 131.328 15.7262 131.197 15.3895 130.998C15.0528 130.798 14.7589 130.534 14.5249 130.221C14.269 129.912 14.0785 129.554 13.965 129.17C13.8515 128.785 13.8173 128.382 13.8645 127.983C13.9118 127.585 14.0394 127.201 14.2398 126.853C14.4401 126.506 14.709 126.203 15.03 125.962C15.351 125.722 15.7176 125.549 16.1074 125.455C16.4972 125.36 16.9022 125.346 17.2978 125.413C17.6933 125.479 18.0712 125.625 18.4085 125.842C18.7458 126.06 19.0354 126.343 19.2599 126.675V126.64ZM7.91003 58.4194C8.26733 57.7185 8.88607 57.1862 9.63263 56.9374C10.3792 56.6886 11.1937 56.7433 11.9002 57.0898C12.5062 57.3852 12.9941 57.8774 13.284 58.486C13.574 59.0945 13.6489 59.7833 13.4966 60.4399C13.3442 61.0965 12.9736 61.682 12.4452 62.1007C11.9169 62.5195 11.2621 62.7467 10.5879 62.7453C10.1249 62.7342 9.67028 62.6191 9.25783 62.4084C8.55355 62.0543 8.01718 61.4371 7.7649 60.6905C7.51263 59.9439 7.56477 59.1279 7.91003 58.4194V58.4194ZM13.2303 116.924C13.406 117.274 13.5106 117.656 13.5379 118.046C13.5652 118.437 13.5147 118.829 13.3893 119.2C13.264 119.571 13.0663 119.913 12.8076 120.208C12.549 120.502 12.2345 120.741 11.8825 120.913C11.4753 121.117 11.0254 121.22 10.5702 121.215C10.0439 121.214 9.52733 121.074 9.07287 120.808C8.61842 120.543 8.24234 120.162 7.9829 119.705C7.72345 119.247 7.58989 118.729 7.5958 118.203C7.60172 117.677 7.74689 117.162 8.01656 116.71C8.28623 116.258 8.67077 115.886 9.13107 115.631C9.59137 115.376 10.111 115.247 10.6371 115.258C11.1632 115.269 11.677 115.419 12.1263 115.693C12.5756 115.967 12.9442 116.355 13.1948 116.818L13.2303 116.924ZM3.35234 70.2268C3.60201 69.5124 4.11435 68.9197 4.78529 68.5693C5.45623 68.2188 6.23545 68.1369 6.96468 68.34C7.6939 68.5431 8.31843 69.0161 8.71141 69.6629C9.1044 70.3097 9.23636 71.0818 9.08049 71.8224C8.90336 72.4484 8.52723 72.9997 8.00892 73.3931C7.49062 73.7866 6.85831 74.0006 6.20755 74.003C5.92512 74.0028 5.64426 73.961 5.37404 73.8789C5.0008 73.7728 4.65223 73.594 4.34837 73.3527C4.04451 73.1115 3.79135 72.8126 3.60347 72.4731C3.41558 72.1337 3.29667 71.7605 3.25357 71.375C3.21047 70.9895 3.24404 70.5993 3.35234 70.2268ZM27.0453 135.185C27.4829 135.592 27.788 136.121 27.9208 136.704C28.0536 137.286 28.008 137.896 27.79 138.452C27.5719 139.008 27.1915 139.486 26.6981 139.824C26.2048 140.161 25.6213 140.342 25.0236 140.344C24.6546 140.352 24.2876 140.288 23.9437 140.154C23.5998 140.02 23.2858 139.819 23.0196 139.564C22.7283 139.302 22.4923 138.984 22.3254 138.63C22.1585 138.276 22.064 137.892 22.0475 137.5C22.031 137.109 22.0928 136.718 22.2292 136.351C22.3657 135.984 22.5741 135.648 22.8422 135.362C23.3767 134.783 24.1193 134.439 24.9071 134.405C25.6949 134.372 26.4638 134.652 27.0453 135.185V135.185ZM106.193 143.269C106.478 143.718 106.637 144.235 106.651 144.767C106.666 145.298 106.536 145.823 106.276 146.287C106.016 146.751 105.635 147.135 105.174 147.4C104.713 147.664 104.189 147.799 103.657 147.79C103.16 147.788 102.673 147.658 102.241 147.413C101.809 147.167 101.448 146.815 101.192 146.389C100.984 146.057 100.843 145.686 100.779 145.299C100.714 144.912 100.727 144.516 100.816 144.134C100.905 143.752 101.068 143.391 101.297 143.072C101.526 142.753 101.816 142.483 102.15 142.276C102.822 141.89 103.617 141.778 104.37 141.963C105.123 142.148 105.776 142.616 106.193 143.269V143.269ZM34.6355 147.666C34.0895 147.668 33.5543 147.514 33.0926 147.223C32.4258 146.799 31.9518 146.131 31.7727 145.362C31.5936 144.593 31.7237 143.784 32.135 143.11C32.5792 142.501 33.238 142.083 33.9783 141.94C34.7187 141.797 35.4856 141.941 36.1244 142.341C36.7633 142.741 37.2266 143.369 37.4209 144.097C37.6152 144.825 37.5261 145.6 37.1715 146.265C36.9081 146.7 36.5353 147.058 36.0904 147.304C35.6454 147.55 35.1438 147.674 34.6355 147.666V147.666ZM135.153 107.954C134.973 108.572 134.597 109.115 134.083 109.501C133.568 109.888 132.942 110.098 132.298 110.099C132.015 110.101 131.734 110.059 131.464 109.975C131.089 109.868 130.738 109.689 130.432 109.447C130.126 109.205 129.871 108.905 129.682 108.564C129.492 108.222 129.372 107.847 129.328 107.46C129.284 107.072 129.317 106.68 129.425 106.305C129.533 105.929 129.715 105.578 129.959 105.272C130.202 104.966 130.504 104.711 130.847 104.522C131.189 104.332 131.566 104.212 131.955 104.168C132.344 104.125 132.738 104.158 133.114 104.266C133.49 104.374 133.841 104.555 134.147 104.799C134.453 105.043 134.708 105.345 134.897 105.688C135.087 106.03 135.207 106.406 135.251 106.795C135.295 107.184 135.261 107.578 135.153 107.954ZM137.512 95.5434C137.437 96.2834 137.092 96.9697 136.542 97.4704C135.992 97.9711 135.276 98.2509 134.532 98.2559C134.445 98.2731 134.354 98.2731 134.266 98.2559C133.681 98.2013 133.124 97.9746 132.667 97.6043C132.21 97.234 131.873 96.7368 131.698 96.1753C131.524 95.6138 131.519 95.0131 131.685 94.449C131.851 93.8849 132.181 93.3826 132.632 93.0054C133.083 92.6282 133.636 92.393 134.221 92.3294C134.806 92.2658 135.396 92.3768 135.918 92.6482C136.44 92.9196 136.87 93.3394 137.153 93.8546C137.437 94.3699 137.562 94.9575 137.512 95.5434V95.5434ZM134.32 80.2081C134.71 80.1716 135.104 80.2131 135.479 80.3301C135.853 80.4471 136.2 80.6373 136.501 80.8897C136.801 81.142 137.048 81.4515 137.228 81.8001C137.407 82.1488 137.516 82.5296 137.547 82.9206C137.612 83.7008 137.371 84.4758 136.874 85.0813C136.378 85.6869 135.665 86.0755 134.887 86.1649H134.621C133.831 86.1978 133.06 85.9156 132.478 85.3803C131.896 84.845 131.55 84.1005 131.518 83.3106C131.485 82.5207 131.767 81.75 132.302 81.1682C132.838 80.5863 133.583 80.241 134.373 80.2081H134.32ZM6.98785 109.726C6.72763 109.797 6.45933 109.832 6.18981 109.833C5.43927 109.83 4.71781 109.542 4.17126 109.028C3.62471 108.514 3.29385 107.811 3.24557 107.063C3.19728 106.314 3.43517 105.575 3.91114 104.995C4.38711 104.414 5.06567 104.037 5.80963 103.937C6.55359 103.838 7.30747 104.025 7.91886 104.46C8.53025 104.896 8.95356 105.547 9.1032 106.282C9.25284 107.017 9.11766 107.782 8.72499 108.421C8.33231 109.061 7.71143 109.527 6.98785 109.726V109.726ZM1.02915 82.6369C1.1056 81.8508 1.48945 81.1266 2.09721 80.622C2.70497 80.1173 3.48748 79.873 4.27452 79.9421C5.06469 79.9774 5.80848 80.325 6.34228 80.9085C6.87607 81.492 7.15613 82.2636 7.12086 83.0535C7.08558 83.8435 6.73786 84.587 6.15418 85.1207C5.5705 85.6543 4.79868 85.9343 4.0085 85.899C3.90875 85.9162 3.80678 85.9162 3.70702 85.899C3.31577 85.8636 2.93548 85.7507 2.58829 85.5669C2.2411 85.3831 1.93395 85.1322 1.68474 84.8286C1.43552 84.525 1.24921 84.1749 1.13666 83.7986C1.02411 83.4223 0.987563 83.0274 1.02915 82.6369V82.6369ZM3.97304 97.9545C3.23577 97.9467 2.52662 97.6705 1.97826 97.1778C1.42989 96.6851 1.07988 96.0095 0.993685 95.2775C0.914198 94.4905 1.14927 93.704 1.64761 93.0895C2.14595 92.4751 2.86713 92.0826 3.65382 91.9977C4.05502 91.9369 4.46443 91.9586 4.85693 92.0616C5.24943 92.1646 5.61674 92.3466 5.93635 92.5966C6.25596 92.8465 6.52112 93.1591 6.71558 93.5152C6.91003 93.8712 7.02968 94.2632 7.06718 94.6672C7.10469 95.0711 7.05925 95.4784 6.93367 95.8642C6.80808 96.2499 6.605 96.606 6.33687 96.9105C6.06873 97.215 5.74121 97.4615 5.37437 97.6349C5.00754 97.8084 4.60913 97.9051 4.20358 97.9191L3.97304 97.9545ZM22.9309 42.57C22.6628 42.2844 22.4544 41.9482 22.3179 41.581C22.1814 41.2139 22.1196 40.8232 22.1362 40.4318C22.1527 40.0405 22.2472 39.6564 22.4141 39.3021C22.581 38.9477 22.817 38.6302 23.1083 38.3682C23.6956 37.8336 24.4703 37.5524 25.264 37.5856C26.0576 37.6188 26.8061 37.9637 27.3467 38.5455C27.875 39.1313 28.1492 39.9027 28.1093 40.6904C28.0694 41.4781 27.7187 42.2178 27.1339 42.7472C26.8677 43.0028 26.5537 43.2033 26.2098 43.3371C25.8659 43.471 25.4989 43.5356 25.13 43.5273C24.7169 43.5299 24.3079 43.446 23.9292 43.2811C23.5504 43.1163 23.2104 42.874 22.9309 42.57V42.57ZM14.5958 47.6758C15.0715 47.0466 15.7773 46.6316 16.5586 46.5219C17.3399 46.4122 18.1328 46.6168 18.7634 47.0908C19.0739 47.323 19.3354 47.6143 19.533 47.9479C19.7306 48.2814 19.8603 48.6508 19.9147 49.0346C19.9691 49.4184 19.9471 49.8092 19.8499 50.1846C19.7528 50.5599 19.5824 50.9123 19.3486 51.2216C19.0714 51.5899 18.7126 51.8889 18.3002 52.095C17.8878 52.3011 17.4333 52.4087 16.9722 52.4094C16.3344 52.4045 15.7142 52.1999 15.1988 51.8244C14.5756 51.3491 14.1634 50.6486 14.0507 49.8731C13.938 49.0976 14.1337 48.3088 14.5958 47.6758Z" fill="white"/>
</g>
</g>
</g>
<defs>
<filter id="filter0_d_1262_6978" x="92.624" y="0.937897" width="167.366" height="164.811" filterUnits="userSpaceOnUse" color-interpolation-filters="sRGB">
<feFlood flood-opacity="0" result="BackgroundImageFix"/>
<feColorMatrix in="SourceAlpha" type="matrix" values="0 0 0 0 0 0 0 0 0 0 0 0 0 0 0 0 0 0 127 0" result="hardAlpha"/>
<feOffset dy="4"/>
<feGaussianBlur stdDeviation="2"/>
<feComposite in2="hardAlpha" operator="out"/>
<feColorMatrix type="matrix" values="0 0 0 0 0 0 0 0 0 0 0 0 0 0 0 0 0 0 0.25 0"/>
<feBlend mode="normal" in2="BackgroundImageFix" result="effect1_dropShadow_1262_6978"/>
<feBlend mode="normal" in="SourceGraphic" in2="effect1_dropShadow_1262_6978" result="shape"/>
</filter>
<filter id="filter1_d_1262_6978" x="-3.02148" y="20.4977" width="144.579" height="151" filterUnits="userSpaceOnUse" color-interpolation-filters="sRGB">
<feFlood flood-opacity="0" result="BackgroundImageFix"/>
<feColorMatrix in="SourceAlpha" type="matrix" values="0 0 0 0 0 0 0 0 0 0 0 0 0 0 0 0 0 0 127 0" result="hardAlpha"/>
<feOffset dy="4"/>
<feGaussianBlur stdDeviation="2"/>
<feComposite in2="hardAlpha" operator="out"/>
<feColorMatrix type="matrix" values="0 0 0 0 0 0 0 0 0 0 0 0 0 0 0 0 0 0 0.25 0"/>
<feBlend mode="normal" in2="BackgroundImageFix" result="effect1_dropShadow_1262_6978"/>
<feBlend mode="normal" in="SourceGraphic" in2="effect1_dropShadow_1262_6978" result="shape"/>
</filter>
</defs>
</svg>
