<svg width="232" height="174" viewBox="0 0 232 174" fill="none" xmlns="http://www.w3.org/2000/svg">
<g opacity="0.48" filter="url(#filter0_d_2302_10443)">
<path d="M89.7455 48.5862C89.7455 64.7248 72.8285 77.115 53.3829 79.0189C28.9197 81.4087 18.002 65.9345 18.002 49.7959C18.002 33.6573 33.8678 20.5779 53.3829 20.5779C72.8979 20.5779 89.7455 32.4278 89.7455 48.5862Z" fill="white"/>
<path d="M40.095 78.9991C40.095 78.9991 24.0159 74.5963 29.2368 59.6625C29.2368 59.6625 31.22 55.8845 36.7979 54.9226C42.3757 53.9607 44.9738 47.7086 44.9738 47.7086C44.9738 47.7086 46.005 43.3802 49.9864 43.7421C53.9677 44.104 53.7694 41.8332 53.7694 41.8332C53.7694 41.8332 54.5925 38.9675 57.8896 40.0483C61.1867 41.1292 67.8553 41.5358 72.268 38.0651C76.6807 34.5944 82.7841 37.5693 82.7841 37.5693C82.7841 37.5693 95.8983 47.6937 83.9443 64.5512C83.9443 64.5512 91.5699 57.6099 91.917 48.492C92.264 39.3741 89.2495 28.967 71.6582 16.9486L66.4968 14.3456L58.3904 5.60944L52.3911 4.78638L49.8525 13.1011L47.6511 19.9681C47.6511 19.9681 42.5691 18.9368 38.791 22.7198C35.013 26.5028 34.4577 25.1989 34.4577 25.1989C34.4577 25.1989 27.2288 20.3251 25.2108 20.2408C23.1929 20.1565 19.8263 19.7896 19.8263 19.7896L19.3305 38.1345C19.3305 38.1345 16.3061 56.4398 19.3305 63.3315C22.355 70.2233 27.6502 78.3843 40.095 78.9991Z" fill="#EFEFEF"/>
<path d="M44.8402 77.5216C44.8844 77.5202 44.9283 77.5289 44.9687 77.5469C45.0091 77.565 45.0448 77.5919 45.0733 77.6257C45.5668 77.9625 45.9361 78.452 46.1244 79.019C46.3128 79.6387 46.1244 80.442 45.0435 81.2551C44.9421 81.32 44.8319 81.37 44.7163 81.4038C42.4557 81.32 40.2065 81.043 37.9931 80.5758C34.4833 79.8641 31.1135 78.5829 28.0174 76.7829C24.8564 74.9207 22.1619 72.3619 20.139 69.3011C19.8812 68.9218 19.6429 68.5297 19.4251 68.1261C19.1867 67.74 18.9699 67.3411 18.7756 66.9312C18.5772 66.5196 18.3789 66.1131 18.1905 65.6966L17.6947 64.4223C17.5287 64.0021 17.3847 63.5735 17.2633 63.1382C17.1394 62.7019 16.9807 62.2755 16.8816 61.8342L16.5841 60.5154L16.5196 60.2328V60.2625V60.2923L16.4502 60.1039C16.4105 59.9601 16.361 59.7915 16.3362 59.6675L16.2469 59.2709C16.09 58.3528 15.9939 57.4252 15.9594 56.4944L15.9346 55.825V55.1656C15.9346 54.7293 15.9346 54.288 15.9346 53.8567C15.9346 52.1164 16.0585 50.386 16.1874 48.7002V48.5118V48.3284C16.4552 45.1156 16.8221 41.9275 17.2683 38.7593L17.3526 38.1643V38.09V38.0503V37.9462L17.298 36.7215C17.2633 35.9133 17.2435 35.1052 17.2286 34.292C17.2055 32.6757 17.2253 31.0544 17.2881 29.4282C17.3509 27.8019 17.4798 26.1674 17.6749 24.5246C17.7294 24.1131 17.779 23.7016 17.8385 23.29L18.0566 22.0456C18.126 21.634 18.2351 21.2126 18.3293 20.7961C18.3891 20.4772 18.4804 20.1649 18.602 19.864L19.0036 18.8129L19.2069 18.3171L19.3061 18.0543L19.3557 17.9204C19.3557 17.9204 19.3557 17.8758 19.3557 17.861H19.4251C19.792 17.8015 20.1341 17.7221 20.5109 17.6874C20.8888 17.6373 21.2706 17.6224 21.6512 17.6428C21.8477 17.6306 22.0448 17.6306 22.2413 17.6428L22.7371 17.6973C23.6287 17.8201 24.5091 18.0141 25.3698 18.2774C27.0028 18.7865 28.5834 19.4506 30.0899 20.2607L30.6452 20.5482L31.1906 20.8606C31.5476 21.0688 31.9145 21.2721 32.2715 21.4853L33.3176 22.1497L33.8432 22.4819L34.339 22.8289L34.3985 22.8736L35.1819 22.3778C35.5389 22.1646 35.8958 21.9414 36.2578 21.7382C39.1713 20.0083 42.3385 18.7469 45.6434 17.9998L46.7937 17.7965L46.8879 17.0924C47.111 15.4711 47.3837 13.8598 47.7556 12.2434C48.113 10.5918 48.5988 8.97052 49.2083 7.3944C49.5501 6.5325 49.9683 5.70285 50.4577 4.91536C50.5916 4.71208 50.7106 4.50881 50.8693 4.30552L50.9833 4.15679C51.0329 4.08242 51.0874 4.013 51.1469 3.93863C51.2758 3.78989 51.4147 3.65603 51.5485 3.51224C51.6752 3.365 51.8109 3.22588 51.9551 3.09575L52.4013 2.74371C52.6938 2.50573 53.0062 2.28263 53.3136 2.0496L53.3731 2C53.3731 2 53.4227 2 53.4475 2L53.5962 2.05949L53.8987 2.17851L54.5035 2.42146C54.9052 2.57516 55.3117 2.7586 55.7133 2.94701C56.1149 3.13542 56.5612 3.34862 56.9727 3.56677C57.8007 3.98821 58.6039 4.45427 59.4021 4.93025C60.9906 5.8972 62.5083 6.97583 63.9437 8.15797C65.3895 9.35237 66.7389 10.6587 67.9796 12.0649L68.7977 13.0566L69.3927 13.3739C70.2009 13.8151 70.9892 14.2713 71.7726 14.7473C75.1225 16.777 78.2762 19.1141 81.1929 21.7283C84.1572 24.3537 86.7673 27.3538 88.9573 30.6528C90.1288 32.4348 91.1251 34.3261 91.9322 36.3001C92.3354 37.2981 92.683 38.3177 92.9734 39.3543C93.0973 39.8848 93.2609 40.4054 93.3551 40.9409L93.5039 41.7441C93.5535 42.0118 93.603 42.2845 93.6278 42.5522C93.9163 44.7184 93.9047 46.9141 93.5931 49.0771C93.4445 50.1492 93.2276 51.2107 92.9436 52.2552C92.8048 52.751 92.6362 53.2915 92.4776 53.8021L92.3734 54.0947C91.9761 55.2307 91.5143 56.3431 90.9901 57.4265L90.4547 58.3289C90.1076 58.8891 89.6019 59.6527 88.9672 60.4956C88.3326 61.3384 87.5889 62.2458 86.7906 63.1135C86.012 63.955 85.1842 64.7497 84.3116 65.4933C83.4171 66.3347 82.4171 67.0564 81.3367 67.6402C80.7021 67.9377 80.4393 67.8782 80.4641 67.6402C80.4939 67.1444 81.5747 65.7214 82.7994 63.9811C82.6209 64.1249 84.1926 62.1267 85.4668 59.9105C86.1114 58.8098 86.6816 57.6645 87.0832 56.7968L87.5393 55.7358L87.693 55.3292L87.9756 54.7194L88.2285 54.0996C88.407 53.6881 88.5507 53.2666 88.7243 52.8502L88.8135 52.5923C88.9474 52.1511 89.0961 51.7098 89.2151 51.2636C89.4558 50.3735 89.6412 49.4694 89.7704 48.5564C90.0252 46.748 90.0335 44.9133 89.7952 43.1026C89.7755 42.8758 89.7407 42.6505 89.6911 42.4283L89.5672 41.754C89.4878 41.3028 89.349 40.8665 89.2449 40.4203C88.9964 39.5246 88.6968 38.6439 88.3475 37.7826C87.6414 36.0386 86.7663 34.368 85.7346 32.7947C83.7277 29.7752 81.3378 27.0287 78.6247 24.6238C75.8899 22.171 72.9338 19.9768 69.7943 18.0692C69.0605 17.623 68.3234 17.1982 67.583 16.795L67.0029 16.4876L66.4079 16.1851C66.3534 16.1851 66.3286 16.1157 66.2889 16.076L66.1848 15.9471L65.9667 15.6843L65.099 14.6283C63.998 13.3799 62.8011 12.2194 61.5192 11.1576C60.2171 10.0949 58.8401 9.12719 57.3991 8.26207C56.6752 7.83072 55.9513 7.40928 55.2026 7.02751C54.8357 6.83414 54.4589 6.65566 54.0871 6.47717L54.0226 6.56641C53.9321 6.68771 53.8477 6.81348 53.7698 6.94323C53.4157 7.52458 53.1153 8.13695 52.8723 8.77277C52.3407 10.1578 51.9164 11.5816 51.6031 13.0318C51.2709 14.5192 51.0081 16.0066 50.7949 17.5535L50.7205 18.1237L50.6561 18.6195L50.5966 19.1897C50.5519 19.5864 50.5172 19.988 50.4825 20.3896L50.428 20.9895V21.1382V21.2126H50.3933L50.0958 21.2423L47.7209 21.4853H47.6465H47.6118H47.5176H47.4531L47.3193 21.5101L47.0565 21.5547L46.526 21.6489C43.6312 22.3118 40.8576 23.4226 38.3055 24.9411C37.9782 25.1245 37.6609 25.3278 37.3139 25.5212L36.818 25.8236L36.5701 25.9872L36.0743 26.3145C35.7471 26.5376 35.4248 26.8103 35.0827 27.0185L34.5869 27.3805C34.5423 27.3805 34.5026 27.4449 34.463 27.4648L34.344 27.3805L34.0961 27.2119L32.1921 25.903L31.6963 25.5757L31.2005 25.2733L30.3081 24.7874C29.9858 24.594 29.6536 24.4106 29.3165 24.2222L28.8206 23.9395L28.3248 23.6817C27.0337 22.9869 25.6789 22.4174 24.279 21.9811C23.6228 21.7775 22.9513 21.6266 22.271 21.5299H22.1619L22.1223 21.7183C22.0429 22.0753 21.9487 22.4224 21.8892 22.7893L21.6959 23.8949C21.6413 24.2668 21.5967 24.6436 21.5471 25.0155C21.3637 26.5029 21.2397 28.0548 21.1852 29.6017C21.1306 31.1486 21.1108 32.6956 21.1306 34.2524C21.1306 35.0259 21.1604 35.8043 21.1951 36.5777L21.2496 37.733C21.2496 37.7825 21.2744 38.0404 21.2744 38.2288L21.21 38.7246L21.1306 39.3096C20.6877 42.4266 20.3357 45.542 20.0746 48.6556V48.8341V49.0176C19.9506 50.6587 19.8515 52.3048 19.8366 53.9261C19.8366 54.3327 19.8366 54.7392 19.8366 55.1358V55.7408L19.8614 56.3308C19.8853 57.0787 19.9598 57.8241 20.0845 58.5619L20.1341 58.785C20.1341 58.8643 20.1638 58.8941 20.1787 58.9536C20.1618 58.9249 20.1469 58.895 20.1341 58.8643L20.1589 58.9189C20.1715 58.9384 20.1799 58.9604 20.1837 58.9833C20.1837 59.018 20.1837 59.0676 20.1837 59.0924L20.2332 59.2412L20.258 59.3155V59.3502V59.4196L20.3374 59.7519L20.5952 60.8922C20.6795 61.2739 20.8133 61.6359 20.9224 62.0077C21.0238 62.3813 21.1463 62.7488 21.2893 63.1085L21.7058 64.1844L22.2016 65.2256C22.3644 65.5663 22.5465 65.8973 22.747 66.2172C22.9265 66.5587 23.1251 66.8897 23.342 67.2088C25.0409 69.7784 27.305 71.9254 29.961 73.4857C32.6906 75.0659 35.6599 76.1897 38.7517 76.8127C40.7571 77.2234 42.7941 77.4606 44.8402 77.5216V77.5216Z" fill="#B2B2B2"/>
<path d="M22.7811 26.1558C22.7811 26.1558 22.3646 32.7501 23.3265 35.2242C24.2694 33.504 25.8478 32.221 27.7243 31.6494L22.7811 26.1558Z" fill="#CCCCCC"/>
<path d="M58.0985 18.3418C58.0985 18.3418 62.065 16.8296 63.8697 16.6908C63.8697 16.6908 59.0604 11.1922 57.2705 11.3311L58.0985 18.3418Z" fill="#CCCCCC"/>
<path d="M37.9535 42.4382C39.068 42.4382 39.9714 41.5347 39.9714 40.4202C39.9714 39.3057 39.068 38.4023 37.9535 38.4023C36.839 38.4023 35.9355 39.3057 35.9355 40.4202C35.9355 41.5347 36.839 42.4382 37.9535 42.4382Z" fill="white"/>
<path d="M57.7709 33.1566C58.8854 33.1566 59.7888 32.2531 59.7888 31.1387C59.7888 30.0242 58.8854 29.1207 57.7709 29.1207C56.6564 29.1207 55.7529 30.0242 55.7529 31.1387C55.7529 32.2531 56.6564 33.1566 57.7709 33.1566Z" fill="white"/>
<path d="M34.0529 60.5567C36.7832 59.3107 38.3901 56.9719 37.6421 55.3327C36.894 53.6936 34.0743 53.3748 31.344 54.6208C28.6137 55.8668 27.0068 58.2057 27.7549 59.8448C28.5029 61.484 31.3226 61.8027 34.0529 60.5567Z" fill="#CCCCCC"/>
<path d="M76.0978 41.3722C78.8281 40.1262 80.435 37.7873 79.687 36.1482C78.9389 34.509 76.1192 34.1903 73.3889 35.4363C70.6586 36.6822 69.0517 39.0211 69.7998 40.6603C70.5478 42.2995 73.3676 42.6182 76.0978 41.3722Z" fill="#CCCCCC"/>
<path d="M43.1051 81.2799C43.0567 81.2819 43.0085 81.2732 42.9639 81.2543C42.9193 81.2355 42.8795 81.2069 42.8473 81.1708C42.3199 80.8293 41.9464 80.2958 41.8061 79.6834C41.7119 79.0339 41.9945 78.305 43.0208 77.5316C43.1131 77.4718 43.2132 77.4251 43.3183 77.3927C45.3944 77.4993 47.4745 77.4993 49.5506 77.3927C56.2093 77.0605 62.8532 75.7814 68.9119 73.1932L70.4737 72.4892L72.0058 71.7157L72.2289 71.6116L72.8586 71.3191L73.8155 70.8728L74.9955 70.263C75.4269 70.0548 75.8582 69.7672 76.3193 69.5292L77.0234 69.1325C77.2564 68.9937 77.4845 68.8401 77.7175 68.6963L78.4166 68.255L78.7686 68.0418L79.1058 67.8088C79.552 67.4964 79.9933 67.1989 80.4197 66.9163C81.089 66.3808 81.6691 65.9594 82.1451 65.6123C82.5 65.3203 82.8726 65.0504 83.2607 64.8041C83.8457 64.4472 84.1134 64.4373 84.1382 64.7C84.0524 65.2354 83.8455 65.7441 83.5334 66.1875C83.4342 66.3593 83.3251 66.5428 83.2061 66.7378C83.0772 66.9262 82.9334 67.1196 82.7847 67.3179C82.4872 67.7146 82.16 68.1508 81.7931 68.5772C81.4986 68.9766 81.1666 69.3469 80.8014 69.6829C80.4643 70.0498 80.0181 70.4365 79.5421 70.8728C79.3041 71.086 79.0463 71.3141 78.8033 71.5323L78.0001 72.1818C77.7274 72.3999 77.4597 72.6231 77.182 72.8313L76.364 73.4263L75.5905 73.9816L74.8716 74.4427C74.4253 74.7303 74.0584 74.9732 73.7907 75.1368L73.3693 75.3798C72.8735 75.6178 72.4124 75.8756 71.9265 76.0987L70.439 76.7581C68.7973 77.4621 67.1191 78.0778 65.4115 78.6025L64.7719 78.8058L64.1323 78.9843C63.701 79.1033 63.2746 79.2272 62.8432 79.3363C61.9805 79.5495 61.1228 79.7677 60.2502 79.9412C56.7855 80.6637 53.2692 81.1113 49.7341 81.2799C47.5259 81.3937 45.3133 81.3937 43.1051 81.2799V81.2799Z" fill="#C30D23"/>
<path d="M41.0372 46.603C42.4105 48.7052 40.8785 50.0737 38.7763 51.452C36.674 52.8304 34.8098 53.6683 33.4314 51.5661C33.0928 51.0668 32.8571 50.5052 32.7379 49.9138C32.6188 49.3225 32.6186 48.7133 32.7375 48.1219C32.8563 47.5305 33.0918 46.9687 33.4301 46.4693C33.7685 45.9699 34.2029 45.5429 34.7081 45.2133C35.2133 44.8836 35.7791 44.6579 36.3725 44.5493C36.9659 44.4407 37.5749 44.4514 38.1641 44.5808C38.7533 44.7102 39.3108 44.9556 39.8041 45.3028C40.2974 45.65 40.7166 46.092 41.0372 46.603V46.603Z" fill="#B2B2B2"/>
<path d="M40.4975 45.4973C40.7652 45.6659 40.7503 46.1667 40.4677 46.6179C40.2157 46.9077 39.8592 47.086 39.4761 47.1137C39.3395 46.7506 39.3502 46.3485 39.5058 45.9932C39.7835 45.5568 40.2297 45.3288 40.4975 45.4973Z" fill="#F7F7F7"/>
<path d="M68.6542 34.6491C69.3979 37.0438 67.5485 37.9511 65.1537 38.6899C62.759 39.4286 60.7212 39.7311 59.9775 37.3314C59.6459 36.1878 59.7767 34.9598 60.3417 33.9117C60.9066 32.8637 61.8606 32.0794 62.9981 31.7277C64.1356 31.376 65.3658 31.4851 66.4236 32.0315C67.4815 32.5779 68.2825 33.5179 68.6542 34.6491V34.6491Z" fill="#B2B2B2"/>
<path d="M68.4311 33.4343C68.6443 33.6723 68.4906 34.1482 68.094 34.5052C67.7689 34.7171 67.3739 34.7937 66.9933 34.7184C66.9614 34.3311 67.0825 33.9467 67.3304 33.6475C67.732 33.2955 68.2229 33.2161 68.4311 33.4343Z" fill="#F7F7F7"/>
<path d="M52.2035 47.3332C54.5973 46.4066 55.9856 44.2288 55.3044 42.4691C54.6233 40.7094 52.1305 40.0341 49.7367 40.9607C47.3429 41.8874 45.9546 44.0651 46.6357 45.8248C47.3169 47.5845 49.8097 48.2598 52.2035 47.3332Z" fill="#B2B2B2"/>
<path d="M55.416 49.8803V49.9051H55.4904L55.416 49.8803Z" fill="#DB2F0E"/>
<path d="M59.3824 51.0653L58.4305 50.7778C55.8473 52.6966 55.7333 59.1668 55.768 61.2988C56.8489 62.0475 58.247 62.2904 59.9278 61.4575C65.2875 58.7999 59.3824 51.0653 59.3824 51.0653Z" fill="#EFEFEF"/>
<path d="M58.4408 50.7926L55.466 49.9001H55.3916L52.4961 55.8796C52.4961 55.8796 53.4877 59.7122 55.7833 61.3335C55.7436 59.1817 55.8577 52.7113 58.4408 50.7926Z" fill="#C6C6C6"/>
<path d="M51.9455 47.7434C51.9455 47.7137 51.9455 47.7037 51.9703 47.6293C52.1966 47.2007 52.5462 46.8497 52.9739 46.6217C53.4017 46.3937 53.888 46.2991 54.37 46.3502C54.4256 46.3527 54.4799 46.3679 54.5287 46.3948L55.5203 48.3136L55.9913 49.216L56.2689 49.7465L56.5317 50.2423L56.7796 50.7381L56.8391 50.872C56.8287 50.918 56.8138 50.9628 56.7945 51.0058L56.6904 51.2786C56.621 51.4603 56.5466 51.6438 56.4673 51.8289L56.3433 52.1016L56.2392 52.3148L56.0905 52.6172C55.8822 53.0238 55.6541 53.4204 55.4013 53.8171C54.8992 54.6253 54.283 55.3567 53.5717 55.9887C52.8691 56.6263 52.0161 57.075 51.0927 57.2927C50.8816 57.336 50.668 57.3658 50.4531 57.3819H50.1705H49.9028C49.627 57.3731 49.3521 57.3466 49.0797 57.3026C48.8405 57.2658 48.6037 57.2145 48.3707 57.1489C48.3707 57.1489 48.2071 57.0894 47.9344 56.9555C47.5528 56.7713 47.1989 56.5343 46.8833 56.2515C46.437 55.8511 46.1079 55.337 45.9313 54.764C45.7768 54.233 45.7768 53.6689 45.9313 53.1378C46.008 52.8337 46.13 52.5428 46.2933 52.2751C46.3939 52.1084 46.5193 51.958 46.6651 51.8289C46.8882 51.6454 47.0469 51.6454 47.1609 51.7545C47.389 51.9727 47.389 52.6569 47.5477 53.2419C47.5477 53.2072 47.5923 53.3807 47.6766 53.5791C47.7586 53.7878 47.9089 53.9626 48.103 54.0749C48.3269 54.2014 48.5723 54.2854 48.8268 54.3228C48.9677 54.3492 49.1101 54.3658 49.2532 54.3724C49.3875 54.4026 49.5232 54.4257 49.6598 54.4418C49.963 54.4877 50.2719 54.4792 50.5721 54.417C51.0173 54.2762 51.4243 54.0353 51.762 53.7129C52.2471 53.2535 52.6689 52.7317 53.0164 52.161C53.2098 51.8586 53.3883 51.5364 53.5519 51.2141L53.6709 50.9712C53.4081 50.4753 53.1751 49.9795 52.952 49.5928L51.9455 47.7434Z" fill="#B2B2B2"/>
<path d="M55.3068 52.4734C55.2771 52.4734 55.2671 52.4734 55.2473 52.3842C55.1332 52.0286 55.1111 51.6499 55.1829 51.2834C55.3043 50.7203 55.5536 50.1927 55.9117 49.7415C55.9433 49.7049 55.98 49.6732 56.0208 49.6473L56.467 49.7563C56.7397 49.8158 57.1215 49.8952 57.5826 49.9596C58.638 50.1416 59.7155 50.1566 60.7756 50.0043C61.2286 49.9349 61.6633 49.7765 62.0548 49.5382C62.3234 49.3714 62.5398 49.1327 62.6795 48.849C62.7762 48.6709 62.8369 48.4755 62.858 48.2739C62.8655 48.2163 62.8655 48.158 62.858 48.1004C62.8732 48.0605 62.8832 48.0188 62.8877 47.9764C62.9076 47.8449 62.9076 47.7112 62.8877 47.5797C62.757 47.0718 62.5297 46.5938 62.2184 46.1717C61.6185 45.4081 61.4102 45.0363 61.6234 44.8082C61.8366 44.5801 62.4712 44.595 63.1654 44.8726C63.7417 45.0771 64.2603 45.4172 64.6776 45.8643C65.0493 46.2361 65.3441 46.6775 65.5453 47.1633C65.6172 47.3403 65.6752 47.5226 65.7188 47.7087L65.7634 47.9219C65.7634 47.9219 65.7634 47.9913 65.7634 48.1153C65.7761 48.2919 65.7761 48.4691 65.7634 48.6457C65.6938 49.2279 65.5102 49.7906 65.223 50.3017C64.8251 51.0101 64.2535 51.6055 63.562 52.0321C62.8475 52.4572 62.0582 52.7417 61.2367 52.87C59.884 53.0653 58.5092 53.0503 57.1611 52.8254C56.5372 52.7411 55.9182 52.6236 55.3068 52.4734V52.4734Z" fill="#B2B2B2"/>
<path d="M149.58 53.3757C148.896 67.8087 163.502 79.6139 180.816 82.1326C202.602 85.3058 213.019 71.9288 213.703 57.4908C214.387 43.0529 200.772 30.6874 183.295 29.8594C165.817 29.0314 150.264 38.9377 149.58 53.3757Z" fill="white"/>
<path d="M192.705 82.6979C192.705 82.6979 207.272 79.4404 203.231 65.88C203.231 65.88 201.61 62.4093 196.672 61.3235C191.733 60.2377 189.666 54.5359 189.666 54.5359C189.666 54.5359 188.927 50.619 185.347 50.7578C181.768 50.8967 182.045 48.8886 182.045 48.8886C182.045 48.8886 181.43 46.2906 178.436 47.1186C175.441 47.9466 169.462 48.0358 165.674 44.7139C161.886 41.392 156.293 43.8413 156.293 43.8413C156.293 43.8413 144.131 52.3444 154.106 67.9277C154.106 67.9277 147.582 61.4128 147.661 53.222C147.74 45.0312 150.874 35.8687 167.121 25.8682L171.846 23.7561L179.467 16.3189L184.852 15.8231L186.77 23.3693L188.446 29.6066C188.446 29.6066 193.037 28.9026 196.26 32.4426C199.483 35.9827 200.028 34.8374 200.028 34.8374C200.028 34.8374 206.697 30.7371 208.507 30.7371C210.316 30.7371 213.341 30.5635 213.341 30.5635L212.999 46.9947C212.999 46.9947 214.927 63.4952 211.928 69.5341C208.928 75.5731 203.856 82.678 192.705 82.6979Z" fill="#EFEFEF"/>
<path d="M188.521 81.1757C188.481 81.1723 188.442 81.1782 188.405 81.1928C188.368 81.2074 188.335 81.2305 188.308 81.26C187.854 81.5414 187.505 81.9649 187.316 82.4648C187.123 83.0102 187.232 83.7341 188.189 84.5075C188.276 84.5725 188.373 84.6228 188.476 84.6563C190.5 84.6786 192.523 84.5259 194.52 84.2001C197.692 83.7102 200.761 82.7054 203.609 81.2253C206.512 79.6901 209.028 77.5149 210.966 74.8641C211.224 74.5418 211.427 74.1897 211.656 73.8427C211.884 73.5034 212.094 73.1526 212.285 72.7915C212.479 72.4296 212.677 72.0727 212.86 71.7107L213.356 70.5951C213.53 70.2233 213.659 69.8415 213.797 69.4597C213.936 69.078 214.085 68.7012 214.189 68.3095L214.516 67.1443L214.586 66.8964L214.655 66.7328C214.695 66.6039 214.749 66.4551 214.779 66.346L214.873 65.999C215.054 65.1822 215.179 64.3539 215.245 63.5199L215.3 62.92L215.334 62.335C215.364 61.9383 215.379 61.5466 215.389 61.1599C215.448 59.603 215.424 58.0661 215.389 56.534V56.2018C215.287 53.3162 215.098 50.4488 214.824 47.5995L214.779 47.0641V46.9947V46.9599V46.8707L214.883 45.7799C214.948 45.056 214.997 44.3321 215.047 43.6083C215.136 42.1638 215.187 40.7127 215.201 39.2551C215.214 37.7974 215.168 36.3298 215.062 34.8523C215.032 34.4804 215.002 34.1135 214.968 33.7417L214.824 32.6211C214.779 32.2443 214.7 31.8675 214.635 31.4907C214.594 31.2019 214.524 30.9179 214.427 30.6429L214.075 29.7454L213.916 29.2496L213.837 29.0116L213.797 28.8927C213.8 28.8746 213.8 28.8562 213.797 28.8381H213.733C213.411 28.7687 213.108 28.6795 212.776 28.6348C212.439 28.5746 212.097 28.5447 211.755 28.5456C211.58 28.5356 211.404 28.5356 211.229 28.5456L210.798 28.5753C209.995 28.6482 209.199 28.7858 208.418 28.9868C206.936 29.3677 205.494 29.8925 204.114 30.5536L203.618 30.7866L203.123 31.0445C202.79 31.213 202.458 31.3816 202.131 31.5403L201.139 32.0906L200.644 32.3633L200.178 32.6558L200.118 32.6905L199.439 32.1947C199.126 31.9865 198.824 31.7733 198.507 31.575C195.974 29.9154 193.197 28.664 190.276 27.8663L189.26 27.6333L189.21 26.9987C189.076 25.541 188.893 24.0833 188.64 22.6256C188.39 21.1334 188.023 19.663 187.544 18.2278C187.282 17.4557 186.95 16.709 186.553 15.9967C186.444 15.8083 186.344 15.6248 186.211 15.4364L186.116 15.2976C186.072 15.2281 186.032 15.1637 185.978 15.0943C185.923 15.0249 185.754 14.8266 185.64 14.6927C185.526 14.5588 185.417 14.42 185.288 14.3059L184.907 13.9738C184.659 13.7457 184.386 13.5325 184.123 13.3143L184.069 13.2697C184.069 13.2697 184.024 13.2697 184.004 13.2697L183.865 13.3143L183.588 13.4085L183.037 13.6019C182.671 13.7259 182.304 13.8696 181.937 14.0233C181.57 14.177 181.158 14.3456 180.782 14.5191C180.023 14.8612 179.294 15.243 178.55 15.6347C177.089 16.4336 175.685 17.335 174.351 18.3319C173.008 19.3383 171.746 20.449 170.578 21.6538L169.804 22.5116L169.259 22.7694C168.515 23.1313 167.772 23.5082 167.072 23.8949C163.996 25.5729 161.082 27.5314 158.366 29.7454C155.602 31.9716 153.141 34.5484 151.043 37.4107C149.925 38.9571 148.959 40.6075 148.157 42.339C147.754 43.2138 147.402 44.1111 147.101 45.0263C146.962 45.4923 146.799 45.9534 146.69 46.4294L146.526 47.1434C146.464 47.3803 146.415 47.6203 146.377 47.8623C146.03 49.7872 145.947 51.7505 146.129 53.698C146.22 54.6633 146.371 55.6221 146.581 56.5687C146.685 57.0645 146.809 57.5058 146.933 57.9719L147.012 58.2396C147.319 59.2726 147.685 60.2874 148.108 61.2789L148.549 62.1069C148.837 62.6027 149.258 63.3266 149.774 64.0901C150.345 64.9327 150.959 65.7452 151.613 66.5246C152.273 67.3118 152.98 68.0585 153.73 68.7606C154.493 69.5514 155.356 70.2382 156.298 70.8034C156.849 71.0959 157.087 71.0563 157.077 70.8034C157.077 70.3473 156.165 69.0383 155.143 67.4368C155.302 67.5658 153.973 65.7164 152.932 63.6786C152.447 62.7492 152.008 61.7961 151.618 60.8228L151.256 59.8312L151.132 59.4593L150.904 58.904L150.706 58.3388C150.562 57.9619 150.453 57.5802 150.334 57.1984L150.264 56.9703C150.16 56.5638 150.051 56.1621 149.962 55.7605C149.784 54.9545 149.656 54.1382 149.58 53.3162C149.429 51.6831 149.499 50.0369 149.789 48.4226C149.817 48.2202 149.859 48.0198 149.912 47.8226L150.051 47.2277C150.141 46.8261 150.279 46.4393 150.393 46.0476C150.654 45.2563 150.959 44.48 151.306 43.7223C152.018 42.1955 152.873 40.7396 153.859 39.374C155.784 36.7578 158.038 34.4014 160.567 32.3633C163.116 30.2875 165.852 28.4518 168.738 26.8796C169.408 26.5177 170.087 26.1607 170.771 25.8335L171.302 25.5856L171.842 25.3427C171.897 25.3427 171.916 25.2782 171.956 25.2484L172.055 25.1394L172.259 24.9113L173.082 24.004C174.119 22.9371 175.238 21.9525 176.428 21.0589C177.629 20.1587 178.893 19.3468 180.211 18.6294C180.876 18.2774 181.545 17.9303 182.229 17.6378C182.566 17.4791 182.909 17.3353 183.251 17.1916L183.305 17.2709C183.38 17.375 183.444 17.5039 183.513 17.6229C183.804 18.157 184.047 18.7163 184.237 19.2938C184.655 20.5564 184.975 21.8493 185.194 23.1611C185.427 24.4998 185.601 25.8682 185.725 27.2366L185.764 27.7325L185.799 28.1985L185.834 28.6943C185.834 29.0513 185.869 29.4132 185.883 29.7752V30.3156V30.5139H185.918L186.181 30.5536L188.293 30.8709H188.362H188.392H188.476H188.536L188.655 30.9007L188.888 30.9552L189.354 31.0593C191.915 31.7757 194.349 32.8863 196.568 34.3515C196.856 34.53 197.128 34.7234 197.411 34.9118L197.822 35.1993L198.041 35.358L198.462 35.6704C198.745 35.8885 199.022 36.1215 199.305 36.3447L199.726 36.6868C199.761 36.6868 199.796 36.7462 199.831 36.7661L199.945 36.6967L200.173 36.5578L201.928 35.4671L202.364 35.1944L202.81 34.9415L203.693 34.4457C203.995 34.2821 204.293 34.1333 204.595 33.9796L205.046 33.7516L205.503 33.5433C206.685 32.9734 207.921 32.5201 209.191 32.1898C209.787 32.0361 210.394 31.93 211.006 31.8724H211.105L211.135 32.046C211.189 32.3683 211.259 32.6856 211.299 33.0376L211.423 34.0292C211.457 34.3664 211.482 34.7035 211.512 35.0209C211.611 36.3744 211.656 37.7528 211.641 39.1361C211.626 40.5194 211.576 41.9076 211.492 43.3009C211.447 43.995 211.398 44.6891 211.333 45.3783L211.234 46.4096C211.234 46.4542 211.204 46.6823 211.189 46.8508L211.229 47.2872L211.274 47.8127C211.542 50.619 211.725 53.4286 211.824 56.2414V56.4051V56.5637C211.864 58.0512 211.884 59.5386 211.824 60.9665C211.824 61.3334 211.799 61.6904 211.775 62.0474L211.745 62.5878L211.695 63.1134C211.64 63.78 211.542 64.4424 211.403 65.0966L211.348 65.2949C211.348 65.3643 211.313 65.3941 211.304 65.4437C211.294 65.4933 211.363 65.3296 211.343 65.3643V65.4139C211.332 65.4306 211.324 65.4491 211.318 65.4685C211.318 65.5032 211.318 65.5428 211.289 65.5676L211.239 65.6966L211.214 65.761V65.7957V65.8552L211.13 66.1478L210.847 67.1394C210.758 67.4765 210.619 67.7938 210.51 68.131C210.403 68.4682 210.277 68.7993 210.133 69.1226L209.717 70.0696L209.221 70.9769C209.06 71.2801 208.883 71.5746 208.691 71.8594C208.514 72.1519 208.322 72.4349 208.115 72.7073C206.487 74.9333 204.37 76.7566 201.928 78.0372C199.421 79.339 196.718 80.2201 193.925 80.6452C192.142 80.9757 190.334 81.1532 188.521 81.1757V81.1757Z" fill="#B2B2B2"/>
<path d="M179.17 27.6631C179.17 27.6631 175.67 26.141 174.078 25.9427C174.078 25.9427 178.615 21.2275 180.206 21.4258L179.17 27.6631Z" fill="#CCCCCC"/>
<path d="M196.255 50.0885C197.254 50.0885 198.065 49.2782 198.065 48.2788C198.065 47.2793 197.254 46.4691 196.255 46.4691C195.256 46.4691 194.445 47.2793 194.445 48.2788C194.445 49.2782 195.256 50.0885 196.255 50.0885Z" fill="white"/>
<path d="M178.922 40.9508C179.921 40.9508 180.732 40.1405 180.732 39.1411C180.732 38.1416 179.921 37.3314 178.922 37.3314C177.923 37.3314 177.112 38.1416 177.112 39.1411C177.112 40.1405 177.923 40.9508 178.922 40.9508Z" fill="white"/>
<path d="M186.858 53.4309C187.548 51.8823 186.399 49.867 184.292 48.9296C182.186 47.9922 179.919 48.4876 179.23 50.0362C178.541 51.5848 179.69 53.6001 181.797 54.5375C183.903 55.4749 186.169 54.9795 186.858 53.4309Z" fill="#B2B2B2"/>
<path d="M183.419 54.2384C183.419 54.2136 183.444 54.2037 183.419 54.1392C183.235 53.7452 182.936 53.4155 182.562 53.1928C182.188 52.9701 181.756 52.8646 181.322 52.8898C181.272 52.8919 181.223 52.9037 181.178 52.9245L180.187 54.6004L179.725 55.3837C179.641 55.5325 179.547 55.6862 179.458 55.8448L179.2 56.2861L178.957 56.7373L178.897 56.8513C178.907 56.8933 178.918 56.9347 178.932 56.9753L179.016 57.2232C179.071 57.3868 179.131 57.5554 179.19 57.719L179.289 57.9669L179.373 58.1652L179.497 58.4429C179.666 58.8098 179.849 59.1816 180.058 59.5436C180.476 60.2868 180.997 60.9677 181.605 61.5665C182.211 62.1693 182.962 62.6063 183.786 62.8357C183.972 62.8831 184.161 62.9195 184.351 62.9448H184.604H184.847C185.094 62.9491 185.341 62.9359 185.586 62.9052C185.801 62.8834 186.015 62.8487 186.226 62.8011C186.36 62.7572 186.493 62.7058 186.622 62.6473C186.979 62.4992 187.313 62.3005 187.614 62.0573C188.031 61.7205 188.347 61.2741 188.526 60.7682C188.75 60.0193 188.669 59.2125 188.303 58.5222C188.22 58.3699 188.115 58.2311 187.991 58.1107C187.797 57.9371 187.653 57.9272 187.554 58.0214C187.341 58.2049 187.316 58.8197 187.148 59.3403C187.148 59.3105 187.103 59.4643 187.019 59.6378C186.934 59.8236 186.792 59.9768 186.612 60.0741C186.406 60.176 186.182 60.2398 185.953 60.2625C185.826 60.2803 185.699 60.2885 185.571 60.2873C185.452 60.3115 185.331 60.328 185.209 60.3368C184.935 60.3639 184.658 60.3421 184.391 60.2724C183.998 60.1282 183.644 59.8958 183.355 59.5931C182.94 59.1612 182.585 58.676 182.299 58.1504C182.14 57.8727 181.996 57.5802 181.862 57.2827L181.763 57.0595L182.467 55.8597L183.419 54.2384Z" fill="#B2B2B2"/>
<path d="M180.221 58.3289C180.221 58.3289 180.256 58.3289 180.276 58.2496C180.394 57.9333 180.43 57.592 180.38 57.258C180.297 56.7495 180.097 56.2674 179.795 55.8499C179.767 55.8165 179.736 55.7865 179.701 55.7606L179.299 55.84C179.051 55.8796 178.704 55.9342 178.308 55.9738C177.356 56.0896 176.393 56.0577 175.452 55.8796C175.046 55.7894 174.662 55.621 174.321 55.3838C174.089 55.2216 173.905 54.9987 173.791 54.7393C173.715 54.5842 173.672 54.4156 173.662 54.2435C173.658 54.1907 173.658 54.1376 173.662 54.0848C173.662 54.0848 173.662 54.0501 173.662 53.9757C173.653 53.8561 173.661 53.7359 173.687 53.6187C173.824 53.1706 174.046 52.7532 174.341 52.3891C174.911 51.7297 175.115 51.3975 174.931 51.1942C174.748 50.9909 174.182 50.9711 173.548 51.1942C173.022 51.3541 172.544 51.64 172.155 52.0272C171.807 52.342 171.526 52.7229 171.327 53.1477C171.251 53.3068 171.191 53.4729 171.148 53.6435L171.098 53.8369C171.095 53.893 171.095 53.9493 171.098 54.0055C171.087 54.1706 171.087 54.3362 171.098 54.5013C171.139 55.0195 171.281 55.5248 171.515 55.9887C171.84 56.6411 172.326 57.1993 172.928 57.61C173.548 58.0195 174.242 58.3058 174.971 58.4529C176.173 58.688 177.404 58.7348 178.62 58.5917C179.537 58.5025 180.182 58.3339 180.221 58.3289Z" fill="#B2B2B2"/>
<path d="M204.56 66.081C205.298 64.647 203.958 62.4868 201.568 61.256C199.177 60.0252 196.64 60.1899 195.902 61.6238C195.164 63.0578 196.504 65.2181 198.894 66.4489C201.285 67.6797 203.822 67.5149 204.56 66.081Z" fill="#CCCCCC"/>
<path d="M167.759 47.1408C168.497 45.7069 167.158 43.5466 164.767 42.3158C162.376 41.085 159.84 41.2497 159.101 42.6837C158.363 44.1177 159.703 46.2779 162.093 47.5087C164.484 48.7395 167.021 48.5748 167.759 47.1408Z" fill="#CCCCCC"/>
<path d="M189.914 84.6117C189.957 84.6153 190.001 84.6097 190.042 84.5951C190.083 84.5806 190.12 84.5575 190.152 84.5274C190.634 84.2435 190.989 83.7858 191.143 83.2482C191.252 82.6731 191.029 82.0087 190.152 81.265C190.073 81.203 189.984 81.1559 189.889 81.1262C188.028 81.1339 186.168 81.0479 184.316 80.8683C178.378 80.3612 172.576 78.8121 167.176 76.292L165.808 75.5929L164.494 74.8641L164.295 74.76L163.745 74.4674L162.912 74.0311L161.881 73.4362C161.504 73.2279 161.127 72.9751 160.725 72.7222L160.116 72.3355C159.912 72.2016 159.714 72.0578 159.511 71.919L158.901 71.4975L158.598 71.2893L158.306 71.0662C157.924 70.7687 157.537 70.4811 157.171 70.2134C156.59 69.7176 156.09 69.3011 155.683 68.9739C155.369 68.6961 155.037 68.4378 154.692 68.2004C154.196 67.8583 153.948 67.8385 153.913 68.0715C153.971 68.5535 154.141 69.0152 154.409 69.4201C154.488 69.5788 154.582 69.7523 154.682 69.9159C154.781 70.0795 154.905 70.2679 155.029 70.4514C155.282 70.8183 155.554 71.2248 155.867 71.6215C156.121 71.9905 156.408 72.3357 156.724 72.6528C157.012 72.9949 157.394 73.3618 157.8 73.7684C158.004 73.9717 158.212 74.1849 158.435 74.3931L159.124 75.0079C159.357 75.2112 159.59 75.4244 159.828 75.6227L160.537 76.1879L161.201 76.7184L161.826 77.1597L162.763 77.829L163.13 78.062C163.552 78.3 163.963 78.5579 164.39 78.7661L165.674 79.4205C167.112 80.1195 168.587 80.7418 170.091 81.2848L170.652 81.4881L171.217 81.6765L172.352 82.0484C173.116 82.2715 173.879 82.5045 174.648 82.6979C177.716 83.4933 180.843 84.0421 183.999 84.339C185.964 84.5313 187.939 84.6223 189.914 84.6117Z" fill="#C30D23"/>
<path d="M193.251 53.6831C191.937 55.5028 193.251 56.7968 195.071 58.1156C196.89 59.4345 198.541 60.2675 199.845 58.4429C200.158 58.0099 200.382 57.5196 200.505 56.9999C200.628 56.4803 200.648 55.9416 200.562 55.4144C200.477 54.8873 200.289 54.382 200.009 53.9276C199.728 53.4732 199.361 53.0784 198.928 52.7659C198.495 52.4534 198.005 52.2292 197.485 52.1061C196.965 51.9831 196.427 51.9636 195.9 52.0488C195.372 52.1339 194.867 52.3221 194.413 52.6025C193.958 52.883 193.564 53.2502 193.251 53.6831V53.6831Z" fill="#B2B2B2"/>
<path d="M193.746 52.7163C193.504 52.8551 193.494 53.3063 193.746 53.7079C193.747 53.8096 193.773 53.9095 193.824 53.9977C193.874 54.0859 193.947 54.1594 194.035 54.211C194.122 54.2626 194.222 54.2905 194.324 54.2919C194.425 54.2932 194.525 54.2681 194.614 54.2189C194.703 54.1698 194.778 54.0982 194.831 54.0114C194.884 53.9246 194.913 53.8255 194.916 53.7239C194.919 53.6223 194.896 53.5217 194.848 53.4319C194.8 53.3422 194.73 53.2664 194.644 53.2121C194.401 52.7956 194.009 52.5775 193.746 52.7163Z" fill="#F7F7F7"/>
<path d="M169.035 41.8185C168.272 43.9306 169.883 44.7933 172.01 45.5817C174.137 46.37 175.932 46.7022 176.696 44.59C176.878 44.088 176.959 43.5551 176.935 43.0217C176.911 42.4882 176.782 41.9647 176.556 41.4811C176.33 40.9974 176.01 40.5631 175.616 40.2029C175.222 39.8426 174.761 39.5635 174.259 39.3816C173.757 39.1996 173.224 39.1182 172.69 39.1422C172.157 39.1662 171.634 39.295 171.15 39.5213C170.666 39.7476 170.232 40.0669 169.872 40.4611C169.511 40.8552 169.232 41.3165 169.05 41.8185H169.035Z" fill="#B2B2B2"/>
<path d="M169.283 40.7425C169.085 40.9458 169.199 41.3821 169.541 41.7341C169.682 41.8376 169.842 41.912 170.013 41.9529C170.183 41.9937 170.359 42.0002 170.532 41.9721C170.559 41.798 170.55 41.6203 170.505 41.4498C170.461 41.2794 170.382 41.1197 170.274 40.9805C169.918 40.6533 169.481 40.5392 169.283 40.7425Z" fill="#F7F7F7"/>
<path d="M204.079 41.1094C204.079 41.1094 197.078 41.6052 197.48 45.77C197.683 47.8673 199.289 50.2323 200.454 50.7826C201.62 51.333 203.097 50.2521 203.925 49.9745C203.925 49.9745 205.998 48.2788 206.29 43.4595L204.079 41.1094Z" fill="#EFEFEF"/>
<path d="M204.079 41.1094C203.385 40.992 202.679 40.962 201.977 41.0202C201.186 41.0915 200.413 41.303 199.696 41.6449C199.084 41.9187 198.524 42.2961 198.04 42.7604C197.736 43.0471 197.481 43.3822 197.287 43.7521C197.053 44.2049 196.917 44.7013 196.885 45.2097C196.876 46.2233 197.103 47.2249 197.549 48.135C197.888 48.8779 198.325 49.5717 198.848 50.1976C199.017 50.3916 199.196 50.5769 199.384 50.7529L199.612 50.9413L199.82 51.0901C200.028 51.2402 200.259 51.3557 200.504 51.4321C200.874 51.5336 201.262 51.5522 201.64 51.4867C202.047 51.4151 202.444 51.2919 202.82 51.1198C203.202 50.9562 203.583 50.7529 203.926 50.624L203.99 50.5943L204.084 50.5595L204.233 50.4951L204.347 50.391C204.441 50.3067 204.461 50.2818 204.511 50.2323L204.635 50.0984C204.788 49.9226 204.931 49.7371 205.061 49.5431C205.526 48.8528 205.895 48.1021 206.157 47.312C206.447 46.4356 206.646 45.5318 206.752 44.6148C206.784 44.398 206.802 44.1794 206.806 43.9603V43.5438C206.814 43.4547 206.814 43.3652 206.806 43.2761L206.613 43.0827L206.439 42.9141L206.34 42.8249L206.142 42.6514L205.745 42.3241C205.199 41.8986 204.631 41.5014 204.045 41.1342C204.421 41.8035 204.744 42.3588 205.125 42.9092L205.423 43.3207L205.586 43.5289L205.671 43.638C205.701 43.6777 205.671 43.638 205.671 43.6678C205.671 43.6678 205.671 43.6678 205.671 43.6975V43.8413C205.646 44.0347 205.631 44.2379 205.596 44.4511C205.494 45.2934 205.309 46.1236 205.046 46.9302C204.814 47.6182 204.494 48.2732 204.094 48.8787C203.985 49.0324 203.871 49.1861 203.752 49.325L203.658 49.4241L203.598 49.4885L203.464 49.5431L202.354 50.0389C201.892 50.2987 201.355 50.3931 200.832 50.3066C200.701 50.2648 200.577 50.2029 200.465 50.1232L200.326 50.0191L200.157 49.8803C200.053 49.7811 199.905 49.6323 199.726 49.434C199.276 48.8886 198.9 48.2869 198.605 47.6442C198.242 46.9051 198.052 46.0928 198.05 45.2692C198.088 44.6266 198.374 44.0238 198.848 43.5884C199.244 43.2161 199.698 42.9112 200.192 42.6861C200.936 42.3291 201.565 42.096 202.175 41.8481C202.785 41.6002 203.355 41.3623 204.079 41.1094Z" fill="#B2B2B2"/>
<path d="M210.803 42.6365C210.803 42.6365 216.891 46.1071 214.705 49.7117C213.614 51.5065 211.13 52.9443 209.841 52.9245C208.552 52.9047 207.694 51.2933 207.079 50.6834C207.079 50.6834 205.954 48.254 207.793 43.7917L210.803 42.6365Z" fill="#EFEFEF"/>
<path d="M210.802 42.6365C211.342 43.1769 211.754 43.6578 212.19 44.1239C212.627 44.59 213.088 45.1155 213.603 45.7353C213.95 46.1534 214.224 46.6258 214.416 47.1334C214.655 47.7319 214.655 48.3992 214.416 48.9977C214.054 49.7358 213.529 50.3818 212.879 50.8867C212.341 51.3545 211.742 51.748 211.1 52.0568C210.852 52.161 210.653 52.2254 210.519 52.2701L210.306 52.3246L210.133 52.3543C209.998 52.3723 209.861 52.3723 209.726 52.3543C209.219 52.1994 208.778 51.8803 208.472 51.447L207.698 50.495L207.599 50.3909C207.599 50.3909 207.599 50.3364 207.599 50.3066L207.559 50.1727C207.51 49.9917 207.472 49.808 207.445 49.6224C207.349 48.9034 207.349 48.1747 207.445 47.4557C207.559 46.6132 207.752 45.7832 208.021 44.9767C208.08 44.7734 208.159 44.585 208.219 44.3966L208.264 44.2627C208.264 44.2231 208.264 44.2627 208.264 44.228C208.264 44.1933 208.264 44.228 208.264 44.228C208.264 44.228 208.264 44.228 208.293 44.2032L208.412 44.1487L208.65 44.0297L209.101 43.7868C209.682 43.4595 210.217 43.1025 210.847 42.6613C210.157 42.7367 209.472 42.8476 208.794 42.9934L208.298 43.1125L208.045 43.1819L207.916 43.2215L207.688 43.2959L207.431 43.3852C207.382 43.4606 207.343 43.5423 207.317 43.6281L207.153 44.0148C207.063 44.2132 206.985 44.4169 206.92 44.6247C206.616 45.4963 206.401 46.3967 206.28 47.312C206.17 48.1346 206.17 48.9684 206.28 49.791C206.314 50.0219 206.362 50.2504 206.424 50.4752L206.474 50.6488C206.496 50.7212 206.523 50.7923 206.553 50.8619L206.612 51.0107C206.642 51.0504 206.682 51.09 206.717 51.1297L206.786 51.2041L206.831 51.2536C207.074 51.5362 207.326 51.8883 207.604 52.2006C207.87 52.5166 208.173 52.7996 208.506 53.0435C208.818 53.2648 209.173 53.417 209.548 53.4897C209.803 53.5263 210.061 53.5263 210.316 53.4897L210.569 53.4402L210.857 53.3708C211.103 53.296 211.345 53.2066 211.58 53.103C212.325 52.7708 213.02 52.3388 213.648 51.8189C214.446 51.1928 215.087 50.39 215.522 49.4737C215.716 49.0025 215.809 48.4957 215.795 47.9863C215.779 47.5711 215.697 47.161 215.552 46.7715C215.321 46.143 214.986 45.558 214.56 45.0411C214.062 44.4249 213.46 43.9013 212.78 43.4942C212.159 43.1278 211.494 42.8397 210.802 42.6365V42.6365Z" fill="#B2B2B2"/>
<path d="M205.716 36.7959C205.716 36.7959 200.902 27.8317 196.524 32.7055C192.146 37.5793 194.005 42.8993 195.621 44.5355C195.621 44.5355 198.978 46.8013 204.476 42.2002L205.716 36.7959Z" fill="#EFEFEF"/>
<path d="M205.715 36.7959C205.469 35.8929 205.112 35.0236 204.654 34.2077C204.13 33.2777 203.431 32.4578 202.596 31.7932C202.348 31.5995 202.088 31.4207 201.818 31.2577C201.297 30.9329 200.723 30.7029 200.122 30.5784C199.497 30.4494 198.851 30.475 198.238 30.6528C197.54 30.873 196.9 31.2494 196.369 31.7535L195.982 32.1452C195.858 32.2791 195.759 32.4179 195.645 32.5517C195.412 32.818 195.195 33.0978 194.996 33.3896C194.802 33.6871 194.589 33.9747 194.42 34.2821C194.252 34.5895 194.083 34.9019 193.925 35.2093C193.428 36.2875 193.131 37.4464 193.047 38.6304C193.004 39.1252 193.004 39.6229 193.047 40.1178L193.077 40.45C193.108 40.7565 193.156 41.061 193.221 41.3623C193.431 42.3859 193.821 43.3644 194.371 44.2528L194.653 44.6544C194.698 44.7189 194.763 44.7833 194.817 44.8527L195.015 45.0759C195.116 45.1797 195.236 45.2638 195.367 45.3238L195.62 45.4428C195.781 45.5154 195.947 45.5767 196.116 45.6262C196.783 45.825 197.478 45.9104 198.174 45.8791C199.399 45.8155 200.598 45.498 201.694 44.947C202.14 44.7486 202.502 44.5106 202.849 44.3272L203.717 43.7471C203.937 43.5929 204.149 43.4274 204.351 43.2513L204.877 42.8398L205.046 42.7059L205.13 42.6415L205.155 42.5324L205.249 42.1159C205.274 41.9771 205.303 41.8382 205.328 41.7044C205.378 41.4432 205.422 41.1904 205.462 40.9458C205.536 40.45 205.591 40.0087 205.626 39.5625C205.695 38.675 205.7 37.8172 205.68 36.7959C205.25 37.6128 204.862 38.4519 204.52 39.3096C204.356 39.7261 204.208 40.1525 204.064 40.6285C203.994 40.8615 203.92 41.1243 203.851 41.3672L203.752 41.7639L203.414 42.0217C203.251 42.1456 203.067 42.3093 202.834 42.458L202.051 42.9538C201.743 43.1125 201.416 43.3306 201.034 43.4992C200.129 43.9577 199.138 44.2244 198.124 44.2826C197.605 44.3076 197.086 44.2456 196.587 44.0991C196.468 44.0694 196.359 44.0198 196.245 43.9801L196.096 43.9058L195.893 43.6727L195.685 43.3703C195.237 42.6441 194.92 41.8454 194.748 41.0102C194.69 40.7569 194.649 40.5002 194.624 40.2417L194.599 39.9591C194.564 39.545 194.564 39.1288 194.599 38.7147C194.672 37.7139 194.926 36.7346 195.348 35.8241C195.476 35.5613 195.62 35.2985 195.759 35.0308C195.898 34.763 196.096 34.535 196.255 34.2573C196.433 34.0022 196.625 33.7572 196.83 33.5235C196.929 33.4045 197.023 33.2756 197.123 33.1715L197.42 32.8691C197.775 32.5282 198.202 32.2723 198.669 32.1204C199.04 32.0114 199.431 31.9944 199.81 32.0708C200.234 32.1691 200.64 32.3366 201.01 32.5666C201.226 32.6969 201.434 32.8392 201.634 32.993C202.487 33.6574 203.122 34.297 203.747 34.882C204.371 35.4671 205.011 36.0521 205.715 36.7959Z" fill="#B2B2B2"/>
<path d="M204.198 39.2005C204.198 39.2005 202.676 37.9511 199.31 38.6551Z" fill="#C30D23"/>
<path d="M204.198 39.2005C204.223 38.7592 204.124 38.4766 203.836 38.3378C203.482 38.183 203.111 38.0682 202.731 37.9957C202.444 37.9377 202.154 37.8996 201.863 37.8816C201.863 37.8816 201.447 37.8519 200.995 37.8816C200.629 37.8959 200.263 37.929 199.9 37.9808C199.602 38.0353 199.468 38.2733 199.31 38.6749C199.617 38.9972 199.805 39.1707 200.063 39.1311C200.207 39.1311 200.638 39.0617 201.03 39.0468C201.422 39.0319 201.774 39.0468 201.774 39.0468C202.323 39.0826 202.864 39.2047 203.375 39.4087C203.603 39.498 203.792 39.3641 204.198 39.2005Z" fill="#B2B2B2"/>
<path d="M211.214 38.0552C211.214 38.0552 219.449 32.1055 221.264 38.3824C223.079 44.6594 219.088 48.6556 216.921 49.4241C216.921 49.4241 212.915 49.9993 209.979 43.4744L211.214 38.0552Z" fill="#EFEFEF"/>
<path d="M211.214 38.0553C212.166 37.6933 212.974 37.4553 213.793 37.1876C214.611 36.9199 215.458 36.6323 216.515 36.4092C216.762 36.357 217.012 36.3189 217.263 36.2951C217.695 36.2536 218.13 36.2837 218.552 36.3844C218.922 36.4814 219.262 36.6669 219.544 36.9248C219.9 37.2646 220.173 37.682 220.342 38.1445L220.476 38.5461C220.521 38.68 220.55 38.8386 220.585 38.9874C220.669 39.2874 220.735 39.592 220.783 39.8997C220.818 40.2021 220.878 40.5095 220.893 40.812C220.907 41.1144 220.922 41.4168 220.922 41.7094C220.905 42.7122 220.705 43.7036 220.332 44.6347C220.183 45.0241 220.003 45.4005 219.792 45.7601L219.643 45.9981C219.508 46.2179 219.361 46.4298 219.202 46.6328C218.681 47.3115 218.045 47.8938 217.323 48.3532L217.005 48.5317L216.723 48.6557H216.554C216.433 48.6495 216.312 48.6363 216.192 48.616C215.68 48.5339 215.186 48.3663 214.73 48.1202C213.842 47.6239 213.067 46.9485 212.454 46.137C212.181 45.8147 211.983 45.4775 211.775 45.1999L211.279 44.3917C211.13 44.1587 211.041 43.9306 210.942 43.7471L210.753 43.3654L210.833 42.9687C210.882 42.7076 210.927 42.4547 210.966 42.2101C211.041 41.7143 211.095 41.2681 211.13 40.8219C211.199 39.9344 211.199 39.0816 211.185 38.0553C210.755 38.8726 210.368 39.7117 210.024 40.569C209.861 40.9855 209.712 41.4168 209.568 41.8879C209.494 42.1258 209.424 42.3837 209.355 42.6266L209.251 43.0332L209.152 43.4497L209.127 43.5538L209.177 43.6529L209.271 43.8513C209.35 44.0099 209.444 44.2083 209.558 44.4462C209.672 44.6842 209.762 44.8875 209.925 45.1503L210.451 46.0477C210.684 46.365 210.912 46.7418 211.224 47.1137C211.97 48.0886 212.91 48.8973 213.986 49.4886C214.597 49.8186 215.259 50.0449 215.944 50.158C216.118 50.1877 216.296 50.1976 216.475 50.2125H216.757C216.901 50.2165 217.044 50.1929 217.179 50.1431L217.457 50.0291C217.536 49.9894 217.62 49.9596 217.695 49.9199L218.121 49.682C219.003 49.122 219.779 48.4122 220.417 47.5847C220.606 47.3423 220.782 47.089 220.942 46.8261C221.056 46.6426 221.116 46.5385 221.116 46.5385C221.369 46.1131 221.587 45.6669 221.765 45.2048C222.209 44.1005 222.446 42.9241 222.464 41.7342C222.464 41.392 222.464 41.045 222.434 40.693C222.405 40.3409 222.35 39.9889 222.306 39.6369C222.251 39.2879 222.178 38.942 222.087 38.6006C222.043 38.4271 222.013 38.2585 221.958 38.1048L221.78 37.5842C221.523 36.8988 221.113 36.2814 220.58 35.7795C220.106 35.3528 219.537 35.0467 218.919 34.887C218.322 34.744 217.706 34.7005 217.095 34.7581C216.781 34.7906 216.47 34.8402 216.162 34.9069C215.122 35.1395 214.137 35.5723 213.262 36.1811C212.504 36.7178 211.816 37.3474 211.214 38.0553Z" fill="#B2B2B2"/>
<path d="M204.174 37.426L203.242 41.4852C203.094 42.1284 203.496 42.7695 204.139 42.9172L209.556 44.1608C210.199 44.3085 210.841 43.9068 210.988 43.2636L211.92 39.2044C212.068 38.5612 211.666 37.9201 211.023 37.7724L205.606 36.5288C204.963 36.3811 204.322 36.7828 204.174 37.426Z" fill="#EFEFEF"/>
<path d="M204.158 42.8844C205.43 43.5761 206.792 44.0883 208.204 44.4065L208.824 44.5552L209.32 44.6693L209.478 44.704C209.557 44.7194 209.637 44.7293 209.716 44.7337C209.894 44.7494 210.073 44.7361 210.247 44.6941C210.473 44.6433 210.686 44.5484 210.875 44.4148C211.064 44.2812 211.225 44.1116 211.348 43.9157C211.42 43.8044 211.479 43.6845 211.521 43.5587C211.546 43.4942 211.561 43.4297 211.581 43.3653L211.61 43.2265C211.655 43.048 211.695 42.8596 211.739 42.6662L212.275 40.3309L212.523 39.2451C212.609 38.8024 212.524 38.3434 212.285 37.961C212.121 37.7051 211.896 37.4939 211.63 37.3462C211.534 37.2929 211.433 37.2497 211.328 37.2173H211.258H211.174H211.095L210.599 37.1033L208.913 36.7115L206.796 36.2157L205.735 35.9728C205.5 35.9236 205.258 35.9228 205.022 35.9706C204.787 36.0183 204.564 36.1135 204.367 36.2504C203.988 36.5112 203.724 36.9067 203.628 37.3561C203.568 37.6238 203.514 37.8519 203.464 38.08L203.246 39.0319C203.076 39.7664 202.959 40.512 202.894 41.2631C202.865 41.462 202.865 41.6641 202.894 41.863C202.934 42.0673 203.019 42.2603 203.142 42.4282C203.263 42.5839 203.418 42.7096 203.595 42.7956C203.772 42.8816 203.966 42.9256 204.163 42.924C204.018 42.853 203.89 42.7502 203.79 42.6232C203.689 42.4961 203.619 42.3482 203.583 42.1902C203.559 42.0642 203.559 41.9345 203.583 41.8085C203.618 41.6812 203.663 41.5569 203.717 41.4366C203.987 40.7328 204.206 40.0103 204.372 39.2749L204.595 38.3229L204.763 37.5991C204.777 37.5181 204.807 37.4408 204.851 37.3717C204.895 37.3027 204.953 37.2434 205.021 37.1975C205.089 37.1496 205.165 37.1165 205.247 37.1002C205.328 37.084 205.411 37.085 205.492 37.1033L206.528 37.3412L208.65 37.837L210.336 38.2238L210.832 38.3378H210.911H210.941H210.966C211.102 38.3823 211.218 38.4736 211.293 38.5956C211.374 38.7292 211.403 38.8884 211.372 39.0419L211.134 40.088C210.961 40.8416 210.773 41.6647 210.594 42.4282L210.465 42.9885L210.435 43.1223V43.1868C210.421 43.2304 210.401 43.272 210.376 43.3108C210.29 43.4456 210.155 43.5417 209.999 43.5785C209.938 43.5882 209.876 43.5882 209.816 43.5785H209.736L209.597 43.5438L209.102 43.4347L208.482 43.2909C207.066 42.9591 205.611 42.8223 204.158 42.8844V42.8844Z" fill="#B2B2B2"/>
<path d="M208.398 41.6101C208.398 41.6101 207.267 39.9888 208.239 36.6917Z" fill="#C30D23"/>
<path d="M208.398 41.6052C208.591 41.2135 208.74 41.0399 208.665 40.802C208.573 40.5112 208.508 40.2124 208.472 39.9095C208.442 39.6678 208.427 39.4243 208.427 39.1807C208.427 39.1807 208.427 38.8237 208.472 38.437C208.517 38.0502 208.611 37.6189 208.636 37.48C208.69 37.2173 208.536 37.0239 208.239 36.6917C207.827 36.8157 207.584 36.9347 207.505 37.2222C207.421 37.5805 207.357 37.9429 207.312 38.3081C207.267 38.7543 207.267 39.1708 207.267 39.1708C207.264 39.4639 207.278 39.757 207.312 40.0483C207.356 40.4331 207.44 40.812 207.565 41.1788C207.679 41.4763 207.951 41.5952 208.398 41.6052Z" fill="#B2B2B2"/>
<path d="M211.526 40.8813C211.526 40.8813 213.44 40.4202 216.162 42.5224Z" fill="#C30D23"/>
<path d="M211.526 40.8813C211.819 41.2085 211.933 41.4068 212.176 41.4267C212.481 41.4455 212.783 41.4936 213.078 41.5704C213.316 41.629 213.55 41.7036 213.777 41.7936C213.777 41.7936 214.105 41.9274 214.452 42.1059C214.799 42.2844 215.166 42.5274 215.285 42.6017C215.513 42.7455 215.746 42.6761 216.162 42.5175C216.197 42.0861 216.162 41.8184 215.939 41.6399C215.636 41.4328 215.321 41.2425 214.997 41.0697C214.59 40.8615 214.204 40.7127 214.204 40.7127C213.933 40.6009 213.655 40.5081 213.371 40.4351C212.999 40.333 212.616 40.2748 212.23 40.2615C211.908 40.2615 211.7 40.4747 211.526 40.8813Z" fill="#B2B2B2"/>
<path d="M53.3636 76.9415C57.4979 76.9364 61.6122 77.5139 65.5853 78.657C67.3084 67.0204 73.1223 56.3789 81.9837 48.6423C90.8451 40.9058 102.174 36.5807 113.936 36.4434C125.699 36.3061 137.125 40.3654 146.165 47.893C155.205 55.4206 161.265 65.9235 163.26 77.5166C169.265 76.5377 175.408 76.8101 181.303 78.3169C187.198 79.8236 192.718 82.5321 197.517 86.2725C202.316 90.0129 206.29 94.7047 209.191 100.053C212.091 105.402 213.856 111.292 214.373 117.355C214.472 116.155 214.531 114.94 214.531 113.711C214.528 107.311 213.135 100.989 210.447 95.1812C207.76 89.3735 203.842 84.2192 198.966 80.0751C194.089 75.9311 188.37 72.8962 182.205 71.1805C176.04 69.4649 169.576 69.1095 163.26 70.139C161.265 58.5458 155.205 48.043 146.165 40.5154C137.125 32.9878 125.699 28.9284 113.936 29.0658C102.174 29.2031 90.8451 33.5281 81.9837 41.2647C73.1223 49.0013 67.3084 59.6428 65.5853 71.2794C59.0109 69.3916 52.0879 69.0563 45.3618 70.2999C38.6357 71.5435 32.2902 74.3319 26.8254 78.4456C21.3605 82.5593 16.9255 87.8857 13.8699 94.0054C10.8142 100.125 9.22137 106.871 9.2168 113.711C9.2168 114.94 9.27629 116.15 9.37546 117.355C10.3065 106.331 15.3447 96.0585 23.4917 88.5735C31.6388 81.0886 42.3002 76.937 53.3636 76.9415V76.9415Z" fill="#CCCCCC"/>
<path d="M49.0739 157.664L175.237 157.61C185.423 156.493 194.902 151.867 202.049 144.524C209.196 137.182 213.565 127.582 214.406 117.37C213.889 111.307 212.125 105.417 209.225 100.068C206.324 94.7196 202.35 90.0279 197.551 86.2875C192.752 82.547 187.232 79.8385 181.336 78.3318C175.441 76.825 169.299 76.5526 163.293 77.5316C161.299 65.9384 155.238 55.4355 146.199 47.908C137.159 40.3804 125.733 36.321 113.97 36.4583C102.207 36.5957 90.8788 40.9207 82.0174 48.6573C73.156 56.3939 67.3421 67.0354 65.619 78.672C59.3496 76.8712 52.7592 76.481 46.3211 77.5297C39.883 78.5784 33.7571 81.0397 28.3832 84.737C23.0093 88.4343 18.5209 93.2758 15.2403 98.9138C11.9597 104.552 9.9683 110.846 9.40918 117.345C10.2516 127.647 14.6837 137.326 21.9326 144.695C29.1815 152.063 38.7871 156.653 49.0739 157.664V157.664Z" fill="white"/>
<path d="M132.296 138.729H95.8986C92.8977 138.727 90.0201 137.535 87.8958 135.415C85.7715 133.296 84.5736 130.421 84.5645 127.42V78.3348C84.5684 75.33 85.7638 72.4494 87.8885 70.3247C90.0132 68.2 92.8938 67.0045 95.8986 67.0006H132.296C135.301 67.0045 138.181 68.2 140.306 70.3247C142.431 72.4494 143.626 75.33 143.63 78.3348V127.42C143.621 130.421 142.423 133.296 140.299 135.415C138.175 137.535 135.297 138.727 132.296 138.729V138.729ZM95.8986 70.977C93.9472 70.9783 92.0759 71.7538 90.6956 73.1332C89.3152 74.5127 88.5385 76.3833 88.5359 78.3348V127.42C88.5372 129.372 89.3133 131.244 90.6938 132.625C92.0743 134.005 93.9463 134.781 95.8986 134.783H132.296C134.248 134.781 136.12 134.005 137.501 132.625C138.881 131.244 139.657 129.372 139.659 127.42V78.3348C139.657 76.3825 138.881 74.5105 137.501 73.13C136.12 71.7495 134.248 70.9734 132.296 70.972L95.8986 70.977Z" fill="#CCCCCC"/>
<path d="M133.243 80.0056H94.9521V83.9721H133.243V80.0056Z" fill="#CCCCCC"/>
<path d="M133.243 90.4424H94.9521V94.4089H133.243V90.4424Z" fill="#CCCCCC"/>
<path d="M133.243 100.884H94.9521V104.851H133.243V100.884Z" fill="#CCCCCC"/>
<path d="M133.243 111.326H94.9521V115.292H133.243V111.326Z" fill="#CCCCCC"/>
<path d="M133.243 121.763H94.9521V125.729H133.243V121.763Z" fill="#CCCCCC"/>
<path d="M63.1508 107.999C62.9094 107.999 62.6733 107.928 62.4715 107.796L10.8082 73.585C10.5608 73.4223 10.38 73.176 10.299 72.8911C10.218 72.6062 10.2421 72.3017 10.367 72.0331C10.4646 71.8167 10.6229 71.6331 10.8226 71.5046C11.0223 71.3762 11.255 71.3083 11.4925 71.3092C11.6065 71.3107 11.7199 71.3275 11.8296 71.3588L71.3614 88.3254C71.5325 88.375 71.6909 88.4608 71.826 88.5769C71.9611 88.693 72.0696 88.8368 72.1444 88.9985C72.2191 89.1602 72.2582 89.336 72.2592 89.5142C72.2601 89.6923 72.2228 89.8685 72.1497 90.031L64.2812 107.27C64.2069 107.433 64.0978 107.578 63.9617 107.695C63.8255 107.811 63.6655 107.896 63.4929 107.945C63.3824 107.98 63.267 107.999 63.1508 107.999Z" fill="white"/>
<path d="M11.492 72.5536L71.0188 89.5252L63.1503 106.76L11.492 72.5487V72.5536ZM11.492 70.0696C11.0181 70.0699 10.5543 70.2059 10.1553 70.4616C9.7564 70.7173 9.4391 71.082 9.24103 71.5125C8.99345 72.05 8.94634 72.6583 9.1082 73.2276C9.27006 73.7968 9.63022 74.2894 10.1236 74.6162L61.7819 108.827C62.1892 109.097 62.667 109.24 63.1553 109.239C63.6297 109.238 64.0939 109.101 64.4929 108.845C64.8919 108.588 65.2089 108.222 65.4063 107.791L73.2648 90.5515C73.4127 90.2272 73.4889 89.8747 73.4882 89.5182C73.4875 89.1617 73.4099 88.8095 73.2607 88.4857C73.1115 88.162 72.8942 87.8742 72.6237 87.642C72.3532 87.4098 72.0358 87.2387 71.6931 87.1404L12.1613 70.1688C11.9398 70.1087 11.7116 70.077 11.4821 70.0746L11.492 70.0696Z" fill="#CCCCCC"/>
<path d="M58.8066 107.9C58.5986 107.892 58.3957 107.833 58.2169 107.726C58.038 107.62 57.8888 107.47 57.7831 107.291C57.6773 107.111 57.6185 106.908 57.6119 106.7C57.6054 106.492 57.6513 106.286 57.7456 106.1L62.426 97.3936C62.5587 97.1469 62.771 96.9524 63.0284 96.8418C63.2858 96.7313 63.5731 96.7112 63.8434 96.7848C64.1137 96.8584 64.3511 97.0214 64.5169 97.2472C64.6827 97.4731 64.7671 97.7484 64.7563 98.0283L64.3894 106.834C64.3779 107.153 64.2427 107.456 64.0124 107.678C63.7821 107.9 63.4747 108.024 63.1549 108.024L58.8066 107.9Z" fill="white"/>
<path d="M63.5172 97.9539L63.1503 106.759L58.8368 106.66L63.5172 97.9539ZM63.5172 95.4749C63.0697 95.4751 62.6307 95.5964 62.2466 95.826C61.8625 96.0556 61.5477 96.3848 61.3357 96.7788L56.6552 105.49C56.4552 105.864 56.3541 106.282 56.3617 106.705C56.3693 107.129 56.4853 107.543 56.6986 107.909C56.9119 108.275 57.2154 108.581 57.5802 108.796C57.9449 109.011 58.3588 109.129 58.7822 109.139L63.0958 109.239H63.1553C63.7951 109.239 64.4104 108.992 64.8724 108.55C65.3344 108.107 65.6074 107.503 65.6343 106.864L66.0012 98.0581C66.0153 97.7239 65.9615 97.3902 65.8433 97.0773C65.725 96.7644 65.5446 96.4787 65.313 96.2374C65.0814 95.996 64.8033 95.8041 64.4955 95.673C64.1878 95.542 63.8567 95.4746 63.5222 95.4749H63.5172Z" fill="#CCCCCC"/>
<path d="M61.0485 109.61C60.7866 109.609 60.5318 109.526 60.3196 109.372L10.7635 73.5601C10.5131 73.3777 10.3398 73.1083 10.2774 72.8048C10.2151 72.5013 10.2682 72.1855 10.4264 71.919C10.5367 71.7348 10.6929 71.5822 10.8797 71.4762C11.0665 71.3703 11.2776 71.3144 11.4924 71.3141C11.6802 71.3131 11.8656 71.3573 12.0328 71.443L64.063 96.8383C64.3154 96.9631 64.5181 97.1698 64.6379 97.4247C64.7577 97.6796 64.7875 97.9675 64.7224 98.2415L62.2434 108.654C62.1962 108.852 62.101 109.036 61.9662 109.189C61.8313 109.342 61.6609 109.459 61.4699 109.531C61.3347 109.58 61.1923 109.607 61.0485 109.61V109.61Z" fill="white"/>
<path d="M11.4921 72.5536L63.5173 97.9539L61.0383 108.366L11.4821 72.5487L11.4921 72.5536ZM11.4821 70.0696C11.0537 70.0696 10.6326 70.1805 10.2598 70.3917C9.88703 70.6028 9.57533 70.907 9.35512 71.2745C9.03501 71.8072 8.92666 72.4407 9.05155 73.0495C9.17643 73.6583 9.52544 74.198 10.0294 74.5617L59.6103 110.374C59.9408 110.612 60.325 110.766 60.7288 110.82C61.1326 110.875 61.5437 110.829 61.9256 110.687C62.3075 110.545 62.6484 110.31 62.9183 110.005C63.1881 109.7 63.3785 109.333 63.4727 108.936L65.9517 98.5241C66.0817 97.9757 66.0209 97.3994 65.7793 96.8901C65.5378 96.3809 65.1299 95.9691 64.623 95.7228L12.5779 70.3275C12.2398 70.1618 11.8685 70.0754 11.4921 70.0746L11.4821 70.0696Z" fill="#CCCCCC"/>
<path d="M40.9627 124.271C40.8795 124.27 40.7966 124.262 40.7148 124.247C40.5447 124.211 40.384 124.14 40.243 124.039C40.1021 123.937 39.9841 123.807 39.8967 123.657L10.4209 73.1783C10.277 72.9332 10.2221 72.6459 10.2654 72.365C10.3088 72.0841 10.4478 71.8267 10.6589 71.6364C10.8863 71.4283 11.1836 71.3133 11.4918 71.3141C11.7522 71.3148 12.0057 71.3981 12.2157 71.5521L61.7619 107.25C61.9159 107.366 62.0408 107.516 62.1269 107.688C62.2129 107.86 62.2577 108.05 62.2577 108.242C62.2577 108.434 62.2129 108.624 62.1269 108.796C62.0408 108.968 61.9159 109.118 61.7619 109.234L41.6916 124.019C41.4812 124.177 41.2262 124.266 40.9627 124.271V124.271Z" fill="white"/>
<path d="M11.492 72.5536L61.0382 108.252L40.9629 123.037L11.492 72.5585V72.5536ZM11.492 70.0795C10.8759 70.0799 10.282 70.3097 9.82612 70.7241C9.40229 71.1032 9.12171 71.6166 9.03144 72.1781C8.94116 72.7396 9.04669 73.315 9.33031 73.808L38.8062 124.286C38.9815 124.586 39.2177 124.845 39.4995 125.048C39.7814 125.25 40.1026 125.391 40.4423 125.461C40.7845 125.536 41.1387 125.536 41.4809 125.462C41.8232 125.387 42.1453 125.24 42.4256 125.03L62.4959 110.245C62.8114 110.015 63.0681 109.714 63.2451 109.365C63.4221 109.017 63.5143 108.632 63.5143 108.242C63.5143 107.851 63.4221 107.466 63.2451 107.118C63.0681 106.77 62.8114 106.469 62.4959 106.239L12.9497 70.5406C12.5325 70.225 12.0251 70.0512 11.502 70.0448L11.492 70.0795Z" fill="#CCCCCC"/>
<path d="M63.1503 107.007C63.1029 107.007 63.0566 106.993 63.0164 106.968L11.3531 72.7569C11.3046 72.723 11.2693 72.6735 11.2531 72.6166C11.2368 72.5597 11.2406 72.499 11.2638 72.4446C11.2849 72.4019 11.3173 72.3659 11.3576 72.3405C11.3978 72.3151 11.4443 72.3014 11.4919 72.3008H11.5613L71.0882 89.2674C71.1232 89.2775 71.1556 89.2951 71.183 89.3191C71.2104 89.3431 71.2322 89.3728 71.2468 89.4062C71.2615 89.4381 71.2691 89.4728 71.2691 89.5079C71.2691 89.543 71.2615 89.5776 71.2468 89.6095L63.3783 106.849C63.3629 106.881 63.3407 106.91 63.3134 106.933C63.286 106.956 63.2541 106.973 63.2197 106.983L63.1503 107.007Z" fill="white"/>
<path d="M11.4919 72.5536L71.0188 89.5252L63.1503 106.759L11.4919 72.5487V72.5536ZM11.4919 72.0529C11.3966 72.0531 11.3033 72.0808 11.2233 72.1327C11.1432 72.1846 11.0799 72.2584 11.0408 72.3454C10.9917 72.453 10.9827 72.5746 11.0155 72.6883C11.0482 72.8019 11.1205 72.9002 11.2192 72.9652L62.8776 107.176C62.9599 107.226 63.054 107.253 63.1503 107.255C63.1962 107.263 63.2431 107.263 63.2891 107.255C63.3573 107.236 63.4205 107.202 63.4744 107.155C63.5283 107.109 63.5716 107.052 63.6015 106.988L71.47 89.7384C71.4994 89.6738 71.5147 89.6036 71.5147 89.5326C71.5147 89.4616 71.4994 89.3915 71.47 89.3269C71.4407 89.2616 71.3976 89.2033 71.3437 89.1563C71.2897 89.1092 71.2263 89.0744 71.1576 89.0542L11.6258 72.0876C11.5813 72.0828 11.5364 72.0828 11.4919 72.0876V72.0529Z" fill="#CCCCCC"/>
<path d="M58.8319 106.908C58.7899 106.907 58.7489 106.895 58.7127 106.874C58.6766 106.853 58.6464 106.822 58.6251 106.786C58.6038 106.75 58.592 106.709 58.5909 106.667C58.5898 106.625 58.5993 106.584 58.6187 106.546L63.2991 97.835C63.3209 97.7962 63.3526 97.7639 63.3909 97.7412C63.4292 97.7186 63.4728 97.7065 63.5172 97.7061H63.5817C63.6362 97.7198 63.6844 97.752 63.7178 97.7972C63.7513 97.8424 63.768 97.8978 63.7652 97.954L63.3983 106.76C63.3957 106.824 63.3684 106.884 63.3222 106.928C63.276 106.973 63.2144 106.998 63.1503 106.998L58.8319 106.908Z" fill="white"/>
<path d="M63.5173 97.9539L63.1504 106.76L58.8369 106.66L63.5173 97.9539ZM63.5173 97.4581C63.4276 97.4584 63.3397 97.483 63.2628 97.5292C63.186 97.5755 63.1232 97.6418 63.081 97.7209L58.3906 106.427C58.3471 106.503 58.3242 106.588 58.3242 106.675C58.3242 106.762 58.3471 106.848 58.3906 106.923C58.4337 106.996 58.4945 107.056 58.5674 107.099C58.6402 107.141 58.7228 107.164 58.8071 107.166L63.1207 107.265C63.2522 107.265 63.3783 107.213 63.4713 107.12C63.5642 107.027 63.6165 106.901 63.6165 106.769L63.9834 97.9639C63.9872 97.8519 63.953 97.742 63.8864 97.652C63.8198 97.562 63.7246 97.4971 63.6165 97.4681C63.5738 97.4606 63.5302 97.4606 63.4876 97.4681L63.5173 97.4581Z" fill="#CCCCCC"/>
<path d="M61.0483 108.619C60.9949 108.618 60.9431 108.6 60.8996 108.569L11.3484 72.757C11.2972 72.7217 11.2614 72.6681 11.2485 72.6072C11.2355 72.5463 11.2465 72.4828 11.279 72.4297C11.3007 72.3923 11.3317 72.3611 11.3691 72.3394C11.4065 72.3176 11.449 72.306 11.4922 72.3058C11.5298 72.307 11.5669 72.3154 11.6013 72.3306L63.6266 97.7309C63.6773 97.7562 63.7181 97.7978 63.7424 97.849C63.7667 97.9003 63.773 97.9582 63.7604 98.0135L61.2814 108.425C61.2727 108.465 61.254 108.502 61.2271 108.532C61.2002 108.563 61.166 108.586 61.1277 108.599C61.1024 108.61 61.0757 108.616 61.0483 108.619V108.619Z" fill="white"/>
<path d="M11.4925 72.5536L63.5178 97.9539L61.0387 108.366L11.4826 72.5487L11.4925 72.5536ZM11.4826 72.0529C11.3966 72.0529 11.312 72.0753 11.2372 72.1179C11.1625 72.1605 11.1001 72.2218 11.0562 72.2958C10.993 72.402 10.9716 72.528 10.9964 72.649C11.0211 72.7701 11.0902 72.8775 11.1901 72.9503L60.771 108.768C60.8371 108.814 60.9137 108.844 60.9941 108.855C61.0745 108.865 61.1562 108.856 61.2321 108.827C61.3087 108.799 61.3772 108.753 61.4317 108.693C61.4862 108.632 61.5249 108.559 61.5444 108.48L64.0235 98.068C64.0497 97.9587 64.038 97.8436 63.9902 97.7418C63.9425 97.64 63.8616 97.5575 63.7607 97.5077L11.7355 72.1074C11.6668 72.0764 11.5926 72.0595 11.5173 72.0578L11.4826 72.0529Z" fill="#CCCCCC"/>
<path d="M40.963 123.28H40.9134C40.8794 123.272 40.8473 123.258 40.8192 123.238C40.791 123.217 40.7674 123.191 40.7498 123.161L11.2888 72.6826C11.2598 72.6332 11.2483 72.5754 11.2564 72.5186C11.2646 72.4619 11.2917 72.4095 11.3335 72.3702C11.3807 72.3302 11.4402 72.3075 11.502 72.3058C11.5538 72.3078 11.6038 72.325 11.6458 72.3554L61.192 108.054C61.2238 108.077 61.2497 108.108 61.2678 108.143C61.2859 108.178 61.2956 108.217 61.2961 108.257C61.296 108.296 61.2864 108.334 61.2683 108.369C61.2502 108.403 61.224 108.433 61.192 108.455L41.1217 123.24C41.0742 123.27 41.0187 123.284 40.963 123.28V123.28Z" fill="white"/>
<path d="M11.4917 72.5536L61.0379 108.252L40.9626 123.037L11.4917 72.5586V72.5536ZM11.4917 72.0628C11.3688 72.0631 11.2505 72.109 11.1595 72.1917C11.074 72.2677 11.0175 72.3709 10.9994 72.4839C10.9813 72.5968 11.0029 72.7125 11.0604 72.8114L40.5412 123.28C40.5759 123.34 40.623 123.393 40.6794 123.434C40.7358 123.475 40.8002 123.503 40.8684 123.518H40.9676C41.0748 123.518 41.1792 123.483 41.265 123.419L61.3354 108.634C61.3986 108.587 61.4499 108.527 61.4852 108.457C61.5206 108.387 61.5389 108.31 61.5387 108.232C61.5375 108.154 61.5181 108.078 61.4819 108.009C61.4457 107.94 61.3938 107.881 61.3304 107.835L11.7842 72.1371C11.7005 72.0765 11.6 72.0436 11.4967 72.043L11.4917 72.0628Z" fill="#CCCCCC"/>
<path d="M145.737 137.103C145.622 137.101 145.507 137.085 145.395 137.053C145.223 137.004 145.064 136.918 144.928 136.8C144.793 136.683 144.685 136.538 144.612 136.374L138.796 123.642C138.723 123.479 138.686 123.303 138.687 123.125C138.687 122.947 138.727 122.771 138.801 122.609C138.876 122.448 138.985 122.304 139.12 122.188C139.255 122.072 139.413 121.986 139.584 121.936L183.563 109.402C183.672 109.372 183.786 109.357 183.9 109.358C184.165 109.358 184.424 109.444 184.637 109.603C184.85 109.762 185.006 109.985 185.083 110.239C185.16 110.494 185.153 110.766 185.063 111.016C184.973 111.266 184.805 111.481 184.584 111.628L146.407 136.915C146.206 137.04 145.974 137.105 145.737 137.103V137.103Z" fill="white"/>
<path d="M183.9 110.597L145.722 135.883L139.911 123.146L183.885 110.617L183.9 110.597ZM183.885 108.138C183.789 108.133 183.693 108.133 183.597 108.138C183.445 108.154 183.296 108.186 183.151 108.232L139.232 120.751C138.889 120.849 138.571 121.02 138.3 121.252C138.029 121.484 137.811 121.771 137.661 122.095C137.512 122.419 137.434 122.771 137.433 123.128C137.432 123.485 137.508 123.838 137.655 124.162L143.466 136.895C143.615 137.221 143.834 137.511 144.106 137.745C144.378 137.978 144.698 138.15 145.043 138.248C145.387 138.35 145.748 138.374 146.102 138.319C146.456 138.264 146.794 138.132 147.091 137.931L185.213 112.694C185.653 112.417 185.994 112.009 186.188 111.527C186.383 111.045 186.421 110.515 186.298 110.01C186.175 109.505 185.896 109.052 185.501 108.714C185.106 108.377 184.616 108.172 184.098 108.128H183.885V108.138Z" fill="#CCCCCC"/>
<path d="M145.738 137.103C145.418 137.102 145.11 136.978 144.88 136.756C144.649 136.535 144.512 136.233 144.498 135.913L144.23 129.408C144.219 129.128 144.304 128.853 144.469 128.627C144.635 128.401 144.872 128.237 145.143 128.164C145.249 128.132 145.359 128.117 145.47 128.119C145.693 128.119 145.913 128.179 146.105 128.293C146.297 128.408 146.454 128.572 146.561 128.768L150.031 135.214C150.136 135.398 150.191 135.607 150.191 135.819C150.191 136.031 150.136 136.239 150.031 136.424C149.925 136.607 149.773 136.759 149.591 136.867C149.409 136.974 149.202 137.034 148.99 137.039L145.738 137.103Z" fill="white"/>
<path d="M145.47 129.358L148.941 135.804L145.753 135.878L145.485 129.373L145.47 129.358ZM145.485 126.894C145.151 126.894 144.82 126.961 144.513 127.092C144.205 127.223 143.928 127.414 143.696 127.655C143.464 127.896 143.284 128.181 143.165 128.493C143.047 128.806 142.993 129.139 143.006 129.473L143.279 135.978C143.304 136.618 143.577 137.223 144.039 137.667C144.501 138.11 145.117 138.358 145.758 138.357H145.817L149.005 138.288C149.429 138.279 149.844 138.16 150.209 137.945C150.575 137.729 150.879 137.423 151.092 137.057C151.306 136.69 151.421 136.275 151.428 135.85C151.435 135.426 151.333 135.007 151.132 134.634L147.662 128.188C147.449 127.794 147.135 127.465 146.751 127.236C146.366 127.006 145.927 126.885 145.48 126.884L145.485 126.894Z" fill="#CCCCCC"/>
<path d="M147.294 138.288C147.147 138.289 147 138.262 146.863 138.209C146.672 138.138 146.502 138.022 146.367 137.869C146.232 137.717 146.136 137.534 146.089 137.336L144.265 129.641C144.2 129.368 144.23 129.081 144.35 128.827C144.47 128.573 144.672 128.367 144.924 128.243L183.335 109.481C183.505 109.4 183.691 109.358 183.88 109.358C184.141 109.358 184.396 109.441 184.608 109.595C184.819 109.748 184.976 109.965 185.057 110.214C185.138 110.462 185.138 110.73 185.058 110.979C184.977 111.228 184.82 111.445 184.609 111.599L148.003 138.055C147.796 138.202 147.549 138.284 147.294 138.288V138.288Z" fill="white"/>
<path d="M183.9 110.597L147.294 137.049L145.47 129.359L183.9 110.597ZM183.9 108.118C183.523 108.119 183.152 108.205 182.814 108.371L144.384 127.132C143.877 127.379 143.469 127.79 143.227 128.3C142.986 128.809 142.925 129.385 143.055 129.934L144.885 137.629C144.979 138.025 145.17 138.391 145.44 138.696C145.71 139.001 146.052 139.234 146.433 139.376C146.815 139.518 147.226 139.563 147.629 139.508C148.033 139.453 148.417 139.3 148.747 139.062L185.353 112.61C185.779 112.304 186.097 111.87 186.261 111.371C186.425 110.872 186.426 110.334 186.264 109.834C186.103 109.335 185.787 108.899 185.362 108.591C184.937 108.282 184.425 108.117 183.9 108.118Z" fill="#CCCCCC"/>
<path d="M162.129 149.121C161.864 149.121 161.607 149.036 161.395 148.878L146.565 137.971C146.411 137.855 146.286 137.706 146.2 137.533C146.114 137.361 146.069 137.171 146.069 136.979C146.069 136.787 146.114 136.597 146.2 136.425C146.286 136.253 146.411 136.103 146.565 135.987L183.176 109.571C183.406 109.405 183.686 109.324 183.969 109.339C184.252 109.354 184.521 109.466 184.733 109.655C184.944 109.846 185.083 110.104 185.127 110.386C185.17 110.668 185.115 110.956 184.971 111.202L163.2 148.487C163.111 148.637 162.992 148.766 162.851 148.867C162.709 148.968 162.547 149.038 162.376 149.072C162.296 149.099 162.213 149.115 162.129 149.121Z" fill="white"/>
<path d="M183.9 110.597L162.129 147.882L147.3 136.974L183.9 110.612V110.597ZM183.9 108.133C183.381 108.133 182.874 108.296 182.453 108.599L145.852 134.961C145.535 135.191 145.278 135.493 145.1 135.841C144.923 136.19 144.83 136.576 144.83 136.967C144.83 137.358 144.923 137.744 145.1 138.092C145.278 138.441 145.535 138.742 145.852 138.972L160.677 149.88C161.106 150.202 161.628 150.376 162.164 150.376C162.331 150.375 162.497 150.357 162.66 150.321C163 150.251 163.323 150.111 163.605 149.908C163.888 149.706 164.125 149.446 164.301 149.146L186.072 111.861C186.292 111.485 186.408 111.057 186.41 110.62C186.411 110.184 186.298 109.755 186.08 109.377C185.863 108.999 185.55 108.685 185.172 108.466C184.795 108.248 184.366 108.133 183.93 108.133H183.9Z" fill="#CCCCCC"/>
<path d="M145.738 136.111H145.668C145.634 136.101 145.602 136.084 145.576 136.06C145.549 136.036 145.528 136.006 145.515 135.973L139.704 123.23C139.688 123.198 139.68 123.162 139.68 123.126C139.68 123.09 139.688 123.055 139.704 123.022C139.718 122.99 139.739 122.961 139.766 122.938C139.792 122.915 139.824 122.898 139.857 122.888L183.831 110.354H183.9C183.947 110.354 183.993 110.367 184.033 110.393C184.073 110.418 184.104 110.455 184.123 110.498C184.149 110.551 184.154 110.611 184.139 110.667C184.123 110.724 184.088 110.773 184.039 110.805L145.862 136.092C145.823 136.109 145.78 136.116 145.738 136.111V136.111Z" fill="white"/>
<path d="M183.9 110.597L145.722 135.883L139.911 123.146L183.885 110.617L183.9 110.597ZM183.885 110.121H183.83H183.736L139.777 122.65C139.708 122.669 139.644 122.703 139.59 122.75C139.535 122.796 139.491 122.854 139.461 122.919C139.431 122.984 139.415 123.055 139.415 123.127C139.415 123.198 139.43 123.269 139.46 123.334L145.271 136.067C145.301 136.133 145.345 136.191 145.4 136.238C145.454 136.285 145.519 136.32 145.588 136.339C145.633 136.344 145.678 136.344 145.722 136.339C145.819 136.339 145.914 136.309 145.995 136.255L184.172 110.999C184.244 110.954 184.303 110.892 184.343 110.818C184.384 110.744 184.405 110.661 184.405 110.577C184.405 110.446 184.353 110.32 184.26 110.227C184.167 110.134 184.041 110.081 183.909 110.081L183.885 110.121Z" fill="#CCCCCC"/>
<path d="M145.738 136.111C145.673 136.112 145.612 136.087 145.566 136.042C145.519 135.998 145.492 135.938 145.49 135.874L145.222 129.368C145.22 129.312 145.237 129.256 145.27 129.21C145.303 129.164 145.351 129.131 145.405 129.116H145.47C145.514 129.115 145.558 129.127 145.597 129.149C145.635 129.172 145.667 129.205 145.688 129.245L149.159 135.69C149.179 135.727 149.19 135.769 149.19 135.812C149.19 135.854 149.179 135.896 149.159 135.933C149.137 135.97 149.107 136 149.071 136.022C149.034 136.044 148.993 136.056 148.95 136.057L145.738 136.111Z" fill="white"/>
<path d="M145.47 129.359L148.94 135.804L145.752 135.878L145.484 129.373L145.47 129.359ZM145.484 128.878H145.351C145.243 128.908 145.149 128.973 145.084 129.063C145.018 129.153 144.985 129.262 144.989 129.373L145.256 135.878C145.256 136.01 145.309 136.136 145.402 136.229C145.495 136.322 145.621 136.374 145.752 136.374L148.935 136.3C149.021 136.298 149.105 136.275 149.179 136.231C149.253 136.188 149.314 136.126 149.357 136.052C149.4 135.977 149.423 135.891 149.423 135.804C149.423 135.717 149.4 135.632 149.357 135.556L145.886 129.111C145.843 129.032 145.78 128.967 145.703 128.922C145.627 128.876 145.539 128.853 145.45 128.853L145.484 128.878Z" fill="#CCCCCC"/>
<path d="M147.294 137.296C147.266 137.302 147.238 137.302 147.21 137.296C147.171 137.283 147.137 137.259 147.109 137.229C147.082 137.199 147.062 137.163 147.051 137.123L145.227 129.403C145.214 129.349 145.221 129.291 145.245 129.241C145.27 129.191 145.31 129.15 145.361 129.126L183.791 110.364C183.827 110.355 183.864 110.355 183.9 110.364C183.943 110.363 183.985 110.374 184.022 110.395C184.06 110.416 184.091 110.446 184.113 110.483C184.144 110.536 184.155 110.6 184.142 110.66C184.129 110.721 184.094 110.774 184.044 110.81L147.438 137.267C147.394 137.291 147.344 137.301 147.294 137.296V137.296Z" fill="white"/>
<path d="M183.9 110.597L147.295 137.048L145.47 129.358L183.9 110.597ZM183.9 110.101C183.824 110.102 183.75 110.121 183.682 110.156L145.252 128.907C145.151 128.957 145.07 129.04 145.023 129.141C144.975 129.243 144.963 129.358 144.989 129.468L146.814 137.158C146.832 137.237 146.87 137.311 146.923 137.372C146.977 137.433 147.045 137.481 147.121 137.51C147.177 137.529 147.236 137.539 147.295 137.539C147.4 137.54 147.502 137.507 147.587 137.445L184.193 110.994C184.294 110.921 184.364 110.812 184.389 110.69C184.414 110.568 184.391 110.441 184.327 110.334C184.283 110.26 184.22 110.199 184.146 110.156C184.071 110.114 183.986 110.091 183.9 110.091V110.101Z" fill="#CCCCCC"/>
<path d="M162.129 148.13C162.076 148.128 162.024 148.111 161.981 148.08L147.156 137.172C147.124 137.15 147.098 137.12 147.08 137.086C147.061 137.051 147.052 137.013 147.052 136.974C147.052 136.934 147.062 136.896 147.08 136.86C147.098 136.825 147.124 136.794 147.156 136.771L183.756 110.409C183.799 110.38 183.849 110.364 183.9 110.364C183.944 110.364 183.986 110.376 184.024 110.398C184.061 110.42 184.092 110.451 184.114 110.489C184.135 110.526 184.147 110.569 184.147 110.612C184.147 110.656 184.135 110.698 184.113 110.736L162.343 148.021C162.325 148.051 162.301 148.077 162.273 148.097C162.245 148.118 162.213 148.132 162.179 148.14L162.129 148.13Z" fill="white"/>
<path d="M183.9 110.597L162.129 147.882L147.299 136.974L183.9 110.612V110.597ZM183.9 110.116C183.797 110.115 183.697 110.147 183.612 110.205L147.012 136.572C146.948 136.618 146.897 136.679 146.861 136.749C146.825 136.818 146.807 136.896 146.807 136.974C146.807 137.052 146.825 137.13 146.861 137.2C146.897 137.269 146.948 137.33 147.012 137.376L161.841 148.283C161.926 148.347 162.028 148.382 162.134 148.383H162.233C162.301 148.368 162.366 148.34 162.422 148.299C162.478 148.258 162.526 148.205 162.56 148.145L184.331 110.86C184.375 110.785 184.398 110.699 184.398 110.613C184.398 110.526 184.375 110.441 184.332 110.365C184.289 110.29 184.227 110.227 184.152 110.184C184.077 110.14 183.992 110.117 183.905 110.116H183.9Z" fill="#CCCCCC"/>
</g>
<defs>
<filter id="filter0_d_2302_10443" x="0" y="0" width="231.464" height="173.664" filterUnits="userSpaceOnUse" color-interpolation-filters="sRGB">
<feFlood flood-opacity="0" result="BackgroundImageFix"/>
<feColorMatrix in="SourceAlpha" type="matrix" values="0 0 0 0 0 0 0 0 0 0 0 0 0 0 0 0 0 0 127 0" result="hardAlpha"/>
<feOffset dy="7"/>
<feGaussianBlur stdDeviation="4.5"/>
<feComposite in2="hardAlpha" operator="out"/>
<feColorMatrix type="matrix" values="0 0 0 0 0 0 0 0 0 0 0 0 0 0 0 0 0 0 0.11 0"/>
<feBlend mode="normal" in2="BackgroundImageFix" result="effect1_dropShadow_2302_10443"/>
<feBlend mode="normal" in="SourceGraphic" in2="effect1_dropShadow_2302_10443" result="shape"/>
</filter>
</defs>
</svg>
