<svg width="41" height="42" viewBox="0 0 41 42" fill="none" xmlns="http://www.w3.org/2000/svg">
<path d="M6.78001 29V20.2727H8.62518V23.8736H12.3709V20.2727H14.2118V29H12.3709V25.3949H8.62518V29H6.78001ZM23.753 24.6364C23.753 25.5881 23.5726 26.3977 23.2118 27.0653C22.8539 27.733 22.3652 28.2429 21.7459 28.5952C21.1294 28.9446 20.4363 29.1193 19.6664 29.1193C18.8908 29.1193 18.1948 28.9432 17.5783 28.5909C16.9618 28.2386 16.4746 27.7287 16.1167 27.0611C15.7587 26.3935 15.5797 25.5852 15.5797 24.6364C15.5797 23.6847 15.7587 22.875 16.1167 22.2074C16.4746 21.5398 16.9618 21.0312 17.5783 20.6818C18.1948 20.3295 18.8908 20.1534 19.6664 20.1534C20.4363 20.1534 21.1294 20.3295 21.7459 20.6818C22.3652 21.0312 22.8539 21.5398 23.2118 22.2074C23.5726 22.875 23.753 23.6847 23.753 24.6364ZM21.8823 24.6364C21.8823 24.0199 21.79 23.5 21.6053 23.0767C21.4235 22.6534 21.1664 22.3324 20.834 22.1136C20.5016 21.8949 20.1124 21.7855 19.6664 21.7855C19.2203 21.7855 18.8311 21.8949 18.4988 22.1136C18.1664 22.3324 17.9078 22.6534 17.7232 23.0767C17.5414 23.5 17.4505 24.0199 17.4505 24.6364C17.4505 25.2528 17.5414 25.7727 17.7232 26.196C17.9078 26.6193 18.1664 26.9403 18.4988 27.1591C18.8311 27.3778 19.2203 27.4872 19.6664 27.4872C20.1124 27.4872 20.5016 27.3778 20.834 27.1591C21.1664 26.9403 21.4235 26.6193 21.6053 26.196C21.79 25.7727 21.8823 25.2528 21.8823 24.6364ZM24.389 21.794V20.2727H31.5566V21.794H28.8848V29H27.0609V21.794H24.389Z" fill="#FF0000"/>
<path d="M40.1288 21.1308C40.1288 20.9904 40.1288 20.8502 40.1288 20.7098V20.2889C40.1288 20.0083 39.9884 19.7277 39.9183 19.4611C39.7764 18.9166 39.5982 18.3823 39.3851 17.8616C38.9587 16.8286 38.4374 15.8375 37.8277 14.901C36.6877 13.1717 35.3242 11.6008 33.7727 10.2287C32.2531 8.86216 30.609 7.64076 28.8618 6.58057L27.613 5.86497L27.3044 5.6966L26.8835 5.17746C26.2337 4.43859 25.5252 3.75356 24.7648 3.12898C24.0161 2.51128 23.2235 1.94855 22.3935 1.44524C21.9726 1.19268 21.5516 0.954139 21.1166 0.729642L20.4713 0.406955L19.8399 0.126317L19.5172 0H19.3627H19.2787L18.8016 0.350776L18.5771 0.547232C18.4957 0.610009 18.4204 0.680524 18.3526 0.757732L18.1421 0.982191L18.058 1.09446V1.17865C17.9738 1.27686 17.9176 1.38907 17.8475 1.48729C17.6007 1.89397 17.3895 2.3212 17.2161 2.76416C16.9014 3.5909 16.6481 4.43975 16.4584 5.30378C16.262 6.14564 16.1217 6.98749 16.0095 7.82935V8.20822L15.4061 8.3204C13.675 8.70248 12.0168 9.36105 10.4952 10.2707L9.93392 10.6075L9.52697 10.86L9.26046 10.6777L8.97991 10.4953L8.43268 10.1585L7.8714 9.82174L7.59085 9.66741L7.29608 9.51309C6.50716 9.09062 5.68038 8.74302 4.8266 8.47481C4.36799 8.3374 3.89864 8.2388 3.42349 8.18013H3.17103H2.86222C2.66604 8.16593 2.4692 8.16593 2.27302 8.18013L1.6977 8.27835V8.34849V8.47481L1.59956 8.75536L1.38906 9.30259C1.31941 9.46 1.26766 9.62478 1.23474 9.79373C1.23474 10.0042 1.13656 10.2286 1.09446 10.4391L0.982105 11.0986L0.898008 11.744C0.799791 12.5999 0.729615 13.4558 0.701553 14.2976C0.67349 15.1395 0.701553 15.9954 0.701553 16.8513V18.1141V18.7595V19.0823C0.463025 20.7379 0.266542 22.3936 0.126232 24.0773V24.3158C0.126232 25.2138 0.0140311 26.0978 0 27.0098V28.4129C0.0213168 28.8834 0.0728498 29.3521 0.154321 29.816V30.0265C0.150102 30.1013 0.150102 30.1762 0.154321 30.2509V30.3351V30.4755L0.308642 31.163C0.308642 31.3875 0.448973 31.612 0.505097 31.8365C0.561221 32.061 0.645456 32.2855 0.729642 32.51L0.99615 33.1835L1.30479 33.8289C1.40048 34.0478 1.51306 34.2589 1.64152 34.4603C1.75277 34.6675 1.87454 34.8688 2.00634 35.0636C3.06585 36.6651 4.47676 38.004 6.13156 38.9783C7.75262 39.9195 9.51518 40.5923 11.3511 40.9707C12.5052 41.2169 13.6792 41.3578 14.8588 41.3916H14.9571C15.813 41.3916 16.6408 41.3916 17.4826 41.3916C19.3319 41.3057 21.1713 41.0711 22.9829 40.69C23.4459 40.6059 23.8949 40.4796 24.386 40.3814L25.0594 40.185L25.3962 40.1008L25.7189 39.9885C26.615 39.7138 27.4956 39.3906 28.3567 39.0204L29.1144 38.6836L29.872 38.3048L30.0965 38.1785L30.6578 37.8137L31.0367 37.5752L31.4436 37.2805L31.8645 36.9719L32.2855 36.6351L32.7063 36.2983L33.0992 35.9475C33.3518 35.723 33.5762 35.5266 33.7586 35.3302C33.9482 35.154 34.1219 34.9616 34.2778 34.7549C34.4742 34.5304 34.6426 34.2919 34.811 34.0954L35.0215 33.7868L35.2039 33.5062L35.5968 33.1835C36.0557 32.793 36.4913 32.3761 36.9016 31.9347C37.3085 31.4857 37.7014 31.0086 38.0382 30.5316C38.3749 30.0545 38.6275 29.6897 38.8099 29.4091L39.0905 28.932C39.3662 28.3681 39.6052 27.7869 39.8061 27.1922V27.0379C39.8903 26.7713 39.9743 26.5047 40.0445 26.224C40.1911 25.6788 40.3082 25.1262 40.3953 24.5684C40.464 23.4157 40.3744 22.2591 40.1288 21.1308ZM38.0803 24.2457C38.0085 24.7186 37.91 25.187 37.7855 25.6488C37.7855 25.8733 37.6454 26.1118 37.5752 26.3363V26.4766C37.491 26.6871 37.4208 26.9116 37.3226 27.122L37.1963 27.4447L37.042 27.7675L36.9577 27.9779L36.7332 28.5392C36.5227 28.9882 36.2141 29.5915 35.8773 30.1668C35.2179 31.3173 34.39 32.3697 34.4742 32.2995C34.1234 32.7766 33.8148 33.2116 33.5903 33.5623L33.2254 33.8289L32.5379 34.2919L32.3696 34.4182L32.1871 34.5305L31.8223 34.7549L31.4575 34.9934L31.0929 35.1899L30.3913 35.5828L29.7738 35.8915L29.2828 36.13L28.9461 36.2844H28.8337L28.034 36.6912L27.2203 37.0561C23.9982 38.3748 20.5689 39.1157 17.0897 39.2449C16.0054 39.301 14.9189 39.301 13.8346 39.2449C13.0518 39.1829 12.2737 39.0704 11.5054 38.9082C9.88756 38.5802 8.33338 37.9925 6.90317 37.1682C5.51407 36.3506 4.32904 35.2279 3.43754 33.885C3.32529 33.7307 3.22711 33.5483 3.1289 33.3799C3.03068 33.2116 2.93253 33.0291 2.84834 32.8467L2.59571 32.2995L2.37117 31.7382C2.29108 31.5518 2.22539 31.3595 2.17471 31.163C2.17471 30.9666 2.04844 30.7841 2.00634 30.5877L1.86607 29.9844V29.816C1.86607 29.816 1.86607 29.816 1.86607 29.7318V29.6196C1.79818 29.235 1.76071 28.8455 1.75388 28.455V27.8236C1.75388 27.6131 1.75388 27.4027 1.75388 27.1922C1.75388 26.3503 1.75382 25.4804 1.86607 24.6245V24.3158C1.99235 22.6882 2.17477 21.0606 2.4133 19.419V19.1243V18.8718C2.4133 18.7736 2.4133 18.6332 2.4133 18.6052V18.0019C2.4133 17.595 2.4133 17.1881 2.4133 16.7952C2.4133 15.9814 2.4133 15.1676 2.4133 14.3538C2.4133 13.54 2.51152 12.7543 2.59571 11.9545L2.67998 11.3792L2.77812 10.8039C2.77812 10.6075 2.86226 10.4251 2.90435 10.2427V10.1305C3.2619 10.1764 3.61426 10.2563 3.95668 10.369C4.69065 10.5922 5.40043 10.8883 6.07538 11.2529L6.34206 11.3932L6.59453 11.5336L7.09962 11.8282L7.60472 12.1509L7.85735 12.3053L8.10999 12.4736L9.10614 13.1611L9.23237 13.2453L9.485 13.0629L9.9901 12.6981L10.2566 12.5297L10.383 12.4316L10.6355 12.2772L11.1406 11.9826C12.4725 11.186 13.9214 10.6036 15.4342 10.2567H15.7147H15.8409H16.0514L17.3002 10.1305H17.4826V10.0182V9.70955C17.4826 9.49908 17.4826 9.2886 17.4826 9.07813V8.78345V8.50281V8.20822C17.5796 7.41535 17.7202 6.62843 17.9036 5.85101C18.058 5.08957 18.2786 4.34304 18.5631 3.62004C18.692 3.29027 18.8467 2.97125 19.026 2.66593L19.1665 2.46948L19.7416 2.75012C20.1345 2.94655 20.5134 3.17108 20.8923 3.39558C21.7187 3.76905 22.5201 4.19551 23.2915 4.67236C23.9543 5.23225 24.5777 5.83698 25.1576 6.48234L25.6067 7.04362L25.7189 7.16993V7.24007L26.0275 7.40844L26.3223 7.56276C26.7151 7.77322 27.1079 7.99769 27.4868 8.23622C29.1265 9.22925 30.6718 10.3705 32.1031 11.6458C33.5182 12.9055 34.7635 14.3441 35.8073 15.9253C36.3629 16.745 36.8331 17.6195 37.2104 18.535C37.393 18.993 37.5475 19.4615 37.6733 19.9382C37.6733 20.1767 37.7996 20.4012 37.8417 20.6397V20.9905C37.8484 21.1073 37.8484 21.2244 37.8417 21.3413C38.0624 22.3164 38.1475 23.3174 38.0943 24.3158L38.0803 24.2457Z" fill="#FF0000"/>
<path d="M3.08672 12.5435C2.95564 14.1296 3.05023 15.7263 3.36744 17.286C3.8568 16.3835 4.68432 15.7123 5.66838 15.4198L3.08672 12.5435Z" fill="#FF0000"/>
<path d="M24.5685 7.57647C24.5685 7.57647 22.0568 4.77026 21.1167 4.77026L21.5517 8.43235C22.5296 8.05705 23.5392 7.77061 24.5685 7.57647Z" fill="#FF0000"/>
</svg>
