<svg id="圖層_1_拷貝" data-name="圖層 1 拷貝" xmlns="http://www.w3.org/2000/svg" xmlns:xlink="http://www.w3.org/1999/xlink" viewBox="0 0 1712 764.85"><defs><style>.cls-1{fill:#fff;}.cls-2{fill:url(#未命名漸層_5);}.cls-3{fill:url(#未命名漸層_2);}</style><linearGradient id="未命名漸層_5" x1="-285.76" y1="303.38" x2="1852.28" y2="447.73" gradientUnits="userSpaceOnUse"><stop offset="0.13" stop-color="#3fc3ff" stop-opacity="0"/><stop offset="0.51" stop-color="#00afff"/></linearGradient><linearGradient id="未命名漸層_2" x1="-294.6" y1="448.7" x2="2056.68" y2="219.18" gradientUnits="userSpaceOnUse"><stop offset="0" stop-color="#01afff"/><stop offset="0.72" stop-color="#007cb5"/></linearGradient></defs><path class="cls-1" d="M2040.74,0h-78.63s-4.18,78.83-62.06,256.29-111.59,243.33-113.37,246.18c-51.57,82.51-224.5,239.38-528.77,239.38-353,0-830.15-258.06-1226-95-26.39,10.87-95.52,23.22-142.26-15.33-42.25-34.86-67.92-140.09-130.75-296.26C-307,171.46-340.5,0-340.5,0h-48.76V793.7h2430V0Z"/><path class="cls-2" d="M2040.74.13V0h-78.63s-4.18,78.83-62.06,256.29-111.59,243.33-113.37,246.18c-51.57,82.51-224.5,239.38-528.77,239.38-353,0-835.38-250.06-1231.26-87-26.39,10.87-90.29,15.22-137-23.33-42.25-34.86-67.92-140.09-130.75-296.26C-307,171.46-340.5,0-340.5,0h-50.11s43.14,304.85,101.72,450.18c90.43,224.37,110.86,257.21,152,301.21,13,13.93,65.64,32.69,78.09,25.57,417.87-239,988.45,8.67,1387.35-17.27C1646,739,1789.48,563.56,1839.51,486.51c1.54-2.36,91.47-133.82,136.23-265.66,41.76-123,64.62-215.17,65-220.62h0Z"/><path class="cls-3" d="M1962.11,0s-4.18,78.83-62.06,256.29-111.59,243.33-113.37,246.18c-51.57,82.51-224.5,239.38-528.77,239.38-353,0-798.91-259-1203.71-117-66,23.16-116.46,50.28-167.71-18-32.55-43.35-64.79-115.42-127.62-271.59C-307,171.46-340.5,0-340.5,0h-48.76s38.6,191.44,125.12,390.83C-164.2,621.14-158.47,625.17-122.57,676s69.67,50.46,101.8,42.57c13.25-3.26,205.66-89.79,412.48-81.67,294.83,11.58,655.11,119.51,876.48,114.3,301.6-7.09,471-133.9,522.41-201.25,2.56-3.35,82.37-108,128.28-250.38C1979.16,112.51,2001.5,0,2001.5,0Z"/></svg>